<?xml version="1.0" encoding="utf-8"?>
<!-- Generated by IcoMoon.io -->
<!DOCTYPE svg PUBLIC "-//W3C//DTD SVG 1.1//EN" "http://www.w3.org/Graphics/SVG/1.1/DTD/svg11.dtd">

<svg version="1.1" xmlns="http://www.w3.org/2000/svg" xmlns:xlink="http://www.w3.org/1999/xlink" width="176" height="32" viewBox="0 0 176 32">
<defs>

<g id="icon_muroka">
	<path class="path1" fill="#28809E" d="M10,14c0.753,0,1.504-0.287,2.074-0.859c1.148-1.146,0.844-2.831,0-4.15L10,6L7.926,8.99
		c-0.844,1.319-1.148,3.004,0,4.15C8.496,13.713,9.247,14,10,14z M10,26l-2.074,2.99c-0.844,1.319-1.148,3.004,0,4.15
		C8.496,33.713,9.247,34,10,34s1.504-0.287,2.074-0.859c1.148-1.146,0.844-2.831,0-4.15L10,26z M20,14
		c0.753,0,1.504-0.287,2.074-0.859c1.148-1.146,0.844-2.831,0-4.15L20,6l-2.074,2.99c-0.844,1.319-1.148,3.004,0,4.15
		C18.496,13.713,19.247,14,20,14z M20,26l-2.074,2.99c-0.844,1.319-1.148,3.004,0,4.15C18.496,33.713,19.247,34,20,34
		s1.504-0.287,2.074-0.859c1.148-1.146,0.844-2.831,0-4.15L20,26z M30,14c0.753,0,1.504-0.287,2.074-0.859
		c1.148-1.146,0.844-2.831,0-4.15L30,6l-2.074,2.99c-0.844,1.319-1.148,3.004,0,4.15C28.496,13.713,29.247,14,30,14z M30,16.044
		l-2.24,3.23c-0.812,1.266-1.216,3.056,0.051,4.318C28.394,24.178,29.172,24.5,30,24.5s1.606-0.322,2.19-0.908
		c1.266-1.262,0.861-3.052,0.06-4.303L30,16.044z M31.552,22.955c-0.413,0.415-0.965,0.643-1.552,0.643s-1.139-0.228-1.551-0.641
		c-0.389-0.389-0.542-0.861-0.542-1.351c0-0.633,0.258-1.294,0.603-1.831c0,0,1.015-1.464,1.49-2.149
		c0.477,0.687,1.5,2.163,1.5,2.163c0.339,0.529,0.594,1.186,0.594,1.815C32.094,22.094,31.94,22.567,31.552,22.955z M20,16.044
		l-2.24,3.23c-0.812,1.266-1.216,3.056,0.051,4.318C18.394,24.178,19.172,24.5,20,24.5s1.606-0.322,2.19-0.908
		c1.266-1.262,0.861-3.052,0.06-4.303L20,16.044z M21.552,22.955c-0.413,0.415-0.965,0.643-1.552,0.643s-1.139-0.228-1.551-0.641
		c-0.389-0.389-0.542-0.861-0.542-1.351c0-0.633,0.258-1.294,0.603-1.831c0,0,1.015-1.464,1.49-2.149
		c0.477,0.687,1.5,2.163,1.5,2.163c0.339,0.529,0.594,1.186,0.594,1.815C22.094,22.094,21.94,22.567,21.552,22.955z M10,16.044
		l-2.24,3.23c-0.812,1.266-1.216,3.056,0.051,4.318C8.394,24.178,9.172,24.5,10,24.5s1.606-0.322,2.19-0.908
		c1.266-1.262,0.861-3.052,0.06-4.303L10,16.044z M11.552,22.955c-0.413,0.415-0.965,0.643-1.552,0.643s-1.139-0.228-1.551-0.641
		c-0.389-0.389-0.542-0.861-0.542-1.351c0-0.633,0.258-1.294,0.603-1.831c0,0,1.015-1.464,1.49-2.149
		c0.477,0.687,1.5,2.163,1.5,2.163c0.339,0.529,0.594,1.186,0.594,1.815C12.094,22.094,11.94,22.567,11.552,22.955z M30,26
		l-2.074,2.99c-0.844,1.319-1.148,3.004,0,4.15C28.496,33.713,29.247,34,30,34s1.504-0.287,2.074-0.859
		c1.148-1.146,0.844-2.831,0-4.15L30,26z M36,0H4C1.8,0,0,1.8,0,4v32c0,2.2,1.8,4,4,4h32c2.2,0,4-1.8,4-4V4C40,1.8,38.2,0,36,0z
		 M36,35c0,0.55-0.45,1-1,1H5c-0.55,0-1-0.45-1-1V5c0-0.55,0.45-1,1-1h30c0.55,0,1,0.45,1,1V35z"/>
</g>

<g id="icon_nigori">
	<path  class="path1" fill="#50C5D1" d="M36,0H4C1.8,0,0,1.8,0,4v32c0,2.2,1.8,4,4,4h32c2.2,0,4-1.8,4-4V4C40,1.8,38.2,0,36,0z M36,35
		c0,0.55-0.45,1-1,1H5c-0.55,0-1-0.45-1-1V14.234c5.188-3.172,10.255-2.977,15.463,0.596c2.596,1.784,5.207,2.806,7.822,3.083
		C27.109,18.455,27,19.189,27,20c0,1.65,0.45,3,1,3s1-1.35,1-3c0-0.771-0.101-1.469-0.262-2.001c2.424-0.002,4.848-0.659,7.262-1.955
		V35z M36,13.762c-5.189,3.176-10.259,2.98-15.462-0.596C15.051,9.401,9.497,9.004,4,11.953V5c0-0.55,0.45-1,1-1h30
		c0.55,0,1,0.45,1,1V13.762z M8,13c-0.55,0-1,1.35-1,3s0.45,3,1,3s1-1.35,1-3S8.55,13,8,13z M12,17c-0.55,0-1,1.35-1,3s0.45,3,1,3
		s1-1.35,1-3S12.55,17,12,17z M12,25c-0.55,0-1,1.35-1,3s0.45,3,1,3s1-1.35,1-3S12.55,25,12,25z M8,21c-0.55,0-1,1.35-1,3s0.45,3,1,3
		s1-1.35,1-3S8.55,21,8,21z M8,29c-0.55,0-1,1.35-1,3s0.45,3,1,3s1-1.35,1-3S8.55,29,8,29z M16,13c-0.55,0-1,1.35-1,3s0.45,3,1,3
		s1-1.35,1-3S16.55,13,16,13z M20,17c-0.55,0-1,1.35-1,3s0.45,3,1,3s1-1.35,1-3S20.55,17,20,17z M20,25c-0.55,0-1,1.35-1,3
		s0.45,3,1,3s1-1.35,1-3S20.55,25,20,25z M16,21c-0.55,0-1,1.35-1,3s0.45,3,1,3s1-1.35,1-3S16.55,21,16,21z M16,29
		c-0.55,0-1,1.35-1,3s0.45,3,1,3s1-1.35,1-3S16.55,29,16,29z M28,25c-0.55,0-1,1.35-1,3s0.45,3,1,3s1-1.35,1-3S28.55,25,28,25z
		 M24,21c-0.55,0-1,1.35-1,3s0.45,3,1,3s1-1.35,1-3S24.55,21,24,21z M24,29c-0.55,0-1,1.35-1,3s0.45,3,1,3s1-1.35,1-3S24.55,29,24,29
		z M32,27c0.55,0,1-1.35,1-3s-0.45-3-1-3s-1,1.35-1,3S31.45,27,32,27z M32,35c0.55,0,1-1.35,1-3s-0.45-3-1-3s-1,1.35-1,3
		S31.45,35,32,35z"/>
</g>

<g id="icon_arabashiri">
	<path class="path1" fill="#FF4545" d="M36,0H4C1.8,0,0,1.8,0,4v32c0,2.2,1.8,4,4,4h32c2.2,0,4-1.8,4-4V4C40,1.8,38.2,0,36,0z M36,35
		c0,0.55-0.45,1-1,1H5c-0.55,0-1-0.45-1-1V23h32V35z M36,15H4v-4h32V15z M36,9H4V5c0-0.55,0.45-1,1-1h30c0.55,0,1,0.45,1,1V9z M20,34
		c0.753,0,1.504-0.287,2.074-0.859c1.148-1.146,0.844-2.831,0-4.15L20,26l-2.074,2.99c-0.844,1.319-1.148,3.004,0,4.15
		C18.496,33.713,19.247,34,20,34z M10,34c0.753,0,1.504-0.287,2.074-0.859c1.148-1.146,0.844-2.831,0-4.15L10,26l-2.074,2.99
		c-0.844,1.319-1.148,3.004,0,4.15C8.496,33.713,9.247,34,10,34z M30,34c0.753,0,1.504-0.287,2.074-0.859
		c1.148-1.146,0.844-2.831,0-4.15L30,26l-2.074,2.99c-0.844,1.319-1.148,3.004,0,4.15C28.496,33.713,29.247,34,30,34z"/>
</g>

<g id="icon_nakadori">
<path class="path1" fill="#FF4545" d="M36,0H4C1.8,0,0,1.8,0,4v32c0,2.2,1.8,4,4,4h32c2.2,0,4-1.8,4-4V4C40,1.8,38.2,0,36,0z M36,35
	c0,0.55-0.45,1-1,1H5c-0.55,0-1-0.45-1-1V23h32V35z M36,21H4v-4h32V21z M36,9H4V5c0-0.55,0.45-1,1-1h30c0.55,0,1,0.45,1,1V9z M20,34
	c0.753,0,1.504-0.287,2.074-0.859c1.148-1.146,0.844-2.831,0-4.15L20,26l-2.074,2.99c-0.844,1.319-1.148,3.004,0,4.15
	C18.496,33.713,19.247,34,20,34z M10,34c0.753,0,1.504-0.287,2.074-0.859c1.148-1.146,0.844-2.831,0-4.15L10,26l-2.074,2.99
	c-0.844,1.319-1.148,3.004,0,4.15C8.496,33.713,9.247,34,10,34z M30,34c0.753,0,1.504-0.287,2.074-0.859
	c1.148-1.146,0.844-2.831,0-4.15L30,26l-2.074,2.99c-0.844,1.319-1.148,3.004,0,4.15C28.496,33.713,29.247,34,30,34z"/>
</g>

<g id="icon_seme">
<path class="path1" fill="#FF4545" d="M36,0H4C1.8,0,0,1.8,0,4v32c0,2.2,1.8,4,4,4h32c2.2,0,4-1.8,4-4V4C40,1.8,38.2,0,36,0z M36,35
	c0,0.55-0.45,1-1,1H5c-0.55,0-1-0.45-1-1V23h32V35z M36,21H4v-4h32V21z M36,15H4v-4h32V15z M20,34c0.753,0,1.504-0.287,2.074-0.859
	c1.148-1.146,0.844-2.831,0-4.15L20,26l-2.074,2.99c-0.844,1.319-1.148,3.004,0,4.15C18.496,33.713,19.247,34,20,34z M10,34
	c0.753,0,1.504-0.287,2.074-0.859c1.148-1.146,0.844-2.831,0-4.15L10,26l-2.074,2.99c-0.844,1.319-1.148,3.004,0,4.15
	C8.496,33.713,9.247,34,10,34z M30,34c0.753,0,1.504-0.287,2.074-0.859c1.148-1.146,0.844-2.831,0-4.15L30,26l-2.074,2.99
	c-0.844,1.319-1.148,3.004,0,4.15C28.496,33.713,29.247,34,30,34z"/>
</g>

<g id="icon_nama">
<path class="path1" fill="#42B2B2" d="M20.063,7l-6.746,9.715c-2.731,4.289-3.722,9.766,0,13.492C15.182,32.066,17.622,33,20.063,33
	s4.881-0.934,6.747-2.793c3.721-3.727,2.731-9.203,0-13.492L20.063,7z M13.823,26.97c-1.751-3.567,1.037-8.69,2.789-10.636
	c0,0-1.813,4.863,0.583,9.725C18.439,28.584,15.777,30.949,13.823,26.97z M36,0H4C1.8,0,0,1.8,0,4v32c0,2.2,1.8,4,4,4h32
	c2.2,0,4-1.8,4-4V4C40,1.8,38.2,0,36,0z M36,35c0,0.55-0.45,1-1,1H5c-0.55,0-1-0.45-1-1V5c0-0.55,0.45-1,1-1h30c0.55,0,1,0.45,1,1
	V35z"/>
</g>

<g id="icon_namazume">
<path class="path1" fill="#42B2B2" d="M36,0H4C1.8,0,0,1.8,0,4v32c0,2.2,1.8,4,4,4h32c2.2,0,4-1.8,4-4V4C40,1.8,38.2,0,36,0z M36,35
	c0,0.55-0.45,1-1,1H5c-0.55,0-1-0.45-1-1V5c0-0.55,0.45-1,1-1h30c0.55,0,1,0.45,1,1V35z M29.479,6.063l-0.941-0.038V6l-0.389,0.012
	L27.76,6v0.025l-0.938,0.038c0,4.021-0.006,7.366-1.714,10.282c-0.917,1.568-1.703,2.914-1.703,5.332v11.271
	c0,0.466,0.395,0.682,0.848,0.843c0,0,1.132,0.208,3.739,0.208c2.53,0,4.051-0.208,4.051-0.208c0.519-0.243,0.823-0.377,0.823-0.843
	V21.678c0-2.418-0.762-3.764-1.685-5.332C29.473,13.43,29.479,10.084,29.479,6.063z M13.999,14l-5.188,7.476
	c-2.103,3.297-2.864,7.512,0,10.376C10.245,33.284,12.123,34,13.999,34c1.878,0,3.756-0.716,5.19-2.148
	c2.863-2.864,2.103-7.079,0-10.376L13.999,14z M9.201,29.361c-1.347-2.744,0.797-6.683,2.145-8.179c0,0-1.395,3.739,0.448,7.48
	C12.751,30.604,10.704,32.425,9.201,29.361z"/>
</g>

<g id="icon_namachozou">
<path class="path1" fill="#42B2B2" d="M33.416,17.055H21.492c-0.323,0-0.582,0.248-0.582,0.553v13.839c0,0.306,0.259,0.554,0.582,0.554h0.205
	c0.318,0,0.578-0.248,0.578-0.554v-0.578h10.359v0.578c0,0.306,0.259,0.554,0.577,0.554h0.204C33.741,32,34,31.752,34,31.446V17.607
	C34,17.303,33.741,17.055,33.416,17.055z M23.404,21.665c0,0.353-0.271,0.64-0.603,0.64c-0.33,0-0.6-0.287-0.6-0.64v-3.037
	c0-0.353,0.27-0.639,0.6-0.639c0.332,0,0.603,0.286,0.603,0.639V21.665z M33.416,8H21.492c-0.323,0-0.582,0.248-0.582,0.553v7.021
	c0,0.306,0.259,0.553,0.582,0.553h11.924c0.325,0,0.584-0.247,0.584-0.553V8.553C34,8.248,33.741,8,33.416,8z M23.404,14.313
	c0,0.354-0.271,0.642-0.603,0.642c-0.33,0-0.6-0.288-0.6-0.642v-3.037c0-0.353,0.27-0.639,0.6-0.639
	c0.332,0,0.603,0.286,0.603,0.639V14.313z M36,0H4C1.8,0,0,1.8,0,4v32c0,2.2,1.8,4,4,4h32c2.2,0,4-1.8,4-4V4C40,1.8,38.2,0,36,0z
	 M36,35c0,0.55-0.45,1-1,1H5c-0.55,0-1-0.45-1-1V5c0-0.55,0.45-1,1-1h30c0.55,0,1,0.45,1,1V35z M11.999,14l-4.668,6.728
	c-1.894,2.968-2.579,6.761,0,9.339C8.62,31.355,10.311,32,11.999,32c1.69,0,3.381-0.645,4.671-1.934
	c2.578-2.578,1.894-6.371,0-9.339L11.999,14z M7.682,27.825c-1.212-2.47,0.717-6.015,1.93-7.361c0,0-1.256,3.366,0.403,6.732
	C10.876,28.943,9.034,30.582,7.682,27.825z"/>
</g>

<g id="icon_hiyaoroshi">
<path class="path1" fill="#BF0000" d="M36,0H4C1.8,0,0,1.8,0,4v32c0,2.2,1.8,4,4,4h32c2.2,0,4-1.8,4-4V4C40,1.8,38.2,0,36,0z M36,35
	c0,0.55-0.45,1-1,1H5c-0.55,0-1-0.45-1-1V5c0-0.55,0.45-1,1-1h30c0.55,0,1,0.45,1,1V35z M33.913,18.563
	c-0.229-0.059-1.417-0.872-1.882-1.071c-0.466-0.196-1.975-1.439-2.191-1.592c-0.217-0.151-1.62-1.427-1.691-1.498
	c-0.075-0.071-0.789-0.308-0.923-0.348c0.132-0.096,0.776-0.425,1.287-0.431c0.51-0.008,2.209-0.256,2.467-0.3
	c0.259-0.042,0.414-0.034,0.115-0.16c-0.298-0.129-0.948-0.41-1.086-0.417c-0.14-0.002-3.368-0.647-3.593-0.729
	c-0.41-0.154-0.521,0.051-1.527-0.194c-0.594,0.173-1.332,0.361-2.027,0.578c0.313-1.204,0.908-2.345,1.59-3.416
	c1.077-1.686,3.516-3.421,3.524-3.43L27.338,5c-0.044,0.034-2.256,1.912-3.374,3.68c-0.692,1.093-1.709,3.58-1.744,3.664
	c-0.554-0.879-1.549-1.608-3.008-2.245c-0.347-0.096-1.271-0.173-1.52-0.161c-0.251,0.011-2.552-0.551-2.552-0.551
	s-1.199-0.39-1.455-0.443c-0.259-0.056-0.398-0.118-0.18,0.104c0.216,0.225,1.332,0.921,1.456,0.976
	c0.127,0.055,1.725,1.051,1.95,1.263c0.229,0.212,0.659,0.406,0.717,0.483c-0.151-0.017-1.309,0.107-1.521,0.104
	c-0.212-0.002-1.473,0.404-1.737,0.449c-0.267,0.045-2.273,0.523-2.722,0.506c-0.512-0.018-1.961,0.212-2.195,0.172
	c-0.236-0.045-0.707-0.018-0.968,0.014c-0.262,0.028-0.414,0.012-0.124,0.154c0.289,0.143,1.598,0.447,1.736,0.459
	c0.139,0.01,3.712,0.927,3.933,1.022c0.496,0.215,2.354,0.269,2.571,0.264c-0.288,0.085-0.684,0.139-0.916,0.236
	c-0.347,0.145-2.486,1.517-3.334,2.21c-0.848,0.695-3.21,3.479-3.316,3.656c-0.104,0.178-1.253,1.072-1.301,1.166
	C7.688,22.274,5,24.289,5,24.289s2.051-0.724,2.205-0.887c0.152-0.163,2.517-1.336,2.706-1.417c0.352-0.147,1.914-0.353,2.141-0.414
	c0.146-0.04,4.354-1.653,4.56-1.697c0.203-0.043,1.426-0.95,1.418-1.305c-0.001-0.056,0.523-0.228,0.609-0.307
	c-0.056,0.152-0.819,0.996-0.819,0.996s-1.517,3.367-1.515,3.643c0,0.276-0.109,1.739-0.109,1.739s0.161,3.193,0.238,3.404
	c0.075,0.213,0.452,1.013,0.316,1.383c-0.133,0.369-0.08,2.579-0.202,2.938c-0.082,0.241-0.382,1.53-0.298,1.656
	c0.226,0.347-0.219,0.462-0.004,0.966c0.094,0.223,1.348-2.678,1.389-2.862c0.021-0.091,0.9-1.864,0.976-2.248
	s0.822-0.911,1.003-1.063c0.177-0.15,1.547-2.333,1.562-2.282c0.015,0.049,1.424-2.768,1.509-2.914
	c0.088-0.156-0.006-1.225-0.006-1.225l0.153-1.977c0,0-0.176-0.812-0.134-0.977c0.039,0.096,0.733,1.048,0.726,1.206
	c-0.006,0.155,0.864,1.537,1.046,1.645c0.181,0.111,1.294,1.516,1.515,1.645c0.673,0.39,2.412,2.015,2.65,2.298
	c0.127,0.154,1.628,2.223,1.679,2.435c0.056,0.213,0.714,1.206,0.922,1.399c0.208,0.194,0.583,0.348,0.583,0.348
	s-0.411-0.533-0.409-0.592c0.002-0.055-1.514-3.859-1.517-4.063c-0.001-0.205-0.221-1.58-0.239-1.653
	c-0.017-0.068-0.457-2.042-0.855-3.027c-0.399-0.983-1.591-2.849-1.85-3.111c-0.206-0.21-0.651-0.45-0.862-0.661
	c-0.13-0.13-0.241-0.273-0.335-0.419c0.576,0.25,0.92,0.427,1.478,0.702c0.516,0.237,1.259,0.518,1.801,0.532
	c0.243,0.008,3.927,0.539,4.056,0.587c0.129,0.047,1.398,0.467,1.725,0.459c0.327-0.004,0.182-0.055-0.038-0.189
	C34.554,18.845,34.145,18.623,33.913,18.563z"/>
</g>

<g id="icon_shizuku">
<path class="path1" fill="#E05314" d="M36,0H4C1.8,0,0,1.8,0,4v32c0,2.2,1.8,4,4,4h32c2.2,0,4-1.8,4-4V4C40,1.8,38.2,0,36,0z M36,35
	c0,0.55-0.45,1-1,1H5c-0.55,0-1-0.45-1-1V5c0-0.55,0.45-1,1-1h14.5v5.237c-0.259,0.07-0.415,0.169-0.592,0.131
	c-0.294-0.063-1.703-1.132-1.561,0.692c0.128,1.57,0.96,2.045,1.193,2.149c-0.118,0.015-0.226,0.071-0.273,0.163
	c-0.067,0.131,0.02,0.275,0.192,0.331c-0.083,0.026-0.155,0.077-0.192,0.145c-0.056,0.112,0,0.233,0.123,0.303
	c-0.052,0.028-0.096,0.065-0.123,0.112c-0.048,0.095-0.014,0.196,0.072,0.267C13.933,15.064,13,22.38,13,24.681
	c0,7.313,3.039,10.283,7,10.317c0.022,0,0.044,0.002,0.065,0.002C24.061,35,27,32.39,27,24.681c0-2.339-0.826-9.619-5.205-11.153
	c0.084-0.07,0.117-0.171,0.069-0.265c-0.024-0.047-0.069-0.084-0.121-0.112c0.122-0.068,0.179-0.19,0.121-0.303
	c-0.036-0.067-0.106-0.118-0.192-0.145c0.174-0.056,0.26-0.2,0.192-0.331c-0.045-0.088-0.146-0.142-0.256-0.161
	c0.716-0.58,1.565-2.18,1.108-2.78c-0.336-0.443-0.974,0.053-1.392-0.125C20.91,9.13,20.888,9.195,20.5,9.195V4H35
	c0.55,0,1,0.45,1,1V35z"/>
</g>

<g id="icon_jika">
<path class="path1" fill="#1F2735" d="M36,0H4C1.8,0,0,1.8,0,4v32c0,2.2,1.8,4,4,4h32c2.2,0,4-1.8,4-4V4C40,1.8,38.2,0,36,0z M36,8h-8
	c-4.842,0-14,2.926-14,14h4.668c0-8.99,8.387-9.325,9.343-9.333H36V35c0,0.55-0.45,1-1,1H5c-0.55,0-1-0.45-1-1V5c0-0.55,0.45-1,1-1
	h30c0.55,0,1,0.45,1,1V8z M13.932,32.926C14.639,33.643,15.569,34,16.5,34c0.932,0,1.863-0.357,2.569-1.074
	c1.422-1.432,1.047-3.537,0-5.188L16.5,24l-2.568,3.738C12.886,29.389,12.509,31.494,13.932,32.926z"/>
</g>

<g id="icon_enshinbunri">
	<path class="path1" d="M15.064,10.133l4.293,1.895l-0.054-2.188c1.464,0.273,2.81,0.933,3.913,1.874
		c1.643,1.402,2.74,3.424,2.922,5.741c0.095,1.19-0.063,2.333-0.427,3.393l2.122,0.73c0.461-1.341,0.661-2.799,0.545-4.299
		c-0.23-2.931-1.631-5.507-3.701-7.271c-1.514-1.294-3.389-2.167-5.434-2.448l-0.067-2.65l-4.978,3.147L12.86,8.899l-0.243,0.154
		l0.424,0.189L15.064,10.133z M11.11,17.33c-2.423,1.667-3.953,4.165-4.446,6.84c-0.363,1.959-0.184,4.015,0.595,5.933L5,31.482
		l5.213,2.739l1.401,0.734l0.253,0.136l-0.049-0.462l-0.238-2.198l-0.507-4.666l-1.868,1.142c-0.5-1.405-0.599-2.896-0.332-4.325
		c0.392-2.119,1.59-4.082,3.508-5.4c0.984-0.676,2.055-1.112,3.154-1.324l-0.429-2.206C13.715,15.924,12.352,16.479,11.11,17.33z
		 M34.703,22.967l-0.013-0.291l-0.375,0.273l-1.784,1.306l-3.787,2.775l1.922,1.043c-0.966,1.133-2.211,1.972-3.578,2.452
		c-2.035,0.722-4.333,0.664-6.435-0.337c-1.077-0.516-1.987-1.223-2.726-2.069l-1.692,1.47c0.933,1.075,2.095,1.978,3.452,2.625
		c2.652,1.266,5.583,1.338,8.149,0.428c1.876-0.661,3.569-1.85,4.835-3.478L35,30.431l-0.236-5.885L34.703,22.967z M36,0H4
		C1.8,0,0,1.8,0,4v32c0,2.2,1.8,4,4,4h32c2.2,0,4-1.8,4-4V4C40,1.8,38.2,0,36,0z M36,35c0,0.55-0.45,1-1,1H5c-0.55,0-1-0.45-1-1V5
		c0-0.55,0.45-1,1-1h30c0.55,0,1,0.45,1,1V35z"/>
</g>

<g id="icon_fune">
<path class="path1" fill="#E05314" d="M36,0H4C1.8,0,0,1.8,0,4v32c0,2.2,1.8,4,4,4h32c2.2,0,4-1.8,4-4V4C40,1.8,38.2,0,36,0z M36,35
	c0,0.55-0.45,1-1,1H5c-0.55,0-1-0.45-1-1V5c0-0.55,0.45-1,1-1h30c0.55,0,1,0.45,1,1V35z M30.832,18.429h-3.333V7h-3.33v11.429
	h-3.337L25.836,27L30.832,18.429z M31,29H9c-1.1,0-2,0.9-2,2s0.9,2,2,2h22c1.1,0,2-0.9,2-2S32.1,29,31,29z M19.168,18.429h-3.337V7
	h-3.33v11.429H9.168L14.17,27L19.168,18.429z"/>
</g>

<g id="icon_fune">
<path class="path1" fill="#E05314" d="M36,0H4C1.8,0,0,1.8,0,4v32c0,2.2,1.8,4,4,4h32c2.2,0,4-1.8,4-4V4C40,1.8,38.2,0,36,0z M36,35
	c0,0.55-0.45,1-1,1H5c-0.55,0-1-0.45-1-1V5c0-0.55,0.45-1,1-1h30c0.55,0,1,0.45,1,1V35z M30.832,18.429h-3.333V7h-3.33v11.429
	h-3.337L25.836,27L30.832,18.429z M31,29H9c-1.1,0-2,0.9-2,2s0.9,2,2,2h22c1.1,0,2-0.9,2-2S32.1,29,31,29z M19.168,18.429h-3.337V7
	h-3.33v11.429H9.168L14.17,27L19.168,18.429z"/>
</g>

<g id="icon_kimoto">
<path class="path1" fill="#ED8A2F" d="M27.17,7.691c0.285-1.063,0.084-2.048-0.448-2.19c-0.531-0.143-1.198,0.61-1.483,1.673L21.802,20H7v4h2v10
	h22V24h2v-4h-9.127L27.17,7.691z M36,0H4C1.8,0,0,1.8,0,4v32c0,2.2,1.8,4,4,4h32c2.2,0,4-1.8,4-4V4C40,1.8,38.2,0,36,0z M36,35
	c0,0.55-0.45,1-1,1H5c-0.55,0-1-0.45-1-1V5c0-0.55,0.45-1,1-1h30c0.55,0,1,0.45,1,1V35z M15.75,17c0,0.828,0.672,1.5,1.5,1.5
	s1.5-0.672,1.5-1.5s-0.672-1.5-1.5-1.5S15.75,16.172,15.75,17z M15.75,11c1.656,0,3-1.344,3-3s-1.344-3-3-3s-3,1.344-3,3
	S14.094,11,15.75,11z M11.25,16c1.104,0,2-0.896,2-2s-0.896-2-2-2s-2,0.896-2,2S10.146,16,11.25,16z"/>
</g>

<g id="icon_yamahaimoto">
<path class="path1" fill="#ED8A2F" d="M22,11c1.656,0,3-1.344,3-3s-1.344-3-3-3s-3,1.344-3,3S20.344,11,22,11z M22,17c0,0.828,0.672,1.5,1.5,1.5
	S25,17.828,25,17s-0.672-1.5-1.5-1.5S22,16.172,22,17z M17.5,16c1.104,0,2-0.896,2-2s-0.896-2-2-2s-2,0.896-2,2S16.396,16,17.5,16z
	 M7,24h2v10h22V24h2v-4H7V24z M36,0H4C1.8,0,0,1.8,0,4v32c0,2.2,1.8,4,4,4h32c2.2,0,4-1.8,4-4V4C40,1.8,38.2,0,36,0z M36,35
	c0,0.55-0.45,1-1,1H5c-0.55,0-1-0.45-1-1V5c0-0.55,0.45-1,1-1h30c0.55,0,1,0.45,1,1V35z"/>
</g>

<g id="icon_taru">
<path class="path1" fill="#8B5C29" d="M36,0H4C1.8,0,0,1.8,0,4v32c0,2.2,1.8,4,4,4h32c2.2,0,4-1.8,4-4V4C40,1.8,38.2,0,36,0z M36,35
	c0,0.55-0.45,1-1,1H5c-0.55,0-1-0.45-1-1V5c0-0.55,0.45-1,1-1h30c0.55,0,1,0.45,1,1V35z M10.833,34h18.334c0,0,0.69-1.518,1.225-5
	H9.608C10.142,32.482,10.833,34,10.833,34z M29.167,6H10.833c0,0-0.691,1.518-1.225,5h20.783C29.857,7.518,29.167,6,29.167,6z
	 M9.351,13C9.146,14.9,9,17.208,9,20s0.146,5.1,0.351,7h21.297C30.855,25.1,31,22.792,31,20s-0.145-5.1-0.352-7H9.351z"/>
</g>

<g id="icon_taru">
<path class="path1" fill="#8B5C29" d="M36,0H4C1.8,0,0,1.8,0,4v32c0,2.2,1.8,4,4,4h32c2.2,0,4-1.8,4-4V4C40,1.8,38.2,0,36,0z M36,35
	c0,0.55-0.45,1-1,1H5c-0.55,0-1-0.45-1-1V5c0-0.55,0.45-1,1-1h30c0.55,0,1,0.45,1,1V35z M10.833,34h18.334c0,0,0.69-1.518,1.225-5
	H9.608C10.142,32.482,10.833,34,10.833,34z M29.167,6H10.833c0,0-0.691,1.518-1.225,5h20.783C29.857,7.518,29.167,6,29.167,6z
	 M9.351,13C9.146,14.9,9,17.208,9,20s0.146,5.1,0.351,7h21.297C30.855,25.1,31,22.792,31,20s-0.145-5.1-0.352-7H9.351z"/>
</g>

<g id="icon_genshu">
<path class="path1" fill="#22445B" d="M39.903,25.227l-0.109-0.191V4c0-2.2-1.79-4-3.979-4H3.979C1.791,0,0,1.8,0,4v32c0,2.199,1.791,4,3.979,4
	h31.835c2.189,0,3.979-1.801,3.979-4v-9.895C40.012,25.874,40.07,25.518,39.903,25.227z M35.814,19.84l-0.02-0.033l0.02-0.012V19.84
	z M35.814,18.198c-0.235-0.196-0.575-0.243-0.852-0.081l-0.094,0.064l-2.813-4.887l0.104-0.063c0.353-0.201,0.476-0.664,0.271-1.022
	l-0.186-0.328c-0.204-0.356-0.672-0.482-1.027-0.279l-0.094,0.067l-2.811-4.883l0.105-0.062c0.354-0.205,0.477-0.668,0.273-1.026
	l-0.186-0.325c-0.207-0.357-0.663-0.48-1.02-0.273l-14.906,8.64c-0.343,0.209-0.467,0.674-0.261,1.031l0.188,0.327
	c0.206,0.356,0.662,0.479,1.017,0.273l0.151-0.098l2.816,4.886l-0.167,0.093c-0.344,0.211-0.467,0.673-0.263,1.032l0.188,0.324
	c0.206,0.357,0.659,0.48,1.015,0.273l0.156-0.094l2.81,4.885l-0.164,0.092c-0.357,0.207-0.477,0.668-0.273,1.023l0.186,0.326
	c0.208,0.357,0.671,0.482,1.013,0.277l0.171-0.096l2.797,4.881l-0.154,0.095c-0.355,0.207-0.479,0.671-0.272,1.028l0.187,0.324
	c0.205,0.357,0.674,0.486,1.016,0.273l11.078-6.43V35c0,0.549-0.448,1-0.995,1H4.974c-0.547,0-0.995-0.451-0.995-1V5
	c0-0.55,0.448-1,0.995-1h29.845c0.547,0,0.995,0.45,0.995,1V18.198z M9.948,17.43l-2.063,2.99c-0.839,1.319-1.143,3.004,0,4.151
	c0.567,0.572,1.314,0.859,2.063,0.859s1.496-0.287,2.063-0.859c1.143-1.146,0.839-2.832,0-4.151L9.948,17.43z M9.948,26.571
	l-2.063,2.99c-0.839,1.318-1.143,3.004,0,4.15c0.567,0.572,1.314,0.859,2.063,0.859s1.496-0.287,2.063-0.859
	c1.143-1.146,0.839-2.832,0-4.15L9.948,26.571z"/>
</g>

<g id="icon_koshu">
<path class="path1" fill="#3F3F3F" d="M20,6C12.27,6,6,12.271,6,20s6.27,14,14,14s14-6.271,14-14S27.73,6,20,6z M20,32c-6.625,0-12-5.376-12-12
	c0-6.625,5.375-12,12-12s12,5.375,12,12C32,26.624,26.625,32,20,32z M20.811,18.579V8.615h-1.505v9.964
	c-0.448,0.263-0.751,0.745-0.751,1.305c0,0.826,0.673,1.501,1.502,1.501c0.559,0,1.041-0.307,1.301-0.753h8.088v-1.503h-8.088
	C21.224,18.904,21.035,18.717,20.811,18.579z M36,0H4C1.8,0,0,1.8,0,4v32c0,2.2,1.8,4,4,4h32c2.2,0,4-1.8,4-4V4C40,1.8,38.2,0,36,0z
	 M36,35c0,0.55-0.45,1-1,1H5c-0.55,0-1-0.45-1-1V5c0-0.55,0.45-1,1-1h30c0.55,0,1,0.45,1,1V35z"/>
</g>

<g id="icon_ori">
<path class="path1" fill="#50C5D1" d="M36,0H4C1.8,0,0,1.8,0,4v32c0,2.2,1.8,4,4,4h32c2.2,0,4-1.8,4-4V4C40,1.8,38.2,0,36,0z M36,35
	c0,0.55-0.45,1-1,1H5c-0.55,0-1-0.45-1-1V14.234c5.187-3.173,10.255-2.977,15.462,0.596C24.945,18.599,30.5,18.996,36,16.044V35z
	 M36,13.762c-5.189,3.176-10.259,2.98-15.462-0.596C15.051,9.401,9.497,9.004,4,11.953V5c0-0.55,0.45-1,1-1h30c0.55,0,1,0.45,1,1
	V13.762z M8,14c-0.275,0-0.5,0.9-0.5,2s0.225,2,0.5,2s0.5-0.9,0.5-2S8.275,14,8,14z M12,18c-0.275,0-0.5,0.9-0.5,2s0.225,2,0.5,2
	s0.5-0.9,0.5-2S12.275,18,12,18z M12,26c-0.275,0-0.5,0.9-0.5,2s0.225,2,0.5,2s0.5-0.9,0.5-2S12.275,26,12,26z M8,22
	c-0.275,0-0.5,0.9-0.5,2s0.225,2,0.5,2s0.5-0.9,0.5-2S8.275,22,8,22z M8,30c-0.275,0-0.5,0.9-0.5,2s0.225,2,0.5,2s0.5-0.9,0.5-2
	S8.275,30,8,30z M16,14c-0.275,0-0.5,0.9-0.5,2s0.225,2,0.5,2s0.5-0.9,0.5-2S16.275,14,16,14z M20,18c-0.275,0-0.5,0.9-0.5,2
	s0.225,2,0.5,2s0.5-0.9,0.5-2S20.275,18,20,18z M20,26c-0.275,0-0.5,0.9-0.5,2s0.225,2,0.5,2s0.5-0.9,0.5-2S20.275,26,20,26z M16,22
	c-0.275,0-0.5,0.9-0.5,2s0.225,2,0.5,2s0.5-0.9,0.5-2S16.275,22,16,22z M16,30c-0.275,0-0.5,0.9-0.5,2s0.225,2,0.5,2s0.5-0.9,0.5-2
	S16.275,30,16,30z M28,18c-0.275,0-0.5,0.9-0.5,2s0.225,2,0.5,2s0.5-0.9,0.5-2S28.275,18,28,18z M28,26c-0.275,0-0.5,0.9-0.5,2
	s0.225,2,0.5,2s0.5-0.9,0.5-2S28.275,26,28,26z M24,22c-0.275,0-0.5,0.9-0.5,2s0.225,2,0.5,2s0.5-0.9,0.5-2S24.275,22,24,22z M24,30
	c-0.275,0-0.5,0.9-0.5,2s0.225,2,0.5,2s0.5-0.9,0.5-2S24.275,30,24,30z M32,26c0.275,0,0.5-0.9,0.5-2s-0.225-2-0.5-2s-0.5,0.9-0.5,2
	S31.725,26,32,26z M32,34c0.275,0,0.5-0.9,0.5-2s-0.225-2-0.5-2s-0.5,0.9-0.5,2S31.725,34,32,34z"/>
</g>

<g id="icon_shinshu">
<path class="path1" fill="#8BA340" d="M36,0H4C1.8,0,0,1.8,0,4v32c0,2.2,1.8,4,4,4h32c2.2,0,4-1.8,4-4V4C40,1.8,38.2,0,36,0z M36,35
	c0,0.55-0.45,1-1,1H5c-0.55,0-1-0.45-1-1V5c0-0.55,0.45-1,1-1h30c0.55,0,1,0.45,1,1V35z M7.063,14.34l1.227,2.445L19.5,11.376v3.649
	C14.211,15.288,10,19.646,10,25c0,5.522,4.478,10,10,10s10-4.478,10-10c0-5.354-4.211-9.712-9.5-9.975v-3.649l11.211,5.409
	l1.228-2.445L20,7.865L7.063,14.34z M6,11.998l0.611,1.223c0,0,12.805-6.4,13.389-6.689c0.584,0.289,13.386,6.689,13.386,6.689
	L34,11.998L20,5L6,11.998z"/>
</g>

<g id="icon_sparkling">
<path class="path1" fill="#804AC6" d="M36,0H4C1.8,0,0,1.8,0,4v32c0,2.2,1.8,4,4,4h32c2.2,0,4-1.8,4-4V4C40,1.8,38.2,0,36,0z M36,35
	c0,0.55-0.45,1-1,1H5c-0.55,0-1-0.45-1-1V5c0-0.55,0.45-1,1-1h30c0.55,0,1,0.45,1,1V35z M22,21c-1.656,0-3,1.344-3,3s1.344,3,3,3
	s3-1.344,3-3S23.656,21,22,21z M16,13c-1.656,0-3,1.344-3,3s1.344,3,3,3s3-1.344,3-3S17.656,13,16,13z M28,8c-2.209,0-4,1.791-4,4
	s1.791,4,4,4s4-1.791,4-4S30.209,8,28,8z M14,28c-1.104,0-2,0.896-2,2s0.896,2,2,2s2-0.896,2-2S15.104,28,14,28z"/>
</g>

<g id="icon_alcohol">
	<path class="path1" fill="#B1B1B2" d="M9.648,0L1.22,8.429c-1.626,1.627-1.626,4.289,0,5.916l4.437,4.436c1.626,1.625,4.288,1.625,5.915,0
		L20,10.353L9.648,0z M2.189,12c-0.222-0.717-0.056-1.529,0.509-2.091l0.444-0.445l1.774,1.775l0.592-0.591L3.733,8.874l0.887-0.889
		l1.774,1.775l0.591-0.593L5.212,7.394l0.885-0.887l1.776,1.774L8.465,7.69L6.691,5.915l0.887-0.887l1.774,1.775l0.591-0.593
		L8.168,4.437l1.48-1.479l7.394,7.395L15.394,12H2.189z"/>
</g>

<g id="icon_amakara">
	<path class="path1" fill="#3F3F3F" d="M8.384,0.66C6.092,1.83,4.809,4.288,4.809,7.045c0,0.748,0.134,1.522,0.323,2.29
		C2.058,10.613,0,13.167,0,16.016c0,0.32,0.025,0.641,0.081,0.962c0.503,3.221,3.499,5.454,7.212,5.729
		c0.271,3.707,2.513,6.709,5.72,7.219c3.213,0.51,6.23-1.642,7.643-5.058c3.627,0.911,7.184-0.336,8.675-3.257
		c0.459-0.888,0.67-1.85,0.67-2.819c0-2.214-1.177-4.446-3.186-6.117c0.901-1.455,1.491-2.998,1.491-4.512
		c0-1.752-0.601-3.404-1.845-4.637c-2.29-2.298-5.988-2.288-9.145-0.354C14.917,0.288,11.31-0.831,8.384,0.66z M3.042,16.51
		c-0.326-2.067,1.551-4.191,4.273-4.838l1.713-0.406L8.348,9.635C7.27,7.05,7.885,4.285,9.751,3.329
		c1.855-0.943,4.46,0.182,5.918,2.573l0.915,1.506l1.341-1.149c2.119-1.819,4.947-2.088,6.421-0.615
		c1.473,1.484,1.206,4.306-0.614,6.427l-1.148,1.338l1.504,0.92c2.393,1.458,3.516,4.059,2.569,5.926l0,0
		c-0.942,1.86-3.714,2.476-6.297,1.396l-1.634-0.679l-0.408,1.718c-0.646,2.725-2.765,4.602-4.834,4.273
		c-2.06-0.327-3.498-2.769-3.268-5.559l0.133-1.758L8.59,19.788C5.805,20.013,3.365,18.573,3.042,16.51z M29.33,21.611L29.33,21.611
		L29.33,21.611z"/>
</g>

<g id="icon_amino">
	<path class="path1" fill="#B1B1B2" d="M15.89,0l-3.822,3.817c-0.513,0.509-1.157,0.865-1.862,1.027L1.871,6.742
		C1.421,6.844,1.019,7.071,0.703,7.386C0.421,7.668,0.207,8.022,0.095,8.419c-0.244,0.842-0.01,1.75,0.607,2.369l8.477,8.494l0,0
		c0.023,0.023,0.035,0.033,0.037,0.035v-0.002c0.617,0.594,1.504,0.816,2.329,0.58l0,0c0.399-0.113,0.755-0.328,1.039-0.611
		c0.313-0.314,0.54-0.715,0.644-1.162l1.916-8.331c0.16-0.703,0.518-1.347,1.028-1.856L20,4.114L15.89,0z M15.183,6.939L15.181,6.94
		l-0.003,0.001c-0.695,0.698-1.183,1.577-1.402,2.537l-0.249,1.073l-0.215,0.942H3.388l-0.939-0.942L1.697,9.797
		C1.438,9.538,1.339,9.16,1.444,8.81c0.048-0.167,0.136-0.312,0.253-0.43C1.828,8.248,1.995,8.152,2.183,8.11l8.334-1.897
		c0.963-0.22,1.843-0.706,2.541-1.403l2.831-2.826l2.126,2.13L15.183,6.939z"/>
</g>

<g id="icon_rice_used">
	<path class="path1" fill="#8C8C8C" d="M15.373,3.542c0.123-0.235,0.087-0.635-0.111-1.019C15.066,2.149,14.771,1.9,14.52,1.865
		c-0.031-0.042-0.063-0.085-0.098-0.125c-0.017-0.016-0.035-0.032-0.051-0.052c-0.031-0.245-0.203-0.537-0.482-0.771
		c-0.338-0.282-0.723-0.384-0.969-0.287c-0.081-0.042-0.166-0.078-0.252-0.109c-0.13-0.208-0.406-0.392-0.758-0.479
		c-0.414-0.097-0.797-0.021-0.984,0.167c-0.344-0.001-0.695,0.024-1.054,0.089C8.848,0.485,7.819,0.929,6.902,1.58
		C6.488,1.87,6.09,2.225,5.683,2.654C5.342,3.011,5.004,3.412,4.651,3.873C4.051,4.654,3.473,5.512,2.887,6.495
		c-0.315,0.53-0.563,0.972-0.773,1.391c-0.073,0.146-0.13,0.26-0.186,0.39c0,0,0.001-0.001,0.003-0.003
		C1.926,8.276,1.918,8.305,1.863,8.443c0.027-0.129,0.055-0.261,0.079-0.386C2.254,6.613,2.566,5.448,2.926,4.4
		c0.25-0.717,0.47-1.253,0.713-1.743c0.287-0.601,0.417-0.807,0.624-1.079c0.21-0.271,0.632-0.814,0.632-0.814
		S4.371,0.819,4.16,0.928C3.949,1.037,3.582,1.307,3.373,1.524C3.164,1.741,2.746,2.229,2.535,2.556
		c-0.211,0.325-0.492,0.817-0.77,1.446c-0.5,1.121-0.887,2.353-1.188,3.769c-0.262,1.231-0.434,2.537-0.521,3.887
		C0.02,12.301,0,12.89,0,13.447c0,0.627,0.024,1.216,0.073,1.782c-0.006,0.029-0.069,0.667-0.069,0.667L1.223,16l0.05-0.697
		L1.27,15.306c0.007-0.021,0.008-0.045,0.008-0.059l0.031-0.32c0,0,0.021-0.183,0.021-0.186c0.349-0.609,0.715-1.215,1.088-1.795
		l0.037-0.052c0.275-0.422,0.564-0.858,0.873-1.278c0.368-0.513,0.684-0.923,1.004-1.303c0.344-0.428,0.72-0.851,1.121-1.261
		C5.824,8.664,6.832,7.544,7.252,7.22C7.67,6.896,8.77,6.083,8.77,6.083C8.144,6.025,7.145,6.514,7.145,6.514
		s-0.624,0.294-1.169,0.71C5.514,7.565,5.07,7.947,4.535,8.459C4.137,8.853,3.741,9.283,3.329,9.775
		c-0.38,0.469-0.721,0.928-1.021,1.371c-0.157,0.239-0.297,0.458-0.422,0.661c0.063-0.21,0.172-0.595,0.172-0.595
		c0.149-0.488,0.308-0.985,0.469-1.474L2.77,9.006L2.896,8.65C2.934,8.558,2.98,8.459,3.038,8.334C3.231,7.93,3.457,7.503,3.746,6.99
		c0.547-0.968,1.086-1.809,1.645-2.574c0.326-0.445,0.637-0.828,0.944-1.172c0.364-0.4,0.716-0.723,1.075-0.99
		C7.848,1.926,8.316,1.65,8.808,1.438C8.953,1.447,9.1,1.468,9.246,1.501c0.289,0.067,0.555,0.177,0.785,0.331
		C9.785,1.938,9.587,2.315,9.559,2.779C9.543,3.068,9.597,3.331,9.691,3.521c-0.14,0.159-0.25,0.394-0.308,0.67
		C9.27,4.743,9.426,5.244,9.736,5.316c0.307,0.066,0.65-0.325,0.766-0.876c0.064-0.317,0.04-0.612-0.053-0.823
		c0.138-0.18,0.234-0.451,0.252-0.765c0.006-0.1,0.001-0.197-0.01-0.289c0.039,0.067,0.074,0.13,0.105,0.2
		c-0.074,0.225-0.074,0.534,0.027,0.853c0.086,0.259,0.219,0.473,0.367,0.613c-0.189,0.161-0.336,0.479-0.367,0.858
		c-0.039,0.45,0.094,0.841,0.307,0.997c-0.189,0.16-0.33,0.494-0.346,0.89c-0.024,0.563,0.211,1.031,0.527,1.047
		c0.316,0.015,0.59-0.433,0.613-0.996c0.019-0.439-0.122-0.817-0.336-0.972c0.193-0.157,0.341-0.479,0.375-0.86
		c0.026-0.345-0.045-0.657-0.176-0.856c0.213-0.18,0.27-0.628,0.121-1.093c-0.083-0.26-0.216-0.473-0.364-0.614
		c-0.034-0.122-0.065-0.243-0.108-0.368c-0.105-0.3-0.239-0.6-0.41-0.913c-0.037-0.073-0.074-0.136-0.11-0.203
		c0.157,0.086,0.313,0.188,0.47,0.302c0.016,0.013,0.031,0.028,0.047,0.042c-0.09,0.254,0.023,0.657,0.313,1.003
		c0.272,0.328,0.617,0.502,0.874,0.472c0.001,0.011,0.002,0.018,0.007,0.028c-0.185,0.188-0.264,0.58-0.181,1.005
		c0.064,0.336,0.213,0.609,0.386,0.763c0,0.106-0.002,0.218-0.008,0.328c-0.121,0.182-0.208,0.438-0.226,0.733
		c-0.024,0.44,0.111,0.824,0.325,0.98c-0.236,0.119-0.426,0.487-0.451,0.94c-0.023,0.439,0.109,0.82,0.32,0.979
		c-0.001-0.001-0.003-0.003-0.007-0.003c-0.313-0.021-0.595,0.42-0.626,0.984c-0.036,0.565,0.195,1.037,0.508,1.057
		c0.316,0.017,0.6-0.422,0.633-0.984c0.023-0.439-0.109-0.819-0.32-0.978c0,0,0.004,0.002,0.006,0.002
		c0.314,0.019,0.596-0.421,0.628-0.985c0.026-0.444-0.11-0.824-0.321-0.98c0.218-0.109,0.391-0.434,0.438-0.84
		c0.094,0.35,0.287,0.605,0.5,0.669c-0.133,0.189-0.217,0.483-0.208,0.812c0.013,0.564,0.278,1.016,0.594,1.007
		c0.316-0.006,0.56-0.471,0.551-1.034c-0.015-0.504-0.226-0.915-0.499-0.992c0.125-0.202,0.188-0.521,0.143-0.866
		c-0.049-0.406-0.229-0.735-0.439-0.874c0.187-0.205,0.188-0.657-0.016-1.096c-0.234-0.508-0.656-0.806-0.944-0.664
		c-0.019,0.009-0.037,0.024-0.056,0.04c-0.133-0.224-0.273-0.438-0.422-0.641c-0.043-0.203-0.15-0.427-0.32-0.633
		c-0.211-0.249-0.461-0.41-0.68-0.461c-0.008-0.006-0.019-0.017-0.031-0.025c0.188,0.014,0.358-0.006,0.497-0.056
		c0.122,0.045,0.246,0.083,0.364,0.141c0.084,0.179,0.219,0.362,0.408,0.519c0.246,0.21,0.52,0.32,0.746,0.327
		c0,0.001,0,0.001,0,0.001c0.055,0.062,0.102,0.125,0.155,0.188c-0.011,0.218,0.048,0.479,0.181,0.729
		c0.203,0.393,0.516,0.644,0.775,0.658c-0.135,0.199-0.206,0.517-0.174,0.87c0.047,0.563,0.344,0.991,0.662,0.961
		c0.313-0.031,0.525-0.508,0.476-1.071C15.942,3.964,15.672,3.553,15.373,3.542z"/>
</g>

<g id="icon_seimai">
		<path class="path1" fill="#8C8C8C" d="M11.951,1.037l-0.33-0.849c-0.306,0.107-0.602,0.251-0.883,0.4l0.461,0.792
			C11.457,1.241,11.709,1.118,11.951,1.037z M1.309,7.864L0.435,7.571C0.342,7.869,0.262,8.173,0.199,8.473l0.892,0.209
			C1.152,8.413,1.223,8.137,1.309,7.864z M0.957,9.522L0.049,9.396c-0.037,0.316-0.053,0.638-0.048,0.948l0.911,0.021
			C0.91,10.087,0.926,9.806,0.957,9.522z M1.488,12.771l-0.805,0.394c0.156,0.296,0.34,0.575,0.553,0.84l0.705-0.547
			C1.77,13.242,1.616,13.012,1.488,12.771z M0.98,11.196l-0.906,0.106c0.051,0.326,0.125,0.643,0.223,0.951l0.871-0.245
			C1.082,11.75,1.02,11.478,0.98,11.196z M1.949,6.274l-0.82-0.412c-0.141,0.276-0.266,0.556-0.38,0.835l0.849,0.358
			C1.707,6.798,1.824,6.536,1.949,6.274z M3.198,2.821C2.996,3.028,2.793,3.265,2.585,3.532l0.733,0.555
			c0.189-0.239,0.373-0.453,0.549-0.631L3.198,2.821z M2.816,4.789L2.051,4.274C1.879,4.533,1.715,4.79,1.563,5.053l0.795,0.468
			C2.502,5.273,2.652,5.031,2.816,4.789z M3.689,15.712c0.319,0.109,0.645,0.188,0.979,0.234l0.1-0.891
			c-0.275-0.035-0.545-0.098-0.805-0.189L3.689,15.712z M2.521,14.048l-0.58,0.676c0.093,0.076,0.188,0.146,0.281,0.221
			c0.18,0.127,0.359,0.249,0.547,0.356l0.438-0.776c-0.155-0.084-0.305-0.187-0.453-0.295C2.676,14.174,2.598,14.114,2.521,14.048z
			 M11.438,11.915l0.691,0.61c0.203-0.22,0.398-0.454,0.594-0.692l-0.727-0.574C11.816,11.49,11.629,11.709,11.438,11.915z
			 M8.797,14.099l0.486,0.772c0.262-0.151,0.525-0.319,0.783-0.503l-0.549-0.735C9.277,13.802,9.039,13.958,8.797,14.099z
			 M10.199,13.112l0.602,0.691c0.234-0.192,0.461-0.399,0.688-0.614l-0.648-0.651C10.629,12.739,10.414,12.929,10.199,13.112z
			 M5.16,2.532L4.793,1.696C4.504,1.811,4.215,1.974,3.918,2.188L4.48,2.914C4.723,2.739,4.945,2.617,5.16,2.532z M5.598,15.102
			L5.66,16c0.32-0.01,0.646-0.046,0.969-0.104l-0.196-0.887C6.15,15.063,5.871,15.094,5.598,15.102z M7.247,14.802l0.314,0.85
			c0.297-0.096,0.591-0.209,0.888-0.346L8.04,14.49C7.777,14.612,7.512,14.712,7.247,14.802z M12.52,10.569l0.751,0.533
			c0.179-0.25,0.351-0.5,0.515-0.75l-0.773-0.502C12.855,10.09,12.691,10.333,12.52,10.569z M14.262,7.575l0.84,0.384
			c0.128-0.285,0.241-0.572,0.343-0.856l-0.862-0.326C14.488,7.04,14.38,7.306,14.262,7.575z M14.813,2.715l0.848-0.308
			c-0.132-0.318-0.297-0.617-0.508-0.898l-0.728,0.516C14.582,2.241,14.715,2.472,14.813,2.715z M15.086,4.306l0.913,0.044
			c0.005-0.332-0.019-0.657-0.071-0.976l-0.9,0.116C15.071,3.748,15.09,4.022,15.086,4.306z M14.84,5.962l0.883,0.258
			c0.084-0.309,0.148-0.617,0.195-0.918l-0.906-0.168C14.973,5.406,14.914,5.681,14.84,5.962z M13.47,9.114l0.792,0.468
			c0.156-0.265,0.305-0.53,0.445-0.797l-0.82-0.433C13.756,8.604,13.618,8.861,13.47,9.114z M10.447,1.821L9.949,1.055
			C9.676,1.219,9.426,1.369,9.197,1.491l0.447,0.797C9.91,2.149,10.176,1.989,10.447,1.821z M13.324,1.071
			c0.141,0.083,0.273,0.169,0.391,0.258c0.055,0.038,0.105,0.08,0.156,0.117l0.57-0.679c-0.063-0.055-0.125-0.103-0.193-0.151
			c-0.15-0.111-0.31-0.217-0.479-0.313l0.016,0.01l-0.016-0.01C13.41,0.098,13.027,0.005,12.663,0l0.021,0.897
			C12.91,0.899,13.112,0.949,13.324,1.071z M6.707,2.407l0.111-0.887c-0.311-0.047-0.65-0.079-1.014-0.059l0.098,0.902
			C6.17,2.342,6.435,2.365,6.707,2.407z M8.645,2.632L8.505,1.74C8.285,1.769,8.027,1.741,7.73,1.689L7.6,2.571
			C7.932,2.631,8.277,2.677,8.645,2.632z M4.621,11.741c1.785,1.318,4.352,0.28,6.094-2.048c1.742-2.328,2.588-5.11,0.539-6.294
			C10.258,2.821,9.097,4.163,8.325,4.29C7.395,4.446,6.338,3.353,4.84,5.353C3.098,7.681,2.834,10.425,4.621,11.741z"/>
</g>

<g id="icon_syudo">
		<path class="path1" fill="#8C8C8C" d="M11.233,0l-0.85,0.851l0.001,0.002l-9.397,9.398c-1.316,1.315-1.316,3.447-0.001,4.762
			c1.314,1.316,3.447,1.316,4.763,0l9.397-9.397l0.002,0.001L16,4.765L11.233,0z M10.457,8.399H4.742l6.595-6.595l2.857,2.858
			L10.457,8.399z"/>
</g>

<g id="icon_sando">
		<path class="path1" fill="#8C8C8C" d="M15.633,3.974L16,3.606L12.394,0l-0.367,0.367l-0.032-0.032l-3.139,3.14C6.527,2.563,3.781,3.042,1.9,4.924
			c-2.534,2.534-2.534,6.643,0,9.175c2.533,2.535,6.643,2.535,9.176,0.001c1.882-1.881,2.359-4.626,1.449-6.954l3.139-3.14
			L15.633,3.974z M11.902,5.933L11.902,5.933l-0.941,0.941c0.138,0.234,0.254,0.478,0.354,0.726c0.203,0.515,0.315,1.056,0.347,1.6
			c0.007,0.134,0.016,0.267,0.013,0.4H1.303c-0.001-0.134,0.006-0.267,0.014-0.4c0.032-0.544,0.143-1.085,0.347-1.6
			c0.254-0.641,0.638-1.24,1.154-1.759c1.71-1.71,4.317-1.977,6.309-0.802l3.333-3.333l1.834,1.834L11.902,5.933z"/>
</g>

<g id="icon_amino">
	<path class="path1" fill="#8C8C8C" d="M12.714,0L9.656,3.055c-0.41,0.408-0.928,0.693-1.492,0.823L1.495,5.397
		C1.136,5.479,0.816,5.662,0.563,5.914C0.336,6.138,0.164,6.421,0.074,6.739c-0.192,0.675-0.005,1.4,0.486,1.896l6.783,6.798l0,0
		c0.02,0.02,0.027,0.027,0.029,0.028V15.46c0.493,0.476,1.203,0.654,1.865,0.466l0,0c0.318-0.092,0.604-0.264,0.828-0.49
		c0.252-0.252,0.436-0.571,0.516-0.93l1.532-6.667c0.13-0.563,0.418-1.078,0.825-1.487L16,3.294L12.714,0z M12.147,5.555
		l-0.002,0.001l-0.002,0.001c-0.557,0.558-0.945,1.261-1.122,2.029l-0.198,0.859L10.649,9.2H2.71L1.96,8.446L1.354,7.842
		c-0.205-0.206-0.284-0.509-0.2-0.79c0.039-0.134,0.106-0.25,0.202-0.344c0.104-0.106,0.241-0.182,0.389-0.215l6.667-1.519
		c0.773-0.177,1.476-0.565,2.036-1.124l2.265-2.262l1.699,1.704L12.147,5.555z"/>
</g>

<g id="icon_koubo">
	<path class="path1" fill="#8C8C8C" d="M13.042,5.433c3.36-1.712-0.763-5.834-2.474-2.475c1.711-3.359-4.045-4.271-3.452-0.547
		C6.524-1.313,1.33,1.332,3.995,3.997C1.33,1.332-1.314,6.526,2.413,7.114c-3.728-0.588-2.815,5.165,0.545,3.454
		c-3.36,1.711,0.762,5.834,2.472,2.474c-1.71,3.36,4.045,4.272,3.453,0.547c0.592,3.726,5.786,1.079,3.121-1.585
		c2.665,2.664,5.31-2.53,1.582-3.118C17.314,9.473,16.403,3.721,13.042,5.433z"/>
</g>

<g id="icon_top">
<path fill="#B1B1B2" d="M12.838,15.961l1.793,2.052l1.794-2.052l-1.794-2.052L12.838,15.961z M7.457,15.961l1.794,2.052l1.793-2.052
	l-1.793-2.052L7.457,15.961z M16.117,10.157h-2.973l1.486,1.7L16.117,10.157z M10.737,10.157H7.765l1.486,1.7L10.737,10.157z
	 M11.941,14.936l1.793-2.053l-1.793-2.052l-1.794,2.052L11.941,14.936z M11.939,0L0,10.408l1.99,1.735l0.998-0.869v10.492h17.905
	V11.273l0.998,0.87l1.992-1.735L11.939,0z M4.904,19.35v-0.151l0.133,0.151H4.904z M18.979,19.35h-0.133l0.133-0.151V19.35z
	 M18.979,10.157h-0.451l0.451,0.516v2.052l-1.656-1.894l-1.794,2.052l1.794,2.053l1.656-1.895v2.051l-0.76,0.869l0.76,0.869v2.053
	l-1.656-1.896l-1.794,2.053l0.271,0.311h-2.336l0.271-0.311l-1.793-2.053l-1.794,2.053l0.271,0.311H8.083l0.271-0.311L6.56,16.986
	l-1.655,1.896V16.83l0.759-0.869l-0.759-0.867v-2.053l1.655,1.895l1.794-2.053L6.56,10.831l-1.655,1.894v-2.052l0.451-0.516H4.904
	V9.603l7.035-6.132l7.039,6.133V10.157z"/>
</g>

<g id="icon-reply">
	<path class="path1" d="M14 24.238v7.762l-12-12 12-12v7.932c13.961 0.327 13.362-9.493 9.808-15.932 8.772 9.482 6.909 24.674-9.808 24.238z" />
</g>

</defs>
</svg>
