<?xml version="1.0" encoding="utf-8"?>
<!-- Generator: Adobe Illustrator 12.0.0, SVG Export Plug-In  -->
<!DOCTYPE svg PUBLIC "-//W3C//DTD SVG 1.1//EN" "http://www.w3.org/Graphics/SVG/1.1/DTD/svg11.dtd" [
	<!ENTITY ns_flows "http://ns.adobe.com/Flows/1.0/">
	<!ENTITY ns_svg "http://www.w3.org/2000/svg">
	<!ENTITY ns_xlink "http://www.w3.org/1999/xlink">
]>
<svg  version="1.1" xmlns="&ns_svg;" xmlns:xlink="&ns_xlink;" xmlns:a="http://ns.adobe.com/AdobeSVGViewerExtensions/3.0/"
	 width="41" height="41" viewBox="-0.153 -0.158 41 41" enable-background="new -0.153 -0.158 41 41" xml:space="preserve">
<defs>
</defs>
<path fill="#B63634" d="M36,0H4C1.799,0,0,1.8,0,4v32c0,2.2,1.799,4,4,4h32c2.199,0,4-1.8,4-4V4C40,1.8,38.199,0,36,0z M36,35
	c0,0.55-0.451,1-1,1H5c-0.551,0-1-0.45-1-1V5c0-0.55,0.449-1,1-1h30c0.549,0,1,0.45,1,1V35z M23.745,19.722l0.131-0.078l0.109-0.106
	l1.228-1.179c2.042-1.961,3.164-4.555,3.164-7.302v-1.78h0.137C29.336,9.276,30,8.543,30,7.639C30,6.733,29.336,6,28.514,6H11.486
	C10.664,6,10,6.733,10,7.639c0,0.904,0.664,1.638,1.486,1.638h0.137v1.78c0,2.747,1.121,5.341,3.164,7.302l1.228,1.179l0.108,0.106
	l0.132,0.078c0.171,0.104,0.233,0.215,0.233,0.278c0,0.065-0.063,0.175-0.233,0.278l-0.132,0.078l-0.108,0.106l-1.228,1.179
	c-2.043,1.962-3.164,4.556-3.164,7.302v1.78h-0.137c-0.822,0-1.486,0.733-1.486,1.639C10,33.267,10.664,34,11.486,34h17.027
	C29.336,34,30,33.267,30,32.362c0-0.905-0.664-1.639-1.486-1.639h-0.137v-1.78c0-2.746-1.122-5.34-3.164-7.302l-1.228-1.179
	l-0.109-0.106l-0.131-0.078c-0.171-0.103-0.233-0.213-0.233-0.278C23.512,19.937,23.574,19.825,23.745,19.722z M23.098,21.586
	l1.228,1.179c0.083,0.081,0.165,0.166,0.248,0.25c0.044,0.045,0.085,0.091,0.128,0.138c0.17,0.18,0.327,0.366,0.478,0.558
	c0.024,0.029,0.048,0.061,0.071,0.092c0.166,0.213,0.32,0.432,0.462,0.657c0.006,0.009,0.01,0.018,0.016,0.028
	c0.455,0.724,0.796,1.502,1.014,2.313c0.006,0.019,0.011,0.038,0.017,0.057c0.062,0.242,0.113,0.486,0.153,0.732
	c0.01,0.051,0.02,0.103,0.024,0.152c0.033,0.218,0.056,0.437,0.072,0.657c0.003,0.078,0.007,0.156,0.011,0.234
	c0.003,0.104,0.01,0.208,0.01,0.311v1.78H12.972v-1.78c0-0.103,0.006-0.207,0.01-0.311c0.004-0.078,0.008-0.157,0.011-0.234
	c0.017-0.221,0.039-0.439,0.072-0.657c0.005-0.05,0.015-0.101,0.024-0.152c0.04-0.246,0.092-0.49,0.153-0.732
	c0.007-0.019,0.011-0.038,0.017-0.057c0.218-0.81,0.559-1.589,1.014-2.313c0.006-0.011,0.01-0.019,0.015-0.028
	c0.143-0.226,0.297-0.444,0.463-0.657c0.023-0.031,0.047-0.063,0.071-0.092c0.15-0.191,0.308-0.378,0.478-0.558
	c0.042-0.047,0.084-0.093,0.128-0.138c0.083-0.084,0.165-0.169,0.247-0.25l1.229-1.179c1.249-0.75,1.249-2.421,0-3.172l-1.229-1.178
	c-0.082-0.082-0.164-0.166-0.247-0.251c-0.044-0.045-0.086-0.091-0.128-0.138c-0.17-0.18-0.327-0.365-0.478-0.556
	c-0.024-0.031-0.048-0.062-0.071-0.093c-0.166-0.213-0.32-0.432-0.463-0.657c-0.005-0.01-0.009-0.019-0.015-0.029
	c-0.455-0.723-0.796-1.502-1.014-2.311c-0.006-0.02-0.01-0.04-0.017-0.057c-0.062-0.242-0.113-0.488-0.153-0.734
	c-0.01-0.05-0.02-0.102-0.024-0.152c-0.033-0.218-0.056-0.437-0.072-0.657c-0.003-0.078-0.007-0.156-0.011-0.234
	c-0.004-0.104-0.01-0.208-0.01-0.311v-1.78h14.057v1.78c0,0.103-0.007,0.207-0.01,0.311c-0.004,0.078-0.008,0.157-0.011,0.234
	c-0.017,0.221-0.039,0.439-0.072,0.657c-0.005,0.05-0.015,0.102-0.024,0.152c-0.04,0.246-0.092,0.492-0.153,0.734
	c-0.006,0.018-0.011,0.037-0.017,0.057c-0.218,0.809-0.559,1.588-1.014,2.311c-0.006,0.011-0.01,0.02-0.016,0.029
	c-0.142,0.225-0.296,0.443-0.462,0.657c-0.023,0.031-0.047,0.062-0.071,0.093c-0.15,0.191-0.308,0.376-0.478,0.556
	c-0.043,0.047-0.084,0.093-0.128,0.138c-0.083,0.085-0.165,0.169-0.248,0.251l-1.228,1.178
	C21.848,19.165,21.848,20.836,23.098,21.586z M22.033,17.289l1.115-1.072c0.81-0.776,1.415-1.691,1.795-2.681
	c0.008-0.027,0.026-0.053,0.033-0.081h-0.003c0-0.002,0.002-0.005,0.003-0.007h-7.249l-2.699-0.003v0.003h-0.005
	c0.375,1.023,0.994,1.969,1.828,2.769l1.116,1.072c0.937,0.639,1.493,1.636,1.493,2.711c0,1.076-0.557,2.073-1.493,2.711
	l-1.116,1.073c-1.453,1.396-2.256,3.231-2.256,5.159v0.301h10.809v-0.301c0-1.927-0.805-3.762-2.256-5.159l-1.115-1.073
	c-0.938-0.638-1.494-1.635-1.494-2.711C20.539,18.925,21.096,17.928,22.033,17.289z"/>
</svg>
