<?xml version="1.0" encoding="utf-8"?>
<!-- Generator: Adobe Illustrator 12.0.0, SVG Export Plug-In  -->
<!DOCTYPE svg PUBLIC "-//W3C//DTD SVG 1.1//EN" "http://www.w3.org/Graphics/SVG/1.1/DTD/svg11.dtd" [
	<!ENTITY ns_flows "http://ns.adobe.com/Flows/1.0/">
	<!ENTITY ns_svg "http://www.w3.org/2000/svg">
	<!ENTITY ns_xlink "http://www.w3.org/1999/xlink">
]>
<svg  version="1.1" xmlns="&ns_svg;" xmlns:xlink="&ns_xlink;" xmlns:a="http://ns.adobe.com/AdobeSVGViewerExtensions/3.0/"
	 width="26" height="26" viewBox="0 0 30 30" enable-background="new 0 0 30 30" xml:space="preserve">
<defs>
</defs>
<path fill="#3F3F3F" d="M15,0C6.716,0,0,6.716,0,15s6.716,15,15,15s15-6.716,15-15S23.284,0,15,0z M15,26C8.926,26,4,21.073,4,15
	C4,8.926,8.926,4,15,4c6.075,0,11,4.926,11,11C26,21.073,21.075,26,15,26z M15,8c-3.865,0-7,3.136-7,7s3.135,7,7,7
	c3.866,0,7-3.136,7-7S18.866,8,15,8z M15,18c-1.657,0-3-1.344-3-3c0-1.655,1.343-3,3-3s3,1.345,3,3C18,16.656,16.657,18,15,18z"/>
</svg>
