<?xml version="1.0" encoding="utf-8"?>
<!-- Generator: Adobe Illustrator 12.0.0, SVG Export Plug-In  -->
<!DOCTYPE svg PUBLIC "-//W3C//DTD SVG 1.1//EN" "http://www.w3.org/Graphics/SVG/1.1/DTD/svg11.dtd" [
	<!ENTITY ns_flows "http://ns.adobe.com/Flows/1.0/">
	<!ENTITY ns_svg "http://www.w3.org/2000/svg">
	<!ENTITY ns_xlink "http://www.w3.org/1999/xlink">
]>
<svg  version="1.1" xmlns="&ns_svg;" xmlns:xlink="&ns_xlink;" xmlns:a="http://ns.adobe.com/AdobeSVGViewerExtensions/3.0/"
	 width="31" height="31" viewBox="-0.814 -0.305 31 31" enable-background="new -0.814 -0.305 31 31" xml:space="preserve">
<defs>
</defs>
<path fill="#3F3F3F" d="M8.384,0.66C6.092,1.83,4.809,4.288,4.809,7.045c0,0.748,0.134,1.522,0.323,2.29
	C2.058,10.613,0,13.167,0,16.016c0,0.32,0.025,0.641,0.081,0.962c0.503,3.221,3.499,5.454,7.212,5.729
	c0.271,3.707,2.513,6.709,5.72,7.219c3.213,0.51,6.23-1.642,7.643-5.058c3.627,0.911,7.184-0.336,8.675-3.257
	c0.459-0.888,0.67-1.85,0.67-2.819c0-2.214-1.177-4.446-3.186-6.117c0.901-1.455,1.491-2.998,1.491-4.512
	c0-1.752-0.601-3.404-1.845-4.637c-2.29-2.298-5.988-2.288-9.145-0.354C14.917,0.288,11.31-0.831,8.384,0.66z M3.042,16.51
	c-0.326-2.067,1.551-4.191,4.273-4.838l1.713-0.406L8.348,9.635C7.27,7.05,7.885,4.285,9.751,3.329
	c1.855-0.943,4.46,0.182,5.918,2.573l0.915,1.506l1.341-1.149c2.119-1.819,4.947-2.088,6.421-0.615
	c1.473,1.484,1.206,4.306-0.614,6.427l-1.148,1.338l1.504,0.92c2.393,1.458,3.516,4.059,2.569,5.926l0,0
	c-0.942,1.86-3.714,2.476-6.297,1.396l-1.634-0.679l-0.408,1.718c-0.646,2.725-2.765,4.602-4.834,4.273
	c-2.06-0.327-3.498-2.769-3.268-5.559l0.133-1.758L8.59,19.788C5.805,20.013,3.365,18.573,3.042,16.51z M29.33,21.611L29.33,21.611
	L29.33,21.611z"/>
</svg>
