<?xml version="1.0" encoding="utf-8"?>
<!-- Generator: Adobe Illustrator 12.0.0, SVG Export Plug-In  -->
<!DOCTYPE svg PUBLIC "-//W3C//DTD SVG 1.1//EN" "http://www.w3.org/Graphics/SVG/1.1/DTD/svg11.dtd" [
	<!ENTITY ns_flows "http://ns.adobe.com/Flows/1.0/">
	<!ENTITY ns_svg "http://www.w3.org/2000/svg">
	<!ENTITY ns_xlink "http://www.w3.org/1999/xlink">
]>
<svg  version="1.1" xmlns="&ns_svg;" xmlns:xlink="&ns_xlink;" xmlns:a="http://ns.adobe.com/AdobeSVGViewerExtensions/3.0/"
	 width="21" height="21" viewBox="-0.743 -0.261 21 21" enable-background="new -0.743 -0.261 21 21" xml:space="preserve">
<defs>
</defs>
<path fill="#B1B1B2" d="M15.89,0l-3.822,3.817c-0.513,0.509-1.157,0.865-1.862,1.027L1.871,6.742
	C1.421,6.844,1.019,7.071,0.703,7.386C0.421,7.668,0.207,8.022,0.095,8.419c-0.244,0.842-0.01,1.75,0.607,2.369l8.477,8.494l0,0
	c0.023,0.023,0.035,0.033,0.037,0.035v-0.002c0.617,0.594,1.504,0.816,2.329,0.58l0,0c0.399-0.113,0.755-0.328,1.039-0.611
	c0.313-0.314,0.54-0.715,0.644-1.162l1.916-8.331c0.16-0.703,0.518-1.347,1.028-1.856L20,4.114L15.89,0z M15.183,6.939L15.181,6.94
	l-0.003,0.001c-0.695,0.698-1.183,1.577-1.402,2.537l-0.249,1.073l-0.215,0.942H3.388l-0.939-0.942L1.697,9.797
	C1.438,9.538,1.339,9.16,1.444,8.81c0.048-0.167,0.136-0.312,0.253-0.43C1.828,8.248,1.995,8.152,2.183,8.11l8.334-1.897
	c0.963-0.22,1.843-0.706,2.541-1.403l2.831-2.826l2.126,2.13L15.183,6.939z"/>
</svg>
