<?xml version="1.0" encoding="utf-8"?>
<!-- Generator: Adobe Illustrator 12.0.0, SVG Export Plug-In . SVG Version: 6.00 Build 51448)  -->
<!DOCTYPE svg PUBLIC "-//W3C//DTD SVG 1.1//EN" "http://www.w3.org/Graphics/SVG/1.1/DTD/svg11.dtd" [
	<!ENTITY ns_svg "http://www.w3.org/2000/svg">
	<!ENTITY ns_xlink "http://www.w3.org/1999/xlink">
]>
<svg  version="1.1" id="レイヤー_1" xmlns="&ns_svg;" xmlns:xlink="&ns_xlink;" width="1280" height="1280"
	 viewBox="0 0 1280 1280" overflow="visible" enable-background="new 0 0 1280 1280" xml:space="preserve">
<radialGradient id="XMLID_2_" cx="553.6499" cy="-148.2861" r="639.979" gradientTransform="matrix(0.9813 0 0 0.8547 91.2029 871.2404)" gradientUnits="userSpaceOnUse">
	<stop  offset="0" style="stop-color:#EBEBEB"/>
	<stop  offset="0.2501" style="stop-color:#E8E9E9"/>
	<stop  offset="0.4509" style="stop-color:#DEE4E4"/>
	<stop  offset="0.6347" style="stop-color:#CDDCDA"/>
	<stop  offset="0.8083" style="stop-color:#B5D0CD"/>
	<stop  offset="0.9732" style="stop-color:#97C1BC"/>
	<stop  offset="1" style="stop-color:#91BEB9"/>
</radialGradient>
<rect x="6.5" y="197.5" fill="url(#XMLID_2_)" width="1256" height="1094"/>
<g>
	<path fill="#FFFFFF" d="M944.582,1087.403l81.092-54.496l56.49,84.063l-4.07,2.735l-1.697-2.118
		c0.613-0.869,0.662-2.063,0.033-2.998c-0.813-1.214-2.457-1.537-3.67-0.723c-1.213,0.813-1.531,2.458-0.719,3.67
		c0.623,0.928,1.729,1.332,2.758,1.108l1.354,2.367l-4.445,2.986l-1.701-2.119c0.615-0.869,0.666-2.064,0.035-2.998
		c-0.813-1.215-2.457-1.535-3.668-0.723c-1.213,0.813-1.535,2.457-0.719,3.67c0.621,0.928,1.729,1.332,2.758,1.108l1.352,2.367
		l-4.443,2.985l-1.701-2.118c0.615-0.869,0.664-2.063,0.035-2.998c-0.813-1.216-2.457-1.535-3.67-0.723
		c-1.211,0.813-1.533,2.457-0.719,3.669c0.62,0.928,1.729,1.333,2.758,1.109l1.352,2.365l-4.443,2.986l-1.699-2.115
		c0.613-0.871,0.664-2.066,0.035-3.002c-0.814-1.213-2.459-1.533-3.67-0.721c-1.213,0.813-1.535,2.457-0.723,3.669
		c0.623,0.929,1.73,1.333,2.762,1.107l1.35,2.369l-4.444,2.985l-1.698-2.118c0.612-0.869,0.663-2.063,0.036-3
		c-0.815-1.214-2.459-1.533-3.672-0.723c-1.214,0.815-1.532,2.459-0.722,3.673c0.625,0.927,1.729,1.332,2.763,1.107l1.351,2.367
		l-4.445,2.985l-1.699-2.116c0.613-0.871,0.664-2.065,0.035-3.002c-0.813-1.211-2.457-1.535-3.67-0.72
		c-1.211,0.813-1.535,2.455-0.721,3.668c0.623,0.929,1.729,1.332,2.758,1.107l1.353,2.369l-4.442,2.985l-1.699-2.116
		c0.613-0.871,0.664-2.063,0.035-3.002c-0.813-1.211-2.459-1.533-3.67-0.72c-1.215,0.813-1.535,2.457-0.721,3.668
		c0.623,0.929,1.729,1.334,2.758,1.108l1.353,2.366l-4.444,2.99l-1.699-2.119c0.615-0.871,0.664-2.063,0.035-3.002
		c-0.816-1.211-2.459-1.535-3.67-0.721c-1.211,0.813-1.535,2.457-0.722,3.67c0.623,0.928,1.731,1.332,2.761,1.107l1.352,2.366
		l-4.446,2.988l-1.698-2.117c0.614-0.871,0.666-2.064,0.037-3.002c-0.816-1.213-2.457-1.533-3.671-0.721
		c-1.213,0.813-1.532,2.458-0.722,3.67c0.623,0.926,1.73,1.334,2.759,1.108l1.354,2.367l-4.446,2.986l-1.699-2.117
		c0.615-0.869,0.664-2.063,0.035-3c-0.813-1.213-2.457-1.535-3.67-0.721c-1.212,0.813-1.535,2.457-0.72,3.67
		c0.623,0.926,1.729,1.33,2.759,1.105l1.352,2.368l-4.444,2.988l-1.701-2.119c0.617-0.871,0.666-2.063,0.035-3.002
		c-0.813-1.211-2.457-1.535-3.668-0.719c-1.213,0.813-1.535,2.455-0.722,3.668c0.623,0.928,1.73,1.334,2.759,1.108l1.354,2.367
		l-4.445,2.988l-1.697-2.119c0.611-0.87,0.66-2.063,0.031-3.002c-0.813-1.211-2.457-1.533-3.67-0.719
		c-1.211,0.813-1.533,2.457-0.719,3.67c0.623,0.926,1.729,1.332,2.758,1.106l1.354,2.366l-4.781,3.213L944.582,1087.403z"/>
	
		<rect x="1011.121" y="1057.473" transform="matrix(-0.5624 -0.8269 0.8269 -0.5624 671.326 2553.2)" fill="#EBEBEB" width="0.321" height="82.966"/>
	
		<rect x="1015.139" y="1063.584" transform="matrix(-0.5582 -0.8297 0.8297 -0.5582 665.1864 2564.3181)" fill="#EBEBEB" width="0.32" height="82.961"/>
	
		<rect x="1019.251" y="1069.594" transform="matrix(-0.5547 -0.8321 0.8321 -0.5547 660.4071 2575.5923)" fill="#EBEBEB" width="0.32" height="82.965"/>
	
		<rect x="1023.306" y="1075.76" transform="matrix(-0.5526 -0.8335 0.8335 -0.5526 657.843 2587.6309)" fill="#EBEBEB" width="0.32" height="82.969"/>
	
		<rect x="1027.428" y="1081.835" transform="matrix(-0.5561 -0.8311 0.8311 -0.5561 665.442 2602.0376)" fill="#EBEBEB" width="0.32" height="82.959"/>
	
		<rect x="1031.538" y="1087.932" transform="matrix(-0.561 -0.8278 0.8278 -0.561 675.5059 2617.0608)" fill="#EBEBEB" width="0.322" height="82.959"/>
	
		<rect x="990.595" y="1027.038" transform="matrix(-0.5575 -0.8302 0.8302 -0.5575 656.0292 2486.7251)" fill="#EBEBEB" width="0.322" height="82.97"/>
	
		<rect x="994.715" y="1033.163" transform="matrix(-0.5561 -0.8311 0.8311 -0.5561 654.9661 2499.1074)" fill="#EBEBEB" width="0.323" height="82.96"/>
	
		<rect x="998.83" y="1039.173" transform="matrix(-0.554 -0.8325 0.8325 -0.554 652.7548 2511.0107)" fill="#EBEBEB" width="0.319" height="82.965"/>
	
		<rect x="1002.861" y="1045.384" transform="matrix(-0.5554 -0.8316 0.8316 -0.5554 656.2929 2524.6074)" fill="#EBEBEB" width="0.318" height="82.962"/>
	
		<rect x="1006.966" y="1051.378" transform="matrix(-0.5533 -0.833 0.833 -0.5533 654.0305 2536.4561)" fill="#EBEBEB" width="0.321" height="82.964"/>
</g>
<g>
	<path fill="#DBD4B1" d="M841.748,953.201l7.089,40.342l202.608-35.935l-7.092-40.343L841.748,953.201z M861.298,975.458
		c-3.129,0.557-6.114-1.544-6.668-4.688c-0.553-3.145,1.537-6.145,4.668-6.698c3.13-0.557,6.113,1.545,6.667,4.688
		C866.517,971.904,864.429,974.903,861.298,975.458z"/>
	<path fill="#FFFFFF" d="M856.724,974.921c1.367,0.955,3.022,1.321,4.661,1.028c3.03-0.536,5.167-3.192,5.167-6.185
		c0-0.358-0.03-0.726-0.095-1.093c-0.292-1.659-1.211-3.103-2.586-4.063c-1.366-0.954-3.021-1.32-4.661-1.029
		c-3.396,0.602-5.673,3.865-5.073,7.276C854.43,972.516,855.348,973.958,856.724,974.921z M859.385,964.563
		c1.376-0.243,2.768,0.064,3.913,0.865c1.157,0.811,1.929,2.022,2.175,3.418c0.503,2.868-1.407,5.613-4.262,6.119
		c-1.376,0.245-2.765-0.063-3.913-0.865c-1.157-0.809-1.929-2.021-2.175-3.417C854.618,967.815,856.53,965.069,859.385,964.563z
		 M1051.852,957.028l-7.09-40.343l-203.593,36.108l7.262,41.326l0.305,1.726l203.593-36.107L1051.852,957.028z M842.327,953.605
		c0.976-0.174,200.644-35.587,201.623-35.76c0.168,0.95,6.751,38.408,6.917,39.355l-0.459,0.081
		c-0.296,0.054-0.737,0.131-1.313,0.232l-3.034,0.538l-0.983-5.608l-0.984,0.174l0.984,5.608c-0.988,0.177-2.099,0.372-3.313,0.589
		l-1.488,0.266l-0.985-5.609l-0.984,0.175l0.985,5.609l-3.342,0.592c-0.484,0.086-0.958,0.17-1.463,0.261l-0.985-5.608l-0.984,0.174
		l0.985,5.609l-1.198,0.212c-1.163,0.207-2.354,0.418-3.604,0.641l-0.986-5.607l-0.984,0.174l0.986,5.608
		c-1.133,0.201-2.31,0.41-3.507,0.622l-1.298,0.229l-1.909-10.865l-0.984,0.174l1.909,10.866l-2.304,0.408
		c-0.822,0.146-1.655,0.293-2.501,0.443l-0.985-5.608l-0.982,0.174l0.983,5.609l-0.499,0.089c-1.407,0.249-2.837,0.503-4.305,0.763
		l-0.985-5.606l-0.982,0.174l0.984,5.608c-0.551,0.099-1.125,0.198-1.683,0.3l-3.123,0.554l-0.984-5.61l-0.983,0.175l0.985,5.609
		l-4.197,0.745c-0.205,0.036-0.401,0.07-0.607,0.106l-0.983-5.607l-0.984,0.174l0.984,5.608l-4.806,0.854l-1.908-10.866
		l-0.983,0.174l1.909,10.867c-0.635,0.111-1.281,0.229-1.922,0.341l-2.884,0.513l-0.983-5.61l-0.984,0.175l0.985,5.609
		c-1.588,0.281-3.189,0.565-4.807,0.854l-0.982-5.608l-0.984,0.175l0.984,5.608l-2.503,0.442c-0.769,0.138-1.528,0.271-2.302,0.408
		l-0.986-5.608l-0.984,0.174l0.987,5.61l-4.807,0.853l-0.984-5.608l-0.984,0.175l0.985,5.608l-3.972,0.704
		c-0.277,0.049-0.556,0.099-0.834,0.147l-1.908-10.866l-0.984,0.174l1.909,10.867l-1.438,0.255
		c-1.121,0.198-2.242,0.396-3.367,0.597l-0.983-5.607l-0.983,0.174l0.984,5.61l-4.807,0.853l-0.984-5.609l-0.983,0.176l0.984,5.607
		l-4.671,0.829c-0.045,0.008-0.089,0.016-0.134,0.023l-0.985-5.609l-0.983,0.174l0.984,5.61l-4.28,0.759
		c-0.175,0.031-0.349,0.063-0.521,0.093l-0.987-5.607l-0.983,0.174l0.986,5.608l-4.806,0.854l-1.91-10.867l-0.983,0.174
		l1.909,10.867c-1.335,0.237-2.664,0.474-3.99,0.708l-0.813,0.146l-0.984-5.608l-0.983,0.174l0.983,5.609l-3.439,0.609
		c-0.453,0.08-0.91,0.161-1.362,0.241l-0.985-5.608l-0.983,0.174l0.985,5.609l-4.806,0.854l-0.985-5.608l-0.983,0.175l0.985,5.608
		c-1.614,0.286-3.218,0.57-4.807,0.854l-0.983-5.609l-0.983,0.174l0.983,5.61l-2.375,0.421c-0.811,0.146-1.627,0.289-2.43,0.432
		l-1.909-10.865l-0.982,0.174l1.908,10.867l-0.354,0.063c-1.498,0.268-2.983,0.529-4.448,0.789l-0.984-5.606l-0.986,0.174
		l0.986,5.607c-0.671,0.119-1.318,0.233-1.979,0.354l-2.824,0.501l-0.986-5.609l-0.983,0.174l0.986,5.61l-4.805,0.853l-0.985-5.608
		l-0.985,0.174l0.987,5.61l-2.287,0.403c-0.841,0.149-1.698,0.303-2.519,0.446l-0.984-5.609l-0.983,0.176l0.983,5.608
		c-0.516,0.093-1.017,0.183-1.521,0.271l-3.282,0.582l-1.908-10.866l-0.984,0.174l1.908,10.867l-4.803,0.852l-0.986-5.607
		l-0.983,0.174l0.984,5.61l-1.954,0.347c-0.976,0.173-1.933,0.343-2.85,0.505l-0.987-5.608l-0.983,0.176l0.986,5.607l-4.804,0.854
		l-0.984-5.609l-0.985,0.174l0.986,5.609c-1.553,0.273-2.942,0.521-4.181,0.741l-0.625,0.109l-0.984-5.607l-0.984,0.174l0.984,5.608
		l-1.697,0.302c-1.94,0.345-3.035,0.538-3.105,0.552C849.076,992.012,842.493,954.553,842.327,953.605z M849.545,994.688
		c-0.053-0.303-0.077-0.438-0.13-0.739l34.842-6.18c0.789-0.141,1.586-0.281,2.396-0.426l6.629-1.175
		c0.884-0.157,1.772-0.315,2.676-0.476l4.684-0.831c59.521-10.557,149.741-26.558,150.398-26.675
		c0.054,0.303,0.077,0.438,0.13,0.739C1050.193,959.101,850.525,994.513,849.545,994.688z"/>
</g>
<g>
	<g>
		<path fill="#1C1C1C" d="M105.664,980.303c-0.689,0.449-0.875,1.384-0.41,2.099l23.738,36.31c0.465,0.713,1.395,0.924,2.082,0.477
			l17.437-11.404l-25.424-38.884L105.664,980.303z"/>
		<path fill="#403E3E" d="M151.37,1004.12l-23.777-36.369c-0.455-0.691-1.364-0.906-2.04-0.469l-2.467,1.614l25.424,38.884
			l2.461-1.608C151.646,1005.731,151.821,1004.813,151.37,1004.12z"/>
	</g>
	<path fill="#CCCCCC" d="M131.949,973.292c0.244,0.373,0.227,0.878-0.077,1.235c-0.782,0.913-19.136,22.522-22.354,25.979
		c-2.299,2.477-4.45,2.541-6.935,2.621c-1.432,0.039-3.052,0.094-5.052,0.612c-2.044,0.529-3.125,1.116-3.4,1.822
		c-0.496,1.279,1.027,4.027,3.472,7.764c2.503,3.827,4.32,6.222,5.643,6.298c0.749,0.03,1.746-0.729,3.117-2.417
		c1.335-1.631,2.035-3.124,2.662-4.438c1.043-2.215,1.95-4.125,5.095-5.229c4.448-1.567,31.518-9.834,32.668-10.186
		c0.545-0.167,1.123,0.137,1.285,0.684c0.172,0.545-0.139,1.122-0.685,1.289c-0.277,0.087-28.176,8.607-32.595,10.158
		c-2.325,0.819-2.917,2.086-3.905,4.167c-0.641,1.351-1.43,3.038-2.926,4.863c-1.389,1.704-2.941,3.262-4.833,3.168
		c-2.228-0.113-4.115-2.422-7.261-7.233c-3.074-4.706-4.493-7.491-3.663-9.631c0.695-1.791,2.815-2.563,4.811-3.075
		c2.218-0.579,4.042-0.64,5.505-0.683c2.35-0.074,3.773-0.118,5.484-1.96c3.188-3.422,22.099-25.686,22.294-25.905
		c0.366-0.439,1.021-0.487,1.455-0.125C131.831,973.138,131.896,973.21,131.949,973.292z"/>
</g>
<path fill="#FFA309" d="M357.588,1016.188c-2.801,3.476-7.612,4.265-10.723,1.758l-27.25-21.97c-0.36-0.291-0.417-0.82-0.126-1.183
	c0.291-0.362,0.821-0.419,1.185-0.127l27.249,21.969c1.136,0.914,2.623,1.271,4.188,1.003c1.604-0.271,3.084-1.165,4.167-2.507
	c1.082-1.342,1.639-2.978,1.565-4.604c-0.07-1.586-0.734-2.963-1.87-3.881l-29.886-24.094c-1.457-1.175-2.73-1.784-3.892-1.858
	c-1.381-0.089-2.741,0.511-3.948,2.008c-1.055,1.308-1.307,2.638-0.977,3.896c0.281,1.076,1.095,2.181,2.35,3.191l25.272,20.375
	c2.016,1.625,3.906,1.641,5.191,0.048c1.338-1.659,0.949-3.603-1.034-5.201L326.41,986.76c-0.36-0.292-0.417-0.82-0.125-1.184
	c0.29-0.361,0.818-0.418,1.184-0.127l22.637,18.25c1.365,1.101,2.192,2.415,2.394,3.8c0.188,1.312-0.204,2.647-1.105,3.768
	c-0.912,1.131-2.094,1.759-3.417,1.813c-1.338,0.053-2.77-0.501-4.139-1.605L318.564,991.1c-3.494-2.817-4.155-6.317-1.628-9.455
	c1.556-1.928,3.431-2.757,5.369-2.63c1.52,0.101,3.102,0.827,4.838,2.229l29.886,24.094
	C360.14,1007.844,360.391,1012.712,357.588,1016.188z"/>
<path fill="#047391" d="M1079.563,993.3c3.766-2.442,8.606-1.688,10.793,1.681l19.146,29.521c0.254,0.394,0.144,0.915-0.249,1.17
	c-0.392,0.253-0.916,0.144-1.169-0.25l-19.146-29.521c-0.799-1.229-2.106-2.038-3.688-2.272c-1.619-0.24-3.311,0.146-4.766,1.091
	c-1.457,0.942-2.498,2.33-2.938,3.906c-0.431,1.539-0.228,3.063,0.571,4.293l21,32.377c1.021,1.579,2.048,2.562,3.133,2.994
	c1.29,0.521,2.778,0.373,4.401-0.68c1.418-0.92,2.073-2.112,2.15-3.415c0.069-1.117-0.359-2.427-1.243-3.786l-17.758-27.381
	c-1.416-2.182-3.218-2.791-4.943-1.672c-1.794,1.166-2.036,3.145-0.643,5.294l15.906,24.523c0.254,0.394,0.143,0.916-0.25,1.171
	c-0.39,0.253-0.914,0.144-1.167-0.25l-15.908-24.523c-0.958-1.479-1.337-2.994-1.095-4.38c0.23-1.313,1.025-2.468,2.238-3.253
	c1.224-0.796,2.548-1.022,3.831-0.659c1.295,0.369,2.488,1.347,3.449,2.829l17.76,27.38c2.456,3.788,1.989,7.338-1.408,9.541
	c-2.089,1.354-4.14,1.561-5.952,0.832c-1.419-0.571-2.702-1.764-3.922-3.646l-20.999-32.38
	C1074.512,1000.469,1075.797,995.741,1079.563,993.3z"/>
<path fill="#666666" d="M322.174,1044.92c-1.857-4.521-0.074-9.551,3.973-11.216l35.455-14.558c0.472-0.188,1.009,0.038,1.202,0.505
	c0.193,0.474-0.033,1.012-0.501,1.202l-35.459,14.557c-1.478,0.605-2.603,1.844-3.174,3.487c-0.582,1.683-0.51,3.576,0.209,5.323
	c0.717,1.746,1.992,3.141,3.589,3.933c1.56,0.77,3.233,0.855,4.712,0.249l38.887-15.963c1.9-0.775,3.155-1.678,3.84-2.747
	c0.814-1.279,0.957-2.899,0.156-4.854c-0.701-1.705-1.846-2.64-3.223-2.988c-1.183-0.304-2.672-0.102-4.305,0.571l-32.886,13.5
	c-2.618,1.074-3.633,2.88-2.782,4.953c0.883,2.161,2.956,2.816,5.536,1.753l29.457-12.093c0.471-0.188,1.008,0.036,1.201,0.504
	s-0.031,1.009-0.504,1.201l-29.453,12.095c-1.776,0.729-3.475,0.831-4.91,0.291c-1.357-0.512-2.436-1.593-3.033-3.054
	c-0.604-1.472-0.582-2.934,0.068-4.229c0.654-1.313,1.941-2.396,3.719-3.126l32.889-13.5c4.549-1.869,8.256-0.652,9.932,3.425
	c1.028,2.507,0.836,4.742-0.309,6.538c-0.896,1.406-2.431,2.537-4.693,3.466l-38.884,15.963
	C328.835,1051.774,324.03,1049.441,322.174,1044.92z"/>
<path fill="#918769" d="M1066.438,976.837c4.054,2.73,5.36,7.904,2.918,11.535l-21.418,31.784c-0.288,0.418-0.86,0.526-1.278,0.247
	c-0.424-0.287-0.534-0.86-0.252-1.278l21.423-31.786c0.893-1.325,1.143-2.978,0.706-4.662c-0.449-1.722-1.563-3.259-3.129-4.313
	c-1.565-1.056-3.399-1.506-5.166-1.279c-1.728,0.226-3.166,1.081-4.061,2.408l-23.493,34.855c-1.149,1.699-1.694,3.146-1.67,4.417
	c0.031,1.519,0.813,2.943,2.563,4.125c1.528,1.029,3,1.172,4.34,0.7c1.151-0.405,2.276-1.4,3.264-2.866l19.869-29.479
	c1.581-2.346,1.424-4.411-0.436-5.665c-1.933-1.308-4.021-0.703-5.577,1.614l-17.796,26.404c-0.286,0.418-0.858,0.529-1.278,0.247
	c-0.42-0.279-0.534-0.854-0.248-1.277l17.792-26.404c1.073-1.592,2.43-2.62,3.924-2.967c1.413-0.328,2.91-0.026,4.219,0.855
	c1.317,0.891,2.11,2.117,2.289,3.558c0.187,1.457-0.285,3.07-1.358,4.664l-19.87,29.479c-2.747,4.078-6.506,5.125-10.162,2.662
	c-2.246-1.515-3.327-3.481-3.372-5.611c-0.033-1.667,0.615-3.459,1.982-5.485l23.489-34.856
	C1057.093,974.832,1062.385,974.105,1066.438,976.837z"/>
<g>
	<path fill="#383838" d="M1021.56,894.785l0.117-1.071c0.004-0.036-0.229-0.072-0.27-0.067l-4.436,0.589
		c-0.06,0.008-0.065,0.09-0.012,0.107l4.205,1.526c0.036,0.012,0.271,0.023,0.275-0.012L1021.56,894.785z"/>
	
		<rect x="1110.106" y="828.551" transform="matrix(-0.1078 0.9942 -0.9942 -0.1078 2131.5776 -103.4822)" fill="#737373" width="4.229" height="152.269"/>
	
		<rect x="1111.141" y="825.049" transform="matrix(-0.1073 0.9942 -0.9942 -0.1073 2127.9326 -108.2819)" fill="#5E5E5E" width="2.876" height="152.255"/>
	
		<rect x="1110.403" y="832.099" transform="matrix(-0.1076 0.9942 -0.9942 -0.1076 2134.4695 -99.392)" fill="#5E5E5E" width="2.876" height="152.264"/>
	<path fill="#E0CCB4" d="M1037.072,891.557c0,0,3.053,0.465,2.967,1.248c-0.035,0.334-0.74,1.263-3.274,1.612l-15.413-0.24
		l0.059-0.53L1037.072,891.557z"/>
	<path fill="#F1DAC0" d="M1036.764,894.417c0,0,3.445,1.345,3.254,2.479c-0.192,1.135-2.664,1.614-3.709,1.726l-15.097-3.169
		l0.14-1.275L1036.764,894.417z"/>
	<path fill="#E0CCB4" d="M1036.308,898.621c0,0,3.654,2.023,2.983,2.374c-0.668,0.35-3.294,0.483-3.294,0.483l-14.831-5.61
		l0.046-0.417L1036.308,898.621z"/>
</g>
<g>
	<path fill="#383838" d="M177.139,873.803l0.773,0.752c0.026,0.026,0.202-0.136,0.219-0.17l2.274-3.866
		c0.033-0.051-0.025-0.106-0.075-0.073l-3.804,2.383c-0.028,0.021-0.188,0.201-0.162,0.227L177.139,873.803z"/>
	
		<rect x="111.191" y="862.963" transform="matrix(-0.7172 -0.6969 0.6969 -0.7172 -460.0273 1691.958)" fill="#7DA541" width="4.232" height="152.723"/>
	
		<rect x="114.35" y="865.496" transform="matrix(-0.7173 -0.6968 0.6968 -0.7173 -457.4037 1698.1239)" fill="#8CB450" width="2.876" height="152.714"/>
	
		<rect x="109.293" y="860.464" transform="matrix(-0.7166 -0.6974 0.6974 -0.7166 -463.3014 1685.4104)" fill="#8CB450" width="2.876" height="152.717"/>
	<path fill="#E0CCB4" d="M170.103,888.048c0,0-2.252,2.126-2.815,1.577c-0.242-0.236-0.537-1.364,0.754-3.581l9.707-12.031
		l0.384,0.372L170.103,888.048z"/>
	<path fill="#F1DAC0" d="M168.04,886.044c0,0-3.191,1.896-3.967,1.044c-0.774-0.85,0.375-3.098,0.932-3.993l11.822-9.977l0.92,0.895
		L168.04,886.044z"/>
	<path fill="#E0CCB4" d="M165.005,883.095c0,0-3.854,1.644-3.714,0.898c0.138-0.743,1.651-2.903,1.651-2.903l13.584-8.264
		l0.301,0.292L165.005,883.095z"/>
</g>
<g>
	<rect x="139.699" y="616.7" fill="#FAFAFA" width="180" height="240"/>
	<rect x="163.699" y="656.3" fill="#B2B2B2" width="86" height="2.4"/>
	<rect x="163.699" y="661.1" fill="#B2B2B2" width="86" height="2.4"/>
	<rect x="163.699" y="665.9" fill="#B2B2B2" width="40" height="2.398"/>
	<rect x="163.699" y="670.7" fill="#B2B2B2" width="86" height="2.399"/>
	<rect x="163.699" y="675.501" fill="#B2B2B2" width="86" height="2.399"/>
	<rect x="163.699" y="680.3" fill="#B2B2B2" width="72" height="2.4"/>
	<rect x="163.699" y="685.101" fill="#B2B2B2" width="86" height="2.398"/>
	<rect x="163.699" y="689.899" fill="#B2B2B2" width="86" height="2.398"/>
	<rect x="163.699" y="694.7" fill="#B2B2B2" width="60" height="2.398"/>
	<polyline fill="none" stroke="#B2B2B2" stroke-width="2" points="157.699,724.7 157.699,832.7 301.699,832.7 	"/>
	<g transform="translate(424,1143)">
		<g>
			<g transform="translate(-424,-1143)">
				<rect x="162.499" y="803.9" width="14.401" height="24.001"/>
				
					<animate  fill="remove" values="#B2B2B2; #B2B2B2; #FFAA32; #FFAA32; #B2B2B2; #B2B2B2" dur="20s" calcMode="linear" attributeType="XML" restart="always" additive="replace" keyTimes="0;0.125;0.15;0.875;0.9;1" repeatCount="indefinite" attributeName="fill" accumulate="none">
					</animate>
			</g>
			
				<animateTransform  fill="remove" type="scale" values="1,0.1;1,0.1;1,1;1,1;1,0.1;1,1;1,1;1,0.1;1,0.1" dur="20s" calcMode="linear" restart="always" additive="sum" keyTimes="0;0.1;0.15;0.45;0.5;0.55;0.85;0.9;1" repeatCount="indefinite" attributeName="transform" accumulate="none">
				</animateTransform>
		</g>
	</g>
	<g transform="translate(448,1143)">
		<g>
			<g transform="translate(-448,-1143)">
				<rect x="186.5" y="801.501" width="14.398" height="26.4"/>
				
					<animate  fill="remove" values="#B2B2B2; #B2B2B2; #FFA028; #FFA028; #B2B2B2; #B2B2B2" dur="20s" calcMode="linear" attributeType="XML" restart="always" additive="replace" keyTimes="0;0.135;0.16;0.885;0.91;1" repeatCount="indefinite" attributeName="fill" accumulate="none">
					</animate>
			</g>
			
				<animateTransform  fill="remove" type="scale" values="1,0.1;1,0.1;1,1;1,1;1,0.1;1,1;1,1;1,0.1;1,0.1" dur="20s" calcMode="linear" restart="always" additive="sum" keyTimes="0;0.11;0.16;0.44;0.49;0.54;0.86;0.91;1" repeatCount="indefinite" attributeName="transform" accumulate="none">
				</animateTransform>
		</g>
	</g>
	<g transform="translate(472,1143)">
		<g>
			<g transform="translate(-472,-1143)">
				<rect x="210.5" y="796.7" width="14.399" height="31.201"/>
				
					<animate  fill="remove" values="#B2B2B2; #B2B2B2; #FF961E; #FF961E; #B2B2B2; #B2B2B2" dur="20s" calcMode="linear" attributeType="XML" restart="always" additive="replace" keyTimes="0;0.145;0.17;0.895;0.92;1" repeatCount="indefinite" attributeName="fill" accumulate="none">
					</animate>
			</g>
			
				<animateTransform  fill="remove" type="scale" values="1,0.1;1,0.1;1,1;1,1;1,0.1;1,1;1,1;1,0.1;1,0.1" dur="20s" calcMode="linear" restart="always" additive="sum" keyTimes="0;0.12;0.17;0.43;0.48;0.53;0.87;0.92;1" repeatCount="indefinite" attributeName="transform" accumulate="none">
				</animateTransform>
		</g>
	</g>
	<g transform="translate(496,1143)">
		<g>
			<g transform="translate(-496,-1143)">
				<rect x="234.499" y="787.1" width="14.401" height="40.803"/>
				
					<animate  fill="remove" values="#B2B2B2; #B2B2B2; #FF8C14; #FF8C14; #B2B2B2; #B2B2B2" dur="20s" calcMode="linear" attributeType="XML" restart="always" additive="replace" keyTimes="0;0.155;0.18;0.905;0.93;1" repeatCount="indefinite" attributeName="fill" accumulate="none">
					</animate>
			</g>
			
				<animateTransform  fill="remove" type="scale" values="1,0.1;1,0.1;1,1;1,1;1,0.1;1,1;1,1;1,0.1;1,0.1" dur="20s" calcMode="linear" restart="always" additive="sum" keyTimes="0;0.13;0.18;0.42;0.47;0.52;0.88;0.93;1" repeatCount="indefinite" attributeName="transform" accumulate="none">
				</animateTransform>
		</g>
	</g>
	<g transform="translate(520,1143)">
		<g>
			<g transform="translate(-520,-1143)">
				<rect x="258.5" y="767.9" width="14.398" height="60.001"/>
				
					<animate  fill="remove" values="#B2B2B2; #B2B2B2; #FF820A; #FF820A; #B2B2B2; #B2B2B2" dur="20s" calcMode="linear" attributeType="XML" restart="always" additive="replace" keyTimes="0;0.165;0.19;0.915;0.94;1" repeatCount="indefinite" attributeName="fill" accumulate="none">
					</animate>
			</g>
			
				<animateTransform  fill="remove" type="scale" values="1,0.1;1,0.1;1,1;1,1;1,0.1;1,1;1,1;1,0.1;1,0.1" dur="20s" calcMode="linear" restart="always" additive="sum" keyTimes="0;0.14;0.19;0.41;0.46;0.51;0.89;0.94;1" repeatCount="indefinite" attributeName="transform" accumulate="none">
				</animateTransform>
		</g>
	</g>
	<g transform="translate(544,1143)">
		<g>
			<g transform="translate(-544,-1143)">
				<rect x="282.5" y="729.501" width="14.399" height="98.4"/>
				
					<animate  fill="remove" values="#B2B2B2; #B2B2B2; #FF7800; #FF7800; #B2B2B2; #B2B2B2" dur="20s" calcMode="linear" attributeType="XML" restart="always" additive="replace" keyTimes="0;0.175;0.2;0.925;0.95;1" repeatCount="indefinite" attributeName="fill" accumulate="none">
					</animate>
			</g>
			
				<animateTransform  fill="remove" type="scale" values="1,0.1;1,0.1;1,1;1,1;1,0.1;1,1;1,1;1,0.1;1,0.1" dur="20s" calcMode="linear" restart="always" additive="sum" keyTimes="     0;     0.15;     0.2;      0.4;     0.45;     0.5;      0.9;     0.95;     1" repeatCount="indefinite" attributeName="transform" accumulate="none">
				</animateTransform>
		</g>
	</g>
	<rect x="204.5" y="745.9" fill="#B2B2B2" width="37.999" height="2.398"/>
	<rect x="204.5" y="750.7" fill="#B2B2B2" width="28" height="2.398"/>
	<rect x="204.5" y="755.5" fill="#B2B2B2" width="34" height="2.4"/>
	<rect x="199.699" y="745.9" fill="#B2B2B2" width="2.399" height="2.398"/>
	<rect x="199.699" y="750.7" fill="#B2B2B2" width="2.399" height="2.398"/>
	<rect x="199.699" y="755.5" fill="#B2B2B2" width="2.399" height="2.4"/>
	<rect x="204.5" y="760.3" fill="#B2B2B2" width="32" height="2.399"/>
	<rect x="199.699" y="760.3" fill="#B2B2B2" width="2.399" height="2.399"/>
	<rect x="204.5" y="765.1" fill="#B2B2B2" width="30" height="2.399"/>
	<rect x="199.699" y="765.1" fill="#B2B2B2" width="2.399" height="2.399"/>
	<rect x="199.699" y="717.501" fill="#8C8C8C" width="60" height="4.801"/>
	<rect x="205.699" y="631.101" fill="#8C8C8C" width="48" height="4.8"/>
	<rect x="193.699" y="638.3" fill="#8C8C8C" width="72" height="4.801"/>
	<path fill="#B2B2B2" d="M281.126,683.7l2.854,2.828l2.854-2.828l-2.854-2.828L281.126,683.7z M272.564,683.7l2.854,2.828
		l2.854-2.828l-2.854-2.828L272.564,683.7z M286.346,675.7h-4.729l2.365,2.345L286.346,675.7z M277.783,675.7h-4.729l2.363,2.343
		L277.783,675.7z M279.699,682.286l2.854-2.828l-2.854-2.829l-2.854,2.829L279.699,682.286z M279.696,661.7l-18.997,14.346
		l3.166,2.394l1.588-1.199v14.46h28.489v-14.462l1.589,1.199l3.168-2.394L279.696,661.7z M268.503,688.37v-0.208l0.211,0.208
		H268.503z M290.896,688.37h-0.211l0.211-0.208V688.37z M290.896,675.7h-0.719l0.719,0.711v2.828l-2.634-2.61l-2.855,2.829
		l2.854,2.828l2.636-2.61v2.827l-1.208,1.197l1.208,1.197v2.829l-2.636-2.612l-2.854,2.828l0.432,0.428h-3.717l0.432-0.428
		l-2.854-2.828l-2.854,2.828l0.431,0.428h-3.716l0.431-0.427l-2.854-2.829l-2.635,2.612v-2.829l1.207-1.197l-1.207-1.196v-2.828
		l2.635,2.61l2.854-2.828l-2.854-2.829l-2.635,2.61v-2.828l0.719-0.711h-0.719v-0.765l11.193-8.452l11.199,8.454L290.896,675.7
		L290.896,675.7z"/>
	<path fill="#B2B2B2" d="M190.758,750.015c0.186-0.353,0.127-0.952-0.167-1.524c-0.296-0.563-0.739-0.937-1.115-0.993
		c-0.048-0.058-0.095-0.124-0.146-0.188c-0.023-0.022-0.051-0.048-0.074-0.073c-0.047-0.37-0.305-0.804-0.725-1.153
		c-0.51-0.423-1.082-0.579-1.453-0.436c-0.12-0.06-0.252-0.117-0.377-0.164c-0.199-0.312-0.609-0.587-1.141-0.715
		c-0.617-0.145-1.195-0.036-1.478,0.244c-0.516-0.002-1.039,0.039-1.577,0.138c-1.539,0.28-3.082,0.941-4.453,1.923
		c-0.625,0.438-1.219,0.965-1.828,1.613c-0.514,0.535-1.022,1.133-1.548,1.826c-0.903,1.172-1.771,2.459-2.646,3.936
		c-0.472,0.796-1.452,2.716-1.538,2.917c0.043-0.191,1.055-4.487,1.594-6.06c0.375-1.075,0.704-1.886,1.071-2.616
		c0.429-0.897,0.627-1.214,0.937-1.618c0.313-0.404,0.944-1.222,0.944-1.222s-0.781,0.079-1.101,0.241
		c-0.313,0.164-0.867,0.574-1.18,0.901c-0.316,0.317-0.938,1.056-1.259,1.547c-0.313,0.481-0.733,1.224-1.151,2.165
		c-0.75,1.684-1.332,3.531-1.781,5.65c-0.396,1.849-0.652,3.81-0.778,5.832c-0.062,0.963-0.089,1.849-0.089,2.688
		c0,0.939,0.004,3.668,0.004,3.668l1.828,0.158c0,0,0.161-1.881,0.162-1.893c0.521-0.914,1.074-1.815,1.635-2.687l0.053-0.083
		c0.415-0.633,0.847-1.287,1.312-1.918c0.555-0.764,1.025-1.384,1.504-1.951c0.516-0.64,3.749-4.151,4.38-4.641
		c0.629-0.488,2.275-1.706,2.275-1.706c-0.938-0.082-3.374,1.091-4.191,1.71c-0.688,0.514-1.358,1.091-2.159,1.853
		c-0.595,0.599-1.19,1.238-1.809,1.979c-0.567,0.703-1.974,2.743-2.16,3.048c0.094-0.318,0.715-2.369,0.961-3.105
		c0,0,0.679-1.922,0.762-2.107c0.293-0.602,0.629-1.245,1.065-2.018c0.82-1.449,1.625-2.706,2.465-3.854
		c0.49-0.671,0.957-1.242,1.414-1.758c0.551-0.604,1.074-1.09,1.613-1.489c0.655-0.492,1.358-0.9,2.1-1.222
		c0.217,0.017,0.435,0.045,0.657,0.094c0.431,0.099,0.829,0.263,1.176,0.495c-0.37,0.16-0.664,0.726-0.707,1.424
		c-0.022,0.43,0.055,0.825,0.196,1.109c-0.21,0.242-0.375,0.596-0.457,1.006c-0.176,0.832,0.059,1.583,0.523,1.688
		c0.464,0.104,0.979-0.488,1.148-1.313c0.096-0.476,0.063-0.917-0.076-1.23c0.207-0.271,0.353-0.678,0.377-1.146
		c0.006-0.154,0.001-0.3-0.018-0.438c0.063,0.101,0.113,0.192,0.16,0.303c-0.113,0.334-0.113,0.801,0.043,1.273
		c0.125,0.393,0.328,0.714,0.547,0.925c-0.283,0.24-0.5,0.715-0.547,1.288c-0.063,0.67,0.141,1.256,0.455,1.49
		c-0.283,0.245-0.494,0.743-0.519,1.334c-0.032,0.845,0.32,1.547,0.793,1.57c0.474,0.021,0.888-0.646,0.918-1.488
		c0.027-0.658-0.184-1.231-0.5-1.463c0.287-0.235,0.513-0.715,0.563-1.29c0.035-0.519-0.068-0.985-0.271-1.279
		c0.322-0.271,0.41-0.947,0.185-1.64c-0.122-0.394-0.324-0.715-0.544-0.927c-0.051-0.178-0.098-0.359-0.163-0.549
		c-0.16-0.447-0.356-0.903-0.613-1.374c-0.061-0.104-0.113-0.197-0.165-0.304c0.235,0.133,0.47,0.281,0.704,0.458
		c0.023,0.021,0.047,0.044,0.07,0.059c-0.138,0.387,0.03,0.984,0.469,1.512c0.405,0.491,0.922,0.752,1.312,0.705
		c0.001,0.012,0.002,0.024,0.008,0.043c-0.278,0.281-0.396,0.869-0.268,1.507c0.096,0.5,0.314,0.913,0.573,1.146
		c0,0.16-0.002,0.326-0.008,0.491c-0.185,0.27-0.316,0.656-0.344,1.102c-0.031,0.659,0.167,1.229,0.489,1.465
		c-0.354,0.183-0.637,0.737-0.678,1.417c-0.031,0.658,0.164,1.228,0.484,1.464c-0.001-0.002-0.003-0.004-0.016-0.004
		c-0.47-0.027-0.892,0.631-0.938,1.478c-0.053,0.848,0.297,1.554,0.766,1.588c0.473,0.023,0.896-0.634,0.945-1.478
		c0.039-0.658-0.164-1.231-0.478-1.47c0,0,0.004,0.002,0.006,0.002c0.472,0.025,0.894-0.632,0.94-1.479
		c0.042-0.663-0.165-1.237-0.478-1.474c0.326-0.163,0.586-0.646,0.655-1.254c0.142,0.521,0.429,0.901,0.75,0.998
		c-0.203,0.29-0.325,0.725-0.315,1.218c0.02,0.854,0.418,1.522,0.891,1.515c0.479-0.015,0.84-0.704,0.83-1.55
		c-0.022-0.763-0.342-1.376-0.748-1.492c0.188-0.304,0.281-0.778,0.213-1.296c-0.072-0.608-0.346-1.104-0.658-1.313
		c0.279-0.308,0.281-0.984-0.022-1.644c-0.353-0.765-0.984-1.211-1.421-0.999c-0.026,0.018-0.054,0.04-0.079,0.063
		c-0.203-0.341-0.414-0.655-0.633-0.961c-0.066-0.305-0.229-0.646-0.484-0.953c-0.313-0.374-0.688-0.612-1.016-0.688
		c-0.017-0.014-0.026-0.023-0.047-0.041c0.28,0.021,0.537-0.006,0.745-0.078c0.179,0.062,0.364,0.122,0.546,0.211
		c0.122,0.265,0.327,0.542,0.61,0.775c0.371,0.313,0.777,0.478,1.121,0.49c0,0.002,0,0.002,0,0.002
		c0.078,0.093,0.148,0.188,0.232,0.28c-0.019,0.327,0.071,0.713,0.268,1.089c0.305,0.596,0.773,0.972,1.166,0.993
		c-0.205,0.294-0.309,0.773-0.26,1.302c0.068,0.845,0.515,1.489,0.99,1.443c0.469-0.048,0.79-0.766,0.716-1.609
		C191.608,750.648,191.205,750.027,190.758,750.015z"/>
</g>
<g>
	<path fill="#363636" d="M220.425,1026.095c0,0-1.811,0.617-2.214-0.112c-0.824-1.525,6.416-7.406,7.664-8.517
		c1.235-1.094,0.518-1.791,0.116-2.418c-0.405-0.613-6.234,1.315-13.221,6.941c-6.983,5.624-11.715,10.69-16.369,14.133
		c-4.666,3.463-10.35,6.539-10.916,7.766c-0.563,1.216-0.849,4.097,0.56,3.311c1.404-0.813,2.174-2.765,4.407-4.19
		c2.235-1.439,3.02-0.585,6.023-3.096c3.018-2.501,10.27-8.919,13.512-10.552c3.236-1.632,4.301-0.102,2.435,1.556L220.425,1026.095
		z"/>
	<path fill="#242424" d="M236.359,1022.7l-0.974-1.502c-0.509-0.785-1.565-1.011-2.358-0.49l-3.301,2.123
		c-0.797,0.504-1.021,1.555-0.508,2.336l0.969,1.506c0.508,0.781,1.564,1.005,2.362,0.486l3.296-2.107
		C236.643,1024.532,236.867,1023.482,236.359,1022.7z"/>
	<path fill="#A5A6A6" d="M119.051,1097.297l0.515,0.788c0,0-2.616,1.194-2.902,0.757c-0.291-0.452,1.877-2.333,1.877-2.333
		L119.051,1097.297z"/>
	<g>
		<path fill="#363636" d="M128.867,1085.243l2.592,3.985l2.592,3.988c0,0,9.482-5.256,29.248-17.683l-6.24-9.575
			C137.578,1078.801,128.867,1085.243,128.867,1085.243z"/>
		<path fill="#363636" d="M232.734,1029.438c0.938-0.953,0.234-1.979,0.234-1.979l-1.641-2.521l-1.629-2.496
			c0,0-0.656-1.064-1.906-0.604c-0.654,0.242-7.814,4.447-18.977,11.28l5.786,8.915
			C225.456,1034.706,232.242,1029.938,232.734,1029.438z"/>
		<path fill="#DCDDDD" d="M214.604,1042.033l-5.786-8.915c-10.042,6.155-23.495,14.551-37.648,23.646
			c-5.22,3.367-9.831,6.372-14.109,9.195l6.24,9.575c4.337-2.72,8.979-5.682,14.2-9.035
			C191.652,1057.392,204.855,1048.612,214.604,1042.033z"/>
	</g>
	<path fill="#DCDDDD" d="M131.488,1089.295l2.58,3.964c0,0-9.86,4.664-14.385,5.016l-0.633-0.978l-0.632-0.986
		c2.171-3.954,10.489-10.984,10.489-10.984L131.488,1089.295z"/>
</g>
<g>
	<path fill="#242424" d="M371.445,1070.018l0.173,1.783c0.091,0.934-0.599,1.766-1.541,1.854l-3.902,0.396
		c-0.938,0.103-1.769-0.582-1.854-1.514l-0.18-1.781c-0.09-0.927,0.601-1.759,1.546-1.851l3.892-0.405
		C370.524,1068.41,371.355,1069.092,371.445,1070.018z"/>
	<path fill="#666666" d="M233.207,1084.703l-0.089-0.938c0,0-2.792,0.692-2.743,1.219c0.054,0.531,2.92,0.654,2.92,0.654
		L233.207,1084.703z"/>
	<g>
		<path fill="#3F3F3F" d="M365.829,1068.408l0.287,2.995l0.277,2.967c0,0,0.149,1.242-1.115,1.656
			c-0.663,0.22-49.315,6.236-66.057,7.936c-6.18,0.616-50.829,4.058-50.829,4.058l-0.456-4.729l-0.458-4.737
			c0,0,44.461-5.521,50.634-6.148c16.745-1.688,65.604-5.479,66.301-5.396C365.74,1067.166,365.829,1068.408,365.829,1068.408z"/>
	</g>
	<path fill="#E1DADA" d="M247.92,1083.218l-0.451-4.708c0,0-10.621,2.49-14.378,5.035l0.115,1.158l0.117,1.164
		c4.163,1.743,15.049,2.063,15.049,2.063L247.92,1083.218z"/>
	<g>
		<path fill="#E1DADA" d="M359.922,1080.212c-0.446,0.167-31.604,6.982-31.748,6.164c-0.14-0.816,0.408-1.59,1.226-1.729
			c15.222-2.62,25.229-5.789,28.389-6.862c-0.188-1.884-1.011-10.153-1.011-10.153c-0.083-0.825,0.519-1.559,1.344-1.642
			s1.558,0.521,1.641,1.344l1.127,11.329C360.956,1079.337,360.559,1079.975,359.922,1080.212z"/>
	</g>
	<g>
		<path fill="#E1DADA" d="M291.44,1086.646c-0.823,0.071-1.554-0.531-1.631-1.356l-1.122-12.333
			c-0.076-0.827,0.53-1.556,1.355-1.633c0.824-0.074,1.555,0.531,1.63,1.356l1.126,12.334
			C292.874,1085.84,292.267,1086.571,291.44,1086.646z"/>
	</g>
</g>
<g>
	<path fill="#B2B2B2" d="M996.765,890.275c-3.047,5.274-9.877,7.093-15.22,4.01l-65.349-37.729
		c-5.336-3.08-7.233-9.938-4.188-15.212l88.92-154.017c3.045-5.271,9.933-7.058,15.267-3.979l65.35,37.729
		c5.344,3.085,7.187,9.908,4.142,15.182L996.765,890.275z"/>
	<path fill="#666666" d="M916.949,855.252c-4.628-2.673-6.237-8.564-3.6-13.136l88.92-154.016c2.639-4.567,8.545-6.119,13.173-3.445
		l65.35,37.729c4.625,2.669,6.236,8.563,3.603,13.13L995.472,889.53c-2.638,4.568-8.549,6.121-13.173,3.45L916.949,855.252z"/>
	<path fill="#170B0D" d="M1079.956,723.831l-65.35-37.729c-3.828-2.211-8.709-0.945-10.893,2.834l-88.921,154.016
		c-2.184,3.784-0.838,8.643,2.99,10.853l65.35,37.729c3.821,2.207,8.668,0.924,10.853-2.858l88.92-154.017
		C1085.089,730.877,1083.778,726.037,1079.956,723.831z"/>
	<path fill="#666666" d="M961.468,867.676c-1.916,3.32-6.188,4.422-9.55,2.48c-3.313-1.913-4.491-6.161-2.573-9.48
		c1.911-3.312,6.179-4.413,9.491-2.501C962.196,860.114,963.381,864.364,961.468,867.676z"/>
	<path fill="#3F3F3F" d="M960.683,867.221c-1.674,2.897-5.377,3.9-8.334,2.193c-2.909-1.681-3.928-5.409-2.254-8.308
		c1.668-2.89,5.405-3.871,8.314-2.19C961.366,860.624,962.351,864.332,960.683,867.221z"/>
	
		<rect x="915.164" y="834.881" transform="matrix(0.8656 0.5008 -0.5008 0.8656 541.7264 -346.2845)" fill="#8C8C8C" width="1.502" height="2.188"/>
	
		<rect x="998.673" y="883.142" transform="matrix(0.8654 0.5011 -0.5011 0.8654 577.6047 -381.7637)" fill="#8C8C8C" width="1.442" height="2.189"/>
	
		<rect x="1000.644" y="687.278" transform="matrix(0.8664 0.4994 -0.4994 0.8664 477.5253 -408.0636)" fill="#8C8C8C" width="1.439" height="2.206"/>
	
		<rect x="1084.059" y="735.454" transform="matrix(0.866 0.5001 -0.5001 0.866 513.7731 -443.802)" fill="#8C8C8C" width="1.506" height="2.206"/>
	<path fill="#3F3F3F" d="M1046.229,709.928c-0.418,0.728-1.352,0.952-2.082,0.529c-0.729-0.422-0.989-1.337-0.569-2.063
		c0.414-0.719,1.34-0.958,2.072-0.535C1046.378,708.282,1046.646,709.211,1046.229,709.928z"/>
	<path fill="#3F3F3F" d="M1029.571,707.236c-0.488,0.847-1.564,1.127-2.402,0.644c-0.84-0.485-1.133-1.558-0.645-2.401
		c0.485-0.844,1.559-1.125,2.397-0.641C1029.765,705.322,1030.061,706.395,1029.571,707.236z"/>
	<path fill="#3F3F3F" d="M1048.825,718.37c-0.166,0.285-0.685,0.31-1.117,0.06l-12.178-7.03c-0.486-0.28-0.728-0.741-0.562-1.027
		c0.178-0.312,0.697-0.332,1.185-0.051l12.178,7.028C1048.765,717.599,1049.005,718.059,1048.825,718.37z"/>
	
		<rect x="954.914" y="711.845" transform="matrix(0.866 0.5 -0.5 0.866 528.2596 -393.7754)" fill="#EBEBEB" width="87.997" height="153.993"/>
	<g transform="translate(312,884)">
		<g>
			<g transform="translate(-312,-884)">
				<path fill="#82AA46" d="M1016.125,790.783c0,0-1.168-0.246-3.067-0.642c0.362-0.563,0.67-1.135,0.964-1.779
					c0.375-0.832,0.653-1.687,0.836-2.543c0.481-2.26,0.289-4.557-0.582-6.558c-1.011-2.313-2.854-4.021-5.196-4.81l-0.12-0.033
					c-3.712-0.912-6.221,0.146-8.18,1.706c-0.779-1.846-2.269-3.174-4.283-3.727c-4.271-1.166-9.148,2.271-10.879,7.665
					c-0.07,0.221-0.799,3.395-1.094,3.442c-0.302,0.619-2.109,0.217-2.109,0.217c-3.838-0.806-3.637-1.838-3.479-2.667
					c0.533-2.741,3.646-7.857,8.9-10.648c4.777-2.541,10.707-3.502,15.467-2.506c6.204,1.298,10.308,3.945,13.308,8.576
					c1.864,2.885,4.383,8.467,4.131,11.851c-0.07,0.917,0.621,1.718,1.539,1.783c0.918,0.069,1.719-0.62,1.787-1.539
					c0.354-4.763-2.894-11.181-4.658-13.908c-3.521-5.438-8.277-8.527-15.422-10.025c-5.491-1.147-12.278-0.068-17.715,2.821
					c-6.574,3.496-9.998,9.807-10.608,12.959c-0.479,2.468,0.61,3.951,1.612,4.764c1.002,0.813,2.375,1.372,4.453,1.808
					c0,0,1.43,0.266,2.075,0.174c2.28-0.311,3.334-1.792,3.785-3.114c0.314-0.955,0.549-1.641,0.683-2.27
					c0.104-0.496,0.196-0.791,0.2-0.797c1.227-3.818,4.537-6.425,7.229-5.688c1.681,0.459,2.604,1.771,2.675,3.784l0.126,3.591
					l2.466-2.613c2.224-2.354,4.036-3.492,7.193-2.743c1.928,0.664,2.893,2.073,3.36,3.146c0.619,1.427,0.75,3.079,0.398,4.729
					c-0.138,0.65-0.352,1.302-0.637,1.936c-0.394,0.864-0.806,1.539-1.438,2.345c-6.11-1.279-16.598-3.989-20.012-3.689
					c-1.669,0.102-2.736,1.419-3.087,1.956c-0.688,0.821-0.891,2.563-0.271,4.474l0.054,0.173c3.028,9.368,3.375,11.739,3.39,11.837
					c0.125,1.037,0.817,1.492,1.421,1.567c0.487,0.062,1.088-0.108,1.504-0.684c0.47-0.342,8.054-5.813,8.054-5.813l0.018-0.016
					c0.221-0.168,0.641-0.446,0.883-0.577c0.613-0.341,6.029-3.354,7.516-4.502c0.544-0.421,0.966-0.766,1.361-1.142
					c2.879,0.603,4.764,0.995,4.764,0.995c3.82,0.8,3.509,2.439,3.408,2.979c-0.332,1.766-3.563,7.507-9.22,10.584
					c-4.698,2.561-10.021,3.319-15.385,2.195c-5.521-1.155-9.861-3.927-12.905-8.234c-2.609-3.691-4.427-9.88-4.375-12.244
					c0.018-0.925-0.712-1.687-1.632-1.704c-0.921-0.021-1.686,0.711-1.702,1.633c-0.068,3.229,2.096,10.152,4.988,14.243
					c3.542,5.019,8.571,8.238,14.942,9.57c6.15,1.289,12.261,0.416,17.662-2.528c6.08-3.313,10.306-9.728,10.902-12.896
					C1022.763,794.268,1020.519,791.705,1016.125,790.783z M1000.345,796.068c-0.367,0.203-0.885,0.545-1.226,0.807
					c-0.132,0.095-4.634,3.345-6.686,4.819c-0.448-1.79-1.328-4.928-3.045-10.239l-0.054-0.168
					c-0.399-1.236-0.423-1.955,0.483-2.218c1.227-0.422,11.325,1.985,17.039,3.182
					C1005.226,793.324,1001.735,795.299,1000.345,796.068z"/>
				
					<animateTransform  fill="remove" type="rotate" values="0 312 884;0 312 884;-10 312 884;-18 312 884;-24 312 884;-28 312 884;-28 312 884;340 312 884;360 312 884;370 312 884;375 312 884;375 312 884;358 312 884;360 312 884;360 312 884" dur="20s" calcMode="linear" attributeType="XML" restart="always" additive="sum" keyTimes="0;0.6;0.606;0.612;0.618;0.624;0.63;0.636;0.64;0.644;0.648;0.65;0.652;0.653;1" repeatCount="indefinite" attributeName="transform" accumulate="none">
					</animateTransform>
			</g>
			
				<animateTransform  fill="remove" type="scale" values="0,0;0,0;1.3,1.3;0.85,0.85;1.1,1.1;0.95,0.95;1,1;1,1;0.76,0.76;0.8,0.8;1.1,1.1;1,1;1.18,1.18;1.2,1.2;1,1;1,1;0,0;0,0" dur="20s" calcMode="linear" restart="always" additive="sum" keyTimes="0;0.462;0.468;0.474;0.48;0.486;0.492;0.734;0.754;0.774;0.78;0.786;0.792;0.802;0.808;0.988;0.994;1" repeatCount="indefinite" attributeName="transform" accumulate="none">
				</animateTransform>
		</g>
	</g>
</g>
<g>
	<path fill="#DBDBDB" d="M590.727,787.261l197.035-20.71c-4.779-9.373-16.491-9.281-29.04-7.965
		c-12.544,1.322-169.14,17.779-169.14,17.779s-154.17,16.203-166.718,17.522c-12.545,1.317-26.523,3.927-29.251,14.088
		L590.727,787.261z"/>
	<path fill="#F2F2F2" d="M778.438,762.744l-376.419,39.563c-6.789,0.712-11.202,7.486-9.105,13.983l42.668,132.591
		c1.557,4.843,6.295,7.931,11.354,7.396l319.577-33.588c5.062-0.531,9.054-4.533,9.572-9.598l14.169-138.565
		C790.949,767.74,785.223,762.031,778.438,762.744z"/>
	<path fill="#4D4D4D" d="M446.585,952.921c-3.45,0.363-6.722-1.771-7.789-5.073l-42.669-132.591
		c-0.683-2.126-0.378-4.411,0.84-6.281c1.216-1.869,3.187-3.072,5.404-3.307l376.42-39.563c2.219-0.232,4.396,0.534,5.975,2.11
		c1.58,1.574,2.354,3.749,2.128,5.969l-14.168,138.566c-0.357,3.449-3.112,6.217-6.563,6.581L446.585,952.921z"/>
	<path fill="#CCCCCC" d="M461.189,1176.574c0,0,1.073,15.376,14.182,13.998c13.109-1.378,126.941-13.341,126.941-13.341
		l0.052-13.144L461.189,1176.574z"/>
	<path fill="#CCCCCC" d="M798.432,1141.131c0,0,2.147,15.263-10.946,16.637c-13.1,1.379-126.813,13.33-126.813,13.33l-2.779-12.847
		L798.432,1141.131z"/>
	
		<rect x="600.041" y="1161.862" transform="matrix(0.9945 -0.1045 0.1045 0.9945 -118.4755 72.2887)" fill="#CCCCCC" width="61.271" height="9.997"/>
	<path fill="#E6E6E6" d="M764.813,925.48l-29.489,3.099l1.362,12.993l-255.394,26.843l-1.363-12.992l-30.384,3.191
		c-5.986,0.629-10.327,5.993-9.698,11.977l21.646,205.952c0.631,5.984,5.992,10.327,11.977,9.698l128.899-13.548l2.446-5.063
		l25.789-2.71l25.79-2.711l3.439,4.439l128.904-13.547c5.984-0.629,10.324-5.99,9.696-11.977l-21.646-205.949
		C776.157,929.192,770.794,924.85,764.813,925.48z"/>
	<path fill="#333333" d="M732.915,927.387l-250.88,26.368c-1.246,0.132-2.14,1.388-1.987,2.813l0.748,7.106
		c0.15,1.419,1.28,2.465,2.526,2.335l250.881-26.369c1.245-0.131,2.138-1.389,1.984-2.812l-0.745-7.105
		C735.294,928.303,734.161,927.258,732.915,927.387z"/>
	<path fill="#C9C9C9" d="M680.189,1147.319c0.303,2.886-1.927,5.482-4.971,5.803l-91.074,9.571c-3.046,0.32-5.762-1.758-6.065-4.64
		l-5.556-52.871c-0.303-2.883,1.919-5.479,4.966-5.802l91.075-9.57c3.043-0.319,5.763,1.758,6.066,4.642L680.189,1147.319z"/>
	<path fill="#424242" d="M474.207,991.395l-14.993,1.575c-0.969,0.104-1.782-0.591-1.884-1.568l-0.635-6.041
		c-0.109-1.021,0.542-1.871,1.512-1.975l14.995-1.575c0.925-0.1,1.741,0.602,1.848,1.621l0.635,6.04
		C475.787,990.45,475.133,991.297,474.207,991.395z"/>
	<path fill="#424242" d="M475.861,1013.469l-14.335,1.507c-0.97,0.104-1.781-0.591-1.891-1.615l-1.473-14.026
		c-0.105-0.979,0.54-1.874,1.511-1.977l14.334-1.506c0.925-0.1,1.743,0.646,1.849,1.62l1.472,14.026
		C477.438,1012.525,476.789,1013.372,475.861,1013.469z"/>
	<path fill="#424242" d="M497.193,1011.229l-14.335,1.508c-0.928,0.098-1.786-0.592-1.895-1.618l-1.473-14.025
		c-0.104-0.978,0.586-1.879,1.512-1.976l14.334-1.507c0.927-0.099,1.765,0.643,1.869,1.62l1.473,14.025
		C498.788,1010.282,498.116,1011.13,497.193,1011.229z"/>
	<path fill="#424242" d="M518.521,1008.986l-14.336,1.507c-0.927,0.098-1.74-0.599-1.846-1.622l-1.474-14.026
		c-0.105-0.978,0.54-1.873,1.466-1.97l14.338-1.507c0.925-0.099,1.788,0.64,1.889,1.616l1.476,14.027
		C520.141,1008.038,519.446,1008.888,518.521,1008.986z"/>
	<path fill="#424242" d="M539.894,1006.74l-14.333,1.507c-0.934,0.097-1.781-0.59-1.892-1.617l-1.476-14.026
		c-0.101-0.979,0.584-1.877,1.516-1.977l14.333-1.506c0.926-0.097,1.745,0.645,1.847,1.621l1.479,14.026
		C541.473,1005.796,540.818,1006.643,539.894,1006.74z"/>
	<path fill="#424242" d="M561.224,1004.498l-14.336,1.507c-0.926,0.097-1.774-0.592-1.883-1.617l-1.474-14.026
		c-0.104-0.979,0.58-1.877,1.505-1.976l14.338-1.507c0.925-0.098,1.784,0.641,1.887,1.619l1.475,14.025
		C562.841,1003.548,562.146,1004.398,561.224,1004.498z"/>
	<path fill="#424242" d="M582.552,1002.257l-14.336,1.505c-0.926,0.099-1.735-0.595-1.847-1.619l-1.475-14.026
		c-0.103-0.979,0.544-1.875,1.469-1.97l14.334-1.509c0.937-0.097,1.791,0.642,1.896,1.618l1.473,14.025
		C584.175,1001.308,583.486,1002.157,582.552,1002.257z"/>
	<path fill="#424242" d="M603.926,1000.012l-14.334,1.504c-0.929,0.101-1.786-0.59-1.895-1.612l-1.472-14.029
		c-0.104-0.977,0.584-1.878,1.512-1.977l14.337-1.507c0.924-0.098,1.742,0.646,1.846,1.622l1.477,14.027
		C605.501,999.066,604.854,999.912,603.926,1000.012z"/>
	<path fill="#424242" d="M625.256,997.768l-14.334,1.507c-0.93,0.097-1.747-0.595-1.855-1.62l-1.475-14.025
		c-0.102-0.978,0.551-1.876,1.477-1.973l14.337-1.504c0.926-0.101,1.788,0.639,1.893,1.615l1.474,14.025
		C626.875,996.818,626.182,997.672,625.256,997.768z"/>
	<path fill="#424242" d="M646.583,995.526l-14.334,1.507c-0.926,0.096-1.737-0.596-1.844-1.622l-1.479-14.026
		c-0.103-0.978,0.545-1.873,1.472-1.97l14.334-1.508c0.964-0.102,1.787,0.641,1.89,1.618l1.477,14.026
		C648.206,994.577,647.548,995.426,646.583,995.526z"/>
	<path fill="#424242" d="M667.957,993.278l-14.336,1.508c-0.925,0.098-1.78-0.591-1.891-1.617l-1.475-14.026
		c-0.102-0.978,0.589-1.877,1.513-1.976l14.337-1.507c0.927-0.099,1.743,0.646,1.846,1.623l1.476,14.024
		C669.535,992.336,668.884,993.183,667.957,993.278z"/>
	<path fill="#424242" d="M689.288,991.038l-14.338,1.508c-0.926,0.097-1.734-0.597-1.842-1.622l-1.479-14.025
		c-0.102-0.979,0.543-1.874,1.469-1.972l14.335-1.508c0.927-0.097,1.786,0.641,1.891,1.617l1.476,14.028
		C690.908,990.089,690.213,990.939,689.288,991.038z"/>
	<path fill="#424242" d="M710.615,988.795l-14.333,1.508c-0.927,0.099-1.739-0.596-1.85-1.62l-1.473-14.027
		c-0.104-0.979,0.542-1.873,1.469-1.971l14.333-1.507c0.972-0.103,1.791,0.642,1.893,1.618l1.475,14.026
		C712.238,987.847,711.588,988.694,710.615,988.795z"/>
	<path fill="#424242" d="M731.991,986.55l-14.336,1.507c-0.927,0.098-1.783-0.591-1.894-1.615l-1.474-14.027
		c-0.104-0.979,0.587-1.879,1.513-1.977l14.335-1.508c0.929-0.097,1.744,0.646,1.851,1.625l1.474,14.024
		C733.567,985.604,732.918,986.453,731.991,986.55z"/>
	<path fill="#424242" d="M764.445,983.139l-25.811,2.713c-0.929,0.098-1.781-0.591-1.893-1.615l-1.477-14.027
		c-0.099-0.976,0.59-1.879,1.518-1.976l25.813-2.715c0.969-0.1,1.787,0.642,1.888,1.617l1.477,14.027
		C766.067,982.188,765.418,983.035,764.445,983.139z"/>
	<path fill="#424242" d="M750.479,988.135l14.336-1.507c0.97-0.101,1.789,0.64,1.893,1.62l1.471,14.023
		c0.104,0.978-0.542,1.875-1.512,1.977l-14.336,1.507c-0.925,0.099-1.742-0.645-1.847-1.622l-1.475-14.025
		C748.906,989.129,749.551,988.231,750.479,988.135z"/>
	<path fill="#424242" d="M729.152,990.376l14.333-1.506c0.927-0.099,1.788,0.639,1.89,1.616l1.474,14.026
		c0.104,0.979-0.586,1.879-1.512,1.977l-14.334,1.508c-0.93,0.096-1.751-0.646-1.854-1.623l-1.474-14.026
		C727.567,991.37,728.224,990.474,729.152,990.376z"/>
	<path fill="#424242" d="M707.818,992.618l14.336-1.508c0.929-0.098,1.746,0.646,1.848,1.623l1.474,14.025
		c0.102,0.979-0.542,1.874-1.469,1.972l-14.333,1.508c-0.928,0.097-1.789-0.641-1.892-1.618l-1.476-14.027
		C706.205,993.617,706.896,992.716,707.818,992.618z"/>
	<path fill="#424242" d="M686.446,994.864l14.333-1.507c0.936-0.1,1.79,0.64,1.893,1.618l1.475,14.025
		c0.104,0.979-0.578,1.877-1.514,1.975l-14.336,1.509c-0.927,0.098-1.741-0.646-1.845-1.622l-1.474-14.025
		C684.876,995.857,685.52,994.961,686.446,994.864z"/>
	<path fill="#424242" d="M665.116,997.106l14.334-1.507c0.929-0.099,1.788,0.641,1.894,1.617l1.472,14.028
		c0.104,0.976-0.585,1.876-1.512,1.975l-14.336,1.509c-0.925,0.095-1.783-0.646-1.888-1.618l-1.473-14.029
		C663.503,998.104,664.189,997.203,665.116,997.106z"/>
	<path fill="#424242" d="M643.787,999.349l14.335-1.507c0.927-0.099,1.745,0.645,1.849,1.622l1.474,14.025
		c0.103,0.978-0.541,1.876-1.47,1.971l-14.332,1.507c-0.935,0.1-1.791-0.641-1.892-1.617l-1.475-14.025
		C642.172,1000.345,642.855,999.446,643.787,999.349z"/>
	<path fill="#424242" d="M622.415,1001.594l14.333-1.506c0.926-0.098,1.792,0.639,1.893,1.617l1.477,14.025
		c0.101,0.979-0.59,1.88-1.516,1.979l-14.334,1.507c-0.927,0.095-1.742-0.646-1.845-1.624l-1.477-14.025
		C620.845,1002.588,621.489,1001.692,622.415,1001.594z"/>
	<path fill="#424242" d="M601.086,1003.837l14.334-1.507c0.928-0.098,1.745,0.644,1.849,1.622l1.476,14.025
		c0.101,0.978-0.546,1.873-1.471,1.972l-14.337,1.506c-0.925,0.098-1.788-0.641-1.889-1.617l-1.474-14.027
		C599.471,1004.834,600.159,1003.934,601.086,1003.837z"/>
	<path fill="#424242" d="M579.756,1006.079l14.337-1.508c0.925-0.097,1.74,0.645,1.847,1.622l1.473,14.026
		c0.103,0.977-0.543,1.873-1.467,1.973l-14.337,1.506c-0.968,0.101-1.789-0.642-1.892-1.619l-1.474-14.024
		C578.141,1007.076,578.79,1006.18,579.756,1006.079z"/>
	<path fill="#424242" d="M558.382,1008.324l14.335-1.507c0.928-0.099,1.788,0.64,1.894,1.616l1.474,14.027
		c0.104,0.979-0.588,1.879-1.515,1.976l-14.334,1.509c-0.925,0.099-1.742-0.646-1.848-1.622l-1.474-14.027
		C556.811,1009.319,557.456,1008.423,558.382,1008.324z"/>
	<path fill="#424242" d="M537.051,1010.567l14.337-1.509c0.927-0.097,1.743,0.646,1.849,1.622l1.472,14.026
		c0.102,0.979-0.54,1.874-1.467,1.972l-14.336,1.506c-0.924,0.099-1.788-0.64-1.894-1.618l-1.471-14.024
		C535.438,1011.564,536.126,1010.663,537.051,1010.567z"/>
	<path fill="#424242" d="M515.724,1012.808l14.334-1.507c0.929-0.099,1.745,0.646,1.849,1.623l1.474,14.026
		c0.104,0.978-0.541,1.876-1.471,1.971l-14.334,1.506c-0.967,0.104-1.788-0.64-1.893-1.617l-1.473-14.025
		C514.107,1013.807,514.752,1012.911,515.724,1012.808z"/>
	<path fill="#424242" d="M494.35,1015.056l14.333-1.508c0.931-0.097,1.792,0.64,1.894,1.618l1.478,14.025
		c0.101,0.978-0.589,1.88-1.517,1.976l-14.334,1.508c-0.926,0.099-1.749-0.646-1.852-1.622l-1.472-14.025
		C492.776,1016.049,493.426,1015.152,494.35,1015.056z"/>
	<path fill="#424242" d="M715.258,1013.18l14.336-1.509c0.925-0.096,1.784,0.606,1.892,1.617l1.475,14.029
		c0.102,0.977-0.589,1.878-1.515,1.974l-14.336,1.508c-0.927,0.098-1.743-0.646-1.846-1.622l-1.475-14.027
		C713.684,1014.138,714.331,1013.276,715.258,1013.18z"/>
	<path fill="#424242" d="M693.928,1015.422l14.335-1.508c0.929-0.097,1.771,0.604,1.877,1.617l1.475,14.027
		c0.104,0.979-0.572,1.876-1.497,1.975l-14.335,1.507c-0.927,0.098-1.787-0.641-1.893-1.619l-1.475-14.026
		C692.309,1016.383,693.002,1015.518,693.928,1015.422z"/>
	<path fill="#424242" d="M672.593,1017.663l14.297-1.503c0.972-0.1,1.783,0.604,1.893,1.616l1.475,14.027
		c0.104,0.979-0.542,1.875-1.513,1.977l-14.299,1.503c-0.938,0.1-1.78-0.643-1.883-1.619l-1.476-14.028
		C670.979,1018.625,671.656,1017.761,672.593,1017.663z"/>
	<path fill="#424242" d="M651.224,1019.909l14.335-1.508c0.93-0.098,1.789,0.604,1.896,1.617l1.474,14.026
		c0.102,0.977-0.587,1.878-1.513,1.977l-14.337,1.506c-0.926,0.1-1.743-0.646-1.848-1.62l-1.478-14.029
		C649.649,1020.866,650.298,1020.006,651.224,1019.909z"/>
	<path fill="#424242" d="M629.896,1022.15l14.335-1.508c0.926-0.098,1.739,0.609,1.847,1.621l1.474,14.029
		c0.104,0.976-0.542,1.873-1.47,1.969l-14.335,1.509c-0.925,0.097-1.787-0.641-1.891-1.615l-1.475-14.031
		C628.277,1023.113,628.972,1022.246,629.896,1022.15z"/>
	<path fill="#424242" d="M608.523,1024.396l14.336-1.508c0.97-0.1,1.783,0.605,1.89,1.617l1.476,14.028
		c0.101,0.976-0.545,1.872-1.513,1.975l-14.336,1.506c-0.928,0.099-1.743-0.645-1.845-1.619l-1.477-14.028
		C606.948,1025.354,607.598,1024.495,608.523,1024.396z"/>
	<path fill="#424242" d="M587.193,1026.639l14.336-1.507c0.927-0.097,1.781,0.604,1.891,1.617l1.477,14.027
		c0.102,0.976-0.591,1.877-1.515,1.974l-14.337,1.507c-0.925,0.097-1.742-0.645-1.846-1.62l-1.476-14.027
		C585.616,1027.598,586.269,1026.737,587.193,1026.639z"/>
	<path fill="#424242" d="M565.867,1028.879l14.334-1.503c0.925-0.1,1.739,0.608,1.846,1.62l1.477,14.027
		c0.101,0.977-0.547,1.874-1.47,1.97l-14.334,1.507c-0.927,0.097-1.791-0.641-1.894-1.618l-1.475-14.025
		C564.245,1029.843,564.938,1028.979,565.867,1028.879z"/>
	<path fill="#424242" d="M544.488,1031.126l14.337-1.505c0.963-0.104,1.785,0.603,1.892,1.615l1.476,14.027
		c0.104,0.977-0.555,1.874-1.513,1.975l-14.337,1.508c-0.923,0.098-1.741-0.646-1.845-1.62l-1.477-14.03
		C542.914,1032.086,543.564,1031.225,544.488,1031.126z"/>
	<path fill="#424242" d="M523.162,1033.369l14.335-1.507c0.924-0.098,1.785,0.604,1.89,1.613l1.476,14.03
		c0.101,0.976-0.586,1.877-1.512,1.976l-14.336,1.508c-0.927,0.098-1.759-0.646-1.858-1.621l-1.475-14.029
		C521.571,1034.327,522.235,1033.465,523.162,1033.369z"/>
	<path fill="#424242" d="M501.834,1035.611l14.333-1.508c0.93-0.1,1.739,0.608,1.847,1.62l1.477,14.026
		c0.101,0.979-0.543,1.875-1.471,1.971l-14.334,1.508c-0.926,0.097-1.787-0.642-1.892-1.617l-1.475-14.027
		C500.212,1036.575,500.905,1035.709,501.834,1035.611z"/>
	<path fill="#424242" d="M706.961,1036.607l14.333-1.509c0.928-0.097,1.739,0.598,1.841,1.576l1.48,14.071
		c0.103,0.978-0.547,1.826-1.476,1.922l-14.333,1.507c-0.971,0.103-1.783-0.59-1.886-1.568l-1.48-14.074
		C705.339,1037.557,705.987,1036.709,706.961,1036.607z"/>
	<path fill="#424242" d="M685.587,1038.854l14.336-1.507c0.926-0.098,1.783,0.591,1.887,1.569l1.479,14.073
		c0.101,0.979-0.595,1.829-1.521,1.925l-14.336,1.51c-0.926,0.097-1.737-0.596-1.84-1.574l-1.478-14.071
		C684.01,1039.798,684.659,1038.951,685.587,1038.854z"/>
	<path fill="#424242" d="M664.259,1041.097l14.333-1.507c0.926-0.1,1.741,0.596,1.844,1.574l1.477,14.072
		c0.104,0.977-0.546,1.823-1.475,1.923l-14.334,1.507c-0.927,0.097-1.781-0.59-1.886-1.568l-1.479-14.074
		C662.634,1042.045,663.331,1041.193,664.259,1041.097z"/>
	<path fill="#424242" d="M642.927,1043.337l14.316-1.505c0.936-0.099,1.762,0.595,1.862,1.571l1.479,14.073
		c0.102,0.98-0.56,1.826-1.497,1.926l-14.314,1.503c-0.972,0.104-1.781-0.589-1.885-1.568l-1.479-14.073
		C641.309,1044.287,641.956,1043.438,642.927,1043.337z"/>
	<path fill="#424242" d="M621.555,1045.583l14.333-1.505c0.929-0.1,1.786,0.589,1.888,1.566l1.479,14.073
		c0.103,0.979-0.59,1.83-1.52,1.927l-14.335,1.508c-0.925,0.098-1.755-0.595-1.854-1.571l-1.478-14.075
		C619.963,1046.53,620.628,1045.682,621.555,1045.583z"/>
	<path fill="#424242" d="M600.227,1047.823l14.334-1.505c0.928-0.098,1.738,0.597,1.84,1.574l1.479,14.072
		c0.101,0.978-0.545,1.824-1.472,1.921l-14.337,1.506c-0.925,0.099-1.783-0.589-1.884-1.567l-1.48-14.072
		C598.604,1048.774,599.3,1047.923,600.227,1047.823z"/>
	<path fill="#424242" d="M578.896,1050.067l14.289-1.502c0.928-0.1,1.784,0.589,1.889,1.567l1.477,14.075
		c0.102,0.977-0.591,1.826-1.519,1.926l-14.291,1.5c-0.97,0.104-1.782-0.588-1.886-1.567l-1.476-14.072
		C577.276,1051.016,577.926,1050.17,578.896,1050.067z"/>
	<path fill="#424242" d="M557.521,1052.314l14.334-1.509c0.93-0.097,1.784,0.593,1.888,1.569l1.479,14.072
		c0.104,0.979-0.592,1.831-1.519,1.928l-14.336,1.506c-0.927,0.1-1.783-0.588-1.886-1.568l-1.479-14.072
		C555.901,1053.263,556.596,1052.411,557.521,1052.314z"/>
	<path fill="#424242" d="M536.191,1054.556l14.338-1.508c0.927-0.096,1.736,0.599,1.841,1.573l1.478,14.072
		c0.103,0.98-0.548,1.826-1.472,1.923l-14.338,1.508c-0.926,0.097-1.782-0.59-1.886-1.57l-1.476-14.07
		C534.574,1055.504,535.267,1054.652,536.191,1054.556z"/>
	<path fill="#424242" d="M514.831,1056.801l14.323-1.506c0.925-0.097,1.787,0.592,1.887,1.571l1.479,14.071
		c0.104,0.979-0.594,1.829-1.521,1.928l-14.325,1.506c-0.934,0.098-1.746-0.595-1.849-1.575l-1.48-14.073
		C513.245,1057.747,513.893,1056.899,514.831,1056.801z"/>
	<path fill="#424242" d="M511.356,1078.714l14.334-1.507c0.928-0.102,1.786,0.641,1.889,1.618l1.474,14.025
		c0.11,1.023-0.584,1.878-1.512,1.976l-14.333,1.506c-0.93,0.098-1.74-0.597-1.846-1.62l-1.478-14.028
		C509.785,1079.707,510.429,1078.811,511.356,1078.714z"/>
	<path fill="#424242" d="M532.729,1076.468l14.334-1.508c0.925-0.098,1.745,0.646,1.85,1.622l1.473,14.026
		c0.11,1.023-0.543,1.874-1.468,1.97l-14.335,1.507c-0.932,0.098-1.782-0.594-1.891-1.616l-1.477-14.027
		C531.109,1077.467,531.796,1076.564,532.729,1076.468z"/>
	<path fill="#424242" d="M670.493,1061.986l14.338-1.508c0.927-0.095,1.788,0.642,1.892,1.617l1.476,14.03
		c0.104,1.022-0.587,1.874-1.517,1.973l-14.335,1.508c-0.925,0.097-1.736-0.601-1.844-1.62l-1.476-14.029
		C668.927,1062.981,669.569,1062.085,670.493,1061.986z"/>
	<path fill="#424242" d="M692.67,1059.656l14.335-1.509c0.971-0.102,1.791,0.642,1.895,1.619l1.475,14.026
		c0.106,1.023-0.546,1.873-1.514,1.977l-14.339,1.505c-0.925,0.099-1.737-0.597-1.845-1.619l-1.474-14.028
		C691.101,1060.65,691.745,1059.753,692.67,1059.656z"/>
	<path fill="#424242" d="M554.058,1074.226l109.12-11.468c0.928-0.098,1.751,0.645,1.856,1.62l1.473,14.028
		c0.109,1.022-0.552,1.874-1.477,1.971l-109.122,11.469c-0.927,0.098-1.775-0.594-1.883-1.617l-1.476-14.027
		C552.45,1075.224,553.13,1074.323,554.058,1074.226z"/>
	<path fill="#424242" d="M490.026,1080.955l14.334-1.507c0.925-0.099,1.764,0.646,1.865,1.619l1.474,14.027
		c0.108,1.023-0.563,1.874-1.489,1.974l-14.333,1.505c-0.925,0.097-1.785-0.593-1.891-1.616l-1.479-14.027
		C488.41,1081.954,489.103,1081.053,490.026,1080.955z"/>
	<path fill="#424242" d="M468.697,1083.196l14.335-1.507c0.925-0.098,1.743,0.646,1.846,1.623l1.475,14.027
		c0.108,1.021-0.542,1.872-1.467,1.969l-14.336,1.508c-0.971,0.102-1.784-0.594-1.888-1.615l-1.477-14.027
		C467.082,1084.197,467.727,1083.299,468.697,1083.196z"/>
	<path fill="#424242" d="M461.893,1018.466l25.814-2.713c0.925-0.098,1.788,0.641,1.889,1.617l1.475,14.026
		c0.104,0.978-0.587,1.878-1.511,1.976l-25.813,2.714c-0.968,0.1-1.786-0.642-1.89-1.617l-1.475-14.025
		C460.277,1019.463,460.924,1018.568,461.893,1018.466z"/>
	<path fill="#424242" d="M464.113,1039.574l31.185-3.275c0.923-0.101,1.784,0.603,1.89,1.614l1.476,14.029
		c0.103,0.976-0.588,1.877-1.513,1.974l-31.186,3.278c-0.97,0.1-1.787-0.643-1.891-1.616l-1.477-14.028
		C462.494,1040.537,463.143,1039.678,464.113,1039.574z"/>
	<path fill="#424242" d="M466.458,1061.885l40.89-4.299c0.973-0.102,1.784,0.591,1.887,1.57l1.479,14.069
		c0.103,0.98-0.548,1.827-1.519,1.93l-40.89,4.299c-0.973,0.103-1.784-0.59-1.89-1.571l-1.479-14.069
		C464.837,1062.835,465.488,1061.987,466.458,1061.885z"/>
	<path fill="#424242" d="M728.486,1034.345l40.889-4.298c0.973-0.103,1.785,0.591,1.887,1.567l1.479,14.073
		c0.102,0.979-0.552,1.827-1.521,1.929l-40.89,4.3c-0.973,0.1-1.783-0.592-1.886-1.57l-1.479-14.075
		C726.865,1035.294,727.516,1034.447,728.486,1034.345z"/>
	<path fill="#424242" d="M736.324,1010.964l30.707-3.227c0.973-0.104,1.784,0.603,1.894,1.613l1.475,14.03
		c0.103,0.977-0.544,1.872-1.516,1.975l-30.707,3.227c-0.967,0.104-1.79-0.64-1.893-1.615l-1.474-14.028
		C734.703,1011.929,735.354,1011.067,736.324,1010.964z"/>
	<path fill="#424242" d="M496.356,989.066l-14.993,1.573c-0.938,0.1-1.785-0.59-1.888-1.566l-0.636-6.043
		c-0.104-1.021,0.579-1.872,1.518-1.975l14.993-1.575c0.925-0.1,1.761,0.6,1.867,1.618l0.634,6.042
		C497.956,988.117,497.282,988.969,496.356,989.066z"/>
	<path fill="#424242" d="M518.502,986.738l-14.989,1.573c-0.93,0.099-1.786-0.589-1.887-1.566l-0.637-6.042
		c-0.107-1.02,0.588-1.876,1.512-1.975l14.996-1.572c0.927-0.1,1.782,0.594,1.891,1.613l0.632,6.042
		C520.124,985.789,519.43,986.642,518.502,986.738z"/>
	<path fill="#424242" d="M540.652,984.411l-14.995,1.575c-0.924,0.096-1.783-0.592-1.883-1.57l-0.638-6.039
		c-0.104-1.021,0.587-1.877,1.515-1.975l14.991-1.576c0.931-0.097,1.786,0.595,1.896,1.616l0.633,6.042
		C542.271,983.462,541.577,984.313,540.652,984.411z"/>
	<path fill="#424242" d="M562.801,982.083l-14.995,1.576c-0.927,0.095-1.78-0.592-1.884-1.57l-0.636-6.041
		c-0.106-1.021,0.588-1.876,1.512-1.976l14.996-1.573c0.927-0.1,1.783,0.595,1.89,1.615l0.636,6.041
		C564.42,981.134,563.727,981.983,562.801,982.083z"/>
	<path fill="#424242" d="M584.949,979.754l-14.996,1.575c-0.926,0.097-1.782-0.591-1.886-1.568l-0.635-6.042
		c-0.107-1.02,0.587-1.876,1.517-1.974l14.99-1.575c0.928-0.099,1.784,0.596,1.892,1.615l0.637,6.042
		C586.569,978.806,585.874,979.656,584.949,979.754z"/>
	<path fill="#424242" d="M607.098,977.427l-14.996,1.576c-0.927,0.096-1.782-0.591-1.885-1.57l-0.636-6.04
		c-0.106-1.021,0.589-1.878,1.514-1.974l14.994-1.576c0.926-0.098,1.785,0.598,1.893,1.615l0.634,6.043
		C608.716,976.479,608.021,977.329,607.098,977.427z"/>
	<path fill="#424242" d="M629.243,975.099l-14.994,1.575c-0.925,0.098-1.783-0.591-1.887-1.568l-0.634-6.04
		c-0.106-1.021,0.589-1.875,1.514-1.976l14.995-1.575c0.926-0.097,1.782,0.596,1.892,1.615l0.636,6.043
		C630.866,974.149,630.171,975.001,629.243,975.099z"/>
	<path fill="#424242" d="M651.39,972.77l-14.988,1.576c-0.928,0.098-1.783-0.589-1.888-1.567l-0.634-6.04
		c-0.105-1.021,0.586-1.878,1.512-1.976l14.995-1.574c0.927-0.101,1.783,0.595,1.89,1.615l0.635,6.041
		C653.014,971.822,652.317,972.673,651.39,972.77z"/>
	<path fill="#424242" d="M673.539,970.443l-14.992,1.573c-0.924,0.099-1.782-0.59-1.884-1.567l-0.634-6.041
		c-0.109-1.02,0.585-1.877,1.511-1.976l14.994-1.573c0.928-0.1,1.78,0.595,1.893,1.613l0.632,6.043
		C675.163,969.494,674.466,970.346,673.539,970.443z"/>
	<path fill="#424242" d="M695.689,968.115l-14.993,1.575c-0.927,0.101-1.785-0.591-1.886-1.568l-0.637-6.041
		c-0.104-1.021,0.589-1.876,1.514-1.976l14.993-1.574c0.93-0.099,1.783,0.596,1.892,1.615l0.637,6.041
		C697.311,967.167,696.615,968.019,695.689,968.115z"/>
	<path fill="#424242" d="M717.837,965.787l-14.993,1.577c-0.927,0.096-1.784-0.592-1.887-1.571l-0.634-6.04
		c-0.108-1.021,0.589-1.876,1.513-1.974l14.992-1.576c0.929-0.098,1.785,0.596,1.895,1.616l0.635,6.041
		C719.46,964.838,718.765,965.689,717.837,965.787z"/>
	<path fill="#424242" d="M739.986,963.459l-14.994,1.577c-0.926,0.096-1.752-0.597-1.854-1.573l-0.637-6.044
		c-0.106-1.018,0.559-1.871,1.484-1.967l14.991-1.576c0.942-0.101,1.784,0.595,1.892,1.614l0.638,6.044
		C741.606,962.51,740.927,963.36,739.986,963.459z"/>
	<path fill="#424242" d="M762.133,961.132l-14.991,1.575c-0.928,0.098-1.738-0.596-1.843-1.575l-0.636-6.038
		c-0.104-1.021,0.545-1.873,1.471-1.971l14.992-1.575c0.971-0.102,1.784,0.595,1.892,1.614l0.636,6.044
		C763.756,960.182,763.104,961.029,762.133,961.132z"/>
	<path fill="#424242" d="M730.811,1073.461l-14.336,1.508c-0.927,0.098-1.783-0.595-1.888-1.617l-0.467-4.405
		c-0.103-0.978,0.594-1.829,1.519-1.927l14.336-1.508c0.926-0.098,1.736,0.597,1.84,1.574l0.466,4.406
		C732.386,1072.515,731.735,1073.363,730.811,1073.461z"/>
	<path fill="#424242" d="M752.139,1071.22l-14.334,1.506c-0.928,0.098-1.744-0.596-1.854-1.62l-0.461-4.405
		c-0.104-0.978,0.554-1.826,1.479-1.923l14.334-1.506c0.928-0.102,1.785,0.59,1.888,1.568l0.464,4.406
		C753.761,1070.268,753.066,1071.123,752.139,1071.22z"/>
	<path fill="#424242" d="M751.124,1061.555l-14.335,1.505c-0.926,0.098-1.747-0.597-1.852-1.575l-0.461-4.405
		c-0.104-0.979,0.551-1.874,1.477-1.971l14.336-1.507c0.926-0.098,1.786,0.641,1.89,1.617l0.463,4.406
		C752.744,1060.602,752.05,1061.456,751.124,1061.555z"/>
	<path fill="#424242" d="M773.47,1068.979l-14.337,1.506c-0.926,0.099-1.738-0.6-1.846-1.619l-0.464-4.408
		c-0.103-0.979,0.55-1.824,1.473-1.923l14.337-1.508c0.97-0.1,1.783,0.594,1.885,1.569l0.466,4.408
		C775.09,1068.027,774.438,1068.875,773.47,1068.979z"/>
	<path fill="#AAD2D2" d="M451.957,945.965c-1.798,0.19-3.499-0.891-4.05-2.568L410.06,820.497c-0.482-1.479,0.071-2.637,0.445-3.198
		c0.376-0.559,1.239-1.521,2.823-1.688l356.818-37.504c1.58-0.167,2.627,0.598,3.109,1.065c0.481,0.469,1.268,1.489,1.1,3.032
		l-11.469,128.083c-0.188,1.756-1.632,3.167-3.428,3.354L451.957,945.965z"/>
	<path fill="#AAD2D2" d="M763.281,905.892c-0.217,2.421-0.952,7.452-4.237,7.799c-102.223,10.753-204.448,21.49-306.672,32.231
		c-3.285,0.345-5.05-4.424-5.765-6.744c-12.132-39.388-24.26-78.772-36.39-118.16c-0.714-2.319,3.048-5.399,6.792-5.793
		c116.481-12.249,232.964-24.5,349.447-36.729c3.744-0.395,8.066,1.833,7.85,4.251C770.629,823.795,766.953,864.842,763.281,905.892
		z"/>
	<path fill="#82AA46" d="M480.407,830.623c0.008,0.033,0.012,0.049,0.018,0.082c-1.6,0.213-2.4,0.322-4.001,0.535
		c2.297,11.307,5.273,22.188,0.233,32.984c-2.455,5.256-4.828,9.868-3.005,17.428c2.84,11.771,5.673,23.541,8.512,35.311
		c0.343,1.418,2.057,1.938,3.939,2.268c0,0,4.546,0.199,14.655-0.861c0.193-0.022,0.371-0.044,0.564-0.064
		c-6.442-29.269-12.88-58.538-19.324-87.808C481.363,830.547,481.044,830.571,480.407,830.623z"/>
	<path fill="#7DA541" d="M501.666,861.598c-8.657-8.223-11.782-20.132-13.895-31.551c-1.621,0.124-2.432,0.188-4.052,0.313
		c-0.007-0.031-0.012-0.048-0.019-0.08c-0.667,0.086-0.998,0.129-1.666,0.216c-0.016,0.001-0.021,0-0.035,0.001
		c6.444,29.27,12.882,58.539,19.323,87.808c9.495-1.021,15.018-2.251,15.018-2.251c1.883-0.948,2.985-1.541,2.702-2.965
		c-2.357-11.82-4.711-23.641-7.063-35.461C510.467,870.034,506.439,866.131,501.666,861.598z"/>
	<path fill="#EBEBEB" d="M493.613,882.582c-0.048,0.004-0.1,0.009-0.147,0.013c2.134,9.695,3.202,14.546,5.334,24.241
		c0.053-0.006,0.105-0.012,0.158-0.018c4.763-0.502,9.849-0.732,15.379-2.541c-1.959-9.679-2.938-14.515-4.896-24.191
		C503.695,881.609,498.513,882.066,493.613,882.582z"/>
	<path fill="#F0F0F0" d="M477.134,883.48c2.283,9.607,3.429,14.411,5.712,24.019c6.411,0.328,11.266-0.171,15.955-0.663
		c-2.134-9.695-3.202-14.545-5.334-24.24C488.593,883.109,482.921,883.783,477.134,883.48z"/>
	<path fill="#8C8C8C" d="M526.735,824.883c-11.529,11.162-22.887,22.502-34.057,34.027c0.729,0.326,1.091,0.49,1.817,0.817
		c10.986-11.331,22.157-22.48,33.488-33.469c33.235-3.483,66.472-6.981,99.705-10.479c-0.043-0.601-0.063-0.899-0.104-1.499
		C593.969,817.814,560.354,821.349,526.735,824.883z"/>
	<path fill="#8C8C8C" d="M533.261,862.41c-12.507,10.762-24.859,21.703-37.036,32.838c0.677,0.336,1.018,0.503,1.691,0.839
		c11.997-10.968,24.158-21.755,36.478-32.358c35.587-3.745,71.178-7.479,106.767-11.223c-0.034-0.57-0.051-0.854-0.085-1.426
		C605.137,854.857,569.199,858.637,533.261,862.41z"/>
	<path fill="#8C8C8C" d="M510.23,911.099c12.113,0.813,24.225,1.633,36.336,2.469c29.143-3.061,58.285-6.123,87.428-9.188
		c-0.035-0.495-0.053-0.746-0.088-1.243c-29.085,3.061-58.171,6.106-87.255,9.172c-12.029-0.834-24.061-1.646-36.091-2.444
		C510.427,910.356,510.362,910.604,510.23,911.099z"/>
	<path fill="#5A6482" d="M728.632,800.04c-30.016,3.155-60.03,6.312-90.046,9.464c-0.071-1.191-0.104-1.786-0.177-2.977
		c30.104-3.164,60.209-6.328,90.313-9.494C728.688,798.235,728.667,798.838,728.632,800.04z"/>
	<path fill="#5A6482" d="M728.456,806.049c-29.837,3.142-59.677,6.271-89.515,9.409c-0.071-1.19-0.105-1.784-0.178-2.975
		c29.927-3.15,59.854-6.291,89.781-9.439C728.51,804.246,728.491,804.846,728.456,806.049z"/>
	<path fill="#5A6482" d="M697.138,815.334c-19.278,2.027-38.56,4.053-57.839,6.078c-0.07-1.191-0.106-1.788-0.179-2.979
		c19.338-2.028,38.675-4.063,58.013-6.096C697.135,813.536,697.136,814.135,697.138,815.334z"/>
	<path fill="#5A6482" d="M738.369,836.467c-28.905,3.041-57.813,6.077-86.717,9.116c-0.06-1.192-0.087-1.79-0.146-2.981
		c28.994-3.05,57.987-6.096,86.981-9.145C738.441,834.66,738.417,835.263,738.369,836.467z"/>
	<path fill="#5A6482" d="M738.126,842.484c-28.728,3.021-57.456,6.038-86.183,9.06c-0.06-1.192-0.086-1.789-0.146-2.979
		c28.815-3.032,57.633-6.062,86.448-9.088C738.199,840.68,738.174,841.28,738.126,842.484z"/>
	<path fill="#5A6482" d="M684.352,854.129c-10.705,1.125-21.412,2.252-32.119,3.377c-0.059-1.191-0.086-1.789-0.146-2.979
		c10.74-1.13,21.479-2.259,32.221-3.388C684.325,852.336,684.334,852.932,684.352,854.129z"/>
	<path fill="#5A6482" d="M746.265,892.563c-34.021,3.58-68.043,7.154-102.065,10.728c-0.071-1.191-0.105-1.785-0.18-2.977
		c34.136-3.589,68.268-7.173,102.399-10.763C746.358,890.755,746.328,891.357,746.265,892.563z"/>
	<path fill="#5A6482" d="M746.575,886.538c-34.243,3.6-68.489,7.2-102.732,10.798c-0.071-1.191-0.105-1.787-0.179-2.978
		c34.355-3.605,68.713-7.221,103.066-10.833C746.67,884.729,746.638,885.333,746.575,886.538z"/>
	<path fill="#5A6482" d="M745.956,898.588c-33.802,3.552-67.601,7.107-101.402,10.656c-0.07-1.191-0.104-1.787-0.176-2.978
		c33.91-3.563,67.823-7.127,101.734-10.691C746.051,896.779,746.018,897.383,745.956,898.588z"/>
	<path fill="#5A6482" d="M675.136,912.023c-10.073,1.059-20.148,2.117-30.224,3.176c-0.072-1.189-0.105-1.787-0.179-2.979
		c10.107-1.061,20.216-2.122,30.32-3.187C675.086,910.229,675.104,910.828,675.136,912.023z"/>
	<path fill="#5A6482" d="M737.639,854.521c-28.372,2.981-56.744,5.965-85.115,8.944c-0.06-1.19-0.088-1.787-0.146-2.979
		c28.461-2.994,56.922-5.985,85.384-8.977C737.713,852.717,737.688,853.317,737.639,854.521z"/>
	<path fill="#5A6482" d="M716.252,862.762c-21.146,2.222-42.294,4.443-63.439,6.668c-0.06-1.19-0.088-1.789-0.146-2.979
		c21.213-2.23,42.425-4.459,63.639-6.689C716.284,860.959,716.273,861.563,716.252,862.762z"/>
	<g transform="translate(919,917)">
		<g>
			<g transform="translate(-919,-917)">
				<path fill="#AAD2D2" d="M763.281,905.892c-0.217,2.421-0.951,7.452-4.237,7.799c-102.223,10.753-204.448,21.49-306.672,32.231
					c-3.285,0.345-5.05-4.424-5.765-6.744c-12.132-39.388-24.262-78.774-36.391-118.162c-0.714-2.319,3.051-5.397,6.795-5.791
					c116.482-12.241,232.96-24.499,349.445-36.729c3.743-0.395,8.065,1.834,7.849,4.251
					C770.63,823.795,766.956,864.844,763.281,905.892z"/>
				<path fill="#3F3F3F" d="M623.369,885.373c0.203,2.49,0.306,3.734,0.509,6.225c0.088,1.102,1.431,1.479,2.914,1.707
					c0,0,3.723,0.121,12.177-0.769c8.221-0.866,13.139-1.893,13.139-1.893c1.66-0.749,2.616-1.174,2.569-2.284
					c-0.119-2.492-0.179-3.739-0.298-6.231C644.178,884.266,633.773,885.082,623.369,885.373z M653.363,862.564
					c0,0,0.046-0.001,0.086,0.004c-0.021-0.477-0.032-0.713-0.056-1.188c-0.276-5.782-3.001-8.741-6.313-12.157
					c-6.173-6.365-6.691-14.365-7.264-23.967c-1.313,0.103-1.972,0.15-3.284,0.252c-0.004-0.021-0.006-0.029-0.01-0.054
					c-0.535,0.067-0.804,0.103-1.339,0.17c-0.547,0.044-0.818,0.065-1.364,0.11c0.008,0.022,0.012,0.031,0.021,0.057
					c-1.304,0.173-1.957,0.258-3.26,0.434c0.668,9.589,1.143,17.622-4.123,25.162c-2.844,4.073-5.225,7.564-4.757,13.325
					c0.037,0.467,0.054,0.702,0.091,1.169C632.377,865.529,642.936,864.418,653.363,862.564z M654.324,878.862
					c-0.25-5.238-0.376-7.854-0.625-13.094c-5.813,1.111-10.918,1.601-15.743,2.105c-4.836,0.508-10.519,1.15-16.092,1.246
					c0.423,5.197,0.634,7.794,1.057,12.99c6.271-0.106,11.161-0.613,15.908-1.111C643.552,880.502,648.596,880.109,654.324,878.862z
					 M597.205,848.962c2.615-0.274,5.194-0.37,7.674-0.324c-1.665-5.622-2.505-8.431-4.202-14.048
					c0.049-0.004,0.071-0.006,0.121-0.012c0.369-0.04,0.663-0.22,0.646-0.402c-0.181-1.832-0.271-2.746-0.452-4.576
					c-0.02-0.188-0.347-0.31-0.717-0.27c-4.061,0.427-6.089,0.64-10.147,1.066c-0.39,0.041-0.659,0.223-0.639,0.411
					c0.203,1.828,0.306,2.742,0.508,4.569c0.02,0.183,0.321,0.3,0.709,0.261c0.049-0.006,0.073-0.008,0.122-0.015
					c-0.493,5.849-0.733,8.771-1.191,14.616C592.04,849.681,594.575,849.238,597.205,848.962z M597.875,855.334
					c-4.941,0.519-9.311,1.967-12.473,3.912c-1.573,3.533-2.521,7.574-2.012,11.732c0.019,0.146,0.072,0.583,0.155,1.233
					c10.617-1.115,21.233-2.229,31.849-3.349c-0.052-0.654-0.078-1.097-0.092-1.241c-0.367-4.172-2.149-7.928-4.41-11.06
					C607.403,855.32,602.802,854.815,597.875,855.334z M586.666,895.968c0.143,1.163,2.026,1.924,4.214,1.693
					c9.047-0.952,13.569-1.427,22.616-2.378c2.188-0.23,3.896-1.368,3.795-2.535c0,0-0.199-2.613-0.496-6.154
					c-10.313,1.086-20.626,2.166-30.939,3.253C586.325,893.369,586.666,895.968,586.666,895.968z M560.053,833.702
					c-1.326,0.106-1.987,0.159-3.313,0.268c-0.004-0.023-0.006-0.034-0.009-0.062c-0.547,0.07-0.82,0.104-1.366,0.172
					c-0.544,0.047-0.817,0.068-1.361,0.113c0.004,0.024,0.006,0.037,0.01,0.063c-1.315,0.169-1.978,0.257-3.294,0.427
					c1.438,9.521,2.563,17.457-2.199,24.968c-2.558,4.034-4.701,7.508-3.768,13.225c1.743,10.66,2.612,15.992,4.354,26.652
					c0.177,1.09,1.561,1.463,3.101,1.69c0,0,3.79,0.109,12.338-0.789c8.287-0.872,13.198-1.896,13.198-1.896
					c1.632-0.753,2.585-1.181,2.442-2.275c-1.379-10.698-2.07-16.046-3.449-26.745c-0.741-5.737-3.751-8.66-7.405-12.047
					C562.547,851.176,561.398,843.23,560.053,833.702z M576.831,889.652c-4.729,1.405-8.994,1.647-12.996,2.069
					c-3.999,0.42-8.115,0.853-13.486,0.644c-1.167-7.254-1.75-10.881-2.917-18.138c4.807,0.188,9.61-0.385,13.708-0.815
					c4.098-0.43,8.436-0.816,13.285-2.019C575.389,878.698,575.869,882.348,576.831,889.652z"/>
				<path fill="#FFFFFF" d="M517.699,867.9c-25.077,2.634-50.155,5.271-75.232,7.904c-4.635-16.988-9.27-33.978-13.901-50.968
					c26.437-2.779,52.875-5.558,79.311-8.338C511.15,833.635,514.425,850.768,517.699,867.9z"/>
				<path fill="#8C8C8C" d="M504.524,828.839c-22.396,2.354-44.789,4.707-67.184,7.063c-0.156-0.583-0.233-0.875-0.389-1.459
					c22.426-2.357,44.854-4.714,67.283-7.072C504.35,827.957,504.408,828.252,504.524,828.839z"/>
				<path fill="#8C8C8C" d="M461.157,839.386c-8.905,0.938-13.356,1.408-22.26,2.343c-0.156-0.581-0.233-0.873-0.39-1.456
					c8.917-0.938,13.376-1.408,22.293-2.346C460.943,838.511,461.015,838.803,461.157,839.386z"/>
				<path fill="#8C8C8C" d="M506.835,840.579c-22.129,2.325-44.255,4.651-66.384,6.976c-0.155-0.582-0.233-0.874-0.391-1.457
					c22.163-2.326,44.324-4.655,66.485-6.987C506.662,839.697,506.719,839.992,506.835,840.579z"/>
				<path fill="#8C8C8C" d="M507.991,846.447c-21.994,2.313-43.99,4.625-65.984,6.938c-0.155-0.583-0.231-0.875-0.388-1.457
					c22.028-2.313,44.055-4.633,66.083-6.944C507.817,845.568,507.875,845.861,507.991,846.447z"/>
				<path fill="#8C8C8C" d="M509.146,852.32c-21.861,2.296-43.724,4.594-65.584,6.893c-0.155-0.582-0.23-0.874-0.387-1.457
					c21.896-2.298,43.79-4.604,65.684-6.902C508.974,851.439,509.03,851.732,509.146,852.32z"/>
				<path fill="#8C8C8C" d="M495.093,859.789c-16.659,1.752-33.316,3.498-49.975,5.252c-0.155-0.582-0.234-0.875-0.391-1.458
					c16.685-1.753,33.367-3.503,50.052-5.261C494.905,858.91,494.967,859.203,495.093,859.789z"/>
				<path fill="#FFFFFF" d="M528.923,926.643c-23.521,2.476-47.045,4.945-70.569,7.417c-4.635-16.99-9.267-33.98-13.901-50.972
					c24.884-2.611,49.767-5.23,74.648-7.844C522.377,892.375,525.65,909.51,528.923,926.643z"/>
				<path fill="#8C8C8C" d="M516.082,887.544c-21.063,2.216-42.126,4.427-63.188,6.644c-0.154-0.582-0.231-0.873-0.387-1.455
					c21.094-2.223,42.191-4.438,63.287-6.653C515.91,886.663,515.966,886.957,516.082,887.544z"/>
				<path fill="#8C8C8C" d="M508.864,894.295c-18.139,1.906-36.276,3.813-54.414,5.719c-0.155-0.582-0.232-0.873-0.39-1.455
					c18.167-1.912,36.337-3.819,54.504-5.729C508.684,893.416,508.744,893.709,508.864,894.295z"/>
				<path fill="#8C8C8C" d="M518.394,899.286c-20.796,2.185-41.591,4.369-62.387,6.558c-0.155-0.582-0.232-0.875-0.389-1.457
					c20.829-2.189,41.657-4.38,62.485-6.567C518.22,898.406,518.278,898.699,518.394,899.286z"/>
				<path fill="#8C8C8C" d="M519.548,905.158c-20.663,2.172-41.325,4.344-61.988,6.515c-0.154-0.583-0.231-0.876-0.388-1.459
					c20.696-2.174,41.393-4.351,62.088-6.524C519.377,904.275,519.434,904.571,519.548,905.158z"/>
				<path fill="#8C8C8C" d="M502.229,912.969c-14.37,1.513-28.74,3.023-43.112,4.532c-0.155-0.583-0.231-0.875-0.389-1.458
					c14.394-1.512,28.787-3.023,43.181-4.538C502.035,912.09,502.102,912.383,502.229,912.969z"/>
				<path fill="#8C8C8C" d="M487.188,920.543c-10.604,1.114-15.909,1.672-26.515,2.786c-0.155-0.583-0.231-0.874-0.388-1.456
					c10.623-1.117,15.935-1.676,26.557-2.793C486.979,919.666,487.048,919.958,487.188,920.543z"/>
				<path fill="#FFFFFF" d="M754.155,843.045c-25.077,2.635-50.156,5.273-75.232,7.907c-0.357-17.438-0.721-34.875-1.078-52.314
					c26.438-2.782,52.874-5.558,79.312-8.339C756.156,807.882,755.156,825.464,754.155,843.045z"/>
				<path fill="#8C8C8C" d="M750.872,802.944c-22.394,2.357-44.788,4.711-67.182,7.063c-0.01-0.6-0.015-0.897-0.023-1.497
					c22.427-2.357,44.856-4.714,67.283-7.073C750.92,802.039,750.902,802.342,750.872,802.944z"/>
				<path fill="#8C8C8C" d="M710.493,813.182c-10.687,1.123-16.028,1.686-26.713,2.809c-0.011-0.6-0.014-0.896-0.022-1.495
					c10.702-1.125,16.051-1.688,26.752-2.813C710.503,812.281,710.501,812.582,710.493,813.182z"/>
				<path fill="#8C8C8C" d="M750.253,814.993c-22.128,2.327-44.256,4.65-66.385,6.978c-0.009-0.598-0.011-0.896-0.021-1.494
					c22.16-2.33,44.321-4.653,66.482-6.989C750.299,814.089,750.284,814.391,750.253,814.993z"/>
				<path fill="#8C8C8C" d="M716.952,824.484c-10.996,1.156-21.993,2.313-32.991,3.469c-0.01-0.6-0.015-0.897-0.023-1.495
					c11.015-1.155,22.026-2.313,33.039-3.472C716.968,823.586,716.963,823.885,716.952,824.484z"/>
				<path fill="#8C8C8C" d="M749.635,827.042c-21.86,2.302-43.723,4.597-65.585,6.894c-0.01-0.598-0.013-0.895-0.021-1.491
					c21.895-2.307,43.79-4.605,65.685-6.906C749.682,826.139,749.666,826.439,749.635,827.042z"/>
				<path fill="#8C8C8C" d="M738.461,834.209c-18.107,1.904-36.215,3.807-54.322,5.711c-0.009-0.598-0.011-0.896-0.021-1.494
					c18.134-1.91,36.269-3.813,54.401-5.719C738.497,833.308,738.485,833.607,738.461,834.209z"/>
				<path fill="#FFFFFF" d="M750.727,903.328c-23.522,2.476-47.047,4.943-70.569,7.418c-0.357-17.439-0.722-34.879-1.078-52.318
					c24.884-2.617,49.766-5.23,74.648-7.846C752.724,868.164,751.727,885.746,750.727,903.328z"/>
				<path fill="#8C8C8C" d="M747.775,863.192c-21.063,2.214-42.124,4.429-63.188,6.642c-0.009-0.599-0.015-0.896-0.022-1.496
					c21.095-2.215,42.19-4.434,63.285-6.649C747.821,862.287,747.807,862.588,747.775,863.192z"/>
				<path fill="#8C8C8C" d="M747.466,869.217c-20.928,2.201-41.856,4.398-62.785,6.599c-0.009-0.599-0.015-0.896-0.023-1.493
					c20.962-2.206,41.925-4.407,62.887-6.612C747.513,868.311,747.496,868.614,747.466,869.217z"/>
				<path fill="#8C8C8C" d="M730.52,876.992c-15.248,1.602-30.5,3.205-45.75,4.809c-0.01-0.598-0.014-0.897-0.022-1.496
					c15.274-1.605,30.551-3.211,45.824-4.814C730.552,876.09,730.54,876.389,730.52,876.992z"/>
				<path fill="#8C8C8C" d="M746.847,881.266c-20.662,2.174-41.325,4.344-61.986,6.517c-0.012-0.6-0.015-0.897-0.023-1.496
					c20.696-2.176,41.392-4.351,62.088-6.525C746.894,880.363,746.878,880.664,746.847,881.266z"/>
				<path fill="#8C8C8C" d="M746.538,887.29c-20.529,2.16-41.06,4.315-61.59,6.474c-0.009-0.599-0.016-0.896-0.023-1.495
					c20.563-2.161,41.125-4.32,61.689-6.482C746.583,886.387,746.568,886.688,746.538,887.29z"/>
				<path fill="#8C8C8C" d="M701.356,898.031c-6.527,0.686-9.791,1.031-16.318,1.715c-0.009-0.598-0.013-0.896-0.022-1.496
					c6.539-0.687,9.809-1.03,16.346-1.717C701.358,897.132,701.358,897.434,701.356,898.031z"/>
			</g>
			
				<animateTransform  fill="remove" type="scale" values="0,0;0,0;1,1;1,1;0,0;0,0" dur="20s" calcMode="linear" restart="always" additive="sum" keyTimes="0;0.487;0.5;0.9;0.913;1" repeatCount="indefinite" attributeName="transform" accumulate="none">
				</animateTransform>
		</g>
	</g>
	<g transform="translate(919,917)">
		<g>
			<g transform="translate(-919,-917)">
				<path d="M451.957,945.965c-1.798,0.19-3.499-0.891-4.05-2.568L410.06,820.497c-0.482-1.479,0.071-2.637,0.445-3.198
					c0.376-0.559,1.239-1.521,2.823-1.688l356.818-37.504c1.58-0.167,2.627,0.598,3.109,1.065c0.481,0.469,1.268,1.489,1.1,3.032
					l-11.469,128.083c-0.188,1.756-1.632,3.167-3.428,3.354L451.957,945.965z"/>
				
					<animate  fill="remove" values="#AAD2D2; #AAD2D2; #B2BFBF; #B2BFBF; #AAD2D2; #AAD2D2" dur="20s" calcMode="linear" attributeType="XML" restart="always" additive="replace" keyTimes="0;0.295;0.3;0.5;0.505;1" repeatCount="indefinite" attributeName="fill" accumulate="none">
					</animate>
			</g>
			
				<animateTransform  fill="remove" type="scale" values="0,0;0,0;1,1;1,1;0,0;0,0" dur="20s" calcMode="linear" restart="always" additive="sum" keyTimes="0;0.287;0.3;0.5;0.513;1" repeatCount="indefinite" attributeName="transform" accumulate="none">
				</animateTransform>
		</g>
	</g>
</g>
</svg>
