<?xml version="1.0" encoding="utf-8"?>
<!-- Generator: Adobe Illustrator 12.0.0, SVG Export Plug-In . SVG Version: 6.00 Build 51448)  -->
<!DOCTYPE svg PUBLIC "-//W3C//DTD SVG 1.1//EN" "http://www.w3.org/Graphics/SVG/1.1/DTD/svg11.dtd" [
	<!ENTITY ns_svg "http://www.w3.org/2000/svg">
	<!ENTITY ns_xlink "http://www.w3.org/1999/xlink">
]>
<svg  version="1.1" id="レイヤー_1" xmlns="&ns_svg;" xmlns:xlink="&ns_xlink;" width="16" height="20" viewBox="0 0 16 20"
	 overflow="visible" enable-background="new 0 0 16 20" xml:space="preserve">
<path fill="#B2B2B2" d="M14.341,0.198c-0.978-0.392-2.106-0.192-2.878,0.51c0,0-2.519,2.297-3.463,3.158
	C7.056,3.005,4.537,0.708,4.537,0.708c-0.771-0.702-1.9-0.902-2.879-0.51C0.651,0.599,0,1.54,0,2.591v9.635
	c0,0.925,0.4,1.82,1.1,2.456l5.053,4.611c1.037,0.943,2.66,0.943,3.695,0l5.054-4.611C15.6,14.046,16,13.15,16,12.226V2.591
	C16,1.54,15.349,0.599,14.341,0.198z M7.498,17.813l-5.052-4.609C2.162,12.945,2,12.59,2,12.226V2.591
	c0-0.229,0.157-0.439,0.4-0.537C2.668,1.948,2.986,2,3.189,2.185L8,6.573V18C7.817,18,7.635,17.937,7.498,17.813z"/>
</svg>
