<?xml version="1.0" encoding="utf-8"?>
<!-- Generator: Adobe Illustrator 12.0.0, SVG Export Plug-In . SVG Version: 6.00 Build 51448)  -->
<!DOCTYPE svg PUBLIC "-//W3C//DTD SVG 1.1//EN" "http://www.w3.org/Graphics/SVG/1.1/DTD/svg11.dtd" [
	<!ENTITY ns_svg "http://www.w3.org/2000/svg">
	<!ENTITY ns_xlink "http://www.w3.org/1999/xlink">
]>
<svg  version="1.1" id="レイヤー_1" xmlns="&ns_svg;" xmlns:xlink="&ns_xlink;" width="18" height="20" viewBox="0 0 18 20"
	 overflow="visible" enable-background="new 0 0 18 20" xml:space="preserve">
<path fill="#B2B2B2" d="M6.375,17.941C6.594,19.135,7.698,20,9,20c1.301,0,2.406-0.865,2.625-2.059l0.014-0.072H6.361L6.375,17.941z
	 M17.98,14.53c-0.216-0.2-0.436-0.37-0.647-0.533c-0.892-0.689-1.663-1.285-1.663-3.757V8.279c0-2.883-2.18-5.413-5.193-6.047
	c0.121-0.221,0.182-0.452,0.182-0.689C10.658,0.692,9.914,0,9,0C8.085,0,7.341,0.692,7.341,1.543c0,0.237,0.061,0.469,0.183,0.689
	C4.508,2.866,2.33,5.396,2.33,8.279v1.961c0,2.472-0.771,3.067-1.664,3.757C0.454,14.16,0.234,14.33,0.02,14.53L0,14.549v1.945h18
	v-1.945L17.98,14.53z"/>
</svg>
