<?xml version="1.0" encoding="utf-8"?>
<!-- Generator: Adobe Illustrator 12.0.0, SVG Export Plug-In . SVG Version: 6.00 Build 51448)  -->
<!DOCTYPE svg PUBLIC "-//W3C//DTD SVG 1.1//EN" "http://www.w3.org/Graphics/SVG/1.1/DTD/svg11.dtd" [
	<!ENTITY ns_svg "http://www.w3.org/2000/svg">
	<!ENTITY ns_xlink "http://www.w3.org/1999/xlink">
]>
<svg  version="1.1" id="bottle" xmlns="&ns_svg;" xmlns:xlink="&ns_xlink;" width="16" height="16" viewBox="0 0 16 16"
	 overflow="visible" enable-background="new 0 0 16 16" xml:space="preserve">
<path fill="#B2B2B2" d="M10.053,14.612l1.25,1.252c0.223,0.221,0.518,0.137,0.813-0.004c0,0,0.646-0.445,1.908-1.699
	c1.215-1.219,1.844-2.051,1.844-2.051c0.134-0.367,0.219-0.574-0.007-0.799l-1.251-1.25C13.164,11.989,11.693,13.225,10.053,14.612z
	 M0,1.278c1.938,1.935,3.549,3.548,4.132,5.774c0.313,1.201,0.579,2.222,1.746,3.39l0.237,0.234c1.67-1.375,3.177-2.886,4.549-4.558
	l-0.234-0.234C9.271,4.724,8.254,4.443,7.054,4.13C4.829,3.55,3.215,1.935,1.281,0L0.812,0.438L0.797,0.426L0.617,0.619L0.429,0.797
	l0.009,0.014L0,1.278z M9.145,9.122c-0.7,0.698-1.513,1.527-2.412,2.229l2.623,2.623c1.025-0.801,1.736-1.516,2.434-2.213
	c0.697-0.693,1.465-1.396,2.175-2.373l-2.63-2.629C10.585,7.697,9.84,8.427,9.145,9.122z"/>
</svg>
