<?xml version="1.0" encoding="utf-8"?>
<!-- Generator: Adobe Illustrator 12.0.0, SVG Export Plug-In . SVG Version: 6.00 Build 51448)  -->
<!DOCTYPE svg PUBLIC "-//W3C//DTD SVG 1.1//EN" "http://www.w3.org/Graphics/SVG/1.1/DTD/svg11.dtd" [
	<!ENTITY ns_svg "http://www.w3.org/2000/svg">
	<!ENTITY ns_xlink "http://www.w3.org/1999/xlink">
]>
<svg  version="1.1" id="brewery30" xmlns="&ns_svg;" xmlns:xlink="&ns_xlink;" width="38" height="30" viewBox="0 0 38 30"
	 overflow="visible" enable-background="new 0 0 38 30" xml:space="preserve">
<path fill="#b2b2b2" d="M20.427,22l2.854,2.828L26.135,22l-2.854-2.828L20.427,22z M11.865,22l2.854,2.828L17.573,22l-2.854-2.828
	L11.865,22z M25.646,14h-4.729l2.365,2.344L25.646,14z M17.083,14h-4.729l2.365,2.343L17.083,14z M19,20.586l2.854-2.828L19,14.929
	l-2.854,2.829L19,20.586z M18.997,0L0,14.346l3.166,2.392l1.588-1.199V30h28.489V15.538l1.589,1.199L38,14.346L18.997,0z
	 M7.804,26.67v-0.208l0.211,0.208H7.804z M30.196,26.67h-0.211l0.211-0.208V26.67z M30.196,14h-0.718l0.718,0.711v2.828l-2.634-2.61
	l-2.855,2.829l2.854,2.828l2.635-2.611v2.828L28.988,22l1.208,1.197v2.829l-2.635-2.612l-2.854,2.828l0.432,0.428h-3.717
	l0.432-0.428L19,23.414l-2.854,2.828l0.431,0.428h-3.715l0.43-0.427l-2.854-2.829l-2.634,2.612v-2.829L9.011,22l-1.207-1.196v-2.829
	l2.634,2.611l2.854-2.828l-2.854-2.829l-2.634,2.61v-2.828L8.521,14H7.804v-0.765l11.193-8.452l11.199,8.454V14z"/>
</svg>
