<?xml version="1.0" encoding="utf-8"?>
<!-- Generator: Adobe Illustrator 12.0.0, SVG Export Plug-In . SVG Version: 6.00 Build 51448)  -->
<!DOCTYPE svg PUBLIC "-//W3C//DTD SVG 1.1//EN" "http://www.w3.org/Graphics/SVG/1.1/DTD/svg11.dtd" [
	<!ENTITY ns_svg "http://www.w3.org/2000/svg">
	<!ENTITY ns_xlink "http://www.w3.org/1999/xlink">
]>
<svg  version="1.1" id="brewery20" xmlns="&ns_svg;" xmlns:xlink="&ns_xlink;" width="24" height="20" viewBox="0 0 24 20"
	 overflow="visible" enable-background="new 0 0 24 20" xml:space="preserve">
<path fill="#b2b2b2" d="M12.903,14.666l1.797,1.887l1.806-1.887L14.7,12.783L12.903,14.666z M7.494,14.666l1.804,1.887l1.799-1.887
	l-1.799-1.883L7.494,14.666z M16.199,9.332h-2.99l1.491,1.563L16.199,9.332z M10.791,9.332H7.8l1.498,1.562L10.791,9.332z
	 M11.999,13.724l1.802-1.884l-1.802-1.888l-1.8,1.888L11.999,13.724z M11.999,0L0,9.563l2,1.597l1.005-0.8V20h17.987v-9.64
	l1.006,0.8L24,9.563L11.999,0z M4.931,17.781v-0.138l0.13,0.138H4.931z M19.068,17.781h-0.131l0.131-0.138V17.781z M19.068,9.332
	h-0.449l0.449,0.477v1.884l-1.663-1.74l-1.798,1.888l1.797,1.884l1.664-1.74v1.886l-0.76,0.797l0.76,0.797v1.889l-1.664-1.74
	l-1.797,1.883l0.27,0.287h-2.346l0.27-0.287l-1.802-1.883l-1.8,1.883l0.269,0.287H8.123l0.269-0.287l-1.797-1.883l-1.664,1.74
	v-1.889l0.759-0.797L4.931,13.87v-1.887l1.664,1.74l1.797-1.884L6.595,9.952l-1.664,1.74V9.809l0.45-0.477h-0.45v-0.51l7.068-5.631
	l7.069,5.633V9.332z"/>
</svg>
