<?xml version="1.0" encoding="utf-8"?>
<!-- Generator: Adobe Illustrator 12.0.0, SVG Export Plug-In . SVG Version: 6.00 Build 51448)  -->
<!DOCTYPE svg PUBLIC "-//W3C//DTD SVG 1.1//EN" "http://www.w3.org/Graphics/SVG/1.1/DTD/svg11.dtd" [
	<!ENTITY ns_svg "http://www.w3.org/2000/svg">
	<!ENTITY ns_xlink "http://www.w3.org/1999/xlink">
]>
<svg  version="1.1" id="camera20" xmlns="&ns_svg;" xmlns:xlink="&ns_xlink;" width="26" height="20" viewBox="0 0 26 20"
	 overflow="visible" enable-background="new 0 0 26 20" xml:space="preserve">
<path fill="#8C8C8C" d="M5.605,1.753H2.134v1.305h3.472V1.753z M13.847,4.889c-3.497,0-6.329,2.866-6.329,6.39
	c0,3.528,2.832,6.389,6.329,6.389c3.483,0,6.327-2.86,6.327-6.389C20.174,7.755,17.33,4.889,13.847,4.889z M13.847,16.388
	c-2.795,0-5.071-2.288-5.071-5.108c0-2.829,2.276-5.115,5.071-5.115c2.798,0,5.059,2.286,5.059,5.115
	C18.905,14.1,16.645,16.388,13.847,16.388z M24.722,3.452h-4.424c0,0-1.218-3.452-1.92-3.452H9.11C8.411,0,7.193,3.452,7.193,3.452
	H1.276C0.572,3.452,0,4.036,0,4.741v13.972C0,19.427,0.572,20,1.276,20h23.445C25.424,20,26,19.427,26,18.713V4.741
	C26,4.036,25.424,3.452,24.722,3.452z M5.457,9.719c-0.547,0-0.994-0.449-0.994-1.005c0-0.543,0.447-1.001,0.994-1.001
	c0.548,0,0.992,0.458,0.992,1.001C6.449,9.27,6.005,9.719,5.457,9.719z M13.847,18.32c-3.853,0-6.978-3.157-6.978-7.041
	c0-3.882,3.125-7.036,6.978-7.036c3.841,0,6.96,3.154,6.96,7.036C20.807,15.163,17.688,18.32,13.847,18.32z M16.077,10.476
	c-0.827,0-1.491-0.668-1.491-1.504c0-0.562,0.307-1.041,0.759-1.301c-0.464-0.191-0.966-0.3-1.498-0.3
	c-2.144,0-3.878,1.751-3.878,3.909c0,2.157,1.734,3.912,3.878,3.912c2.137,0,3.86-1.755,3.86-3.912c0-0.566-0.116-1.107-0.328-1.592
	C17.127,10.154,16.645,10.476,16.077,10.476z"/>
</svg>
