<?xml version="1.0" encoding="utf-8"?>
<!-- Generator: Adobe Illustrator 12.0.0, SVG Export Plug-In . SVG Version: 6.00 Build 51448)  -->
<!DOCTYPE svg PUBLIC "-//W3C//DTD SVG 1.1//EN" "http://www.w3.org/Graphics/SVG/1.1/DTD/svg11.dtd" [
	<!ENTITY ns_svg "http://www.w3.org/2000/svg">
	<!ENTITY ns_xlink "http://www.w3.org/1999/xlink">
]>
<svg  version="1.1" id="close" xmlns="&ns_svg;" xmlns:xlink="&ns_xlink;" width="20" height="20" viewBox="0 0 20 20"
	 overflow="visible" enable-background="new 0 0 20 20" xml:space="preserve">
<path fill="#8C8C8C" d="M11.414,10l8.293-8.293c0.391-0.391,0.391-1.023,0-1.414s-1.023-0.391-1.414,0L10,8.586L1.707,0.293
	c-0.391-0.391-1.023-0.391-1.414,0s-0.391,1.023,0,1.414L8.586,10l-8.293,8.293c-0.391,0.391-0.391,1.023,0,1.414
	s1.023,0.391,1.414,0L10,11.414l8.293,8.293c0.391,0.391,1.023,0.391,1.414,0s0.391-1.023,0-1.414L11.414,10z"/>
</svg>
