<?xml version="1.0" encoding="utf-8"?>
<!-- Generator: Adobe Illustrator 12.0.0, SVG Export Plug-In . SVG Version: 6.00 Build 51448)  -->
<!DOCTYPE svg PUBLIC "-//W3C//DTD SVG 1.1//EN" "http://www.w3.org/Graphics/SVG/1.1/DTD/svg11.dtd" [
	<!ENTITY ns_svg "http://www.w3.org/2000/svg">
	<!ENTITY ns_xlink "http://www.w3.org/1999/xlink">
]>
<svg  version="1.1" id="レイヤー_1" xmlns="&ns_svg;" xmlns:xlink="&ns_xlink;" width="34" height="30" viewBox="0 0 34 30"
	 overflow="visible" enable-background="new 0 0 34 30" xml:space="preserve">
<path fill="#3F3F3F" d="M33.809,15.776L19.572,0.302c-0.271-0.295-0.772-0.389-1.173-0.215L1.887,7.17l15.371,16.707l16.249-6.974
	c0.238-0.104,0.413-0.287,0.471-0.508C34.039,16.183,33.979,15.954,33.809,15.776z M33.236,18.353l-16.099,6.881l0.24,0.381
	l16.102-6.881L33.236,18.353z M16.926,27.527l16.613-7.1l-0.24-0.379l-16.623,7.099L16.926,27.527z M33.547,21.36l-17.756,7.583
	c-0.541,0.109-0.415-0.231-0.417-0.771c0.052-1.441,0.485-2.703,0.965-3.115L0.972,8.352c-0.688,0.668-1.28,2.761-0.794,5.029
	l15.187,16.497c0.106,0.12,0.306,0.159,0.471,0.083l17.824-7.688c0.15-0.073,0.268-0.199,0.288-0.343
	c0.021-0.146-0.039-0.292-0.167-0.39L33.547,21.36z"/>
</svg>
