<?xml version="1.0" encoding="utf-8"?>
<!-- Generator: Adobe Illustrator 12.0.0, SVG Export Plug-In . SVG Version: 6.00 Build 51448)  -->
<!DOCTYPE svg PUBLIC "-//W3C//DTD SVG 1.1//EN" "http://www.w3.org/Graphics/SVG/1.1/DTD/svg11.dtd" [
	<!ENTITY ns_svg "http://www.w3.org/2000/svg">
	<!ENTITY ns_xlink "http://www.w3.org/1999/xlink">
]>
<svg  version="1.1" id="enshinbunri" xmlns="&ns_svg;" xmlns:xlink="&ns_xlink;" width="40" height="40" viewBox="0 0 40 40"
	 overflow="visible" enable-background="new 0 0 40 40" xml:space="preserve">
<path fill="#E05314" d="M15.064,10.133l4.293,1.895l-0.054-2.188c1.464,0.273,2.81,0.933,3.913,1.874
	c1.643,1.402,2.74,3.424,2.922,5.741c0.095,1.19-0.063,2.333-0.427,3.393l2.122,0.73c0.461-1.341,0.661-2.799,0.545-4.299
	c-0.23-2.931-1.631-5.507-3.701-7.271c-1.514-1.294-3.389-2.167-5.434-2.448l-0.067-2.65l-4.978,3.147L12.86,8.899l-0.243,0.154
	l0.424,0.189L15.064,10.133z M11.11,17.33c-2.423,1.667-3.953,4.165-4.446,6.84c-0.363,1.959-0.184,4.015,0.595,5.933L5,31.482
	l5.213,2.739l1.401,0.734l0.253,0.136l-0.049-0.462l-0.238-2.198l-0.507-4.666l-1.868,1.142c-0.5-1.405-0.599-2.896-0.332-4.325
	c0.392-2.119,1.59-4.082,3.508-5.4c0.984-0.676,2.055-1.112,3.154-1.324l-0.429-2.206C13.715,15.924,12.352,16.479,11.11,17.33z
	 M34.703,22.967l-0.013-0.291l-0.375,0.273l-1.784,1.306l-3.787,2.775l1.922,1.043c-0.966,1.133-2.211,1.972-3.578,2.452
	c-2.035,0.722-4.333,0.664-6.435-0.337c-1.077-0.516-1.987-1.223-2.726-2.069l-1.692,1.47c0.933,1.075,2.095,1.978,3.452,2.625
	c2.652,1.266,5.583,1.338,8.149,0.428c1.876-0.661,3.569-1.85,4.835-3.478L35,30.431l-0.236-5.885L34.703,22.967z M36,0H4
	C1.8,0,0,1.8,0,4v32c0,2.2,1.8,4,4,4h32c2.2,0,4-1.8,4-4V4C40,1.8,38.2,0,36,0z M36,35c0,0.55-0.45,1-1,1H5c-0.55,0-1-0.45-1-1V5
	c0-0.55,0.45-1,1-1h30c0.55,0,1,0.45,1,1V35z"/>
</svg>
