<?xml version="1.0" encoding="utf-8"?>
<!-- Generator: Adobe Illustrator 12.0.0, SVG Export Plug-In  -->
<!DOCTYPE svg PUBLIC "-//W3C//DTD SVG 1.1//EN" "http://www.w3.org/Graphics/SVG/1.1/DTD/svg11.dtd" [
	<!ENTITY ns_flows "http://ns.adobe.com/Flows/1.0/">
	<!ENTITY ns_svg "http://www.w3.org/2000/svg">
	<!ENTITY ns_xlink "http://www.w3.org/1999/xlink">
]>
<svg  version="1.1" xmlns="&ns_svg;" xmlns:xlink="&ns_xlink;" xmlns:a="http://ns.adobe.com/AdobeSVGViewerExtensions/3.0/"
	 width="23" height="23" viewBox="-0.807 -0.95 23 23" enable-background="new -0.807 -0.95 23 23" xml:space="preserve">
<defs>
</defs>
<path fill="#B1B1B2" d="M11,0C4.927,0,0,4.929,0,11c0,6.072,4.927,11,11,11c6.075,0,11-4.928,11-11C22,4.929,17.075,0,11,0z M11,20
	c-4.971,0-9-4.035-9-9s4.029-9,9-9s9,4.035,9,9S15.971,20,11,20z M13,5H9v4H5v4h4v4h4v-4h4V9h-4V5z"/>
</svg>
