<?xml version="1.0" encoding="utf-8"?>
<!-- Generator: Adobe Illustrator 12.0.0, SVG Export Plug-In  -->
<!DOCTYPE svg PUBLIC "-//W3C//DTD SVG 1.1//EN" "http://www.w3.org/Graphics/SVG/1.1/DTD/svg11.dtd" [
	<!ENTITY ns_flows "http://ns.adobe.com/Flows/1.0/">
	<!ENTITY ns_svg "http://www.w3.org/2000/svg">
	<!ENTITY ns_xlink "http://www.w3.org/1999/xlink">
]>
<svg  version="1.1" xmlns="&ns_svg;" xmlns:xlink="&ns_xlink;" xmlns:a="http://ns.adobe.com/AdobeSVGViewerExtensions/3.0/"
	 width="15" height="15" viewBox="-0.41 -0.935 15 15" enable-background="new -0.41 -0.935 15 15" xml:space="preserve">
<defs>
</defs>
<path fill="#8D8C8C" d="M6.305,8.909V8.592c0-0.151-0.023-0.301-0.068-0.443c0,0-1.285-1.815-1.285-3.491
	c0-1.878,1.02-3.146,2.355-3.391C6.791,0.471,5.989,0,5.079,0C3.521,0,2.258,1.346,2.258,3.44c0,1.675,1.284,3.49,1.284,3.49
	c0.046,0.144,0.069,0.294,0.069,0.444v0.317c0,0.396-0.219,0.761-0.559,0.927L1.012,9.502c-0.475,0.23-0.813,0.692-0.906,1.237
	L0,12.174h2.783l0.016-0.217c0.093-0.546,0.432-1.007,0.906-1.237l2.041-0.884C6.087,9.671,6.305,9.306,6.305,8.909z M13.895,12.566
	c-0.094-0.544-0.432-1.007-0.906-1.238l-2.041-0.886c-0.341-0.166-0.559-0.524-0.559-0.922V9.2c0-0.151,0.023-0.301,0.069-0.443
	c0,0,1.284-1.816,1.284-3.489c0-2.096-1.264-3.441-2.82-3.441C7.361,1.826,6.1,3.172,6.1,5.268c0,1.673,1.284,3.489,1.284,3.489
	c0.045,0.143,0.07,0.292,0.07,0.443v0.32c0,0.397-0.219,0.756-0.56,0.922l-2.041,0.886c-0.475,0.231-0.813,0.694-0.906,1.238
	L3.842,14H14L13.895,12.566z"/>
</svg>
