<?xml version="1.0" encoding="utf-8"?>
<!-- Generator: Adobe Illustrator 12.0.0, SVG Export Plug-In  -->
<!DOCTYPE svg PUBLIC "-//W3C//DTD SVG 1.1//EN" "http://www.w3.org/Graphics/SVG/1.1/DTD/svg11.dtd" [
	<!ENTITY ns_flows "http://ns.adobe.com/Flows/1.0/">
	<!ENTITY ns_svg "http://www.w3.org/2000/svg">
	<!ENTITY ns_xlink "http://www.w3.org/1999/xlink">
]>
<svg  version="1.1" xmlns="&ns_svg;" xmlns:xlink="&ns_xlink;" xmlns:a="http://ns.adobe.com/AdobeSVGViewerExtensions/3.0/"
	 width="25" height="21" viewBox="-0.766 -0.763 25 21" enable-background="new -0.766 -0.763 25 21" xml:space="preserve">
<defs>
</defs>
<path fill="#B1B1B2" d="M20.356,4.184c-2.268-1.106-4.237,0.022-5.118,0.244c-0.004-2.532,0.312-3.902,0.327-3.922
	c0.04-0.233-0.13-0.459-0.368-0.497c-0.243-0.047-0.472,0.104-0.526,0.339c-0.013,0.083-0.332,1.428-0.332,3.949
	c-0.577-0.206-1.399-0.521-2.366-0.573c-0.406-1.032-0.972-1.976-1.749-2.663C9.279,0.231,8.114-0.123,6.849,0.038
	C5.119,0.256,4.483,2.022,4.021,3.311c-0.175,0.48-0.37,1.025-0.534,1.218C3.338,4.7,3.059,4.846,2.736,5.018
	C1.648,5.593,0,6.466,0,10.114C0,15.842,2.733,20,6.502,20c1.25,0,2.379-0.467,3.341-1.288c0.346,0.271,0.718,0.523,1.098,0.709
	c1.409,0.703,2.575,0.723,4.063,0.279c1.487,0.443,2.654,0.424,4.063-0.279c0.656-0.321,1.283-0.82,1.791-1.309
	c1.79-1.758,3.09-4.238,3.139-6.706C24.073,7.722,22.872,5.397,20.356,4.184z M6.502,18.001C3.935,18.001,2,14.609,2,10.114
	C2,7.67,2.736,7.28,3.673,6.784C4.112,6.553,4.61,6.29,5.005,5.825C5.409,5.355,5.647,4.69,5.9,3.987
	c0.305-0.846,0.685-1.9,1.201-1.965h0.001C7.798,1.933,8.388,2.11,8.9,2.561c0.396,0.348,0.737,0.874,1.031,1.515
	C9.837,4.112,9.745,4.139,9.649,4.184c-2.516,1.214-3.721,3.538-3.645,7.223c0.049,2.11,1.01,4.226,2.402,5.896
	C7.833,17.748,7.19,18.001,6.502,18.001z M11.724,15.525c-0.334,0.438-0.959,0.527-1.4,0.193c-2.078-1.578-2.85-4.67-1.756-7.038
	C8.8,8.181,9.396,7.96,9.896,8.193c0.504,0.229,0.721,0.824,0.488,1.324c-0.693,1.499-0.166,3.608,1.151,4.605
	C11.974,14.457,12.061,15.084,11.724,15.525z"/>
</svg>
