<?xml version="1.0" encoding="utf-8"?>
<!-- Generator: Adobe Illustrator 12.0.0, SVG Export Plug-In  -->
<!DOCTYPE svg PUBLIC "-//W3C//DTD SVG 1.1//EN" "http://www.w3.org/Graphics/SVG/1.1/DTD/svg11.dtd" [
	<!ENTITY ns_flows "http://ns.adobe.com/Flows/1.0/">
	<!ENTITY ns_svg "http://www.w3.org/2000/svg">
	<!ENTITY ns_xlink "http://www.w3.org/1999/xlink">
]>
<svg  version="1.1" xmlns="&ns_svg;" xmlns:xlink="&ns_xlink;" xmlns:a="http://ns.adobe.com/AdobeSVGViewerExtensions/3.0/"
	 width="37" height="31" viewBox="-0.222 -0.378 37 31" enable-background="new -0.222 -0.378 37 31" xml:space="preserve">
<defs>
</defs>
<path fill="#3F3F3F" d="M30.531,6.275c-3.4-1.659-6.355,0.034-7.676,0.366c-0.006-3.799,0.467-5.854,0.49-5.883
	c0.061-0.351-0.195-0.688-0.553-0.746c-0.364-0.07-0.707,0.157-0.789,0.509c-0.019,0.125-0.498,2.142-0.498,5.924
	c-0.865-0.309-2.099-0.781-3.549-0.86c-0.61-1.548-1.457-2.963-2.622-3.994c-1.417-1.244-3.164-1.775-5.063-1.534
	c-2.595,0.327-3.548,2.977-4.241,4.91C5.77,5.687,5.477,6.504,5.229,6.792C5.008,7.05,4.589,7.269,4.105,7.526
	C2.474,8.39,0,9.699,0,15.172c0,8.591,4.101,14.829,9.752,14.829c1.875,0,3.568-0.7,5.012-1.932
	c0.519,0.406,1.076,0.784,1.645,1.063c2.113,1.055,3.863,1.084,6.094,0.42c2.23,0.664,3.98,0.635,6.094-0.42
	c0.984-0.481,1.924-1.23,2.687-1.963c2.685-2.637,4.634-6.357,4.708-10.059C36.107,11.583,34.305,8.097,30.531,6.275z M9.752,27.002
	c-3.85,0-6.751-5.087-6.751-11.83c0-3.666,1.104-4.252,2.509-4.996c0.658-0.347,1.404-0.741,1.996-1.438
	C8.113,8.033,8.47,7.036,8.85,5.981c0.457-1.269,1.027-2.851,1.802-2.948h0.001c1.043-0.134,1.929,0.132,2.697,0.809
	c0.594,0.521,1.106,1.311,1.547,2.271c-0.143,0.056-0.279,0.096-0.424,0.163c-3.773,1.821-5.581,5.308-5.466,10.835
	c0.073,3.165,1.514,6.337,3.603,8.844C11.748,26.623,10.784,27.002,9.752,27.002z M17.583,23.289c-0.5,0.656-1.438,0.79-2.099,0.29
	c-3.117-2.368-4.274-7.005-2.634-10.558c0.349-0.75,1.241-1.081,1.991-0.731c0.756,0.344,1.082,1.237,0.732,1.987
	c-1.039,2.248-0.249,5.412,1.726,6.908C17.958,21.686,18.089,22.627,17.583,23.289z"/>
</svg>
