<?xml version="1.0" encoding="utf-8"?>
<!-- Generator: Adobe Illustrator 12.0.0, SVG Export Plug-In . SVG Version: 6.00 Build 51448)  -->
<!DOCTYPE svg PUBLIC "-//W3C//DTD SVG 1.1//EN" "http://www.w3.org/Graphics/SVG/1.1/DTD/svg11.dtd" [
	<!ENTITY ns_svg "http://www.w3.org/2000/svg">
	<!ENTITY ns_xlink "http://www.w3.org/1999/xlink">
]>
<svg  version="1.1" id="レイヤー_1" xmlns="&ns_svg;" xmlns:xlink="&ns_xlink;" width="240.27" height="48.524"
	 viewBox="0 0 240.27 48.524" overflow="visible" enable-background="new 0 0 240.27 48.524" xml:space="preserve">
<g>
	<text transform="matrix(1.0003 0 0 1 0 44.0361)" fill="#3F3F3F" font-family="'KozGoPro-Medium-90ms-RKSJ-H'" font-size="12">Copyright Sakenomo Inc. All Rigfts Reserved</text>
</g>
<g>
	<g>
		<path fill="#3F3F3F" d="M79.515,10.028c0-0.902-0.233-1.528-0.698-1.88c-0.465-0.351-1.148-0.526-2.051-0.526
			c-1.54,0-2.968,0.376-4.285,1.128c-1.318,0.752-1.977,1.579-1.977,2.481c0,0.574,0.248,1.064,0.746,1.471
			c0.497,0.405,1.779,0.908,3.848,1.51c2.17,0.629,3.781,1.319,4.834,2.071s1.579,1.656,1.579,2.714c0,1.759-1.34,3.37-4.02,4.833
			s-5.465,2.194-8.354,2.194c-0.938,0-1.69-0.196-2.255-0.588c-0.565-0.393-0.849-0.875-0.849-1.449c0-0.455,0.127-0.88,0.384-1.271
			c0.255-0.392,0.56-0.588,0.915-0.588c0.219,0,0.42,0.037,0.602,0.109c0.957,0.41,1.851,0.615,2.68,0.615
			c1.422,0,3.021-0.398,4.793-1.196c1.771-0.797,2.659-1.579,2.659-2.345c0-0.318-0.221-0.626-0.663-0.922
			c-0.443-0.297-1.343-0.669-2.7-1.115c-1.979-0.647-3.466-1.18-4.464-1.6c-0.998-0.419-1.756-0.968-2.27-1.647
			c-0.515-0.679-0.773-1.497-0.773-2.454c0-1.704,0.994-3.29,2.98-4.758c1.987-1.467,4.32-2.201,7-2.201
			c1.541,0,2.756,0.306,3.645,0.916c0.889,0.611,1.332,1.308,1.332,2.092C82.153,9.227,81.274,10.028,79.515,10.028z"/>
		<path fill="#3F3F3F" d="M93.774,20.173c-2.396,3.163-4.712,4.744-6.945,4.744c-0.82,0-1.526-0.323-2.118-0.971
			c-0.593-0.647-0.89-1.472-0.89-2.475c0-2.415,1.076-4.987,3.227-7.718c2.151-2.729,4.32-4.095,6.508-4.095
			c1.112,0,1.842,0.561,2.188,1.682c1.049,0,1.573,0.401,1.573,1.203c0,0.383-0.101,1.075-0.301,2.078
			c-0.365,1.878-0.547,3.377-0.547,4.498c0,1.167,0.08,1.987,0.239,2.461c0.158,0.475,0.275,0.784,0.348,0.93
			c0.073,0.146,0.292,0.301,0.656,0.465c0.365,0.174,0.547,0.415,0.547,0.725c0,0.465-0.233,0.853-0.703,1.162
			c-0.471,0.31-0.96,0.465-1.47,0.465C94.372,25.327,93.601,23.609,93.774,20.173z M92.954,12.585c-0.92,0-2.117,1.019-3.588,3.056
			c-1.472,2.037-2.209,3.767-2.209,5.188c0,0.747,0.155,1.121,0.465,1.121c1.076,0,2.4-0.954,3.973-2.864
			c1.572-1.909,2.358-3.58,2.358-5.011c0-0.456-0.103-0.817-0.308-1.087C93.44,12.72,93.209,12.585,92.954,12.585z"/>
		<path fill="#3F3F3F" d="M113.476,13.337h0.013l-0.027,0.027c-0.528,0.292-0.957,0.547-1.285,0.766
			c-0.61,0.41-1.226,0.853-1.845,1.326c-0.711,0.547-1.245,1.007-1.601,1.381c-0.301,0.31-0.45,0.538-0.45,0.684
			c0,0.164,0.532,0.805,1.599,1.921c1.066,1.117,1.913,1.916,2.537,2.399c0.623,0.483,1.241,0.725,1.853,0.725l0.602-0.014
			c0.219,0,0.395,0.066,0.526,0.198c0.131,0.133,0.197,0.33,0.197,0.595c0,0.374-0.231,0.807-0.696,1.299s-1.263,0.738-2.394,0.738
			c-0.665,0-1.34-0.245-2.023-0.731c-0.684-0.487-1.731-1.589-3.145-3.302c-1.13-1.376-1.745-2.064-1.845-2.064
			c-0.064,0-0.256,0.164-0.574,0.492c-0.319,0.328-0.529,0.578-0.629,0.752v0.014c-0.155,0.757-0.233,1.745-0.233,2.967
			c0,0.61-0.179,1.107-0.539,1.49c-0.361,0.383-0.801,0.574-1.32,0.574c-0.537,0-0.957-0.153-1.258-0.458
			c-0.301-0.307-0.45-0.613-0.45-0.923c0-0.328,0.113-1.049,0.341-2.16c0.438-2.16,0.808-5.026,1.108-8.6
			c0.291-2.853,0.547-5.079,0.766-6.679s0.414-2.647,0.587-3.145c0.174-0.496,0.442-0.893,0.808-1.189
			c0.364-0.296,0.756-0.444,1.176-0.444c0.4,0,0.723,0.167,0.964,0.499c0.24,0.333,0.361,0.736,0.361,1.21
			c0,0.593-0.383,2.907-1.148,6.945l-0.328,1.791h0.015c-0.401,2.635-0.606,4.156-0.616,4.566l4.198-3.801
			c2.142-2.068,3.714-3.104,4.716-3.104c0.967,0,1.449,0.388,1.449,1.162C114.883,12.212,114.415,12.908,113.476,13.337z"/>
		<path fill="#3F3F3F" d="M129.527,20.05c0,0.948-0.798,2.081-2.394,3.398c-1.595,1.315-3.395,1.975-5.399,1.975
			c-1.541,0-2.753-0.486-3.637-1.456c-0.885-0.971-1.327-2.321-1.327-4.054c0-2.552,0.902-4.944,2.707-7.178s3.733-3.35,5.784-3.35
			c1.021,0,1.841,0.323,2.461,0.971c0.619,0.647,0.93,1.418,0.93,2.311c0,1.586-0.762,3.098-2.284,4.532
			c-1.521,1.437-3.473,2.427-5.852,2.974c-0.273,0.063-0.41,0.228-0.41,0.492c0,0.438,0.193,0.854,0.582,1.251
			c0.388,0.396,0.904,0.595,1.551,0.595c1.832,0,3.651-0.943,5.456-2.83c0.346-0.364,0.684-0.547,1.012-0.547
			C129.253,19.134,129.527,19.439,129.527,20.05z M120.352,17.63c1.44-0.292,2.709-0.906,3.809-1.846
			c1.099-0.938,1.647-1.791,1.647-2.557c0-0.301-0.084-0.554-0.253-0.759c-0.17-0.204-0.386-0.308-0.649-0.308
			c-0.793,0-1.673,0.583-2.64,1.75C121.3,15.078,120.663,16.317,120.352,17.63z"/>
		<path fill="#3F3F3F" d="M143.282,22.729c-0.438-0.82-0.758-2.352-0.957-4.594c-0.202-2.333-0.648-3.5-1.34-3.5
			c-0.656,0-1.792,1.215-3.405,3.644c-1.613,2.43-2.607,4.223-2.98,5.38c-0.082,0.347-0.234,0.634-0.458,0.861
			c-0.225,0.228-0.444,0.342-0.663,0.342c-1.386,0-2.078-0.634-2.078-1.9c0-0.429,0.137-1.403,0.41-2.926
			c0.355-1.969,0.533-4.375,0.533-7.219c0-0.429,0.187-0.886,0.561-1.374c0.373-0.488,0.77-0.731,1.189-0.731
			c0.528,0,0.934,0.133,1.217,0.396c0.282,0.265,0.424,0.967,0.424,2.105c0,0.866-0.26,2.543-0.779,5.031
			c1.978-4.63,4.184-6.945,6.617-6.945c2.114,0,3.354,1.663,3.719,4.99c0.364,3.391,0.783,5.086,1.258,5.086
			c0.209,0,0.452-0.046,0.726-0.137c0.328-0.109,0.587-0.164,0.778-0.164c0.438,0,0.656,0.255,0.656,0.766
			c0,0.465-0.301,0.96-0.902,1.483c-0.602,0.524-1.358,0.786-2.27,0.786c-1.058,0-1.814-0.46-2.27-1.381H143.282z"/>
		<path fill="#3F3F3F" d="M163.227,17.794c-0.611,2.133-1.77,3.931-3.479,5.393c-1.709,1.464-3.416,2.195-5.119,2.195
			c-1.352,0-2.461-0.495-3.336-1.483s-1.313-2.203-1.313-3.644c0-2.352,0.801-4.667,2.406-6.945
			c1.602-2.278,3.549-3.418,5.836-3.418c1.559,0,2.82,0.577,3.789,1.729c0.965,1.153,1.449,2.527,1.449,4.122
			c0,0.692-0.08,1.372-0.234,2.037V17.794z M156.118,13.474c-0.639,0.565-1.262,1.468-1.871,2.707
			c-0.613,1.239-0.918,2.484-0.918,3.732c0,0.757,0.139,1.381,0.418,1.873c0.277,0.492,0.645,0.738,1.102,0.738
			c1.129,0,2.305-0.67,3.527-2.01c1.219-1.34,1.832-2.844,1.832-4.512c0-0.938-0.199-1.711-0.596-2.317
			c-0.396-0.605-0.951-0.909-1.662-0.909c-0.674,0-1.281,0.232-1.816,0.697H156.118z"/>
		<path fill="#3F3F3F" d="M169.696,23.946c-0.109,0.938-0.635,1.408-1.574,1.408c-1.193,0-1.789-0.861-1.789-2.584
			c0-2.789,0.148-5.172,0.449-7.15c0.236-1.54,0.355-3.053,0.355-4.539c0-0.355,0.113-0.653,0.344-0.896
			c0.227-0.241,0.547-0.362,0.957-0.362c1.367,0,2.051,0.83,2.051,2.488c0,0.538-0.242,1.909-0.727,4.115
			c-0.291,1.313-0.438,2.266-0.438,2.857c2.607-5.724,4.959-8.586,7.053-8.586c0.848,0,1.529,0.338,2.047,1.012
			c0.514,0.675,0.779,2.17,0.797,4.484c0.01,2.115,0.119,3.172,0.328,3.172c0.164,0,0.734-1.025,1.711-3.076
			c1.084-2.27,2.01-3.769,2.781-4.498c0.771-0.729,1.578-1.094,2.426-1.094c1.012,0,1.746,0.436,2.203,1.306
			c0.455,0.871,0.771,2.341,0.957,4.409c0.137,1.641,0.32,2.881,0.555,3.719c0.23,0.839,0.627,1.395,1.195,1.668
			c0.455,0.219,0.684,0.547,0.684,0.984c0,0.393-0.262,0.786-0.781,1.183s-1.045,0.595-1.586,0.595c-0.93,0-1.654-0.458-2.18-1.375
			c-0.525-0.915-0.877-2.754-1.059-5.516c-0.102-1.33-0.209-2.212-0.32-2.646c-0.115-0.433-0.287-0.649-0.516-0.649
			c-0.197,0-0.492,0.326-0.875,0.978c-0.383,0.652-1.045,1.948-1.98,3.89c-0.83,1.75-1.545,2.972-2.141,3.664
			s-1.238,1.039-1.922,1.039c-0.525,0-1.059-0.228-1.59-0.684c-0.535-0.456-0.822-2.109-0.871-4.963
			c-0.045-2.543-0.209-3.814-0.492-3.814c-0.381,0-1.301,1.13-2.76,3.391C171.532,20.137,170.434,22.16,169.696,23.946z"/>
		<path fill="#3F3F3F" d="M207.002,17.794c-0.607,2.133-1.77,3.931-3.477,5.393c-1.711,1.464-3.42,2.195-5.121,2.195
			c-1.35,0-2.461-0.495-3.336-1.483s-1.313-2.203-1.313-3.644c0-2.352,0.801-4.667,2.406-6.945c1.604-2.278,3.549-3.418,5.836-3.418
			c1.559,0,2.822,0.577,3.789,1.729c0.965,1.153,1.449,2.527,1.449,4.122c0,0.692-0.076,1.372-0.234,2.037V17.794z M199.893,13.474
			c-0.635,0.565-1.264,1.468-1.871,2.707c-0.611,1.239-0.918,2.484-0.918,3.732c0,0.757,0.139,1.381,0.418,1.873
			s0.645,0.738,1.102,0.738c1.129,0,2.303-0.67,3.527-2.01c1.221-1.34,1.832-2.844,1.832-4.512c0-0.938-0.199-1.711-0.596-2.317
			c-0.396-0.605-0.951-0.909-1.662-0.909c-0.674,0-1.279,0.232-1.816,0.697H199.893z"/>
	</g>
	<g>
		<path fill="#C01920" d="M55.918,10.122c0,0-0.635,0.209-1.667,0.548c0.018-0.375,0.009-0.737-0.03-1.133
			c-0.052-0.509-0.155-1-0.308-1.468c-0.399-1.231-1.135-2.29-2.119-3.017c-1.136-0.84-2.508-1.151-3.864-0.877l-0.068,0.018
			c-2.057,0.597-2.976,1.811-3.49,3.117c-0.894-0.678-1.987-0.904-3.12-0.607c-2.396,0.63-3.801,3.664-3.13,6.764
			c0.027,0.127,0.563,1.87,0.435,1.978c0.027,0.384-0.964,0.694-0.964,0.694c-2.085,0.685-2.276,0.127-2.432-0.32
			c-0.511-1.479-0.433-4.831,1.333-7.658c1.607-2.57,4.212-4.694,6.8-5.544c3.372-1.107,6.105-0.974,8.854,0.433
			c1.713,0.876,4.497,2.88,5.321,4.59c0.226,0.464,0.783,0.66,1.248,0.436c0.463-0.224,0.659-0.782,0.434-1.247
			c-1.161-2.409-4.531-4.612-6.152-5.441c-3.23-1.651-6.403-1.819-10.286-0.544c-2.984,0.979-5.975,3.404-7.803,6.329
			c-2.208,3.535-2.101,7.554-1.516,9.255c0.459,1.33,1.403,1.744,2.115,1.858c0.714,0.114,1.536-0.002,2.665-0.371
			c0,0,0.769-0.271,1.056-0.495c1.021-0.79,1.117-1.804,0.966-2.572c-0.115-0.552-0.192-0.948-0.304-1.291
			c-0.09-0.27-0.127-0.44-0.128-0.443c-0.474-2.194,0.403-4.385,1.914-4.783c0.943-0.247,1.759,0.131,2.358,1.088l1.065,1.706
			l0.465-1.958c0.417-1.766,0.978-2.823,2.721-3.344c1.122-0.218,1.983,0.195,2.509,0.584c0.7,0.518,1.228,1.282,1.519,2.182
			c0.116,0.354,0.195,0.728,0.232,1.117c0.053,0.529,0.041,0.971-0.04,1.539c-3.322,1.09-9.166,2.713-10.738,3.813
			c-0.781,0.516-0.931,1.456-0.95,1.814c-0.103,0.59,0.286,1.491,1.123,2.245l0.073,0.067c4.091,3.696,4.923,4.749,4.956,4.792
			c0.352,0.469,0.814,0.496,1.129,0.362c0.255-0.106,0.497-0.355,0.537-0.754c0.133-0.296,2.279-5.072,2.279-5.072l0.005-0.014
			c0.06-0.142,0.185-0.394,0.267-0.526c0.201-0.336,1.984-3.313,2.383-4.288c0.148-0.355,0.255-0.641,0.341-0.935
			c1.565-0.515,2.589-0.851,2.589-0.851c2.076-0.682,2.387,0.201,2.486,0.49c0.334,0.949,0.375,4.637-1.508,7.715
			c-1.561,2.558-3.928,4.414-6.847,5.371c-2.999,0.985-5.882,0.859-8.563-0.378c-2.3-1.06-4.912-3.552-5.551-4.714
			c-0.249-0.453-0.818-0.618-1.271-0.369c-0.451,0.248-0.616,0.815-0.368,1.268c0.872,1.585,3.859,4.338,6.408,5.512
			c3.122,1.441,6.464,1.595,9.927,0.457c3.344-1.098,6.062-3.23,7.859-6.172c2.02-3.308,2.273-7.603,1.675-9.308
			C60.114,9.953,58.308,9.338,55.918,10.122z M49.746,17.104c-0.12,0.202-0.277,0.513-0.37,0.734
			c-0.036,0.082-1.311,2.918-1.891,4.209c-0.72-0.743-2.023-2.018-4.345-4.113l-0.072-0.066c-0.541-0.488-0.753-0.83-0.386-1.211
			c0.477-0.548,6.047-2.208,9.154-3.229C51.343,14.407,50.205,16.34,49.746,17.104z"/>
	</g>
</g>
</svg>
