<?xml version="1.0" encoding="utf-8"?>
<!-- Generator: Adobe Illustrator 12.0.0, SVG Export Plug-In  -->
<!DOCTYPE svg PUBLIC "-//W3C//DTD SVG 1.1//EN" "http://www.w3.org/Graphics/SVG/1.1/DTD/svg11.dtd" [
	<!ENTITY ns_flows "http://ns.adobe.com/Flows/1.0/">
	<!ENTITY ns_svg "http://www.w3.org/2000/svg">
	<!ENTITY ns_xlink "http://www.w3.org/1999/xlink">
]>
<svg  version="1.1" xmlns="&ns_svg;" xmlns:xlink="&ns_xlink;" xmlns:a="http://ns.adobe.com/AdobeSVGViewerExtensions/3.0/"
	 width="41" height="41" viewBox="-0.626 -0.482 41 41" enable-background="new -0.626 -0.482 41 41" xml:space="preserve">
<defs>
</defs>
<path fill="#9CBE4B" d="M36,0H4C1.8,0,0,1.8,0,4v32c0,2.2,1.8,4,4,4h32c2.2,0,4-1.8,4-4V4C40,1.8,38.2,0,36,0z M36,35
	c0,0.55-0.45,1-1,1H5c-0.55,0-1-0.45-1-1V5c0-0.55,0.45-1,1-1h30c0.55,0,1,0.45,1,1V35z M18.251,10.684
	c-2.308,0.322-4.534,1.299-6.38,2.922l5.27,2.336L18.251,10.684z M17.673,22.877l6.896,4.988l-1.479-5.037l-5.156-1.174
	L17.673,22.877z M10.435,15.109c-2.255,2.77-3.089,6.301-2.562,9.639L12.45,16L10.435,15.109z M25.449,15.238l-6.333,0.789
	l-0.155,0.717l0.021,0.004l-0.05,0.096l-0.594,2.896l7.192,1.641L25.449,15.238z M25.406,11.871
	c-1.624-0.82-3.381-1.246-5.137-1.297l-0.723,3.433l5.875-0.735L25.406,11.871z M8.652,27.479c0.613,1.482,1.541,2.876,2.759,4.061
	c0.661,0.635,1.366,1.178,2.099,1.628l0.95-4.524l-4.42-3.824L8.652,27.479z M27.15,29.734l1.799,1.295
	c1.631-1.793,2.639-3.936,3.016-6.179l-6.688-1.519L27.15,29.734z M27.376,13.102l0.118,8.729l4.65,1.062
	c0.027-3.222-1.211-6.45-3.693-8.862C28.102,13.689,27.75,13.388,27.376,13.102z M14.243,16.791l-3.258,6.252l3.933,3.41
	l1.813-8.564L14.243,16.791z M22.477,31.063l2.547,2.82c0.867-0.393,1.682-0.892,2.461-1.503l-3.895-2.815L22.477,31.063z M22.973,5
	l-0.754,1.506c0.609,0.678,1.896,1.545,3.354,2.344l-1.045,2.086l2.078,1.03l1.035-2.087c1.516,0.678,2.98,1.184,3.887,1.258
	l0.754-1.51C30.043,9.455,24.457,6.68,22.973,5z M19.619,34.996c1.155,0.021,2.293-0.104,3.412-0.395l-1.718-1.92L19.619,34.996z
	 M17.23,24.969l-1.922,9.125c0.68,0.275,1.382,0.484,2.089,0.631l4.598-6.304L17.23,24.969z"/>
</svg>
