<?xml version="1.0" encoding="utf-8"?>
<!-- Generator: Adobe Illustrator 12.0.0, SVG Export Plug-In . SVG Version: 6.00 Build 51448)  -->
<!DOCTYPE svg PUBLIC "-//W3C//DTD SVG 1.1//EN" "http://www.w3.org/Graphics/SVG/1.1/DTD/svg11.dtd" [
	<!ENTITY ns_svg "http://www.w3.org/2000/svg">
	<!ENTITY ns_xlink "http://www.w3.org/1999/xlink">
]>
<svg  version="1.1" id="genshu" xmlns="&ns_svg;" xmlns:xlink="&ns_xlink;" width="40" height="40" viewBox="0 0 40 40"
	 overflow="visible" enable-background="new 0 0 40 40" xml:space="preserve">
<path fill="#22445B" d="M39.903,25.227l-0.109-0.191V4c0-2.2-1.79-4-3.979-4H3.979C1.791,0,0,1.8,0,4v32c0,2.199,1.791,4,3.979,4
	h31.835c2.189,0,3.979-1.801,3.979-4v-9.895C40.012,25.874,40.07,25.518,39.903,25.227z M35.814,19.84l-0.02-0.033l0.02-0.012V19.84
	z M35.814,18.198c-0.235-0.196-0.575-0.243-0.852-0.081l-0.094,0.064l-2.813-4.887l0.104-0.063c0.353-0.201,0.476-0.664,0.271-1.022
	l-0.186-0.328c-0.204-0.356-0.672-0.482-1.027-0.279l-0.094,0.067l-2.811-4.883l0.105-0.062c0.354-0.205,0.477-0.668,0.273-1.026
	l-0.186-0.325c-0.207-0.357-0.663-0.48-1.02-0.273l-14.906,8.64c-0.343,0.209-0.467,0.674-0.261,1.031l0.188,0.327
	c0.206,0.356,0.662,0.479,1.017,0.273l0.151-0.098l2.816,4.886l-0.167,0.093c-0.344,0.211-0.467,0.673-0.263,1.032l0.188,0.324
	c0.206,0.357,0.659,0.48,1.015,0.273l0.156-0.094l2.81,4.885l-0.164,0.092c-0.357,0.207-0.477,0.668-0.273,1.023l0.186,0.326
	c0.208,0.357,0.671,0.482,1.013,0.277l0.171-0.096l2.797,4.881l-0.154,0.095c-0.355,0.207-0.479,0.671-0.272,1.028l0.187,0.324
	c0.205,0.357,0.674,0.486,1.016,0.273l11.078-6.43V35c0,0.549-0.448,1-0.995,1H4.974c-0.547,0-0.995-0.451-0.995-1V5
	c0-0.55,0.448-1,0.995-1h29.845c0.547,0,0.995,0.45,0.995,1V18.198z M9.948,17.43l-2.063,2.99c-0.839,1.319-1.143,3.004,0,4.151
	c0.567,0.572,1.314,0.859,2.063,0.859s1.496-0.287,2.063-0.859c1.143-1.146,0.839-2.832,0-4.151L9.948,17.43z M9.948,26.571
	l-2.063,2.99c-0.839,1.318-1.143,3.004,0,4.15c0.567,0.572,1.314,0.859,2.063,0.859s1.496-0.287,2.063-0.859
	c1.143-1.146,0.839-2.832,0-4.15L9.948,26.571z"/>
</svg>
