<?xml version="1.0" encoding="utf-8"?>
<!-- Generator: Adobe Illustrator 12.0.0, SVG Export Plug-In  -->
<!DOCTYPE svg PUBLIC "-//W3C//DTD SVG 1.1//EN" "http://www.w3.org/Graphics/SVG/1.1/DTD/svg11.dtd" [
	<!ENTITY ns_flows "http://ns.adobe.com/Flows/1.0/">
	<!ENTITY ns_svg "http://www.w3.org/2000/svg">
	<!ENTITY ns_xlink "http://www.w3.org/1999/xlink">
]>
<svg  version="1.1" xmlns="&ns_svg;" xmlns:xlink="&ns_xlink;" xmlns:a="http://ns.adobe.com/AdobeSVGViewerExtensions/3.0/"
	 width="41" height="41" viewBox="-0.217 -0.904 41 41" enable-background="new -0.217 -0.904 41 41" xml:space="preserve">
<defs>
</defs>
<path fill="#B1B1B2" d="M36,0H4C1.799,0,0,1.8,0,4v32c0,2.2,1.799,4,4,4h32c2.199,0,4-1.8,4-4V4C40,1.8,38.199,0,36,0z M36,35
	c0,0.55-0.451,1-1,1H5c-0.551,0-1-0.45-1-1V5c0-0.55,0.449-1,1-1h30c0.549,0,1,0.45,1,1V35z M11.217,14.107l0.643-0.297l0.014-0.707
	c0.055-1.979,1.643-3.535,3.619-3.535c0.346,0,0.712,0.074,1.125,0.208l0.632,0.202l0.493-0.459
	c0.858-0.813,1.985-1.262,3.164-1.262c1.248,0,2.418,0.498,3.299,1.396l0.443,0.461l0.617-0.146
	c0.202-0.045,0.389-0.072,0.553-0.072c1.23,0,2.253,0.887,2.438,2.105l0.118,0.765l0.752,0.164c1.422,0.321,2.453,1.597,2.453,3.058
	c0,0.278-0.051,0.552-0.121,0.818h2.307c0.041-0.267,0.068-0.54,0.068-0.818c0-2.292-1.412-4.283-3.515-5.053
	c-0.657-2.078-2.642-3.5-4.942-3.275C24.129,6.588,22.566,6,20.906,6c-1.541,0-3.016,0.507-4.221,1.449
	c-0.405-0.088-0.807-0.137-1.193-0.137c-2.977,0-5.416,2.174-5.82,5.051c-1.666,0.972-2.855,2.591-3.297,4.443h2.354
	C9.164,15.629,10.037,14.646,11.217,14.107z M34.514,18.385H5.488C4.9,18.443,5.49,19.626,6.155,21.047
	c1.169,2.524,2.025,8.775,8.603,10.955L14.621,34h10.76l-0.148-1.998c6.576-2.18,7.436-8.431,8.609-10.955
	C34.512,19.626,35.102,18.443,34.514,18.385z"/>
</svg>
