<?xml version="1.0" encoding="utf-8"?>
<!-- Generator: Adobe Illustrator 12.0.0, SVG Export Plug-In  -->
<!DOCTYPE svg PUBLIC "-//W3C//DTD SVG 1.1//EN" "http://www.w3.org/Graphics/SVG/1.1/DTD/svg11.dtd" [
	<!ENTITY ns_flows "http://ns.adobe.com/Flows/1.0/">
	<!ENTITY ns_svg "http://www.w3.org/2000/svg">
	<!ENTITY ns_xlink "http://www.w3.org/1999/xlink">
]>
<svg  version="1.1" xmlns="&ns_svg;" xmlns:xlink="&ns_xlink;" xmlns:a="http://ns.adobe.com/AdobeSVGViewerExtensions/3.0/"
	 width="17" height="17" viewBox="-0.323 -0.064 17 17" enable-background="new -0.323 -0.064 17 17" xml:space="preserve">
<defs>
</defs>
<path fill="#8D8C8C" d="M15.467,7.244c0.096-0.203,0.184-0.409,0.256-0.628c0.164-0.47,0.264-0.92,0.264-1.333
	c0-0.039-0.009-0.072-0.009-0.107C15.98,5.088,16,5.007,16,4.917C16,2.201,14.078,0,11.709,0C10.116,0,8.741,1.007,8,2.481
	C7.258,1.007,5.885,0,4.291,0C1.922,0,0,2.201,0,4.917c0,0.125,0.022,0.245,0.031,0.365L0.016,5.283
	c0,0.474,0.117,0.988,0.316,1.523c0.003,0.014,0.006,0.028,0.014,0.042C1.846,10.808,7.984,16,7.984,16s5.264-4.535,7.252-8.289
	c0.078-0.129,0.139-0.276,0.207-0.413C15.449,7.279,15.46,7.261,15.467,7.244z"/>
</svg>
