<?xml version="1.0" encoding="utf-8"?>
<!-- Generator: Adobe Illustrator 12.0.0, SVG Export Plug-In  -->
<!DOCTYPE svg PUBLIC "-//W3C//DTD SVG 1.1//EN" "http://www.w3.org/Graphics/SVG/1.1/DTD/svg11.dtd" [
	<!ENTITY ns_flows "http://ns.adobe.com/Flows/1.0/">
	<!ENTITY ns_svg "http://www.w3.org/2000/svg">
	<!ENTITY ns_xlink "http://www.w3.org/1999/xlink">
]>
<svg  version="1.1" xmlns="&ns_svg;" xmlns:xlink="&ns_xlink;" xmlns:a="http://ns.adobe.com/AdobeSVGViewerExtensions/3.0/"
	 width="41" height="41" viewBox="-0.371 -0.929 41 41" enable-background="new -0.371 -0.929 41 41" xml:space="preserve">
<defs>
</defs>
<path fill="#C1C152" d="M18.897,18.905c-0.171,1.779-0.261,3.292-1.087,2.879c-1.004-0.499-1.085-1.894-1.085-1.894
	c-0.916-1.198,1.167-6.872-9.091-12.554c-1.839,0.399-4.338,10.465,6.504,13.851c4.636,2.641,3.17,10.812,3.17,12.606h1.756
	c0,0-1.458-10.894,3.285-12.407c2.752-0.884,9.754-1.877,11.654-14.651C30.379,4.228,18.602,6.223,18.897,18.905z M36,0H4
	C1.8,0,0,1.8,0,4v32c0,2.2,1.8,4,4,4h32c2.2,0,4-1.8,4-4V4C40,1.8,38.2,0,36,0z M36,35c0,0.55-0.45,1-1,1H5c-0.55,0-1-0.45-1-1V5
	c0-0.55,0.45-1,1-1h30c0.55,0,1,0.45,1,1V35z"/>
</svg>
