<?xml version="1.0" encoding="utf-8"?>
<!-- Generator: Adobe Illustrator 12.0.0, SVG Export Plug-In  -->
<!DOCTYPE svg PUBLIC "-//W3C//DTD SVG 1.1//EN" "http://www.w3.org/Graphics/SVG/1.1/DTD/svg11.dtd" [
	<!ENTITY ns_flows "http://ns.adobe.com/Flows/1.0/">
	<!ENTITY ns_svg "http://www.w3.org/2000/svg">
	<!ENTITY ns_xlink "http://www.w3.org/1999/xlink">
]>
<svg  version="1.1" xmlns="&ns_svg;" xmlns:xlink="&ns_xlink;" xmlns:a="http://ns.adobe.com/AdobeSVGViewerExtensions/3.0/"
	 width="41" height="41" viewBox="-0.221 -0.322 41 41" enable-background="new -0.221 -0.322 41 41" xml:space="preserve">
<defs>
</defs>
<path fill="#B41D23" d="M29.479,6.063l-0.941-0.038V6l-0.389,0.012L27.76,6v0.025l-0.938,0.038c0,4.021-0.006,7.366-1.714,10.282
	c-0.917,1.568-1.703,2.914-1.703,5.332v11.271c0,0.466,0.395,0.682,0.848,0.843c0,0,1.132,0.208,3.739,0.208
	c2.53,0,4.051-0.208,4.051-0.208c0.519-0.243,0.823-0.377,0.823-0.843V21.678c0-2.418-0.762-3.764-1.685-5.332
	C29.473,13.43,29.479,10.084,29.479,6.063z M36,0H4C1.8,0,0,1.8,0,4v32c0,2.2,1.8,4,4,4h32c2.2,0,4-1.8,4-4V4C40,1.8,38.2,0,36,0z
	 M36,35c0,0.55-0.45,1-1,1H5c-0.55,0-1-0.45-1-1V5c0-0.55,0.45-1,1-1h30c0.55,0,1,0.45,1,1V35z M14,17.125
	c0,0-2.058-2.479-2.581-3.125C10.33,16.695,7,22.741,7,26.894c0,3.771,2.406,7.01,6.853,7.106c-1.348-0.22-2.618-1.541-2.618-3.097
	c0-1.728,0.422-2.504,1.044-3.419c0.676-1.007,1.456-2.165,1.784-3.719c2.372,2.821,2.922,5.108,2.913,6.899
	c-0.002,1.552-0.922,3.022-2.257,3.313C19.033,33.674,21,30.43,21,26.936C21,23.412,17.61,16.66,16.581,14
	C15.981,14.684,14,17.125,14,17.125z"/>
</svg>
