<?xml version="1.0" encoding="utf-8"?>
<!-- Generator: Adobe Illustrator 12.0.0, SVG Export Plug-In . SVG Version: 6.00 Build 51448)  -->
<!DOCTYPE svg PUBLIC "-//W3C//DTD SVG 1.1//EN" "http://www.w3.org/Graphics/SVG/1.1/DTD/svg11.dtd" [
	<!ENTITY ns_svg "http://www.w3.org/2000/svg">
	<!ENTITY ns_xlink "http://www.w3.org/1999/xlink">
]>
<svg  version="1.1" id="hiyaoroshi" xmlns="&ns_svg;" xmlns:xlink="&ns_xlink;" width="40" height="40" viewBox="0 0 40 40"
	 overflow="visible" enable-background="new 0 0 40 40" xml:space="preserve">
<path fill="#BF0000" d="M36,0H4C1.8,0,0,1.8,0,4v32c0,2.2,1.8,4,4,4h32c2.2,0,4-1.8,4-4V4C40,1.8,38.2,0,36,0z M36,35
	c0,0.55-0.45,1-1,1H5c-0.55,0-1-0.45-1-1V5c0-0.55,0.45-1,1-1h30c0.55,0,1,0.45,1,1V35z M33.913,18.563
	c-0.229-0.059-1.417-0.872-1.882-1.071c-0.466-0.196-1.975-1.439-2.191-1.592c-0.217-0.151-1.62-1.427-1.691-1.498
	c-0.075-0.071-0.789-0.308-0.923-0.348c0.132-0.096,0.776-0.425,1.287-0.431c0.51-0.008,2.209-0.256,2.467-0.3
	c0.259-0.042,0.414-0.034,0.115-0.16c-0.298-0.129-0.948-0.41-1.086-0.417c-0.14-0.002-3.368-0.647-3.593-0.729
	c-0.41-0.154-0.521,0.051-1.527-0.194c-0.594,0.173-1.332,0.361-2.027,0.578c0.313-1.204,0.908-2.345,1.59-3.416
	c1.077-1.686,3.516-3.421,3.524-3.43L27.338,5c-0.044,0.034-2.256,1.912-3.374,3.68c-0.692,1.093-1.709,3.58-1.744,3.664
	c-0.554-0.879-1.549-1.608-3.008-2.245c-0.347-0.096-1.271-0.173-1.52-0.161c-0.251,0.011-2.552-0.551-2.552-0.551
	s-1.199-0.39-1.455-0.443c-0.259-0.056-0.398-0.118-0.18,0.104c0.216,0.225,1.332,0.921,1.456,0.976
	c0.127,0.055,1.725,1.051,1.95,1.263c0.229,0.212,0.659,0.406,0.717,0.483c-0.151-0.017-1.309,0.107-1.521,0.104
	c-0.212-0.002-1.473,0.404-1.737,0.449c-0.267,0.045-2.273,0.523-2.722,0.506c-0.512-0.018-1.961,0.212-2.195,0.172
	c-0.236-0.045-0.707-0.018-0.968,0.014c-0.262,0.028-0.414,0.012-0.124,0.154c0.289,0.143,1.598,0.447,1.736,0.459
	c0.139,0.01,3.712,0.927,3.933,1.022c0.496,0.215,2.354,0.269,2.571,0.264c-0.288,0.085-0.684,0.139-0.916,0.236
	c-0.347,0.145-2.486,1.517-3.334,2.21c-0.848,0.695-3.21,3.479-3.316,3.656c-0.104,0.178-1.253,1.072-1.301,1.166
	C7.688,22.274,5,24.289,5,24.289s2.051-0.724,2.205-0.887c0.152-0.163,2.517-1.336,2.706-1.417c0.352-0.147,1.914-0.353,2.141-0.414
	c0.146-0.04,4.354-1.653,4.56-1.697c0.203-0.043,1.426-0.95,1.418-1.305c-0.001-0.056,0.523-0.228,0.609-0.307
	c-0.056,0.152-0.819,0.996-0.819,0.996s-1.517,3.367-1.515,3.643c0,0.276-0.109,1.739-0.109,1.739s0.161,3.193,0.238,3.404
	c0.075,0.213,0.452,1.013,0.316,1.383c-0.133,0.369-0.08,2.579-0.202,2.938c-0.082,0.241-0.382,1.53-0.298,1.656
	c0.226,0.347-0.219,0.462-0.004,0.966c0.094,0.223,1.348-2.678,1.389-2.862c0.021-0.091,0.9-1.864,0.976-2.248
	s0.822-0.911,1.003-1.063c0.177-0.15,1.547-2.333,1.562-2.282c0.015,0.049,1.424-2.768,1.509-2.914
	c0.088-0.156-0.006-1.225-0.006-1.225l0.153-1.977c0,0-0.176-0.812-0.134-0.977c0.039,0.096,0.733,1.048,0.726,1.206
	c-0.006,0.155,0.864,1.537,1.046,1.645c0.181,0.111,1.294,1.516,1.515,1.645c0.673,0.39,2.412,2.015,2.65,2.298
	c0.127,0.154,1.628,2.223,1.679,2.435c0.056,0.213,0.714,1.206,0.922,1.399c0.208,0.194,0.583,0.348,0.583,0.348
	s-0.411-0.533-0.409-0.592c0.002-0.055-1.514-3.859-1.517-4.063c-0.001-0.205-0.221-1.58-0.239-1.653
	c-0.017-0.068-0.457-2.042-0.855-3.027c-0.399-0.983-1.591-2.849-1.85-3.111c-0.206-0.21-0.651-0.45-0.862-0.661
	c-0.13-0.13-0.241-0.273-0.335-0.419c0.576,0.25,0.92,0.427,1.478,0.702c0.516,0.237,1.259,0.518,1.801,0.532
	c0.243,0.008,3.927,0.539,4.056,0.587c0.129,0.047,1.398,0.467,1.725,0.459c0.327-0.004,0.182-0.055-0.038-0.189
	C34.554,18.845,34.145,18.623,33.913,18.563z"/>
</svg>
