<?xml version="1.0" encoding="utf-8"?>
<!-- Generator: Adobe Illustrator 12.0.0, SVG Export Plug-In  -->
<!DOCTYPE svg PUBLIC "-//W3C//DTD SVG 1.1//EN" "http://www.w3.org/Graphics/SVG/1.1/DTD/svg11.dtd" [
	<!ENTITY ns_flows "http://ns.adobe.com/Flows/1.0/">
	<!ENTITY ns_svg "http://www.w3.org/2000/svg">
	<!ENTITY ns_xlink "http://www.w3.org/1999/xlink">
]>
<svg  version="1.1" xmlns="&ns_svg;" xmlns:xlink="&ns_xlink;" xmlns:a="http://ns.adobe.com/AdobeSVGViewerExtensions/3.0/"
	 width="32" height="26" viewBox="-0.032 -0.046 37 31" enable-background="new -0.032 -0.046 37 31" xml:space="preserve">
<defs>
</defs>
<path fill="#3F3F3F" d="M35.904,19.301l-1.959-8.6c-0.465-2.038-2.486-3.309-4.516-2.844l-5.84,1.337l-0.004-0.002l-6.148-6.276
	c-0.088,0.557-0.322,1.08-0.666,1.509l5.063,5.169l0.002,0.002l-11.307,2.59v-0.003l2.316-6.859
	c-0.496-0.238-0.934-0.604-1.254-1.066l-2.82,8.328v0.004l-5.84,1.338c-2.031,0.469-3.299,2.495-2.836,4.53l1.959,8.599
	c0.465,2.04,2.486,3.312,4.518,2.847l26.496-6.072C35.101,23.364,36.369,21.344,35.904,19.301z M33.691,21.067
	c-0.236,0.379-0.609,0.658-1.078,0.77L6.117,27.906c-0.469,0.106-0.926,0.015-1.305-0.222c-0.375-0.242-0.656-0.613-0.766-1.082
	l-1.961-8.6c-0.105-0.467-0.014-0.932,0.223-1.311c0.24-0.377,0.611-0.658,1.078-0.77l26.498-6.068
	c0.469-0.109,0.928-0.016,1.307,0.221c0.373,0.238,0.656,0.613,0.762,1.08l1.959,8.603C34.021,20.231,33.929,20.688,33.691,21.067z
	 M14.781,4.754c1.295-0.299,2.102-1.587,1.805-2.884c-0.293-1.297-1.582-2.104-2.873-1.809c-1.291,0.298-2.1,1.585-1.805,2.883
	C12.203,4.239,13.49,5.051,14.781,4.754z M12.884,19.579c-0.072-0.227-0.148-0.385-0.246-0.545l0.002-0.001
	c-0.389-0.651-1.008-0.991-1.723-0.987c-0.195,0-0.396,0.021-0.602,0.073c-0.479,0.108-0.881,0.321-1.174,0.634
	c-0.293,0.31-0.473,0.717-0.514,1.2v-0.001c-0.008,0.078-0.014,0.158-0.014,0.242c0,0.301,0.059,0.641,0.209,1.297
	c0.096,0.422,0.168,0.707,0.242,0.934c0.074,0.223,0.154,0.385,0.248,0.541H9.312c0.389,0.658,1.01,0.99,1.723,0.986
	c0.191,0,0.391-0.021,0.594-0.068c0.484-0.109,0.887-0.32,1.182-0.637c0.293-0.311,0.473-0.719,0.516-1.199
	c0.008-0.08,0.012-0.158,0.012-0.242c0-0.301-0.057-0.637-0.209-1.299C13.033,20.084,12.96,19.799,12.884,19.579z M12.109,21.983
	c-0.023,0.209-0.092,0.383-0.205,0.518c-0.113,0.133-0.279,0.232-0.523,0.286c-0.098,0.022-0.184,0.034-0.262,0.034
	c-0.166,0-0.303-0.041-0.42-0.113c-0.123-0.074-0.229-0.186-0.318-0.332c-0.092-0.156-0.184-0.412-0.354-1.158
	c-0.145-0.635-0.188-0.928-0.188-1.104c0-0.037,0.002-0.068,0.006-0.1c0.021-0.211,0.09-0.381,0.201-0.514
	c0.113-0.131,0.279-0.234,0.52-0.287c0.096-0.021,0.186-0.034,0.27-0.034c0.164,0.001,0.303,0.044,0.422,0.114
	c0.119,0.076,0.225,0.182,0.314,0.325c0.092,0.161,0.182,0.404,0.355,1.165c0.145,0.631,0.188,0.922,0.186,1.107
	C12.113,21.924,12.113,21.954,12.109,21.983z M17.105,17.346c-0.311-0.246-0.701-0.373-1.133-0.373c-0.17,0-0.344,0.018-0.525,0.061
	l-1.992,0.455c-0.043,0.012-0.086,0.035-0.121,0.072c-0.031,0.037-0.047,0.088-0.047,0.135l0.008,0.051v0.006l1.176,5.17
	c0.012,0.043,0.035,0.088,0.074,0.121c0.037,0.027,0.086,0.047,0.135,0.047l0.051-0.008l0.764-0.176
	c0.045-0.01,0.09-0.035,0.123-0.072c0.031-0.037,0.049-0.084,0.047-0.135l-0.008-0.053l-0.408-1.802l1.016-0.235
	c0.465-0.105,0.848-0.325,1.113-0.637c0.266-0.305,0.416-0.699,0.414-1.129c0-0.146-0.018-0.303-0.051-0.459
	C17.638,17.946,17.416,17.592,17.105,17.346z M16.421,19.266c-0.1,0.115-0.256,0.206-0.463,0.256l-0.963,0.221l-0.314-1.381
	l0.961-0.223c0.082-0.018,0.162-0.025,0.234-0.025c0.18,0,0.326,0.053,0.439,0.143c0.111,0.092,0.195,0.225,0.234,0.402
	c0.018,0.068,0.021,0.131,0.021,0.191C16.572,19.016,16.521,19.153,16.421,19.266z M22.744,20.315
	c-0.01-0.045-0.037-0.086-0.074-0.119c-0.037-0.031-0.088-0.05-0.135-0.05l-0.049,0.007l-2.355,0.539l-0.268-1.176l1.969-0.453
	c0.045-0.01,0.09-0.035,0.121-0.07c0.033-0.039,0.049-0.088,0.049-0.139l-0.006-0.049l-0.152-0.674
	c-0.012-0.043-0.035-0.09-0.072-0.123c-0.039-0.031-0.088-0.047-0.135-0.047l-0.055,0.008l-1.969,0.451l-0.256-1.131l2.354-0.541
	c0.043-0.008,0.088-0.033,0.119-0.068c0.029-0.039,0.047-0.09,0.047-0.138l-0.004-0.052l-0.156-0.676
	c-0.008-0.039-0.033-0.088-0.072-0.119c-0.037-0.032-0.086-0.047-0.135-0.047l-0.049,0.008l-3.33,0.762
	c-0.043,0.008-0.088,0.029-0.121,0.068c-0.033,0.041-0.049,0.09-0.049,0.137l0.008,0.055l1.178,5.17
	c0.01,0.047,0.033,0.09,0.07,0.121c0.041,0.033,0.088,0.047,0.137,0.047l0.053-0.002l3.328-0.764
	c0.045-0.014,0.09-0.035,0.119-0.074c0.033-0.039,0.051-0.088,0.049-0.133l-0.006-0.051L22.744,20.315z M17.968,16.678
	L17.968,16.678l-0.002-0.004L17.968,16.678z M27.83,19.86v0.004l0.002,0.002L27.83,19.86z M26.652,14.691l-0.002-0.004
	c-0.01-0.045-0.031-0.087-0.072-0.119c-0.037-0.032-0.086-0.053-0.133-0.053l-0.055,0.008l-0.676,0.155
	c-0.045,0.011-0.09,0.036-0.121,0.069c-0.033,0.04-0.049,0.092-0.049,0.141l0.006,0.05l0.738,3.244l-2.705-2.867l-0.002,0.002
	c-0.047-0.053-0.125-0.098-0.203-0.096c-0.025,0-0.049,0.004-0.074,0.01l-0.719,0.164c-0.043,0.012-0.088,0.034-0.119,0.072
	c-0.033,0.041-0.049,0.09-0.049,0.135l0.006,0.057v-0.004l1.182,5.182l-0.002-0.01c0.008,0.049,0.033,0.09,0.072,0.123
	s0.084,0.046,0.135,0.046l0.051-0.003l0.68-0.156c0.043-0.012,0.088-0.033,0.121-0.074c0.033-0.037,0.047-0.09,0.047-0.133
	l-0.004-0.053l-0.74-3.24l2.713,2.859h0.002c0.021,0.025,0.051,0.051,0.086,0.064c0.035,0.023,0.078,0.029,0.117,0.029
	c0.027,0,0.051,0,0.074-0.006l0.711-0.166c0.045-0.008,0.09-0.035,0.121-0.07c0.031-0.039,0.045-0.086,0.045-0.137l-0.004-0.047
	L26.652,14.691z"/>
</svg>
