<?xml version="1.0" encoding="utf-8"?>
<!-- Generator: Adobe Illustrator 12.0.0, SVG Export Plug-In . SVG Version: 6.00 Build 51448)  -->
<!DOCTYPE svg PUBLIC "-//W3C//DTD SVG 1.1//EN" "http://www.w3.org/Graphics/SVG/1.1/DTD/svg11.dtd" [
	<!ENTITY ns_svg "http://www.w3.org/2000/svg">
	<!ENTITY ns_xlink "http://www.w3.org/1999/xlink">
]>
<svg  version="1.1" id="jika" xmlns="&ns_svg;" xmlns:xlink="&ns_xlink;" width="40" height="40" viewBox="0 0 40 40"
	 overflow="visible" enable-background="new 0 0 40 40" xml:space="preserve">
<path fill="#1F2735" d="M36,0H4C1.8,0,0,1.8,0,4v32c0,2.2,1.8,4,4,4h32c2.2,0,4-1.8,4-4V4C40,1.8,38.2,0,36,0z M36,8h-8
	c-4.842,0-14,2.926-14,14h4.668c0-8.99,8.387-9.325,9.343-9.333H36V35c0,0.55-0.45,1-1,1H5c-0.55,0-1-0.45-1-1V5c0-0.55,0.45-1,1-1
	h30c0.55,0,1,0.45,1,1V8z M13.932,32.926C14.639,33.643,15.569,34,16.5,34c0.932,0,1.863-0.357,2.569-1.074
	c1.422-1.432,1.047-3.537,0-5.188L16.5,24l-2.568,3.738C12.886,29.389,12.509,31.494,13.932,32.926z"/>
</svg>
