<?xml version="1.0" encoding="utf-8"?>
<!-- Generator: Adobe Illustrator 12.0.0, SVG Export Plug-In . SVG Version: 6.00 Build 51448)  -->
<!DOCTYPE svg PUBLIC "-//W3C//DTD SVG 1.1//EN" "http://www.w3.org/Graphics/SVG/1.1/DTD/svg11.dtd" [
	<!ENTITY ns_svg "http://www.w3.org/2000/svg">
	<!ENTITY ns_xlink "http://www.w3.org/1999/xlink">
]>
<svg  version="1.1" id="kimoto" xmlns="&ns_svg;" xmlns:xlink="&ns_xlink;" width="40" height="40" viewBox="0 0 40 40"
	 overflow="visible" enable-background="new 0 0 40 40" xml:space="preserve">
<path fill="#ED8A2F" d="M27.17,7.691c0.285-1.063,0.084-2.048-0.448-2.19c-0.531-0.143-1.198,0.61-1.483,1.673L21.802,20H7v4h2v10
	h22V24h2v-4h-9.127L27.17,7.691z M36,0H4C1.8,0,0,1.8,0,4v32c0,2.2,1.8,4,4,4h32c2.2,0,4-1.8,4-4V4C40,1.8,38.2,0,36,0z M36,35
	c0,0.55-0.45,1-1,1H5c-0.55,0-1-0.45-1-1V5c0-0.55,0.45-1,1-1h30c0.55,0,1,0.45,1,1V35z M15.75,17c0,0.828,0.672,1.5,1.5,1.5
	s1.5-0.672,1.5-1.5s-0.672-1.5-1.5-1.5S15.75,16.172,15.75,17z M15.75,11c1.656,0,3-1.344,3-3s-1.344-3-3-3s-3,1.344-3,3
	S14.094,11,15.75,11z M11.25,16c1.104,0,2-0.896,2-2s-0.896-2-2-2s-2,0.896-2,2S10.146,16,11.25,16z"/>
</svg>
