<?xml version="1.0" encoding="utf-8"?>
<!-- Generator: Adobe Illustrator 12.0.0, SVG Export Plug-In  -->
<!DOCTYPE svg PUBLIC "-//W3C//DTD SVG 1.1//EN" "http://www.w3.org/Graphics/SVG/1.1/DTD/svg11.dtd" [
	<!ENTITY ns_flows "http://ns.adobe.com/Flows/1.0/">
	<!ENTITY ns_svg "http://www.w3.org/2000/svg">
	<!ENTITY ns_xlink "http://www.w3.org/1999/xlink">
]>
<svg  version="1.1" xmlns="&ns_svg;" xmlns:xlink="&ns_xlink;" xmlns:a="http://ns.adobe.com/AdobeSVGViewerExtensions/3.0/"
	 width="33" height="31" viewBox="-0.092 -0.321 33 31" enable-background="new -0.092 -0.321 33 31" xml:space="preserve">
<defs>
</defs>
<path fill="#3F3F3F" d="M31.701,6.132L20.936,0.093c-0.014-0.005-0.023-0.006-0.031-0.009c-0.02-0.013-0.035-0.017-0.055-0.026
	c-0.057-0.021-0.115-0.033-0.176-0.042c-0.014-0.002-0.021-0.009-0.035-0.011C20.623,0.005,20.55,0,20.426,0
	c-0.376,0.001-1.18,0.04-2.076,0.373c-0.879,0.322-1.852,0.963-2.453,2.091c-0.002,0.002-0.005,0.007-0.007,0.009
	c-0.004,0.015-0.016,0.024-0.018,0.039c-0.004,0.006-0.004,0.015-0.009,0.025c-0.008,0.014-0.018,0.033-0.024,0.046
	c0,0.003,0,0.009-0.002,0.017c-0.018,0.033-0.018,0.07-0.018,0.104l8.372,4.694v0.001c0.465,0.266,0.741,0.713,0.743,1.2v16.185
	l1.946,1.092c0.05,0.027,0.104,0.046,0.16,0.063c0.018,0.005,0.037,0.005,0.057,0.008c0.039,0.006,0.074,0.016,0.111,0.016
	c0.026,0,0.046-0.006,0.075-0.008c0.03-0.002,0.063-0.004,0.094-0.011c0.03-0.004,0.053-0.018,0.079-0.027
	c0.024-0.007,0.053-0.011,0.074-0.024c0.004-0.002,0.004-0.006,0.01-0.007c0.004-0.001,0.008-0.001,0.01-0.002l4.133-2.175
	C31.88,23.607,32,23.421,32,23.218V6.613C32,6.42,31.888,6.238,31.701,6.132z M27.451,8.242l-9.77-5.479l2.896-1.523l9.432,5.287
	c-0.17,0.045-0.336,0.094-0.51,0.157C28.783,6.952,28.012,7.429,27.451,8.242z M30.718,22.897l-2.85,1.497V8.788
	c0-0.009-0.005-0.019-0.005-0.026c0.496-0.841,1.201-1.299,1.887-1.553c0.342-0.127,0.676-0.203,0.968-0.248V22.897z M13.147,2.145
	C13.142,2.141,13.13,2.14,13.12,2.137c-0.019-0.012-0.036-0.017-0.055-0.024c-0.059-0.024-0.112-0.037-0.175-0.042
	c-0.01-0.002-0.021-0.012-0.033-0.013c-0.014-0.001-0.093-0.005-0.218-0.005c-0.373,0.001-1.179,0.04-2.073,0.374
	c-0.881,0.322-1.851,0.962-2.45,2.09C8.113,4.518,8.111,4.523,8.109,4.527C8.1,4.537,8.096,4.549,8.084,4.563
	C8.082,4.569,8.082,4.58,8.081,4.59C8.072,4.603,8.064,4.622,8.059,4.635C8.057,4.64,8.052,4.646,8.051,4.651
	C8.042,4.684,8.037,4.72,8.034,4.756l8.372,4.698h0.002c0.467,0.264,0.744,0.709,0.746,1.196v16.187l1.939,1.092
	c0.051,0.028,0.105,0.046,0.16,0.063c0.023,0.005,0.043,0.005,0.066,0.007c0.036,0.008,0.071,0.017,0.105,0.017
	c0.024,0,0.049-0.004,0.074-0.007c0.031-0.002,0.066-0.004,0.097-0.011c0.026-0.005,0.053-0.019,0.077-0.028
	c0.025-0.008,0.05-0.01,0.076-0.025c0.002-0.001,0.007-0.005,0.01-0.006c0-0.001,0.006-0.001,0.008-0.002l4.137-2.176
	c0.195-0.101,0.313-0.286,0.313-0.489V8.664c0-0.191-0.111-0.374-0.297-0.478L13.147,2.145z M19.67,10.296l-9.775-5.48l2.9-1.525
	l9.428,5.288c-0.16,0.046-0.334,0.094-0.51,0.158C20.997,9.003,20.23,9.479,19.67,10.296z M22.933,24.949l-2.85,1.498V10.841
	c0-0.008-0.004-0.019-0.004-0.025c0.491-0.843,1.202-1.3,1.886-1.555c0.346-0.127,0.679-0.203,0.968-0.248V24.949z M5.123,4.131
	c-0.012-0.004-0.022-0.006-0.031-0.01C5.074,4.108,5.057,4.103,5.04,4.1C4.981,4.072,4.921,4.061,4.863,4.054
	c-0.015-0.001-0.021-0.01-0.035-0.011C4.812,4.042,4.738,4.038,4.614,4.038C4.24,4.039,3.434,4.076,2.541,4.41
	C1.658,4.732,0.688,5.374,0.087,6.502C0.083,6.505,0.081,6.507,0.08,6.512C0.076,6.524,0.064,6.534,0.06,6.551
	C0.052,6.558,0.056,6.563,0.05,6.574C0.044,6.589,0.035,6.605,0.027,6.621c0,0.005,0,0.009-0.002,0.016
	C0.011,6.673,0.008,6.708,0.006,6.744c0,0.011-0.003,0.021-0.004,0.031C0.002,6.777,0,6.78,0,6.785v16.608
	c0,0.192,0.114,0.374,0.296,0.478l10.773,6.044c0.05,0.027,0.103,0.045,0.16,0.063c0.018,0.003,0.038,0.003,0.059,0.009
	c0.037,0.002,0.071,0.013,0.108,0.014c0.026,0.001,0.047-0.006,0.075-0.01c0.031-0.002,0.064-0.002,0.093-0.01
	c0.032-0.003,0.056-0.017,0.084-0.024c0.021-0.008,0.049-0.013,0.072-0.028c0-0.002,0.002-0.002,0.007-0.002
	c0.005-0.003,0.01-0.003,0.01-0.005l4.135-2.174c0.194-0.104,0.315-0.287,0.315-0.489V10.65c0-0.192-0.111-0.373-0.3-0.479
	L5.123,4.131z M11.64,12.28l-9.77-5.479l2.897-1.523l9.431,5.287c-0.168,0.044-0.336,0.094-0.509,0.159
	C12.97,10.991,12.2,11.467,11.64,12.28z M14.905,26.935l-2.848,1.499V12.827c0-0.01-0.003-0.02-0.006-0.026
	c0.496-0.844,1.201-1.301,1.889-1.554c0.341-0.129,0.676-0.201,0.965-0.246V26.935z"/>
</svg>
