<?xml version="1.0" encoding="utf-8"?>
<!-- Generator: Adobe Illustrator 12.0.0, SVG Export Plug-In . SVG Version: 6.00 Build 51448)  -->
<!DOCTYPE svg PUBLIC "-//W3C//DTD SVG 1.1//EN" "http://www.w3.org/Graphics/SVG/1.1/DTD/svg11.dtd" [
	<!ENTITY ns_svg "http://www.w3.org/2000/svg">
	<!ENTITY ns_xlink "http://www.w3.org/1999/xlink">
]>
<svg  version="1.1" id="koshu" xmlns="&ns_svg;" xmlns:xlink="&ns_xlink;" width="40" height="40" viewBox="0 0 40 40"
	 overflow="visible" enable-background="new 0 0 40 40" xml:space="preserve">
<path fill="#3F3F3F" d="M20,6C12.27,6,6,12.271,6,20s6.27,14,14,14s14-6.271,14-14S27.73,6,20,6z M20,32c-6.625,0-12-5.376-12-12
	c0-6.625,5.375-12,12-12s12,5.375,12,12C32,26.624,26.625,32,20,32z M20.811,18.579V8.615h-1.505v9.964
	c-0.448,0.263-0.751,0.745-0.751,1.305c0,0.826,0.673,1.501,1.502,1.501c0.559,0,1.041-0.307,1.301-0.753h8.088v-1.503h-8.088
	C21.224,18.904,21.035,18.717,20.811,18.579z M36,0H4C1.8,0,0,1.8,0,4v32c0,2.2,1.8,4,4,4h32c2.2,0,4-1.8,4-4V4C40,1.8,38.2,0,36,0z
	 M36,35c0,0.55-0.45,1-1,1H5c-0.55,0-1-0.45-1-1V5c0-0.55,0.45-1,1-1h30c0.55,0,1,0.45,1,1V35z"/>
</svg>
