<?xml version="1.0" encoding="utf-8"?>
<!-- Generator: Adobe Illustrator 12.0.0, SVG Export Plug-In . SVG Version: 6.00 Build 51448)  -->
<!DOCTYPE svg PUBLIC "-//W3C//DTD SVG 1.1//EN" "http://www.w3.org/Graphics/SVG/1.1/DTD/svg11.dtd" [
	<!ENTITY ns_svg "http://www.w3.org/2000/svg">
	<!ENTITY ns_xlink "http://www.w3.org/1999/xlink">
]>
<svg  version="1.1" id="レイヤー_1" xmlns="&ns_svg;" xmlns:xlink="&ns_xlink;" width="18" height="20" viewBox="0 0 18 20"
	 overflow="visible" enable-background="new 0 0 18 20" xml:space="preserve">
<path fill="#666666" d="M15.232,7.633V1.925c0-1.063-1.048-1.925-2.34-1.925H5.109C3.813,0,2.77,0.861,2.77,1.925v5.708H0V20h18
	V7.633H15.232z M5.854,2.858h6.293v4.774H5.854V2.858z M10.096,14.329v2.484H7.844V14.29c-0.327-0.282-0.535-0.683-0.535-1.132
	c0-0.718,0.523-1.316,1.232-1.504h0.92c0.708,0.188,1.23,0.786,1.23,1.504C10.691,13.631,10.456,14.044,10.096,14.329z"/>
</svg>
