<?xml version="1.0" encoding="utf-8"?>
<!-- Generator: Adobe Illustrator 12.0.0, SVG Export Plug-In . SVG Version: 6.00 Build 51448)  -->
<!DOCTYPE svg PUBLIC "-//W3C//DTD SVG 1.1//EN" "http://www.w3.org/Graphics/SVG/1.1/DTD/svg11.dtd" [
	<!ENTITY ns_svg "http://www.w3.org/2000/svg">
	<!ENTITY ns_xlink "http://www.w3.org/1999/xlink">
]>
<svg  version="1.1" id="レイヤー_1" xmlns="&ns_svg;" xmlns:xlink="&ns_xlink;" width="20" height="20" viewBox="0 0 20 20"
	 overflow="visible" enable-background="new 0 0 20 20" xml:space="preserve">
<path fill="#B2B2B2" d="M19.119,0.881C18.552,0.313,17.799,0,17,0H9.002C7.347,0,6,1.346,6,3v3c0,0.552,0.448,1,1,1s1-0.448,1-1V3
	c0-0.551,0.449-1,1.002-1H17c0.265,0,0.516,0.104,0.705,0.294C17.896,2.485,18,2.735,18,3v14c0,0.265-0.104,0.516-0.295,0.705
	C17.516,17.896,17.265,18,17,18H9.002C8.449,18,8,17.552,8,17v-3c0-0.553-0.448-1-1-1s-1,0.447-1,1v3c0,1.654,1.347,3,3.002,3H17
	c0.799,0,1.552-0.313,2.119-0.881C19.688,18.552,20,17.799,20,17V3C20,2.201,19.688,1.448,19.119,0.881z M11.219,14.375
	C11.071,14.56,11,14.78,11,14.999c0,0.294,0.129,0.584,0.375,0.782c0.432,0.345,1.062,0.274,1.406-0.156l4-5
	c0.292-0.365,0.292-0.884,0-1.25l-4-5c-0.346-0.432-0.975-0.501-1.406-0.156C11.129,4.417,11,4.708,11,5
	c0,0.219,0.071,0.44,0.219,0.624c0,0,1.605,2.007,2.701,3.375H1c-0.552,0-1,0.448-1,1c0,0.553,0.448,1,1,1h12.92
	C12.824,12.369,11.219,14.375,11.219,14.375z"/>
</svg>
