<?xml version="1.0" encoding="utf-8"?>
<!-- Generator: Adobe Illustrator 12.0.0, SVG Export Plug-In . SVG Version: 6.00 Build 51448)  -->
<!DOCTYPE svg PUBLIC "-//W3C//DTD SVG 1.1//EN" "http://www.w3.org/Graphics/SVG/1.1/DTD/svg11.dtd" [
	<!ENTITY ns_svg "http://www.w3.org/2000/svg">
	<!ENTITY ns_xlink "http://www.w3.org/1999/xlink">
]>
<svg  version="1.1" id="レイヤー_1" xmlns="&ns_svg;" xmlns:xlink="&ns_xlink;" width="130" height="26" viewBox="0 0 130 26"
	 overflow="visible" enable-background="new 0 0 130 26" xml:space="preserve">
<g>
	<g>
		<g>
			<path fill="#B4BE50" d="M10.837,4.381c-4.243,5.241-3.479,8.115-2.805,10.65c0.631,2.375,1.177,4.427-2.427,8.879
				c-0.2,0.247-0.271,0.574-0.189,0.883c0.081,0.307,0.302,0.559,0.598,0.675l0.241,0.096C7.193,25.861,8.092,26,8.999,26
				c2.495,0,4.842-1.026,6.608-2.891c3.758-3.984,2.531-9.666,0.131-13.657l-1.217-1.859c-0.303-0.462-0.923-0.591-1.385-0.288
				c-0.462,0.303-0.591,0.923-0.289,1.385l1.197,1.826c2.001,3.329,3.098,8.05,0.109,11.22C12.77,23.195,10.938,24,8.999,24
				C8.694,24,8.4,23.901,8.1,23.861c1.794-2.559,2.395-4.545,2.395-6.18c0-1.179-0.271-2.195-0.527-3.164
				c-0.236-0.889-0.46-1.73-0.46-2.67c0-1.574,0.629-3.42,2.886-6.209c0.15-0.185,0.223-0.407,0.223-0.628
				c0-0.292-0.127-0.58-0.372-0.778C11.815,3.885,11.185,3.951,10.837,4.381z"/>
		</g>
		<g>
			<path fill="#78B4B4" d="M8.996,0C8.66,0.001,8.346,0.171,8.162,0.452L2.281,9.419c-2.421,4.024-3.648,9.706,0.108,13.688
				c0.003,0.003,0.282,0.286,0.282,0.286c0.388,0.394,1.005,0.384,1.399-0.005c0.195-0.191,0.291-0.447,0.291-0.703
				c0-0.264-0.1-0.527-0.295-0.727l-0.223-0.225c-1.316-1.396-1.84-3.096-1.84-4.847c0-2.22,0.84-4.524,1.972-6.405
				c0,0,3.806-5.801,5.03-7.667c0.258,0.388,0.542,0.815,0.542,0.815c0.306,0.46,0.926,0.585,1.387,0.279
				c0.46-0.305,0.585-0.926,0.279-1.386L9.833,0.446C9.646,0.167,9.332,0,8.996,0z"/>
		</g>
	</g>
	<g>
		<path fill="#3F3F3F" d="M28.007,9.673c0,0.48,0.102,0.877,0.284,1.191c0.183,0.313,0.433,0.571,0.751,0.775
			c0.318,0.204,0.686,0.371,1.097,0.501c0.415,0.13,0.855,0.252,1.306,0.366c0.606,0.155,1.201,0.326,1.79,0.513
			c0.588,0.187,1.116,0.446,1.576,0.776c0.455,0.33,0.823,0.76,1.114,1.289c0.28,0.529,0.419,1.209,0.419,2.039
			c0,0.848-0.154,1.578-0.461,2.193s-0.725,1.12-1.275,1.516c-0.538,0.395-1.175,0.688-1.924,0.879
			C31.949,21.904,31.138,22,30.252,22c-0.406,0-0.823-0.026-1.241-0.079c-0.43-0.053-0.835-0.124-1.217-0.213
			c-0.394-0.089-0.741-0.19-1.055-0.305c-0.309-0.112-0.558-0.228-0.731-0.341V19.25c0.275,0.145,0.594,0.277,0.944,0.398
			c0.35,0.12,0.714,0.223,1.093,0.308c0.368,0.085,0.751,0.151,1.128,0.199c0.388,0.048,0.748,0.072,1.079,0.072
			c0.546,0,1.067-0.049,1.562-0.147c0.502-0.098,0.931-0.259,1.311-0.487c0.367-0.229,0.672-0.54,0.883-0.935
			c0.222-0.395,0.333-0.89,0.333-1.484c0-0.488-0.094-0.892-0.292-1.209c-0.191-0.318-0.447-0.58-0.76-0.789
			c-0.323-0.206-0.694-0.375-1.115-0.506c-0.408-0.131-0.855-0.252-1.316-0.367c-0.609-0.146-1.201-0.311-1.786-0.494
			c-0.578-0.184-1.1-0.438-1.556-0.764c-0.458-0.325-0.827-0.745-1.097-1.258C26.136,11.273,26,10.618,26,9.819
			c0-0.831,0.144-1.545,0.431-2.144c0.299-0.598,0.689-1.093,1.183-1.484c0.495-0.391,1.069-0.68,1.713-0.868
			c0.657-0.188,1.342-0.281,2.08-0.281c0.829,0,1.611,0.084,2.335,0.251c0.712,0.167,1.374,0.385,1.983,0.654v1.846
			c-0.656-0.285-1.32-0.518-2.012-0.697c-0.686-0.179-1.432-0.273-2.213-0.281c-0.601,0-1.108,0.067-1.55,0.202
			c-0.432,0.134-0.797,0.325-1.082,0.574c-0.296,0.248-0.508,0.549-0.651,0.903C28.08,8.849,28.007,9.242,28.007,9.673z"/>
		<path fill="#3F3F3F" d="M45.984,20.417h-0.053c-0.15,0.195-0.334,0.39-0.557,0.581c-0.228,0.191-0.491,0.361-0.785,0.512
			c-0.294,0.151-0.623,0.271-0.972,0.358C43.269,21.956,42.89,22,42.495,22c-0.534,0-1.032-0.084-1.481-0.251
			c-0.446-0.167-0.827-0.411-1.155-0.732c-0.326-0.322-0.578-0.715-0.751-1.179c-0.184-0.465-0.273-0.991-0.273-1.578
			c0-0.577,0.099-1.096,0.296-1.551c0.199-0.456,0.482-0.844,0.842-1.162c0.359-0.317,0.784-0.562,1.287-0.732
			c0.508-0.172,1.068-0.257,1.678-0.257c0.567,0.008,1.107,0.062,1.595,0.159c0.488,0.098,0.931,0.219,1.308,0.366h0.046v-0.806
			c0-0.316-0.012-0.596-0.056-0.839c-0.041-0.244-0.102-0.459-0.203-0.646c-0.203-0.39-0.519-0.712-0.963-0.967
			c-0.451-0.255-1.05-0.383-1.806-0.383c-0.562,0-1.091,0.054-1.588,0.162c-0.492,0.108-0.982,0.258-1.481,0.45V10.47
			c0.195-0.097,0.407-0.189,0.661-0.274c0.253-0.085,0.523-0.159,0.81-0.22c0.276-0.062,0.57-0.107,0.884-0.14
			c0.314-0.033,0.628-0.049,0.941-0.049c1.12,0,2.034,0.208,2.745,0.623c0.714,0.416,1.228,0.965,1.541,1.65
			c0.12,0.26,0.2,0.547,0.25,0.86c0.05,0.313,0.082,0.658,0.082,1.032V21.7h-1.519L45.984,20.417z M45.885,16.601
			c-0.329-0.097-0.722-0.19-1.18-0.28c-0.458-0.09-0.961-0.138-1.517-0.146c-0.763,0-1.369,0.172-1.804,0.512
			c-0.431,0.343-0.649,0.868-0.649,1.574c0,0.358,0.055,0.672,0.166,0.94c0.106,0.269,0.256,0.49,0.446,0.665
			c0.187,0.175,0.417,0.305,0.676,0.391c0.252,0.086,0.535,0.128,0.828,0.128c0.391,0,0.745-0.059,1.085-0.177
			c0.329-0.119,0.626-0.258,0.885-0.421c0.261-0.163,0.486-0.325,0.664-0.489c0.19-0.161,0.319-0.288,0.401-0.378V16.601z"/>
		<path fill="#3F3F3F" d="M58.414,10.086h2.358l-5.429,5.343l5.416,6.271h-2.253l-5.337-6.183h-0.027V21.7h-1.808V4h1.808v11.271
			h0.027L58.414,10.086z"/>
		<path fill="#3F3F3F" d="M68.168,20.344c0.598,0,1.144-0.05,1.636-0.152c0.504-0.102,0.995-0.246,1.482-0.434v1.581
			c-0.396,0.204-0.884,0.364-1.476,0.483C69.232,21.94,68.6,22,67.926,22c-0.791,0-1.535-0.106-2.239-0.318
			c-0.698-0.211-1.302-0.553-1.813-1.025c-0.512-0.473-0.911-1.089-1.196-1.85c-0.293-0.762-0.44-1.68-0.44-2.754
			c0-1.059,0.147-1.977,0.424-2.754c0.284-0.778,0.653-1.427,1.123-1.949c0.47-0.52,1.001-0.911,1.608-1.172
			c0.607-0.261,1.249-0.391,1.911-0.391c0.619,0,1.202,0.108,1.739,0.324c0.55,0.216,1.013,0.556,1.419,1.021
			c0.393,0.464,0.711,1.063,0.932,1.797c0.235,0.733,0.343,1.614,0.343,2.641c0,0.098,0,0.181,0,0.25s-0.005,0.227-0.006,0.471
			h-7.683c0,0.738,0.108,1.365,0.32,1.881c0.211,0.516,0.508,0.934,0.875,1.254c0.374,0.32,0.804,0.554,1.308,0.7
			C67.053,20.271,67.586,20.344,68.168,20.344z M67.211,11.417c-0.417,0-0.813,0.085-1.17,0.256
			c-0.354,0.17-0.671,0.402-0.943,0.695c-0.272,0.293-0.48,0.636-0.65,1.031c-0.169,0.394-0.272,0.815-0.309,1.263h5.693
			c0-0.455-0.06-0.881-0.178-1.274c-0.107-0.395-0.277-0.738-0.502-1.032c-0.215-0.292-0.492-0.522-0.82-0.689
			C68.016,11.5,67.635,11.417,67.211,11.417z"/>
		<path fill="#3F3F3F" d="M76.566,11.701h0.038c0.203-0.268,0.425-0.518,0.669-0.75c0.245-0.232,0.523-0.435,0.828-0.609
			c0.304-0.176,0.636-0.312,0.996-0.409c0.365-0.098,0.758-0.146,1.192-0.146c0.507,0,0.986,0.073,1.429,0.22
			c0.441,0.146,0.828,0.384,1.155,0.709c0.332,0.326,0.587,0.751,0.782,1.277c0.188,0.525,0.281,1.171,0.281,1.937V21.7h-1.805
			v-7.463c0-1.001-0.193-1.722-0.556-2.161c-0.376-0.44-0.91-0.66-1.621-0.66c-0.629,0-1.233,0.181-1.825,0.542
			c-0.58,0.361-1.082,0.858-1.508,1.491V21.7h-1.806V10.086h1.399L76.566,11.701z"/>
		<path fill="#3F3F3F" d="M97.367,15.906c0,0.912-0.131,1.742-0.379,2.491c-0.249,0.749-0.602,1.39-1.059,1.923
			s-1.007,0.947-1.652,1.24C93.621,21.854,92.904,22,92.092,22c-0.82,0-1.566-0.146-2.217-0.439
			c-0.649-0.293-1.203-0.707-1.659-1.24s-0.805-1.174-1.048-1.923c-0.246-0.749-0.36-1.579-0.36-2.491
			c0-0.92,0.118-1.755,0.367-2.504c0.249-0.75,0.603-1.393,1.058-1.93c0.459-0.537,1.016-0.952,1.672-1.246
			c0.649-0.293,1.375-0.439,2.184-0.439c0.816,0,1.553,0.146,2.207,0.439c0.654,0.294,1.207,0.709,1.659,1.246
			c0.456,0.537,0.81,1.18,1.048,1.93C97.242,14.151,97.367,14.986,97.367,15.906z M95.465,15.906c0-0.717-0.08-1.353-0.251-1.91
			c-0.171-0.557-0.4-1.029-0.7-1.415c-0.299-0.387-0.656-0.679-1.072-0.879c-0.415-0.199-0.866-0.299-1.354-0.299
			c-0.5,0-0.952,0.1-1.365,0.299c-0.406,0.2-0.764,0.492-1.068,0.879c-0.305,0.386-0.535,0.858-0.706,1.415
			c-0.159,0.558-0.251,1.193-0.251,1.91c0,0.707,0.092,1.34,0.251,1.896c0.171,0.558,0.403,1.027,0.708,1.41
			c0.305,0.382,0.664,0.673,1.079,0.872s0.866,0.299,1.356,0.299c0.498,0,0.947-0.1,1.357-0.299s0.766-0.49,1.064-0.872
			c0.3-0.383,0.529-0.853,0.7-1.41C95.385,17.246,95.465,16.613,95.465,15.906z"/>
		<path fill="#3F3F3F" d="M109.309,21.7h-1.814v-7.463c0-0.504-0.053-0.935-0.16-1.288c-0.105-0.354-0.258-0.645-0.456-0.873
			s-0.433-0.395-0.715-0.501c-0.271-0.106-0.582-0.159-0.923-0.159c-0.656,0-1.24,0.181-1.773,0.542
			c-0.527,0.361-1.008,0.858-1.422,1.491V21.7h-1.816V10.086h1.41l0.351,1.614h0.03c0.203-0.268,0.428-0.518,0.662-0.75
			c0.233-0.232,0.502-0.435,0.791-0.609c0.299-0.176,0.614-0.312,0.965-0.409c0.35-0.098,0.738-0.146,1.152-0.146
			c0.822,0,1.51,0.208,2.053,0.622c0.549,0.415,0.967,0.98,1.261,1.696h0.048c0.499-0.724,1.063-1.291,1.688-1.702
			c0.638-0.411,1.37-0.616,2.224-0.616c0.385,0,0.801,0.057,1.234,0.171c0.439,0.114,0.846,0.324,1.203,0.629
			c0.369,0.306,0.675,0.728,0.914,1.265c0.252,0.538,0.365,1.23,0.365,2.078V21.7h-1.805v-7.463c0-0.504-0.055-0.935-0.16-1.288
			c-0.106-0.354-0.259-0.645-0.457-0.873c-0.197-0.228-0.434-0.395-0.714-0.501c-0.276-0.106-0.581-0.159-0.935-0.159
			c-0.646,0-1.232,0.181-1.773,0.542c-0.529,0.361-1.012,0.858-1.428,1.491V21.7z"/>
		<path fill="#3F3F3F" d="M130,15.906c0,0.912-0.127,1.742-0.379,2.491c-0.248,0.749-0.602,1.39-1.059,1.923
			c-0.456,0.533-1.006,0.947-1.651,1.24S125.537,22,124.735,22c-0.831,0-1.565-0.146-2.224-0.439
			c-0.652-0.293-1.206-0.707-1.662-1.24c-0.457-0.533-0.805-1.174-1.044-1.923s-0.364-1.579-0.364-2.491
			c0-0.92,0.125-1.755,0.377-2.504c0.25-0.75,0.604-1.393,1.06-1.93s1.01-0.952,1.659-1.246c0.65-0.293,1.382-0.439,2.184-0.439
			c0.821,0,1.553,0.146,2.207,0.439c0.662,0.294,1.219,0.709,1.672,1.246c0.451,0.537,0.797,1.18,1.036,1.93
			C129.875,14.151,130,14.986,130,15.906z M128.099,15.906c0-0.717-0.08-1.353-0.251-1.91c-0.16-0.557-0.4-1.029-0.7-1.415
			c-0.3-0.387-0.657-0.679-1.072-0.879c-0.415-0.199-0.866-0.299-1.354-0.299c-0.487,0-0.941,0.1-1.354,0.299
			c-0.415,0.2-0.772,0.492-1.071,0.879c-0.3,0.386-0.542,0.858-0.701,1.415c-0.172,0.558-0.252,1.193-0.252,1.91
			c0,0.707,0.08,1.34,0.252,1.896c0.159,0.558,0.403,1.027,0.707,1.41c0.305,0.382,0.664,0.673,1.072,0.872
			c0.41,0.199,0.865,0.299,1.362,0.299c0.487,0,0.937-0.1,1.347-0.299c0.411-0.199,0.766-0.49,1.065-0.872
			c0.3-0.383,0.54-0.853,0.7-1.41C128.019,17.246,128.099,16.613,128.099,15.906z"/>
	</g>
</g>
</svg>
