<?xml version="1.0" encoding="utf-8"?>
<!-- Generator: Adobe Illustrator 12.0.0, SVG Export Plug-In . SVG Version: 6.00 Build 51448)  -->
<!DOCTYPE svg PUBLIC "-//W3C//DTD SVG 1.1//EN" "http://www.w3.org/Graphics/SVG/1.1/DTD/svg11.dtd" [
	<!ENTITY ns_svg "http://www.w3.org/2000/svg">
	<!ENTITY ns_xlink "http://www.w3.org/1999/xlink">
]>
<svg  version="1.1" id="レイヤー_1" xmlns="&ns_svg;" xmlns:xlink="&ns_xlink;" width="20" height="20" viewBox="0 0 20 20"
	 overflow="visible" enable-background="new 0 0 20 20" xml:space="preserve">
<path fill="#B2B2B2" d="M0,3v14c0,1.654,1.197,3,2.668,3h6.664c0.735,0,1.445-0.346,1.947-0.947C11.744,18.494,12,17.766,12,17v-3
	c0-0.553-0.447-1-1-1s-1,0.447-1,1v3c0,0.572-0.353,1-0.668,1H2.668C2.353,18,2,17.572,2,17V3c0-0.572,0.353-1,0.668-1h6.664
	C9.647,2,10,2.428,10,3v3c0,0.552,0.447,1,1,1s1-0.448,1-1V3c0-1.654-1.197-3-2.668-3H2.668C1.197,0,0,1.346,0,3z M14.219,14.375
	C14.072,14.56,14,14.78,14,14.999c0,0.294,0.129,0.584,0.375,0.782c0.432,0.345,1.061,0.274,1.406-0.156l4-5
	c0.292-0.365,0.292-0.884,0-1.25l-4-5c-0.346-0.431-0.975-0.501-1.406-0.156C14.129,4.417,14,4.708,14,5
	c0,0.219,0.072,0.44,0.219,0.624c0,0,1.605,2.007,2.701,3.375H4c-0.553,0-1,0.448-1,1c0,0.553,0.447,1,1,1h12.92
	C15.824,12.369,14.219,14.375,14.219,14.375z"/>
</svg>
