<?xml version="1.0" encoding="utf-8"?>
<!-- Generator: Adobe Illustrator 12.0.0, SVG Export Plug-In . SVG Version: 6.00 Build 51448)  -->
<!DOCTYPE svg PUBLIC "-//W3C//DTD SVG 1.1//EN" "http://www.w3.org/Graphics/SVG/1.1/DTD/svg11.dtd" [
	<!ENTITY ns_svg "http://www.w3.org/2000/svg">
	<!ENTITY ns_xlink "http://www.w3.org/1999/xlink">
]>
<svg  version="1.1" id="レイヤー_1" xmlns="&ns_svg;" xmlns:xlink="&ns_xlink;" width="140" height="24" viewBox="0 0 140 24"
	 overflow="visible" enable-background="new 0 0 140 24" xml:space="preserve">
<g>
	<g>
		<path fill="#3F3F3F" d="M32.124,8.671c0,0.48,0.107,0.877,0.299,1.191c0.195,0.313,0.459,0.571,0.795,0.775
			c0.335,0.204,0.724,0.371,1.162,0.501c0.438,0.13,0.902,0.252,1.379,0.366c0.642,0.155,1.271,0.326,1.893,0.513
			c0.624,0.187,1.18,0.446,1.67,0.776c0.479,0.33,0.87,0.759,1.176,1.289c0.297,0.529,0.445,1.209,0.445,2.039
			c0,0.848-0.163,1.578-0.488,2.193s-0.769,1.12-1.348,1.516c-0.57,0.395-1.246,0.688-2.035,0.879
			c-0.78,0.191-1.638,0.287-2.574,0.287c-0.429,0-0.87-0.026-1.314-0.079c-0.453-0.053-0.882-0.124-1.287-0.213
			c-0.414-0.089-0.782-0.19-1.113-0.305c-0.329-0.112-0.59-0.228-0.775-0.341v-1.813c0.292,0.145,0.629,0.277,1,0.398
			c0.371,0.12,0.755,0.223,1.155,0.308c0.392,0.085,0.795,0.151,1.192,0.199c0.412,0.048,0.792,0.072,1.143,0.072
			c0.576,0,1.128-0.049,1.65-0.147c0.531-0.098,0.987-0.259,1.387-0.487c0.391-0.229,0.713-0.54,0.936-0.935
			c0.234-0.395,0.351-0.89,0.351-1.484c0-0.488-0.1-0.892-0.31-1.209c-0.2-0.318-0.471-0.58-0.801-0.789
			c-0.343-0.206-0.735-0.375-1.18-0.506c-0.432-0.131-0.905-0.252-1.392-0.367c-0.645-0.146-1.271-0.31-1.891-0.494
			c-0.61-0.184-1.162-0.438-1.644-0.764c-0.484-0.325-0.874-0.745-1.162-1.258C30.144,10.272,30,9.617,30,8.818
			c0-0.831,0.152-1.545,0.454-2.144c0.317-0.598,0.73-1.093,1.253-1.484c0.524-0.391,1.13-0.68,1.813-0.868
			c0.692-0.188,1.418-0.281,2.197-0.281c0.878,0,1.705,0.084,2.47,0.251c0.753,0.167,1.456,0.385,2.101,0.654v1.846
			c-0.694-0.285-1.396-0.518-2.129-0.697c-0.727-0.179-1.514-0.273-2.342-0.281c-0.636,0-1.173,0.067-1.638,0.202
			c-0.458,0.134-0.844,0.325-1.146,0.574c-0.311,0.248-0.537,0.549-0.687,0.903C32.199,7.847,32.124,8.24,32.124,8.671z"/>
		<path fill="#3F3F3F" d="M51.138,19.415h-0.059c-0.156,0.195-0.352,0.39-0.586,0.581c-0.242,0.191-0.52,0.361-0.832,0.512
			c-0.312,0.151-0.658,0.271-1.027,0.358c-0.37,0.088-0.77,0.132-1.188,0.132c-0.566,0-1.094-0.084-1.566-0.251
			s-0.876-0.411-1.223-0.732c-0.346-0.322-0.61-0.715-0.795-1.179c-0.195-0.465-0.288-0.991-0.288-1.578
			c0-0.577,0.104-1.096,0.314-1.551c0.208-0.456,0.509-0.844,0.889-1.162c0.38-0.317,0.831-0.562,1.36-0.732
			c0.537-0.172,1.133-0.257,1.777-0.257c0.599,0.008,1.169,0.062,1.686,0.159c0.517,0.098,0.984,0.219,1.384,0.366h0.049v-0.806
			c0-0.316-0.015-0.595-0.062-0.838c-0.041-0.244-0.107-0.459-0.215-0.646c-0.215-0.39-0.548-0.712-1.016-0.967
			c-0.478-0.255-1.111-0.383-1.911-0.383c-0.594,0-1.155,0.054-1.679,0.162c-0.521,0.108-1.041,0.258-1.566,0.45V9.468
			c0.204-0.097,0.43-0.189,0.699-0.274c0.268-0.085,0.553-0.159,0.854-0.22c0.293-0.062,0.605-0.107,0.937-0.14
			c0.332-0.033,0.663-0.049,0.994-0.049c1.184,0,2.151,0.208,2.903,0.623c0.758,0.416,1.301,0.965,1.632,1.65
			c0.126,0.26,0.211,0.547,0.265,0.86c0.053,0.313,0.084,0.658,0.084,1.032v7.747h-1.606L51.138,19.415z M51.033,15.599
			c-0.35-0.097-0.766-0.19-1.25-0.28c-0.484-0.09-1.017-0.138-1.604-0.146c-0.807,0-1.445,0.172-1.906,0.512
			c-0.457,0.343-0.688,0.868-0.688,1.574c0,0.358,0.058,0.672,0.174,0.94c0.115,0.269,0.271,0.49,0.472,0.665
			c0.198,0.175,0.44,0.305,0.717,0.391c0.264,0.086,0.564,0.128,0.875,0.128c0.415,0,0.786-0.059,1.147-0.177
			c0.349-0.119,0.664-0.258,0.938-0.421c0.275-0.163,0.513-0.325,0.702-0.489c0.199-0.161,0.337-0.288,0.424-0.378V15.599z"/>
		<path fill="#3F3F3F" d="M64.283,9.085h2.496l-5.742,5.343l5.726,6.271H64.38l-5.645-6.183h-0.03v6.183h-1.91v-17.7h1.91v11.27
			h0.03L64.283,9.085z"/>
		<path fill="#3F3F3F" d="M74.599,19.342c0.634,0,1.212-0.05,1.733-0.152c0.533-0.102,1.05-0.246,1.566-0.434v1.581
			c-0.419,0.204-0.936,0.364-1.56,0.483c-0.614,0.118-1.282,0.178-1.993,0.178c-0.839,0-1.627-0.106-2.368-0.318
			c-0.739-0.211-1.378-0.553-1.919-1.025s-0.963-1.089-1.267-1.85c-0.311-0.762-0.464-1.68-0.464-2.754
			c0-1.059,0.153-1.977,0.447-2.753c0.302-0.778,0.691-1.427,1.188-1.949c0.496-0.52,1.061-0.911,1.702-1.172
			c0.643-0.261,1.319-0.391,2.019-0.391c0.657,0,1.273,0.108,1.842,0.324c0.579,0.216,1.071,0.556,1.501,1.021
			c0.414,0.464,0.752,1.063,0.985,1.797c0.25,0.733,0.363,1.613,0.363,2.641c0,0.098,0,0.181,0,0.25s-0.006,0.227-0.006,0.471H70.24
			c0,0.738,0.115,1.365,0.341,1.881c0.223,0.516,0.537,0.934,0.925,1.254c0.395,0.32,0.851,0.554,1.38,0.7
			C73.419,19.27,73.984,19.342,74.599,19.342z M73.589,10.415c-0.442,0-0.859,0.085-1.24,0.256c-0.371,0.17-0.708,0.402-0.995,0.695
			s-0.51,0.636-0.689,1.031c-0.178,0.394-0.286,0.815-0.326,1.262h6.021c0-0.455-0.063-0.88-0.186-1.274
			c-0.114-0.395-0.295-0.738-0.532-1.032c-0.227-0.292-0.521-0.522-0.866-0.689C74.438,10.499,74.037,10.415,73.589,10.415z"/>
		<path fill="#3F3F3F" d="M83.484,10.699h0.041c0.215-0.268,0.448-0.518,0.707-0.75c0.26-0.232,0.553-0.435,0.875-0.609
			c0.32-0.176,0.674-0.312,1.055-0.409c0.385-0.098,0.802-0.146,1.26-0.146c0.535,0,1.045,0.073,1.51,0.22
			c0.469,0.146,0.878,0.384,1.223,0.709c0.354,0.326,0.622,0.751,0.826,1.277c0.2,0.525,0.3,1.171,0.3,1.937v7.77h-1.911v-7.463
			c0-1-0.202-1.721-0.588-2.161c-0.396-0.44-0.959-0.66-1.711-0.66c-0.668,0-1.307,0.181-1.932,0.542
			c-0.614,0.361-1.146,0.858-1.596,1.491v8.25h-1.91V9.085h1.481L83.484,10.699z"/>
		<path fill="#3F3F3F" d="M105.482,14.904c0,0.912-0.136,1.742-0.398,2.491c-0.264,0.749-0.637,1.39-1.121,1.923
			c-0.482,0.533-1.064,0.947-1.745,1.24c-0.694,0.293-1.452,0.439-2.312,0.439c-0.871,0-1.658-0.146-2.346-0.439
			s-1.273-0.707-1.756-1.24c-0.483-0.533-0.852-1.174-1.106-1.923c-0.262-0.749-0.384-1.579-0.384-2.491
			c0-0.92,0.127-1.755,0.391-2.503c0.263-0.75,0.638-1.393,1.119-1.93c0.485-0.537,1.074-0.952,1.765-1.246
			c0.688-0.293,1.458-0.439,2.31-0.439c0.867,0,1.645,0.146,2.336,0.439c0.693,0.294,1.278,0.709,1.756,1.246
			c0.483,0.537,0.857,1.18,1.107,1.93C105.352,13.149,105.482,13.984,105.482,14.904z M103.473,14.904
			c0-0.717-0.086-1.353-0.266-1.91c-0.181-0.557-0.424-1.029-0.742-1.415c-0.316-0.387-0.694-0.679-1.133-0.879
			c-0.439-0.199-0.916-0.299-1.434-0.299c-0.525,0-1.004,0.1-1.44,0.299c-0.43,0.2-0.808,0.492-1.13,0.879
			c-0.322,0.386-0.567,0.858-0.748,1.415c-0.17,0.557-0.266,1.193-0.266,1.91c0,0.707,0.096,1.34,0.266,1.896
			c0.181,0.558,0.428,1.027,0.749,1.41c0.322,0.382,0.702,0.673,1.142,0.872c0.438,0.199,0.916,0.299,1.436,0.299
			c0.523,0,1-0.1,1.434-0.299s0.809-0.49,1.125-0.872c0.318-0.383,0.562-0.853,0.742-1.41
			C103.387,16.244,103.473,15.611,103.473,14.904z"/>
		<path fill="#3F3F3F" d="M118.116,20.698h-1.921v-7.463c0-0.503-0.056-0.934-0.168-1.288c-0.111-0.354-0.273-0.645-0.482-0.873
			c-0.211-0.228-0.459-0.395-0.756-0.501c-0.288-0.106-0.617-0.159-0.979-0.159c-0.691,0-1.312,0.181-1.873,0.542
			c-0.561,0.361-1.066,0.858-1.504,1.491v8.25h-1.922V9.085h1.492l0.367,1.614h0.034c0.214-0.268,0.45-0.518,0.699-0.75
			c0.249-0.232,0.531-0.435,0.838-0.609c0.317-0.176,0.649-0.312,1.021-0.409c0.371-0.098,0.779-0.146,1.217-0.146
			c0.873,0,1.599,0.208,2.173,0.622c0.582,0.415,1.022,0.98,1.335,1.696h0.051c0.525-0.724,1.121-1.291,1.785-1.702
			c0.673-0.411,1.449-0.616,2.353-0.616c0.405,0,0.845,0.057,1.304,0.171c0.467,0.114,0.896,0.324,1.274,0.629
			c0.39,0.306,0.712,0.728,0.967,1.265c0.267,0.538,0.386,1.23,0.386,2.078v7.77h-1.911v-7.463c0-0.503-0.057-0.934-0.169-1.288
			c-0.111-0.354-0.273-0.645-0.482-0.873c-0.21-0.228-0.457-0.395-0.756-0.501c-0.29-0.106-0.612-0.159-0.987-0.159
			c-0.684,0-1.306,0.181-1.876,0.542c-0.561,0.361-1.07,0.858-1.509,1.491V20.698z"/>
		<path fill="#3F3F3F" d="M140,14.904c0,0.912-0.133,1.742-0.399,2.491c-0.264,0.749-0.637,1.39-1.12,1.923
			c-0.482,0.533-1.065,0.947-1.748,1.24c-0.684,0.293-1.453,0.439-2.303,0.439c-0.877,0-1.652-0.146-2.349-0.439
			c-0.691-0.293-1.276-0.707-1.76-1.24s-0.852-1.174-1.104-1.923c-0.251-0.749-0.385-1.579-0.385-2.491
			c0-0.92,0.134-1.755,0.4-2.503c0.262-0.75,0.635-1.393,1.117-1.93c0.483-0.537,1.068-0.952,1.756-1.246
			c0.688-0.293,1.461-0.439,2.311-0.439c0.867,0,1.644,0.146,2.336,0.439c0.7,0.294,1.289,0.709,1.766,1.246s0.844,1.18,1.098,1.93
			C139.869,13.149,140,13.984,140,14.904z M137.99,14.904c0-0.717-0.086-1.353-0.267-1.91c-0.171-0.557-0.424-1.029-0.741-1.415
			c-0.316-0.387-0.695-0.679-1.133-0.879c-0.438-0.199-0.917-0.299-1.434-0.299c-0.518,0-0.994,0.1-1.434,0.299
			c-0.439,0.2-0.816,0.492-1.134,0.879c-0.317,0.386-0.571,0.858-0.741,1.415c-0.181,0.557-0.264,1.193-0.264,1.91
			c0,0.707,0.083,1.34,0.264,1.896c0.17,0.558,0.426,1.027,0.748,1.41c0.322,0.382,0.702,0.673,1.137,0.872
			c0.434,0.199,0.915,0.299,1.438,0.299c0.518,0,0.993-0.1,1.427-0.299c0.435-0.199,0.81-0.49,1.126-0.872
			c0.317-0.383,0.57-0.853,0.741-1.41C137.904,16.244,137.99,15.611,137.99,14.904z"/>
	</g>
	<path fill="#CD0000" d="M19.616,8.676c0,0-0.543,0.179-1.429,0.469c0.017-0.321,0.007-0.632-0.027-0.971
		c-0.043-0.436-0.13-0.857-0.261-1.257c-0.343-1.055-0.973-1.964-1.816-2.587c-0.974-0.717-2.152-0.986-3.315-0.751l-0.059,0.015
		c-1.76,0.512-2.55,1.553-2.989,2.672c-0.767-0.58-1.706-0.775-2.675-0.52C4.99,6.285,3.788,8.887,4.363,11.543
		c0.023,0.109,0.482,1.601,0.371,1.693c0.023,0.33-0.826,0.596-0.826,0.596c-1.788,0.587-1.953,0.109-2.086-0.273
		c-0.435-1.268-0.37-4.142,1.145-6.563C4.342,4.792,6.578,2.97,8.795,2.242c2.892-0.949,5.231-0.833,7.59,0.372
		c1.468,0.751,3.854,2.467,4.562,3.934c0.19,0.398,0.668,0.565,1.067,0.373c0.398-0.191,0.565-0.67,0.375-1.069
		c-0.996-2.064-3.887-3.953-5.274-4.664c-2.77-1.416-5.489-1.558-8.818-0.466C5.737,1.563,3.175,3.639,1.61,6.146
		c-1.896,3.031-1.803,6.476-1.299,7.932c0.392,1.141,1.202,1.496,1.813,1.594c0.613,0.098,1.316,0,2.285-0.318
		c0,0,0.659-0.232,0.905-0.426c0.874-0.676,0.956-1.545,0.826-2.204c-0.097-0.473-0.166-0.813-0.261-1.106
		c-0.074-0.231-0.105-0.375-0.106-0.379C5.362,9.357,6.113,7.48,7.412,7.14C8.22,6.927,8.917,7.25,9.431,8.071l0.913,1.462
		l0.398-1.677c0.361-1.512,0.841-2.422,2.332-2.867c0.961-0.188,1.7,0.167,2.153,0.5c0.6,0.445,1.051,1.1,1.302,1.87
		c0.097,0.302,0.165,0.625,0.199,0.958c0.044,0.454,0.035,0.833-0.035,1.32c-2.848,0.933-7.857,2.324-9.207,3.268
		c-0.67,0.441-0.797,1.246-0.813,1.552c-0.088,0.508,0.246,1.279,0.961,1.926l0.063,0.059c3.509,3.168,4.221,4.07,4.249,4.106
		c0.302,0.401,0.699,0.425,0.969,0.311c0.216-0.091,0.426-0.306,0.461-0.644c0.113-0.254,1.952-4.352,1.952-4.352l0.005-0.009
		c0.048-0.123,0.157-0.339,0.226-0.452c0.173-0.289,1.703-2.841,2.045-3.675c0.125-0.305,0.216-0.55,0.292-0.801
		c1.34-0.441,2.219-0.729,2.219-0.729c1.78-0.584,2.044,0.171,2.132,0.419c0.283,0.814,0.318,3.977-1.293,6.614
		c-1.34,2.191-3.37,3.785-5.868,4.605c-2.573,0.844-5.042,0.732-7.341-0.327c-1.972-0.909-4.212-3.044-4.759-4.04
		c-0.214-0.39-0.699-0.53-1.086-0.316c-0.387,0.211-0.529,0.699-0.316,1.086c0.746,1.359,3.309,3.719,5.491,4.725
		c2.679,1.235,5.541,1.367,8.51,0.393c2.867-0.941,5.197-2.77,6.735-5.291c1.733-2.836,1.95-6.516,1.438-7.977
		C23.21,8.531,21.662,8.005,19.616,8.676z M14.326,14.66c-0.105,0.172-0.238,0.438-0.316,0.629c-0.034,0.07-1.125,2.502-1.622,3.607
		c-0.616-0.637-1.735-1.729-3.723-3.525l-0.064-0.058c-0.462-0.417-0.646-0.71-0.332-1.036c0.409-0.471,5.186-1.894,7.849-2.767
		C15.696,12.348,14.718,14.006,14.326,14.66z"/>
</g>
</svg>
