<?xml version="1.0" encoding="utf-8"?>
<!-- Generator: Adobe Illustrator 12.0.0, SVG Export Plug-In . SVG Version: 6.00 Build 51448)  -->
<!DOCTYPE svg PUBLIC "-//W3C//DTD SVG 1.1//EN" "http://www.w3.org/Graphics/SVG/1.1/DTD/svg11.dtd" [
	<!ENTITY ns_svg "http://www.w3.org/2000/svg">
	<!ENTITY ns_xlink "http://www.w3.org/1999/xlink">
]>
<svg  version="1.1" id="レイヤー_1" xmlns="&ns_svg;" xmlns:xlink="&ns_xlink;" width="26" height="20" viewBox="0 0 26 20"
	 overflow="visible" enable-background="new 0 0 26 20" xml:space="preserve">
<path fill="#B2B2B2" d="M25.938,2.849c-0.12-0.58-0.383-1.109-0.745-1.546c-0.077-0.095-0.157-0.181-0.245-0.267
	C24.3,0.398,23.393,0,22.398,0H3.605C2.613,0,1.708,0.398,1.058,1.036C0.971,1.121,0.891,1.208,0.813,1.302
	C0.445,1.74,0.183,2.269,0.072,2.849C0.022,3.07,0,3.302,0,3.535v12.932c0,0.495,0.105,0.973,0.3,1.403
	c0.177,0.41,0.438,0.782,0.758,1.095c0.079,0.078,0.16,0.152,0.251,0.224C1.93,19.695,2.733,20,3.605,20h18.793
	c0.868,0,1.68-0.305,2.301-0.816c0.088-0.066,0.168-0.141,0.248-0.219c0.319-0.313,0.58-0.685,0.762-1.095v-0.003
	c0.189-0.43,0.291-0.905,0.291-1.4V3.535C26,3.302,25.978,3.07,25.938,2.849z M2.36,2.314C2.686,2,3.116,1.809,3.605,1.809h18.793
	c0.487,0,0.926,0.191,1.243,0.506c0.056,0.057,0.112,0.119,0.157,0.182l-9.849,8.41c-0.271,0.232-0.603,0.348-0.95,0.348
	c-0.338,0-0.675-0.115-0.946-0.348L2.209,2.492C2.251,2.43,2.307,2.371,2.36,2.314z M1.842,16.467V4.363l7.129,6.092L1.85,16.542
	C1.842,16.52,1.842,16.492,1.842,16.467z M22.398,18.191H3.605c-0.319,0-0.615-0.082-0.872-0.226l7.517-6.419l0.698,0.599
	c0.591,0.5,1.325,0.753,2.052,0.753c0.733,0,1.47-0.253,2.054-0.753l0.7-0.599l7.513,6.419
	C23.016,18.109,22.718,18.191,22.398,18.191z M24.157,16.467c0,0.025,0,0.053-0.002,0.075l-7.124-6.083l7.126-6.092V16.467z"/>
</svg>
