<?xml version="1.0" encoding="utf-8"?>
<!-- Generator: Adobe Illustrator 12.0.0, SVG Export Plug-In  -->
<!DOCTYPE svg PUBLIC "-//W3C//DTD SVG 1.1//EN" "http://www.w3.org/Graphics/SVG/1.1/DTD/svg11.dtd" [
	<!ENTITY ns_flows "http://ns.adobe.com/Flows/1.0/">
	<!ENTITY ns_svg "http://www.w3.org/2000/svg">
	<!ENTITY ns_xlink "http://www.w3.org/1999/xlink">
]>
<svg  version="1.1" xmlns="&ns_svg;" xmlns:xlink="&ns_xlink;" xmlns:a="http://ns.adobe.com/AdobeSVGViewerExtensions/3.0/"
	 width="32" height="26" viewBox="-0.861 -0.872 36 31" enable-background="new -0.861 -0.872 36 31" xml:space="preserve">
<defs>
</defs>
<path fill="#3F3F3F" d="M6.139,21.853C2.591,21.853,0,22.225,0,22.686c0,0.031,0.018,0.064,0.043,0.096
	c-0.002,0.545,0.033,3.426,1.064,4.588c0.686,0.77,1.619,1.197,2.502,1.436v0.764H3.574c0.043,0.133,1.208,0.284,2.641,0.284
	c1.459,0,2.642-0.132,2.642-0.296c0-0.012-0.019-0.025-0.019-0.037v-0.76c0.811-0.252,1.664-0.688,2.334-1.439
	c0.999-1.121,1.057-3.861,1.057-4.533c0.029-0.033,0.049-0.068,0.049-0.102C12.277,22.225,9.687,21.853,6.139,21.853z
	 M34.231,21.238l-0.09-0.033l0.027-0.029c0,0-1.037-1.572-2.618-3.633c-1.405,1.967-2.946,3.695-4.375,5.125
	c-0.904,0.902-1.76,1.684-2.507,2.33c-1.131,0.979-2.12,1.748-2.854,2.285c2.062,1.578,3.63,2.615,3.63,2.615l0.029-0.029
	l0.029,0.092c0.325,0.324,2.538-1.369,4.948-3.779C32.86,23.773,34.556,21.562,34.231,21.238z M30.733,16.496
	c-1.534-1.931-3.427-4.104-5.343-5.79c-3.012-2.651-6.737-4.182-9.219-4.95c-0.909,1.178-1.86,2.24-2.781,3.163
	c-0.944,0.947-1.855,1.752-2.655,2.406c-0.245,0.199-0.481,0.388-0.714,0.567c0.771,2.484,2.302,6.214,4.954,9.228
	c1.688,1.918,3.862,3.811,5.794,5.346C22.719,25.055,27.253,21.479,30.733,16.496z M6.198,7.268
	c0.891,0.179,3.026,0.891,3.205,2.138c0.031,0.226,0.107,0.611,0.232,1.114c1.602-1.29,3.465-3.02,5.172-5.146
	c-0.511-0.127-0.901-0.204-1.129-0.236c-1.246-0.179-1.96-2.317-2.139-3.208c-0.178-0.889-1.024-1.914-1.024-1.914L10.5,0.03
	l-0.002-0.004C10.276-0.195,8.714,1.01,7.004,2.72C5.294,4.428,4.089,5.993,4.31,6.213l0.003,0.002L4.284,6.244
	C4.284,6.244,5.308,7.09,6.198,7.268z"/>
</svg>
