<?xml version="1.0" encoding="utf-8"?>
<!-- Generator: Adobe Illustrator 12.0.0, SVG Export Plug-In . SVG Version: 6.00 Build 51448)  -->
<!DOCTYPE svg PUBLIC "-//W3C//DTD SVG 1.1//EN" "http://www.w3.org/Graphics/SVG/1.1/DTD/svg11.dtd" [
	<!ENTITY ns_svg "http://www.w3.org/2000/svg">
	<!ENTITY ns_xlink "http://www.w3.org/1999/xlink">
]>
<svg  version="1.1" id="レイヤー_1" xmlns="&ns_svg;" xmlns:xlink="&ns_xlink;" width="24" height="20" viewBox="0 0 24 20"
	 overflow="visible" enable-background="new 0 0 24 20" xml:space="preserve">
<path fill="#666666" d="M23.941,2.849c-0.11-0.58-0.352-1.109-0.687-1.547c-0.071-0.095-0.146-0.181-0.227-0.266
	C22.431,0.398,21.594,0,20.676,0H3.328C2.412,0,1.577,0.398,0.976,1.036C0.896,1.121,0.822,1.207,0.751,1.302
	C0.41,1.739,0.169,2.269,0.066,2.849C0.021,3.069,0,3.302,0,3.535v12.931c0,0.496,0.098,0.974,0.276,1.404
	c0.163,0.41,0.404,0.782,0.699,1.095c0.073,0.078,0.148,0.151,0.231,0.224C1.781,19.695,2.522,20,3.328,20h17.348
	c0.802,0,1.551-0.305,2.123-0.816c0.082-0.067,0.156-0.141,0.229-0.219c0.295-0.313,0.536-0.685,0.703-1.095v-0.003
	C23.906,17.437,24,16.962,24,16.466V3.535C24,3.302,23.979,3.069,23.941,2.849z M2.179,2.314C2.479,2,2.876,1.808,3.328,1.808
	h17.348c0.45,0,0.854,0.192,1.147,0.506c0.052,0.057,0.104,0.119,0.146,0.182l-9.091,8.41c-0.252,0.231-0.558,0.348-0.878,0.348
	c-0.313,0-0.622-0.116-0.874-0.348L2.039,2.492C2.077,2.43,2.129,2.371,2.179,2.314z M1.7,16.466V4.363l6.581,6.091l-6.574,6.088
	C1.7,16.52,1.7,16.492,1.7,16.466z M20.676,18.191H3.328c-0.294,0-0.568-0.083-0.806-0.226l6.938-6.419l0.646,0.599
	c0.545,0.5,1.224,0.753,1.894,0.753c0.677,0,1.356-0.253,1.896-0.753l0.647-0.599l6.935,6.419
	C21.246,18.108,20.97,18.191,20.676,18.191z M22.3,16.466c0,0.026,0,0.054-0.002,0.076l-6.577-6.083L22.3,4.366V16.466z"/>
</svg>
