<?xml version="1.0" encoding="utf-8"?>
<!-- Generator: Adobe Illustrator 12.0.0, SVG Export Plug-In  -->
<!DOCTYPE svg PUBLIC "-//W3C//DTD SVG 1.1//EN" "http://www.w3.org/Graphics/SVG/1.1/DTD/svg11.dtd" [
	<!ENTITY ns_flows "http://ns.adobe.com/Flows/1.0/">
	<!ENTITY ns_svg "http://www.w3.org/2000/svg">
	<!ENTITY ns_xlink "http://www.w3.org/1999/xlink">
]>
<svg  version="1.1" xmlns="&ns_svg;" xmlns:xlink="&ns_xlink;" xmlns:a="http://ns.adobe.com/AdobeSVGViewerExtensions/3.0/"
	 width="41" height="41" viewBox="-0.203 -0.036 41 41" enable-background="new -0.203 -0.036 41 41" xml:space="preserve">
<defs>
</defs>
<path fill="#8D8C8C" d="M34.394,11.491c-0.002-0.003-0.003-0.006-0.006-0.008l-5.874-5.876c-0.002-0.003-0.006-0.003-0.009-0.006
	l-0.466-0.467C27.83,4.926,27.525,4.955,27.361,5.2l-0.62,0.925c-0.164,0.245-0.127,0.616,0.08,0.824l0.06,0.059l-3.389,1.916
	l-0.1,1.093c-2.591,1.45-5.731,3.327-6.51,4.105C15.847,15.158,5.556,25.451,5.556,25.451C5.2,25.807,5,26.29,5,26.794
	c0,0.502,0.2,0.986,0.556,1.342l3.155,3.156l3.146,3.147c0.356,0.354,0.839,0.556,1.342,0.556c0.504-0.001,0.985-0.202,1.343-0.557
	c0,0,10.299-10.284,11.335-11.32c0.779-0.779,2.655-3.921,4.104-6.513l1.092-0.1l1.915-3.389l0.059,0.059
	c0.208,0.208,0.579,0.244,0.824,0.08l0.925-0.62c0.245-0.164,0.274-0.47,0.065-0.678L34.394,11.491z M13.535,33.43
	c-0.091,0.09-0.21,0.141-0.337,0.14c-0.128,0-0.245-0.049-0.335-0.139l-6.301-6.303c-0.089-0.089-0.139-0.208-0.139-0.335
	c0-0.127,0.05-0.246,0.139-0.336c0,0,2.271-2.271,4.788-4.788l6.975,6.978C15.834,31.134,13.582,33.383,13.535,33.43z
	 M29.121,15.229c-1.467,2.662-3.559,6.189-4.252,6.883c-0.155,0.155-0.523,0.523-1.034,1.035l-6.98-6.982
	c0.512-0.512,0.879-0.878,1.035-1.035c0.692-0.693,4.22-2.787,6.882-4.254l0.615-0.056l-0.189,2.085l2.085-0.189L27.093,14.8
	l2.084-0.189L29.121,15.229z M36,0H4C1.8,0,0,1.8,0,4v32c0,2.2,1.8,4,4,4h32c2.2,0,4-1.8,4-4V4C40,1.8,38.2,0,36,0z M36,35
	c0,0.55-0.45,1-1,1H5c-0.55,0-1-0.45-1-1V5c0-0.55,0.45-1,1-1h30c0.55,0,1,0.45,1,1V35z"/>
</svg>
