<?xml version="1.0" encoding="utf-8"?>
<!-- Generator: Adobe Illustrator 12.0.0, SVG Export Plug-In  -->
<!DOCTYPE svg PUBLIC "-//W3C//DTD SVG 1.1//EN" "http://www.w3.org/Graphics/SVG/1.1/DTD/svg11.dtd" [
	<!ENTITY ns_flows "http://ns.adobe.com/Flows/1.0/">
	<!ENTITY ns_svg "http://www.w3.org/2000/svg">
	<!ENTITY ns_xlink "http://www.w3.org/1999/xlink">
]>
<svg  version="1.1" xmlns="&ns_svg;" xmlns:xlink="&ns_xlink;" xmlns:a="http://ns.adobe.com/AdobeSVGViewerExtensions/3.0/"
	 width="17" height="21" viewBox="-0.87 -0.924 17 21" enable-background="new -0.87 -0.924 17 21" xml:space="preserve">
<defs>
</defs>
<path fill="#B1B1B2" d="M5.182,9.304c1.248,0.586,3.396,1.113,4.056,0.874c0.903-0.332,3.581-3.696,3.581-4.546L12.74,5.49
	l-0.117-0.205c0,0-0.742-1.367-0.842-1.548c-0.145,0.176-3.096,3.857-3.096,3.857s-4.448-0.95-4.668-1
	c0.074,0.424,0.344,1.923,0.346,1.967c0,0,0.008,0.129,0.008,0.17c0,0.006,0,0.01-0.002,0.01C4.398,8.815,4.594,9.025,5.182,9.304z
	 M13.553,0C12.486,0.041,6.26,0.277,6.26,0.261c-0.002,0-5.629,4.429-5.885,4.626c0.316,0.066,7.912,1.68,8.008,1.699
	C8.443,6.515,13.35,0.256,13.553,0z M0,5.397l1.256,5.049l0.938,1.307L2.08,10.144L0,5.397z M15.818,18.366l-1.381-1.14l0.1-0.128
	c0.451-0.603,0.799-1.276,1.023-2.01c0.236-0.737,0.355-1.563,0.355-2.46c0-1.001-0.156-1.923-0.453-2.746
	c-0.299-0.816-0.718-1.522-1.256-2.103c-0.277-0.308-0.615-0.569-0.98-0.818c-0.299,0.49-0.689,1.043-1.138,1.602
	c0.222,0.189,0.63,0.542,0.63,0.542c0.338,0.41,0.607,0.917,0.803,1.51c0.189,0.587,0.286,1.267,0.286,2.014
	c0,0.656-0.071,1.251-0.208,1.777l-0.281,0.811c-0.109,0.205-0.297,0.342-0.5,0.387c-0.217,0.041-0.43-0.018-0.607-0.165
	l-0.396-0.329c-0.102-0.083-0.234-0.122-0.363-0.109c-0.139,0.013-0.256,0.082-0.348,0.186l-0.59,0.734
	c-0.178,0.22-0.139,0.538,0.078,0.714l0.703,0.58l-0.313,0.09c-0.352,0.105-0.723,0.153-1.082,0.153c-0.57,0-1.1-0.112-1.574-0.336
	c-0.488-0.22-0.898-0.549-1.248-0.962c-0.336-0.415-0.609-0.927-0.803-1.521C6.094,14.05,6,13.372,6,12.629
	c0-0.728,0.094-1.392,0.275-1.969c-0.75-0.224-1.434-0.493-1.945-0.763c-0.299,0.816-0.449,1.732-0.449,2.731
	c0,0.997,0.148,1.922,0.449,2.742c0.295,0.813,0.715,1.53,1.24,2.11c0.529,0.577,1.16,1.038,1.896,1.357
	c0.736,0.322,1.557,0.484,2.439,0.484c0.547,0,1.061-0.059,1.535-0.176l0.797-0.27c0.396-0.188,0.971-0.117,1.314,0.16l1.023,0.849
	c0.104,0.085,0.234,0.124,0.369,0.11c0.139-0.013,0.258-0.078,0.342-0.186l0.598-0.729C16.063,18.862,16.033,18.542,15.818,18.366z"
	/>
</svg>
