<?xml version="1.0" encoding="utf-8"?>
<!-- Generator: Adobe Illustrator 12.0.0, SVG Export Plug-In  -->
<!DOCTYPE svg PUBLIC "-//W3C//DTD SVG 1.1//EN" "http://www.w3.org/Graphics/SVG/1.1/DTD/svg11.dtd" [
	<!ENTITY ns_flows "http://ns.adobe.com/Flows/1.0/">
	<!ENTITY ns_svg "http://www.w3.org/2000/svg">
	<!ENTITY ns_xlink "http://www.w3.org/1999/xlink">
]>
<svg  version="1.1" xmlns="&ns_svg;" xmlns:xlink="&ns_xlink;" xmlns:a="http://ns.adobe.com/AdobeSVGViewerExtensions/3.0/"
	 width="21" height="21" viewBox="-0.871 -0.032 21 21" enable-background="new -0.871 -0.032 21 21" xml:space="preserve">
<defs>
</defs>
<path fill="#B1B1B2" d="M10,18H2V2h8v5h2V2c0-1.1-0.901-2-2-2H2C0.9,0,0,0.9,0,2v16c0,1.102,0.9,2,2,2h8c1.099,0,2-0.898,2-2v-5h-2
	V18z M19.707,9.293l-5-5c-0.391-0.391-1.023-0.391-1.414,0C13.098,4.488,13,4.744,13,5s0.098,0.512,0.293,0.707
	c0,0,1.93,1.93,3.293,3.293H6c-0.553,0-1,0.448-1,1c0,0.553,0.447,1,1,1h10.586c-1.363,1.363-3.293,3.293-3.293,3.293
	C13.098,14.488,13,14.744,13,15s0.098,0.512,0.293,0.707c0.391,0.391,1.023,0.391,1.414,0l5-5
	C20.098,10.316,20.098,9.684,19.707,9.293z"/>
</svg>
