<?xml version="1.0" encoding="utf-8"?>
<!-- Generator: Adobe Illustrator 12.0.0, SVG Export Plug-In  -->
<!DOCTYPE svg PUBLIC "-//W3C//DTD SVG 1.1//EN" "http://www.w3.org/Graphics/SVG/1.1/DTD/svg11.dtd" [
	<!ENTITY ns_flows "http://ns.adobe.com/Flows/1.0/">
	<!ENTITY ns_svg "http://www.w3.org/2000/svg">
	<!ENTITY ns_xlink "http://www.w3.org/1999/xlink">
]>
<svg  version="1.1" xmlns="&ns_svg;" xmlns:xlink="&ns_xlink;" xmlns:a="http://ns.adobe.com/AdobeSVGViewerExtensions/3.0/"
	 width="21" height="21" viewBox="-0.419 -0.195 21 21" enable-background="new -0.419 -0.195 21 21" xml:space="preserve">
<defs>
</defs>
<path fill="#B1B1B2" d="M10.002,0C4.479,0,0,4.479,0,10s4.479,10,10.002,10C15.521,20,20,15.521,20,10S15.521,0,10.002,0z
	 M11.004,17.08c-0.295,0.264-0.643,0.393-1.029,0.393c-0.402,0-0.752-0.129-1.051-0.389c-0.301-0.259-0.449-0.624-0.449-1.09
	c0-0.415,0.145-0.764,0.434-1.046c0.289-0.283,0.646-0.426,1.066-0.426c0.416,0,0.764,0.143,1.047,0.426
	c0.283,0.282,0.424,0.631,0.424,1.046C11.445,16.456,11.299,16.816,11.004,17.08z M14.691,7.938c-0.229,0.421-0.5,0.784-0.813,1.093
	c-0.314,0.304-0.873,0.82-1.682,1.543c-0.225,0.203-0.404,0.385-0.541,0.537c-0.133,0.155-0.232,0.298-0.299,0.425
	c-0.066,0.131-0.117,0.258-0.154,0.387c-0.039,0.129-0.088,0.354-0.162,0.676c-0.125,0.683-0.516,1.026-1.176,1.026
	c-0.344,0-0.631-0.111-0.863-0.334c-0.236-0.227-0.352-0.558-0.352-0.998c0-0.554,0.088-1.031,0.258-1.437
	C9.08,10.45,9.307,10.095,9.59,9.79c0.283-0.308,0.666-0.671,1.143-1.092c0.426-0.37,0.729-0.646,0.916-0.836
	c0.188-0.188,0.346-0.396,0.471-0.625c0.135-0.231,0.195-0.48,0.195-0.751c0-0.526-0.195-0.971-0.586-1.334
	c-0.391-0.361-0.898-0.543-1.518-0.543c-0.723,0-1.256,0.184-1.6,0.55c-0.34,0.364-0.633,0.903-0.867,1.613
	C7.52,7.515,7.096,7.887,6.471,7.887c-0.367,0-0.68-0.128-0.934-0.388C5.283,7.238,5.158,6.957,5.158,6.653
	c0-0.625,0.203-1.257,0.598-1.9c0.406-0.641,0.992-1.172,1.762-1.596c0.773-0.418,1.67-0.631,2.693-0.631
	c0.953,0,1.795,0.177,2.529,0.529c0.727,0.351,1.293,0.83,1.693,1.436c0.398,0.605,0.596,1.264,0.596,1.976
	C15.029,7.024,14.916,7.515,14.691,7.938z"/>
</svg>
