<?xml version="1.0" encoding="utf-8"?>
<!-- Generator: Adobe Illustrator 12.0.0, SVG Export Plug-In . SVG Version: 6.00 Build 51448)  -->
<!DOCTYPE svg PUBLIC "-//W3C//DTD SVG 1.1//EN" "http://www.w3.org/Graphics/SVG/1.1/DTD/svg11.dtd" [
	<!ENTITY ns_svg "http://www.w3.org/2000/svg">
	<!ENTITY ns_xlink "http://www.w3.org/1999/xlink">
]>
<svg  version="1.1" id="muroka" xmlns="&ns_svg;" xmlns:xlink="&ns_xlink;" width="40" height="40" viewBox="0 0 40 40"
	 overflow="visible" enable-background="new 0 0 40 40" xml:space="preserve">
<path fill="#28809E" d="M10,14c0.753,0,1.504-0.287,2.074-0.859c1.148-1.146,0.844-2.831,0-4.15L10,6L7.926,8.99
	c-0.844,1.319-1.148,3.004,0,4.15C8.496,13.713,9.247,14,10,14z M10,26l-2.074,2.99c-0.844,1.319-1.148,3.004,0,4.15
	C8.496,33.713,9.247,34,10,34s1.504-0.287,2.074-0.859c1.148-1.146,0.844-2.831,0-4.15L10,26z M20,14
	c0.753,0,1.504-0.287,2.074-0.859c1.148-1.146,0.844-2.831,0-4.15L20,6l-2.074,2.99c-0.844,1.319-1.148,3.004,0,4.15
	C18.496,13.713,19.247,14,20,14z M20,26l-2.074,2.99c-0.844,1.319-1.148,3.004,0,4.15C18.496,33.713,19.247,34,20,34
	s1.504-0.287,2.074-0.859c1.148-1.146,0.844-2.831,0-4.15L20,26z M30,14c0.753,0,1.504-0.287,2.074-0.859
	c1.148-1.146,0.844-2.831,0-4.15L30,6l-2.074,2.99c-0.844,1.319-1.148,3.004,0,4.15C28.496,13.713,29.247,14,30,14z M30,16.044
	l-2.24,3.23c-0.812,1.266-1.216,3.056,0.051,4.318C28.394,24.178,29.172,24.5,30,24.5s1.606-0.322,2.19-0.908
	c1.266-1.262,0.861-3.052,0.06-4.303L30,16.044z M31.552,22.955c-0.413,0.415-0.965,0.643-1.552,0.643s-1.139-0.228-1.551-0.641
	c-0.389-0.389-0.542-0.861-0.542-1.351c0-0.633,0.258-1.294,0.603-1.831c0,0,1.015-1.464,1.49-2.149
	c0.477,0.687,1.5,2.163,1.5,2.163c0.339,0.529,0.594,1.186,0.594,1.815C32.094,22.094,31.94,22.567,31.552,22.955z M20,16.044
	l-2.24,3.23c-0.812,1.266-1.216,3.056,0.051,4.318C18.394,24.178,19.172,24.5,20,24.5s1.606-0.322,2.19-0.908
	c1.266-1.262,0.861-3.052,0.06-4.303L20,16.044z M21.552,22.955c-0.413,0.415-0.965,0.643-1.552,0.643s-1.139-0.228-1.551-0.641
	c-0.389-0.389-0.542-0.861-0.542-1.351c0-0.633,0.258-1.294,0.603-1.831c0,0,1.015-1.464,1.49-2.149
	c0.477,0.687,1.5,2.163,1.5,2.163c0.339,0.529,0.594,1.186,0.594,1.815C22.094,22.094,21.94,22.567,21.552,22.955z M10,16.044
	l-2.24,3.23c-0.812,1.266-1.216,3.056,0.051,4.318C8.394,24.178,9.172,24.5,10,24.5s1.606-0.322,2.19-0.908
	c1.266-1.262,0.861-3.052,0.06-4.303L10,16.044z M11.552,22.955c-0.413,0.415-0.965,0.643-1.552,0.643s-1.139-0.228-1.551-0.641
	c-0.389-0.389-0.542-0.861-0.542-1.351c0-0.633,0.258-1.294,0.603-1.831c0,0,1.015-1.464,1.49-2.149
	c0.477,0.687,1.5,2.163,1.5,2.163c0.339,0.529,0.594,1.186,0.594,1.815C12.094,22.094,11.94,22.567,11.552,22.955z M30,26
	l-2.074,2.99c-0.844,1.319-1.148,3.004,0,4.15C28.496,33.713,29.247,34,30,34s1.504-0.287,2.074-0.859
	c1.148-1.146,0.844-2.831,0-4.15L30,26z M36,0H4C1.8,0,0,1.8,0,4v32c0,2.2,1.8,4,4,4h32c2.2,0,4-1.8,4-4V4C40,1.8,38.2,0,36,0z
	 M36,35c0,0.55-0.45,1-1,1H5c-0.55,0-1-0.45-1-1V5c0-0.55,0.45-1,1-1h30c0.55,0,1,0.45,1,1V35z"/>
</svg>
