<?xml version="1.0" encoding="utf-8"?>
<!-- Generator: Adobe Illustrator 12.0.0, SVG Export Plug-In . SVG Version: 6.00 Build 51448)  -->
<!DOCTYPE svg PUBLIC "-//W3C//DTD SVG 1.1//EN" "http://www.w3.org/Graphics/SVG/1.1/DTD/svg11.dtd" [
	<!ENTITY ns_svg "http://www.w3.org/2000/svg">
	<!ENTITY ns_xlink "http://www.w3.org/1999/xlink">
]>
<svg  version="1.1" id="レイヤー_1" xmlns="&ns_svg;" xmlns:xlink="&ns_xlink;" width="20" height="20" viewBox="0 0 20 20"
	 overflow="visible" enable-background="new 0 0 20 20" xml:space="preserve">
<path fill="#666666" d="M20,17.644c-0.166-0.895-1.951-1.653-2.791-2.033l-3.618-1.453c-0.604-0.272-0.991-0.866-0.991-1.519v-0.523
	c0-0.248,0.042-0.494,0.125-0.729c0,0,2.275-2.984,2.275-5.735C15,2.211,12.761,0,10,0C7.238,0,5,2.211,5,5.651
	c0,2.751,2.275,5.735,2.275,5.735c0.082,0.234,0.124,0.48,0.124,0.729v0.523c0,0.652-0.387,1.246-0.99,1.519L2.792,15.61
	C1.951,15.99,0.165,16.749,0,17.644V20h10h10V17.644z"/>
</svg>
