<?xml version="1.0" encoding="utf-8"?>
<!-- Generator: Adobe Illustrator 12.0.0, SVG Export Plug-In . SVG Version: 6.00 Build 51448)  -->
<!DOCTYPE svg PUBLIC "-//W3C//DTD SVG 1.1//EN" "http://www.w3.org/Graphics/SVG/1.1/DTD/svg11.dtd" [
	<!ENTITY ns_svg "http://www.w3.org/2000/svg">
	<!ENTITY ns_xlink "http://www.w3.org/1999/xlink">
]>
<svg  version="1.1" id="nama" xmlns="&ns_svg;" xmlns:xlink="&ns_xlink;" width="40" height="40" viewBox="0 0 40 40"
	 overflow="visible" enable-background="new 0 0 40 40" xml:space="preserve">
<path fill="#42B2B2" d="M20.063,7l-6.746,9.715c-2.731,4.289-3.722,9.766,0,13.492C15.182,32.066,17.622,33,20.063,33
	s4.881-0.934,6.747-2.793c3.721-3.727,2.731-9.203,0-13.492L20.063,7z M13.823,26.97c-1.751-3.567,1.037-8.69,2.789-10.636
	c0,0-1.813,4.863,0.583,9.725C18.439,28.584,15.777,30.949,13.823,26.97z M36,0H4C1.8,0,0,1.8,0,4v32c0,2.2,1.8,4,4,4h32
	c2.2,0,4-1.8,4-4V4C40,1.8,38.2,0,36,0z M36,35c0,0.55-0.45,1-1,1H5c-0.55,0-1-0.45-1-1V5c0-0.55,0.45-1,1-1h30c0.55,0,1,0.45,1,1
	V35z"/>
</svg>
