<?xml version="1.0" encoding="utf-8"?>
<!-- Generator: Adobe Illustrator 12.0.0, SVG Export Plug-In . SVG Version: 6.00 Build 51448)  -->
<!DOCTYPE svg PUBLIC "-//W3C//DTD SVG 1.1//EN" "http://www.w3.org/Graphics/SVG/1.1/DTD/svg11.dtd" [
	<!ENTITY ns_svg "http://www.w3.org/2000/svg">
	<!ENTITY ns_xlink "http://www.w3.org/1999/xlink">
]>
<svg  version="1.1" id="namazume" xmlns="&ns_svg;" xmlns:xlink="&ns_xlink;" width="40" height="40" viewBox="0 0 40 40"
	 overflow="visible" enable-background="new 0 0 40 40" xml:space="preserve">
<path fill="#42B2B2" d="M36,0H4C1.8,0,0,1.8,0,4v32c0,2.2,1.8,4,4,4h32c2.2,0,4-1.8,4-4V4C40,1.8,38.2,0,36,0z M36,35
	c0,0.55-0.45,1-1,1H5c-0.55,0-1-0.45-1-1V5c0-0.55,0.45-1,1-1h30c0.55,0,1,0.45,1,1V35z M29.479,6.063l-0.941-0.038V6l-0.389,0.012
	L27.76,6v0.025l-0.938,0.038c0,4.021-0.006,7.366-1.714,10.282c-0.917,1.568-1.703,2.914-1.703,5.332v11.271
	c0,0.466,0.395,0.682,0.848,0.843c0,0,1.132,0.208,3.739,0.208c2.53,0,4.051-0.208,4.051-0.208c0.519-0.243,0.823-0.377,0.823-0.843
	V21.678c0-2.418-0.762-3.764-1.685-5.332C29.473,13.43,29.479,10.084,29.479,6.063z M13.999,14l-5.188,7.476
	c-2.103,3.297-2.864,7.512,0,10.376C10.245,33.284,12.123,34,13.999,34c1.878,0,3.756-0.716,5.19-2.148
	c2.863-2.864,2.103-7.079,0-10.376L13.999,14z M9.201,29.361c-1.347-2.744,0.797-6.683,2.145-8.179c0,0-1.395,3.739,0.448,7.48
	C12.751,30.604,10.704,32.425,9.201,29.361z"/>
</svg>
