<?xml version="1.0" encoding="utf-8"?>
<!-- Generator: Adobe Illustrator 12.0.0, SVG Export Plug-In . SVG Version: 6.00 Build 51448)  -->
<!DOCTYPE svg PUBLIC "-//W3C//DTD SVG 1.1//EN" "http://www.w3.org/Graphics/SVG/1.1/DTD/svg11.dtd" [
	<!ENTITY ns_svg "http://www.w3.org/2000/svg">
	<!ENTITY ns_xlink "http://www.w3.org/1999/xlink">
]>
<svg  version="1.1" id="namacho" xmlns="&ns_svg;" xmlns:xlink="&ns_xlink;" width="40" height="40" viewBox="0 0 40 40"
	 overflow="visible" enable-background="new 0 0 40 40" xml:space="preserve">
<path fill="#42B2B2" d="M33.416,17.055H21.492c-0.323,0-0.582,0.248-0.582,0.553v13.839c0,0.306,0.259,0.554,0.582,0.554h0.205
	c0.318,0,0.578-0.248,0.578-0.554v-0.578h10.359v0.578c0,0.306,0.259,0.554,0.577,0.554h0.204C33.741,32,34,31.752,34,31.446V17.607
	C34,17.303,33.741,17.055,33.416,17.055z M23.404,21.665c0,0.353-0.271,0.64-0.603,0.64c-0.33,0-0.6-0.287-0.6-0.64v-3.037
	c0-0.353,0.27-0.639,0.6-0.639c0.332,0,0.603,0.286,0.603,0.639V21.665z M33.416,8H21.492c-0.323,0-0.582,0.248-0.582,0.553v7.021
	c0,0.306,0.259,0.553,0.582,0.553h11.924c0.325,0,0.584-0.247,0.584-0.553V8.553C34,8.248,33.741,8,33.416,8z M23.404,14.313
	c0,0.354-0.271,0.642-0.603,0.642c-0.33,0-0.6-0.288-0.6-0.642v-3.037c0-0.353,0.27-0.639,0.6-0.639
	c0.332,0,0.603,0.286,0.603,0.639V14.313z M36,0H4C1.8,0,0,1.8,0,4v32c0,2.2,1.8,4,4,4h32c2.2,0,4-1.8,4-4V4C40,1.8,38.2,0,36,0z
	 M36,35c0,0.55-0.45,1-1,1H5c-0.55,0-1-0.45-1-1V5c0-0.55,0.45-1,1-1h30c0.55,0,1,0.45,1,1V35z M11.999,14l-4.668,6.728
	c-1.894,2.968-2.579,6.761,0,9.339C8.62,31.355,10.311,32,11.999,32c1.69,0,3.381-0.645,4.671-1.934
	c2.578-2.578,1.894-6.371,0-9.339L11.999,14z M7.682,27.825c-1.212-2.47,0.717-6.015,1.93-7.361c0,0-1.256,3.366,0.403,6.732
	C10.876,28.943,9.034,30.582,7.682,27.825z"/>
</svg>
