<?xml version="1.0" encoding="utf-8"?>
<!-- Generator: Adobe Illustrator 12.0.0, SVG Export Plug-In . SVG Version: 6.00 Build 51448)  -->
<!DOCTYPE svg PUBLIC "-//W3C//DTD SVG 1.1//EN" "http://www.w3.org/Graphics/SVG/1.1/DTD/svg11.dtd" [
	<!ENTITY ns_svg "http://www.w3.org/2000/svg">
	<!ENTITY ns_xlink "http://www.w3.org/1999/xlink">
]>
<svg  version="1.1" id="nigori" xmlns="&ns_svg;" xmlns:xlink="&ns_xlink;" width="40" height="40" viewBox="0 0 40 40"
	 overflow="visible" enable-background="new 0 0 40 40" xml:space="preserve">
<path fill="#50C5D1" d="M36,0H4C1.8,0,0,1.8,0,4v32c0,2.2,1.8,4,4,4h32c2.2,0,4-1.8,4-4V4C40,1.8,38.2,0,36,0z M36,35
	c0,0.55-0.45,1-1,1H5c-0.55,0-1-0.45-1-1V14.234c5.188-3.172,10.255-2.977,15.463,0.596c2.596,1.784,5.207,2.806,7.822,3.083
	C27.109,18.455,27,19.189,27,20c0,1.65,0.45,3,1,3s1-1.35,1-3c0-0.771-0.101-1.469-0.262-2.001c2.424-0.002,4.848-0.659,7.262-1.955
	V35z M36,13.762c-5.189,3.176-10.259,2.98-15.462-0.596C15.051,9.401,9.497,9.004,4,11.953V5c0-0.55,0.45-1,1-1h30
	c0.55,0,1,0.45,1,1V13.762z M8,13c-0.55,0-1,1.35-1,3s0.45,3,1,3s1-1.35,1-3S8.55,13,8,13z M12,17c-0.55,0-1,1.35-1,3s0.45,3,1,3
	s1-1.35,1-3S12.55,17,12,17z M12,25c-0.55,0-1,1.35-1,3s0.45,3,1,3s1-1.35,1-3S12.55,25,12,25z M8,21c-0.55,0-1,1.35-1,3s0.45,3,1,3
	s1-1.35,1-3S8.55,21,8,21z M8,29c-0.55,0-1,1.35-1,3s0.45,3,1,3s1-1.35,1-3S8.55,29,8,29z M16,13c-0.55,0-1,1.35-1,3s0.45,3,1,3
	s1-1.35,1-3S16.55,13,16,13z M20,17c-0.55,0-1,1.35-1,3s0.45,3,1,3s1-1.35,1-3S20.55,17,20,17z M20,25c-0.55,0-1,1.35-1,3
	s0.45,3,1,3s1-1.35,1-3S20.55,25,20,25z M16,21c-0.55,0-1,1.35-1,3s0.45,3,1,3s1-1.35,1-3S16.55,21,16,21z M16,29
	c-0.55,0-1,1.35-1,3s0.45,3,1,3s1-1.35,1-3S16.55,29,16,29z M28,25c-0.55,0-1,1.35-1,3s0.45,3,1,3s1-1.35,1-3S28.55,25,28,25z
	 M24,21c-0.55,0-1,1.35-1,3s0.45,3,1,3s1-1.35,1-3S24.55,21,24,21z M24,29c-0.55,0-1,1.35-1,3s0.45,3,1,3s1-1.35,1-3S24.55,29,24,29
	z M32,27c0.55,0,1-1.35,1-3s-0.45-3-1-3s-1,1.35-1,3S31.45,27,32,27z M32,35c0.55,0,1-1.35,1-3s-0.45-3-1-3s-1,1.35-1,3
	S31.45,35,32,35z"/>
</svg>
