<?xml version="1.0" encoding="utf-8"?>
<!-- Generator: Adobe Illustrator 12.0.0, SVG Export Plug-In . SVG Version: 6.00 Build 51448)  -->
<!DOCTYPE svg PUBLIC "-//W3C//DTD SVG 1.1//EN" "http://www.w3.org/Graphics/SVG/1.1/DTD/svg11.dtd" [
	<!ENTITY ns_svg "http://www.w3.org/2000/svg">
	<!ENTITY ns_xlink "http://www.w3.org/1999/xlink">
]>
<svg  version="1.1" id="レイヤー_1" xmlns="&ns_svg;" xmlns:xlink="&ns_xlink;" width="160" height="160" viewBox="0 0 160 160"
	 overflow="visible" enable-background="new 0 0 160 160" xml:space="preserve">
<rect fill="#FCFCFC" width="160" height="160"/>
<path fill="#DCDCDC" d="M81.7,59.77c-7,0-12.671,5.736-12.671,12.788c0,7.056,5.671,12.786,12.671,12.786
	c6.959,0,12.647-5.73,12.647-12.786C94.348,65.506,88.659,59.77,81.7,59.77z M81.7,82.777c-5.585,0-10.147-4.579-10.147-10.22
	c0-5.659,4.562-10.233,10.147-10.233c5.581,0,10.108,4.574,10.108,10.233C91.809,78.198,87.281,82.777,81.7,82.777z M65.206,53.5
	h-6.934v2.613h6.934V53.5z M106,87.426V59.484c0-1.416-1.145-2.586-2.559-2.586h-8.845c0,0-2.437-6.898-3.847-6.898H72.225
	c-1.393,0-3.836,6.898-3.836,6.898h-11.83c-1.418,0-2.559,1.17-2.559,2.586v27.941C54,88.862,55.141,90,56.559,90h46.883
	C104.855,90,106,88.862,106,87.426z M64.916,69.438c-1.094,0-1.998-0.9-1.998-2.018c0-1.088,0.904-1.994,1.998-1.994
	c1.09,0,1.984,0.906,1.984,1.994C66.9,68.537,66.006,69.438,64.916,69.438z M81.7,86.645c-7.708,0-13.958-6.316-13.958-14.087
	c0-7.759,6.25-14.081,13.958-14.081c7.672,0,13.913,6.322,13.913,14.081C95.613,80.328,89.372,86.645,81.7,86.645z M86.16,70.945
	c-1.672,0-2.988-1.332-2.988-3.012c0-1.117,0.609-2.072,1.527-2.59c-0.93-0.391-1.937-0.611-2.999-0.611
	c-4.29,0-7.769,3.504-7.769,7.825c0,4.314,3.479,7.833,7.769,7.833c4.261,0,7.714-3.519,7.714-7.833
	c0-1.141-0.238-2.214-0.652-3.188C88.254,70.307,87.281,70.945,86.16,70.945z M101.245,105.538l-1.762-0.148
	c-0.407-0.039-0.69-0.097-0.847-0.177c-0.158-0.081-0.236-0.215-0.236-0.403c0-0.267,0.189-0.498,0.569-0.69
	c0.314,0.089,0.652,0.135,1.013,0.135c0.851,0,1.55-0.203,2.096-0.607c0.647-0.477,0.972-1.146,0.972-2.011
	c0-0.609-0.214-1.139-0.639-1.587c0.161-0.147,0.323-0.248,0.485-0.306c0.208-0.073,0.512-0.107,0.909-0.107l0.111-1.46
	c-0.532,0-0.963,0.089-1.291,0.262c-0.374,0.193-0.698,0.543-0.971,1.047c-0.463-0.255-1.017-0.381-1.659-0.381
	c-0.842,0-1.538,0.204-2.088,0.613c-0.647,0.47-0.972,1.114-0.972,1.933c0,0.917,0.37,1.615,1.11,2.095
	c-0.796,0.51-1.193,1.058-1.193,1.646c0,0.595,0.365,0.976,1.096,1.141c-0.957,0.354-1.436,0.868-1.436,1.544
	c0,0.546,0.264,0.987,0.791,1.326c0.628,0.399,1.535,0.6,2.72,0.6c1.151,0,2.076-0.2,2.775-0.6c0.763-0.441,1.145-1.045,1.145-1.812
	c0-0.565-0.166-1.005-0.499-1.319C103.023,105.885,102.29,105.64,101.245,105.538z M98.928,100.611
	c0.268-0.29,0.623-0.438,1.062-0.438c0.384,0,0.703,0.113,0.958,0.333c0.311,0.273,0.465,0.649,0.465,1.129
	c0,0.457-0.118,0.822-0.354,1.102c-0.259,0.295-0.616,0.443-1.069,0.443c-0.394,0-0.714-0.114-0.964-0.345
	c-0.302-0.277-0.451-0.683-0.451-1.215C98.574,101.212,98.692,100.877,98.928,100.611z M101.904,108.576
	c-0.411,0.234-1.006,0.353-1.783,0.353c-0.606,0-1.098-0.086-1.478-0.255c-0.444-0.196-0.666-0.479-0.666-0.847
	c0-0.493,0.349-0.852,1.048-1.078l1.936,0.205c0.532,0.056,0.904,0.148,1.117,0.274c0.212,0.132,0.319,0.349,0.319,0.649
	C102.397,108.154,102.232,108.387,101.904,108.576z M54.696,100.705c0,1.213,0.046,2.581,0.139,4.104h-0.194
	c-0.413-1.292-0.9-2.573-1.464-3.843L50.886,96H48v11.211h1.762v-5.436c0-1.457-0.033-2.809-0.097-4.051h0.194
	c0.486,1.224,1.013,2.459,1.582,3.705l2.671,5.781h2.345V96h-1.762V100.705z M112,103.265c0-1.223-0.291-2.203-0.874-2.942
	c-0.639-0.812-1.509-1.219-2.609-1.219c-0.985,0-1.795,0.329-2.428,0.986c-0.741,0.763-1.11,1.83-1.11,3.202
	c0,1.214,0.284,2.179,0.854,2.894c0.646,0.818,1.593,1.228,2.838,1.228c1.701,0,2.798-0.767,3.288-2.303l-1.623-0.479
	c-0.26,1.008-0.807,1.512-1.645,1.512c-0.592,0-1.058-0.2-1.395-0.6c-0.371-0.441-0.561-1.077-0.569-1.904H112V103.265z
	 M106.755,102.439c0.041-0.602,0.196-1.083,0.465-1.446c0.313-0.424,0.756-0.635,1.325-0.635c1.05,0,1.618,0.695,1.707,2.081
	H106.755z M84.531,99.104c-0.977,0-1.8,0.517-2.471,1.549c-0.097-0.441-0.291-0.798-0.583-1.07
	c-0.352-0.319-0.798-0.479-1.339-0.479c-0.971,0-1.79,0.521-2.456,1.563V99.28h-1.707v7.931h1.763v-5.2
	c0.185-0.377,0.42-0.688,0.708-0.934c0.328-0.276,0.657-0.415,0.986-0.415c0.642,0,0.964,0.445,0.964,1.332v5.217h1.763v-5.2
	c0.171-0.374,0.394-0.681,0.666-0.926c0.319-0.283,0.64-0.423,0.964-0.423c0.722,0,1.083,0.445,1.083,1.332v5.217h1.79v-5.721
	c0-0.703-0.174-1.264-0.521-1.681C85.757,99.339,85.22,99.104,84.531,99.104z M71.57,107.211h1.936V96H71.57V107.211z
	 M61.995,99.104c-0.99,0-1.802,0.326-2.435,0.98c-0.736,0.767-1.104,1.832-1.104,3.194c0,1.189,0.282,2.152,0.847,2.886
	c0.638,0.832,1.531,1.249,2.678,1.249c0.999,0,1.813-0.326,2.442-0.98c0.73-0.763,1.096-1.828,1.096-3.196
	c0-1.184-0.285-2.147-0.854-2.886C64.023,99.519,63.133,99.104,61.995,99.104z M61.981,106.102c-1.129,0-1.693-0.951-1.693-2.852
	c0-1.891,0.569-2.835,1.707-2.835c1.128,0,1.693,0.944,1.693,2.835C63.688,105.15,63.119,106.102,61.981,106.102z M94.945,101.719
	c0-1.754-1.009-2.632-3.025-2.632c-1.748,0-2.823,0.729-3.227,2.186l1.673,0.458c0.073-0.413,0.233-0.742,0.479-0.986
	c0.269-0.269,0.605-0.401,1.013-0.401c0.444,0,0.772,0.093,0.985,0.281c0.245,0.221,0.368,0.596,0.368,1.122v0.451
	c-0.856,0.028-1.598,0.104-2.228,0.227c-1.698,0.334-2.546,1.206-2.546,2.617c0,0.667,0.194,1.213,0.582,1.637
	c0.439,0.479,1.045,0.72,1.818,0.72c1.077,0,1.896-0.408,2.456-1.226c0.037,0.396,0.081,0.741,0.132,1.039h1.645
	c-0.083-0.794-0.125-1.576-0.125-2.343V101.719z M93.211,104.793c-0.454,0.871-1.06,1.307-1.818,1.307
	c-0.832,0-1.249-0.401-1.249-1.199c0-0.693,0.426-1.14,1.277-1.349c0.597-0.141,1.193-0.219,1.79-0.233V104.793z"/>
</svg>
