<?xml version="1.0" encoding="utf-8"?>
<!-- Generator: Adobe Illustrator 12.0.0, SVG Export Plug-In . SVG Version: 6.00 Build 51448)  -->
<!DOCTYPE svg PUBLIC "-//W3C//DTD SVG 1.1//EN" "http://www.w3.org/Graphics/SVG/1.1/DTD/svg11.dtd" [
	<!ENTITY ns_svg "http://www.w3.org/2000/svg">
	<!ENTITY ns_xlink "http://www.w3.org/1999/xlink">
]>
<svg  version="1.1" id="レイヤー_1" xmlns="&ns_svg;" xmlns:xlink="&ns_xlink;" width="240" height="240" viewBox="0 0 240 240"
	 overflow="visible" enable-background="new 0 0 240 240" xml:space="preserve">
<rect fill="#FCFCFC" width="240" height="240"/>
<path fill="#DCDCDC" d="M121.7,99.77c-7,0-12.671,5.736-12.671,12.788c0,7.056,5.671,12.786,12.671,12.786
	c6.959,0,12.647-5.73,12.647-12.786C134.348,105.506,128.659,99.77,121.7,99.77z M121.7,122.777c-5.585,0-10.147-4.579-10.147-10.22
	c0-5.659,4.562-10.233,10.147-10.233c5.581,0,10.108,4.574,10.108,10.233C131.809,118.198,127.281,122.777,121.7,122.777z
	 M105.206,93.5h-6.934v2.613h6.934V93.5z M146,127.426V99.484c0-1.416-1.145-2.586-2.559-2.586h-8.845c0,0-2.437-6.898-3.847-6.898
	h-18.525c-1.393,0-3.836,6.898-3.836,6.898h-11.83c-1.418,0-2.559,1.17-2.559,2.586v27.941c0,1.437,1.141,2.574,2.559,2.574h46.883
	C144.855,130,146,128.862,146,127.426z M104.916,109.438c-1.094,0-1.998-0.9-1.998-2.018c0-1.088,0.904-1.994,1.998-1.994
	c1.09,0,1.984,0.906,1.984,1.994C106.9,108.537,106.006,109.438,104.916,109.438z M121.7,126.645
	c-7.708,0-13.958-6.316-13.958-14.087c0-7.759,6.25-14.081,13.958-14.081c7.672,0,13.913,6.322,13.913,14.081
	C135.613,120.328,129.372,126.645,121.7,126.645z M126.16,110.945c-1.672,0-2.988-1.332-2.988-3.012c0-1.117,0.609-2.072,1.527-2.59
	c-0.93-0.391-1.937-0.611-2.999-0.611c-4.29,0-7.769,3.504-7.769,7.825c0,4.314,3.479,7.833,7.769,7.833
	c4.261,0,7.714-3.519,7.714-7.833c0-1.141-0.238-2.214-0.652-3.188C128.254,110.307,127.281,110.945,126.16,110.945z
	 M141.245,145.538l-1.762-0.148c-0.407-0.039-0.69-0.097-0.847-0.177c-0.158-0.081-0.236-0.215-0.236-0.403
	c0-0.267,0.189-0.498,0.569-0.69c0.314,0.089,0.652,0.135,1.013,0.135c0.851,0,1.55-0.203,2.096-0.607
	c0.647-0.477,0.972-1.146,0.972-2.011c0-0.609-0.214-1.139-0.639-1.587c0.161-0.147,0.323-0.248,0.485-0.306
	c0.208-0.073,0.512-0.107,0.909-0.107l0.111-1.46c-0.532,0-0.963,0.089-1.291,0.262c-0.374,0.193-0.698,0.543-0.971,1.047
	c-0.463-0.255-1.017-0.381-1.659-0.381c-0.842,0-1.538,0.204-2.088,0.613c-0.647,0.47-0.972,1.114-0.972,1.933
	c0,0.917,0.37,1.615,1.11,2.095c-0.796,0.51-1.193,1.058-1.193,1.646c0,0.595,0.365,0.976,1.096,1.141
	c-0.957,0.354-1.436,0.868-1.436,1.544c0,0.546,0.264,0.987,0.791,1.326c0.628,0.399,1.535,0.6,2.72,0.6
	c1.151,0,2.076-0.2,2.775-0.6c0.763-0.441,1.145-1.045,1.145-1.812c0-0.565-0.166-1.005-0.499-1.319
	C143.023,145.885,142.29,145.64,141.245,145.538z M138.928,140.611c0.268-0.29,0.623-0.438,1.062-0.438
	c0.384,0,0.703,0.113,0.958,0.333c0.311,0.273,0.465,0.649,0.465,1.129c0,0.457-0.118,0.822-0.354,1.102
	c-0.259,0.295-0.616,0.443-1.069,0.443c-0.394,0-0.714-0.114-0.964-0.345c-0.302-0.277-0.451-0.683-0.451-1.215
	C138.574,141.212,138.692,140.877,138.928,140.611z M141.904,148.576c-0.411,0.234-1.006,0.353-1.783,0.353
	c-0.606,0-1.098-0.086-1.478-0.255c-0.444-0.196-0.666-0.479-0.666-0.847c0-0.493,0.349-0.852,1.048-1.078l1.936,0.205
	c0.532,0.056,0.904,0.148,1.117,0.274c0.212,0.132,0.319,0.349,0.319,0.649C142.397,148.154,142.232,148.387,141.904,148.576z
	 M94.696,140.705c0,1.213,0.046,2.581,0.139,4.104h-0.194c-0.413-1.292-0.9-2.573-1.464-3.843L90.886,136H88v11.211h1.762v-5.436
	c0-1.457-0.033-2.809-0.097-4.051h0.194c0.486,1.224,1.013,2.459,1.582,3.705l2.671,5.781h2.345V136h-1.762V140.705z M152,143.265
	c0-1.223-0.291-2.203-0.874-2.942c-0.639-0.812-1.509-1.219-2.609-1.219c-0.985,0-1.795,0.329-2.428,0.986
	c-0.741,0.763-1.11,1.83-1.11,3.202c0,1.214,0.284,2.179,0.854,2.894c0.646,0.818,1.593,1.228,2.838,1.228
	c1.701,0,2.798-0.767,3.288-2.303l-1.623-0.479c-0.26,1.008-0.807,1.512-1.645,1.512c-0.592,0-1.058-0.2-1.395-0.6
	c-0.371-0.441-0.561-1.077-0.569-1.904H152V143.265z M146.755,142.439c0.041-0.602,0.196-1.083,0.465-1.446
	c0.313-0.424,0.756-0.635,1.325-0.635c1.05,0,1.618,0.695,1.707,2.081H146.755z M124.531,139.104c-0.977,0-1.8,0.517-2.471,1.549
	c-0.097-0.441-0.291-0.798-0.583-1.07c-0.352-0.319-0.798-0.479-1.339-0.479c-0.971,0-1.79,0.521-2.456,1.563v-1.386h-1.707v7.931
	h1.763v-5.2c0.185-0.377,0.42-0.688,0.708-0.934c0.328-0.276,0.657-0.415,0.986-0.415c0.642,0,0.964,0.445,0.964,1.332v5.217h1.763
	v-5.2c0.171-0.374,0.394-0.681,0.666-0.926c0.319-0.283,0.64-0.423,0.964-0.423c0.722,0,1.083,0.445,1.083,1.332v5.217h1.79v-5.721
	c0-0.703-0.174-1.264-0.521-1.681C125.757,139.339,125.22,139.104,124.531,139.104z M111.57,147.211h1.936V136h-1.936V147.211z
	 M101.995,139.104c-0.99,0-1.802,0.326-2.435,0.98c-0.736,0.767-1.104,1.832-1.104,3.194c0,1.189,0.282,2.152,0.847,2.886
	c0.638,0.832,1.531,1.249,2.678,1.249c0.999,0,1.813-0.326,2.442-0.98c0.73-0.763,1.096-1.828,1.096-3.196
	c0-1.184-0.285-2.147-0.854-2.886C104.023,139.519,103.133,139.104,101.995,139.104z M101.981,146.102
	c-1.129,0-1.693-0.951-1.693-2.852c0-1.891,0.569-2.835,1.707-2.835c1.128,0,1.693,0.944,1.693,2.835
	C103.688,145.15,103.119,146.102,101.981,146.102z M134.945,141.719c0-1.754-1.009-2.632-3.025-2.632
	c-1.748,0-2.823,0.729-3.227,2.186l1.673,0.458c0.073-0.413,0.233-0.742,0.479-0.986c0.269-0.269,0.605-0.401,1.013-0.401
	c0.444,0,0.772,0.093,0.985,0.281c0.245,0.221,0.368,0.596,0.368,1.122v0.451c-0.856,0.028-1.598,0.104-2.228,0.227
	c-1.698,0.334-2.546,1.206-2.546,2.617c0,0.667,0.194,1.213,0.582,1.637c0.439,0.479,1.045,0.72,1.818,0.72
	c1.077,0,1.896-0.408,2.456-1.226c0.037,0.396,0.081,0.741,0.132,1.039h1.645c-0.083-0.794-0.125-1.576-0.125-2.343V141.719z
	 M133.211,144.793c-0.454,0.871-1.06,1.307-1.818,1.307c-0.832,0-1.249-0.401-1.249-1.199c0-0.693,0.426-1.14,1.277-1.349
	c0.597-0.141,1.193-0.219,1.79-0.233V144.793z"/>
</svg>
