<?xml version="1.0" encoding="utf-8"?>
<!-- Generator: Adobe Illustrator 12.0.0, SVG Export Plug-In . SVG Version: 6.00 Build 51448)  -->
<!DOCTYPE svg PUBLIC "-//W3C//DTD SVG 1.1//EN" "http://www.w3.org/Graphics/SVG/1.1/DTD/svg11.dtd" [
	<!ENTITY ns_svg "http://www.w3.org/2000/svg">
	<!ENTITY ns_xlink "http://www.w3.org/1999/xlink">
]>
<svg  version="1.1" id="レイヤー_1" xmlns="&ns_svg;" xmlns:xlink="&ns_xlink;" width="20" height="20" viewBox="0 0 20 20"
	 overflow="visible" enable-background="new 0 0 20 20" xml:space="preserve">
<path fill="#666666" d="M19.334,9.057c0.119-0.254,0.23-0.513,0.318-0.787c0.207-0.588,0.33-1.149,0.33-1.666
	c0-0.047-0.01-0.088-0.012-0.134C19.977,6.36,20,6.259,20,6.147C20,2.752,17.598,0,14.635,0C12.645,0,10.926,1.259,10,3.103
	C9.072,1.259,7.357,0,5.365,0C2.402,0,0,2.752,0,6.147c0,0.156,0.031,0.304,0.039,0.455L0.02,6.604c0,0.593,0.145,1.236,0.395,1.905
	c0.006,0.019,0.01,0.035,0.018,0.052C2.307,13.511,9.98,20,9.98,20s6.58-5.668,9.064-10.36c0.098-0.162,0.174-0.345,0.258-0.517
	C19.313,9.1,19.326,9.077,19.334,9.057z"/>
</svg>
