<?xml version="1.0" encoding="utf-8"?>
<!-- Generator: Adobe Illustrator 12.0.0, SVG Export Plug-In . SVG Version: 6.00 Build 51448)  -->
<!DOCTYPE svg PUBLIC "-//W3C//DTD SVG 1.1//EN" "http://www.w3.org/Graphics/SVG/1.1/DTD/svg11.dtd" [
	<!ENTITY ns_svg "http://www.w3.org/2000/svg">
	<!ENTITY ns_xlink "http://www.w3.org/1999/xlink">
]>
<svg  version="1.1" id="note30" xmlns="&ns_svg;" xmlns:xlink="&ns_xlink;" width="38" height="30" viewBox="0 0 38 30"
	 overflow="visible" enable-background="new 0 0 38 30" xml:space="preserve">
<path fill="#B2B2B2" d="M37.244,3.315c-0.459-0.615-1.037-1.057-1.648-1.42l-0.053-0.029L35.49,1.843
	c-0.031-0.013-1.015-0.465-2.439-0.92C31.621,0.47,29.758,0.004,27.898,0C23.435,0.009,20.1,1.629,19,2.236
	C17.9,1.629,14.565,0.009,10.102,0C8.243,0.004,6.378,0.47,4.95,0.923C3.524,1.378,2.54,1.83,2.51,1.843L2.456,1.866L2.404,1.896
	C1.792,2.259,1.214,2.7,0.756,3.315C0.296,3.924-0.005,4.74,0,5.615v20.873c-0.001,0.955,0.435,1.855,1.165,2.417
	c0.49,0.375,1.072,0.57,1.657,0.57c0.294,0,0.591-0.05,0.875-0.146l0.061-0.021l0.057-0.027l0.001-0.001
	c0.069-0.032,0.913-0.418,2.11-0.789c1.194-0.374,2.743-0.726,4.176-0.723c2.218-0.001,4.214,0.519,5.643,1.04
	c0.716,0.261,1.287,0.52,1.675,0.711c0.193,0.095,0.342,0.175,0.439,0.228l0.103,0.059l0.021,0.011h0.002l0,0.001l0.112,0.068
	l0.121,0.04C18.371,29.977,18.523,30,18.676,30c0.11,0,0.22-0.018,0.324-0.041C19.104,29.982,19.214,30,19.324,30
	c0.152,0,0.305-0.023,0.457-0.075l0.122-0.04l0.108-0.066c0.016-0.015,3.52-2.061,7.887-2.051c1.481-0.003,3.082,0.373,4.293,0.758
	c0.604,0.193,1.11,0.383,1.464,0.528c0.176,0.07,0.312,0.129,0.405,0.169l0.1,0.046l0.024,0.011l0.002,0.001l0.058,0.027l0.06,0.021
	c0.284,0.097,0.581,0.146,0.874,0.146c0.585,0,1.168-0.195,1.656-0.57h0.002C37.564,28.344,38,27.443,38,26.488V5.615
	C38.005,4.74,37.704,3.924,37.244,3.315z M17.796,26.91c-1.571-0.701-4.352-1.682-7.695-1.691c-1.846,0.004-3.633,0.438-4.983,0.865
	c-1.12,0.355-1.927,0.706-2.188,0.822l-0.109,0.021c-0.086,0-0.169-0.03-0.242-0.083c-0.107-0.085-0.172-0.216-0.172-0.355V5.615
	C2.417,5.306,2.48,5.13,2.652,4.884c0.164-0.225,0.463-0.481,0.875-0.73C3.75,4.057,4.616,3.683,5.765,3.325
	c1.28-0.404,2.914-0.78,4.336-0.776c2.365-0.001,4.403,0.536,5.839,1.068c0.718,0.267,1.285,0.534,1.667,0.73
	c0.071,0.036,0.128,0.067,0.189,0.098V26.91z M35.592,26.488c0,0.139-0.064,0.271-0.174,0.355h0.002
	c-0.072,0.055-0.156,0.083-0.242,0.083l-0.109-0.021c-0.261-0.116-1.066-0.467-2.187-0.822c-1.352-0.427-3.138-0.861-4.983-0.865
	c-3.344,0.01-6.124,0.99-7.695,1.691V4.443c0.989-0.528,3.928-1.903,7.695-1.895c1.471-0.005,3.161,0.399,4.459,0.813
	c0.648,0.208,1.201,0.417,1.586,0.573c0.191,0.075,0.343,0.141,0.445,0.183l0.082,0.035c0.414,0.249,0.712,0.506,0.878,0.731
	c0.172,0.246,0.235,0.422,0.243,0.731V26.488z"/>
</svg>
