<?xml version="1.0" encoding="utf-8"?>
<!-- Generator: Adobe Illustrator 12.0.0, SVG Export Plug-In  -->
<!DOCTYPE svg PUBLIC "-//W3C//DTD SVG 1.1//EN" "http://www.w3.org/Graphics/SVG/1.1/DTD/svg11.dtd" [
	<!ENTITY ns_flows "http://ns.adobe.com/Flows/1.0/">
	<!ENTITY ns_svg "http://www.w3.org/2000/svg">
	<!ENTITY ns_xlink "http://www.w3.org/1999/xlink">
]>
<svg  version="1.1" xmlns="&ns_svg;" xmlns:xlink="&ns_xlink;" xmlns:a="http://ns.adobe.com/AdobeSVGViewerExtensions/3.0/"
	 width="35" height="31" viewBox="-0.125 -0.125 35 31" enable-background="new -0.125 -0.125 35 31" xml:space="preserve">
<defs>
</defs>
<path fill="#3F3F3F" d="M28.209,6.191c-4.307-5.313-8.854-7.656-10.154-5.239l0.124-0.199C13.892,6.922,9.606,13.091,5.32,19.26
	c-0.708,0.088-1.419,0.178-2.125,0.268c-0.791,0.099-1.583,0.195-2.374,0.293c-0.288,0.037-0.514,0.184-0.66,0.452
	c-0.042,0.083-0.075,0.173-0.104,0.271l-0.016,0.105L0.004,20.86L0,21.005l0,0.225l0.01,0.159l0.034,0.258l0.014,0.118l0.009,0.049
	l0.024,0.104l0.065,0.28l0.036,0.123l0.088,0.29l0.039,0.123c0.033,0.105,0.075,0.211,0.111,0.315l0.046,0.112
	c0.049,0.126,0.101,0.258,0.157,0.382l0.022,0.055c0.189,0.429,0.418,0.878,0.677,1.329l0.034,0.05
	c0.186,0.314,0.387,0.633,0.602,0.949l0.052,0.075c0.243,0.344,0.495,0.686,0.763,1.018c2.073,2.557,4.266,3.684,4.892,2.525
	l2.197-3.796c7.523-1.55,15.046-3.102,22.576-4.651l-0.033,0.004c0.534-0.102,0.957-0.397,1.232-0.912
	C34.953,17.771,32.514,11.503,28.209,6.191z M6.836,21.755c0,0-4.331,2.158-4.478,1.939c-1.136-1.797-0.915-2.257-0.915-2.257
	l4.459-0.873L16.958,6.793l1.497,3.565L6.836,21.755z M31.621,18.419c-0.092,0.163-0.199,0.294-0.337,0.383
	c-1.044,0.673-3.993-0.952-7.116-4.838c-3.699-4.601-5.33-9.377-4.529-10.952c0.083-0.169,0.197-0.294,0.332-0.383
	c1.043-0.674,3.995,0.95,7.117,4.837C30.787,12.068,32.418,16.843,31.621,18.419z"/>
</svg>
