<?xml version="1.0" encoding="utf-8"?>
<!-- Generator: Adobe Illustrator 12.0.0, SVG Export Plug-In  -->
<!DOCTYPE svg PUBLIC "-//W3C//DTD SVG 1.1//EN" "http://www.w3.org/Graphics/SVG/1.1/DTD/svg11.dtd" [
	<!ENTITY ns_flows "http://ns.adobe.com/Flows/1.0/">
	<!ENTITY ns_svg "http://www.w3.org/2000/svg">
	<!ENTITY ns_xlink "http://www.w3.org/1999/xlink">
]>
<svg  version="1.1" xmlns="&ns_svg;" xmlns:xlink="&ns_xlink;" xmlns:a="http://ns.adobe.com/AdobeSVGViewerExtensions/3.0/"
	 width="300" height="250" viewBox="0 0 300 250" enable-background="new 0 0 300 250" xml:space="preserve">
<defs>
</defs>
<rect fill="#F9F49B" width="300" height="250"/>
<path fill="#666666" d="M10,74.081l-10,10v14.143l10-10V74.081z M27.513,0l-10,10h14.143l10-10H27.513z M10,17.513l-10,10v14.143
	l10-10V17.513z M0,0v13.37L13.37,0H0z M10,45.796l-10,10v14.143l10-10V45.796z M10,102.366l-10,10v14.142l10-10V102.366z
	 M10,187.219l-10,10v14.142l10-10V187.219z M10,158.934l-10,10v14.143l10-10V158.934z M10,130.649l-10,10v14.143l10-10V130.649z
	 M140.649,0l-10,10h14.143l10-10H140.649z M253.787,0l-10,10h14.142l10-10H253.787z M225.503,0l-10,10h14.142l10-10H225.503z
	 M197.219,0l-10,10h14.142l10-10H197.219z M282.071,0l-10,10h14.142l10-10H282.071z M112.366,0l-10,10h14.142l10-10H112.366z
	 M168.934,0l-10,10h14.143l10-10H168.934z M84.081,0l-10,10h14.143l10-10H84.081z M55.796,0l-10,10h14.143l10-10H55.796z
	 M10,215.503l-10,10v14.142l10-10V215.503z M290,204.203l10-10v-14.142l-10,10V204.203z M290,175.919l10-10v-14.143l-10,10V175.919z
	 M290,147.634l10-10v-14.141l-10,10V147.634z M290,232.487l10-10v-14.143l-10,10V232.487z M3.787,250h14.142l10-10H13.787L3.787,250
	z M290,119.351l10-10V95.208l-10,10V119.351z M290,62.782l10-10V38.64l-10,10V62.782z M290,20.355v14.142l10-10V10.355L290,20.355z
	 M300,250v-13.37L286.63,250H300z M290,91.066l10-10V66.923l-10,10V91.066z M88.64,250h14.143l10-10H98.64L88.64,250z M60.355,250
	h14.142l10-10H70.355L60.355,250z M258.345,250h14.143l10-10h-14.143L258.345,250z M32.071,250h14.142l10-10H42.071L32.071,250z
	 M116.923,250h14.143l10-10h-14.143L116.923,250z M145.208,250h14.143l10-10h-14.143L145.208,250z M201.776,250h14.143l10-10
	h-14.143L201.776,250z M230.062,250h14.142l10-10h-14.142L230.062,250z M173.492,250h14.142l10-10h-14.142L173.492,250z"/>
<path fill="#666666" d="M76.272,132.6l1.607,0.769c0.9-0.744,2.353-1.572,3.876-1.8l-0.12-1.885
	c-0.756,0.132-1.703,0.24-2.436,0.276c-0.804,0.036-2.46,0.072-3.636,0.072c-0.372,0-0.708,0-0.937-0.013
	c0.036,0.396,0.048,1.345,0.048,1.776c0.853,0.024,2.376-0.012,2.845-0.096v0.012C77.124,131.939,76.561,132.36,76.272,132.6z
	 M82.212,137.052c-1.056,0.204-2.46,0.336-3.647,0.336c-1.309,0-2.748-0.023-2.748-1.308c0-0.468,0.3-0.996,0.792-1.464
	l-1.572-0.672c-0.636,0.647-1.092,1.548-1.092,2.496c0,1.104,0.672,2.184,2.268,2.544c0.528,0.107,1.512,0.155,2.58,0.155
	c1.272,0,2.664-0.071,3.564-0.204L82.212,137.052z M81.996,134.808l0.78-0.684c-0.324-0.468-0.96-1.116-1.452-1.5l-0.732,0.66
	C81.012,133.62,81.756,134.388,81.996,134.808z M83.376,133.476l0.756-0.684c-0.323-0.444-0.899-1.068-1.428-1.477l-0.732,0.66
	C82.404,132.324,83.101,133.068,83.376,133.476z M84.612,138.84l1.344,0.948c0.876-0.516,1.392-1.309,1.74-2.16l-1.452-0.564
	C85.944,137.771,85.356,138.444,84.612,138.84z M93.036,138.3c0.6,0.492,1.176,1.057,1.476,1.488l1.416-0.972
	c-0.468-0.601-1.451-1.393-2.243-1.896l-1.32,0.876c0.204,0.145,0.432,0.313,0.636,0.48c-0.432-0.084-1.067-0.276-1.38-0.505
	c-0.048,0.732-0.132,0.864-0.468,0.864H90c-0.42,0-0.504-0.036-0.504-0.348v-0.552c0.036,0,0.072-0.013,0.096-0.024
	c0.433,0.24,0.828,0.48,1.068,0.684l1.08-1.104c-0.168-0.132-0.408-0.264-0.66-0.408h2.892v-3.768h-7.355v3.768h2.424l-0.372,0.372
	c0.132,0.061,0.264,0.12,0.408,0.192l-1.272-0.072v0.924c0,1.225,0.385,1.62,1.956,1.62h1.572
	C92.448,139.92,92.88,139.572,93.036,138.3z M88.26,134.196h3.984v0.3H88.26V134.196z M88.26,135.804v-0.3h3.984v0.3H88.26z
	 M95.784,131.556H92.94c0.144-0.252,0.275-0.504,0.384-0.72c0.12,0,0.216-0.024,0.276-0.072h1.26v-1.296h-3.708v-0.504
	c0.24-0.048,0.348-0.12,0.359-0.264l-2.111-0.108v0.876H85.68v1.296h1.908l-0.3,0.084c0.084,0.216,0.168,0.468,0.228,0.708h-2.747
	v1.296h11.016V131.556z M91.284,131.556h-2.076c-0.048-0.24-0.144-0.527-0.252-0.792h2.58
	C91.464,131.028,91.38,131.315,91.284,131.556z M104.7,139.92h1.392c1.296,0,1.752-0.528,1.933-2.52
	c-0.469-0.12-1.248-0.408-1.597-0.696c-0.06,1.368-0.132,1.572-0.504,1.572h-0.96c-0.396,0-0.456-0.049-0.456-0.469v-1.956h1.86
	v-6.888h-8.052v6.888h4.403v1.969C102.72,139.392,103.104,139.92,104.7,139.92z M99.996,130.38h4.596v0.48h-4.596V130.38z
	 M99.996,132.156h4.596v0.491h-4.596V132.156z M99.996,134.448v-0.492h4.596v0.492H99.996z M101.568,136.548
	c0.216-0.023,0.336-0.12,0.348-0.24l-2.16-0.204c-0.144,1.284-0.359,2.005-3.168,2.4c0.36,0.372,0.792,1.104,0.948,1.561
	C100.848,139.404,101.269,138.18,101.568,136.548z M115.968,134.316c0-0.9-0.731-1.681-1.68-1.681c-0.924,0-1.68,0.756-1.68,1.681
	c0,0.924,0.756,1.68,1.68,1.68S115.968,135.24,115.968,134.316z M129.324,132.624l-0.732,0.66c0.42,0.336,1.164,1.104,1.404,1.523
	l0.78-0.684C130.452,133.656,129.816,133.008,129.324,132.624z M123.564,130.032c-0.372,0-0.708,0-0.937-0.013
	c0.036,0.396,0.048,1.345,0.048,1.776c0.853,0.024,2.376-0.012,2.845-0.096v0.012c-0.396,0.228-0.96,0.648-1.248,0.888l1.607,0.769
	c0.9-0.744,2.353-1.572,3.876-1.8l-0.12-1.885c-0.756,0.132-1.703,0.24-2.436,0.276C126.396,129.996,124.74,130.032,123.564,130.032
	z M132.132,132.792c-0.323-0.444-0.899-1.068-1.428-1.477l-0.732,0.66c0.433,0.349,1.129,1.093,1.404,1.5L132.132,132.792z
	 M124.212,138.984c0.528,0.107,1.512,0.155,2.58,0.155c1.272,0,2.664-0.071,3.564-0.204l-0.145-1.884
	c-1.056,0.204-2.46,0.336-3.647,0.336c-1.309,0-2.748-0.023-2.748-1.308c0-0.468,0.3-0.996,0.792-1.464l-1.572-0.672
	c-0.636,0.647-1.092,1.548-1.092,2.496C121.944,137.544,122.616,138.624,124.212,138.984z M135.72,137.04l-1.56-0.552
	c-0.276,0.912-0.828,1.739-1.584,2.268l1.439,1.008C134.892,139.104,135.384,138.096,135.72,137.04z M143.977,138.792
	c-0.36-0.78-1.236-1.776-2.04-2.484l-1.429,0.792c0.792,0.757,1.62,1.824,1.92,2.568L143.977,138.792z M136.645,135.408h1.584
	c0.323,0.3,0.792,0.779,1.008,1.067c0.468-0.288,0.899-0.647,1.308-1.044c0.492,0.517,1.032,0.792,1.681,0.792
	c1.044,0,1.535-0.407,1.775-2.195c-0.408-0.145-0.936-0.456-1.271-0.78c-0.061,0.996-0.181,1.404-0.456,1.404
	c-0.229,0-0.469-0.168-0.685-0.444c0.492-0.696,0.9-1.477,1.212-2.292c0.181,0.012,0.301-0.048,0.349-0.156l-1.824-0.516
	c-0.145,0.456-0.324,0.888-0.552,1.308c-0.145-0.443-0.276-0.936-0.372-1.452h3.191v-1.368h-1.128l0.3-0.264
	c-0.275-0.3-0.827-0.66-1.271-0.888l-0.996,0.864c0.144,0.084,0.288,0.18,0.432,0.287h-0.72c-0.023-0.264-0.036-0.516-0.036-0.779
	c0.24-0.036,0.349-0.12,0.36-0.252l-2.028-0.084c0.013,0.372,0.036,0.744,0.072,1.115h-4.98v1.837c0,1.212-0.084,2.88-1.08,4.056
	c0.337,0.18,1.021,0.756,1.272,1.056c1.164-1.368,1.404-3.563,1.404-5.088V131.1h3.576c0.191,1.128,0.504,2.172,0.899,3.013
	c-0.264,0.288-0.552,0.552-0.864,0.779v-2.136h-3.54v3.036h1.381V135.408z M136.645,133.836h0.756v0.504h-0.756V133.836z
	 M137.856,139.884h1.584c1.199,0,1.668-0.359,1.859-1.8c-0.456-0.096-1.188-0.348-1.523-0.6c-0.061,0.756-0.132,0.863-0.504,0.863
	h-1.188c-0.479,0-0.552-0.036-0.552-0.384v-0.912c0.36,0.324,0.684,0.672,0.864,0.937l1.224-0.973
	c-0.36-0.479-1.128-1.104-1.752-1.512l-1.152,0.888c0.12,0.084,0.24,0.181,0.372,0.288l-1.284-0.071V138
	C135.804,139.404,136.176,139.884,137.856,139.884z M135.313,131.376v1.08h3.456v-1.08H135.313z M146.112,136.368
	c-0.288,0.876-0.828,1.74-1.477,2.292l1.465,1.02c0.743-0.695,1.224-1.728,1.56-2.7L146.112,136.368z M148.332,133.74
	c0.36,0.336,0.708,0.684,0.948,0.96l0.912-1.393c-0.288-0.216-1.393-0.972-1.86-1.248v-0.312h1.561v-1.464h-1.561v-1.296
	c0.24-0.049,0.336-0.12,0.348-0.252l-2.004-0.108v1.656h-1.859v1.464h1.607c-0.468,0.948-1.176,1.896-1.92,2.448
	c0.349,0.288,0.864,0.84,1.116,1.212c0.372-0.349,0.732-0.805,1.056-1.32v1.884h1.656V133.74z M153.42,138.132
	c-0.468-0.096-1.2-0.348-1.536-0.6c-0.06,0.756-0.132,0.863-0.516,0.863h-1.224c-0.492,0-0.576-0.035-0.576-0.384v-1.044
	l0.155-0.036c0.433,0.372,0.816,0.769,1.032,1.08l1.225-0.983c-0.276-0.372-0.805-0.828-1.32-1.212h4.716v-6.612h-5.028v6.396
	l-0.216-0.144l-1.14,0.9l0.444,0.336l-1.597-0.084v1.428c0,1.416,0.372,1.896,2.064,1.896h1.632
	C152.76,139.932,153.216,139.572,153.42,138.132z M151.933,130.56h1.775v0.456h-1.775V130.56z M151.933,132.276h1.775v0.468h-1.775
	V132.276z M151.933,133.992h1.775v0.479h-1.775V133.992z M153.948,136.224l-1.416,0.853c0.852,0.804,1.74,1.932,2.052,2.712
	l1.548-0.937C155.748,138.024,154.8,136.979,153.948,136.224z M160.032,129.636l-2.22-0.408c-0.324,1.801-0.589,3.517-0.589,5.353
	c0,1.668,0.156,3.792,0.469,4.752l1.739-0.084c-0.023-0.168-0.035-0.324-0.035-0.456c0-0.276,0.048-0.492,0.132-0.72
	c0.264-0.672,0.66-1.597,0.936-2.088l-0.899-1.225c-0.168,0.396-0.492,1.309-0.624,1.645c-0.013-0.108-0.013-0.276-0.013-0.48
	c0-1.656,0-3.444,0.769-6.036C159.84,129.864,160.008,129.768,160.032,129.636z M163.104,139.572c0.804,0,2.124-0.132,2.412-1.597
	c0.42,0.288,0.815,0.648,1.14,1.032l0.936-1.728c-0.6-0.517-1.344-0.96-2.136-1.309c-0.06-0.792-0.107-1.74-0.144-2.7
	c0.804-0.06,1.523-0.155,2.04-0.287l-0.133-1.776c-0.54,0.144-1.199,0.276-1.956,0.384v-2.076c0.204-0.036,0.276-0.144,0.301-0.264
	l-2.244-0.072c0.012,0.889,0.048,1.668,0.096,2.557c-0.54,0.023-1.512,0.035-1.956,0.035c-0.168,0-0.336,0-0.504-0.012l0.024,1.668
	h1.596c0.228,0,0.6-0.012,0.936-0.023c0.049,0.731,0.084,1.548,0.133,2.124c-0.181-0.013-0.349-0.013-0.517-0.013
	c-1.271,0-2.412,0.756-2.412,2.04C160.716,138.696,161.592,139.572,163.104,139.572z M163.14,136.968c0.204,0,0.48,0.048,0.66,0.12
	c0.013,0.108,0.013,0.216,0.013,0.288c0.012,0.36-0.265,0.684-0.721,0.684c-0.479,0-0.876-0.168-0.876-0.527
	C162.216,137.136,162.624,136.968,163.14,136.968z M170.328,135.9c0.732-0.853,2.04-2.509,2.364-2.916
	c0.228-0.253,0.372-0.396,0.504-0.408c0.132,0,0.275,0.144,0.54,0.396c0.815,0.805,3.396,3.672,4.716,5.557l1.548-1.5
	c-1.488-1.872-4.067-4.584-5.424-5.761c-0.504-0.432-0.984-0.731-1.44-0.731c-0.443,0-0.899,0.216-1.344,0.695
	c-0.828,0.925-2.352,2.677-3.204,3.54l1.548,1.585C170.292,136.224,170.34,136.044,170.328,135.9z M176.34,130.152
	c0,0.708,0.576,1.283,1.284,1.283s1.284-0.575,1.284-1.283s-0.576-1.284-1.284-1.284C176.94,128.868,176.34,129.42,176.34,130.152z
	 M178.428,130.152c0,0.42-0.336,0.804-0.804,0.804c-0.444,0-0.804-0.36-0.804-0.804c0-0.444,0.359-0.805,0.804-0.805
	S178.428,129.708,178.428,130.152z M181.729,135.06h9.491v-1.823H181.2l0.096,2.052C181.477,135.264,181.645,135.18,181.729,135.06z
	 M202.188,130.632c-0.301-0.504-0.876-1.212-1.345-1.644l-0.804,0.611c0.384,0.385,1.044,1.236,1.296,1.668L202.188,130.632z
	 M201.948,128.964c0.396,0.396,1.02,1.176,1.296,1.632l0.852-0.636c-0.3-0.456-0.888-1.164-1.355-1.608L201.948,128.964z
	 M195.444,139.584c0.168-0.084,0.228-0.228,0.204-0.348c3.348-1.093,6.336-3.396,7.979-6.757c-0.384-0.239-1.235-0.876-1.596-1.199
	c-1.656,3.54-4.344,5.436-7.92,6.491L195.444,139.584z M193.164,133.8c1.032,0.3,2.232,0.804,3,1.212l0.792-1.572
	c-0.78-0.407-1.932-0.84-3-1.128L193.164,133.8z M198.492,130.56c-0.84-0.432-1.968-0.863-3.036-1.188l-0.828,1.416
	c1.057,0.348,2.112,0.815,2.964,1.308L198.492,130.56z M215.28,135.072c-0.9-0.756-2.772-1.776-4.008-2.4l-0.301,0.348v-1.5
	c0.252-0.048,0.36-0.132,0.385-0.264h4.344v-1.764h-10.813v1.764h4.2v8.724h1.884v-5.388c1.129,0.672,2.377,1.488,3,2.088
	L215.28,135.072z M227.7,134.28c0-2.725-1.86-4.645-5.232-4.645c-3.012,0-5.556,2.172-5.556,5.328c0,2.124,0.972,3.264,2.424,3.264
	c2.088,0,3.265-1.956,3.792-6.239c0.181,0,0.336-0.097,0.384-0.204l-1.8-0.396c0.24-0.036,0.468-0.06,0.721-0.06
	c1.932,0,3.312,1.067,3.312,2.988c0,1.728-0.948,3.023-3.672,3.563c0.504,0.492,0.899,1.092,1.176,1.536
	C226.332,138.588,227.7,137.088,227.7,134.28z M219.396,136.428c-0.505,0-0.685-0.66-0.685-1.536c0-1.536,0.996-2.892,2.532-3.384
	C221.088,134.076,220.428,136.428,219.396,136.428z M64.645,160.979c0.3-0.443,1.008-1.224,1.403-1.535
	c-4.284-2.496-4.632-6.828-4.632-9.192h-4.368v1.776H59.7c0.036,0.384,0.084,0.792,0.156,1.224l-0.864-0.204
	c-0.612,3.036-2.04,5.437-4.38,6.612c0.443,0.324,1.164,0.996,1.464,1.368c2.028-1.2,3.432-3.168,4.308-5.664
	C61.08,157.464,62.353,159.6,64.645,160.979z M66.744,159.66c0.432,0.312,1.092,0.996,1.38,1.428c3.324-1.8,4.176-4.764,4.38-7.271
	h3c-0.107,3.275-0.252,4.787-0.563,5.111c-0.145,0.156-0.276,0.204-0.517,0.204c-0.323,0-0.983,0-1.704-0.06
	c0.349,0.516,0.601,1.332,0.637,1.859c1.907,0.036,2.64-0.023,3.239-0.852c0.492-0.636,0.648-2.46,0.78-7.368
	c0.024-0.192,0.036-0.456,0.036-0.6l-1.02-0.072l-0.408,0.012h-3.433v-2.016c0.252-0.048,0.36-0.145,0.372-0.276l-2.231-0.12v2.412
	H67.14v1.765h3.48C70.416,155.844,69.601,158.208,66.744,159.66z M80.508,159.108c0.36,0.371,0.973,1.056,1.248,1.5
	c3.948-1.572,6.013-4.141,7.141-8.616c0.12-0.048,0.216-0.145,0.275-0.24l-1.62-0.78l-0.323,0.216h-7.597v1.729h6.924
	C85.92,155.46,84.072,157.932,80.508,159.108z M100.212,154.02h-2.508l-0.024-1.668c0.217-0.023,0.288-0.132,0.288-0.239
	l-1.764-0.061l0.024,1.968h-3.757v1.416h3.024c-0.948,1.152-2.136,2.076-3.444,2.736c0.385,0.288,0.769,0.732,1.021,1.092
	c1.14-0.708,2.388-1.68,3.18-2.592l0.012,2.269c0,0.18-0.168,0.359-0.359,0.359h-1.428c0.155,0.42,0.275,0.96,0.336,1.332
	c2.327,0,2.951-0.3,2.951-1.644l-0.048-3.553h2.496V154.02z M103.296,156.288c0.181-0.024,0.349-0.108,0.433-0.229h9.491v-1.823
	H103.2L103.296,156.288z M115.044,157.968l0.601,2.112c0.132-0.012,0.239-0.132,0.275-0.264c1.752-0.084,4.692-0.349,7.368-0.673
	c0.192,0.385,0.372,0.816,0.564,1.32l1.812-0.888c-0.672-1.452-1.896-3.576-3.06-4.944l-1.549,0.84
	c0.469,0.576,0.961,1.309,1.404,2.088c-1.104,0.12-3.132,0.276-4.271,0.324c0.768-2.256,1.62-4.956,2.159-6.888
	c0.204-0.012,0.36-0.108,0.396-0.24l-2.304-0.588c-0.517,2.244-1.464,5.58-2.172,7.776
	C115.813,157.956,115.392,157.968,115.044,157.968z M135.264,151.332l-1.416,0.983c0.961,0.877,1.992,2.389,2.221,3.912l1.884-0.708
	C137.736,154.104,136.488,152.256,135.264,151.332z M131.82,158.712c-0.288,0-0.744-0.132-1.488-0.636
	c-0.144,0.527-0.372,1.116-0.6,1.572c0.936,0.708,1.68,0.96,2.147,0.96c2.185,0,2.641-2.521,2.676-4.561v-0.012
	c0-1.92-0.6-3.384-2.663-3.384c-0.217,0-0.612,0.023-0.816,0.048c0.132-0.685,0.288-1.656,0.396-2.196
	c0.204-0.036,0.36-0.096,0.396-0.264l-2.28-0.229c-0.096,0.984-0.228,1.956-0.384,2.832c-0.684,0.084-1.656,0.192-2.148,0.24
	l0.145,1.8c0.479-0.084,1.344-0.216,1.68-0.275c-0.443,1.812-1.032,3.384-1.932,5.124l1.691,0.827
	c0.961-1.943,1.584-4.092,2.101-6.155c0.384-0.061,0.744-0.072,0.996-0.072c0.684,0,1.008,0.504,1.02,1.608
	c0,0.359-0.084,1.308-0.191,1.728C132.408,158.304,132.24,158.712,131.82,158.712z M145.632,154.212c-1.08,0-2.676,0.444-3.66,1.092
	h-0.012c0.24-0.336,0.324-1.032,0.492-2.651c0.168-0.024,0.24-0.061,0.312-0.192l-2.159-0.276c-0.024,2.124-0.469,4.536-0.732,4.717
	l1.68,0.72c0.9-1.38,2.809-1.776,3.744-1.776c0.912,0,1.452,0.517,1.452,1.225c0,1.296-1.344,1.836-5.256,1.991
	c0.276,0.492,0.54,1.236,0.672,1.668c4.872-0.18,6.564-1.367,6.564-3.695C148.729,155.184,147.36,154.212,145.632,154.212z
	 M141.769,151.523c1.26,0.133,3.371,0.505,4.56,0.984l0.588-1.788c-1.296-0.479-3.24-0.768-4.608-0.888L141.769,151.523z
	 M158.017,152.568c0.96,0.359,2.016,0.936,2.688,1.535l1.008-1.56c-0.684-0.576-1.764-1.152-2.808-1.476L158.017,152.568z
	 M157.813,154.452c-0.564,0-1.345,0.12-2.101,0.324c0-0.421,0.012-0.864,0.024-1.332c0.731-0.084,1.368-0.217,1.943-0.372
	l-0.203-1.801c-0.517,0.192-1.08,0.324-1.681,0.421c0.024-0.492,0.048-0.973,0.084-1.44c0.192-0.024,0.313-0.156,0.313-0.288
	l-2.221-0.048v1.944c-0.768,0.023-1.619,0.035-2.58,0.035l0.036,1.74c0.937,0,1.788-0.012,2.544-0.048v1.824
	c-2.136,0.948-2.928,2.184-2.928,3.18c0,1.596,1.32,2.136,2.328,2.136c1.62,0,2.34-1.031,2.34-2.147v-2.244
	c0.708-0.204,1.452-0.324,2.052-0.324c1.116,0,1.753,0.576,1.753,1.44c0,0.828-0.444,1.404-1.272,1.404
	c-0.492,0-0.948-0.288-1.32-0.732c-0.239,0.444-0.588,1.02-0.888,1.404c0.636,0.708,1.392,1.02,2.184,1.02
	c2.16,0,3.145-1.284,3.145-3.096C161.364,155.4,159.744,154.452,157.813,154.452z M153.313,159.192
	c-0.385,0-0.612-0.217-0.612-0.637c0-0.66,0.731-1.14,1.271-1.487c0.013,0.575,0.013,1.151,0.013,1.428
	C153.984,158.976,153.744,159.192,153.313,159.192z M172.632,158.628h0.973v-6.456h-1.752c0.071-0.228,0.132-0.456,0.191-0.672
	h1.933v-1.452h-5.244v1.452h1.704c-0.024,0.228-0.061,0.456-0.097,0.672h-1.332v6.456h0.756c-0.443,0.48-1.199,1.068-1.859,1.368
	c0.336,0.288,0.804,0.744,1.056,1.044c0.744-0.36,1.656-1.044,2.052-1.572c0.097,0,0.168-0.036,0.204-0.084l-1.212-0.756h2.437
	l-1.128,0.72c0.527,0.504,1.224,1.212,1.536,1.656l1.308-0.876C173.82,159.708,173.136,159.084,172.632,158.628z M172.08,157.38
	h-1.62v-0.552h1.62V157.38z M172.08,155.664h-1.62v-0.54h1.62V155.664z M172.08,153.96h-1.62v-0.54h1.62V153.96z M164.472,154.656
	v-3.12h1.477c-0.024,0.252-0.061,0.527-0.096,0.768h-0.996v4.393h1.151v0.756l-1.2-0.313c-0.119,0.805-0.336,1.692-0.647,2.232
	c0.312,0.144,0.792,0.372,1.056,0.563l0.024-0.035c0.156,0.348,0.3,0.792,0.336,1.115c1.596,0,1.824-0.384,1.824-1.392v-1.92
	c0.228,0.576,0.443,1.271,0.527,1.704l1.141-0.444c-0.12-0.492-0.408-1.271-0.685-1.86l-0.983,0.349v-0.744l0.071-0.012h1.093
	v-4.393h-1.296c0.084-0.264,0.155-0.54,0.216-0.768h1.044v-1.488h-5.521v4.608c0,1.644-0.023,3.863-0.563,5.363
	c0.336,0.145,0.996,0.624,1.248,0.889C164.353,159.228,164.472,156.492,164.472,154.656z M166.008,159.588
	c0,0.108-0.036,0.145-0.144,0.145c-0.084,0-0.3,0-0.528-0.013c0.3-0.576,0.528-1.38,0.648-2.076h0.023V159.588z M166.164,153.479
	h1.032v0.469h-1.032V153.479z M166.164,155.04h1.032v0.479h-1.032V155.04z M182.28,151.644L181.116,153
	c1.416,0.876,2.376,2.04,2.748,4.224l1.92-0.636C185.4,154.176,183.937,152.556,182.28,151.644z M178.236,160.128
	c1.151,0,1.992-0.816,2.544-2.844c-0.42-0.24-1.141-0.828-1.488-1.176c-0.18,0.84-0.624,2.027-0.996,2.027
	c-0.611,0-1.2-0.983-1.2-3.168c0-1.151,0.156-2.483,0.349-3.42c0.132-0.012,0.275-0.108,0.3-0.216l-2.304-0.42
	c-0.156,1.188-0.229,2.412-0.229,3.516c0,0.48,0.012,0.937,0.036,1.356C175.344,157.584,176.196,160.128,178.236,160.128z
	 M194.28,151.644L193.116,153c1.416,0.876,2.376,2.04,2.748,4.224l1.92-0.636C197.4,154.176,195.937,152.556,194.28,151.644z
	 M190.296,158.136c-0.611,0-1.2-0.983-1.2-3.168c0-1.151,0.156-2.483,0.349-3.42c0.132-0.012,0.275-0.108,0.3-0.216l-2.304-0.42
	c-0.156,1.188-0.229,2.412-0.229,3.516c0,0.48,0.012,0.937,0.036,1.356c0.096,1.8,0.948,4.344,2.988,4.344
	c1.151,0,1.992-0.816,2.544-2.844c-0.42-0.24-1.141-0.828-1.488-1.176C191.112,156.948,190.668,158.136,190.296,158.136z
	 M209.124,155.46l-0.012-1.74c-1.393,0-3.061,0.204-4.248,0.576l0.384,1.56C206.437,155.556,207.853,155.424,209.124,155.46z
	 M203.364,151.812c0.072-0.443,0.168-1.092,0.216-1.487c0.192-0.036,0.313-0.156,0.336-0.301l-2.304-0.191
	c-0.048,0.684-0.12,1.5-0.204,2.16c-0.192,0-0.384,0.012-0.564,0.012c-0.563,0-1.188-0.012-1.571-0.036l0.035,1.729
	c0.192,0.012,0.433,0.012,0.685,0.012c0.204,0,1.008,0,1.176-0.012c-0.384,2.279-1.067,4.464-2.004,6.348l1.896,0.66
	c0.804-1.98,1.548-4.704,2.004-7.104c1.104-0.096,2.244-0.275,3.096-0.552l-0.336-1.812
	C205.092,151.512,204.216,151.692,203.364,151.812z M205.764,158.1c0-0.264,0.169-0.588,0.517-0.924l-1.561-0.552
	c-0.491,0.552-0.756,1.2-0.768,1.788c-0.012,0.876,0.528,1.656,1.704,1.908c0.66,0.144,1.607,0.204,2.46,0.204
	c0.444,0,0.876-0.024,1.212-0.049l0.048-1.8c-0.443,0.048-1.008,0.072-1.536,0.072C206.28,158.748,205.764,158.64,205.764,158.1z
	 M220.477,156.828c-1.368,1.271-2.616,1.824-3.673,1.824c-1.164,0-1.896-0.648-1.896-2.064c0-1.752,0.12-4.38,0.228-6.072
	c0.229-0.036,0.336-0.144,0.36-0.288l-2.424-0.084c-0.084,1.429-0.156,4.801-0.156,6.456c0,2.4,0.996,3.948,3.876,3.948
	c1.645,0,3.18-0.624,4.716-2.063C221.244,158.172,220.68,157.224,220.477,156.828z M229.608,149.964l-2.185-0.096
	c0,0.336,0.013,0.888,0.024,1.38c-0.288,0-0.588,0.012-0.888,0.012c-0.948,0-2.173,0-2.893-0.048v1.608
	c0.756,0,2.028,0.023,2.868,0.023h0.96c0.024,0.48,0.036,0.96,0.06,1.464c-0.264,0.013-0.516,0.013-0.768,0
	c-0.576-0.012-0.804-0.023-0.804-0.216c0-0.144,0.312-0.336,0.684-0.479l-1.236-0.601c-0.924,0.54-1.308,1.032-1.308,1.561
	c0,0.888,0.912,1.224,3.048,1.224c0.132,0,0.288-0.012,0.433-0.012c0.012,0.324,0.023,0.624,0.023,0.924
	c-0.252-0.036-0.504-0.048-0.756-0.048c-1.512,0-2.784,0.768-2.784,2.004c0,1.152,1.068,2.004,2.7,2.004
	c2.676,0,2.676-1.356,2.676-1.836c0.696,0.384,1.368,0.864,1.956,1.44l1.092-1.572c-0.936-0.696-2.016-1.248-3.107-1.608
	c-0.024-0.408-0.048-0.852-0.061-1.355c1.093-0.049,2.269-0.168,2.965-0.313l-0.133-1.584c-0.659,0.132-1.812,0.288-2.855,0.372
	c-0.012-0.456-0.012-0.924-0.012-1.416c1.416-0.06,2.531-0.144,3.624-0.312l-0.156-1.669c-1.141,0.217-2.316,0.301-3.468,0.372
	v-0.972C229.488,150.18,229.596,150.096,229.608,149.964z M227.664,158.52c0,0.456-0.276,0.696-0.876,0.696
	c-0.66,0-1.116-0.216-1.116-0.588c0-0.348,0.384-0.624,1.044-0.624c0.288,0,0.637,0.072,0.948,0.156V158.52z M241.764,150.12
	c0.192-0.036,0.324-0.181,0.337-0.276l-2.341-0.107c0.049,0.588,0.072,1.584,0.072,1.596c-0.744,0.023-1.5,0.048-2.04,0.072
	c-0.948,0.023-2.028,0.023-2.748,0.048l0.048,1.656c0.349-0.013,3.732-0.133,4.801-0.156c0,0.12,0.023,0.672,0.023,0.779
	c-0.216-0.06-0.408-0.084-0.612-0.084c-1.235,0-2.399,0.948-2.388,2.364c0,1.38,1.128,2.221,2.196,2.221
	c0.084,0,0.275-0.013,0.372-0.036c-0.48,0.552-1.44,1.008-2.484,1.344c0.432,0.348,1.056,0.996,1.368,1.428
	c1.668-0.588,2.784-1.704,3.36-2.868c0.228-0.443,0.312-1.128,0.312-1.775c0-0.252,0-0.889-0.192-1.429
	c0-0.18-0.048-1.655-0.06-1.979c0.768-0.024,1.5-0.036,2.148-0.036c0.636,0,1.188,0.012,1.571,0.024V151.2
	c-0.54,0.012-2.124,0.048-3.744,0.096C241.764,151.104,241.752,150.288,241.764,150.12z M239.353,156.852
	c-0.408,0-0.805-0.359-0.805-0.863c0.013-0.624,0.408-0.925,0.84-0.937c0.576,0,0.757,0.396,0.757,0.9
	C240.145,156.479,239.856,156.852,239.353,156.852z M49.212,170.892c0.181-0.023,0.3-0.132,0.349-0.275l-2.232-0.145
	c-0.864,1.488-2.808,3.408-4.836,4.5c0.372,0.336,0.852,0.96,1.092,1.356c0.756-0.444,1.477-0.96,2.148-1.512v1.02h5.027v-1.056
	c0.708,0.588,1.477,1.115,2.221,1.548c0.323-0.528,0.708-1.104,1.151-1.536C52.38,174.012,50.364,172.452,49.212,170.892z
	 M46.416,174.228c0.744-0.672,1.368-1.355,1.824-2.004c0.456,0.637,1.116,1.332,1.872,2.004H46.416z M50.988,176.771h-6.96v1.645
	h5.868c-0.433,0.996-0.984,2.16-1.477,3.132l1.872,0.504c0.732-1.548,1.584-3.408,2.076-4.62c0.06-0.084,0.12-0.204,0.156-0.312
	l-1.164-0.384L50.988,176.771z M62.532,176.412c0.6-0.036,1.2-0.072,1.812-0.096c0.145,0.275,0.265,0.527,0.336,0.756l1.465-0.816
	c-0.301-0.78-1.068-1.86-1.752-2.652l-1.345,0.732c0.156,0.192,0.313,0.396,0.456,0.612l-1.5,0.023
	c0.96-0.792,1.92-1.68,2.604-2.448c0.191,0.013,0.348-0.035,0.408-0.132l-1.765-0.936c-0.504,0.66-1.164,1.392-1.884,2.1
	c-0.145-0.144-0.324-0.3-0.516-0.456c0.491-0.479,1.056-1.08,1.403-1.548c0.181,0.024,0.324-0.012,0.384-0.107l-1.668-0.9
	c-0.3,0.54-0.792,1.2-1.248,1.74c-0.191-0.132-0.384-0.252-0.563-0.36l-1.032,1.128c0.685,0.444,1.488,1.08,2.028,1.632
	c-0.12,0.108-0.24,0.204-0.36,0.301c-0.672,0.012-1.271,0.012-1.775,0.012l0.456-0.744c0.191,0.024,0.3-0.024,0.359-0.12
	l-1.74-0.731c-0.647,1.283-1.739,2.663-2.664,3.432c0.229,0.372,0.637,1.2,0.792,1.572c0.265-0.24,0.528-0.517,0.792-0.805v4.429
	h1.62v-6.168c0.204-0.024,0.313-0.12,0.349-0.229l-0.324-0.107c0.12-0.169,0.24-0.349,0.348-0.517l0.42,1.764
	c0.108-0.012,0.217-0.071,0.252-0.191l1.597-0.072c-0.624,0.792-1.488,1.5-2.353,1.933c0.3,0.287,0.792,0.899,1.021,1.224
	c0.275-0.156,0.552-0.336,0.815-0.54c0.229,0.276,0.456,0.528,0.708,0.768c-0.744,0.313-1.596,0.54-2.496,0.685
	c0.288,0.359,0.66,1.032,0.816,1.464c1.14-0.252,2.184-0.612,3.096-1.092c0.912,0.516,1.98,0.888,3.229,1.116
	c0.216-0.444,0.672-1.141,1.032-1.488c-1.044-0.132-1.969-0.349-2.784-0.672c0.695-0.612,1.235-1.368,1.607-2.28
	c0.072-0.061,0.133-0.096,0.168-0.192l-1.104-0.468l-0.276,0.061H61.86c0.12-0.169,0.24-0.337,0.348-0.505
	C62.364,176.544,62.484,176.496,62.532,176.412z M62.76,178.271c-0.252,0.313-0.552,0.601-0.899,0.853
	c-0.36-0.252-0.672-0.54-0.937-0.853H62.76z M54.492,173.208c0.276,0.324,0.72,0.96,0.936,1.32c0.984-0.841,2.076-2.137,2.712-3.072
	c0.168,0.023,0.288-0.024,0.349-0.12l-1.8-0.72C56.232,171.444,55.308,172.548,54.492,173.208z M72.468,171.636
	c-3.012,0-5.556,2.172-5.556,5.328c0,2.124,0.972,3.264,2.424,3.264c2.088,0,3.265-1.956,3.792-6.239
	c0.181,0,0.336-0.097,0.384-0.204l-1.8-0.396c0.24-0.036,0.468-0.06,0.721-0.06c1.932,0,3.312,1.067,3.312,2.988
	c0,1.728-0.948,3.023-3.672,3.563c0.504,0.492,0.899,1.092,1.176,1.536c3.084-0.828,4.452-2.328,4.452-5.136
	C77.7,173.556,75.84,171.636,72.468,171.636z M69.396,178.428c-0.505,0-0.685-0.66-0.685-1.536c0-1.536,0.996-2.892,2.532-3.384
	C71.088,176.076,70.428,178.428,69.396,178.428z M84.588,175.476h3.168v4.561c0,0.24-0.06,0.24-0.611,0.24
	c-0.252,0-0.564,0-0.841-0.024c0.229,0.444,0.456,1.248,0.505,1.716c2.243,0.024,2.663-0.468,2.663-1.908v-9.012h-4.884V175.476z
	 M86.244,172.271h1.512v0.396h-1.512V172.271z M86.244,173.771h1.512v0.48h-1.512V173.771z M87.324,178.02H86.16v-0.684h0.996
	v-1.356H81.42v1.356h0.948v0.684h-1.104v1.404h0.996c-0.155,0.492-0.479,1.056-1.067,1.452c0.336,0.228,0.863,0.708,1.092,1.008
	c0.888-0.6,1.308-1.691,1.476-2.46h0.876v2.388h1.524v-2.388h1.164V178.02z M84.636,178.02h-0.792v-0.684h0.792V178.02z
	 M83.964,171.048h-4.8v10.968h1.704v-6.576h3.096V171.048z M82.332,174.216h-1.464v-0.444h1.464V174.216z M82.332,172.668h-1.464
	v-0.396h1.464V172.668z M101.652,173.34c0.048,0.012,0.096,0.012,0.132,0.012c0.108,0,0.192-0.023,0.24-0.084l-1.416-1.056
	c-0.288,0.348-0.732,0.768-1.152,1.128c-0.132-0.132-0.252-0.288-0.372-0.432c0.408-0.3,0.864-0.648,1.141-0.912
	c0.048,0.012,0.096,0.012,0.144,0.012c0.108,0,0.192-0.023,0.24-0.084l-1.44-1.08c-0.228,0.276-0.528,0.601-0.852,0.9
	c-0.192-0.36-0.36-0.744-0.504-1.128l-1.572,0.443c0.492,1.345,1.128,2.532,1.956,3.517h-3.732c0.721-0.816,1.284-1.765,1.645-2.845
	c0.084-0.048,0.168-0.119,0.204-0.203l-1.212-0.54l-0.276,0.06h-3.108v1.488h2.137c-0.156,0.275-0.349,0.54-0.553,0.792
	c-0.288-0.252-0.684-0.528-0.972-0.732l-1.092,0.9c0.324,0.264,0.744,0.612,1.032,0.888c-0.54,0.444-1.129,0.804-1.753,1.068
	c0.349,0.312,0.828,0.912,1.057,1.308c0.528-0.252,1.02-0.552,1.488-0.899v0.359h0.876v1.116h-2.46v1.596h2.159
	c-0.336,0.685-1.044,1.309-2.496,1.74c0.36,0.313,0.889,0.996,1.104,1.393c2.16-0.708,2.988-1.885,3.276-3.133h1.296v0.948
	c0,1.548,0.348,2.064,1.812,2.064h1.176c1.152,0,1.597-0.517,1.765-2.137c-0.468-0.107-1.188-0.396-1.561-0.672
	c-0.048,1.044-0.107,1.272-0.384,1.272h-0.66c-0.288,0-0.324-0.061-0.324-0.54v-0.937h2.4v-1.596h-2.4v-1.116h0.9v-0.348
	c0.42,0.312,0.864,0.588,1.356,0.828c0.264-0.469,0.804-1.164,1.212-1.513c-0.601-0.239-1.141-0.552-1.645-0.924
	C100.896,173.964,101.353,173.604,101.652,173.34z M96.816,177.336h-1.152v-1.116h1.152V177.336z M108.468,171.636
	c-3.012,0-5.556,2.172-5.556,5.328c0,2.124,0.972,3.264,2.424,3.264c2.088,0,3.265-1.956,3.792-6.239
	c0.181,0,0.336-0.097,0.384-0.204l-1.8-0.396c0.24-0.036,0.468-0.06,0.721-0.06c1.932,0,3.312,1.067,3.312,2.988
	c0,1.728-0.948,3.023-3.672,3.563c0.504,0.492,0.899,1.092,1.176,1.536c3.084-0.828,4.452-2.328,4.452-5.136
	C113.7,173.556,111.84,171.636,108.468,171.636z M105.396,178.428c-0.505,0-0.685-0.66-0.685-1.536c0-1.536,0.996-2.892,2.532-3.384
	C107.088,176.076,106.428,178.428,105.396,178.428z M123.012,178.14l-1.596-0.672c-0.912,0.636-2.76,1.104-4.308,1.32
	c0.348,0.336,0.72,0.852,0.912,1.224c1.739-0.348,3.588-0.96,4.668-1.728C122.856,178.284,122.964,178.236,123.012,178.14z
	 M125.82,175.932v-1.452h-5.893l0.181-0.455c0.18,0.012,0.312-0.061,0.359-0.169l-0.18-0.048c0.984-0.048,2.016-0.096,3.036-0.155
	c0.264,0.287,0.504,0.563,0.66,0.792c0.504-0.301,1.008-0.589,1.512-0.876c-0.612-0.78-1.884-1.86-2.82-2.593l-1.392,0.78
	c0.228,0.18,0.456,0.384,0.696,0.6c-0.948,0.024-1.896,0.036-2.809,0.061c0.288-0.36,0.552-0.72,0.756-1.032
	c0.192,0,0.324-0.048,0.372-0.156l-2.027-0.611c-0.229,0.563-0.624,1.248-1.009,1.823c-0.827,0.013-1.571,0.024-2.195,0.024
	l0.576,1.704c0.107,0,0.203-0.072,0.239-0.192c0.696-0.023,1.524-0.048,2.424-0.084c-0.084,0.204-0.18,0.396-0.275,0.588h-3.229
	v1.452h2.257c-0.708,0.828-1.608,1.477-2.641,1.908c0.36,0.3,0.924,0.924,1.176,1.272c0.805-0.396,1.524-0.9,2.16-1.5
	c0.168,0.191,0.324,0.372,0.433,0.527c1.176-0.239,2.628-0.695,3.443-1.151c0.156,0,0.265-0.048,0.301-0.12l-1.536-0.672
	c-0.456,0.252-1.2,0.504-1.956,0.684c0.252-0.3,0.491-0.612,0.708-0.948h2.34c0.888,1.309,2.1,2.437,3.479,3.097
	c0.252-0.408,0.757-1.044,1.128-1.368c-0.983-0.384-1.92-1.008-2.64-1.729H125.82z M116.232,180.6
	c0.312,0.385,0.636,0.984,0.792,1.429c3.06-0.372,5.64-1.044,7.212-2.496c0.204,0,0.324-0.061,0.372-0.168l-1.824-0.672
	C121.524,179.88,118.956,180.408,116.232,180.6z M136.849,172.08c0.048,0.012,0.107,0.023,0.155,0.023
	c0.108,0,0.204-0.035,0.265-0.107l-1.597-0.937c-0.312,0.42-0.66,0.828-1.032,1.236v-0.528h-2.388v-0.779
	c0.252-0.049,0.349-0.133,0.36-0.265l-2.088-0.107v1.151h-2.641v1.404h2.641v0.792h-3.744v1.452h4.032l-0.696,0.432l-0.348-0.036
	l-0.049,0.265c-1.056,0.588-2.147,1.104-3.239,1.5c0.312,0.324,0.756,0.912,0.96,1.26c0.624-0.252,1.235-0.528,1.836-0.828
	c-0.168,0.636-0.336,1.236-0.492,1.704l1.74,0.24c0.048-0.156,0.096-0.336,0.144-0.517h3.564c-0.276,0.996-0.528,1.057-0.996,1.057
	c-0.324,0-1.08-0.024-1.729-0.084c0.313,0.456,0.517,1.116,0.54,1.607c0.252,0.013,0.504,0.013,0.732,0.013
	c2.208,0,2.808-0.097,3.372-3.324c0.084-0.108,0.144-0.252,0.168-0.36l-1.08-0.372l-0.348,0.072h-3.864l0.072-0.312
	c1.739-0.133,3.624-0.396,4.896-0.732c0.18,0,0.252,0,0.313-0.048l-1.093-1.164c-0.815,0.252-1.968,0.468-3.168,0.624
	c0.469-0.324,0.924-0.648,1.38-0.996h4.368v-1.452h-2.688C135.732,173.364,136.32,172.74,136.849,172.08z M132.84,173.964h-0.588
	v-0.792h1.5C133.464,173.448,133.152,173.712,132.84,173.964z M143.868,174.444c1.416-0.024,3.696-0.181,5.112-0.396l-0.156-1.8
	c-1.392,0.24-3.732,0.408-5.016,0.444L143.868,174.444z M145.404,178.116c0-0.564,0.312-1.104,0.828-1.584l-1.765-0.564
	c-0.611,0.769-0.983,1.536-0.983,2.424c0,2.305,2.844,2.305,4.416,2.305c0.456,0,0.924-0.013,1.368-0.036l0.06-1.836
	c-0.516,0.071-1.188,0.107-1.776,0.107C145.956,178.932,145.404,178.764,145.404,178.116z M141.324,178.44
	c-0.036-0.229-0.036-0.505-0.036-0.841c0-1.668,0.168-3.6,0.636-5.748c0.229-0.023,0.336-0.12,0.349-0.252l-2.316-0.3
	c-0.288,1.932-0.528,4.176-0.528,5.832c0,1.608,0.181,3.204,0.564,4.368l1.824-0.264c-0.036-0.145-0.061-0.288-0.061-0.444
	c0-0.18,0.036-0.372,0.097-0.576c0.18-0.6,0.636-1.248,0.983-1.908l-0.804-1.38C141.888,177.288,141.432,178.2,141.324,178.44z
	 M154.092,178.776c0-0.336,0.097-0.589,0.528-0.973l-1.38-1.02c-0.696,0.756-1.008,1.319-1.008,2.076
	c0,1.416,1.332,2.699,4.428,2.699h2.184l0.168-1.8c-0.636,0.036-1.38,0.072-2.304,0.072
	C155.112,179.832,154.092,179.532,154.092,178.776z M160.872,172.248c-0.864,0.264-2.424,0.528-3.54,0.612
	c-0.096-0.553-0.144-0.996-0.18-1.584c0.216-0.049,0.324-0.181,0.336-0.324l-2.388-0.061c0.096,0.708,0.18,1.416,0.312,2.088
	c-0.312,0.024-0.66,0.036-0.96,0.036c-1.561,0-2.388-0.023-3.048-0.048l0.012,1.729c0.828,0.023,2.364,0.035,3.036,0.035
	c0.552,0,0.948-0.012,1.392-0.035c0.192,0.588,0.42,1.14,0.673,1.523c-0.313-0.06-0.864-0.096-1.177-0.084l0.517,1.452
	c0.647-0.024,1.487,0.12,1.812,0.3c0.18,0.108,0.517,0.324,0.744,0.54l1.32-1.536c-0.973-0.456-1.548-1.128-1.98-2.328
	c1.176-0.107,2.58-0.252,3.444-0.468L160.872,172.248z M169.116,177.396c-0.168,0-0.696-0.096-1.152-0.371
	c-0.012,0.468-0.071,1.14-0.168,1.476c0.54,0.264,1.116,0.456,1.716,0.456c1.933,0,1.933-1.692,1.933-3.636
	c0.888-0.12,1.728-0.217,2.315-0.265l-0.132-1.752c-0.588,0.072-1.416,0.204-2.208,0.324c-0.023-0.732-0.036-1.608-0.071-2.244
	c0.191-0.084,0.264-0.168,0.264-0.288l-2.16-0.06c0.072,0.768,0.108,1.932,0.156,2.903c-0.937,0.156-1.872,0.313-2.688,0.456
	c0.024-0.756,0.012-1.632,0.048-2.147c0.252-0.072,0.336-0.156,0.36-0.3l-2.268-0.168c-0.013,0.372,0,0.624,0.023,2.928
	c-0.828,0.156-1.764,0.3-2.28,0.372l0.276,1.704c0.384-0.097,1.332-0.276,2.016-0.42c0.024,0.936,0.049,1.836,0.097,2.34
	c0.239,2.64,2.04,2.808,4.271,2.808c0.876,0,1.969-0.036,2.893-0.155l-0.036-1.692c-0.912,0.192-2.22,0.252-3.12,0.252
	c-0.276,0-0.504,0-0.672-0.012c-1.068-0.048-1.477-0.36-1.561-1.32c-0.036-0.456-0.06-1.488-0.06-2.544
	c0.768-0.145,1.74-0.3,2.736-0.456c0,0.563-0.024,1.128-0.072,1.44C169.536,177.24,169.332,177.396,169.116,177.396z
	 M182.46,174.228c0.96-0.708,1.512-0.815,2.664-0.792l-0.036-1.956c-2.256,0.12-7.008,0.408-8.544,0.505
	c-0.324,0.023-0.936,0.035-1.308,0.035l0.18,2.089c0.12-0.024,0.288-0.108,0.313-0.204c0.876-0.108,3.432-0.36,4.859-0.444
	c-1.607,1.2-2.808,3.024-2.808,4.38c0,2.04,1.38,3.564,4.8,3.937l0.9-1.824c-2.46-0.229-3.685-0.912-3.685-2.136
	C179.796,176.532,181.368,175.008,182.46,174.228z M190.296,179.136c-0.611,0-1.2-0.983-1.2-3.168c0-1.151,0.156-2.483,0.349-3.42
	c0.132-0.012,0.275-0.108,0.3-0.216l-2.304-0.42c-0.156,1.188-0.229,2.412-0.229,3.516c0,0.48,0.012,0.937,0.036,1.356
	c0.096,1.8,0.948,4.344,2.988,4.344c1.151,0,1.992-0.816,2.544-2.844c-0.42-0.24-1.141-0.828-1.488-1.176
	C191.112,177.948,190.668,179.136,190.296,179.136z M194.28,172.644L193.116,174c1.416,0.876,2.376,2.04,2.748,4.224l1.92-0.636
	C197.4,175.176,195.937,173.556,194.28,172.644z M209.124,176.46l-0.012-1.74c-1.393,0-3.061,0.204-4.248,0.576l0.384,1.56
	C206.437,176.556,207.853,176.424,209.124,176.46z M205.764,179.1c0-0.264,0.169-0.588,0.517-0.924l-1.561-0.552
	c-0.491,0.552-0.756,1.2-0.768,1.788c-0.012,0.876,0.528,1.656,1.704,1.908c0.66,0.144,1.607,0.204,2.46,0.204
	c0.444,0,0.876-0.024,1.212-0.049l0.048-1.8c-0.443,0.048-1.008,0.072-1.536,0.072C206.28,179.748,205.764,179.64,205.764,179.1z
	 M205.824,172.236c-0.732,0.275-1.608,0.456-2.46,0.575c0.072-0.443,0.168-1.092,0.216-1.487c0.192-0.036,0.313-0.156,0.336-0.301
	l-2.304-0.191c-0.048,0.684-0.12,1.5-0.204,2.16c-0.192,0-0.384,0.012-0.564,0.012c-0.563,0-1.188-0.012-1.571-0.036l0.035,1.729
	c0.192,0.012,0.433,0.012,0.685,0.012c0.204,0,1.008,0,1.176-0.012c-0.384,2.279-1.067,4.464-2.004,6.348l1.896,0.66
	c0.804-1.98,1.548-4.704,2.004-7.104c1.104-0.096,2.244-0.275,3.096-0.552L205.824,172.236z M219.696,179.748
	c-1.44,0-1.933-0.12-1.933-0.648c0-0.264,0.169-0.588,0.517-0.924l-1.561-0.552c-0.491,0.552-0.756,1.2-0.768,1.788
	c-0.012,0.876,0.528,1.656,1.704,1.908c0.6,0.132,1.523,0.191,2.448,0.191c0.432,0,0.852-0.012,1.26-0.036l-0.024-1.812
	C220.86,179.712,220.26,179.748,219.696,179.748z M220.692,170.46l-0.732,0.672c0.444,0.348,1.152,1.116,1.428,1.524l0.78-0.696
	C221.844,171.456,221.232,170.868,220.692,170.46z M217.248,176.855c1.188-0.3,2.604-0.432,3.876-0.396l-0.012-1.74
	c-1.393,0-3.061,0.204-4.248,0.576L217.248,176.855z M218.964,171.144l-0.731,0.66c0.42,0.336,1.176,1.128,1.428,1.548l0.792-0.695
	C220.128,172.188,219.48,171.54,218.964,171.144z M217.824,172.236c-0.732,0.275-1.608,0.456-2.46,0.575
	c0.072-0.443,0.168-1.092,0.216-1.487c0.192-0.036,0.313-0.156,0.336-0.301l-2.304-0.191c-0.048,0.684-0.12,1.5-0.204,2.16
	c-0.192,0-0.384,0.012-0.564,0.012c-0.563,0-1.188-0.012-1.571-0.036l0.035,1.729c0.192,0.012,0.433,0.012,0.685,0.012
	c0.204,0,1.008,0,1.176-0.012c-0.384,2.279-1.067,4.464-2.004,6.348l1.896,0.66c0.804-1.98,1.548-4.704,2.004-7.104
	c1.104-0.096,2.244-0.275,3.096-0.552L217.824,172.236z M226.428,179.352c0.013-0.228,0.217-0.527,0.612-0.731l-1.224-1.104
	c-0.66,0.433-1.248,1.141-1.248,1.933c0,1.416,1.428,2.147,3.552,2.184c0.348,0,0.672,0.012,0.96,0.012
	c0.876,0,1.512-0.035,1.944-0.084l0.096-1.655c-0.684,0.096-1.92,0.144-2.748,0.144
	C227.088,180.048,226.428,179.868,226.428,179.352z M232.86,174.036c-0.937,0.359-2.208,0.611-3.48,0.756
	c-0.071-0.264-0.156-0.66-0.228-0.96c0.96-0.096,1.992-0.229,2.952-0.504l-0.324-1.548c-0.78,0.252-2.028,0.479-2.94,0.552
	c-0.048-0.372-0.084-0.828-0.107-1.14c0.204-0.049,0.336-0.156,0.336-0.301l-2.244-0.048c0.06,0.517,0.144,1.152,0.228,1.62
	c-0.323,0.024-0.792,0.024-1.115,0.024c-0.564,0-1.141-0.013-1.729-0.049l-0.012,1.524c0.588,0.024,1.151,0.024,1.824,0.024
	c0.443,0,0.96,0,1.319-0.024c0.072,0.313,0.204,0.708,0.276,0.96c-0.685,0.036-1.524,0.048-2.185,0.048
	c-0.636,0-1.392-0.012-2.004-0.036l0.024,1.513c0.744,0.023,1.536,0.023,2.063,0.023c0.78,0,1.717-0.023,2.604-0.071
	c0.168,0.312,0.396,0.6,0.516,0.743c-0.107-0.012-0.228-0.012-0.359-0.012c-0.204,0-0.42,0.012-0.588,0.024l0.456,1.319
	c0.228-0.035,0.479-0.06,0.72-0.06c0.72,0,1.14,0.108,1.764,0.516l1.008-1.416c-0.684-0.3-1.296-0.804-1.668-1.308
	c1.236-0.132,2.46-0.324,3.192-0.6L232.86,174.036z M244.776,171.815c-1.141,0.217-2.316,0.301-3.468,0.372v-0.972
	c0.18-0.036,0.287-0.12,0.3-0.252l-2.185-0.096c0,0.336,0.013,0.888,0.024,1.38c-0.288,0-0.588,0.012-0.888,0.012
	c-0.948,0-2.173,0-2.893-0.048v1.608c0.756,0,2.028,0.023,2.868,0.023h0.96c0.024,0.48,0.036,0.96,0.06,1.464
	c-0.264,0.013-0.516,0.013-0.768,0c-0.576-0.012-0.804-0.023-0.804-0.216c0-0.144,0.312-0.336,0.684-0.479l-1.236-0.601
	c-0.924,0.54-1.308,1.032-1.308,1.561c0,0.888,0.912,1.224,3.048,1.224c0.132,0,0.288-0.012,0.433-0.012
	c0.012,0.324,0.023,0.624,0.023,0.924c-0.252-0.036-0.504-0.048-0.756-0.048c-1.512,0-2.784,0.768-2.784,2.004
	c0,1.152,1.068,2.004,2.7,2.004c2.676,0,2.676-1.356,2.676-1.836c0.696,0.384,1.368,0.864,1.956,1.44l1.092-1.572
	c-0.936-0.696-2.016-1.248-3.107-1.608c-0.024-0.408-0.048-0.852-0.061-1.355c1.093-0.049,2.269-0.168,2.965-0.313l-0.133-1.584
	c-0.659,0.132-1.812,0.288-2.855,0.372c-0.012-0.456-0.012-0.924-0.012-1.416c1.416-0.06,2.531-0.144,3.624-0.312L244.776,171.815z
	 M239.664,179.52c0,0.456-0.276,0.696-0.876,0.696c-0.66,0-1.116-0.216-1.116-0.588c0-0.348,0.384-0.624,1.044-0.624
	c0.288,0,0.637,0.072,0.948,0.156V179.52z M253.764,171.12c0.192-0.036,0.324-0.181,0.337-0.276l-2.341-0.107
	c0.049,0.588,0.072,1.584,0.072,1.596c-0.744,0.023-1.5,0.048-2.04,0.072c-0.948,0.023-2.028,0.023-2.748,0.048l0.048,1.656
	c0.349-0.013,3.732-0.133,4.801-0.156c0,0.12,0.023,0.672,0.023,0.779c-0.216-0.06-0.408-0.084-0.612-0.084
	c-1.235,0-2.399,0.948-2.388,2.364c0,1.38,1.128,2.221,2.196,2.221c0.084,0,0.275-0.013,0.372-0.036
	c-0.48,0.552-1.44,1.008-2.484,1.344c0.432,0.348,1.056,0.996,1.368,1.428c1.668-0.588,2.784-1.704,3.36-2.868
	c0.228-0.443,0.312-1.128,0.312-1.775c0-0.252,0-0.889-0.192-1.429c0-0.18-0.048-1.655-0.06-1.979
	c0.768-0.024,1.5-0.036,2.148-0.036c0.636,0,1.188,0.012,1.571,0.024V172.2c-0.54,0.012-2.124,0.048-3.744,0.096
	C253.764,172.104,253.752,171.288,253.764,171.12z M251.353,177.852c-0.408,0-0.805-0.359-0.805-0.863
	c0.013-0.624,0.408-0.925,0.84-0.937c0.576,0,0.757,0.396,0.757,0.9C252.145,177.479,251.856,177.852,251.353,177.852z
	 M52.38,82.336c0-0.44,0.28-0.98,0.86-1.54l-2.601-0.92c-0.819,0.92-1.26,2-1.279,2.979c-0.021,1.46,0.88,2.76,2.84,3.181
	c1.1,0.239,2.68,0.34,4.1,0.34c0.74,0,1.46-0.04,2.021-0.08l0.08-3c-0.74,0.08-1.681,0.12-2.561,0.12
	C53.24,83.416,52.38,83.235,52.38,82.336z M44.54,86.676c1.34-3.3,2.58-7.84,3.34-11.84c1.84-0.16,3.74-0.46,5.16-0.92l-0.561-3.021
	c-1.22,0.46-2.68,0.76-4.1,0.96c0.12-0.74,0.28-1.819,0.36-2.479c0.319-0.061,0.52-0.261,0.56-0.5l-3.84-0.32
	c-0.08,1.14-0.2,2.5-0.34,3.6c-0.32,0-0.641,0.021-0.94,0.021c-0.939,0-1.979-0.021-2.62-0.061l0.061,2.881
	c0.319,0.02,0.72,0.02,1.14,0.02c0.34,0,1.68,0,1.96-0.02c-0.64,3.8-1.78,7.439-3.34,10.579L44.54,86.676z M51.52,78.596
	c1.98-0.5,4.341-0.72,6.46-0.66l-0.02-2.899c-2.32,0-5.1,0.34-7.08,0.96L51.52,78.596z M64.54,86.676c1.34-3.3,2.58-7.84,3.34-11.84
	c1.84-0.16,3.74-0.46,5.16-0.92l-0.561-3.021c-1.22,0.46-2.68,0.76-4.1,0.96c0.12-0.74,0.28-1.819,0.36-2.479
	c0.319-0.061,0.52-0.261,0.56-0.5l-3.84-0.32c-0.08,1.14-0.2,2.5-0.34,3.6c-0.32,0-0.641,0.021-0.94,0.021
	c-0.939,0-1.979-0.021-2.62-0.061l0.061,2.881c0.319,0.02,0.72,0.02,1.14,0.02c0.34,0,1.68,0,1.96-0.02
	c-0.64,3.8-1.78,7.439-3.34,10.579L64.54,86.676z M69.36,82.855c-0.021,1.46,0.88,2.76,2.84,3.181c1,0.22,2.54,0.319,4.08,0.319
	c0.72,0,1.42-0.02,2.1-0.06l-0.04-3.021c-0.8,0.08-1.8,0.141-2.74,0.141c-2.399,0-3.22-0.2-3.22-1.08c0-0.44,0.28-0.98,0.86-1.54
	l-2.601-0.92C69.82,80.796,69.38,81.876,69.36,82.855z M75.54,72.756l1.32-1.16c-0.54-0.78-1.62-1.86-2.48-2.521l-1.22,1.101
	C73.86,70.735,75.12,72.056,75.54,72.756z M78.42,71.596l1.3-1.16c-0.54-0.84-1.56-1.82-2.46-2.5l-1.22,1.12
	C76.78,69.636,77.96,70.916,78.42,71.596z M77.96,75.036c-2.32,0-5.1,0.34-7.08,0.96l0.64,2.6c1.98-0.5,4.341-0.72,6.46-0.66
	L77.96,75.036z M95.88,80.876l3.2-1.061c-0.641-4.02-3.08-6.72-5.84-8.24l-1.94,2.261C93.66,75.296,95.26,77.235,95.88,80.876z
	 M86.5,85.716c1.92,0,3.32-1.36,4.24-4.74c-0.7-0.4-1.9-1.38-2.48-1.96c-0.3,1.4-1.04,3.38-1.66,3.38c-1.02,0-2-1.64-2-5.28
	c0-1.92,0.261-4.14,0.58-5.699c0.221-0.021,0.46-0.181,0.5-0.36l-3.84-0.7c-0.26,1.98-0.38,4.021-0.38,5.86
	c0,0.8,0.02,1.56,0.06,2.26C81.68,81.476,83.1,85.716,86.5,85.716z M108.6,73.575c0.04,0.801,0.061,1.601,0.101,2.44
	c-0.44,0.021-0.86,0.021-1.28,0c-0.96-0.02-1.34-0.04-1.34-0.36c0-0.239,0.52-0.56,1.14-0.8l-2.06-1
	c-1.54,0.9-2.181,1.72-2.181,2.601c0,1.479,1.521,2.04,5.08,2.04c0.221,0,0.48-0.021,0.721-0.021c0.02,0.54,0.04,1.04,0.04,1.54
	c-0.42-0.06-0.841-0.08-1.261-0.08c-2.52,0-4.64,1.28-4.64,3.34c0,1.92,1.78,3.34,4.5,3.34c4.46,0,4.46-2.26,4.46-3.06
	c1.16,0.64,2.28,1.44,3.26,2.4l1.82-2.62c-1.56-1.16-3.36-2.08-5.18-2.681c-0.04-0.68-0.08-1.42-0.101-2.26
	c1.82-0.08,3.78-0.28,4.94-0.52l-0.22-2.641c-1.101,0.221-3.021,0.48-4.761,0.62c-0.02-0.76-0.02-1.54-0.02-2.359
	c2.359-0.101,4.22-0.24,6.04-0.521l-0.26-2.78c-1.9,0.36-3.86,0.5-5.78,0.62v-1.62c0.3-0.06,0.479-0.199,0.5-0.42l-3.641-0.16
	c0,0.561,0.021,1.48,0.04,2.301c-0.479,0-0.979,0.02-1.479,0.02c-1.58,0-3.62,0-4.82-0.08v2.681c1.26,0,3.38,0.039,4.78,0.039H108.6
	z M108.88,83.036c0,0.76-0.46,1.159-1.46,1.159c-1.1,0-1.86-0.359-1.86-0.979c0-0.58,0.641-1.04,1.74-1.04
	c0.48,0,1.061,0.12,1.58,0.26V83.036z M136.38,86.976c0.3,0.14,0.58,0.2,0.86,0.2c1.239,0,2.26-1.3,2.52-4.04
	c-0.439-0.32-1.24-1.061-1.68-1.68c-0.12,1.279-0.26,2.6-0.46,2.6H137.6c-0.72-0.24-1.06-4.8-1.16-9.56h2.841v-2.62h-1.62
	l1.939-1.04c-0.279-0.7-0.96-1.681-1.54-2.4l-1.64,0.84v-0.439c0.44-0.08,0.62-0.221,0.64-0.46l-3.54-0.181
	c0.021,1.141,0.021,2.38,0.04,3.681h-5.46v2.62h5.521C133.82,80.275,134.36,86.115,136.38,86.976z M136.4,69.916
	c0.439,0.659,0.88,1.42,1.1,1.96h-1.1V69.916z M127.8,71.516h-7.38v2.26h7.38V71.516z M127.26,68.775H121.4v2.16h5.859V68.775z
	 M121.28,86.896h2.359v-0.7h3.7v-6.239h-6.06V86.896z M123.64,82.216h1.3v1.7h-1.3V82.216z M127.6,83.496l1.04,2.84
	c0.16-0.04,0.32-0.16,0.36-0.34c1.28-0.24,3.2-0.641,5.06-1.021l-0.199-2.4l-1.601,0.24v-3.939h1.24v-2.521h-5.24v2.521h1.32v4.359
	L127.6,83.496z M121.34,79.296h5.94v-2.16h-5.94V79.296z M127.28,74.376h-5.94v2.16h5.94V74.376z M142.72,81.376
	c0.101,0.779,0.141,1.72,0.141,2.54c0,0.439-0.021,0.84-0.04,1.199l1.239-0.159c0.021-0.28,0.021-0.601,0.021-0.94
	c0-0.88-0.061-1.92-0.18-2.76L142.72,81.376z M143.68,80.216h3.26c-0.02,0.56-0.06,1.08-0.079,1.52h-0.021
	c-0.12-0.359-0.24-0.72-0.4-1.02l-1.06,0.34c0.34,0.8,0.68,1.88,0.78,2.58l0.56-0.2c-0.12,1.061-0.2,1.561-0.8,1.561
	c-0.24,0-0.58,0-1.04-0.061c0.34,0.601,0.56,1.54,0.6,2.22c2.181,0.061,3.021-0.239,3.36-1.84c0.561,0.46,1.38,1.4,1.74,2
	c1.979-1.04,3.16-2.38,3.859-3.84c0.82,1.62,1.921,2.96,3.381,3.8c0.399-0.72,1.239-1.76,1.84-2.3c-1.58-0.7-2.8-1.979-3.58-3.5
	h2.62v-5.479h-3.3v-0.66h1.779v-1.08c0.34,0.28,0.681,0.52,1.021,0.72c0.38-0.82,0.96-1.9,1.479-2.58
	c-1.58-0.72-3.34-2.359-4.3-3.76c0.2-0.04,0.32-0.16,0.36-0.32l-3.04-0.1c-0.78,1.52-2.5,3.54-4.24,4.54v-0.78h-1.6v-0.78h1.979
	v-2.319h-7.52v11.739h2.359V80.216z M152.8,79.315h-0.72v-1.16h0.76C152.84,78.615,152.84,78.956,152.8,79.315z M156.24,78.155v1.16
	h-0.86c0.021-0.34,0.021-0.66,0.021-1.16H156.24z M154.02,70.735c0.46,0.74,1.12,1.58,1.86,2.34h-3.66
	C152.96,72.296,153.58,71.456,154.02,70.735z M146.86,77.136h1.6v-2.16h-1.6v-0.84h1.6v-1.32c0.479,0.62,0.96,1.62,1.26,2.3
	c0.46-0.26,0.9-0.579,1.32-0.939v1.16h1.8v0.66h-3.1v5.479h2.64c-0.479,1.42-1.5,2.78-3.54,3.8c0.24-1.1,0.38-3.08,0.5-6.479
	l0.061-0.721l-1.32-0.1l-0.521,0.021h-0.699V77.136z M143.68,71.195h0.9v0.78h-0.9V71.195z M143.68,74.136h0.9v0.84h-0.9V74.136z
	 M143.68,77.136h0.9v0.86h-0.9V77.136z M145.78,84.315c-0.04-0.859-0.28-2.2-0.561-3.24l-1.16,0.2c0.261,1.04,0.48,2.4,0.5,3.28
	L145.78,84.315z M142.7,81.235l-1.54-0.3c-0.08,1.72-0.32,3.38-1.04,4.4l1.439,0.76C142.4,84.956,142.6,83.115,142.7,81.235z
	 M168.64,70.056c0.32,0.04,0.54-0.08,0.641-0.26l-3.721-1.221c-0.96,2.62-2.8,5.421-4.72,6.961c0.76,0.479,2,1.46,2.62,2.06
	C165.479,75.735,167.4,72.815,168.64,70.056z M179.2,75.136c-1.82-1.7-3.98-4.3-5.061-6.5l-2.939,1.18
	c1.46,2.76,3.64,5.78,5.54,7.88C177.3,76.896,178.42,75.735,179.2,75.136z M171.6,76.575l-3.859-1.039
	c-0.74,2.5-2.021,5.56-3.32,7.88l-2.94,0.06l1.16,3.36c0.181,0,0.38-0.12,0.44-0.34c3.1-0.141,7.64-0.4,12.12-0.721
	c0.279,0.561,0.52,1.061,0.7,1.521l3.039-1.601c-0.939-1.979-2.739-4.84-4.46-7.04l-2.84,1.301c0.681,0.939,1.4,2.04,2.08,3.14
	c-2.02,0.08-4.06,0.16-5.96,0.22c1.16-1.979,2.34-4.319,3.101-6.359C171.24,76.916,171.5,76.796,171.6,76.575z M194.979,80.536
	h-1.939v-1.141h1.66v-2.26h-9.561v2.26h1.58v1.141h-1.84v2.34h1.66c-0.26,0.819-0.8,1.76-1.78,2.42c0.561,0.38,1.44,1.18,1.82,1.68
	c1.479-1,2.18-2.82,2.46-4.1h1.46v3.979h2.54v-3.979h1.939V80.536z M190.5,80.536h-1.32v-1.141h1.32V80.536z M184.22,76.235h5.16
	v-7.319h-8v18.279h2.84V76.235z M184.22,70.956h2.44v0.659h-2.44V70.956z M184.22,73.456h2.44v0.739h-2.44V73.456z M195.7,83.896
	c0,0.4-0.101,0.4-1.021,0.4c-0.42,0-0.939,0-1.399-0.04c0.38,0.74,0.76,2.08,0.84,2.859c3.74,0.04,4.439-0.779,4.439-3.18v-15.02
	h-8.14v7.38h5.28V83.896z M193.18,70.956h2.521v0.659h-2.521V70.956z M193.18,74.256v-0.8h2.521v0.8H193.18z M204.5,81.075h3.76
	v6.12h3.061v-6.12h3.96v0.94h3.06v-10.4h-7.02v-2.779c0.439-0.08,0.619-0.221,0.64-0.44l-3.7-0.2v3.42h-6.68v10.5h2.92V81.075z
	 M211.32,74.476h3.96v3.74h-3.96V74.476z M204.5,74.476h3.76v3.74h-3.76V74.476z M236.24,74.916c0.72,0.62,1.819,1.979,2.239,2.68
	l1.36-1.08c-0.479-0.88-1.439-1.92-2.3-2.64L236.24,74.916z M235.06,75.676l-1.3,1.04c0.66,0.6,1.84,2,2.22,2.72l1.381-1.08
	C236.86,77.516,235.86,76.355,235.06,75.676z M229.1,80.195c0-2.14,2.62-4.68,4.44-5.979c1.6-1.18,2.52-1.36,4.439-1.32l-0.06-3.26
	c-3.76,0.2-11.68,0.68-14.24,0.84c-0.54,0.04-1.56,0.061-2.18,0.061l0.3,3.479c0.2-0.04,0.48-0.18,0.521-0.34
	c1.46-0.18,5.479-0.5,8.1-0.74c-2.68,2-4.68,5.04-4.68,7.3c0,3.4,2.3,5.94,8,6.561l1.5-3.04
	C231.14,83.376,229.1,82.235,229.1,80.195z M252.38,70.996c0-0.32-0.02-1.681,0-1.96c0.32-0.061,0.54-0.301,0.56-0.461l-3.899-0.18
	c0.08,0.98,0.12,2.641,0.12,2.66c-1.24,0.04-2.5,0.08-3.4,0.12c-1.58,0.04-3.38,0.04-4.58,0.08l0.08,2.76
	c0.58-0.02,6.22-0.22,8-0.26c0,0.2,0.04,1.12,0.04,1.3c-0.36-0.1-0.68-0.14-1.02-0.14c-2.061,0-4,1.58-3.98,3.939
	c0,2.3,1.88,3.7,3.66,3.7c0.14,0,0.46-0.02,0.62-0.06c-0.8,0.92-2.4,1.68-4.141,2.239c0.721,0.58,1.761,1.66,2.28,2.38
	c2.78-0.979,4.641-2.84,5.601-4.779c0.38-0.74,0.52-1.88,0.52-2.96c0-0.42,0-1.48-0.32-2.38c0-0.301-0.08-2.761-0.1-3.301
	c1.28-0.04,2.5-0.06,3.58-0.06c1.06,0,1.979,0.02,2.62,0.04v-2.84C257.72,70.855,255.08,70.916,252.38,70.996z M248.36,80.256
	c-0.681,0-1.341-0.601-1.341-1.44c0.021-1.04,0.681-1.54,1.4-1.56c0.96,0,1.26,0.66,1.26,1.5
	C249.68,79.636,249.2,80.256,248.36,80.256z"/>
</svg>
