<?xml version="1.0" encoding="utf-8"?>
<!-- Generator: Adobe Illustrator 12.0.0, SVG Export Plug-In  -->
<!DOCTYPE svg PUBLIC "-//W3C//DTD SVG 1.1//EN" "http://www.w3.org/Graphics/SVG/1.1/DTD/svg11.dtd" [
	<!ENTITY ns_flows "http://ns.adobe.com/Flows/1.0/">
	<!ENTITY ns_svg "http://www.w3.org/2000/svg">
	<!ENTITY ns_xlink "http://www.w3.org/1999/xlink">
]>
<svg  version="1.1" xmlns="&ns_svg;" xmlns:xlink="&ns_xlink;" xmlns:a="http://ns.adobe.com/AdobeSVGViewerExtensions/3.0/"
	 width="41" height="41" viewBox="-0.988 -0.747 41 41" enable-background="new -0.988 -0.747 41 41" xml:space="preserve">
<defs>
</defs>
<path fill="#D5A65A" d="M36,0H4C1.8,0,0,1.8,0,4v32c0,2.2,1.8,4,4,4h32c2.2,0,4-1.8,4-4V4C40,1.8,38.2,0,36,0z M36,35
	c0,0.55-0.45,1-1,1H5c-0.55,0-1-0.45-1-1V5c0-0.55,0.45-1,1-1h30c0.55,0,1,0.45,1,1V35z M32.854,16.536
	c-0.423-1.028-1.023-1.893-1.681-2.604c-0.012-0.016-0.023-0.044-0.028-0.065c-2.734-3.004-5.632-4.75-8.368-5.743
	c0-0.009-0.012-0.014-0.026-0.018c-0.032-0.016-0.072-0.024-0.109-0.041c-0.03-0.012-0.072-0.021-0.109-0.036
	c-6.59-2.45-10.03-2.258-12.058-1.599C9.601,6.622,8.817,7.039,8.148,7.605c-0.054,0.037-0.106,0.076-0.138,0.12
	c-1.239,1.115-2.037,2.768-2.009,4.626c0.014,0.843,0.198,1.64,0.506,2.359c0,0.01,0,0.021,0.001,0.025
	c0.068,0.163,0.163,0.29,0.244,0.442c1.56,2.949,5.028,2.561,6.905,2.618c1.135,0.053,1.983,0.529,2.53,0.93
	c0.026,0.027,0.065,0.056,0.109,0.083c0.026,0.025,0.055,0.049,0.081,0.071c0.088,0.07,0.182,0.152,0.267,0.236
	c0.074,0.077,0.116,0.132,0.145,0.145c1.472,1.212,1.526,3.114,1.148,4.519c0,0,0,0.002,0,0.005
	c-0.138,0.314-0.263,0.638-0.356,0.975c-1.284,4.385,0.498,7.575,4.764,8.888c2.126,0.655,4.302,0.369,6.116-0.623
	c0.003-0.003,0.003-0.003,0.003,0c0,0,0-0.005,0.001-0.005c0.026-0.01,0.042-0.021,0.056-0.031c0.08-0.035,0.199-0.114,0.381-0.228
	c0.385-0.251,0.766-0.533,1.108-0.847c1.337-1.155,3.131-3.246,3.649-6.401c0.138-0.584,0.214-1.226,0.239-1.903
	c0.008-0.006,0.008-0.018,0.011-0.028c0,0,0.489-3.041-0.797-6.296C33.032,17.034,32.957,16.784,32.854,16.536z M27.94,27.367
	c-1.938,0.021,4.066-7.213-2.237-12.796C19.77,9.647,12.631,9.958,12.885,9.23c-0.176,0.021,7.015-1.153,13.73,4.296
	C33.77,20.203,27.61,28.264,27.94,27.367z"/>
</svg>
