<?xml version="1.0" encoding="utf-8"?>
<!-- Generator: Adobe Illustrator 12.0.0, SVG Export Plug-In . SVG Version: 6.00 Build 51448)  -->
<!DOCTYPE svg PUBLIC "-//W3C//DTD SVG 1.1//EN" "http://www.w3.org/Graphics/SVG/1.1/DTD/svg11.dtd" [
	<!ENTITY ns_svg "http://www.w3.org/2000/svg">
	<!ENTITY ns_xlink "http://www.w3.org/1999/xlink">
]>
<svg  version="1.1" id="oke" xmlns="&ns_svg;" xmlns:xlink="&ns_xlink;" width="20" height="20" viewBox="0 0 20 20"
	 overflow="visible" enable-background="new 0 0 20 20" xml:space="preserve">
<path fill="#3F3F3F" d="M20,12.25c0-0.668-0.443-1.229-1.048-1.423l0.392-3.447L19.5,6.001h-8.732l2.599-4.502
	c0.275-0.477,0.11-1.091-0.366-1.366c-0.477-0.274-1.091-0.11-1.366,0.367L8.457,6.001H0.5L0.657,7.38l0.392,3.447
	C0.444,11.021,0,11.582,0,12.25c0,0.784,0.611,1.425,1.379,1.487l0.235,2.068C0.976,15.979,0.5,16.558,0.5,17.249
	c0,0.808,0.647,1.467,1.449,1.495l0.03,0.272C2.042,19.561,2.447,20,2.882,20h14.236c0.435,0,0.841-0.439,0.902-0.983l0.031-0.272
	c0.801-0.028,1.448-0.688,1.448-1.495c0-0.691-0.476-1.271-1.114-1.443l0.235-2.068C19.389,13.675,20,13.034,20,12.25z"/>
</svg>
