<?xml version="1.0" encoding="utf-8"?>
<!-- Generator: Adobe Illustrator 12.0.0, SVG Export Plug-In . SVG Version: 6.00 Build 51448)  -->
<!DOCTYPE svg PUBLIC "-//W3C//DTD SVG 1.1//EN" "http://www.w3.org/Graphics/SVG/1.1/DTD/svg11.dtd" [
	<!ENTITY ns_svg "http://www.w3.org/2000/svg">
	<!ENTITY ns_xlink "http://www.w3.org/1999/xlink">
]>
<svg  version="1.1" id="ori" xmlns="&ns_svg;" xmlns:xlink="&ns_xlink;" width="40" height="40" viewBox="0 0 40 40"
	 overflow="visible" enable-background="new 0 0 40 40" xml:space="preserve">
<path fill="#50C5D1" d="M36,0H4C1.8,0,0,1.8,0,4v32c0,2.2,1.8,4,4,4h32c2.2,0,4-1.8,4-4V4C40,1.8,38.2,0,36,0z M36,35
	c0,0.55-0.45,1-1,1H5c-0.55,0-1-0.45-1-1V14.234c5.187-3.173,10.255-2.977,15.462,0.596C24.945,18.599,30.5,18.996,36,16.044V35z
	 M36,13.762c-5.189,3.176-10.259,2.98-15.462-0.596C15.051,9.401,9.497,9.004,4,11.953V5c0-0.55,0.45-1,1-1h30c0.55,0,1,0.45,1,1
	V13.762z M8,14c-0.275,0-0.5,0.9-0.5,2s0.225,2,0.5,2s0.5-0.9,0.5-2S8.275,14,8,14z M12,18c-0.275,0-0.5,0.9-0.5,2s0.225,2,0.5,2
	s0.5-0.9,0.5-2S12.275,18,12,18z M12,26c-0.275,0-0.5,0.9-0.5,2s0.225,2,0.5,2s0.5-0.9,0.5-2S12.275,26,12,26z M8,22
	c-0.275,0-0.5,0.9-0.5,2s0.225,2,0.5,2s0.5-0.9,0.5-2S8.275,22,8,22z M8,30c-0.275,0-0.5,0.9-0.5,2s0.225,2,0.5,2s0.5-0.9,0.5-2
	S8.275,30,8,30z M16,14c-0.275,0-0.5,0.9-0.5,2s0.225,2,0.5,2s0.5-0.9,0.5-2S16.275,14,16,14z M20,18c-0.275,0-0.5,0.9-0.5,2
	s0.225,2,0.5,2s0.5-0.9,0.5-2S20.275,18,20,18z M20,26c-0.275,0-0.5,0.9-0.5,2s0.225,2,0.5,2s0.5-0.9,0.5-2S20.275,26,20,26z M16,22
	c-0.275,0-0.5,0.9-0.5,2s0.225,2,0.5,2s0.5-0.9,0.5-2S16.275,22,16,22z M16,30c-0.275,0-0.5,0.9-0.5,2s0.225,2,0.5,2s0.5-0.9,0.5-2
	S16.275,30,16,30z M28,18c-0.275,0-0.5,0.9-0.5,2s0.225,2,0.5,2s0.5-0.9,0.5-2S28.275,18,28,18z M28,26c-0.275,0-0.5,0.9-0.5,2
	s0.225,2,0.5,2s0.5-0.9,0.5-2S28.275,26,28,26z M24,22c-0.275,0-0.5,0.9-0.5,2s0.225,2,0.5,2s0.5-0.9,0.5-2S24.275,22,24,22z M24,30
	c-0.275,0-0.5,0.9-0.5,2s0.225,2,0.5,2s0.5-0.9,0.5-2S24.275,30,24,30z M32,26c0.275,0,0.5-0.9,0.5-2s-0.225-2-0.5-2s-0.5,0.9-0.5,2
	S31.725,26,32,26z M32,34c0.275,0,0.5-0.9,0.5-2s-0.225-2-0.5-2s-0.5,0.9-0.5,2S31.725,34,32,34z"/>
</svg>
