<?xml version="1.0" encoding="utf-8"?>
<!-- Generator: Adobe Illustrator 12.0.0, SVG Export Plug-In  -->
<!DOCTYPE svg PUBLIC "-//W3C//DTD SVG 1.1//EN" "http://www.w3.org/Graphics/SVG/1.1/DTD/svg11.dtd" [
	<!ENTITY ns_flows "http://ns.adobe.com/Flows/1.0/">
	<!ENTITY ns_svg "http://www.w3.org/2000/svg">
	<!ENTITY ns_xlink "http://www.w3.org/1999/xlink">
]>
<svg  version="1.1" xmlns="&ns_svg;" xmlns:xlink="&ns_xlink;" xmlns:a="http://ns.adobe.com/AdobeSVGViewerExtensions/3.0/"
	 width="41" height="41" viewBox="-0.181 -0.737 41 41" enable-background="new -0.181 -0.737 41 41" xml:space="preserve">
<defs>
</defs>
<path fill="#2A7B97" d="M36,0H4C1.799,0,0,1.8,0,4v32c0,2.2,1.799,4,4,4h32c2.199,0,4-1.8,4-4V4C40,1.8,38.199,0,36,0z M36,35
	c0,0.55-0.451,1-1,1H5c-0.551,0-1-0.45-1-1V5c0-0.55,0.449-1,1-1h30c0.549,0,1,0.45,1,1V35z M20,17c-1.658,0-3,1.343-3,3
	c0,1.656,1.342,3,3,3s3-1.344,3-3C23,18.343,21.658,17,20,17z M10,17c-1.658,0-3,1.343-3,3c0,1.656,1.342,3,3,3s3-1.344,3-3
	C13,18.343,11.658,17,10,17z M30,17c-1.658,0-3,1.343-3,3c0,1.656,1.342,3,3,3s3-1.344,3-3C33,18.343,31.658,17,30,17z"/>
</svg>
