<?xml version="1.0" encoding="utf-8"?>
<!-- Generator: Adobe Illustrator 12.0.0, SVG Export Plug-In . SVG Version: 6.00 Build 51448)  -->
<!DOCTYPE svg PUBLIC "-//W3C//DTD SVG 1.1//EN" "http://www.w3.org/Graphics/SVG/1.1/DTD/svg11.dtd" [
	<!ENTITY ns_svg "http://www.w3.org/2000/svg">
	<!ENTITY ns_xlink "http://www.w3.org/1999/xlink">
]>
<svg  version="1.1" id="people" xmlns="&ns_svg;" xmlns:xlink="&ns_xlink;" width="16" height="16" viewBox="0 0 16 16"
	 overflow="visible" enable-background="new 0 0 16 16" xml:space="preserve">
<path fill="#B2B2B2" d="M6.399,7.603c0,1.985,1.612,3.599,3.601,3.599c1.988,0,3.601-1.613,3.601-3.599C13.601,5.613,11.988,4,10,4
	C8.011,4,6.399,5.613,6.399,7.603z M4,15.103V16h12v-0.897C13,11.5,7,11.5,4,15.103z M7.866,11.652
	c-1.226-0.648-2.127-1.819-2.384-3.226C3.409,8.554,1.385,9.439,0,11.103V12h6.737C7.104,11.861,7.479,11.742,7.866,11.652z
	 M5.443,7.145C5.548,6.09,5.987,5.108,6.746,4.348c0.76-0.76,1.743-1.199,2.799-1.304C9.275,1.322,7.797,0,6,0
	C4.011,0,2.399,1.613,2.399,3.603C2.399,5.397,3.721,6.875,5.443,7.145z"/>
</svg>
