<?xml version="1.0" encoding="utf-8"?>
<!-- Generator: Adobe Illustrator 12.0.0, SVG Export Plug-In  -->
<!DOCTYPE svg PUBLIC "-//W3C//DTD SVG 1.1//EN" "http://www.w3.org/Graphics/SVG/1.1/DTD/svg11.dtd" [
	<!ENTITY ns_flows "http://ns.adobe.com/Flows/1.0/">
	<!ENTITY ns_svg "http://www.w3.org/2000/svg">
	<!ENTITY ns_xlink "http://www.w3.org/1999/xlink">
]>
<svg  version="1.1" xmlns="&ns_svg;" xmlns:xlink="&ns_xlink;" xmlns:a="http://ns.adobe.com/AdobeSVGViewerExtensions/3.0/"
	 width="28" height="21" viewBox="-0.479 -0.794 28 21" enable-background="new -0.479 -0.794 28 21" xml:space="preserve">
<defs>
</defs>
<path fill="#B1B1B2" d="M5.176,4.307l-0.18-1.159L1.66,3.581l0.18,1.159L5.176,4.307z M13.367,4.902
	c-3.37,0.437-5.702,3.337-5.217,6.466c0.485,3.135,3.608,5.326,6.978,4.89c3.351-0.436,5.697-3.332,5.211-6.468
	C19.854,6.661,16.717,4.469,13.367,4.902z M14.951,15.121c-2.688,0.346-5.199-1.404-5.586-3.909
	c-0.389-2.513,1.49-4.824,4.178-5.174c2.689-0.348,5.184,1.399,5.572,3.911C19.503,12.453,17.638,14.773,14.951,15.121z
	 M26.971,15.666L25.047,3.259c-0.097-0.627-0.729-1.078-1.411-0.989l-4.257,0.551c0,0-1.651-2.908-2.325-2.819L8.133,1.157
	c-0.672,0.085-1.371,3.3-1.371,3.3L1.07,5.195c-0.686,0.089-1.154,0.68-1.058,1.309l1.924,12.406
	c0.099,0.638,0.726,1.071,1.41,0.982l22.568-2.923C26.596,16.878,27.07,16.303,26.971,15.666z M5.952,10.245
	C5.425,10.313,4.933,9.968,4.855,9.47C4.779,8.989,5.15,8.528,5.675,8.461c0.527-0.07,1.022,0.28,1.095,0.761
	C6.848,9.72,6.479,10.175,5.952,10.245z M15.216,16.837c-3.708,0.479-7.156-1.934-7.691-5.386c-0.533-3.447,2.044-6.641,5.753-7.121
	c3.695-0.478,7.133,1.935,7.667,5.381C21.481,13.163,18.912,16.355,15.216,16.837z M17.427,8.722
	c-0.179,0.452-0.604,0.796-1.144,0.868c-0.801,0.105-1.528-0.407-1.644-1.154c-0.076-0.493,0.151-0.958,0.555-1.245
	c-0.473-0.118-0.973-0.147-1.485-0.083c-2.067,0.269-3.497,2.039-3.2,3.956c0.298,1.919,2.21,3.262,4.277,2.995
	c2.054-0.267,3.474-2.043,3.176-3.96C17.884,9.593,17.696,9.128,17.427,8.722z"/>
</svg>
