<?xml version="1.0" encoding="utf-8"?>
<!-- Generator: Adobe Illustrator 12.0.0, SVG Export Plug-In . SVG Version: 6.00 Build 51448)  -->
<!DOCTYPE svg PUBLIC "-//W3C//DTD SVG 1.1//EN" "http://www.w3.org/Graphics/SVG/1.1/DTD/svg11.dtd" [
	<!ENTITY ns_svg "http://www.w3.org/2000/svg">
	<!ENTITY ns_xlink "http://www.w3.org/1999/xlink">
]>
<svg  version="1.1" id="pin" xmlns="&ns_svg;" xmlns:xlink="&ns_xlink;" width="16" height="16" viewBox="0 0 16 16"
	 overflow="visible" enable-background="new 0 0 16 16" xml:space="preserve">
<path fill="#8C8C8C" d="M14.017,1.984c-1.748-1.748-3.852-2.479-4.699-1.631C8.846,0.825,8.864,1.686,9.273,2.657L6.619,4.958
	c-1.676-0.937-3.24-1.131-4.026-0.347c-1.177,1.18-0.162,4.102,2.266,6.529c2.428,2.428,5.351,3.441,6.528,2.266
	c0.786-0.786,0.591-2.351-0.346-4.026l2.302-2.652c0.973,0.408,1.832,0.426,2.303-0.045C16.495,5.833,15.765,3.732,14.017,1.984z
	 M0,16l5.187-3.656l-1.53-1.529L0,16z"/>
</svg>
