<?xml version="1.0" encoding="utf-8"?>
<!-- Generator: Adobe Illustrator 12.0.0, SVG Export Plug-In  -->
<!DOCTYPE svg PUBLIC "-//W3C//DTD SVG 1.1//EN" "http://www.w3.org/Graphics/SVG/1.1/DTD/svg11.dtd" [
	<!ENTITY ns_flows "http://ns.adobe.com/Flows/1.0/">
	<!ENTITY ns_svg "http://www.w3.org/2000/svg">
	<!ENTITY ns_xlink "http://www.w3.org/1999/xlink">
]>
<svg  version="1.1" xmlns="&ns_svg;" xmlns:xlink="&ns_xlink;" xmlns:a="http://ns.adobe.com/AdobeSVGViewerExtensions/3.0/"
	 width="41" height="41" viewBox="-0.277 -0.349 41 41" enable-background="new -0.277 -0.349 41 41" xml:space="preserve">
<defs>
</defs>
<path fill="#43AAA9" d="M36,0H4C1.8,0,0,1.8,0,4v32c0,2.2,1.8,4,4,4h32c2.2,0,4-1.8,4-4V4C40,1.8,38.2,0,36,0z M36,35
	c0,0.55-0.45,1-1,1H5c-0.55,0-1-0.45-1-1V5c0-0.55,0.45-1,1-1h30c0.55,0,1,0.45,1,1V35z M24,7.588l-5.246,8.002
	c-0.088,0.146-0.172,0.299-0.256,0.451L16,12.412l-5.144,7.472c-2.083,3.301-2.837,7.513,0,10.38
	c1.422,1.43,3.283,2.148,5.144,2.148c1.861,0,3.722-0.719,5.145-2.148c0.61-0.618,1.046-1.3,1.347-2.021
	c0.491,0.109,0.995,0.169,1.509,0.169c1.941,0,3.766-0.798,5.136-2.246c2.913-3.091,1.977-7.473,0.13-10.543L24,7.588z
	 M27.682,24.792c-0.988,1.044-2.296,1.62-3.682,1.62c-0.353,0-0.699-0.039-1.037-0.111c0.189-2.144-0.572-4.442-1.818-6.417
	l-1.351-1.961c0.194-0.442,0.413-0.87,0.653-1.27c0,0,2.456-3.746,3.553-5.418c1.098,1.676,3.572,5.451,3.572,5.451
	c0.813,1.352,1.424,3.022,1.424,4.631C28.996,22.575,28.623,23.794,27.682,24.792z"/>
</svg>
