<?xml version="1.0" encoding="utf-8"?>
<!-- Generator: Adobe Illustrator 12.0.0, SVG Export Plug-In . SVG Version: 6.00 Build 51448)  -->
<!DOCTYPE svg PUBLIC "-//W3C//DTD SVG 1.1//EN" "http://www.w3.org/Graphics/SVG/1.1/DTD/svg11.dtd" [
	<!ENTITY ns_svg "http://www.w3.org/2000/svg">
	<!ENTITY ns_xlink "http://www.w3.org/1999/xlink">
]>
<svg  version="1.1" id="plus20" xmlns="&ns_svg;" xmlns:xlink="&ns_xlink;" width="20" height="20" viewBox="0 0 20 20"
	 overflow="visible" enable-background="new 0 0 20 20" xml:space="preserve">
<path fill="#B2B2B2" d="M15,9h-4V5c0-0.55-0.45-1-1-1S9,4.45,9,5v4H5c-0.55,0-1,0.45-1,1s0.45,1,1,1h4v4c0,0.55,0.45,1,1,1
	s1-0.45,1-1v-4h4c0.55,0,1-0.45,1-1S15.55,9,15,9z M10,0C4.477,0,0,4.476,0,10s4.477,10,10,10s10-4.476,10-10S15.523,0,10,0z M10,18
	c-4.418,0-8-3.581-8-8s3.582-8,8-8s8,3.581,8,8S14.418,18,10,18z"/>
</svg>
