      <svg class="puzzle3" version="1.1" id="レイヤー_1" xmlns="&ns_svg;" xmlns:xlink="&ns_xlink;" width="504.442" height="427.644"
      	 viewBox="0 0 504.442 427.644" overflow="visible" enable-background="new 0 0 504.442 427.644" xml:space="preserve">
      <g>
      	<linearGradient id="XMLID_12_" gradientUnits="userSpaceOnUse" x1="-182.4463" y1="-357.9189" x2="637.5533" y2="462.0807">
      		<stop  offset="0" style="stop-color:#FFFFFF"/>
      		<stop  offset="1" style="stop-color:#EAEAEA"/>
      	</linearGradient>
      	<path fill="url(#XMLID_12_)" stroke="#DCDCDC" d="M281.418,31.438c-0.752,0.149-1.514,0.302-2.285,0.456
      		c-9.25,1.851-14.971-1.093-15.168-6.844c-0.066-1.917,0.48-4.146,1.715-6.612c1.232-2.465,1.777-4.818,1.711-6.963
      		C267.189,5.041,261.471,0.5,252.223,0.5c-9.25,0-14.969,4.541-15.168,10.975c-0.066,2.145,0.48,4.498,1.713,6.963
      		c1.232,2.467,1.779,4.695,1.713,6.612c-0.197,5.751-5.916,8.694-15.17,6.844c-0.77-0.154-1.533-0.307-2.283-0.456
      		c-11.273-2.253-20.141-4.025-20.141-4.025s-2.02,10.09-4.486,22.425c-0.385,1.927-0.563,3.7-0.551,5.304
      		c0.07,8.652,5.682,12.313,14.004,8.152c9.867-4.937,17.943,1.117,17.943,13.453v0.002v0.002c0,12.332-8.072,18.388-17.939,13.456
      		c-8.762-4.382-14.512-0.096-13.967,9.549c0.068,1.22,0.232,2.52,0.51,3.903c2.467,12.332,4.484,22.423,4.486,22.427
      		c0.006-0.001,0.957-0.191,2.625-0.525c3.779-0.756,11.248-2.249,19.799-3.963c11.949-2.388,18.006,3.221,13.887,12.544
      		c-0.133,0.301-0.275,0.605-0.43,0.914c-4.936,9.868,1.121,17.94,13.455,17.94c7.168,0,12.211-2.73,14.213-6.954
      		c1.439-3.042,1.307-6.855-0.76-10.986c-1.85-3.699-2.154-6.863-1.16-9.243c1.652-3.967,6.908-5.756,14.617-4.215
      		c12.336,2.472,22.428,4.488,22.428,4.488s2.018-10.093,4.482-22.427c1.002-5.011,0.598-8.985-0.898-11.607
      		c-0.047-0.084-0.102-0.161-0.15-0.242c-0.07-0.113-0.139-0.23-0.213-0.338c-2.299-3.341-6.643-4.043-12.191-1.27
      		c-4.627,2.314-8.859,2.213-12.049,0.18c-0.076-0.048-0.148-0.104-0.223-0.154c-0.135-0.09-0.27-0.179-0.4-0.276
      		c-3.252-2.438-5.271-7.036-5.271-13.205c0-12.335,8.074-18.389,17.939-13.456c9.373,4.688,15.303-0.547,13.758-11.656
      		c-0.082-0.585-0.178-1.182-0.301-1.799c-0.078-0.385-0.154-0.769-0.23-1.149c-2.346-11.733-4.232-21.159-4.256-21.272
      		C301.5,27.424,292.654,29.191,281.418,31.438z"/>
      	<path fill="#D0D0D0" d="M256.193,105.76c10.955,0,20.533-5.875,25.77-14.643c-0.492-0.21-0.969-0.448-1.422-0.736
      		c-0.076-0.048-0.148-0.104-0.223-0.154c-0.135-0.09-0.27-0.179-0.4-0.276c-1.568-1.177-2.842-2.865-3.748-4.979
      		c-3.486,7.547-11.117,12.789-19.977,12.789c-12.148,0-22-9.854-22-22c0-12.148,9.852-22,22-22c9.254,0,17.168,5.718,20.418,13.811
      		c1.443-2.803,3.611-4.709,6.256-5.533c-4.98-9.664-15.053-16.277-26.674-16.277c-13.51,0-24.932,8.93-28.689,21.208
      		c1.457,2.51,2.293,5.818,2.293,9.778v0.002v0.002c0,3.575-0.682,6.618-1.885,9.023C232.035,97.417,243.137,105.76,256.193,105.76z"
      		/>
      	<path fill="#D0D0D0" d="M256.193,61.76c-7.73,0-14,6.271-14,14s6.27,14,14,14s14-6.271,14-14S263.924,61.76,256.193,61.76z
      		 M256.193,81.76c-3.314,0-6-2.688-6-6c0-3.311,2.686-6,6-6c3.313,0,6,2.689,6,6C262.193,79.072,259.506,81.76,256.193,81.76z"/>
      	<path fill="#D0D0D0" d="M246.119,152.221c-1.906-1.781-3.832-3.719-5.859-5.762l-1.285,1.202
      		C240.52,149.754,242.953,151.342,246.119,152.221z"/>
      </g>
      <g>
      	<linearGradient id="XMLID_13_" gradientUnits="userSpaceOnUse" x1="-83.7676" y1="-456.5913" x2="736.2271" y2="363.4034">
      		<stop  offset="0" style="stop-color:#FFFFFF"/>
      		<stop  offset="1" style="stop-color:#EAEAEA"/>
      	</linearGradient>
      	<path fill="url(#XMLID_13_)" stroke="#DCDCDC" d="M476.482,31.894c-9.252,1.851-14.971-1.093-15.17-6.843
      		c-0.066-1.917,0.48-4.146,1.715-6.613c2.313-4.624,2.209-8.854,0.18-12.044C460.904,2.778,456.123,0.5,449.57,0.5
      		c-11.945,0-18.004,7.577-13.885,17.021c0.041,0.096,0.092,0.193,0.135,0.291c0.096,0.209,0.189,0.418,0.295,0.629
      		c0.139,0.275,0.264,0.547,0.385,0.815c0.014,0.031,0.031,0.063,0.045,0.095c3.855,8.723-1.195,14.193-11.646,12.906
      		c-0.721-0.089-1.469-0.21-2.24-0.364c-1.576-0.315-3.113-0.622-4.6-0.92c-10.146-2.027-17.824-3.562-17.824-3.562l0,0
      		c-0.008,0.04-2.025,10.115-4.488,22.422c-0.385,1.928-0.563,3.701-0.549,5.305c0.068,8.654,5.682,12.315,14.006,8.154
      		c9.867-4.937,17.941,1.117,17.941,13.453v0.002v0.002c0,12.332-8.074,18.388-17.941,13.455c-8.324-4.163-13.938-0.503-14.006,8.15
      		c-0.014,1.602,0.164,3.376,0.549,5.303c2.467,12.334,4.488,22.427,4.488,22.427s0.355-0.071,1.014-0.202
      		c2.85-0.57,11.389-2.278,21.41-4.286c9.254-1.849,14.973,1.097,15.17,6.848c0.066,1.917-0.48,4.145-1.715,6.61
      		c-0.154,0.309-0.297,0.615-0.43,0.92c-0.932,2.133-1.342,4.17-1.283,6.046c0.199,6.433,5.918,10.974,15.17,10.974
      		c9.25,0,14.969-4.541,15.168-10.974c0.059-1.876-0.352-3.913-1.281-6.046c-0.133-0.305-0.277-0.611-0.432-0.92
      		c-1.232-2.466-1.779-4.693-1.713-6.61c0.199-5.751,5.916-8.696,15.168-6.848c10.023,2.008,18.564,3.716,21.416,4.286
      		c0.658,0.131,1.012,0.202,1.012,0.202s2.016-10.093,4.482-22.427c0.309-1.542,0.484-2.985,0.535-4.322
      		c0.039-1.002,0.008-1.943-0.09-2.821c-0.551-4.974-3.215-7.885-7.289-8.026c-1.916-0.066-4.143,0.48-6.609,1.713
      		c-2.467,1.233-4.82,1.78-6.965,1.714c-4.557-0.141-8.166-3.052-9.883-8.025c-0.201-0.586-0.377-1.199-0.525-1.841
      		c-0.371-1.603-0.568-3.376-0.568-5.304c0-1.927,0.197-3.701,0.568-5.304c0.148-0.642,0.324-1.255,0.525-1.84
      		c1.717-4.975,5.326-7.885,9.883-8.025c2.145-0.066,4.498,0.479,6.965,1.713s4.693,1.78,6.609,1.715
      		c4.074-0.142,6.738-3.053,7.289-8.026c0.098-0.878,0.129-1.819,0.09-2.821c-0.051-1.337-0.227-2.78-0.535-4.322
      		c-2.453-12.271-4.461-22.322-4.48-22.422h-0.002C498.908,27.412,488.818,29.429,476.482,31.894z"/>
      	<path fill="#C6C6C6" d="M433.369,91.537l19.203,13.768l6.361-3.125V88.429l12.436-30.468l-0.73-9.305l-26.578-3.352l2.654,6.822
      		l-11.707,7.24v4.769c0,0,3.135,1.964,4.291,1.964c1.18,0,4.412-4.105,4.412-4.105l-4.936,24.568L433.369,91.537z"/>
      </g>
      <g>
      	<linearGradient id="XMLID_14_" gradientUnits="userSpaceOnUse" x1="-133.105" y1="-407.2539" x2="686.8896" y2="412.7408">
      		<stop  offset="0" style="stop-color:#FFFFFF"/>
      		<stop  offset="1" style="stop-color:#EAEAEA"/>
      	</linearGradient>
      	<path fill="url(#XMLID_14_)" stroke="#DCDCDC" d="M372.504,22.375c-0.641,0.006-1.254,0.041-1.84,0.105
      		c-7.314,0.811-10.168,6.192-6.313,13.901c4.936,9.868-1.121,17.94-13.455,17.94h-0.002l0,0c-12.336,0-18.391-8.075-13.455-17.943
      		c4.164-8.322,0.502-13.935-8.152-14.004c-1.602-0.013-3.377,0.164-5.303,0.55c-12.332,2.468-22.416,4.485-22.424,4.487
      		c0.008,0.039,1.898,9.493,4.252,21.272c0.076,0.381,0.152,0.765,0.23,1.149c0.123,0.617,0.219,1.214,0.301,1.799
      		c1.545,11.111-4.383,16.346-13.754,11.66c-9.867-4.937-17.941,1.117-17.941,13.453c0,6.168,2.018,10.766,5.27,13.204
      		c0.131,0.098,0.266,0.187,0.4,0.276c0.074,0.051,0.146,0.106,0.223,0.154c3.189,2.031,7.42,2.133,12.045-0.18
      		c5.551-2.775,9.895-2.072,12.195,1.27c0.074,0.107,0.143,0.225,0.213,0.338c0.049,0.081,0.104,0.158,0.15,0.242
      		c1.496,2.622,1.9,6.597,0.898,11.607c-2.465,12.334-4.482,22.427-4.482,22.427s0.246,0.049,0.709,0.142
      		c2.498,0.5,11.307,2.26,21.715,4.341c9.252,1.853,14.971-1.09,15.17-6.84c0.008-0.24,0.006-0.484-0.004-0.733
      		c-0.033-0.748-0.154-1.538-0.367-2.366c-0.281-1.105-0.727-2.279-1.344-3.513c-1.232-2.467-1.779-4.821-1.713-6.966
      		c0.201-6.436,5.92-10.978,15.17-10.978s14.971,4.542,15.17,10.978c0.068,2.145-0.479,4.499-1.711,6.966
      		c-0.617,1.233-1.063,2.407-1.346,3.513c-0.213,0.828-0.332,1.618-0.365,2.366c-0.012,0.249-0.014,0.493-0.006,0.733
      		c0.199,5.75,5.918,8.692,15.168,6.84c10.408-2.081,19.221-3.841,21.719-4.341c0.463-0.093,0.709-0.142,0.709-0.142
      		s-2.021-10.093-4.488-22.427c-0.385-1.927-0.563-3.701-0.549-5.303c0.068-8.655,5.682-12.316,14.006-8.154
      		c9.867,4.937,17.941-1.118,17.941-13.453c0-12.334-8.074-18.39-17.941-13.455c-8.324,4.162-13.938,0.501-14.006-8.154
      		c-0.014-1.604,0.164-3.377,0.549-5.305c2.463-12.307,4.48-22.382,4.488-22.422c-0.008-0.002-10.096-2.02-22.428-4.487
      		C375.881,22.539,374.105,22.362,372.504,22.375z"/>
      	<path fill="#C6C6C6" d="M352.957,71.875l11.547,19.779l11.529-19.779h-7.691V45.501h-2.568c-0.664,2.725-2.432,4.987-5.117,6.54
      		v19.834H352.957z"/>
      	<path fill="#C6C6C6" d="M350.896,99.172c6.807,0,11.693,2.465,13.883,6.329h11.643c2.537,0,4.615-2.077,4.615-4.615
      		s-2.078-4.614-4.615-4.614h-50.77c-2.539,0-4.615,2.076-4.615,4.614s2.076,4.615,4.615,4.615h11.361
      		C339.205,101.637,344.09,99.172,350.896,99.172z"/>
      	<path fill="#C6C6C6" d="M333.73,71.875h-7.691l11.543,19.779l11.535-19.779h-7.701V52.201c-2.844-1.555-4.711-3.881-5.398-6.7
      		h-2.287V71.875z"/>
      	<path fill="#D0D0D0" d="M286.193,75.76c0-4.946-1.205-9.607-3.324-13.721c-2.645,0.824-4.813,2.73-6.258,5.533
      		c1.018,2.531,1.582,5.293,1.582,8.188c0,3.289-0.729,6.406-2.023,9.209c0.906,2.115,2.18,3.805,3.748,4.981
      		c0.131,0.098,0.266,0.187,0.4,0.276c0.074,0.051,0.146,0.106,0.223,0.154c0.453,0.288,0.932,0.526,1.424,0.735
      		C284.646,86.623,286.193,81.373,286.193,75.76z"/>
      </g>
      <g>
      	<linearGradient id="XMLID_15_" gradientUnits="userSpaceOnUse" x1="-281.1187" y1="-259.2456" x2="538.8809" y2="560.754">
      		<stop  offset="0" style="stop-color:#FFFFFF"/>
      		<stop  offset="1" style="stop-color:#EAEAEA"/>
      	</linearGradient>
      	<path fill="url(#XMLID_15_)" stroke="#DCDCDC" d="M207.141,203.485c0.076-0.381,0.152-0.764,0.23-1.148
      		c0.924-4.627,0.648-8.369-0.574-10.98c-0.051-0.107-0.107-0.209-0.162-0.313c-0.055-0.105-0.105-0.213-0.162-0.314
      		c-2.186-3.832-6.699-4.777-12.557-1.85c-5.553,2.777-10.537,2.074-13.834-1.27c-2.564-2.598-4.111-6.791-4.111-12.188
      		c0-12.334,8.076-18.391,17.939-13.459c9.869,4.938,15.924-1.119,13.461-13.451c-0.078-0.387-0.154-0.77-0.23-1.15
      		c-0.152-0.761-0.303-1.513-0.451-2.253c-0.074-0.37-0.146-0.737-0.221-1.101c-2.037-10.191-3.582-17.919-3.584-17.923
      		c-0.02,0.004-10.102,2.024-22.426,4.486c-6.336,1.267-11.008,0.281-13.391-2.311c-2.258-2.453-2.463-6.347-0.064-11.146
      		c1.734-3.467,2.105-6.711,1.331-9.463c-1.433-5.078-6.786-8.476-14.786-8.476c-12.332,0-18.389,8.072-13.457,17.938
      		c4.938,9.867-1.119,15.923-13.455,13.456c-12.334-2.465-22.426-4.486-22.426-4.481c0,0-2.018,10.09-4.486,22.422
      		c-0.385,1.928-0.563,3.701-0.549,5.305c0.068,8.652,5.68,12.313,14.004,8.152c9.867-4.938,17.941,1.119,17.941,13.453
      		c0,0.002,0,0.002,0,0.004c0,0,0,0,0,0.002c0,12.332-8.072,18.387-17.939,13.455c-8.634-4.318-14.35-0.223-13.991,9.131
      		c0.052,1.336,0.227,2.779,0.534,4.322c1.594,7.963,2.998,14.986,3.795,18.969c0.436,2.178,0.69,3.445,0.691,3.451
      		c0.08-0.016,10.141-2.025,22.424-4.484c6.17-1.232,10.768-0.334,13.205,2.105c2.441,2.439,2.721,6.422,0.252,11.355
      		c-1.695,3.393-2.094,6.572-1.384,9.283c1.356,5.178,6.745,8.652,14.837,8.652c11.947,0,18.004-7.574,13.889-17.018
      		c-0.133-0.305-0.275-0.609-0.43-0.918s-0.299-0.615-0.432-0.918c-4.119-9.324,1.937-14.932,13.887-12.543
      		c12.332,2.469,22.426,4.486,22.426,4.486v0.004l0,0l0.002-0.004C202.885,224.758,204.779,215.292,207.141,203.485z"/>
      	<path fill="#D0D0D0" d="M156.294,251.522l-0.661-5.02h0.074c0.223,0,0.41-0.133,0.41-0.297v-4.115c0-0.168-0.188-0.307-0.41-0.307
      		h-6.105c-0.234,0-0.406,0.139-0.406,0.307v4.115c0,0.164,0.172,0.297,0.406,0.297h0.074l-0.627,4.762
      		c1.387,0.262,2.885,0.404,4.496,0.404C154.501,251.668,155.415,251.616,156.294,251.522z"/>
      	<path fill="#D0D0D0" d="M153.387,203.831l28.535-2.381l-9.15-13.605l-0.855-24.234l6.668-11.539h-10.272l-8.144-8.241l-4.896,8.241
      		l-1.035,7.43l14.691-1.719l-7.909,13.734l-3.564-6.08l-7.845,6.979l-1.241-11.076l-4.188-5.943l-7.126,1.455l1.826,5.83
      		l-8.356,7.316c0.389,1.637,0.598,3.449,0.598,5.426c0,0.002,0,0.002,0,0.004c0,0,0,0,0,0.002c0,6.521-2.258,11.285-5.844,13.6
      		l27.212,3.426L153.387,203.831z"/>
      </g>
      <g>
      	<linearGradient id="XMLID_16_" gradientUnits="userSpaceOnUse" x1="-182.4453" y1="-357.9219" x2="637.5551" y2="462.0786">
      		<stop  offset="0" style="stop-color:#FFFFFF"/>
      		<stop  offset="1" style="stop-color:#EAEAEA"/>
      	</linearGradient>
      	<path fill="url(#XMLID_16_)" stroke="#DCDCDC" d="M377.807,130.571c-9.25,1.851-14.969-1.094-15.168-6.844
      		c-0.008-0.24-0.006-0.484,0.006-0.733c0.033-0.748,0.152-1.538,0.365-2.366c0.283-1.105,0.729-2.279,1.346-3.513
      		c1.232-2.467,1.779-4.821,1.711-6.966c-0.201-6.434-5.92-10.977-15.17-10.977s-14.969,4.543-15.17,10.977
      		c-0.066,2.145,0.48,4.499,1.713,6.966c0.617,1.233,1.063,2.407,1.344,3.513c0.213,0.828,0.334,1.618,0.367,2.366
      		c0.01,0.249,0.012,0.493,0.004,0.733c-0.199,5.75-5.918,8.694-15.17,6.844c-10.408-2.084-19.217-3.845-21.715-4.345
      		c-0.463-0.093-0.709-0.142-0.709-0.142s-2.02,10.095-4.486,22.427c-2.467,12.332,3.59,18.389,13.455,13.457
      		c1.85-0.926,3.637-1.465,5.318-1.648c7.293-0.797,12.623,5.08,12.623,15.102c0,0.002,0,0.002,0,0.004c0,0,0,0,0,0.002
      		c0,10.02-5.33,15.896-12.623,15.1c-0.279-0.031-0.563-0.07-0.85-0.121c-0.572-0.102-1.154-0.242-1.746-0.424
      		c-0.889-0.273-1.799-0.641-2.723-1.104c-8.324-4.16-13.936-0.5-14.006,8.152c-0.012,1.604,0.164,3.377,0.551,5.305
      		c0.076,0.385,0.152,0.768,0.229,1.148c2.359,11.797,4.254,21.256,4.258,21.271c0.08-0.016,10.137-2.025,22.422-4.484
      		c8.867-1.771,14.488,0.857,15.117,6.141c0.246,2.068-0.271,4.541-1.66,7.316c-2.811,5.621-2.049,10.66,1.402,13.957
      		c2.607,2.486,6.746,3.982,12.053,3.982c12.336,0,18.393-8.072,13.455-17.939c-4.932-9.869,1.125-15.922,13.457-13.457
      		c8.191,1.641,15.391,3.08,19.307,3.861c1.979,0.396,3.121,0.625,3.121,0.625s2.016-10.088,4.482-22.422
      		c0.387-1.928,0.563-3.703,0.551-5.305c-0.006-0.643-0.041-1.256-0.105-1.842c-0.033-0.291-0.072-0.576-0.119-0.855
      		c-0.75-4.451-3.336-7.037-7.168-7.17c-1.916-0.066-4.145,0.48-6.611,1.715c-2.467,1.232-4.822,1.779-6.967,1.713
      		c-4.826-0.15-8.586-3.406-10.166-8.926c-0.176-0.613-0.324-1.254-0.443-1.922c-0.24-1.336-0.367-2.779-0.367-4.322
      		c0-1.541,0.127-2.984,0.367-4.322c0.119-0.668,0.268-1.309,0.443-1.922c1.58-5.521,5.34-8.775,10.166-8.926
      		c2.145-0.068,4.5,0.479,6.967,1.711c2.467,1.234,4.695,1.781,6.611,1.715c3.832-0.131,6.418-2.717,7.168-7.168
      		c0.047-0.277,0.086-0.563,0.119-0.855c0.064-0.586,0.1-1.199,0.105-1.84c0.012-1.602-0.164-3.377-0.551-5.303
      		c-2.467-12.333-4.482-22.427-4.482-22.427s-0.246,0.049-0.709,0.142C397.027,126.727,388.215,128.487,377.807,130.571z"/>
      	<path fill="#C6C6C6" d="M350.896,99.173c-6.807,0-11.691,2.466-13.881,6.328h27.764C362.588,101.639,357.703,99.173,350.896,99.173
      		z"/>
      	<path fill="#C6C6C6" d="M353.287,251.559c0-0.033,0.004-0.066,0.004-0.102c0-3.426-2.791-6.207-6.23-6.207
      		c-2.719,0-5.027,1.74-5.877,4.16c2.502,1.436,5.783,2.258,9.711,2.258C351.721,251.668,352.518,251.629,353.287,251.559z"/>
      	<path fill="#C6C6C6" d="M372.445,155.973l-7.244-4.645l0.848-4.948l-6.656-1.374l-9.686-1.558l-3.074,3.946l2.508,9.658
      		l-6.947,10.809l-8.795,9.457l3.473,12.523l13.029,0.646l17.383,12.961l7.461-2.156l4.121-1.428l2.533-7.512l-0.148-2.322
      		c-3.072-1.066-5.477-3.615-6.797-7.355c-0.115-0.328-0.223-0.664-0.322-1.01c-0.176-0.613-0.324-1.254-0.443-1.922
      		c-0.24-1.336-0.367-2.779-0.367-4.322c0-0.65,0.035-1.273,0.08-1.889l-7.236-10.611L372.445,155.973z"/>
      </g>
      <g>
      	<linearGradient id="XMLID_17_" gradientUnits="userSpaceOnUse" x1="-231.7817" y1="-308.584" x2="588.2183" y2="511.416">
      		<stop  offset="0" style="stop-color:#FFFFFF"/>
      		<stop  offset="1" style="stop-color:#EAEAEA"/>
      	</linearGradient>
      	<path fill="url(#XMLID_17_)" stroke="#DCDCDC" d="M301.559,224.756c-0.021-0.111-1.908-9.537-4.256-21.271
      		c-0.076-0.381-0.152-0.764-0.229-1.148c-0.387-1.928-0.563-3.701-0.551-5.305c0.068-8.656,5.682-12.316,14.006-8.152
      		c0.924,0.463,1.834,0.83,2.723,1.104c0.592,0.182,1.174,0.322,1.746,0.424c0.287,0.051,0.57,0.09,0.85,0.121
      		c7.291,0.795,12.621-5.08,12.623-15.102c-0.002-10.025-5.332-15.902-12.623-15.105c-1.682,0.184-3.469,0.723-5.318,1.648
      		c-9.865,4.932-15.922-1.125-13.455-13.457c2.467-12.333,4.486-22.427,4.486-22.427s-10.096-2.017-22.428-4.483
      		c-7.707-1.543-12.963,0.245-14.617,4.21c-0.992,2.38-0.688,5.544,1.164,9.243c2.064,4.132,2.197,7.945,0.756,10.986
      		c-2.002,4.225-7.045,6.958-14.215,6.958c-12.336,0-18.391-8.076-13.453-17.944c0.154-0.309,0.297-0.613,0.43-0.914
      		c4.117-9.318-1.939-14.932-13.889-12.539c-8.549,1.71-16.018,3.203-19.797,3.958c-1.672,0.335-2.625,0.525-2.625,0.525
      		s1.545,7.729,3.582,17.923c0.074,0.363,0.146,0.73,0.221,1.101c0.148,0.74,0.299,1.492,0.451,2.253
      		c0.076,0.381,0.152,0.764,0.23,1.15c2.465,12.332-3.588,18.389-13.455,13.457c-9.867-4.938-17.941,1.119-17.941,13.453
      		c0,5.396,1.545,9.59,4.107,12.188c3.299,3.342,8.281,4.043,13.828,1.27c5.861-2.932,10.377-1.986,12.563,1.85
      		c0.057,0.102,0.107,0.209,0.162,0.314c0.055,0.104,0.111,0.205,0.162,0.313c1.225,2.611,1.498,6.354,0.574,10.98
      		c-0.078,0.385-0.154,0.768-0.23,1.148c-2.35,11.744-4.234,21.176-4.254,21.273c0,0,0.01,0.002,0.029,0.006
      		c0.604,0.121,10.445,2.088,22.395,4.479c9.252,1.852,14.971-1.092,15.17-6.842c0.018-0.479-0.006-0.977-0.066-1.494
      		c-0.184-1.551-0.723-3.266-1.646-5.117c-4.932-9.867,1.121-17.941,13.455-17.941c12.332,0,18.389,8.074,13.457,17.941
      		c-0.926,1.852-1.465,3.566-1.648,5.117c-0.061,0.518-0.082,1.016-0.066,1.494c0.199,5.75,5.918,8.693,15.168,6.842
      		c11.949-2.391,21.795-4.357,22.398-4.479c0.016-0.004,0.023-0.006,0.025-0.006l0,0
      		C301.557,224.758,301.559,224.758,301.559,224.756z"/>
      	<path fill="#D0D0D0" d="M230.646,174.711c1.232,4.158,2.33,7.68,6.453,11.84l0.84,0.848l0.029-0.057
      		c4.516-3.658,8.621-7.684,12.408-12.074c-0.408-1.119-0.756-2.258-1.111-3.451c-0.369-1.25-0.857-2.434-1.395-3.592
      		c-2.527-1.582-4.971-2.338-7.67-3.148c-7.662-2.307-13.383-8.066-20.242-14.977l-1.529,1.436l-0.049-0.049l-0.584,0.639
      		l-0.631,0.59l0.043,0.049l-1.426,1.553C222.643,161.227,228.361,166.985,230.646,174.711z"/>
      	<path fill="#D0D0D0" d="M272.057,197.604l4.41,4.449c0.787,0.795,1.488,0.543,2.709,0.135c0,0,2.734-2.033,6.697-6.023
      		c4.082-4.129,5.504-6.273,5.504-6.273c0.428-0.994,0.684-1.986-0.102-2.783l-4.42-4.449
      		C282.387,188.075,278.389,192.924,272.057,197.604z"/>
      	<path fill="#D0D0D0" d="M265.775,200.016c1.221-1.23,2.178-2.27,2.959-3.146l-0.602-0.605l-5.207-5.248
      		c-2.123,2.463-4.332,4.82-6.928,7.113c3.408,0.523,6.152,1.766,8.096,3.537C264.625,201.159,265.184,200.612,265.775,200.016z"/>
      	<path fill="#D0D0D0" d="M257.297,192.03c1.066-1.078,2.154-2.178,3.273-3.389l-1.766-1.779v0.002l-2.283-2.305l0.033-0.057
      		l-0.84-0.848c-1.773-1.783-2.963-3.451-3.869-5.105c-1.334,1.441-2.68,2.789-3.902,4.021c-2.281,2.305-4.654,4.766-7.758,7.188
      		l8.299,8.365c0.861-0.129,1.758-0.217,2.699-0.254C253.559,195.928,255.441,193.897,257.297,192.03z"/>
      	<path fill="#D0D0D0" d="M277.436,188.211c2.256-2.293,4.594-4.629,7.16-8.02l-9.254-9.32c-2.256,2.973-4.953,5.633-7.219,7.924
      		c-2.27,2.289-4.639,4.738-7.719,7.156l9.283,9.355C272.891,193.016,275.172,190.491,277.436,188.211z"/>
      	<path fill="#D0D0D0" d="M238.973,147.663l-0.244,0.229l-0.043-0.039l-0.576,0.627l-0.635,0.588l0.047,0.047l-1.424,1.545
      		c6.83,6.883,12.529,12.617,14.807,20.305c1.23,4.146,2.316,7.654,6.412,11.785l0.832,0.838c5.475-4.459,10.395-9.404,14.826-14.926
      		l-0.832-0.844c-4.117-4.141-7.625-5.205-11.729-6.439c-5.363-1.615-9.771-4.932-14.287-9.15
      		C242.955,151.35,240.52,149.76,238.973,147.663z"/>
      </g>
      <g>
      	<linearGradient id="XMLID_18_" gradientUnits="userSpaceOnUse" x1="-379.7949" y1="-160.5703" x2="440.2055" y2="659.4302">
      		<stop  offset="0" style="stop-color:#FFFFFF"/>
      		<stop  offset="1" style="stop-color:#EAEAEA"/>
      	</linearGradient>
      	<path fill="url(#XMLID_18_)" stroke="#DCDCDC" d="M108.695,301.006c2.465-12.334-3.59-18.389-13.457-13.457
      		c-9.869,4.936-17.939-1.119-17.939-13.457c0-12.334,8.07-18.389,17.939-13.453c9.867,4.936,15.922-1.119,13.457-13.457
      		c-0.463-2.313-0.91-4.547-1.33-6.65c-1.823-9.104-3.154-15.76-3.158-15.773c-0.08,0.016-10.138,2.031-22.42,4.488
      		c-7.324,1.463-12.436-0.076-14.345-3.635c-1.31-2.436-1.12-5.816,0.886-9.826c1.85-3.697,2.156-7.145,1.165-10.01
      		c-1.653-4.773-6.909-7.928-14.618-7.928c-10.793,0-16.778,6.182-14.802,14.338c0.282,1.164,0.728,2.367,1.345,3.6
      		c0.771,1.543,1.273,2.992,1.525,4.33c1.364,7.225-4.573,11.211-14.982,9.131c-10.253-2.051-18.95-3.793-21.596-4.322
      		c-0.537-0.107-0.832-0.166-0.832-0.166s-0.031,0.158-0.091,0.457c-0.046,0.225-0.106,0.531-0.182,0.908
      		c-0.631,3.156-2.283,11.424-4.21,21.063c-0.385,1.928-0.563,3.699-0.551,5.303c0.051,6.41,3.143,10.082,8.125,9.861
      		c0.748-0.033,1.538-0.154,2.367-0.367c0.553-0.141,1.121-0.322,1.707-0.547c0.586-0.223,1.188-0.488,1.805-0.797
      		c9.867-4.932,17.941,1.125,17.941,13.457c0,1.541-0.125,2.984-0.365,4.32c-0.121,0.67-0.27,1.311-0.444,1.924
      		c-0.088,0.307-0.183,0.605-0.283,0.898c-2.525,7.314-9.14,10.168-16.849,6.313c-7.399-3.701-12.655-1.221-13.779,5.455
      		c-0.375,2.225-0.291,4.916,0.326,8c0.309,1.543,0.609,3.049,0.9,4.504c0.219,1.094,0.432,2.156,0.637,3.186
      		c0.138,0.686,0.271,1.357,0.402,2.01c1.501,7.508,2.543,12.721,2.545,12.727c0.007-0.002,0.251-0.051,0.708-0.141
      		c2.499-0.5,11.312-2.262,21.718-4.346c9.25-1.85,14.969,1.096,15.168,6.848c0.066,1.916-0.479,4.145-1.713,6.609
      		c-0.154,0.309-0.299,0.615-0.432,0.92c-0.93,2.133-1.341,4.17-1.283,6.047c0.201,6.434,5.92,10.975,15.17,10.975
      		c9.252,0,14.97-4.541,15.17-10.975c0.059-1.877-0.354-3.914-1.283-6.047c-0.133-0.305-0.275-0.611-0.43-0.92
      		c-1.234-2.465-1.78-4.693-1.713-6.609c0.198-5.752,5.917-8.697,15.172-6.848c8.158,1.635,15.332,3.068,19.256,3.854
      		c1.99,0.398,3.145,0.629,3.164,0.633c0.002-0.01,1.334-6.67,3.158-15.775C107.785,305.553,108.232,303.319,108.695,301.006z"/>
      	<path fill="#DADADA" d="M78.961,245.788l-3.223-2.635l-20.131,2.357l-8.629,4.119c0,0-5.31,18.795-5.31,20.744
      		c0,2.037,16.519,23.271,16.519,23.271l3.689,4.662c0,0,9.78,4.846,12.335,4.846c2.435,0,11.457-9.951,11.457-9.951l-1.384-4.877
      		c-3.525-1.654-6.016-5.424-6.756-10.779l-8.459-2.77L78.961,245.788z"/>
      </g>
      <g>
      	<linearGradient id="XMLID_19_" gradientUnits="userSpaceOnUse" x1="-330.457" y1="-209.9072" x2="489.5428" y2="610.0927">
      		<stop  offset="0" style="stop-color:#FFFFFF"/>
      		<stop  offset="1" style="stop-color:#EAEAEA"/>
      	</linearGradient>
      	<path fill="url(#XMLID_19_)" stroke="#DCDCDC" d="M180.459,327.915c12.32-2.461,22.406-4.479,22.426-4.482l0,0h0.002
      		c-0.002-0.004-2.023-10.096-4.486-22.426c-0.232-1.156-0.389-2.258-0.473-3.299c-0.086-1.043-0.1-2.025-0.047-2.945
      		c0.457-7.975,5.957-11.221,13.973-7.213c0.248,0.125,0.494,0.236,0.74,0.348c0.061,0.027,0.121,0.059,0.18,0.084
      		c8.836,3.854,16.037-1.197,16.93-11.646c0.063-0.721,0.094-1.469,0.094-2.238c0-0.771-0.031-1.518-0.094-2.238
      		c-0.512-5.994-3.104-10.207-6.887-11.986c-3.037-1.428-6.84-1.289-10.959,0.771c-8.326,4.162-13.939,0.5-14.008-8.154
      		c-0.012-1.604,0.164-3.379,0.551-5.307c2.451-12.273,4.465-22.324,4.484-22.42c-0.041-0.008-10.115-2.025-22.426-4.486
      		c-11.945-2.389-18.002,3.217-13.887,12.539c0.133,0.301,0.275,0.605,0.43,0.914s0.299,0.615,0.432,0.922
      		c4.121,9.445-1.935,17.023-13.885,17.023c-8.096,0-13.486-3.479-14.841-8.658c-0.712-2.713-0.314-5.895,1.382-9.287
      		c2.467-4.934,2.188-8.912-0.25-11.352c-2.439-2.438-7.036-3.334-13.203-2.102c-12.334,2.465-22.426,4.486-22.426,4.486v-0.004l0,0
      		c-0.002,0.004,1.33,6.664,3.154,15.773c0.42,2.104,0.867,4.338,1.33,6.65c2.465,12.338-3.59,18.393-13.457,13.457
      		c-9.869-4.936-17.939,1.119-17.939,13.453c0,12.338,8.07,18.393,17.939,13.457c9.867-4.932,15.922,1.123,13.457,13.457
      		c-0.463,2.313-0.91,4.547-1.33,6.65c-1.825,9.113-3.157,15.775-3.154,15.775c0,0,10.092,2.018,22.424,4.482
      		c12.336,2.471,18.391-3.584,13.457-13.453c-4.934-9.865,1.121-17.943,13.457-17.943c7.523,0,12.705,3.008,14.486,7.592
      		c1.141,2.93,0.896,6.504-1.027,10.352c-2.344,4.686-2.207,8.508-0.1,10.971C169.238,328.155,173.98,329.211,180.459,327.915z"/>
      	<path fill="#D0D0D0" d="M142.756,294.297c0.02,2.426,0.033,4.357,0.039,5.141c2.6-1.842,6.257-2.92,10.754-2.92
      		c3.554,0,6.576,0.678,8.973,1.869c0.007-0.992,0.014-2.42,0.02-4.09H142.756z"/>
      	<path fill="#D0D0D0" d="M152.652,264.706c-3.051,0-5.816,0.879-7.891,2.313c-1.219,2.998-2.105,6.508-2.105,10.256
      		c0,0.131,0,0.525,0.002,1.113h19.986c0.004-0.588,0.012-0.982,0.012-1.113c0-3.748-0.898-7.258-2.109-10.256
      		C158.477,265.584,155.695,264.706,152.652,264.706z"/>
      	<path fill="#D0D0D0" d="M131.496,241.915l-1.988-0.074v-0.057l-0.824,0.029l-0.816-0.029v0.057l-1.988,0.074
      		c0,8.605-0.012,15.775-3.625,22.016c-1.938,3.357-3.598,6.24-3.598,11.416v24.129c0,0.99,0.836,1.449,1.789,1.797
      		c0,0,2.395,0.449,7.91,0.449c5.348,0,8.559-0.449,8.559-0.449c1.102-0.518,1.742-0.807,1.742-1.797v-24.129
      		c0-5.176-1.615-8.059-3.563-11.416C131.484,257.69,131.496,250.52,131.496,241.915z M137.08,293.28
      		c-3.096,0.811-5.809,0.627-8.367,0.627c-2.557,0-5.189-0.002-8.541-0.689v-16.416c2.941,0.619,5.961,0.557,8.529,0.557
      		s5.283,0.063,8.379-0.555V293.28z"/>
      	<path fill="#D0D0D0" d="M176.746,279.614c-3.039,0-6.613,0.041-10.09-0.395v11.66c3.965,0.492,7.078,0.492,10.109,0.498
      		c3.016-0.006,6.223,0.123,9.891-0.451l-0.002-11.713C182.988,279.659,179.779,279.616,176.746,279.614z"/>
      	<path fill="#D0D0D0" d="M149.048,251.268l-1.071,8.133c1.496-0.273,3.063-0.428,4.676-0.428c1.605,0,3.176,0.154,4.68,0.428
      		l-1.037-7.875c-0.878,0.094-1.791,0.148-2.746,0.148C151.936,251.674,150.436,251.53,149.048,251.268z"/>
      	<path fill="#D0D0D0" d="M186.539,276.329c0,0,0.029,0.006,0.055,0.014v-1.063c0-5.17-1.6-8.059-3.52-11.412
      		c-3.582-6.244-3.578-13.412-3.578-22.012l-1.973-0.082l-0.004-0.049l-0.807,0.025l-0.82-0.029l0.01,0.053l-1.965,0.082
      		c0.004,8.596-0.02,15.768-3.588,22.008c-1.936,3.361-3.572,6.244-3.572,11.416l-0.002,1.049
      		C173.383,277.006,179.934,277.004,186.539,276.329z"/>
      	<path fill="#D0D0D0" d="M166.773,293.827l0.002,5.586c0,0.99,0.838,1.449,1.775,1.793c0,0,2.373,0.451,7.83,0.453
      		c5.307-0.006,8.494-0.453,8.494-0.453c1.09-0.512,1.715-0.801,1.719-1.793v-5.572C179.234,294.934,173.359,294.403,166.773,293.827
      		z"/>
      	<path fill="#D0D0D0" d="M222.092,288.614c-0.057-0.131-0.09-0.254-0.09-0.365c0-0.895-0.557-3.42,0-4.078
      		c0.525-0.678,4.84,0,4.84,0s0.061,0.188,0.16,0.486c1.453-2.133,2.412-4.939,2.701-8.322c0.029-0.346,0.029-0.715,0.045-1.07
      		l-1.127-1.219l-2.299-2.295l-1.959,0.861l2.15,5.184l-2.313,2.043l-1.037,0.707l-1.123-0.623l-5.854,1.486v1.898l-1.533,3.824
      		l1.557,1.914C218.348,289.44,220.332,289.274,222.092,288.614z"/>
      	<path fill="#DADADA" d="M84.285,288.325l-2.282-8.049l-4.453-2.725l-0.021-0.006C78.27,282.901,80.76,286.67,84.285,288.325z"/>
      </g>
      <g>
      	<linearGradient id="XMLID_20_" gradientUnits="userSpaceOnUse" x1="-281.1206" y1="-259.2466" x2="538.8798" y2="560.7539">
      		<stop  offset="0" style="stop-color:#FFFFFF"/>
      		<stop  offset="1" style="stop-color:#EAEAEA"/>
      	</linearGradient>
      	<path fill="url(#XMLID_20_)" stroke="#DCDCDC" d="M306.248,299.87c1.395-8.58-1.539-13.84-7.051-14.033
      		c-1.916-0.066-4.143,0.48-6.607,1.713c-2.467,1.234-4.822,1.781-6.967,1.715c-6.434-0.199-10.977-5.918-10.977-15.172
      		c0-11.178,6.631-17.199,15.217-14.555c0.891,0.271,1.801,0.639,2.727,1.102c2.23,1.115,4.264,1.664,6.051,1.711
      		c5.125,0.133,8.201-3.906,7.938-10.842c-0.053-1.336-0.227-2.779-0.535-4.322c-0.531-2.66-1.043-5.215-1.518-7.588
      		c-1.723-8.621-2.967-14.826-2.969-14.84c-0.002,0-0.01,0.002-0.025,0.006c-0.604,0.121-10.449,2.094-22.398,4.482
      		c-9.25,1.848-14.969-1.096-15.168-6.846c-0.016-0.479,0.006-0.977,0.066-1.494c0.184-1.551,0.723-3.266,1.648-5.117
      		c4.932-9.867-1.125-17.941-13.457-17.941c-12.334,0-18.387,8.074-13.455,17.941c0.924,1.852,1.463,3.566,1.646,5.117
      		c0.061,0.518,0.084,1.016,0.066,1.494c-0.199,5.75-5.918,8.693-15.17,6.846c-11.949-2.389-21.791-4.361-22.395-4.482
      		c-0.02-0.004-0.027-0.006-0.027-0.006c-0.002,0-0.002,0.004-0.002,0.004h-0.002c-0.02,0.102-2.029,10.152-4.484,22.424
      		c-0.385,1.928-0.563,3.701-0.551,5.303c0.07,8.656,5.682,12.314,14.004,8.15c4.119-2.059,7.924-2.197,10.963-0.768
      		c3.783,1.777,6.375,5.99,6.887,11.986c0.063,0.721,0.094,1.467,0.094,2.238c0,0.77-0.031,1.518-0.094,2.238
      		c-0.893,10.451-8.094,15.502-16.93,11.646c-0.059-0.025-0.119-0.057-0.18-0.084c-0.244-0.109-0.49-0.221-0.736-0.346
      		c-8.018-4.01-13.52-0.764-13.977,7.211c-0.053,0.92-0.039,1.902,0.047,2.945c0.084,1.041,0.24,2.143,0.473,3.299
      		c2.467,12.334,4.484,22.422,4.486,22.426c0.006-0.002,1.117-0.223,3.039-0.607c3.895-0.779,11.135-2.227,19.385-3.879
      		c11.949-2.389,18.006,3.219,13.887,12.543c-0.133,0.301-0.275,0.605-0.43,0.914c-4.936,9.867,1.121,17.941,13.455,17.941
      		c6.936,0,11.887-2.555,14.014-6.545c1.654-3.105,1.598-7.08-0.561-11.396c-1.85-3.699-2.154-6.863-1.16-9.242
      		c1.652-3.969,6.908-5.756,14.617-4.215c12.336,2.471,22.428,4.486,22.428,4.486s2.018-10.094,4.482-22.426
      		C306.119,300.622,306.188,300.243,306.248,299.87z"/>
      	<path fill="#D0D0D0" d="M239.961,346.157c0.236-0.063,0.467-0.141,0.709-0.195c4.727-1.045,9.574-0.205,13.65,2.379
      		c0.773,0.492,1.488,1.049,2.17,1.639c3.596-0.637,6.424-2.092,8.295-4.139c-1.658-1.869-3.586-3.521-5.76-4.895
      		c-6.063-3.842-13.246-5.098-20.305-3.523c-0.545,0.121-1.078,0.264-1.609,0.416C236.785,341.118,237.811,343.993,239.961,346.157z"
      		/>
      	<path fill="#D0D0D0" d="M256.324,205.936c0.785,0.799,1.502,0.547,2.723,0.139c0,0,1.996-1.49,5.047-4.408
      		c-1.943-1.771-4.688-3.014-8.096-3.537c-1.27,1.123-2.623,2.23-4.119,3.326L256.324,205.936z"/>
      	<path fill="#D0D0D0" d="M274.646,274.092c0-1.738,0.178-3.334,0.48-4.809l-0.135-0.166l-6.518-2.973c0,0-7.6-7.24-8.635-9.285
      		c-1.045-2.043-4.949-9.793-4.949-9.793s-2.375-4.918-3.41-4.918c-1.041,0-1.08,1.744-1.574,1.744c-0.52,0-1.059-2.127-1.729-2.127
      		c-0.668,0-1.426,2.666-1.426,3.738c0,1.098,0.549,4.664,0.549,6.02c0,1.326-4.791,15.465-4.791,15.465s-3.068,0.141-3.797,1.033
      		c-0.197,0.891-1.545,7.24-1.545,7.24l-1.303,1.582l-2.295-0.865l-3.637-0.514l-0.186-0.201c-0.016,0.355-0.016,0.725-0.045,1.07
      		c-0.289,3.385-1.248,6.191-2.701,8.324c0.469,1.41,1.844,5.432,2.25,5.432c0.492,0,8.77-4.225,8.77-4.225l3.801,1.047l1.697,2.127
      		l2.672,3.293l6.971,4.77l3.172,3.475c0,0,2.492-6.438,3.541-7.723c1.016-1.285,6.516-4.457,6.516-4.457s5.07-2.33,6.189-2.33
      		c1.148,0.467,1.822,1.287,1.822,1.287l3.85,0.949v-1.594h0.963C276.379,284.159,274.646,279.801,274.646,274.092z"/>
      	<path fill="#D0D0D0" d="M216.211,289.045l1.797,2.211l-2.566,4.912c0,0-0.826,2.26-0.295,3.264
      		c0.502,0.984,1.205,2.334,1.205,2.334l8.08-5.738c0,0,2.639,2.33,3.801,2.33c1.146,0,2.205-1.084,2.205-1.084
      		s-1.76-1.236-2.645-2.293c-0.855-1.084-2.061-4.133-2.061-4.133h-1.631c0,0-1.611-1.305-2.01-2.232
      		C220.332,289.274,218.348,289.442,216.211,289.045z"/>
      </g>

      <g class="puzzle_kimoto">
      	<path fill="url(#XMLID_17_)" stroke="#DCDCDC" d="M395.422,293.006c1.125-6.676,6.381-9.156,13.781-5.457
      		c7.709,3.855,14.324,1.004,16.848-6.311c0.102-0.293,0.197-0.592,0.283-0.898c0.176-0.613,0.324-1.254,0.445-1.924
      		c0.24-1.336,0.365-2.779,0.365-4.32c0-12.332-8.074-18.389-17.941-13.457c-0.615,0.309-1.219,0.574-1.805,0.797
      		c-0.584,0.225-1.154,0.406-1.707,0.547c-0.828,0.213-1.619,0.334-2.367,0.367c-4.984,0.221-8.076-3.451-8.127-9.861
      		c-0.014-1.604,0.164-3.379,0.549-5.307c1.928-9.635,3.584-17.902,4.215-21.059c0.076-0.377,0.137-0.684,0.182-0.908
      		c0.061-0.299,0.092-0.457,0.092-0.457s-1.143-0.229-3.121-0.625c-3.914-0.781-11.113-2.221-19.307-3.857
      		c-12.332-2.467-18.389,3.59-13.455,13.453c4.936,9.867-1.121,17.945-13.455,17.945c-5.307,0-9.447-1.498-12.055-3.988
      		c-3.455-3.297-4.215-8.334-1.402-13.957c1.387-2.775,1.906-5.248,1.66-7.316c-0.629-5.279-6.25-7.908-15.115-6.137
      		c-12.324,2.463-22.402,4.479-22.424,4.486c0.016,0.078,1.252,6.26,2.965,14.836c0.475,2.371,0.986,4.926,1.518,7.584
      		c0.309,1.543,0.482,2.988,0.535,4.326c0.266,6.936-2.811,10.977-7.938,10.842c-1.787-0.045-3.822-0.594-6.055-1.711
      		c-0.926-0.463-1.834-0.828-2.723-1.102c-8.586-2.639-15.215,3.383-15.215,14.559c0,9.25,4.541,14.969,10.975,15.168
      		c2.143,0.066,4.496-0.48,6.963-1.715c2.467-1.232,4.695-1.779,6.611-1.713c5.512,0.191,8.445,5.451,7.051,14.033
      		c-0.061,0.373-0.129,0.752-0.205,1.137c-2.465,12.332-4.482,22.426-4.482,22.426s0.354,0.072,1.012,0.203
      		c2.85,0.57,11.389,2.277,21.412,4.279c9.252,1.854,14.971-1.09,15.17-6.84c0.016-0.479-0.006-0.979-0.066-1.494
      		c-0.184-1.553-0.723-3.268-1.648-5.119c-1.232-2.467-1.779-4.82-1.713-6.965c0.201-6.436,5.92-10.979,15.17-10.979
      		s14.971,4.543,15.17,10.979c0.068,2.145-0.479,4.498-1.711,6.965c-0.926,1.852-1.465,3.566-1.648,5.119
      		c-0.063,0.516-0.084,1.016-0.068,1.494c0.199,5.75,5.918,8.693,15.168,6.84c10.023-2.002,18.564-3.709,21.416-4.279
      		c0.658-0.131,1.012-0.203,1.012-0.203s-2.021-10.094-4.488-22.426C395.131,297.922,395.047,295.231,395.422,293.006z"/>
      	<path fill="#C6C6C6" d="M378.734,284.561h4.152v-8.275h-18.955l6.848-25.467c0.592-2.197,0.174-4.236-0.932-4.531
      		c-1.104-0.295-2.488,1.264-3.08,3.461l-7.139,26.537h-30.742v8.275h4.154v20.689h3.002c1.324-5.221,6.723-8.732,14.854-8.732
      		s13.531,3.512,14.855,8.732h12.982V284.561z"/>
      	<ellipse fill="#C6C6C6" cx="337.715" cy="263.872" rx="4.154" ry="4.139"/>
      	<ellipse fill="#C6C6C6" cx="350.176" cy="270.079" rx="3.115" ry="3.104"/>
      	<path fill="#C6C6C6" d="M341.184,249.413c-0.225,0.643-0.354,1.328-0.354,2.045c0,3.428,2.791,6.207,6.23,6.207
      		c3.404,0,6.168-2.723,6.227-6.1c-0.77,0.07-1.564,0.109-2.391,0.109C346.969,251.674,343.686,250.85,341.184,249.413z"/>
      	<path fill="#D0D0D0" d="M279.215,286.709h0.932l0.709,0.842h1.193l1.898-2.326h2.74h1.207l4.76-2.902l-0.178-1.123l-6.059,2.025
      		l0.105-4.582l-1.629-2.016v-2.648l4.08-5.033v-2.598l-7.436,5.301h-2.25h-2.223l-1.938-2.363c-0.303,1.477-0.48,3.072-0.48,4.811
      		C274.648,279.801,276.381,284.159,279.215,286.709z"/>
          <animateTransform attributeType="XML" attributeName="transform" type="rotate" values="-35 350 -200;-35 350 -200" calcMode="linear" dur="1s" keyTimes="0;1" repeatCount="indefinite" />
      </g>

      <g class="puzzle_search">
      	<linearGradient id="XMLID_22_" gradientUnits="userSpaceOnUse" x1="-330.4526" y1="-209.9063" x2="489.542" y2="610.0884">
      		<stop  offset="0" style="stop-color:#FFFFFF"/>
      		<stop  offset="1" style="stop-color:#EAEAEA"/>
      	</linearGradient>
      	<path fill="url(#XMLID_22_)" stroke="#DCDCDC" d="M297.074,399.684c-0.387-1.928-0.563-3.701-0.551-5.305
      		c0.068-8.656,5.682-12.316,14.006-8.152c0.924,0.463,1.834,0.828,2.723,1.102c0.592,0.182,1.174,0.324,1.746,0.424
      		c0.572,0.102,1.135,0.162,1.684,0.186c6.859,0.273,11.787-5.529,11.789-15.166c-0.002-10.408-5.75-16.346-13.473-14.982
      		c-1.43,0.252-2.928,0.756-4.469,1.527c-9.865,4.932-15.922-1.123-13.455-13.457c2.467-12.332,4.486-22.428,4.486-22.428
      		s-10.096-2.016-22.428-4.48c-7.707-1.545-12.963,0.242-14.617,4.209c-0.992,2.379-0.688,5.543,1.164,9.242
      		c2.158,4.318,2.211,8.291,0.557,11.396c-2.125,3.992-7.078,6.549-14.016,6.549c-12.336,0-18.391-8.078-13.453-17.945
      		c0.154-0.309,0.297-0.613,0.43-0.914c4.117-9.318-1.939-14.932-13.889-12.537c-8.248,1.648-15.486,3.096-19.383,3.873
      		c-1.928,0.385-3.039,0.607-3.039,0.607s1.545,7.729,3.582,17.924c0.074,0.363,0.146,0.73,0.221,1.1
      		c0.148,0.74,0.299,1.492,0.451,2.254c0.076,0.381,0.152,0.764,0.23,1.15c2.465,12.334-3.588,18.389-13.455,13.457
      		c-9.867-4.936-17.941,1.119-17.941,13.453c0,6.553,2.277,11.332,5.893,13.635c3.189,2.031,7.42,2.133,12.043-0.178
      		c5.861-2.932,10.377-1.986,12.563,1.85c0.045,0.08,0.086,0.166,0.129,0.248c0.066,0.125,0.135,0.248,0.195,0.379
      		c1.225,2.611,1.498,6.354,0.574,10.98c-2.457,12.285-4.469,22.344-4.484,22.424c0.016,0.002,10.1,2.021,22.424,4.486
      		c12.336,2.465,18.391-3.59,13.457-13.457c-4.932-9.867,1.121-17.939,13.455-17.939c12.332,0,18.389,8.072,13.457,17.939
      		c-4.936,9.867,1.121,15.922,13.453,13.457c12.326-2.465,22.41-4.484,22.426-4.486c-0.014-0.076-1.783-8.916-4.027-20.141
      		C297.381,401.217,297.229,400.454,297.074,399.684z"/>
      	<path fill="#D0D0D0" d="M256.494,349.983c2.895,2.508,4.93,5.848,5.793,9.658c1.047,4.715,0.199,9.551-2.389,13.615
      		c-2.588,4.066-6.613,6.883-11.33,7.957c-4.727,1.035-9.568,0.189-13.656-2.391c-4.072-2.58-6.902-6.596-7.965-11.307
      		c-1.043-4.717-0.199-9.549,2.385-13.613c2.459-3.857,6.221-6.57,10.625-7.744c-2.148-2.166-3.174-5.041-2.848-8.318
      		c-6.289,1.809-11.645,5.797-15.186,11.367c-3.855,6.055-5.109,13.234-3.541,20.219c1.563,6.99,5.764,12.953,11.83,16.785
      		c6.057,3.842,13.244,5.096,20.27,3.535l0.027-0.002c5.676-1.271,10.891-4.445,14.67-8.938l0.023-0.021l6.656,4.211l3.795-5.941
      		l-6.666-4.215l0.008-0.041c2.473-5.328,3.131-11.387,1.852-17.068c-0.998-4.479-3.09-8.539-6.061-11.889
      		C262.916,347.887,260.09,349.344,256.494,349.983z"/>
      	<path fill="#D0D0D0" d="M242.191,372.018c0.439,0.377,1,0.541,1.545,0.494c0.535-0.045,1.063-0.289,1.436-0.732l11.512-13.484
      		c0.748-0.885,0.65-2.227-0.236-2.98l-0.951-0.813c-0.895-0.752-2.238-0.648-2.99,0.236l-9.33,10.914l-6.762-5.746
      		c-0.887-0.754-2.229-0.646-2.982,0.242l-0.82,0.963c-0.75,0.887-0.648,2.227,0.238,2.977L242.191,372.018z"/>
      	<path fill="#D0D0D0" d="M272.131,387.774l12.789,8.094c1.291,0.818,2.826,1.088,4.324,0.752c1.498-0.334,2.771-1.23,3.586-2.518
      		c0.822-1.289,1.088-2.826,0.754-4.313c-0.336-1.486-1.232-2.76-2.521-3.578l-12.789-8.098L272.131,387.774z"/>
        <animateTransform attributeType="XML" attributeName="transform" type="rotate" values="25 1600 400;25 1600 400" calcMode="linear" dur="1s" keyTimes="0;1" repeatCount="indefinite" />
      </g>
      </svg>
