
      <svg class="puzzle2" version="1.1" id="レイヤー_1" xmlns="&ns_svg;" xmlns:xlink="&ns_xlink;" width="548.194" height="548.193"
      	 viewBox="0 0 548.194 548.193" overflow="visible" enable-background="new 0 0 548.194 548.193" xml:space="preserve">
      <g class="puzzle_namazume">
      	<linearGradient id="XMLID_15_" gradientUnits="userSpaceOnUse" x1="-12.5547" y1="-111.2368" x2="807.4457" y2="708.7637">
      		<stop  offset="0" style="stop-color:#FFFFFF"/>
      		<stop  offset="1" style="stop-color:#EAEAEA"/>
      	</linearGradient>
      	<path fill="url(#XMLID_15_)" stroke="#DCDCDC" d="M129.245,43.186c0.42,2.103,0.867,4.337,1.329,6.65
      		c0.309,1.542,0.483,2.985,0.535,4.321c0.026,0.668,0.021,1.31-0.015,1.923c-0.035,0.613-0.1,1.199-0.194,1.755
      		c-0.75,4.451-3.337,7.037-7.17,7.169c-1.917,0.066-4.145-0.48-6.612-1.714c-2.466-1.233-4.82-1.78-6.965-1.713
      		c-4.021,0.125-7.303,2.406-9.199,6.357c-0.379,0.79-0.703,1.647-0.966,2.567c-0.175,0.613-0.324,1.255-0.444,1.923
      		c-0.24,1.336-0.366,2.78-0.366,4.322s0.126,2.985,0.366,4.322c0.12,0.668,0.269,1.31,0.444,1.923
      		c0.263,0.92,0.587,1.777,0.966,2.567c1.896,3.952,5.178,6.232,9.199,6.357c2.145,0.066,4.499-0.48,6.965-1.713
      		c2.467-1.233,4.695-1.78,6.612-1.713c3.833,0.133,6.42,2.72,7.17,7.169c0.094,0.557,0.159,1.143,0.194,1.756
      		c0.036,0.613,0.041,1.254,0.015,1.922c-0.051,1.336-0.226,2.78-0.535,4.322c-0.462,2.313-0.909,4.547-1.329,6.649
      		c-1.822,9.114-3.155,15.776-3.152,15.776c0,0,10.089,2.02,22.425,4.486c0.768,0.153,1.512,0.273,2.23,0.362
      		c10.809,1.33,15.843-4.569,11.219-13.819c-4.937-9.867,1.121-17.941,13.455-17.941c2.7,0,5.1,0.387,7.149,1.096
      		c7.315,2.523,10.169,9.139,6.316,16.848c-3.394,6.782-1.593,11.764,3.872,13.414c2.484,0.748,5.724,0.81,9.578,0.039
      		c12.295-2.459,22.36-4.473,22.421-4.484l0,0c0,0,0.006-0.002,0.008-0.002c-0.005-0.023-0.129-0.648-0.353-1.766
      		c-0.683-3.416-2.282-11.406-4.133-20.658c-2.466-12.334,3.589-18.389,13.457-13.455c9.867,4.933,17.939-1.122,17.939-13.455
      		c0-12.334-8.073-18.388-17.939-13.455c-6.785,3.392-11.767,1.589-13.416-3.878c-0.75-2.484-0.812-5.726-0.041-9.58
      		c2.468-12.335,4.486-22.426,4.486-22.426s-10.093-2.018-22.428-4.485c-12.333-2.467-18.388,3.589-13.456,13.456
      		c4.937,9.867-1.119,17.94-13.455,17.94s-18.39-8.073-13.454-17.94c4.934-9.867-1.122-15.923-13.458-13.456
      		c-12.333,2.468-22.425,4.484-22.425,4.484v0c0,0,0.003,0,0.003,0C126.09,27.409,127.423,34.071,129.245,43.186z"/>
      	<path fill="#DADADA" d="M173.484,99.246c3.275-5.849,1.529-13.216-2.308-19.186l-11.21-16.021L148.762,80.06
      		c-4.54,7.064-6.188,16.094,0,22.237c3.096,3.065,7.153,4.602,11.205,4.602c0.311,0,0.621-0.026,0.932-0.044
      		C162.492,102.626,166.962,99.724,173.484,99.246z M149.602,96.962c-2.907-5.884,1.722-14.324,4.635-17.527
      		c0,0-3.012,8.011,0.967,16.025C157.271,99.619,152.85,103.527,149.602,96.962z"/>
      	<path fill="#DADADA" d="M180.281,80.498V99.66c0.8,0.167,1.573,0.359,2.29,0.607c3.719,1.283,6.277,3.627,7.395,6.631
      		c0.075,0,0.144,0.001,0.22,0.001c5.465,0,8.75-0.442,8.75-0.442c1.12-0.526,1.779-0.814,1.779-1.813V80.498
      		c0-5.186-1.649-8.071-3.64-11.426c-3.688-6.255-3.676-13.418-3.676-22.033l-2.033-0.086v-0.054l-0.839,0.028l-0.681-0.023
      		c-0.498,1.211-1.233,2.311-2.194,3.268c-0.052,7.241-0.464,13.419-3.696,18.899C181.977,72.426,180.281,75.312,180.281,80.498z"/>
          </g>

      <g class="puzzle_nagano">
      	<linearGradient id="XMLID_16_" gradientUnits="userSpaceOnUse" x1="36.7813" y1="-160.5757" x2="856.7815" y2="659.4246">
      		<stop  offset="0" style="stop-color:#FFFFFF"/>
      		<stop  offset="1" style="stop-color:#EAEAEA"/>
      	</linearGradient>
      	<path fill="url(#XMLID_16_)" stroke="#DCDCDC" d="M233.736,63.291c9.867-4.933,17.939,1.121,17.939,13.456v0.001
      		c0,0,0,0.001,0,0.001c0,12.334-8.072,18.39-17.939,13.456c-9.868-4.936-15.923,1.12-13.455,13.454
      		c1.852,9.252,3.448,17.24,4.131,20.656c0.225,1.125,0.35,1.752,0.353,1.766c0.175-0.034,10.195-2.037,22.419-4.482
      		c2.314-0.463,4.408-0.625,6.249-0.52c7.977,0.456,11.224,5.957,7.213,13.977c-4.161,8.324-0.501,15.373,8.15,17.373
      		c1.601,0.369,3.372,0.566,5.297,0.566c12.335,0,18.391-8.074,13.458-17.941c-4.473-8.943,0.084-14.755,10.163-13.927
      		c0.145,0.012,0.296,0.03,0.443,0.046c0.204,0.02,0.406,0.037,0.614,0.063c0.723,0.089,1.471,0.21,2.244,0.365
      		c6.054,1.211,11.564,2.313,15.609,3.121c4.192,0.839,6.809,1.361,6.809,1.361v0.002c0.002,0,0.006,0,0.006,0l0.001-0.002h-0.001
      		c0,0,2.018-10.092,4.482-22.426c1.541-7.708-0.244-12.963-4.209-14.618c-2.379-0.992-5.543-0.687-9.244,1.163
      		c-5.242,2.621-9.977,2.14-13.265-0.735c-2.901-2.537-4.675-6.939-4.675-12.722c0-12.334,8.074-18.39,17.939-13.456
      		c9.868,4.936,15.92-1.121,13.454-13.454c-1.617-8.095-3.043-15.224-3.83-19.168c-0.414-2.065-0.652-3.257-0.652-3.257
      		s-10.09,2.019-22.424,4.485c-12.336,2.467-18.392-3.589-13.456-13.456C292.494,8.573,286.438,0.5,274.103,0.5
      		c-12.332,0-18.388,8.073-13.455,17.939c4.935,9.867-1.12,15.923-13.453,13.456c-12.336-2.467-22.429-4.485-22.429-4.483
      		c0,0-2.016,10.091-4.484,22.425c-0.771,3.854-0.71,7.095,0.039,9.579C221.971,64.881,226.952,66.684,233.736,63.291z"/>
      	<path fill="#DADADA" d="M268.271,148.718c0-1.539-1.222-2.781-2.73-2.781c-1.506,0-2.726,1.242-2.726,2.781v0.94
      		c1.454,1.161,3.286,2.056,5.456,2.624V148.718z"/>
      	<path fill="#DADADA" d="M275.539,152.953v-4.234c0-1.539-1.22-2.781-2.728-2.781c-1.502,0-2.724,1.242-2.724,2.781v3.963
      		c1.247,0.205,2.584,0.314,4.006,0.314C274.587,152.996,275.066,152.978,275.539,152.953z"/>
      	<path fill="#DADADA" d="M282.815,148.718c0-1.539-1.225-2.781-2.73-2.781s-2.726,1.242-2.726,2.781v4.072
      		c2.059-0.267,3.887-0.791,5.456-1.531V148.718z"/>
      	<polygon fill="#DADADA" points="256.863,100.697 259.151,105.402 270.458,100.744 274.219,95.882 278.938,83.604 292.723,85.82
      		294.394,81.829 292.067,80.46 293.141,71.431 285.797,65.772 288.424,59.339 295.932,51.695 293.273,45.402 284.855,51.822
      		275.896,49.399 270.216,52.111 264.463,59.513 262.057,62.545 259.364,62.545 261.5,63.873 262.985,67.22 259.535,76.136
      		256.969,77.033 253.932,80.939 256.863,84.716 	"/>
        <animateTransform attributeType="XML" attributeName="transform" type="rotate" values="-28 480 -670;-28.5 480 -670;-28 480 -670;-27.5 480 -670;-28 480 -670;-28 480 -670" calcMode="linear" dur="10s" keyTimes="0;0.01;0.02;0.03;0.04;1" repeatCount="indefinite" />
      </g>

      <g class="puzzle_saga">
      	<linearGradient id="XMLID_17_" gradientUnits="userSpaceOnUse" x1="-61.8965" y1="-61.8945" x2="758.1039" y2="758.106">
      		<stop  offset="0" style="stop-color:#FFFFFF"/>
      		<stop  offset="1" style="stop-color:#EAEAEA"/>
      	</linearGradient>
      	<path fill="url(#XMLID_17_)" stroke="#DCDCDC" d="M126.083,126.083c0,0-2.017,10.092-4.482,22.426
      		c-0.386,1.928-0.563,3.701-0.551,5.304c0.068,8.653,5.679,12.314,14.003,8.153c9.867-4.936,17.942,1.121,17.942,13.455l0,0l0,0
      		c0,12.336-8.075,18.39-17.942,13.457c-8.324-4.164-13.935-0.504-14.003,8.15c-0.013,1.603,0.165,3.376,0.551,5.304
      		c2.466,12.334,4.482,22.425,4.484,22.425l-0.002,0.001v0.001c0-0.002,10.094-2.02,22.427-4.486
      		c9.25-1.851,14.97,1.095,15.169,6.846c0.066,1.916-0.48,4.145-1.714,6.611c-1.233,2.467-1.78,4.82-1.714,6.964
      		c0.2,6.434,5.92,10.976,15.169,10.976c9.252,0,14.97-4.542,15.17-10.976c0.066-2.144-0.48-4.497-1.713-6.964
      		c-1.233-2.467-1.78-4.695-1.713-6.611c0.198-5.751,5.917-8.696,15.172-6.846c12.332,2.467,22.424,4.484,22.421,4.484
      		c0,0,1.333-6.661,3.157-15.776c0.421-2.103,0.868-4.336,1.331-6.648c2.464-12.335-3.591-18.39-13.457-13.456
      		c-9.87,4.933-17.94-1.123-17.94-13.455c0-12.336,8.07-18.391,17.94-13.457c9.866,4.934,15.921-1.121,13.457-13.455
      		c-0.463-2.313-0.91-4.547-1.331-6.65c-1.818-9.083-3.147-15.728-3.157-15.773c-0.176,0.035-10.192,2.039-22.419,4.484
      		c-3.854,0.771-7.096,0.709-9.58-0.041c-5.47-1.648-7.273-6.631-3.881-13.416c3.856-7.707,1.005-14.32-6.306-16.846
      		c-2.048-0.707-4.445-1.094-7.143-1.094c-12.332,0-18.388,8.074-13.455,17.941c4.627,9.252-0.41,15.152-11.225,13.817
      		c-0.721-0.089-1.467-0.21-2.238-0.364C136.177,128.101,126.083,126.083,126.083,126.083z"/>
      	<path fill="#DADADA" d="M160.907,106.855c3.735-0.22,7.411-1.729,10.27-4.558c0.957-0.951,1.706-1.978,2.306-3.049
      		C166.968,99.728,162.501,102.629,160.907,106.855z"/>
      	<path fill="#DADADA" d="M182.571,100.267c-0.716-0.248-1.49-0.439-2.29-0.605v4.982c0,0.998,0.852,1.465,1.831,1.813
      		c0,0,2.383,0.43,7.849,0.441C188.844,103.894,186.288,101.55,182.571,100.267z"/>
      	<path fill="#DADADA" d="M152.995,175.421L152.995,175.421L152.995,175.421c0,1.711-0.161,3.297-0.455,4.753l19.326,26.813
      		l7.849-14.055l6.12-3.677l9.525,5.177l4.433-9.87c-1.241-2.424-1.946-5.507-1.946-9.141c0-5.47,1.589-9.701,4.215-12.29
      		l-14.263-8.079l-7.544,3.67l-9.013-5.864v-5.87h-11.287l-3.543,9.263l-9.027,5.733
      		C150.834,164.353,152.995,169.045,152.995,175.421z"/>
      	<path fill="#DADADA" d="M186.02,248.848c-0.758-2.576-3.145-4.46-5.976-4.46c-3.44,0-6.231,2.78-6.231,6.207
      		c0,0.351,0.036,0.692,0.092,1.027c0.495,0.027,0.997,0.047,1.515,0.047C179.833,251.669,183.43,250.627,186.02,248.848z"/>
      </g>

      <g class="puzzle_tobin">
      	<linearGradient id="XMLID_18_" gradientUnits="userSpaceOnUse" x1="-111.2329" y1="-12.5586" x2="708.7668" y2="807.4412">
      		<stop  offset="0" style="stop-color:#FFFFFF"/>
      		<stop  offset="1" style="stop-color:#EAEAEA"/>
      	</linearGradient>
      	<path fill="url(#XMLID_18_)" stroke="#DCDCDC" d="M65.005,222.4c0.066-1.916-0.479-4.145-1.712-6.61
      		c-1.234-2.467-1.781-4.822-1.714-6.967c0.199-6.434,5.918-10.975,15.169-10.975s14.971,4.541,15.169,10.975
      		c0.066,2.145-0.48,4.5-1.714,6.967c-1.233,2.466-1.78,4.694-1.713,6.61c0.2,5.75,5.919,8.693,15.17,6.842
      		c12.306-2.46,22.378-4.475,22.423-4.483c-0.002-0.013-2.018-10.098-4.482-22.426c-0.386-1.927-0.563-3.701-0.551-5.304
      		c0.067-8.654,5.679-12.314,14.003-8.152c9.867,4.935,17.942-1.121,17.942-13.455s-8.075-18.389-17.942-13.455
      		c-8.324,4.162-13.936,0.502-14.003-8.153c-0.013-1.603,0.165-3.377,0.551-5.304c2.466-12.336,4.482-22.426,4.482-22.426
      		s-10.09-2.018-22.425-4.484c-1.926-0.385-3.698-0.563-5.3-0.549c-8.652,0.068-12.311,5.68-8.15,14.004
      		c4.936,9.867-1.12,17.941-13.455,17.941c-0.001,0-0.002,0-0.004,0s-0.002,0-0.004,0c-12.332,0-18.388-8.074-13.456-17.941
      		c4.164-8.324,0.504-13.936-8.148-14.004c-1.602-0.014-3.375,0.164-5.3,0.549c-12.333,2.467-22.425,4.484-22.425,4.486l0-0.001
      		c0,0-0.003,0.001-0.004,0.001c0.004,0.028,2.021,10.107,4.485,22.424c2.466,12.336-3.59,18.391-13.458,13.457
      		C8.571,157.031,0.5,163.087,0.5,175.421c0,12.332,8.071,18.388,17.938,13.455c6.187-3.094,10.874-1.865,12.903,2.519
      		c1.208,2.609,1.475,6.336,0.555,10.938c-2.465,12.323-4.483,22.405-4.487,22.425c0.004,0.002,10.096,2.02,22.427,4.484
      		C59.085,231.093,64.805,228.15,65.005,222.4z"/>
      	<path fill="#DADADA" d="M70.25,163.072c-1.203,2.57-4.465,4.119-6.344,6.002c-3.429,3.428-6.001,6.482-6.001,11.998
      		c0,0,1.715,20.573,3.429,22.286c0,0,0.437,0.427,1.435,0.978c2.144-3.957,7.077-6.487,13.98-6.487c6.435,0,11.154,2.2,13.502,5.703
      		c0.148-0.119,0.226-0.193,0.226-0.193c1.714-1.713,3.429-22.286,3.429-22.286c0-5.516-2.573-8.57-6.001-11.998
      		c-1.879-1.883-5.142-3.432-6.344-6.002c-1.281-2.74-0.981-6.285-0.715-10.407c-1.273,0.214-2.637,0.331-4.092,0.331
      		c-0.001,0-0.002,0-0.004,0s-0.002,0-0.004,0c-2.132,0-4.072-0.247-5.805-0.697C71.211,156.578,71.568,160.25,70.25,163.072z"/>
      	<path fill="#DADADA" d="M147.386,161.984l-5.458,3.467l10.612,14.724c0.294-1.457,0.455-3.042,0.455-4.753
      		C152.995,169.046,150.834,164.354,147.386,161.984z"/>
        <animateTransform attributeType="XML" attributeName="transform" type="rotate" values="-18 1400 -300;-18 1400 -300" calcMode="linear" dur="1s" keyTimes="0;1" repeatCount="indefinite" />
      </g>

      <g class="puzzle_menu">
      	<linearGradient id="XMLID_19_" gradientUnits="userSpaceOnUse" x1="-12.5586" y1="-111.2344" x2="807.4418" y2="708.7661">
      		<stop  offset="0" style="stop-color:#FFFFFF"/>
      		<stop  offset="1" style="stop-color:#EAEAEA"/>
      	</linearGradient>
      	<path fill="url(#XMLID_19_)" stroke="#DCDCDC" d="M247.194,121.601c-12.336,2.467-22.429,4.484-22.429,4.484l0-0.002l-0.005,0.002
      		c0.005,0.035,1.334,6.684,3.154,15.773c0.421,2.104,0.868,4.337,1.331,6.65c2.464,12.334-3.591,18.389-13.457,13.455
      		c-9.87-4.934-17.94,1.121-17.94,13.457c0,12.332,8.07,18.388,17.94,13.455c9.866-4.934,15.921,1.121,13.457,13.456
      		c-0.463,2.313-0.91,4.546-1.331,6.648c-1.825,9.115-3.157,15.776-3.154,15.776c0,0,10.092,2.02,22.425,4.484
      		c12.335,2.469,18.39-3.588,13.457-13.452c-4.935-9.869,1.121-17.941,13.457-17.941c7.709,0,12.966,3.153,14.619,7.928
      		c0.993,2.865,0.689,6.313-1.161,10.014c-1.851,3.7-2.157,6.863-1.166,9.243c1.654,3.965,6.909,5.752,14.617,4.209
      		c12.328-2.465,22.419-4.482,22.427-4.484c-0.001-0.004-0.028-0.145-0.081-0.402c-0.371-1.85-1.988-9.929-3.971-19.851
      		c-0.143-0.715-0.288-1.438-0.434-2.17c-0.309-1.543-0.484-2.986-0.535-4.324c-0.359-9.354,5.356-13.45,13.988-9.134
      		c9.867,4.935,17.941-1.12,17.943-13.454c-0.002-12.334-8.072-18.388-17.939-13.454c-8.327,4.162-13.939,0.502-14.007-8.153
      		c-0.013-1.604,0.164-3.378,0.55-5.306c2.462-12.326,4.482-22.409,4.485-22.424c-0.064-0.014-2.666-0.534-6.809-1.363
      		c-4.046-0.809-9.56-1.911-15.617-3.123c-0.771-0.154-1.516-0.274-2.236-0.363c-0.208-0.025-0.41-0.043-0.614-0.063
      		c-0.147-0.016-0.298-0.034-0.443-0.046c-10.074-0.825-14.627,4.986-10.155,13.929c4.933,9.867-1.122,17.941-13.457,17.941
      		c-1.928,0-3.703-0.197-5.306-0.568c-8.658-1.998-12.321-9.049-8.157-17.375c4.008-8.014,0.764-13.514-7.206-13.975
      		C251.595,120.975,249.505,121.138,247.194,121.601z"/>
      	<path fill="#DADADA" d="M256.749,180.566v-1.047c0.001-5.164-1.596-8.043-3.527-11.414c-3.576-6.238-3.575-13.434-3.574-22.043
      		l-1.971-0.066l-0.005-0.059l-0.815,0.027l-0.794-0.023l-0.01,0.055l-1.971,0.063c0.007,8.617,0.001,15.793-3.568,22.047
      		c-1.933,3.371-3.579,6.238-3.58,11.434l0.007,1.051C243.563,181.242,250.128,181.234,256.749,180.566z"/>
      	<path fill="#DADADA" d="M236.941,198.106l-0.002,5.57c0.002,0.98,0.83,1.445,1.777,1.797c0,0,2.374,0.441,7.844,0.465
      		c5.293-0.008,8.47-0.465,8.47-0.465c1.092-0.516,1.727-0.789,1.725-1.789l-0.001-5.566
      		C249.413,199.194,243.527,198.668,236.941,198.106z"/>
      	<path fill="#DADADA" d="M246.924,195.622c3.024,0.008,6.223,0.152,9.891-0.438l0.001-11.7c-3.672,0.418-6.878,0.387-9.905,0.387
      		c-3.042-0.008-6.61,0.029-10.094-0.41l-0.001,11.669C240.787,195.629,243.888,195.625,246.924,195.622z"/>
      	<path fill="#DADADA" d="M302.979,147.113c-1.236-0.738-2.667-1.176-4.163-1.176c-1.494,0-2.926,0.438-4.165,1.176
      		c-1.857,1.117-3.302,2.863-4.295,4.938c-0.99,2.074-1.541,4.5-1.541,7.084c0.004,3.439,0.972,6.6,2.685,9.029
      		c0.86,1.213,1.914,2.242,3.151,2.988c0.513,0.301,1.063,0.541,1.631,0.734v31.399c0,1.463,1.135,2.652,2.534,2.652
      		c1.397,0,2.537-1.189,2.537-2.652v-31.399c0.567-0.193,1.113-0.434,1.626-0.734c1.859-1.117,3.302-2.867,4.295-4.941
      		s1.541-4.496,1.541-7.076c-0.004-3.443-0.971-6.607-2.683-9.037C305.274,148.886,304.22,147.855,302.979,147.113z"/>
      	<path fill="#DADADA" d="M277.359,161.46c0,1.543-0.562,2.902-1.415,3.852c-0.125,0.141-0.268,0.25-0.405,0.367v-12.725
      		c-0.47,0.025-0.946,0.043-1.437,0.043c-1.425,0-2.765-0.109-4.015-0.315v13.001c-0.139-0.121-0.278-0.229-0.403-0.371
      		c-0.852-0.949-1.413-2.305-1.413-3.852v-9.178c-2.169-0.566-4.001-1.46-5.456-2.619v11.797c0,2.93,1.066,5.623,2.846,7.611
      		c1.176,1.318,2.706,2.322,4.427,2.857v26.237c1.25-0.206,2.586-0.318,4.011-0.318c0.49,0,0.97,0.014,1.44,0.038v-25.957
      		c1.723-0.535,3.251-1.539,4.429-2.857c1.779-1.988,2.848-4.682,2.848-7.611v-10.195c-1.57,0.738-3.397,1.263-5.456,1.529V161.46z"
      		/>
      	<path fill="#DADADA" d="M350.346,175.422c0-3.455-0.635-6.417-1.764-8.782c-0.786,3.5-1.139,7.22-1.486,10.887
      		c0,0-0.835,7.312-0.833,7.312c-0.139,0.876-0.229,1.904-0.258,2.988C348.705,185.249,350.345,180.974,350.346,175.422z"/>
      	<path fill="#DADADA" d="M197.848,175.421c0,3.634,0.705,6.717,1.946,9.141l8.134-18.109l-5.865-3.321
      		C199.437,165.72,197.848,169.952,197.848,175.421z"/>
        <animateTransform attributeType="XML" attributeName="transform" type="rotate" values="-28 480 -670;-27.5 480 -670;-28 480 -670;-28.5 480 -670;-28 480 -670;-28 480 -670" calcMode="linear" dur="10s" keyTimes="0;0.01;0.02;0.03;0.04;1" repeatCount="indefinite" />
      </g>

      <g>
      	<linearGradient id="XMLID_20_" gradientUnits="userSpaceOnUse" x1="36.7808" y1="-160.5679" x2="856.7754" y2="659.4268">
      		<stop  offset="0" style="stop-color:#FFFFFF"/>
      		<stop  offset="1" style="stop-color:#EAEAEA"/>
      	</linearGradient>
      	<path fill="url(#XMLID_20_)" stroke="#DCDCDC" d="M345.86,130.57c-12.334-2.467-22.424-4.484-22.424-4.484
      		s-2.019,10.092-4.487,22.426c-0.385,1.928-0.563,3.701-0.55,5.304c0.069,8.653,5.681,12.313,14.003,8.151
      		c9.867-4.936,17.943,1.121,17.943,13.455c0,0,0,0,0,0.001v0.001c0,12.334-8.072,18.39-17.939,13.457
      		c-8.635-4.318-14.35-0.223-13.992,9.13c0.051,1.336,0.226,2.779,0.535,4.322c0.146,0.732,0.291,1.456,0.434,2.172
      		c1.985,9.92,3.601,17.997,3.971,19.851c0.053,0.261,0.082,0.402,0.082,0.402h-0.001l0.001,0.002
      		c0.006-0.002,1.725-0.346,4.602-0.92c4.107-0.822,10.576-2.115,17.822-3.564c11.564-2.313,17.609,2.865,14.254,11.65
      		c-0.225,0.586-0.488,1.188-0.797,1.805c-0.309,0.617-0.574,1.227-0.799,1.828c-3.354,9.018,2.689,16.113,14.252,16.113
      		c12.334,0,18.391-8.072,13.455-17.941c-2.158-4.316-2.213-7.904-0.559-10.367c2.127-3.167,7.078-4.476,14.016-3.088
      		c12.336,2.467,22.428,4.484,22.428,4.484v-0.002l0,0c0,0,2.018-10.091,4.482-22.425c1.465-7.324-0.076-12.433-3.635-14.344
      		c-0.111-0.06-0.229-0.11-0.346-0.165c-0.076-0.035-0.152-0.076-0.23-0.109c-2.381-0.992-5.543-0.688-9.242,1.162
      		c-4.934,2.468-9.42,2.188-12.672-0.252c-3.252-2.438-5.271-7.036-5.271-13.203c0-12.336,8.074-18.391,17.939-13.457
      		c8.633,4.317,14.35,0.221,13.992-9.133c-0.053-1.337-0.227-2.78-0.535-4.322c-0.404-2.022-0.797-3.982-1.17-5.852
      		c-1.896-9.486-3.307-16.521-3.316-16.572c-0.195,0.039-10.203,2.041-22.416,4.484c-1.93,0.385-3.705,0.563-5.309,0.549
      		c-8.654-0.066-12.318-5.68-8.152-14.006c4.932-9.865-1.125-17.938-13.455-17.939c-12.332,0.002-18.387,8.074-13.451,17.941
      		c4.162,8.326,0.5,13.938-8.158,14.004C349.563,131.132,347.788,130.955,345.86,130.57z"/>
      	<path fill="#DADADA" d="M395.566,171.077c-0.182-0.188-0.372-0.388-0.571-0.596c-0.443,2.614-1.286,5.083-2.084,6.795
      		c-0.695,1.505-1.287,2.467-1.341,2.56l-1.227,1.987l-0.031-2.344c-0.078-5.43-2.15-9.994-2.986-11.637
      		c-3.738,2.89-6.889,6.991-6.923,7.029l-0.965,1.272l-0.246-1.584c-0.893-5.694,0.301-10.576,0.819-12.328
      		c-4.793-1.368-11.682,0.201-11.753,0.218l-1.794,0.427l1.09-1.509c2.819-3.89,5.621-5.57,7.269-6.286
      		c-2.057-1.216-6.352-3.507-9.812-3.639l-0.25-1.327c0.141-0.063,1.87-0.846,4.408-1.304c-2.315-0.057-4.529,0.211-6.431,0.936
      		c-2.45,0.939-4.818,2.333-7.046,4.16c-2.32,1.894-3.958,4.195-5.146,6.746c-0.871,1.878-1.495,3.893-1.964,5.984
      		c1.129,2.367,1.763,5.328,1.763,8.783c0,0,0,0,0,0.001v0.001c0,5.555-1.641,9.83-4.341,12.407
      		c-0.066,2.453,0.212,5.215,1.187,7.324c0.981,2.109,3.136,4.259,5.246,5.207c3.476,1.551,7.816,0.978,11.638,0.469l2.093-0.26
      		c2.841-0.326,5.882-0.73,8.873-1.392c7.069-1.584,15.769-5.321,19.857-14.117c0.46-0.991,0.839-2.074,1.174-3.203
      		c-0.564-1.889-0.877-4.041-0.877-6.438C395.196,173.871,395.324,172.419,395.566,171.077z M356.931,174.509
      		c-0.135,0.732-0.444,1.615-1.151,1.952c-0.986,0.461-1.989-0.37-1.947-1.414c0.038-0.831,0.614-1.439,1.218-1.932
      		c0.358-0.302,1.044-0.879,1.544-0.674C357.274,172.722,357.029,173.957,356.931,174.509z M359.225,161.215
      		c-0.971,0.466-1.996-0.36-1.959-1.4c0.027-0.833,0.597-1.448,1.197-1.946c0.365-0.299,1.035-0.885,1.54-0.687
      		c0.674,0.278,0.444,1.507,0.355,2.065C360.229,159.972,359.931,160.87,359.225,161.215z M362.975,186.268
      		c-0.241,0.663-0.693,1.439-1.427,1.634c-0.998,0.264-1.802-0.705-1.583-1.688c0.175-0.776,0.821-1.249,1.481-1.599
      		c0.396-0.222,1.135-0.648,1.579-0.355C363.608,184.64,363.165,185.753,362.975,186.268z M367.456,169.089
      		c-0.164,0.718-0.513,1.595-1.236,1.898c-0.995,0.423-1.965-0.459-1.883-1.496c0.072-0.838,0.679-1.419,1.302-1.89
      		c0.377-0.272,1.08-0.827,1.578-0.599C367.877,167.321,367.584,168.535,367.456,169.089z M373.434,180.314
      		c-1.048,0.289-1.895-0.713-1.683-1.734c0.17-0.814,0.843-1.308,1.52-1.699c0.404-0.224,1.171-0.685,1.638-0.387
      		c0.609,0.391,0.169,1.563-0.017,2.09C374.64,179.287,374.184,180.103,373.434,180.314z M377.4,190.472
      		c-0.382,0.632-0.986,1.339-1.771,1.39c-1.073,0.077-1.714-1.069-1.305-2.032c0.326-0.76,1.082-1.12,1.819-1.354
      		c0.445-0.138,1.29-0.433,1.685-0.056C378.351,188.932,377.691,189.98,377.4,190.472z M387.728,184.029
      		c-0.384,0.638-0.988,1.344-1.772,1.397c-1.073,0.075-1.713-1.069-1.304-2.031c0.321-0.765,1.078-1.122,1.815-1.358
      		c0.454-0.141,1.293-0.434,1.687-0.055C388.682,182.495,388.015,183.549,387.728,184.029z"/>
      	<path fill="#DADADA" d="M395.74,163.05c-2.036-2.221-4.226-3.566-5.706-4.301l-0.833-0.418l0.637-0.683
      		c2.095-2.234,3.616-4.777,4.713-7.127c1.989-4.284,2.555-7.941,2.564-8.007c0.044-0.255-0.018-0.521-0.169-0.734
      		c-0.151-0.22-0.38-0.357-0.637-0.399c-0.535-0.086-1.038,0.28-1.121,0.808c-0.011,0.077-1.324,8.082-6.55,13.857l-0.761,0.837
      		l-0.386-1.063c-0.575-1.619-1.625-3.896-3.34-5.598c-2.945-2.906-5.717-6.11-7.231-7.908c-0.031,4.556,1.725,7.199,1.814,7.314
      		l1.417,1.87l-2.175-0.784c-3.878-1.396-7.832-0.798-10.263-0.146c4.416,1.109,8.844,3.961,9.065,4.107l1.379,0.93l-1.625,0.324
      		c-0.032,0.011-3.16,0.872-6.592,4.801c2.68-0.439,7.514-0.94,11.159,0.359l0.652,0.234l-0.237,0.659
      		c-0.02,0.048-1.671,4.861-1.145,10.761c1.355-1.616,3.895-4.424,6.782-6.513l0.597-0.434l0.381,0.641
      		c0.123,0.207,2.703,4.64,3.376,10.574c0.054-0.115,0.091-0.17,0.148-0.297c0.896-1.921,1.989-4.777,2.259-7.695l0.17-1.441
      		l1.841,1.902c0.392-1.464,0.934-2.772,1.606-3.913C397.015,164.661,396.438,163.81,395.74,163.05z"/>
      	<path fill="#DADADA" d="M382.351,249.498c0.124-0.068,0.24-0.144,0.359-0.216c0.121-0.072,0.246-0.142,0.363-0.218
      		c0.436-0.28,0.843-0.584,1.224-0.904c0.026-0.021,0.055-0.042,0.081-0.064c0.831-0.71,1.523-1.514,2.072-2.394h-7.829
      		c-0.808,0-1.455,0.62-1.455,1.382v4.206c1.928-0.354,3.63-0.945,5.081-1.738C382.28,249.533,382.317,249.517,382.351,249.498z"/>
      </g>
      <g>
      	<linearGradient id="XMLID_21_" gradientUnits="userSpaceOnUse" x1="86.1201" y1="-209.9058" x2="906.1147" y2="610.0889">
      		<stop  offset="0" style="stop-color:#FFFFFF"/>
      		<stop  offset="1" style="stop-color:#EAEAEA"/>
      	</linearGradient>
      	<path fill="url(#XMLID_21_)" stroke="#DCDCDC" d="M422.116,126.085v-0.002l-0.006,0.002c0.004,0.02,1.412,7.066,3.313,16.572
      		c0.373,1.868,0.766,3.828,1.17,5.852c0.309,1.541,0.482,2.985,0.535,4.322c0.357,9.355-5.355,13.451-13.988,9.135
      		c-9.867-4.936-17.941,1.121-17.941,13.455c0,6.166,2.018,10.764,5.27,13.203c3.252,2.438,7.736,2.718,12.668,0.252
      		c3.701-1.851,6.865-2.154,9.246-1.162c0.078,0.033,0.154,0.074,0.23,0.109c0.117,0.055,0.234,0.105,0.346,0.165
      		c3.559,1.91,5.1,7.02,3.635,14.344c-2.463,12.323-4.479,22.405-4.482,22.425c0.004,0.002,10.09,2.02,22.424,4.484
      		c9.252,1.852,14.971-1.092,15.17-6.842c0.064-1.916-0.482-4.145-1.715-6.61c-1.232-2.467-1.779-4.822-1.713-6.967
      		c0.201-6.434,5.92-10.975,15.169-10.975c9.25,0,14.971,4.541,15.17,10.975c0.068,2.145-0.479,4.5-1.711,6.967
      		c-1.234,2.466-1.781,4.694-1.717,6.61c0.199,5.75,5.918,8.693,15.168,6.842c12.334-2.465,22.424-4.482,22.428-4.484
      		c-0.004-0.02-2.023-10.102-4.488-22.425c-0.385-1.927-0.563-3.701-0.549-5.304c0.068-8.654,5.682-12.314,14.006-8.152
      		c9.867,4.935,17.941-1.121,17.941-13.455s-8.074-18.389-17.941-13.455c-8.324,4.162-13.938,0.502-14.006-8.153
      		c-0.014-1.603,0.164-3.377,0.549-5.304c2.467-12.336,4.488-22.426,4.488-22.426s-10.096-2.018-22.428-4.484
      		c-1.926-0.385-3.697-0.563-5.299-0.549c-8.654,0.068-12.313,5.68-8.148,14.004c4.932,9.867-1.125,17.941-13.459,17.941
      		c-0.002,0-0.002,0-0.004,0h-0.002c-12.335,0-18.39-8.074-13.455-17.941c4.164-8.323,0.504-13.935-8.15-14.004
      		c-1.602-0.014-3.373,0.164-5.297,0.549C432.208,124.066,422.116,126.083,422.116,126.085z"/>
      	<path fill="#DADADA" d="M397.654,171.266c1.079,1.011,2.636,2.21,4.333,3.34c-0.958-1.609-1.783-3.267-2.492-4.912
      		c-0.624-1.449-1.231-2.845-1.961-4.124c-0.672,1.141-1.214,2.449-1.605,3.913L397.654,171.266z"/>
      	<path fill="#DADADA" d="M396.073,181.856c0.118-0.397,0.251-0.78,0.352-1.196c0.678-2.8,0.708-5.688,0.118-8.573
      		c-0.144-0.147-0.52-0.535-0.974-1.008c-0.243,1.342-0.371,2.792-0.371,4.343C395.198,177.817,395.51,179.968,396.073,181.856z"/>
      	<path fill="#D0D0D0" d="M491.81,151.63c0,0-16.41,6.354-17.307,7.461c-0.919,1.154-13.46,14.972-14.02,17.245
      		c-0.562,2.267-17.533,5.913-20.214,6.744c-2.717,0.858-7.994,4.091-7.994,4.091v8.224l6.397-2.981l10.084,2.663l9.478-7.06
      		l2.996,6.919l20-3.229l0.647-13.25l11.054-4.555l1.432-4.48l5.181-4.231l-1.816-4.384c0,0,2.683-9.331,4.265-11.291
      		c1.607-1.963,6.283-3.123,6.283-3.123l-8.731-10.996L491.81,151.63z"/>
      </g>
      <g>
      	<linearGradient id="XMLID_22_" gradientUnits="userSpaceOnUse" x1="-160.5708" y1="36.7778" x2="659.4296" y2="856.7783">
      		<stop  offset="0" style="stop-color:#FFFFFF"/>
      		<stop  offset="1" style="stop-color:#EAEAEA"/>
      	</linearGradient>
      	<path fill="url(#XMLID_22_)" stroke="#DCDCDC" d="M49.836,318.949c2.698-0.54,5.095-0.672,7.143-0.445
      		c3.218,0.357,5.572,1.599,6.872,3.534c1.654,2.464,1.599,6.051-0.56,10.368c-1.696,3.391-2.093,6.57-1.384,9.283
      		c1.227,4.686,5.755,7.979,12.601,8.563c0.72,0.062,1.467,0.093,2.237,0.093c11.093,0,17.103-6.533,14.612-15.027
      		c-0.279-0.949-0.658-1.921-1.154-2.912c-0.551-1.103-0.958-2.154-1.241-3.154c-1.86-6.557,1.882-10.793,9.393-10.854
      		c1.603-0.012,3.377,0.165,5.305,0.551c0.374,0.074,0.745,0.148,1.114,0.223c11.822,2.362,21.309,4.262,21.309,4.262h0
      		c0.008-0.039,1.899-9.496,4.257-21.275c0.076-0.381,0.153-0.764,0.23-1.148c2.466-12.334-3.59-18.391-13.457-13.457
      		c-9.868,4.936-17.94-1.121-17.94-13.455c0-12.336,8.072-18.393,17.94-13.455c9.867,4.934,15.923-1.123,13.457-13.459
      		c-0.077-0.385-0.154-0.768-0.23-1.148c-2.361-11.801-4.256-21.268-4.257-21.275c-0.04,0.008-10.115,2.023-22.423,4.484
      		c-9.252,1.851-14.971-1.094-15.17-6.844c-0.067-1.916,0.48-4.145,1.713-6.61c1.234-2.467,1.781-4.822,1.714-6.967
      		c-0.199-6.434-5.918-10.975-15.169-10.975s-14.97,4.541-15.169,10.975c-0.066,2.145,0.48,4.5,1.714,6.967
      		c1.233,2.466,1.779,4.694,1.712,6.61c-0.2,5.75-5.919,8.694-15.169,6.844c-12.333-2.467-22.427-4.484-22.427-4.484
      		s-0.008,0.04-0.023,0.117c-0.23,1.154-2.147,10.747-4.459,22.311c-0.385,1.926-0.563,3.699-0.55,5.302
      		c0.068,8.655,5.68,12.315,14.002,8.153c9.867-4.934,17.942,1.121,17.942,13.457c0,3.082-0.505,5.773-1.416,7.998
      		c-0.342,0.835-0.74,1.604-1.191,2.303c-3.156,4.896-8.859,6.393-15.335,3.154c-6.782-3.393-11.763-1.591-13.413,3.875
      		c-0.3,0.993-0.49,2.108-0.56,3.335c-0.018,0.307-0.027,0.62-0.03,0.94s0.002,0.648,0.015,0.982
      		c0.051,1.336,0.227,2.779,0.535,4.322c2.453,12.266,4.46,22.313,4.483,22.422C27.43,323.427,37.512,321.411,49.836,318.949z"/>
      	<path fill="#DADADA" d="M76.748,197.848c-6.903,0-11.836,2.53-13.98,6.487c1.839,1.013,5.612,2.45,12.279,2.45
      		c0.291,0,0.576-0.004,0.858-0.01c0.281,0.006,0.567,0.01,0.858,0.01c8.825,0,12.593-2.518,13.487-3.234
      		C87.902,200.048,83.183,197.848,76.748,197.848z"/>
      	<path fill="#DADADA" d="M74.508,350.252c0.72,0.062,1.467,0.093,2.237,0.093c7.606,0,12.819-3.072,14.545-7.741
      		c-9.911-4.434-20.215-3.372-28.634,1.03C64.507,347.27,68.657,349.752,74.508,350.252z"/>
      	<path fill="#DADADA" d="M74.701,241.702c0,0-2.956,7.517-4.955,10.057c-2.063,2.553-7.089,5.686-7.089,5.686l-3.577,6.567
      		l9.635,11.935c0,0-5.161,1.257-6.934,3.386c-1.745,2.127-4.706,12.254-4.706,12.254l2.004,4.755l17.833,5.361l3.715-7.662
      		l-0.901-2.784l4.76-2.139l12.59-26.958l-0.166-5.031L74.701,241.702z"/>
      </g>
      <g>
      	<linearGradient id="XMLID_23_" gradientUnits="userSpaceOnUse" x1="-111.2329" y1="-12.5586" x2="708.7675" y2="807.4419">
      		<stop  offset="0" style="stop-color:#FFFFFF"/>
      		<stop  offset="1" style="stop-color:#EAEAEA"/>
      	</linearGradient>
      	<path fill="url(#XMLID_23_)" stroke="#DCDCDC" d="M148.51,327.917c10.713,2.143,16.686-2.148,14.837-9.78
      		c-0.28-1.151-0.733-2.378-1.38-3.673c-0.617-1.234-1.062-2.439-1.345-3.605c-1.98-8.156,4.007-14.338,14.8-14.338
      		c8.097,0,13.488,3.478,14.841,8.658c0.71,2.713,0.313,5.893-1.383,9.285c-2.775,5.55-2.073,9.893,1.266,12.191
      		c0.18,0.125,0.369,0.242,0.564,0.354c0.005,0.004,0.01,0.008,0.016,0.01c2.623,1.496,6.598,1.9,11.61,0.898
      		c12.295-2.459,22.36-4.475,22.421-4.486l0,0l0.003-0.001c-0.019-0.091-1.245-6.219-2.947-14.729
      		c-0.48-2.402-0.999-4.992-1.539-7.691c-0.281-1.406-0.446-2.725-0.513-3.961c-0.464-8.59,4.08-12.906,11.298-10.596
      		c0.854,0.273,1.747,0.639,2.672,1.102c0.616,0.309,1.226,0.574,1.827,0.798c9.018,3.354,16.113-2.692,16.113-14.253
      		c0-1.09-0.066-2.127-0.188-3.115c-0.008-0.061-0.012-0.125-0.02-0.185c-0.082-0.621-0.19-1.218-0.317-1.796
      		c-0.015-0.068-0.027-0.141-0.042-0.209c-1.999-8.652-9.047-12.313-17.372-8.15c-8.327,4.163-13.939,0.502-14.007-8.153
      		c-0.013-1.604,0.164-3.378,0.55-5.308c2.467-12.332,4.485-22.424,4.485-22.424s-10.092-2.018-22.424-4.484
      		c-9.253-1.85-14.972,1.094-15.172,6.844c-0.066,1.916,0.48,4.144,1.713,6.609c1.233,2.467,1.78,4.821,1.713,6.966
      		c-0.198,6.436-5.917,10.978-15.17,10.978c-9.25,0-14.971-4.542-15.169-10.978c-0.066-2.145,0.48-4.499,1.714-6.966
      		c1.233-2.466,1.78-4.693,1.714-6.609c-0.2-5.75-5.92-8.693-15.169-6.844c-12.333,2.467-22.427,4.484-22.427,4.484l0,0h0.002
      		c0,0,1.894,9.471,4.255,21.275c0.076,0.381,0.153,0.764,0.23,1.148c2.466,12.336-3.59,18.393-13.457,13.459
      		c-9.868-4.938-17.94,1.119-17.94,13.455c0,12.334,8.072,18.391,17.94,13.455c9.867-4.934,15.923,1.123,13.457,13.457
      		c-0.077,0.385-0.154,0.768-0.23,1.148c-2.358,11.785-4.249,21.245-4.255,21.276C126.134,323.444,136.207,325.457,148.51,327.917z"
      		/>
      	<path fill="#DADADA" d="M170.697,258.871c-2.294,0-4.153,1.855-4.153,4.139c0,2.282,1.859,4.138,4.153,4.138
      		s4.154-1.855,4.154-4.138C174.852,260.726,172.991,258.871,170.697,258.871z"/>
      	<path fill="#DADADA" d="M198.736,283.699h4.154v-8.276h-54v8.276h4.154v20.689h7.802c1.68-4.735,6.904-7.867,14.576-7.867
      		c7.676,0,12.914,3.128,14.591,7.867h8.723V283.699z"/>
      	<ellipse fill="#DADADA" cx="183.159" cy="269.215" rx="3.115" ry="3.104"/>
      	<path fill="#DADADA" d="M173.906,251.625c0.494,2.937,3.051,5.178,6.138,5.178c3.44,0,6.23-2.78,6.23-6.207
      		c0-0.606-0.091-1.191-0.254-1.745c-2.589,1.779-6.187,2.821-10.6,2.821C174.903,251.671,174.4,251.653,173.906,251.625z"/>
      	<path fill="#DADADA" d="M251.104,279.308c-0.268-1.117-0.103-2.307,0.493-3.322c-0.039,0.538-0.1,1.056-0.173,1.563
      		c0.151-1.091,0.247-2.231,0.247-3.449c0-1.09-0.066-2.127-0.188-3.115c-0.008-0.061-0.012-0.125-0.02-0.185
      		c-0.082-0.621-0.19-1.218-0.317-1.796c-0.015-0.068-0.027-0.141-0.042-0.209c-0.125-0.541-0.27-1.063-0.433-1.563
      		c-0.287-0.881-0.642-1.688-1.041-2.439l-0.829-0.336h-5.255l-2.694,5.355l-1.159,10.85l-2.706,4.667l2.784,3.463l1.533,0.417
      		C246.116,288.785,249.769,285.195,251.104,279.308z"/>
      </g>
      <g>
      	<linearGradient id="XMLID_24_" gradientUnits="userSpaceOnUse" x1="-61.8945" y1="-61.8965" x2="758.1057" y2="758.1038">
      		<stop  offset="0" style="stop-color:#FFFFFF"/>
      		<stop  offset="1" style="stop-color:#EAEAEA"/>
      	</linearGradient>
      	<path fill="url(#XMLID_24_)" stroke="#DCDCDC" d="M247.186,229.246c-12.334-2.467-22.425-4.486-22.425-4.484
      		c0,0-2.019,10.092-4.486,22.428c-0.385,1.926-0.563,3.699-0.55,5.302c0.069,8.653,5.681,12.313,14.004,8.151
      		c8.326-4.163,15.375-0.502,17.375,8.152c0.016,0.068,0.028,0.141,0.042,0.209c0.127,0.578,0.236,1.175,0.317,1.796
      		c0.008,0.06,0.012,0.124,0.02,0.185c0.121,0.988,0.188,2.025,0.188,3.115c0,11.564-7.095,17.609-16.113,14.253
      		c-0.602-0.224-1.212-0.489-1.83-0.798c-0.924-0.463-1.815-0.828-2.669-1.102c-7.219-2.311-11.762,2.006-11.298,10.596
      		c0.066,1.235,0.231,2.555,0.513,3.961c0.54,2.697,1.058,5.289,1.539,7.691c1.703,8.512,2.929,14.639,2.947,14.729
      		c0.06-0.013,10.129-2.024,22.425-4.481c3.47-0.694,6.442-0.713,8.813-0.163c6.061,1.403,8.192,6.526,4.644,13.62
      		c-4.934,9.867,1.12,17.939,13.455,17.939c12.333,0,18.388-8.075,13.456-17.943c-4.935-9.863,1.121-15.92,13.456-13.453
      		c12.333,2.465,22.426,4.484,22.426,4.484v0.002h0.002c-0.002,0,2.018-10.094,4.484-22.426c1.693-8.48-0.639-13.992-5.469-15.006
      		c-2.194-0.46-4.904,0.009-7.986,1.551c-3.085,1.543-5.994,2.011-8.537,1.549c-5.591-1.014-9.408-6.525-9.408-15.006
      		c0-10.795,6.184-16.781,14.338-14.801c1.166,0.283,2.372,0.729,3.606,1.346c1.345,0.672,2.615,1.134,3.806,1.41
      		c6.778,1.568,10.876-3.08,10.103-11.76c-0.09-0.984-0.236-2.02-0.453-3.105c-1.002-5.012-1.93-9.652-2.68-13.396
      		c-1.092-5.463-1.803-9.016-1.807-9.031c-0.016,0.004-10.1,2.021-22.426,4.486c-7.708,1.541-12.964-0.246-14.617-4.213
      		c-0.993-2.379-0.688-5.543,1.163-9.243c1.85-3.701,2.155-7.148,1.164-10.014c-1.655-4.773-6.911-7.926-14.619-7.926
      		c-12.332,0-18.389,8.074-13.457,17.939C265.578,225.656,259.522,231.712,247.186,229.246z"/>
      	<path fill="#DADADA" d="M270.088,198.168v4.988c0,1.535,1.222,2.781,2.724,2.781c1.508,0,2.728-1.246,2.728-2.781v-5.269
      		c-0.47-0.024-0.95-0.038-1.44-0.038C272.674,197.85,271.338,197.962,270.088,198.168z"/>
      	<path fill="#DADADA" d="M296.883,278.368l-5.485,0.205l-3.735-10.427l7.47-16.016l-8.486,0.941l-4.134,0.786l-8.089,11.879h-6.332
      		l-7.061,3.533l-6.967-2.681l-4.433-1.798c0.398,0.752,0.753,1.559,1.041,2.439c0.164,0.501,0.308,1.022,0.433,1.563
      		c0.016,0.068,0.027,0.141,0.042,0.209c0.127,0.578,0.236,1.175,0.317,1.796c0.008,0.06,0.012,0.124,0.02,0.185
      		c0.121,0.988,0.188,2.025,0.188,3.115c0,1.222-0.096,2.367-0.248,3.461c-0.008,0.054-0.012,0.11-0.02,0.163
      		c-1,6.827-4.865,11.025-10.095,11.485l2.865,0.778l9.89-0.623l5.786,4.834h7.602l4.143-3.207l4.091,0.794l1.508,1.809
      		l27.844,16.445l3.094,2.092h4.361l-4.361-5.09l4.625-5.771l0.23-6.48l-5.649-5.539c-0.479-0.022-0.952-0.064-1.409-0.147
      		C301.342,288.272,297.954,284.409,296.883,278.368z"/>
      </g>
      <g>
      	<linearGradient id="XMLID_25_" gradientUnits="userSpaceOnUse" x1="-12.5586" y1="-111.2339" x2="807.4412" y2="708.7659">
      		<stop  offset="0" style="stop-color:#FFFFFF"/>
      		<stop  offset="1" style="stop-color:#EAEAEA"/>
      	</linearGradient>
      	<path fill="url(#XMLID_25_)" stroke="#DCDCDC" d="M325.241,233.791c0.75,3.743,1.678,8.383,2.68,13.393
      		c0.217,1.088,0.363,2.123,0.453,3.109c0.775,8.683-3.322,13.333-10.103,11.76c-1.192-0.275-2.465-0.738-3.811-1.41
      		c-1.232-0.617-2.437-1.063-3.601-1.346c-8.154-1.975-14.334,4.01-14.334,14.803c0,8.477,3.814,13.988,9.404,15.004
      		c2.542,0.461,5.449-0.009,8.532-1.551c3.084-1.542,5.795-2.01,7.991-1.549c4.831,1.012,7.165,6.523,5.469,15.006
      		c-2.467,12.334-4.484,22.426-4.484,22.426c0-0.002,8.867,1.772,20.141,4.025c0.75,0.15,1.514,0.303,2.283,0.457
      		c9.252,1.85,14.971-1.094,15.17-6.844c0.066-1.916-0.48-4.144-1.713-6.609c-1.234-2.467-1.779-4.821-1.713-6.966
      		c0.199-6.435,5.916-10.978,15.168-10.978c9.25,0,14.969,4.543,15.168,10.978c0.068,2.145-0.479,4.499-1.711,6.966
      		c-1.234,2.466-1.781,4.693-1.715,6.609c0.199,5.75,5.918,8.693,15.168,6.844c0.771-0.154,1.533-0.307,2.285-0.457
      		c11.232-2.244,20.074-4.014,20.139-4.026v-0.003l0.002-0.001c-0.023-0.116-2.033-10.158-4.484-22.421
      		c-0.309-1.543-0.484-2.986-0.535-4.322c-0.014-0.334-0.018-0.662-0.016-0.982s0.014-0.634,0.031-0.94
      		c0.07-1.227,0.26-2.342,0.561-3.335c1.648-5.466,6.631-7.268,13.414-3.875c6.475,3.238,12.178,1.742,15.334-3.154
      		c0.451-0.699,0.85-1.468,1.191-2.303c0.91-2.225,1.416-4.916,1.416-7.998c0-12.334-8.074-18.389-17.941-13.457
      		c-8.324,4.165-13.938,0.503-14.006-8.153c-0.012-1.603,0.164-3.378,0.551-5.306c2.313-11.562,4.232-21.153,4.463-22.307
      		c0.016-0.077,0.023-0.117,0.023-0.117s-10.096-2.018-22.428-4.484c-6.938-1.388-11.889-0.078-14.016,3.088
      		c-1.652,2.463-1.598,6.051,0.563,10.367c4.932,9.867-1.125,17.941-13.457,17.941h-0.002l0,0c-11.566,0-17.609-7.096-14.252-16.113
      		c0.225-0.602,0.49-1.211,0.799-1.828s0.572-1.219,0.797-1.805c3.354-8.785-2.691-13.962-14.256-11.65
      		c-7.244,1.449-13.713,2.742-17.82,3.564c-2.883,0.576-4.602,0.92-4.602,0.92S324.147,228.318,325.241,233.791z"/>
      	<path fill="#DADADA" d="M406.478,304.318c0,0.764,0.647,1.384,1.443,1.384h0.51c0.813,0,1.46-0.62,1.46-1.384V269.72
      		c0-0.762-0.647-1.382-1.46-1.382h-29.81c-0.808,0-1.455,0.62-1.455,1.382v27.191c4.533,0.833,7.821,2.979,9.501,5.961h19.811
      		V304.318z M383.401,279.865c0,0.881-0.676,1.599-1.506,1.599c-0.825,0-1.499-0.718-1.499-1.599v-7.594
      		c0-0.881,0.674-1.596,1.499-1.596c0.83,0,1.506,0.715,1.506,1.596V279.865z"/>
      	<path fill="#DADADA" d="M366.565,277.521l-11.677-16.819l-11.67,16.819c-4.734,7.419-6.448,16.901,0,23.347
      		c3.223,3.223,7.449,4.834,11.67,4.834c1.003,0,2.006-0.098,2.997-0.279c1.073-4.561,5.217-7.853,11.573-8.691
      		C372.206,290.755,370.365,283.475,366.565,277.521z M344.095,295.265c-3.03-6.175,1.792-15.037,4.824-18.404
      		c0,0-3.14,8.416,1.008,16.832C352.081,298.06,347.476,302.157,344.095,295.265z"/>
      	<path fill="#DADADA" d="M384.378,248.095c-0.026,0.022-0.055,0.043-0.081,0.064c-0.381,0.32-0.788,0.624-1.224,0.904
      		c-0.117,0.076-0.242,0.146-0.363,0.218c-0.12,0.072-0.236,0.147-0.359,0.216c-0.034,0.019-0.07,0.035-0.104,0.054
      		c-1.45,0.793-3.152,1.386-5.081,1.739v13.344c0,0.765,0.647,1.383,1.455,1.383h29.81c0.813,0,1.46-0.618,1.46-1.383v-17.551
      		c0-0.762-0.647-1.382-1.46-1.382h-21.98C385.901,246.582,385.208,247.385,384.378,248.095z M383.401,261.483
      		c0,0.884-0.676,1.604-1.506,1.604c-0.825,0-1.499-0.721-1.499-1.604v-7.593c0-0.881,0.674-1.597,1.499-1.597
      		c0.83,0,1.506,0.716,1.506,1.597V261.483z"/>
      	<path fill="#DADADA" d="M305.928,289.103c0.457,0.083,0.929,0.125,1.409,0.146l-1.551-1.521l-3.587-11.027l-3.111,1.584
      		l-2.202,0.082C297.957,284.407,301.343,288.27,305.928,289.103z"/>
      </g>
      <g>
      	<linearGradient id="XMLID_26_" gradientUnits="userSpaceOnUse" x1="-209.9116" y1="86.1143" x2="610.0939" y2="906.1198">
      		<stop  offset="0" style="stop-color:#FFFFFF"/>
      		<stop  offset="1" style="stop-color:#EAEAEA"/>
      	</linearGradient>
      	<path fill="url(#XMLID_26_)" stroke="#DCDCDC" d="M49.836,426.591c9.25,1.852,14.969-1.09,15.169-6.84
      		c0.008-0.24,0.007-0.484-0.004-0.734c-0.033-0.748-0.153-1.537-0.365-2.365c-0.283-1.105-0.728-2.279-1.344-3.514
      		c-1.234-2.467-1.781-4.82-1.714-6.965c0.198-6.436,5.917-10.979,15.169-10.979s14.971,4.543,15.169,10.979
      		c0.066,2.145-0.48,4.498-1.714,6.965c-0.617,1.234-1.062,2.408-1.344,3.514c-0.212,0.828-0.332,1.617-0.365,2.365
      		c-0.011,0.25-0.012,0.494-0.004,0.734c0.2,5.75,5.919,8.691,15.17,6.84c10.406-2.082,19.216-3.842,21.716-4.342
      		c0.457-0.09,0.701-0.139,0.707-0.141l0,0c0,0-1.042-5.215-2.543-12.727c-0.13-0.654-0.265-1.324-0.402-2.01
      		c-0.206-1.029-0.418-2.094-0.637-3.186c-0.291-1.457-0.592-2.963-0.9-4.506c-0.386-1.926-0.563-3.701-0.551-5.303
      		c0.067-8.654,5.679-12.316,14.003-8.154c9.867,4.938,17.941-1.117,17.942-13.453c-0.001-12.334-8.076-18.389-17.942-13.455
      		c-8.324,4.162-13.936,0.502-14.003-8.154c-0.013-1.604,0.165-3.377,0.551-5.305c2.461-12.307,4.474-22.381,4.482-22.422
      		c-0.008-0.001-9.493-1.898-21.309-4.264c-0.37-0.074-0.742-0.148-1.116-0.223c-1.927-0.386-3.7-0.563-5.303-0.551
      		c-7.509,0.061-11.251,4.297-9.393,10.854c0.284,1,0.69,2.05,1.241,3.15c0.496,0.993,0.876,1.967,1.154,2.916
      		c2.494,8.495-3.516,15.027-14.612,15.027c-0.771,0-1.517-0.031-2.237-0.093c-6.846-0.585-11.375-3.877-12.601-8.563
      		c-0.71-2.713-0.313-5.895,1.382-9.287c2.159-4.314,2.215-7.901,0.562-10.364c-1.299-1.936-3.654-3.177-6.872-3.534
      		c-2.048-0.227-4.445-0.095-7.143,0.445c-12.304,2.463-22.376,4.477-22.424,4.486c0.004,0.032,2.021,10.109,4.485,22.422
      		c2.466,12.336-3.59,18.393-13.458,13.459C8.571,354.38,0.5,360.433,0.5,372.769c0,12.334,8.071,18.391,17.938,13.455
      		c6.476-3.236,11.31-1.742,13.171,3.154c0.976,2.566,1.135,6.063,0.287,10.303c-2.313,11.564-4.233,21.156-4.464,22.311
      		c-0.016,0.078-0.023,0.117-0.023,0.117s0.247,0.049,0.709,0.141C30.618,422.75,39.43,424.509,49.836,426.591z"/>
      	<path fill="#DADADA" d="M76.745,350.345c-0.771,0-1.517-0.031-2.237-0.093c-5.852-0.5-10.002-2.981-11.853-6.617
      		c-16.54,8.65-25.804,30.164-10.511,48.093c2.545,2.988,7.409,5.596,13.098,6.978c2.623-2.199,6.551-3.511,11.506-3.511
      		c3.718,0,6.853,0.743,9.301,2.039c2.842-1.324,5.45-3.214,7.627-5.788c7.114-1.875,13.892-7.979,15.775-14.955
      		c3.269-12.043-2.459-24.072-12.992-31.043c-1.702-1.128-3.429-2.065-5.167-2.843C89.567,347.273,84.353,350.345,76.745,350.345z
      		 M96.114,388.109c10.476-21.807-8.917-35.849-8.917-35.849S114.352,367.91,96.114,388.109z"/>
      </g>
      <g>
      	<linearGradient id="XMLID_27_" gradientUnits="userSpaceOnUse" x1="-111.2339" y1="-12.5591" x2="708.7665" y2="807.4414">
      		<stop  offset="0" style="stop-color:#FFFFFF"/>
      		<stop  offset="1" style="stop-color:#EAEAEA"/>
      	</linearGradient>
      	<path fill="url(#XMLID_27_)" stroke="#DCDCDC" d="M301.008,426.591c12.321-2.465,22.407-4.479,22.426-4.482l0,0h0.002
      		c-0.002-0.004-2.023-10.096-4.487-22.428c-0.277-1.383-0.44-2.684-0.509-3.902c-0.545-9.646,5.205-13.934,13.963-9.555
      		c9.867,4.938,17.941-1.117,17.943-13.453c-0.002-12.333-8.074-18.389-17.939-13.455c-8.327,4.164-13.939,0.504-14.007-8.152
      		c-0.013-1.604,0.164-3.378,0.55-5.307c2.459-12.309,4.477-22.385,4.485-22.422c-0.028-0.006-10.107-2.021-22.426-4.484
      		c-12.333-2.469-18.388,3.588-13.454,13.455c4.935,9.867-1.121,17.939-13.455,17.939c-0.001,0-0.001,0-0.002,0s-0.001,0-0.002,0
      		c-12.332,0-18.388-8.074-13.454-17.943c3.546-7.089,1.416-12.211-4.642-13.616c-2.371-0.55-5.343-0.529-8.813,0.165
      		c-12.334,2.467-22.425,4.484-22.425,4.484l0,0c0.015,0.086,1.34,6.719,3.153,15.773c0.421,2.104,0.868,4.336,1.331,6.648
      		c2.464,12.334-3.591,18.391-13.457,13.455c-9.87-4.932-17.94,1.121-17.94,13.457c0,12.334,8.07,18.391,17.94,13.455
      		c9.866-4.932,15.921,1.123,13.457,13.457c-0.463,2.313-0.91,4.547-1.331,6.65c-1.825,9.113-3.157,15.777-3.154,15.777
      		c0,0,10.092,2.016,22.425,4.482c12.335,2.471,18.39-3.586,13.457-13.453c-4.935-9.869,1.121-17.943,13.457-17.943
      		c8.001,0,13.355,3.4,14.786,8.48c0.776,2.752,0.405,5.996-1.328,9.463c-2.401,4.799-2.196,8.691,0.061,11.146
      		C290.001,426.875,294.673,427.859,301.008,426.591z"/>
      	<path fill="#DADADA" d="M293.814,367.729l11.484-11.455l-12.332-12.36l-11.46,11.454c-1.549,1.525-3.485,2.605-5.596,3.078
      		l-25.019,5.707c-1.348,0.297-2.527,0.996-3.49,1.936c-0.849,0.848-1.494,1.903-1.82,3.103c-0.729,2.522-0.026,5.245,1.818,7.095
      		l19.851,19.909c1.983-0.645,4.276-1,6.848-1c4.578,0,8.285,1.117,10.891,3.021l5.741-24.919
      		C291.207,371.188,292.29,369.255,293.814,367.729z M285.875,375.581l-0.647,2.837h-29.77l-2.813-2.837l-2.281-2.258
      		c-0.764-0.787-1.058-1.906-0.737-2.961c0.146-0.498,0.386-0.937,0.76-1.288c0.384-0.407,0.908-0.697,1.442-0.817l25.017-5.686
      		c2.899-0.671,5.537-2.134,7.622-4.215l8.496-8.492l6.381,6.408l-8.494,8.469l-0.004,0.002l-0.021,0.002
      		c-2.083,2.104-3.545,4.74-4.195,7.613L285.875,375.581z"/>
      </g>
      <g>
      	<linearGradient id="XMLID_28_" gradientUnits="userSpaceOnUse" x1="-259.2446" y1="135.4531" x2="560.7549" y2="955.4528">
      		<stop  offset="0" style="stop-color:#FFFFFF"/>
      		<stop  offset="1" style="stop-color:#EAEAEA"/>
      	</linearGradient>
      	<path fill="url(#XMLID_28_)" stroke="#DCDCDC" d="M49.836,516.294c8.479-1.693,13.991,0.639,15.004,5.469
      		c0.462,2.195-0.007,4.906-1.549,7.988c-1.85,3.699-2.155,7.148-1.163,10.014c1.654,4.773,6.91,7.928,14.617,7.928
      		c12.334,0,18.39-8.074,13.458-17.941c-0.154-0.309-0.298-0.613-0.431-0.914c-4.12-9.324,1.936-14.93,13.886-12.543
      		c10.343,2.072,19.104,3.822,21.665,4.334c0.111,0.023,0.215,0.043,0.302,0.061c0.3,0.061,0.458,0.092,0.458,0.092
      		s1.895-9.467,4.257-21.271c0.076-0.381,0.153-0.764,0.23-1.15c2.466-12.336-3.59-18.393-13.457-13.455
      		c-9.868,4.93-17.94-1.125-17.94-13.457c0-12.336,8.072-18.391,17.94-13.459c9.867,4.936,15.923-1.119,13.457-13.453
      		c-0.077-0.385-0.154-0.768-0.23-1.148c-2.361-11.799-4.256-21.27-4.257-21.277c-0.006,0.002-0.25,0.051-0.707,0.141
      		c-2.5,0.5-11.31,2.262-21.716,4.346c-9.251,1.85-14.97-1.094-15.17-6.844c-0.008-0.24-0.007-0.484,0.004-0.734
      		c0.033-0.748,0.153-1.537,0.365-2.365c0.283-1.105,0.728-2.279,1.344-3.514c1.233-2.467,1.78-4.82,1.714-6.965
      		c-0.199-6.434-5.918-10.977-15.169-10.977s-14.97,4.543-15.169,10.977c-0.066,2.145,0.481,4.498,1.714,6.965
      		c0.616,1.234,1.061,2.408,1.344,3.514c0.211,0.828,0.332,1.617,0.365,2.365c0.011,0.25,0.012,0.494,0.004,0.734
      		c-0.201,5.75-5.919,8.693-15.169,6.844c-10.406-2.084-19.218-3.846-21.717-4.346c-0.463-0.092-0.709-0.141-0.709-0.141
      		s-2.017,10.094-4.482,22.426c-2.468,12.334,3.588,18.389,13.452,13.457c1.85-0.926,3.637-1.465,5.32-1.648
      		c7.292-0.797,12.623,5.08,12.623,15.104v0.002v0.002c0,10.02-5.331,15.896-12.623,15.102c-0.28-0.031-0.564-0.072-0.85-0.123
      		c-0.572-0.1-1.155-0.242-1.748-0.424c-0.888-0.273-1.798-0.639-2.723-1.102c-8.323-4.162-13.934-0.5-14.002,8.152
      		c-0.013,1.602,0.165,3.377,0.55,5.303c0.077,0.387,0.154,0.77,0.23,1.15c2.359,11.801,4.251,21.264,4.254,21.271
      		C27.451,520.773,37.524,518.759,49.836,516.294z"/>
      	<path fill="#DADADA" d="M65.244,398.706c6.602,1.603,14.313,1.551,20.802-1.471c-2.448-1.295-5.582-2.038-9.298-2.038
      		C71.795,395.197,67.867,396.508,65.244,398.706z"/>
      	<polygon fill="#DADADA" points="85.997,445.575 79.777,453.387 80.346,463.586 73.55,477.364 70.625,477.364 68.642,479.854
      		54.304,489.551 59.867,496.512 72.416,501.59 78.22,492.87 79.6,480.417 86.857,468.565 91.94,460.555 90.053,456.215
      		93.513,455.167 103.538,447.073 104.304,444.553 101.993,441.589 	"/>
      </g>
      </svg>
