<?xml version="1.0" encoding="utf-8"?>
<!-- Generator: Adobe Illustrator 12.0.0, SVG Export Plug-In . SVG Version: 6.00 Build 51448)  -->
<!DOCTYPE svg PUBLIC "-//W3C//DTD SVG 1.1//EN" "http://www.w3.org/Graphics/SVG/1.1/DTD/svg11.dtd" [
	<!ENTITY ns_svg "http://www.w3.org/2000/svg">
	<!ENTITY ns_xlink "http://www.w3.org/1999/xlink">
]>
<svg  version="1.1" id="レイヤー_1" xmlns="&ns_svg;" xmlns:xlink="&ns_xlink;" width="38" height="30" viewBox="0 0 38 30"
	 overflow="visible" enable-background="new 0 0 38 30" xml:space="preserve">
<path fill="#3F3F3F" d="M30.071,11.813c0-3.261,2.662-5.907,5.946-5.907c-3.284,0-5.946-2.646-5.946-5.905
	c0,3.26-2.665,5.905-5.948,5.905C27.406,5.905,30.071,8.552,30.071,11.813z M32.052,12.412c0,3.266-2.663,5.908-5.945,5.908
	c3.282,0,5.945,2.644,5.945,5.904c0-3.261,2.663-5.904,5.948-5.904C34.715,18.32,32.052,15.678,32.052,12.412z M12.896,12.169
	c1.115,0,2.018-0.856,2.018-1.913s-0.902-1.913-2.018-1.913c-1.113,0-2.018,0.856-2.018,1.913S11.782,12.169,12.896,12.169z
	 M4.034,12.716c0-1.057-0.904-1.913-2.018-1.913C0.902,10.803,0,11.659,0,12.716c0,1.055,0.902,1.91,2.017,1.91
	C3.13,14.626,4.034,13.771,4.034,12.716z M23.756,10.803c-1.112,0-2.017,0.856-2.017,1.913c0,1.055,0.904,1.91,2.017,1.91
	c1.113,0,2.017-0.855,2.017-1.91C25.772,11.659,24.869,10.803,23.756,10.803z M12.949,13.038l-4.912,6.148l-5.51-3.693L4.502,30
	h16.892l0.521-3.838l0.072-0.549l1.382-10.12l-5.512,3.693L12.949,13.038z M19.258,27.699H6.637l-0.21-1.537h13.037L19.258,27.699z
	 M20.253,20.4l-0.58,4.229H6.22L5.639,20.4l0.996,0.668l1.921,1.285l1.416-1.777l2.978-3.728l2.973,3.728l1.422,1.777l1.917-1.285
	L20.253,20.4z"/>
</svg>
