<?xml version="1.0" encoding="utf-8"?>
<!-- Generator: Adobe Illustrator 12.0.0, SVG Export Plug-In . SVG Version: 6.00 Build 51448)  -->
<!DOCTYPE svg PUBLIC "-//W3C//DTD SVG 1.1//EN" "http://www.w3.org/Graphics/SVG/1.1/DTD/svg11.dtd" [
	<!ENTITY ns_svg "http://www.w3.org/2000/svg">
	<!ENTITY ns_xlink "http://www.w3.org/1999/xlink">
]>
<svg  version="1.1" id="recommend" xmlns="&ns_svg;" xmlns:xlink="&ns_xlink;" width="38" height="30" viewBox="0 0 38 30"
	 overflow="visible" enable-background="new 0 0 38 30" xml:space="preserve">
<path fill="#b2b2b2" d="M24.563,13.835c-0.346-0.288-0.745-0.434-1.158-0.571c-1.288-0.405-3.164-0.658-4.027-0.702
	c-0.854-0.038-2.15-0.4-2.854-0.644c-0.004-0.047-0.008-0.096-0.008-0.096c0-0.004,0.096-0.765,0.096-0.765l2.036-4.158
	c0.301-0.7,0.455-1.487,0.455-2.296l-0.042-0.749C18.93,2.64,18.491,1.659,17.79,1.02c-0.769-0.708-1.611-0.813-2.044-0.813
	l-0.817,0.139c0.005-0.001-0.641,0.493-0.641,0.493c-0.003,0.004-0.374,0.985-0.374,0.985l-0.988,3.479
	c-1.117,2.156-2.115,3.839-2.638,4.416c-0.001,0.001-0.752,1.054-0.752,1.054l-1.853,3.084l-0.487,0.828
	c0.057-0.068-0.173,0.048-0.173,0.048c-0.324,0.12-0.849,0.221-1.447,0.277c-0.002,0-1.422,0.067-1.422,0.067H3.224v12.834
	l1.009-0.088c0.034-0.002,0.643-0.021,0.643-0.021C5.447,27.8,7.4,27.851,8.643,28.632c1.863,1.146,4.334,1.279,5.309,1.284
	L18.496,30c0.012,0,0.934-0.022,0.934-0.022c0.891-0.05,1.725-0.415,2.398-0.973c0.672-0.557,1.359-1.302,1.109-2.419
	c0.086-0.043,0.922-0.539,1.268-0.976c0.285-0.362,0.6-0.864,0.6-1.604c0-0.075-0.004-0.153-0.011-0.233
	c-0.042-0.506-0.149-0.732-0.276-0.929c0.234-0.195,0.458-0.416,0.623-0.729c0.275-0.519,0.424-1.134,0.424-1.777
	c-0.001-0.523-0.097-1.03-0.276-1.466c-0.001-0.002-0.116-0.198-0.222-0.378c0.369-0.653,0.594-1.344,0.594-2.028
	c0-0.002,0-0.01,0-0.01c0-0.547-0.123-1.1-0.354-1.595C25.109,14.44,24.852,14.086,24.563,13.835z M23.248,18.641
	c0,0,1.521,1.914-0.686,3.849c1.313,1.986-0.313,2.669-1.438,3.228c0.438,1.356-0.51,1.856-0.51,1.856
	c-0.344,0.304-0.81,0.49-1.283,0.517l-0.827,0.02l-4.542-0.086c-0.951,0.007-3.064-0.195-4.347-1.002
	c-1.134-0.698-2.671-1.051-4.534-1.087v-9.011c0.511-0.042,1.309-0.109,1.309-0.109c0.001,0,1.257-0.301,1.257-0.301
	c0.413-0.159,0.829-0.366,1.121-0.82c0.006-0.009,1.446-2.457,1.446-2.457c0-0.001,0.877-1.429,0.877-1.429
	c0.001,0,0.559-0.804,0.559-0.804c0.37-0.411,0.768-1.074,1.229-1.843l0.806-1.308l0.608-1.159l0.269-0.563l1.159-3.843
	C15.728,2.25,15.744,2.172,15.76,2.1c0.145,0.002,0.476,0.037,0.786,0.324c0.358,0.333,0.584,0.886,0.669,1.642
	c0,0.001,0.029,0.537,0.029,0.537c0,0.784-0.193,1.338-0.355,1.663l-1.975,3.977c-0.031,0.075-0.257,1.576-0.257,1.576
	c0,0.005,0.134,0.891,0.134,0.891c0.144,0.425,0.449,0.753,0.836,0.896c0.705,0.264,2.381,0.778,3.659,0.845
	c0.002,0,2.353,0.32,2.353,0.32l1.205,0.297c0.006,0.002,0.525,0.216,0.525,0.216c-0.006-0.004,0.258,0.387,0.258,0.387
	C24.313,16.965,23,18.393,23,18.393L23.248,18.641z M0,27.747h2.016V15.551H0V27.747z M24.182,11.918l3.738-2.036l3.736,2.036
	l-0.713-4.314l3.024-3.05l-4.18-0.632L27.92,0l-1.869,3.922l-4.179,0.632l3.023,3.05L24.182,11.918z M38,15.903l-3.484-0.528
	l-1.555-3.268l-1.558,3.268l-3.483,0.528l2.521,2.542l-0.596,3.594l3.115-1.696l3.114,1.696l-0.595-3.594L38,15.903z"/>
</svg>
