<?xml version="1.0" encoding="utf-8"?>
<!-- Generator: Adobe Illustrator 12.0.0, SVG Export Plug-In . SVG Version: 6.00 Build 51448)  -->
<!DOCTYPE svg PUBLIC "-//W3C//DTD SVG 1.1//EN" "http://www.w3.org/Graphics/SVG/1.1/DTD/svg11.dtd" [
	<!ENTITY ns_svg "http://www.w3.org/2000/svg">
	<!ENTITY ns_xlink "http://www.w3.org/1999/xlink">
]>
<svg  version="1.1" id="camera30" xmlns="&ns_svg;" xmlns:xlink="&ns_xlink;" width="38" height="30" viewBox="0 0 38 30"
	 overflow="visible" enable-background="new 0 0 38 30" xml:space="preserve">
<path fill="#B2B2B2" d="M7.305,6.525L7.056,4.783L2.351,5.447l0.25,1.742L7.305,6.525z M18.847,7.391
	c-4.752,0.671-8.049,5.043-7.378,9.75c0.672,4.715,5.065,7.999,9.816,7.329c4.726-0.668,8.044-5.034,7.37-9.752
	C27.986,10.011,23.573,6.725,18.847,7.391z M21.042,22.759c-3.79,0.532-7.322-2.092-7.858-5.859
	c-0.539-3.778,2.117-7.263,5.908-7.801c3.791-0.533,7.301,2.086,7.839,5.862C27.468,18.729,24.83,22.226,21.042,22.759z
	 M37.982,23.533l-2.663-18.66c-0.135-0.943-1.024-1.619-1.984-1.483l-6.003,0.846c0,0-2.316-4.37-3.267-4.233l-12.58,1.772
	c-0.948,0.132-1.946,4.971-1.946,4.971L1.513,7.878C0.546,8.015-0.116,8.906,0.017,9.851L2.681,28.51
	c0.137,0.959,1.02,1.607,1.984,1.473l31.823-4.484C37.449,25.359,38.119,24.491,37.982,23.533z M8.375,15.458
	c-0.742,0.104-1.436-0.413-1.542-1.162c-0.105-0.725,0.419-1.418,1.16-1.521c0.743-0.107,1.438,0.417,1.54,1.142
	C9.641,14.665,9.119,15.352,8.375,15.458z M21.408,25.341c-5.229,0.734-10.078-2.883-10.819-8.073
	c-0.738-5.185,2.907-9.999,8.136-10.737c5.212-0.733,10.048,2.882,10.788,8.067C30.253,19.788,26.621,24.602,21.408,25.341z
	 M24.556,13.121c-0.254,0.681-0.853,1.201-1.614,1.311c-1.13,0.161-2.153-0.607-2.313-1.73c-0.105-0.742,0.217-1.443,0.788-1.875
	c-0.667-0.176-1.372-0.219-2.094-0.119c-2.914,0.412-4.938,3.081-4.526,5.964c0.412,2.887,3.104,4.899,6.018,4.49
	c2.895-0.41,4.904-3.088,4.492-5.972C25.197,14.431,24.934,13.732,24.556,13.121z"/>
</svg>
