<?xml version="1.0" encoding="utf-8"?>
<!-- Generator: Adobe Illustrator 12.0.0, SVG Export Plug-In . SVG Version: 6.00 Build 51448)  -->
<!DOCTYPE svg PUBLIC "-//W3C//DTD SVG 1.1//EN" "http://www.w3.org/Graphics/SVG/1.1/DTD/svg11.dtd" [
	<!ENTITY ns_svg "http://www.w3.org/2000/svg">
	<!ENTITY ns_xlink "http://www.w3.org/1999/xlink">
]>
<svg  version="1.1" id="restaurant30" xmlns="&ns_svg;" xmlns:xlink="&ns_xlink;" width="36" height="30" viewBox="0 0 36 30"
	 overflow="visible" enable-background="new 0 0 36 30" xml:space="preserve">
<path fill="#b2b2b2" d="M35.904,19.302l-1.96-8.6c-0.464-2.038-2.485-3.31-4.516-2.845l-5.84,1.337l-0.004-0.002l-6.147-6.276
	c-0.088,0.557-0.321,1.08-0.666,1.509l5.063,5.169l0.002,0.002l-11.307,2.591v-0.003l2.317-6.859
	c-0.496-0.238-0.934-0.604-1.254-1.067l-2.821,8.329v0.004l-5.839,1.338c-2.031,0.468-3.3,2.495-2.837,4.53l1.959,8.599
	c0.466,2.04,2.487,3.313,4.518,2.848l26.496-6.074C35.1,23.364,36.368,21.345,35.904,19.302z M33.691,21.067
	c-0.236,0.379-0.61,0.659-1.079,0.771L6.118,27.906c-0.47,0.107-0.926,0.016-1.306-0.221c-0.375-0.243-0.656-0.613-0.765-1.083
	l-1.961-8.6c-0.106-0.467-0.015-0.931,0.223-1.311c0.239-0.377,0.61-0.658,1.078-0.77l26.496-6.069
	c0.47-0.108,0.928-0.015,1.307,0.222c0.373,0.238,0.656,0.613,0.762,1.08l1.96,8.603C34.02,20.231,33.928,20.688,33.691,21.067z
	 M14.781,4.753c1.295-0.298,2.102-1.586,1.805-2.883c-0.292-1.298-1.581-2.104-2.873-1.81c-1.29,0.298-2.099,1.585-1.804,2.883
	C12.204,4.238,13.49,5.05,14.781,4.753z M12.884,19.579c-0.072-0.226-0.148-0.385-0.246-0.545l0.002-0.001
	c-0.389-0.652-1.007-0.99-1.723-0.986c-0.194,0-0.396,0.021-0.601,0.073c-0.479,0.107-0.882,0.319-1.174,0.633
	c-0.294,0.31-0.474,0.718-0.514,1.201v-0.002c-0.008,0.079-0.014,0.158-0.014,0.243c0,0.3,0.059,0.64,0.209,1.296
	c0.095,0.423,0.167,0.708,0.242,0.934c0.074,0.223,0.153,0.386,0.247,0.542l-0.001-0.001c0.388,0.657,1.009,0.991,1.722,0.987
	c0.191,0,0.392-0.021,0.594-0.068c0.484-0.11,0.887-0.322,1.182-0.638c0.294-0.311,0.474-0.719,0.516-1.199
	c0.008-0.079,0.012-0.157,0.012-0.241c0-0.302-0.057-0.638-0.208-1.3C13.034,20.085,12.96,19.8,12.884,19.579z M12.109,21.983
	c-0.022,0.209-0.091,0.383-0.204,0.518c-0.113,0.133-0.28,0.232-0.524,0.287c-0.097,0.022-0.184,0.034-0.262,0.034
	c-0.166,0-0.302-0.041-0.42-0.114c-0.122-0.074-0.228-0.186-0.317-0.332c-0.092-0.157-0.185-0.411-0.354-1.157
	c-0.146-0.636-0.188-0.928-0.188-1.104c0-0.037,0.002-0.068,0.006-0.099c0.022-0.212,0.09-0.381,0.201-0.515
	c0.114-0.13,0.279-0.233,0.52-0.287c0.097-0.021,0.187-0.034,0.27-0.034c0.165,0.002,0.303,0.044,0.422,0.115
	c0.119,0.076,0.225,0.181,0.314,0.324c0.092,0.161,0.182,0.405,0.355,1.165c0.145,0.631,0.188,0.922,0.186,1.107
	C12.113,21.926,12.113,21.955,12.109,21.983z M17.105,17.347c-0.31-0.246-0.701-0.373-1.133-0.373c-0.17,0-0.344,0.018-0.524,0.06
	l-1.992,0.456c-0.044,0.012-0.087,0.035-0.121,0.071c-0.032,0.038-0.048,0.089-0.048,0.136l0.008,0.052l0.001,0.006l1.176,5.169
	c0.011,0.043,0.034,0.088,0.073,0.121c0.038,0.027,0.087,0.048,0.135,0.047l0.052-0.007l0.764-0.176
	c0.045-0.011,0.09-0.035,0.123-0.074c0.031-0.035,0.048-0.083,0.046-0.133l-0.007-0.054l-0.409-1.802l1.017-0.235
	c0.464-0.104,0.847-0.325,1.112-0.636c0.267-0.306,0.416-0.699,0.415-1.13c0-0.146-0.019-0.302-0.052-0.459
	C17.638,17.946,17.416,17.593,17.105,17.347z M16.421,19.267c-0.1,0.115-0.255,0.206-0.463,0.256l-0.963,0.221l-0.314-1.381
	l0.962-0.222c0.082-0.018,0.161-0.027,0.234-0.027c0.18,0,0.325,0.054,0.438,0.145c0.111,0.091,0.195,0.225,0.234,0.402
	c0.019,0.067,0.022,0.13,0.022,0.189C16.573,19.017,16.521,19.154,16.421,19.267z M22.744,20.314
	c-0.01-0.043-0.037-0.085-0.074-0.118c-0.037-0.031-0.088-0.05-0.135-0.05l-0.049,0.007l-2.355,0.54l-0.268-1.177l1.969-0.453
	c0.045-0.01,0.09-0.035,0.121-0.069c0.033-0.039,0.049-0.088,0.049-0.139l-0.006-0.05l-0.152-0.674
	c-0.012-0.044-0.035-0.09-0.072-0.122c-0.039-0.032-0.088-0.047-0.135-0.047l-0.055,0.006l-1.969,0.452l-0.256-1.13l2.354-0.541
	c0.043-0.009,0.088-0.034,0.119-0.07c0.029-0.038,0.047-0.088,0.047-0.136l-0.004-0.052l-0.156-0.676
	c-0.008-0.041-0.033-0.09-0.072-0.121c-0.037-0.03-0.086-0.047-0.135-0.047l-0.049,0.008l-3.329,0.763
	c-0.044,0.008-0.088,0.029-0.122,0.069c-0.032,0.04-0.049,0.09-0.049,0.135l0.008,0.056l1.178,5.17
	c0.01,0.047,0.033,0.09,0.07,0.122c0.041,0.032,0.088,0.046,0.137,0.046l0.053-0.002l3.328-0.765
	c0.044-0.012,0.089-0.034,0.119-0.073c0.032-0.039,0.05-0.087,0.049-0.133l-0.007-0.05L22.744,20.314z M17.968,16.679L17.968,16.679
	l-0.001-0.004L17.968,16.679z M27.83,19.86v0.004l0.001,0.003L27.83,19.86z M26.652,14.692l-0.002-0.005
	c-0.01-0.044-0.032-0.086-0.072-0.119c-0.037-0.032-0.087-0.052-0.133-0.052l-0.055,0.008l-0.676,0.155
	c-0.045,0.01-0.09,0.036-0.122,0.069c-0.033,0.041-0.049,0.092-0.049,0.142l0.006,0.049l0.739,3.244l-2.706-2.866h-0.001
	c-0.047-0.052-0.125-0.098-0.204-0.096c-0.025,0-0.049,0.004-0.073,0.012l-0.719,0.162c-0.043,0.012-0.088,0.035-0.119,0.074
	c-0.033,0.039-0.049,0.088-0.049,0.133l0.006,0.057v-0.004l1.182,5.183l-0.003-0.009c0.009,0.048,0.034,0.09,0.073,0.122
	c0.038,0.033,0.084,0.046,0.135,0.046l0.051-0.002l0.68-0.157c0.043-0.012,0.087-0.033,0.12-0.073
	c0.033-0.039,0.047-0.091,0.047-0.134l-0.004-0.053l-0.74-3.239l2.714,2.858l0.001-0.001c0.021,0.026,0.051,0.053,0.087,0.066
	c0.035,0.022,0.077,0.028,0.117,0.028c0.027,0,0.05,0,0.073-0.006l0.711-0.165c0.045-0.009,0.09-0.036,0.121-0.071
	c0.031-0.039,0.046-0.086,0.046-0.137l-0.004-0.047L26.652,14.692z"/>
</svg>
