<?xml version="1.0" encoding="utf-8"?>
<!-- Generator: Adobe Illustrator 12.0.0, SVG Export Plug-In  -->
<!DOCTYPE svg PUBLIC "-//W3C//DTD SVG 1.1//EN" "http://www.w3.org/Graphics/SVG/1.1/DTD/svg11.dtd" [
	<!ENTITY ns_flows "http://ns.adobe.com/Flows/1.0/">
	<!ENTITY ns_svg "http://www.w3.org/2000/svg">
	<!ENTITY ns_xlink "http://www.w3.org/1999/xlink">
]>
<svg  version="1.1" xmlns="&ns_svg;" xmlns:xlink="&ns_xlink;" xmlns:a="http://ns.adobe.com/AdobeSVGViewerExtensions/3.0/"
	 width="29" height="23" viewBox="-0.848 -0.259 29 23" enable-background="new -0.848 -0.259 29 23" xml:space="preserve">
<defs>
</defs>
<path fill="#B1B1B2" d="M25.227,8.813h-0.533V4.086C24.694,1.838,22.842,0,20.578,0H4.115C1.852,0,0,1.838,0,4.086v8.171
	c0,2.247,1.852,4.085,4.115,4.085h0.558l0.472,2.414c0.086,0.441,0.436,0.561,0.778,0.266l3.107-2.68h2.59v0.709
	c0,1.297,1.068,2.361,2.372,2.361h4.182c0.027,0.065,0.074,0.132,0.161,0.188l3.63,2.408c0.271,0.181,0.526,0.064,0.568-0.258
	l0.302-2.337h2.39c1.306,0,2.372-1.064,2.372-2.361v-5.878C27.599,9.875,26.532,8.813,25.227,8.813z M16.121,15.111
	c-0.494,0-0.9-0.409-0.9-0.917c0-0.503,0.406-0.913,0.9-0.913c0.494,0,0.899,0.409,0.899,0.913
	C17.02,14.702,16.615,15.111,16.121,15.111z M19.869,15.111c-0.497,0-0.897-0.409-0.897-0.917c0-0.503,0.4-0.913,0.897-0.913
	c0.499,0,0.901,0.409,0.901,0.913C20.77,14.702,20.368,15.111,19.869,15.111z M22.019,8.813h-8.026
	c-1.304,0-2.372,1.062-2.372,2.361v2.514H9.017l-1.989,1.729c-0.248,0.216-0.503,0.13-0.567-0.19l-0.308-1.539H4.732
	c-1.131,0-2.057-0.918-2.057-2.043V4.698c0-1.124,0.926-2.042,2.057-2.042h15.229c1.131,0,2.057,0.919,2.057,2.042V8.813z
	 M23.62,15.111c-0.497,0-0.902-0.409-0.902-0.917c0-0.503,0.405-0.913,0.902-0.913c0.493,0,0.9,0.409,0.9,0.913
	C24.52,14.702,24.113,15.111,23.62,15.111z"/>
</svg>
