<?xml version="1.0" encoding="utf-8"?>
<!-- Generator: Adobe Illustrator 12.0.0, SVG Export Plug-In . SVG Version: 6.00 Build 51448)  -->
<!DOCTYPE svg PUBLIC "-//W3C//DTD SVG 1.1//EN" "http://www.w3.org/Graphics/SVG/1.1/DTD/svg11.dtd" [
	<!ENTITY ns_svg "http://www.w3.org/2000/svg">
	<!ENTITY ns_xlink "http://www.w3.org/1999/xlink">
]>
<svg  version="1.1" id="レイヤー_1" xmlns="&ns_svg;" xmlns:xlink="&ns_xlink;" width="34" height="30" viewBox="0 0 34 30"
	 overflow="visible" enable-background="new 0 0 34 30" xml:space="preserve">
<path fill="#3F3F3F" d="M17,10.75c2.275-0.006,4.122-1.793,4.122-3.998c0-2.217-1.847-4.008-4.122-4.009
	c-2.275,0.001-4.115,1.792-4.115,4.009C12.885,8.957,14.725,10.744,17,10.75z M22.542,12.127h-11.08
	c-0.406,0-0.795,0.133-1.077,0.357c-0.276,0.227-0.413,0.532-0.385,0.845l0.978,8.564c0.057,0.584,0.693,1.032,1.463,1.032h1.518
	c-0.023,0.085-0.04,0.168-0.04,0.254v5.704c0,0.289,0.157,0.583,0.429,0.791S14.997,30,15.383,30h3.236
	c0.385,0,0.764-0.117,1.035-0.325s0.429-0.502,0.429-0.791V23.18c0-0.086-0.015-0.169-0.04-0.254h1.518
	c0.773,0,1.406-0.448,1.463-1.032l0.979-8.564c0.029-0.313-0.109-0.618-0.387-0.845C23.336,12.26,22.95,12.127,22.542,12.127z
	 M33.625,8.682c-0.263-0.221-0.627-0.348-1.015-0.348h-9.284c-0.311,0.87-0.895,1.661-1.674,2.294h0.992
	c0.867,0,1.697,0.286,2.293,0.792c0.541,0.459,0.834,1.069,0.834,1.692l-0.006,0.177l-0.002,0.024l-1.043,9.521h-0.002
	c-0.029,0.279-0.127,0.552-0.265,0.795v1.216c0,0.284,0.147,0.569,0.405,0.777c0.258,0.202,0.618,0.319,0.98,0.319h3.063
	c0.362,0,0.725-0.117,0.98-0.319c0.256-0.208,0.406-0.493,0.406-0.777v-5.627c0-0.086-0.016-0.165-0.037-0.249h1.437
	c0.726,0,1.327-0.439,1.384-1.016l0.924-8.441C34.028,9.205,33.891,8.911,33.625,8.682z M9.28,22.833v-0.018
	c-0.002-0.001-0.002-0.001-0.002-0.001l-1.043-9.501v-0.02L8.23,13.112c0-0.623,0.294-1.233,0.833-1.692
	c0.59-0.506,1.428-0.791,2.293-0.791h0.992c-0.779-0.634-1.355-1.426-1.675-2.295H1.391c-0.39,0-0.752,0.126-1.018,0.349
	c-0.266,0.228-0.4,0.522-0.369,0.829l0.925,8.441c0.054,0.576,0.656,1.016,1.384,1.016H3.75c-0.022,0.084-0.036,0.163-0.036,0.249
	v5.627c0,0.284,0.146,0.569,0.405,0.777c0.255,0.202,0.617,0.319,0.978,0.319h3.064c0.363,0,0.724-0.117,0.98-0.319
	c0.259-0.208,0.406-0.493,0.406-0.777v-1.216c-0.139-0.243-0.236-0.521-0.266-0.796H9.28z M6.387,7.205
	c2.05-0.004,3.708-1.616,3.708-3.604c0-1.989-1.658-3.601-3.708-3.602c-2.05,0.001-3.706,1.612-3.706,3.602
	C2.681,5.589,4.337,7.201,6.387,7.205z M27.994,7.205c2.049-0.007,3.71-1.616,3.71-3.604c0-1.989-1.661-3.601-3.71-3.602
	c-2.046,0.001-3.704,1.612-3.704,3.602C24.29,5.589,25.946,7.198,27.994,7.205z"/>
</svg>
