<?xml version="1.0" encoding="utf-8"?>
<!-- Generator: Adobe Illustrator 12.0.0, SVG Export Plug-In  -->
<!DOCTYPE svg PUBLIC "-//W3C//DTD SVG 1.1//EN" "http://www.w3.org/Graphics/SVG/1.1/DTD/svg11.dtd" [
	<!ENTITY ns_flows "http://ns.adobe.com/Flows/1.0/">
	<!ENTITY ns_svg "http://www.w3.org/2000/svg">
	<!ENTITY ns_xlink "http://www.w3.org/1999/xlink">
]>
<svg  version="1.1" xmlns="&ns_svg;" xmlns:xlink="&ns_xlink;" xmlns:a="http://ns.adobe.com/AdobeSVGViewerExtensions/3.0/"
	 width="24" height="19" viewBox="-0.784 -0.028 24 19" enable-background="new -0.784 -0.028 24 19" xml:space="preserve">
<defs>
</defs>
<path fill="#3E3E3F" d="M21.036,7.254h-0.445V3.362c0-1.85-1.544-3.362-3.432-3.362H3.432C1.544,0,0,1.513,0,3.362v6.727
	c0,1.85,1.544,3.364,3.432,3.364h0.464L4.29,15.44c0.073,0.363,0.365,0.462,0.65,0.219l2.59-2.206h2.16v0.582
	c0,1.069,0.891,1.945,1.979,1.945h3.487c0.023,0.054,0.062,0.108,0.134,0.154l3.027,1.983c0.228,0.148,0.44,0.052,0.474-0.213
	l0.252-1.924h1.993c1.089,0,1.978-0.876,1.978-1.945V9.197C23.014,8.128,22.125,7.254,21.036,7.254z M13.443,12.438
	c-0.412,0-0.751-0.336-0.751-0.754c0-0.414,0.339-0.75,0.751-0.75c0.411,0,0.749,0.336,0.749,0.75
	C14.192,12.102,13.854,12.438,13.443,12.438z M16.568,12.438c-0.415,0-0.749-0.336-0.749-0.754c0-0.414,0.334-0.75,0.749-0.75
	s0.751,0.336,0.751,0.75C17.319,12.102,16.983,12.438,16.568,12.438z M18.361,7.254h-6.692c-1.088,0-1.979,0.874-1.979,1.943v2.07
	H7.518L5.86,12.69c-0.206,0.177-0.419,0.107-0.472-0.157l-0.257-1.266H3.946c-0.943,0-1.716-0.757-1.716-1.682V3.867
	c0-0.924,0.773-1.681,1.716-1.681h12.699c0.943,0,1.715,0.757,1.715,1.681V7.254z M19.696,12.438c-0.416,0-0.752-0.336-0.752-0.754
	c0-0.414,0.337-0.75,0.752-0.75c0.411,0,0.75,0.336,0.75,0.75C20.446,12.102,20.107,12.438,19.696,12.438z"/>
</svg>
