<?xml version="1.0" encoding="utf-8"?>
<!-- Generator: Adobe Illustrator 12.0.0, SVG Export Plug-In . SVG Version: 6.00 Build 51448)  -->
<!DOCTYPE svg PUBLIC "-//W3C//DTD SVG 1.1//EN" "http://www.w3.org/Graphics/SVG/1.1/DTD/svg11.dtd" [
	<!ENTITY ns_svg "http://www.w3.org/2000/svg">
	<!ENTITY ns_xlink "http://www.w3.org/1999/xlink">
]>
<svg  version="1.1" id="review30" xmlns="&ns_svg;" xmlns:xlink="&ns_xlink;" width="38" height="30" viewBox="0 0 38 30"
	 overflow="visible" enable-background="new 0 0 38 30" xml:space="preserve">
<path fill="#b2b2b2" d="M35,12.091h-1V6.045C34,2.721,31.3,0,28,0H6C2.7,0,0,2.721,0,6.045v10.076c0,3.324,2.7,6.045,6,6.045h0.491
	l0.783,3.626c0.117,0.542,0.545,0.681,0.952,0.308l4.296-3.934H16v1.008c0,1.662,1.35,3.022,3,3.022h5.417l5.584,3.663
	c0.461,0.303,0.908,0.102,0.995-0.445l0.506-3.218H35c1.65,0,3-1.36,3-3.022v-8.061C38,13.451,36.65,12.091,35,12.091z M22,20.654
	c-0.828,0-1.5-0.677-1.5-1.512s0.672-1.511,1.5-1.511s1.5,0.676,1.5,1.511S22.828,20.654,22,20.654z M27,20.654
	c-0.828,0-1.5-0.677-1.5-1.512s0.672-1.511,1.5-1.511s1.5,0.676,1.5,1.511S27.828,20.654,27,20.654z M19,12.091
	c-1.65,0-3,1.36-3,3.022v3.526h-3.599l-2.566,2.19c-0.42,0.358-0.843,0.205-0.941-0.341l-0.333-1.85H6.5c-1.65,0-3-1.36-3-3.022
	V6.549c0-1.662,1.35-3.023,3-3.023h21c1.65,0,3,1.361,3,3.023v5.542H19z M32,20.654c-0.828,0-1.5-0.677-1.5-1.512
	s0.672-1.511,1.5-1.511s1.5,0.676,1.5,1.511S32.828,20.654,32,20.654z"/>
</svg>
