<?xml version="1.0" encoding="utf-8"?>
<!-- Generator: Adobe Illustrator 12.0.0, SVG Export Plug-In . SVG Version: 6.00 Build 51448)  -->
<!DOCTYPE svg PUBLIC "-//W3C//DTD SVG 1.1//EN" "http://www.w3.org/Graphics/SVG/1.1/DTD/svg11.dtd" [
	<!ENTITY ns_svg "http://www.w3.org/2000/svg">
	<!ENTITY ns_xlink "http://www.w3.org/1999/xlink">
]>
<svg  version="1.1" id="rising" xmlns="&ns_svg;" xmlns:xlink="&ns_xlink;" width="38" height="30" viewBox="0 0 38 30"
	 overflow="visible" enable-background="new 0 0 38 30" xml:space="preserve">
<path fill="#b2b2b2" d="M38,10.218L37.649,0l-9.614,3.588l3.471,2.308L24.793,15.9c-0.361-0.107-0.737-0.183-1.135-0.183
	c-0.67,0-1.293,0.18-1.848,0.472l-5.184-3.448c-0.16-2.062-1.866-3.691-3.969-3.691c-2.209,0-4,1.791-4,4
	c0,0.505,0.104,0.984,0.275,1.429L0,27.791L3.322,30l8.731-13.011c0.199,0.03,0.398,0.061,0.605,0.061
	c0.826,0,1.594-0.251,2.231-0.681l4.786,3.185c-0.003,0.056-0.018,0.107-0.018,0.164c0,2.208,1.791,3.999,4,3.999s4-1.791,4-3.999
	c0-0.276-0.027-0.546-0.08-0.806l7.249-10.806L38,10.218z M25.658,19.718c0,1.104-0.895,2-2,2c-1.104,0-2-0.896-2-2
	s0.896-2.001,2-2.001C24.764,17.717,25.658,18.614,25.658,19.718z M12.658,11.05c1.104,0,2,0.896,2,2s-0.896,2-2,2s-2-0.896-2-2
	S11.554,11.05,12.658,11.05z"/>
</svg>
