<?xml version="1.0" encoding="utf-8"?>
<!-- Generator: Adobe Illustrator 12.0.0, SVG Export Plug-In  -->
<!DOCTYPE svg PUBLIC "-//W3C//DTD SVG 1.1//EN" "http://www.w3.org/Graphics/SVG/1.1/DTD/svg11.dtd" [
	<!ENTITY ns_flows "http://ns.adobe.com/Flows/1.0/">
	<!ENTITY ns_svg "http://www.w3.org/2000/svg">
	<!ENTITY ns_xlink "http://www.w3.org/1999/xlink">
]>
<svg  version="1.1" xmlns="&ns_svg;" xmlns:xlink="&ns_xlink;" xmlns:a="http://ns.adobe.com/AdobeSVGViewerExtensions/3.0/"
	 width="35" height="31" viewBox="-0.281 -0.938 35 31" enable-background="new -0.281 -0.938 35 31" xml:space="preserve">
<defs>
</defs>
<path fill="#B1B1B2" d="M6.09,21.852c-3.52,0-6.09,0.372-6.09,0.833c0,0.032,0.017,0.064,0.042,0.096
	c-0.002,0.545,0.033,3.426,1.056,4.588c0.68,0.771,1.606,1.197,2.482,1.437v0.764H3.545c0.043,0.133,1.199,0.283,2.62,0.283
	c1.447,0,2.621-0.132,2.621-0.295c0-0.013-0.018-0.026-0.018-0.038v-0.758c0.804-0.254,1.651-0.69,2.315-1.441
	c0.992-1.12,1.049-3.861,1.048-4.533c0.03-0.033,0.049-0.067,0.049-0.102C12.18,22.224,9.61,21.852,6.09,21.852z M33.961,21.238
	l-0.09-0.034l0.027-0.029c0,0-1.029-1.571-2.598-3.631c-1.394,1.966-2.922,3.695-4.34,5.124c-0.897,0.902-1.746,1.685-2.487,2.331
	c-1.122,0.979-2.103,1.747-2.831,2.285c2.045,1.577,3.602,2.614,3.602,2.614l0.029-0.029l0.028,0.092
	c0.323,0.324,2.519-1.369,4.909-3.779C32.6,23.773,34.282,21.561,33.961,21.238z M30.49,16.496c-1.522-1.931-3.4-4.104-5.301-5.789
	c-2.988-2.651-6.684-4.182-9.146-4.95c-0.902,1.177-1.846,2.24-2.759,3.163c-0.937,0.946-1.841,1.752-2.634,2.406
	c-0.243,0.2-0.478,0.387-0.708,0.568c0.765,2.484,2.284,6.214,4.915,9.229c1.674,1.917,3.832,3.81,5.749,5.346
	C22.539,25.054,27.037,21.478,30.49,16.496z M6.149,7.268c0.883,0.179,3.002,0.891,3.179,2.137c0.031,0.226,0.107,0.612,0.23,1.115
	c1.589-1.291,3.438-3.02,5.131-5.146c-0.507-0.127-0.895-0.204-1.12-0.236c-1.237-0.179-1.945-2.317-2.123-3.208
	c-0.176-0.89-1.016-1.915-1.016-1.915l-0.016,0.015l-0.002-0.003C10.195-0.195,8.645,1.01,6.948,2.72
	C5.252,4.428,4.057,5.992,4.275,6.213l0.003,0.002L4.25,6.244C4.25,6.244,5.266,7.09,6.149,7.268z"/>
</svg>
