<?xml version="1.0" encoding="utf-8"?>
<!-- Generator: Adobe Illustrator 12.0.0, SVG Export Plug-In . SVG Version: 6.00 Build 51448)  -->
<!DOCTYPE svg PUBLIC "-//W3C//DTD SVG 1.1//EN" "http://www.w3.org/Graphics/SVG/1.1/DTD/svg11.dtd" [
	<!ENTITY ns_svg "http://www.w3.org/2000/svg">
	<!ENTITY ns_xlink "http://www.w3.org/1999/xlink">
]>
<svg  version="1.1" id="レイヤー_1" xmlns="&ns_svg;" xmlns:xlink="&ns_xlink;" width="198.375" height="32.001"
	 viewBox="0 0 198.375 32.001" overflow="visible" enable-background="new 0 0 198.375 32.001" xml:space="preserve">
<path fill="#3F3F3F" d="M52.406,11.461c0-1.031-0.266-1.747-0.797-2.148c-0.531-0.401-1.313-0.602-2.344-0.602
	c-1.761,0-3.394,0.43-4.898,1.289c-1.505,0.859-2.258,1.805-2.258,2.836c0,0.656,0.284,1.216,0.852,1.68
	c0.567,0.464,2.034,1.039,4.398,1.727c2.479,0.719,4.32,1.508,5.523,2.367s1.805,1.894,1.805,3.102c0,2.011-1.531,3.852-4.594,5.523
	s-6.245,2.508-9.547,2.508c-1.073,0-1.933-0.225-2.578-0.672c-0.646-0.448-0.969-1-0.969-1.656c0-0.521,0.146-1.005,0.438-1.453
	c0.292-0.447,0.641-0.672,1.047-0.672c0.25,0,0.479,0.042,0.688,0.125c1.094,0.469,2.114,0.703,3.063,0.703
	c1.625,0,3.45-0.455,5.477-1.367c2.026-0.911,3.039-1.805,3.039-2.68c0-0.364-0.253-0.716-0.758-1.055
	c-0.505-0.338-1.534-0.763-3.086-1.273c-2.261-0.739-3.961-1.349-5.102-1.828c-1.141-0.479-2.005-1.106-2.594-1.883
	c-0.589-0.776-0.883-1.711-0.883-2.805c0-1.948,1.135-3.76,3.406-5.438c2.271-1.677,4.938-2.516,8-2.516
	c1.76,0,3.148,0.349,4.164,1.047c1.016,0.698,1.523,1.495,1.523,2.391C55.422,10.544,54.417,11.461,52.406,11.461z"/>
<path fill="#3F3F3F" d="M68.703,23.055c-2.74,3.615-5.386,5.422-7.938,5.422c-0.938,0-1.745-0.369-2.422-1.109
	c-0.677-0.739-1.016-1.682-1.016-2.828c0-2.76,1.229-5.7,3.688-8.82c2.458-3.12,4.938-4.68,7.438-4.68
	c1.271,0,2.104,0.641,2.5,1.922c1.198,0,1.797,0.458,1.797,1.375c0,0.438-0.115,1.229-0.344,2.375
	c-0.417,2.146-0.625,3.859-0.625,5.141c0,1.334,0.091,2.271,0.273,2.813c0.182,0.542,0.315,0.896,0.398,1.063
	c0.083,0.167,0.333,0.344,0.75,0.531c0.417,0.198,0.625,0.475,0.625,0.828c0,0.531-0.269,0.975-0.805,1.328
	c-0.537,0.354-1.097,0.531-1.68,0.531C69.385,28.945,68.505,26.982,68.703,23.055z M67.766,14.383c-1.052,0-2.419,1.164-4.102,3.492
	c-1.683,2.328-2.523,4.305-2.523,5.93c0,0.854,0.177,1.281,0.531,1.281c1.229,0,2.742-1.091,4.539-3.273
	c1.797-2.182,2.695-4.091,2.695-5.727c0-0.521-0.117-0.935-0.352-1.242C68.32,14.537,68.057,14.383,67.766,14.383z"/>
<path fill="#3F3F3F" d="M91.219,15.242h0.016l-0.031,0.031c-0.604,0.333-1.094,0.625-1.469,0.875
	c-0.698,0.469-1.401,0.975-2.109,1.516c-0.813,0.625-1.422,1.151-1.828,1.578c-0.344,0.354-0.516,0.615-0.516,0.781
	c0,0.188,0.609,0.92,1.828,2.195c1.219,1.276,2.185,2.19,2.898,2.742c0.713,0.553,1.419,0.828,2.117,0.828l0.688-0.016
	c0.25,0,0.45,0.076,0.602,0.227c0.151,0.151,0.227,0.378,0.227,0.68c0,0.428-0.266,0.922-0.797,1.484s-1.443,0.844-2.734,0.844
	c-0.761,0-1.531-0.279-2.313-0.836s-1.979-1.814-3.594-3.773c-1.292-1.572-1.995-2.359-2.109-2.359
	c-0.073,0-0.292,0.188-0.656,0.563c-0.365,0.375-0.604,0.662-0.719,0.859v0.016c-0.177,0.865-0.266,1.995-0.266,3.391
	c0,0.698-0.206,1.266-0.617,1.703c-0.412,0.438-0.914,0.656-1.508,0.656c-0.615,0-1.094-0.175-1.438-0.523
	c-0.344-0.35-0.516-0.7-0.516-1.055c0-0.375,0.13-1.197,0.391-2.469c0.5-2.469,0.922-5.744,1.266-9.828
	c0.333-3.26,0.625-5.805,0.875-7.633s0.474-3.026,0.672-3.594c0.198-0.567,0.505-1.021,0.922-1.359
	c0.417-0.338,0.864-0.508,1.344-0.508c0.458,0,0.825,0.19,1.102,0.57c0.276,0.38,0.414,0.841,0.414,1.383
	c0,0.677-0.438,3.323-1.313,7.938l-0.375,2.047h0.016c-0.458,3.011-0.693,4.75-0.703,5.219l4.797-4.344
	c2.448-2.364,4.245-3.547,5.391-3.547c1.104,0,1.656,0.443,1.656,1.328C92.828,13.956,92.292,14.753,91.219,15.242z"/>
<path fill="#3F3F3F" d="M109.563,22.914c0,1.084-0.912,2.378-2.734,3.883c-1.823,1.505-3.881,2.258-6.172,2.258
	c-1.761,0-3.146-0.555-4.156-1.664c-1.011-1.109-1.516-2.653-1.516-4.633c0-2.916,1.031-5.65,3.094-8.203
	c2.063-2.552,4.266-3.828,6.609-3.828c1.166,0,2.104,0.37,2.813,1.109c0.708,0.74,1.063,1.62,1.063,2.641
	c0,1.813-0.87,3.539-2.609,5.18c-1.74,1.641-3.969,2.773-6.688,3.398c-0.313,0.073-0.469,0.261-0.469,0.563
	c0,0.5,0.221,0.977,0.664,1.43c0.442,0.453,1.033,0.68,1.773,0.68c2.094,0,4.172-1.078,6.234-3.234
	c0.396-0.416,0.781-0.625,1.156-0.625C109.25,21.867,109.563,22.217,109.563,22.914z M99.078,20.148
	c1.646-0.333,3.096-1.036,4.352-2.109c1.255-1.073,1.883-2.047,1.883-2.922c0-0.344-0.097-0.633-0.289-0.867
	c-0.193-0.234-0.44-0.352-0.742-0.352c-0.906,0-1.912,0.667-3.016,2C100.161,17.232,99.432,18.648,99.078,20.148z"/>
<path fill="#3F3F3F" d="M125.281,25.977c-0.5-0.938-0.865-2.688-1.094-5.25c-0.229-2.666-0.74-4-1.531-4
	c-0.75,0-2.047,1.389-3.891,4.164c-1.844,2.776-2.979,4.826-3.406,6.148c-0.094,0.396-0.269,0.725-0.523,0.984
	c-0.256,0.26-0.508,0.391-0.758,0.391c-1.584,0-2.375-0.724-2.375-2.172c0-0.489,0.156-1.604,0.469-3.344
	c0.406-2.25,0.609-5,0.609-8.25c0-0.489,0.213-1.013,0.641-1.57c0.427-0.557,0.88-0.836,1.359-0.836
	c0.604,0,1.067,0.151,1.391,0.453c0.322,0.302,0.484,1.104,0.484,2.406c0,0.99-0.297,2.906-0.891,5.75
	c2.26-5.292,4.781-7.938,7.563-7.938c2.416,0,3.833,1.901,4.25,5.703c0.416,3.875,0.896,5.813,1.438,5.813
	c0.239,0,0.516-0.052,0.828-0.156c0.375-0.125,0.672-0.188,0.891-0.188c0.5,0,0.75,0.292,0.75,0.875
	c0,0.531-0.344,1.097-1.031,1.695c-0.688,0.6-1.553,0.898-2.594,0.898c-1.209,0-2.073-0.525-2.594-1.578H125.281z"/>
<path fill="#3F3F3F" d="M148.078,20.336c-0.698,2.438-2.023,4.492-3.977,6.164s-3.904,2.508-5.852,2.508
	c-1.542,0-2.813-0.565-3.813-1.695s-1.5-2.518-1.5-4.164c0-2.688,0.916-5.333,2.75-7.938c1.833-2.604,4.057-3.906,6.672-3.906
	c1.781,0,3.224,0.659,4.328,1.977c1.104,1.318,1.656,2.888,1.656,4.711c0,0.792-0.089,1.568-0.266,2.328V20.336z M139.953,15.398
	c-0.729,0.646-1.443,1.678-2.141,3.094c-0.698,1.417-1.047,2.839-1.047,4.266c0,0.865,0.158,1.578,0.477,2.141
	c0.317,0.563,0.736,0.844,1.258,0.844c1.291,0,2.635-0.766,4.031-2.297c1.396-1.531,2.094-3.25,2.094-5.156
	c0-1.072-0.227-1.956-0.68-2.648c-0.453-0.692-1.086-1.039-1.898-1.039c-0.771,0-1.464,0.266-2.078,0.797H139.953z"/>
<path fill="#3F3F3F" d="M155.469,27.367c-0.125,1.072-0.725,1.609-1.797,1.609c-1.365,0-2.047-0.984-2.047-2.953
	c0-3.188,0.172-5.911,0.516-8.172c0.271-1.76,0.406-3.489,0.406-5.188c0-0.406,0.13-0.747,0.391-1.023
	c0.26-0.276,0.625-0.414,1.094-0.414c1.563,0,2.344,0.948,2.344,2.844c0,0.615-0.276,2.183-0.828,4.703
	c-0.334,1.5-0.5,2.589-0.5,3.266c2.979-6.542,5.666-9.813,8.063-9.813c0.969,0,1.747,0.386,2.336,1.156
	c0.588,0.771,0.893,2.479,0.914,5.125c0.01,2.417,0.135,3.625,0.375,3.625c0.188,0,0.838-1.172,1.953-3.516
	c1.239-2.594,2.299-4.307,3.18-5.141c0.88-0.833,1.805-1.25,2.773-1.25c1.156,0,1.994,0.498,2.516,1.492
	c0.521,0.995,0.885,2.675,1.094,5.039c0.156,1.875,0.367,3.292,0.633,4.25c0.266,0.959,0.721,1.594,1.367,1.906
	c0.521,0.25,0.781,0.625,0.781,1.125c0,0.448-0.297,0.898-0.891,1.352s-1.198,0.68-1.813,0.68c-1.063,0-1.894-0.523-2.492-1.57
	c-0.6-1.047-1.003-3.148-1.211-6.305c-0.115-1.521-0.237-2.528-0.367-3.023c-0.131-0.495-0.326-0.742-0.586-0.742
	c-0.229,0-0.563,0.373-1,1.117c-0.438,0.745-1.193,2.227-2.266,4.445c-0.948,2-1.764,3.396-2.445,4.188
	c-0.683,0.792-1.414,1.188-2.195,1.188c-0.604,0-1.211-0.26-1.82-0.781c-0.609-0.521-0.94-2.411-0.992-5.672
	c-0.053-2.906-0.24-4.359-0.563-4.359c-0.438,0-1.49,1.292-3.156,3.875C157.567,23.014,156.313,25.326,155.469,27.367z"/>
<path fill="#3F3F3F" d="M198.109,20.336c-0.698,2.438-2.023,4.492-3.977,6.164s-3.904,2.508-5.852,2.508
	c-1.542,0-2.813-0.565-3.813-1.695s-1.5-2.518-1.5-4.164c0-2.688,0.916-5.333,2.75-7.938c1.833-2.604,4.057-3.906,6.672-3.906
	c1.781,0,3.224,0.659,4.328,1.977c1.104,1.318,1.656,2.888,1.656,4.711c0,0.792-0.089,1.568-0.266,2.328V20.336z M189.984,15.398
	c-0.729,0.646-1.443,1.678-2.141,3.094c-0.698,1.417-1.047,2.839-1.047,4.266c0,0.865,0.158,1.578,0.477,2.141
	c0.317,0.563,0.736,0.844,1.258,0.844c1.291,0,2.635-0.766,4.031-2.297c1.396-1.531,2.094-3.25,2.094-5.156
	c0-1.072-0.227-1.956-0.68-2.648c-0.453-0.692-1.086-1.039-1.898-1.039c-0.771,0-1.464,0.266-2.078,0.797H189.984z"/>
<path fill="#CD0000" d="M26.155,11.568c0,0-0.726,0.238-1.906,0.626c0.021-0.429,0.01-0.843-0.035-1.295
	c-0.059-0.581-0.177-1.143-0.351-1.677c-0.457-1.407-1.297-2.618-2.422-3.448c-1.298-0.959-2.867-1.315-4.417-1.002l-0.078,0.019
	c-2.35,0.683-3.401,2.071-3.989,3.564c-1.021-0.775-2.272-1.035-3.565-0.695c-2.739,0.72-4.343,4.188-3.577,7.73
	c0.031,0.145,0.643,2.136,0.496,2.259c0.031,0.438-1.102,0.794-1.102,0.794c-2.383,0.782-2.603,0.145-2.779-0.366
	c-0.583-1.69-0.495-5.521,1.524-8.751c1.836-2.938,4.814-5.366,7.772-6.336c3.854-1.266,6.975-1.112,10.119,0.495
	c1.957,1.001,5.139,3.29,6.081,5.245c0.256,0.531,0.895,0.754,1.425,0.498c0.531-0.255,0.753-0.894,0.497-1.425
	c-1.327-2.753-5.18-5.271-7.032-6.219C19.125-0.304,15.5-0.495,11.061,0.962c-3.41,1.12-6.827,3.891-8.916,7.233
	c-2.524,4.041-2.402,8.632-1.732,10.577c0.524,1.521,1.604,1.994,2.417,2.124c0.816,0.13,1.755-0.001,3.046-0.424
	c0,0,0.877-0.311,1.206-0.567c1.166-0.901,1.276-2.061,1.103-2.938c-0.131-0.631-0.22-1.084-0.347-1.476
	c-0.101-0.309-0.145-0.502-0.146-0.507c-0.542-2.507,0.46-5.01,2.188-5.464c1.078-0.283,2.01,0.147,2.695,1.242l1.218,1.95
	l0.531-2.237c0.478-2.017,1.119-3.228,3.109-3.822c1.282-0.249,2.267,0.224,2.868,0.668c0.801,0.592,1.402,1.466,1.736,2.493
	c0.132,0.404,0.222,0.833,0.266,1.276c0.06,0.605,0.046,1.11-0.046,1.76c-3.796,1.245-10.475,3.099-12.273,4.357
	c-0.893,0.589-1.063,1.663-1.084,2.072c-0.117,0.675,0.327,1.704,1.283,2.566l0.083,0.077c4.677,4.225,5.627,5.428,5.666,5.477
	c0.401,0.535,0.931,0.566,1.29,0.414c0.29-0.121,0.567-0.407,0.613-0.861c0.152-0.337,2.604-5.798,2.604-5.798l0.005-0.015
	c0.068-0.162,0.211-0.45,0.304-0.602c0.231-0.385,2.269-3.788,2.725-4.9c0.167-0.407,0.29-0.733,0.389-1.069
	c1.789-0.587,2.959-0.972,2.959-0.972c2.372-0.779,2.725,0.229,2.841,0.56c0.381,1.085,0.427,5.301-1.723,8.817
	c-1.785,2.923-4.491,5.046-7.825,6.14c-3.429,1.126-6.722,0.979-9.787-0.434c-2.628-1.212-5.614-4.06-6.344-5.389
	c-0.284-0.517-0.933-0.705-1.45-0.421c-0.516,0.283-0.705,0.933-0.421,1.449c0.996,1.812,4.41,4.957,7.322,6.299
	c3.57,1.647,7.388,1.823,11.346,0.523c3.822-1.255,6.927-3.694,8.981-7.055c2.309-3.78,2.598-8.688,1.915-10.636
	C30.949,11.375,28.885,10.673,26.155,11.568z M19.1,19.548c-0.137,0.229-0.316,0.585-0.422,0.839
	c-0.042,0.094-1.499,3.335-2.161,4.81c-0.823-0.849-2.313-2.305-4.965-4.701l-0.084-0.075c-0.618-0.558-0.86-0.948-0.441-1.384
	c0.545-0.626,6.913-2.524,10.463-3.689C20.926,16.465,19.625,18.675,19.1,19.548z"/>
</svg>
