<?xml version="1.0" encoding="utf-8"?>
<!-- Generator: Adobe Illustrator 12.0.0, SVG Export Plug-In . SVG Version: 6.00 Build 51448)  -->
<!DOCTYPE svg PUBLIC "-//W3C//DTD SVG 1.1//EN" "http://www.w3.org/Graphics/SVG/1.1/DTD/svg11.dtd" [
	<!ENTITY ns_svg "http://www.w3.org/2000/svg">
	<!ENTITY ns_xlink "http://www.w3.org/1999/xlink">
]>
<svg  version="1.1" id="sakenomo" xmlns="&ns_svg;" xmlns:xlink="&ns_xlink;" width="20" height="20" viewBox="0 0 20 20"
	 overflow="visible" enable-background="new 0 0 20 20" xml:space="preserve">
<path fill="#666666" d="M16.347,7.23c0,0-0.454,0.149-1.19,0.391c0.012-0.268,0.006-0.527-0.022-0.809
	c-0.036-0.363-0.11-0.714-0.219-1.048c-0.286-0.879-0.812-1.636-1.514-2.155c-0.812-0.599-1.792-0.822-2.761-0.626l-0.049,0.012
	C9.124,3.421,8.466,4.289,8.099,5.222c-0.638-0.484-1.42-0.646-2.229-0.435C4.159,5.238,3.156,7.405,3.635,9.62
	c0.02,0.09,0.401,1.335,0.31,1.412c0.02,0.273-0.688,0.496-0.688,0.496c-1.49,0.488-1.627,0.09-1.738-0.229
	C1.155,10.243,1.21,7.848,2.472,5.83C3.62,3.994,5.481,2.475,7.33,1.869c2.409-0.791,4.36-0.695,6.325,0.31
	c1.223,0.626,3.211,2.056,3.801,3.278c0.159,0.332,0.559,0.471,0.89,0.311c0.332-0.16,0.472-0.559,0.312-0.891
	c-0.83-1.721-3.238-3.294-4.395-3.887c-2.309-1.18-4.574-1.299-7.348-0.389c-2.132,0.7-4.268,2.432-5.573,4.521
	c-1.578,2.526-1.501,5.396-1.083,6.611c0.327,0.95,1.002,1.246,1.511,1.327c0.51,0.081,1.097,0,1.904-0.265
	c0,0,0.548-0.194,0.753-0.355c0.729-0.563,0.797-1.287,0.689-1.835c-0.082-0.395-0.138-0.678-0.217-0.922
	c-0.063-0.193-0.09-0.313-0.09-0.316C4.469,7.797,5.095,6.233,6.175,5.95c0.674-0.177,1.256,0.092,1.684,0.776l0.761,1.218
	l0.332-1.398c0.299-1.26,0.7-2.017,1.943-2.389c0.802-0.155,1.417,0.14,1.792,0.417c0.501,0.37,0.877,0.916,1.086,1.558
	c0.082,0.253,0.139,0.521,0.166,0.798c0.037,0.378,0.029,0.694-0.029,1.1c-2.373,0.778-6.547,1.938-7.671,2.724
	c-0.558,0.368-0.665,1.039-0.678,1.295c-0.074,0.422,0.205,1.064,0.801,1.604l0.053,0.049c2.923,2.64,3.517,3.392,3.541,3.422
	c0.25,0.335,0.583,0.354,0.807,0.259c0.18-0.075,0.354-0.255,0.383-0.536c0.095-0.213,1.627-3.625,1.627-3.625l0.004-0.009
	c0.042-0.103,0.132-0.282,0.189-0.377c0.145-0.24,1.418-2.367,1.703-3.062c0.105-0.254,0.182-0.458,0.244-0.668
	c1.117-0.367,1.849-0.607,1.849-0.607c1.483-0.487,1.703,0.144,1.776,0.35c0.237,0.678,0.267,3.313-1.077,5.51
	c-1.116,1.827-2.808,3.154-4.891,3.838c-2.144,0.703-4.201,0.611-6.117-0.271c-1.643-0.758-3.509-2.537-3.966-3.367
	c-0.178-0.323-0.583-0.441-0.906-0.264s-0.441,0.583-0.263,0.906c0.622,1.132,2.756,3.098,4.576,3.937
	c2.231,1.029,4.618,1.14,7.091,0.327c2.389-0.783,4.33-2.309,5.612-4.409c1.444-2.362,1.625-5.43,1.198-6.647
	C19.343,7.109,18.053,6.67,16.347,7.23z M11.938,12.217c-0.086,0.144-0.197,0.365-0.264,0.524c-0.027,0.059-0.937,2.085-1.352,3.006
	c-0.513-0.53-1.445-1.44-3.102-2.938l-0.053-0.047c-0.386-0.349-0.538-0.593-0.276-0.865c0.34-0.391,4.321-1.576,6.54-2.305
	C13.079,10.291,12.266,11.671,11.938,12.217z"/>
</svg>
