<?xml version="1.0" encoding="utf-8"?>
<!-- Generator: Adobe Illustrator 12.0.0, SVG Export Plug-In . SVG Version: 6.00 Build 51448)  -->
<!DOCTYPE svg PUBLIC "-//W3C//DTD SVG 1.1//EN" "http://www.w3.org/Graphics/SVG/1.1/DTD/svg11.dtd" [
	<!ENTITY ns_svg "http://www.w3.org/2000/svg">
	<!ENTITY ns_xlink "http://www.w3.org/1999/xlink">
]>
<svg  version="1.1" id="sake30smoke" xmlns="&ns_svg;" xmlns:xlink="&ns_xlink;" width="34" height="30" viewBox="0 0 34 30"
	 overflow="visible" enable-background="new 0 0 34 30" xml:space="preserve">
<path fill="#B2B2B2" d="M6.09,21.853c-3.52,0-6.09,0.372-6.09,0.833c0,0.032,0.016,0.064,0.042,0.096
	c-0.003,0.545,0.032,3.427,1.056,4.588c0.68,0.771,1.606,1.197,2.482,1.437v0.764H3.545c0.043,0.133,1.199,0.283,2.62,0.283
	c1.447,0,2.62-0.132,2.62-0.295c0-0.013-0.018-0.026-0.018-0.037v-0.76c0.804-0.254,1.65-0.689,2.314-1.439
	c0.992-1.121,1.049-3.862,1.049-4.534c0.029-0.033,0.049-0.067,0.049-0.102C12.18,22.225,9.609,21.853,6.09,21.853z M33.96,21.238
	l-0.088-0.034l0.027-0.029c0,0-1.029-1.571-2.598-3.631c-1.395,1.966-2.924,3.695-4.342,5.123c-0.896,0.903-1.744,1.686-2.486,2.332
	c-1.121,0.979-2.104,1.747-2.83,2.285c2.045,1.577,3.6,2.615,3.6,2.615l0.029-0.029l0.029,0.09c0.324,0.324,2.518-1.368,4.91-3.777
	C32.601,23.773,34.282,21.562,33.96,21.238z M30.489,16.495c-1.521-1.929-3.398-4.103-5.299-5.788
	c-2.988-2.651-6.686-4.182-9.147-4.95c-0.902,1.177-1.846,2.24-2.759,3.163c-0.937,0.946-1.841,1.752-2.634,2.406
	c-0.244,0.2-0.479,0.387-0.709,0.568c0.765,2.484,2.284,6.213,4.916,9.229c1.674,1.917,3.832,3.81,5.748,5.346
	C22.538,25.055,27.038,21.479,30.489,16.495z M6.148,7.269c0.883,0.179,3.003,0.891,3.18,2.137c0.031,0.226,0.107,0.612,0.23,1.115
	c1.59-1.291,3.438-3.021,5.131-5.146c-0.506-0.127-0.895-0.204-1.119-0.236c-1.236-0.179-1.946-2.317-2.124-3.208
	c-0.176-0.89-1.016-1.916-1.016-1.916l-0.016,0.015l-0.002-0.003c-0.22-0.221-1.77,0.984-3.467,2.695
	C5.252,4.429,4.057,5.993,4.275,6.214l0.002,0.002L4.25,6.244C4.25,6.244,5.266,7.09,6.148,7.269z"/>
</svg>
