<?xml version="1.0" encoding="utf-8"?>
<!-- Generator: Adobe Illustrator 12.0.0, SVG Export Plug-In . SVG Version: 6.00 Build 51448)  -->
<!DOCTYPE svg PUBLIC "-//W3C//DTD SVG 1.1//EN" "http://www.w3.org/Graphics/SVG/1.1/DTD/svg11.dtd" [
	<!ENTITY ns_svg "http://www.w3.org/2000/svg">
	<!ENTITY ns_xlink "http://www.w3.org/1999/xlink">
]>
<svg  version="1.1" id="sake20" xmlns="&ns_svg;" xmlns:xlink="&ns_xlink;" width="24" height="20" viewBox="0 0 24 20"
	 overflow="visible" enable-background="new 0 0 24 20" xml:space="preserve">
<path fill="#b2b2b2" d="M4.501,14C1.899,14,0,14.279,0,14.625c0,0.023,0.012,0.049,0.032,0.072c-0.003,0.408,0.024,2.569,0.778,3.44
	C1.314,18.714,2,19.034,2.646,19.214v0.572H2.619c0.034,0.1,0.889,0.213,1.938,0.213c1.068,0,1.933-0.098,1.933-0.221
	c0-0.01-0.011-0.02-0.011-0.027v-0.57c0.593-0.191,1.22-0.518,1.708-1.08c0.736-0.84,0.774-2.896,0.774-3.399
	C8.984,14.676,9,14.65,9,14.625C9,14.279,7.1,14,4.501,14z M5.276,4.848c0.594,0.12,2.017,0.593,2.135,1.424
	C7.432,6.42,7.486,6.678,7.569,7.016c1.065-0.861,2.307-2.015,3.449-3.433c-0.338-0.083-0.602-0.136-0.75-0.157
	C9.436,3.307,8.957,1.881,8.837,1.287c-0.118-0.592-0.68-1.275-0.68-1.275l-0.016,0.01V0.018C7.997-0.13,6.956,0.676,5.814,1.814
	c-1.138,1.141-1.947,2.182-1.796,2.33L4.02,4.146l-0.018,0.02C4.002,4.166,4.682,4.728,5.276,4.848z M23.974,14.158l-0.061-0.023
	l0.018-0.02c0,0-0.693-1.045-1.749-2.42c-0.937,1.311-1.966,2.464-2.915,3.416c-0.608,0.603-1.178,1.125-1.672,1.555
	c-0.754,0.651-1.418,1.163-1.905,1.522c1.374,1.053,2.419,1.742,2.419,1.742l0.02-0.02l0.02,0.063
	c0.219,0.215,1.692-0.914,3.305-2.52C23.054,15.849,24.188,14.374,23.974,14.158z M21.636,10.998
	c-1.024-1.286-2.285-2.736-3.562-3.859c-2.009-1.768-4.496-2.787-6.149-3.3c-0.605,0.784-1.241,1.493-1.854,2.108
	c-0.63,0.629-1.238,1.168-1.773,1.604C8.14,7.684,7.982,7.809,7.826,7.93c0.512,1.654,1.536,4.143,3.306,6.151
	c1.124,1.277,2.571,2.54,3.862,3.563C16.294,16.705,19.317,14.32,21.636,10.998z"/>
</svg>
