<?xml version="1.0" encoding="utf-8"?>
<!-- Generator: Adobe Illustrator 12.0.0, SVG Export Plug-In . SVG Version: 6.00 Build 51448)  -->
<!DOCTYPE svg PUBLIC "-//W3C//DTD SVG 1.1//EN" "http://www.w3.org/Graphics/SVG/1.1/DTD/svg11.dtd" [
	<!ENTITY ns_svg "http://www.w3.org/2000/svg">
	<!ENTITY ns_xlink "http://www.w3.org/1999/xlink">
]>
<svg  version="1.1" id="search" xmlns="&ns_svg;" xmlns:xlink="&ns_xlink;" width="20" height="20" viewBox="0 0 20 20"
	 overflow="visible" enable-background="new 0 0 20 20" xml:space="preserve">
<path fill="#8c8c8c" d="M13.479,2.313c-3.084-3.083-8.082-3.085-11.166,0c-3.085,3.084-3.085,8.082,0,11.164
	c2.84,2.842,7.305,3.064,10.401,0.67l5.559,5.559c0.395,0.394,1.038,0.394,1.432,0c0.393-0.395,0.393-1.039,0-1.432l-5.558-5.559
	C16.541,9.618,16.317,5.153,13.479,2.313z M11.617,11.617c-2.054,2.055-5.388,2.055-7.443,0c-2.056-2.056-2.056-5.388,0-7.443
	c2.056-2.057,5.389-2.057,7.443,0C13.672,6.228,13.674,9.56,11.617,11.617z"/>
</svg>
