<?xml version="1.0" encoding="utf-8"?>
<!-- Generator: Adobe Illustrator 12.0.0, SVG Export Plug-In  -->
<!DOCTYPE svg PUBLIC "-//W3C//DTD SVG 1.1//EN" "http://www.w3.org/Graphics/SVG/1.1/DTD/svg11.dtd" [
	<!ENTITY ns_flows "http://ns.adobe.com/Flows/1.0/">
	<!ENTITY ns_svg "http://www.w3.org/2000/svg">
	<!ENTITY ns_xlink "http://www.w3.org/1999/xlink">
]>
<svg  version="1.1" xmlns="&ns_svg;" xmlns:xlink="&ns_xlink;" xmlns:a="http://ns.adobe.com/AdobeSVGViewerExtensions/3.0/"
	 width="19" height="19" viewBox="-0.982 -0.494 19 19" enable-background="new -0.982 -0.494 19 19" xml:space="preserve">
<defs>
</defs>
<path fill="#871B20" d="M9,0C4.03,0,0,4.03,0,9s4.03,9,9,9s9-4.03,9-9S13.97,0,9,0 M13.511,9.119l-4.29,4.079
	c-0.414,0.396-1.069,0.38-1.465-0.035c-0.394-0.414-0.378-1.071,0.036-1.465l1.749-1.662H5.4c-0.573,0-1.037-0.464-1.037-1.036
	S4.828,7.965,5.4,7.965h4.141L7.792,6.301c-0.414-0.394-0.43-1.05-0.036-1.465c0.396-0.414,1.051-0.43,1.465-0.035l4.29,4.08
	c0.032,0.03,0.05,0.074,0.05,0.119C13.561,9.044,13.542,9.086,13.511,9.119"/>
</svg>
