<?xml version="1.0" encoding="utf-8"?>
<!-- Generator: Adobe Illustrator 12.0.0, SVG Export Plug-In . SVG Version: 6.00 Build 51448)  -->
<!DOCTYPE svg PUBLIC "-//W3C//DTD SVG 1.1//EN" "http://www.w3.org/Graphics/SVG/1.1/DTD/svg11.dtd" [
	<!ENTITY ns_svg "http://www.w3.org/2000/svg">
	<!ENTITY ns_xlink "http://www.w3.org/1999/xlink">
]>
<svg  version="1.1" id="レイヤー_1" xmlns="&ns_svg;" xmlns:xlink="&ns_xlink;" width="18" height="18" viewBox="0 0 18 18"
	 overflow="visible" enable-background="new 0 0 18 18" xml:space="preserve">
<path fill="#666666" d="M12.131,2.082c-2.775-2.775-7.273-2.776-10.049,0c-2.776,2.776-2.775,7.274,0,10.048
	c2.556,2.557,6.574,2.757,9.361,0.603l5.002,5.002c0.355,0.354,0.935,0.354,1.289,0c0.354-0.354,0.354-0.935,0-1.289l-5.002-5.002
	C14.887,8.656,14.687,4.638,12.131,2.082z M10.455,10.456c-1.85,1.85-4.85,1.849-6.699,0c-1.85-1.851-1.85-4.85,0-6.699
	c1.851-1.851,4.85-1.851,6.699,0C12.305,5.605,12.306,8.604,10.455,10.456z"/>
</svg>
