<?xml version="1.0" encoding="utf-8"?>
<!-- Generator: Adobe Illustrator 12.0.0, SVG Export Plug-In  -->
<!DOCTYPE svg PUBLIC "-//W3C//DTD SVG 1.1//EN" "http://www.w3.org/Graphics/SVG/1.1/DTD/svg11.dtd" [
	<!ENTITY ns_flows "http://ns.adobe.com/Flows/1.0/">
	<!ENTITY ns_svg "http://www.w3.org/2000/svg">
	<!ENTITY ns_xlink "http://www.w3.org/1999/xlink">
]>
<svg  version="1.1" xmlns="&ns_svg;" xmlns:xlink="&ns_xlink;" xmlns:a="http://ns.adobe.com/AdobeSVGViewerExtensions/3.0/"
	 width="21" height="21" viewBox="-0.963 -0.921 21 21" enable-background="new -0.963 -0.921 21 21" xml:space="preserve">
<defs>
</defs>
<path fill="#B1B1B2" d="M14.939,1.299l-0.412-1.063c-0.383,0.135-0.752,0.313-1.104,0.502L14,1.729
	C14.322,1.553,14.638,1.4,14.939,1.299z M1.635,9.83L0.544,9.465C0.428,9.84,0.327,10.217,0.249,10.59l1.116,0.264
	C1.44,10.518,1.528,10.174,1.635,9.83z M1.196,11.904l-1.135-0.156c-0.047,0.396-0.066,0.795-0.06,1.184l1.14,0.027
	C1.137,12.611,1.157,12.259,1.196,11.904z M0.854,16.458c0.195,0.367,0.425,0.719,0.691,1.049l0.883-0.684
	c-0.217-0.27-0.407-0.557-0.568-0.857L0.854,16.458z M0.092,14.13c0.065,0.404,0.156,0.801,0.279,1.188l1.088-0.307
	c-0.107-0.324-0.186-0.662-0.234-1.014L0.092,14.13z M2.436,7.844L1.411,7.328C1.235,7.676,1.079,8.025,0.937,8.375l1.06,0.447
	C2.133,8.498,2.28,8.171,2.436,7.844z M4.834,4.32L3.998,3.529C3.745,3.787,3.491,4.082,3.232,4.416l0.917,0.695
	C4.385,4.811,4.616,4.545,4.834,4.32z M3.522,5.987L2.565,5.346C2.348,5.666,2.143,5.99,1.953,6.318L2.948,6.9
	C3.128,6.593,3.315,6.289,3.522,5.987z M4.954,18.583l-0.342,1.059c0.399,0.137,0.807,0.234,1.225,0.293l0.124-1.113
	C5.615,18.777,5.28,18.699,4.954,18.583z M3.444,17.789c-0.098-0.072-0.195-0.146-0.291-0.229l-0.725,0.846v-0.002
	c0.114,0.096,0.234,0.186,0.352,0.277c0.222,0.16,0.449,0.313,0.684,0.445l0.547-0.969C3.816,18.05,3.627,17.925,3.444,17.789z
	 M14.298,14.896l0.864,0.764c0.254-0.277,0.499-0.568,0.742-0.867l-0.908-0.717C14.771,14.365,14.537,14.638,14.298,14.896z
	 M10.996,17.623l0.607,0.969c0.328-0.191,0.658-0.4,0.98-0.631l-0.688-0.918C11.598,17.253,11.299,17.449,10.996,17.623z
	 M12.75,16.39l0.752,0.865c0.293-0.242,0.576-0.498,0.859-0.77l-0.811-0.813C13.287,15.925,13.018,16.162,12.75,16.39z M6.452,3.166
	L5.993,2.123l0,0C5.631,2.266,5.27,2.467,4.899,2.736l0.703,0.907C5.902,3.425,6.183,3.271,6.452,3.166z M6.999,18.878L7.074,20
	c0.403-0.01,0.809-0.057,1.213-0.131l-0.247-1.105C7.688,18.83,7.34,18.869,6.999,18.878z M9.06,18.501l0.393,1.064
	c0.371-0.119,0.739-0.264,1.108-0.432l-0.51-1.02C9.723,18.265,9.391,18.392,9.06,18.501z M15.65,13.212l0.939,0.668
	c0.223-0.313,0.438-0.625,0.643-0.938l-0.967-0.629C16.07,12.615,15.865,12.916,15.65,13.212z M17.828,9.471l1.05,0.48
	c0.159-0.359,0.302-0.715,0.429-1.07l-1.078-0.408C18.111,8.803,17.977,9.135,17.828,9.471z M19.576,3.01
	c-0.164-0.396-0.371-0.77-0.635-1.121l-0.91,0.645c0.197,0.27,0.361,0.557,0.485,0.861L19.576,3.01z M20,5.439
	c0.006-0.418-0.023-0.823-0.089-1.221l-1.126,0.146c0.055,0.32,0.078,0.664,0.073,1.02L20,5.439z M18.551,7.455l1.104,0.32
	c0.104-0.387,0.186-0.771,0.244-1.148L18.766,6.42C18.717,6.759,18.643,7.104,18.551,7.455z M16.838,11.392l0.991,0.586
	c0.194-0.33,0.38-0.664,0.556-0.998l-1.025-0.537C17.196,10.758,17.023,11.076,16.838,11.392z M13.059,2.279l-0.621-0.96
	c-0.341,0.205-0.654,0.396-0.94,0.546l0.56,0.996C12.389,2.689,12.721,2.486,13.059,2.279z M16.656,1.342L16.656,1.342
	c0.176,0.104,0.342,0.211,0.488,0.32c0.068,0.048,0.132,0.1,0.195,0.148l0.713-0.852c-0.078-0.064-0.156-0.127-0.242-0.188
	c-0.188-0.137-0.387-0.27-0.598-0.391l0.02,0.012l-0.02-0.012l0,0l0,0C16.764,0.121,16.285,0.007,15.83,0l0.025,1.123
	C16.139,1.127,16.391,1.188,16.656,1.342z M8.385,3.01l0.138-1.108l0,0c-0.389-0.06-0.812-0.099-1.267-0.073l0.123,1.127
	C7.713,2.93,8.044,2.959,8.385,3.01z M10.807,3.291l-0.175-1.113c-0.274,0.033-0.597,0-0.968-0.066L9.5,3.217
	C9.915,3.291,10.348,3.346,10.807,3.291z M5.778,14.677c2.23,1.648,5.439,0.352,7.615-2.559c2.18-2.91,3.237-6.389,0.676-7.867
	c-1.246-0.723-2.697,0.953-3.661,1.113C9.245,5.561,7.922,4.193,6.051,6.693C3.874,9.604,3.543,13.031,5.778,14.677z"/>
</svg>
