<?xml version="1.0" encoding="utf-8"?>
<!-- Generator: Adobe Illustrator 12.0.0, SVG Export Plug-In . SVG Version: 6.00 Build 51448)  -->
<!DOCTYPE svg PUBLIC "-//W3C//DTD SVG 1.1//EN" "http://www.w3.org/Graphics/SVG/1.1/DTD/svg11.dtd" [
	<!ENTITY ns_svg "http://www.w3.org/2000/svg">
	<!ENTITY ns_xlink "http://www.w3.org/1999/xlink">
]>
<svg  version="1.1" id="seme" xmlns="&ns_svg;" xmlns:xlink="&ns_xlink;" width="40" height="40" viewBox="0 0 40 40"
	 overflow="visible" enable-background="new 0 0 40 40" xml:space="preserve">
<path fill="#FF4545" d="M36,0H4C1.8,0,0,1.8,0,4v32c0,2.2,1.8,4,4,4h32c2.2,0,4-1.8,4-4V4C40,1.8,38.2,0,36,0z M36,35
	c0,0.55-0.45,1-1,1H5c-0.55,0-1-0.45-1-1V23h32V35z M36,21H4v-4h32V21z M36,15H4v-4h32V15z M20,34c0.753,0,1.504-0.287,2.074-0.859
	c1.148-1.146,0.844-2.831,0-4.15L20,26l-2.074,2.99c-0.844,1.319-1.148,3.004,0,4.15C18.496,33.713,19.247,34,20,34z M10,34
	c0.753,0,1.504-0.287,2.074-0.859c1.148-1.146,0.844-2.831,0-4.15L10,26l-2.074,2.99c-0.844,1.319-1.148,3.004,0,4.15
	C8.496,33.713,9.247,34,10,34z M30,34c0.753,0,1.504-0.287,2.074-0.859c1.148-1.146,0.844-2.831,0-4.15L30,26l-2.074,2.99
	c-0.844,1.319-1.148,3.004,0,4.15C28.496,33.713,29.247,34,30,34z"/>
</svg>
