<?xml version="1.0" encoding="utf-8"?>
<!-- Generator: Adobe Illustrator 12.0.0, SVG Export Plug-In . SVG Version: 6.00 Build 51448)  -->
<!DOCTYPE svg PUBLIC "-//W3C//DTD SVG 1.1//EN" "http://www.w3.org/Graphics/SVG/1.1/DTD/svg11.dtd" [
	<!ENTITY ns_svg "http://www.w3.org/2000/svg">
	<!ENTITY ns_xlink "http://www.w3.org/1999/xlink">
]>
<svg  version="1.1" id="shinshu" xmlns="&ns_svg;" xmlns:xlink="&ns_xlink;" width="40" height="40" viewBox="0 0 40 40"
	 overflow="visible" enable-background="new 0 0 40 40" xml:space="preserve">
<path fill="#8BA340" d="M36,0H4C1.8,0,0,1.8,0,4v32c0,2.2,1.8,4,4,4h32c2.2,0,4-1.8,4-4V4C40,1.8,38.2,0,36,0z M36,35
	c0,0.55-0.45,1-1,1H5c-0.55,0-1-0.45-1-1V5c0-0.55,0.45-1,1-1h30c0.55,0,1,0.45,1,1V35z M7.063,14.34l1.227,2.445L19.5,11.376v3.649
	C14.211,15.288,10,19.646,10,25c0,5.522,4.478,10,10,10s10-4.478,10-10c0-5.354-4.211-9.712-9.5-9.975v-3.649l11.211,5.409
	l1.228-2.445L20,7.865L7.063,14.34z M6,11.998l0.611,1.223c0,0,12.805-6.4,13.389-6.689c0.584,0.289,13.386,6.689,13.386,6.689
	L34,11.998L20,5L6,11.998z"/>
</svg>
