<?xml version="1.0" encoding="utf-8"?>
<!-- Generator: Adobe Illustrator 12.0.0, SVG Export Plug-In . SVG Version: 6.00 Build 51448)  -->
<!DOCTYPE svg PUBLIC "-//W3C//DTD SVG 1.1//EN" "http://www.w3.org/Graphics/SVG/1.1/DTD/svg11.dtd" [
	<!ENTITY ns_svg "http://www.w3.org/2000/svg">
	<!ENTITY ns_xlink "http://www.w3.org/1999/xlink">
]>
<svg  version="1.1" id="shizuku" xmlns="&ns_svg;" xmlns:xlink="&ns_xlink;" width="40" height="40" viewBox="0 0 40 40"
	 overflow="visible" enable-background="new 0 0 40 40" xml:space="preserve">
<path fill="#E05314" d="M36,0H4C1.8,0,0,1.8,0,4v32c0,2.2,1.8,4,4,4h32c2.2,0,4-1.8,4-4V4C40,1.8,38.2,0,36,0z M36,35
	c0,0.55-0.45,1-1,1H5c-0.55,0-1-0.45-1-1V5c0-0.55,0.45-1,1-1h14.5v5.237c-0.259,0.07-0.415,0.169-0.592,0.131
	c-0.294-0.063-1.703-1.132-1.561,0.692c0.128,1.57,0.96,2.045,1.193,2.149c-0.118,0.015-0.226,0.071-0.273,0.163
	c-0.067,0.131,0.02,0.275,0.192,0.331c-0.083,0.026-0.155,0.077-0.192,0.145c-0.056,0.112,0,0.233,0.123,0.303
	c-0.052,0.028-0.096,0.065-0.123,0.112c-0.048,0.095-0.014,0.196,0.072,0.267C13.933,15.064,13,22.38,13,24.681
	c0,7.313,3.039,10.283,7,10.317c0.022,0,0.044,0.002,0.065,0.002C24.061,35,27,32.39,27,24.681c0-2.339-0.826-9.619-5.205-11.153
	c0.084-0.07,0.117-0.171,0.069-0.265c-0.024-0.047-0.069-0.084-0.121-0.112c0.122-0.068,0.179-0.19,0.121-0.303
	c-0.036-0.067-0.106-0.118-0.192-0.145c0.174-0.056,0.26-0.2,0.192-0.331c-0.045-0.088-0.146-0.142-0.256-0.161
	c0.716-0.58,1.565-2.18,1.108-2.78c-0.336-0.443-0.974,0.053-1.392-0.125C20.91,9.13,20.888,9.195,20.5,9.195V4H35
	c0.55,0,1,0.45,1,1V35z"/>
</svg>
