<?xml version="1.0" encoding="utf-8"?>
<!-- Generator: Adobe Illustrator 12.0.0, SVG Export Plug-In . SVG Version: 6.00 Build 51448)  -->
<!DOCTYPE svg PUBLIC "-//W3C//DTD SVG 1.1//EN" "http://www.w3.org/Graphics/SVG/1.1/DTD/svg11.dtd" [
	<!ENTITY ns_svg "http://www.w3.org/2000/svg">
	<!ENTITY ns_xlink "http://www.w3.org/1999/xlink">
]>
<svg  version="1.1" id="レイヤー_1" xmlns="&ns_svg;" xmlns:xlink="&ns_xlink;" width="34" height="30" viewBox="0 0 34 30"
	 overflow="visible" enable-background="new 0 0 34 30" xml:space="preserve">
<path fill="#3F3F3F" d="M33.735,8.37c-0.216-0.257-0.531-0.404-0.868-0.404h-5.871V7.289c0-2.708-1.875-4.961-4.39-5.557
	C22.286,0.73,21.361,0,20.256,0h-6.513c-1.105,0-2.031,0.73-2.35,1.732C8.882,2.328,7.005,4.581,7.005,7.289v0.677H1.133
	c-0.337,0-0.65,0.147-0.868,0.404C0.05,8.63-0.041,8.967,0.018,9.298l3.396,19.757C3.512,29.602,3.982,30,4.533,30h24.935
	c0.549,0,1.022-0.398,1.115-0.944l3.4-19.757C34.042,8.967,33.95,8.63,33.735,8.37z M8.643,27.72H5.486l-0.757-4.393h3.914V27.72z
	 M8.643,21.049H4.338l-0.709-4.132h5.014V21.049z M8.643,14.637H3.235l-0.757-4.392h6.165V14.637z M15.867,27.72h-4.958v-4.393
	h4.958V27.72z M15.867,21.049h-4.958v-4.132h4.958V21.049z M15.867,14.637h-4.958v-4.392h4.958V14.637z M23.093,27.72h-4.961v-4.393
	h4.961V27.72z M23.093,21.049h-4.961v-4.132h4.961V21.049z M23.093,14.637h-4.961v-4.392h4.961V14.637z M24.728,7.966H9.272V7.289
	c0.002-1.576,1.063-2.89,2.5-3.298c0.452,0.602,1.16,0.995,1.971,0.995h6.513c0.81,0,1.521-0.394,1.972-0.995
	c1.438,0.408,2.498,1.722,2.5,3.298V7.966z M28.513,27.72h-3.156v-4.393h3.912L28.513,27.72z M29.662,21.049h-4.305v-4.132h5.017
	L29.662,21.049z M30.765,14.637h-5.408v-4.392h6.164L30.765,14.637z"/>
</svg>
