<?xml version="1.0" encoding="utf-8"?>
<!-- Generator: Adobe Illustrator 12.0.0, SVG Export Plug-In  -->
<!DOCTYPE svg PUBLIC "-//W3C//DTD SVG 1.1//EN" "http://www.w3.org/Graphics/SVG/1.1/DTD/svg11.dtd" [
	<!ENTITY ns_flows "http://ns.adobe.com/Flows/1.0/">
	<!ENTITY ns_svg "http://www.w3.org/2000/svg">
	<!ENTITY ns_xlink "http://www.w3.org/1999/xlink">
]>
<svg  version="1.1" xmlns="&ns_svg;" xmlns:xlink="&ns_xlink;" xmlns:a="http://ns.adobe.com/AdobeSVGViewerExtensions/3.0/"
	 width="25" height="31" viewBox="-0.826 -0.191 25 31" enable-background="new -0.826 -0.191 25 31" xml:space="preserve">
<defs>
</defs>
<path fill="#3F3F3F" d="M14.326,12.974c-4.116-3.52-4.762-8.859-2-12.974c-0.957,0.458-1.846,1.033-2.645,1.712
	c-4.921,4.21-4.921,11.033,0,15.234c4.119,3.516,4.771,8.859,2.002,12.975c0.954-0.462,1.844-1.031,2.643-1.716
	C19.25,23.999,19.25,17.181,14.326,12.974z M5.719,17.574c-2.975-2.124-4.008-5.896-2.775-9.123
	c-0.541,0.42-1.027,0.918-1.446,1.491c-2.562,3.5-1.755,8.405,1.804,10.938C6.28,23.003,7.318,26.777,6.078,30
	c0.546-0.422,1.027-0.924,1.443-1.484C10.087,25.011,9.283,20.111,5.719,17.574z M20.854,10.411C17.83,7.846,16.942,3.551,18.422,0
	c-0.599,0.442-1.133,0.974-1.605,1.585c-2.893,3.779-2.309,9.334,1.309,12.394c3.021,2.558,3.915,6.868,2.436,10.41
	c0.592-0.442,1.13-0.975,1.597-1.586C25.055,19.024,24.472,13.477,20.854,10.411z"/>
</svg>
