<?xml version="1.0" encoding="utf-8"?>
<!-- Generator: Adobe Illustrator 12.0.0, SVG Export Plug-In . SVG Version: 6.00 Build 51448)  -->
<!DOCTYPE svg PUBLIC "-//W3C//DTD SVG 1.1//EN" "http://www.w3.org/Graphics/SVG/1.1/DTD/svg11.dtd" [
	<!ENTITY ns_svg "http://www.w3.org/2000/svg">
	<!ENTITY ns_xlink "http://www.w3.org/1999/xlink">
]>
<svg  version="1.1" id="sparkling" xmlns="&ns_svg;" xmlns:xlink="&ns_xlink;" width="40" height="40" viewBox="0 0 40 40"
	 overflow="visible" enable-background="new 0 0 40 40" xml:space="preserve">
<path fill="#804AC6" d="M36,0H4C1.8,0,0,1.8,0,4v32c0,2.2,1.8,4,4,4h32c2.2,0,4-1.8,4-4V4C40,1.8,38.2,0,36,0z M36,35
	c0,0.55-0.45,1-1,1H5c-0.55,0-1-0.45-1-1V5c0-0.55,0.45-1,1-1h30c0.55,0,1,0.45,1,1V35z M22,21c-1.656,0-3,1.344-3,3s1.344,3,3,3
	s3-1.344,3-3S23.656,21,22,21z M16,13c-1.656,0-3,1.344-3,3s1.344,3,3,3s3-1.344,3-3S17.656,13,16,13z M28,8c-2.209,0-4,1.791-4,4
	s1.791,4,4,4s4-1.791,4-4S30.209,8,28,8z M14,28c-1.104,0-2,0.896-2,2s0.896,2,2,2s2-0.896,2-2S15.104,28,14,28z"/>
</svg>
