<?xml version="1.0" encoding="utf-8"?>
<!-- Generator: Adobe Illustrator 12.0.0, SVG Export Plug-In . SVG Version: 6.00 Build 51448)  -->
<!DOCTYPE svg PUBLIC "-//W3C//DTD SVG 1.1//EN" "http://www.w3.org/Graphics/SVG/1.1/DTD/svg11.dtd" [
	<!ENTITY ns_svg "http://www.w3.org/2000/svg">
	<!ENTITY ns_xlink "http://www.w3.org/1999/xlink">
]>
<svg  version="1.1" id="store30" xmlns="&ns_svg;" xmlns:xlink="&ns_xlink;" width="34" height="30" viewBox="0 0 34 30"
	 overflow="visible" enable-background="new 0 0 34 30" xml:space="preserve">
<path fill="#b2b2b2" d="M33.734,8.37c-0.215-0.257-0.53-0.404-0.867-0.404h-5.873V7.289c0-2.708-1.875-4.961-4.388-5.557
	C22.286,0.73,21.361,0,20.256,0h-6.514c-1.105,0-2.031,0.73-2.351,1.732c-2.51,0.596-4.387,2.849-4.387,5.557v0.676H1.133
	c-0.337,0-0.65,0.147-0.868,0.404C0.05,8.629-0.041,8.966,0.018,9.298l3.396,19.757C3.511,29.601,3.982,30,4.533,30h24.934
	c0.551,0,1.024-0.398,1.117-0.944l3.399-19.757C34.041,8.966,33.949,8.629,33.734,8.37z M8.643,27.719H5.486l-0.757-4.393h3.914
	V27.719z M8.643,21.048H4.337l-0.709-4.132h5.015V21.048z M8.643,14.636H3.235l-0.756-4.392h6.165V14.636z M15.866,27.719h-4.958
	v-4.393h4.958V27.719z M15.866,21.048h-4.958v-4.132h4.958V21.048z M15.866,14.636h-4.958v-4.392h4.958V14.636z M23.092,27.719
	h-4.96v-4.393h4.96V27.719z M23.092,21.048h-4.96v-4.132h4.96V21.048z M23.092,14.636h-4.96v-4.392h4.96V14.636z M24.726,7.965
	H9.271V7.289c0.002-1.576,1.063-2.89,2.5-3.298c0.452,0.602,1.16,0.995,1.972,0.995h6.514c0.81,0,1.521-0.394,1.972-0.995
	c1.436,0.408,2.496,1.722,2.498,3.298V7.965z M28.511,27.719h-3.156v-4.393h3.912L28.511,27.719z M29.66,21.048h-4.305v-4.132h5.019
	L29.66,21.048z M30.765,14.636h-5.41v-4.392h6.166L30.765,14.636z"/>
</svg>
