<?xml version="1.0" encoding="utf-8"?>
<!-- Generator: Adobe Illustrator 12.0.0, SVG Export Plug-In . SVG Version: 6.00 Build 51448)  -->
<!DOCTYPE svg PUBLIC "-//W3C//DTD SVG 1.1//EN" "http://www.w3.org/Graphics/SVG/1.1/DTD/svg11.dtd" [
	<!ENTITY ns_svg "http://www.w3.org/2000/svg">
	<!ENTITY ns_xlink "http://www.w3.org/1999/xlink">
]>
<svg  version="1.1" id="store20" xmlns="&ns_svg;" xmlns:xlink="&ns_xlink;" width="24" height="20" viewBox="0 0 24 20"
	 overflow="visible" enable-background="new 0 0 24 20" xml:space="preserve">
<path fill="#b2b2b2" d="M23.817,5.577C23.662,5.408,23.44,5.31,23.2,5.31h-4.143V4.857c0-1.801-1.323-3.305-3.098-3.701
	C15.735,0.486,15.077,0,14.3,0H9.699C8.922,0,8.265,0.486,8.041,1.156c-1.774,0.396-3.099,1.9-3.099,3.701V5.31H0.8
	c-0.241,0-0.459,0.099-0.617,0.268c-0.151,0.175-0.212,0.401-0.17,0.624l2.398,13.167C2.474,19.736,2.807,20,3.201,20h17.599
	c0.393,0,0.728-0.264,0.786-0.632l2.401-13.167C24.028,5.979,23.968,5.752,23.817,5.577z M6.097,18.481H3.872l-0.534-2.928h2.76
	V18.481z M6.097,14.033H3.058l-0.501-2.754h3.54V14.033z M6.097,9.756H2.284L1.75,6.827h4.347V9.756z M11.203,18.481H7.699v-2.928
	h3.504V18.481z M11.203,14.033H7.699v-2.754h3.504V14.033z M11.203,9.756H7.699V6.827h3.504V9.756z M16.299,18.481h-3.501v-2.928
	h3.501V18.481z M16.299,14.033h-3.501v-2.754h3.501V14.033z M16.299,9.756h-3.501V6.827h3.501V9.756z M17.454,5.31H6.545V4.857
	c0.002-1.049,0.75-1.923,1.761-2.194C8.627,3.06,9.13,3.326,9.699,3.326H14.3c0.568,0,1.073-0.267,1.393-0.663
	c1.012,0.271,1.76,1.146,1.761,2.194V5.31z M20.126,18.481h-2.225v-2.928h2.757L20.126,18.481z M20.938,14.033h-3.036v-2.754h3.542
	L20.938,14.033z M21.714,9.756h-3.813V6.827h4.346L21.714,9.756z"/>
</svg>
