<?xml version="1.0" encoding="utf-8"?>
<!-- Generator: Adobe Illustrator 12.0.0, SVG Export Plug-In  -->
<!DOCTYPE svg PUBLIC "-//W3C//DTD SVG 1.1//EN" "http://www.w3.org/Graphics/SVG/1.1/DTD/svg11.dtd" [
	<!ENTITY ns_flows "http://ns.adobe.com/Flows/1.0/">
	<!ENTITY ns_svg "http://www.w3.org/2000/svg">
	<!ENTITY ns_xlink "http://www.w3.org/1999/xlink">
]>
<svg  version="1.1" xmlns="&ns_svg;" xmlns:xlink="&ns_xlink;" xmlns:a="http://ns.adobe.com/AdobeSVGViewerExtensions/3.0/"
	 width="21" height="21" viewBox="-0.528 -0.277 21 21" enable-background="new -0.528 -0.277 21 21" xml:space="preserve">
<defs>
</defs>
<path fill="#B1B1B2" d="M19.217,4.429c0.152-0.295,0.108-0.795-0.141-1.275c-0.242-0.467-0.612-0.777-0.926-0.822
	c-0.041-0.051-0.078-0.105-0.123-0.156c-0.021-0.021-0.045-0.041-0.064-0.064c-0.039-0.307-0.254-0.67-0.602-0.963
	c-0.422-0.352-0.904-0.48-1.211-0.359c-0.103-0.051-0.207-0.098-0.316-0.137c-0.161-0.26-0.508-0.492-0.945-0.598
	c-0.52-0.123-0.996-0.029-1.23,0.205c-0.43-0.002-0.871,0.031-1.317,0.113c-1.28,0.234-2.566,0.789-3.714,1.602
	C8.112,2.339,7.611,2.781,7.103,3.318C6.678,3.765,6.256,4.265,5.813,4.841C5.065,5.818,4.342,6.89,3.607,8.121
	C3.214,8.783,2.904,9.333,2.641,9.859c-0.091,0.181-0.161,0.322-0.23,0.486c0,0,0.001-0.002,0.003-0.004
	c-0.004,0.006-0.017,0.039-0.083,0.213c0.033-0.162,0.066-0.324,0.098-0.48c0.388-1.808,0.781-3.261,1.23-4.572
	c0.313-0.896,0.586-1.566,0.89-2.18c0.36-0.75,0.521-1.008,0.78-1.35c0.263-0.338,0.788-1.018,0.788-1.018S5.463,1.025,5.202,1.16
	C4.936,1.296,4.479,1.634,4.217,1.906C3.955,2.177,3.432,2.787,3.17,3.193C2.904,3.601,2.553,4.216,2.207,5.001
	C1.582,6.404,1.1,7.945,0.723,9.714c-0.326,1.537-0.541,3.171-0.651,4.857C0.025,15.374,0,16.112,0,16.81
	c0,0.783,0.03,1.52,0.091,2.229c-0.006,0.035-0.085,0.832-0.085,0.832l1.523,0.129l0.062-0.871l-0.002,0.004
	c0.006-0.027,0.007-0.055,0.007-0.072l0.039-0.402c0,0,0.026-0.227,0.027-0.23c0.437-0.762,0.895-1.518,1.359-2.244l0.047-0.066
	c0.344-0.527,0.708-1.072,1.092-1.596c0.46-0.641,0.854-1.154,1.254-1.629c0.432-0.533,0.901-1.063,1.402-1.576
	c0.463-0.486,1.725-1.884,2.248-2.291c0.523-0.404,1.898-1.422,1.898-1.422c-0.784-0.07-2.031,0.539-2.031,0.539
	S8.151,8.511,7.47,9.029C6.893,9.457,6.338,9.935,5.67,10.573c-0.5,0.49-0.994,1.029-1.509,1.646
	c-0.476,0.586-0.9,1.158-1.276,1.713c-0.196,0.301-0.371,0.574-0.527,0.828c0.078-0.266,0.215-0.744,0.215-0.744
	c0.188-0.611,0.386-1.234,0.586-1.844l0.305-0.916l0.158-0.443c0.045-0.115,0.104-0.24,0.177-0.396
	C4.04,9.911,4.323,9.378,4.682,8.738c0.684-1.209,1.36-2.26,2.057-3.217c0.408-0.559,0.795-1.035,1.181-1.465
	c0.454-0.502,0.894-0.906,1.343-1.24c0.549-0.41,1.135-0.752,1.747-1.018c0.183,0.012,0.366,0.037,0.548,0.078
	c0.363,0.082,0.695,0.221,0.982,0.412c-0.307,0.133-0.556,0.605-0.592,1.186c-0.02,0.361,0.048,0.689,0.168,0.928
	c-0.175,0.197-0.314,0.492-0.386,0.836c-0.144,0.689,0.054,1.318,0.44,1.406c0.383,0.084,0.813-0.404,0.957-1.094
	c0.082-0.396,0.05-0.766-0.066-1.029c0.173-0.225,0.293-0.563,0.316-0.957c0.008-0.123,0.001-0.244-0.012-0.359
	c0.047,0.082,0.092,0.162,0.131,0.25c-0.094,0.279-0.092,0.668,0.033,1.066c0.109,0.322,0.273,0.592,0.459,0.768
	c-0.236,0.199-0.42,0.598-0.459,1.072c-0.047,0.563,0.117,1.051,0.385,1.246c-0.236,0.201-0.412,0.617-0.432,1.111
	c-0.032,0.705,0.262,1.289,0.658,1.308c0.395,0.02,0.736-0.539,0.768-1.244c0.022-0.551-0.153-1.021-0.422-1.215
	c0.242-0.197,0.427-0.598,0.469-1.076c0.034-0.432-0.055-0.822-0.219-1.072c0.266-0.223,0.336-0.783,0.152-1.363
	c-0.104-0.326-0.271-0.592-0.456-0.771c-0.044-0.15-0.083-0.301-0.136-0.457c-0.131-0.375-0.3-0.75-0.514-1.143
	c-0.045-0.088-0.092-0.168-0.138-0.252c0.196,0.107,0.392,0.234,0.587,0.379c0.02,0.014,0.039,0.033,0.059,0.051
	c-0.111,0.318,0.031,0.822,0.391,1.252c0.341,0.412,0.773,0.631,1.093,0.592c0.001,0.014,0.004,0.021,0.009,0.033
	c-0.229,0.236-0.328,0.729-0.226,1.258c0.08,0.42,0.266,0.762,0.483,0.955c0,0.131-0.004,0.271-0.012,0.41
	c-0.15,0.225-0.259,0.547-0.28,0.916c-0.032,0.551,0.139,1.029,0.405,1.225c-0.295,0.148-0.531,0.609-0.563,1.174
	c-0.031,0.552,0.137,1.027,0.398,1.224c-0.001-0.002-0.003-0.004-0.007-0.004c-0.392-0.023-0.745,0.525-0.784,1.23
	c-0.044,0.707,0.244,1.297,0.635,1.322c0.396,0.021,0.75-0.527,0.793-1.23c0.027-0.551-0.137-1.025-0.402-1.223
	c0,0,0.006,0.002,0.008,0.002c0.395,0.023,0.746-0.527,0.786-1.232c0.032-0.553-0.138-1.029-0.403-1.225
	c0.272-0.137,0.488-0.541,0.547-1.049c0.117,0.436,0.359,0.756,0.625,0.836c-0.164,0.236-0.27,0.604-0.259,1.014
	c0.017,0.705,0.349,1.269,0.742,1.259c0.395-0.008,0.7-0.588,0.688-1.292c-0.019-0.631-0.28-1.145-0.624-1.242
	c0.156-0.252,0.234-0.65,0.18-1.08c-0.063-0.508-0.285-0.92-0.551-1.094c0.233-0.256,0.234-0.82-0.02-1.369
	c-0.293-0.637-0.82-1.008-1.179-0.832c-0.024,0.014-0.047,0.033-0.071,0.053c-0.164-0.281-0.342-0.547-0.527-0.801
	c-0.053-0.254-0.188-0.535-0.4-0.793c-0.264-0.313-0.576-0.512-0.85-0.574c-0.01-0.012-0.022-0.021-0.039-0.033
	c0.234,0.018,0.448-0.006,0.622-0.07c0.153,0.057,0.309,0.105,0.456,0.176c0.104,0.225,0.273,0.455,0.51,0.65
	c0.307,0.26,0.65,0.398,0.932,0.408c0,0.002,0,0.002,0,0.002c0.07,0.076,0.129,0.156,0.194,0.234
	c-0.013,0.271,0.06,0.596,0.228,0.91c0.254,0.49,0.645,0.803,0.969,0.822c-0.168,0.248-0.259,0.646-0.219,1.088
	c0.059,0.703,0.43,1.24,0.828,1.203c0.391-0.039,0.656-0.637,0.595-1.342C19.929,4.957,19.59,4.441,19.217,4.429z"/>
<path fill="#B1B1B2" d="M12.88,1.802c-0.229-0.162-0.476-0.291-0.745-0.396c0.133-0.033,0.262-0.07,0.396-0.098
	c0,0,0.14-0.023,0.249-0.043c0.156,0.225,0.313,0.463,0.461,0.723c0.047,0.082,0.086,0.164,0.128,0.246
	C13.217,2.072,13.056,1.927,12.88,1.802z"/>
<path fill="#B1B1B2" d="M16.928,5.609c0.063,0.07,0.126,0.133,0.188,0.188l0.018,0.039l0.02-0.008
	c0.068,0.059,0.144,0.107,0.217,0.145c-0.139,0.148-0.236,0.385-0.273,0.676c-0.098-0.313-0.273-0.527-0.486-0.584
	C16.752,5.986,16.866,5.826,16.928,5.609z"/>
</svg>
