<?xml version="1.0" encoding="utf-8"?>
<!-- Generator: Adobe Illustrator 12.0.0, SVG Export Plug-In  -->
<!DOCTYPE svg PUBLIC "-//W3C//DTD SVG 1.1//EN" "http://www.w3.org/Graphics/SVG/1.1/DTD/svg11.dtd" [
	<!ENTITY ns_flows "http://ns.adobe.com/Flows/1.0/">
	<!ENTITY ns_svg "http://www.w3.org/2000/svg">
	<!ENTITY ns_xlink "http://www.w3.org/1999/xlink">
]>
<svg  version="1.1" xmlns="&ns_svg;" xmlns:xlink="&ns_xlink;" xmlns:a="http://ns.adobe.com/AdobeSVGViewerExtensions/3.0/"
	 width="30" height="26" viewBox="0 0 35 30" enable-background="new 0 0 35 30" xml:space="preserve">
<defs>
</defs>
<path fill="#B1B1B2" d="M33.734,8.37c-0.215-0.257-0.531-0.404-0.869-0.404h-5.871V7.289c0-2.708-1.875-4.961-4.389-5.557
	C22.285,0.73,21.361,0,20.255,0h-6.514c-1.104,0-2.029,0.73-2.35,1.732C8.88,2.328,7.005,4.582,7.005,7.289v0.677H1.132
	c-0.336,0-0.65,0.147-0.867,0.404C0.05,8.63-0.042,8.967,0.017,9.298l3.396,19.757C3.511,29.602,3.982,30,4.533,30h24.936
	c0.547,0,1.021-0.398,1.113-0.944l3.402-19.757C34.041,8.967,33.949,8.63,33.734,8.37z M8.642,27.72H5.486L4.73,23.327h3.912V27.72z
	 M8.642,21.049H4.337l-0.709-4.132h5.014V21.049z M8.642,14.637H3.236l-0.758-4.392h6.164V14.637z M15.867,27.72h-4.959v-4.393
	h4.959V27.72z M15.867,21.049h-4.959v-4.132h4.959V21.049z M15.867,14.637h-4.959v-4.392h4.959V14.637z M23.091,27.72h-4.959v-4.393
	h4.959V27.72z M23.091,21.049h-4.959v-4.132h4.959V21.049z M23.091,14.637h-4.959v-4.392h4.959V14.637z M24.726,7.966H9.271V7.289
	c0.002-1.576,1.063-2.89,2.5-3.298c0.453,0.602,1.162,0.995,1.971,0.995h6.514c0.811,0,1.521-0.394,1.973-0.995
	c1.436,0.408,2.496,1.722,2.498,3.298V7.966z M28.511,27.72h-3.156v-4.393h3.914L28.511,27.72z M29.66,21.049h-4.305v-4.132h5.018
	L29.66,21.049z M30.763,14.637h-5.408v-4.392h6.164L30.763,14.637z"/>
</svg>
