<?xml version="1.0" encoding="utf-8"?>
<!-- Generator: Adobe Illustrator 12.0.0, SVG Export Plug-In . SVG Version: 6.00 Build 51448)  -->
<!DOCTYPE svg PUBLIC "-//W3C//DTD SVG 1.1//EN" "http://www.w3.org/Graphics/SVG/1.1/DTD/svg11.dtd" [
	<!ENTITY ns_svg "http://www.w3.org/2000/svg">
	<!ENTITY ns_xlink "http://www.w3.org/1999/xlink">
]>
<svg  version="1.1" id="telephone" xmlns="&ns_svg;" xmlns:xlink="&ns_xlink;" width="16" height="16" viewBox="0 0 16 16"
	 overflow="visible" enable-background="new 0 0 16 16" xml:space="preserve">
<path fill="#B2B2B2" d="M0.664,1.194c-1.035,1.033-0.754,3.514,0.121,5.4c0.68,1.469,1.871,3.381,3.551,5.062
	c1.582,1.581,3.593,2.872,5.061,3.556c1.887,0.878,4.371,1.161,5.406,0.128C15.326,14.815,16,13.549,16,13.348
	c0,0-0.701-0.704-0.857-0.856l-2.355-2.355c-0.174-0.175-0.961,0.186-1.33,0.513c-0.5,0.441-0.836,1.411-0.836,1.411
	c-0.342,0.308-0.715,0.152-1.461-0.017c-0.919-0.203-2.11-1.199-3.088-2.121C5.15,8.945,4.158,7.751,3.953,6.835
	c-0.17-0.745-0.32-1.119-0.014-1.458c0,0,0.973-0.336,1.414-0.834c0.326-0.369,0.688-1.155,0.514-1.33L3.511,0.857
	C3.357,0.703,2.656,0,2.656,0C2.453,0,1.187,0.671,0.664,1.194z"/>
</svg>
