<?xml version="1.0" encoding="utf-8"?>
<!-- Generator: Adobe Illustrator 12.0.0, SVG Export Plug-In  -->
<!DOCTYPE svg PUBLIC "-//W3C//DTD SVG 1.1//EN" "http://www.w3.org/Graphics/SVG/1.1/DTD/svg11.dtd" [
	<!ENTITY ns_flows "http://ns.adobe.com/Flows/1.0/">
	<!ENTITY ns_svg "http://www.w3.org/2000/svg">
	<!ENTITY ns_xlink "http://www.w3.org/1999/xlink">
]>
<svg  version="1.1" xmlns="&ns_svg;" xmlns:xlink="&ns_xlink;" xmlns:a="http://ns.adobe.com/AdobeSVGViewerExtensions/3.0/"
	 width="25" height="22" viewBox="-0.853 -0.073 25 22" enable-background="new -0.853 -0.073 25 22" xml:space="preserve">
<defs>
</defs>
<path fill="#B1B1B2" d="M12.838,15.961l1.793,2.052l1.794-2.052l-1.794-2.052L12.838,15.961z M7.457,15.961l1.794,2.052l1.793-2.052
	l-1.793-2.052L7.457,15.961z M16.117,10.157h-2.973l1.486,1.7L16.117,10.157z M10.737,10.157H7.765l1.486,1.7L10.737,10.157z
	 M11.941,14.936l1.793-2.053l-1.793-2.052l-1.794,2.052L11.941,14.936z M11.939,0L0,10.408l1.99,1.735l0.998-0.869v10.492h17.905
	V11.273l0.998,0.87l1.992-1.735L11.939,0z M4.904,19.35v-0.151l0.133,0.151H4.904z M18.979,19.35h-0.133l0.133-0.151V19.35z
	 M18.979,10.157h-0.451l0.451,0.516v2.052l-1.656-1.894l-1.794,2.052l1.794,2.053l1.656-1.895v2.051l-0.76,0.869l0.76,0.869v2.053
	l-1.656-1.896l-1.794,2.053l0.271,0.311h-2.336l0.271-0.311l-1.793-2.053l-1.794,2.053l0.271,0.311H8.083l0.271-0.311L6.56,16.986
	l-1.655,1.896V16.83l0.759-0.869l-0.759-0.867v-2.053l1.655,1.895l1.794-2.053L6.56,10.831l-1.655,1.894v-2.052l0.451-0.516H4.904
	V9.603l7.035-6.132l7.039,6.133V10.157z"/>
</svg>
