<?xml version="1.0" encoding="utf-8"?>
<!-- Generator: Adobe Illustrator 12.0.0, SVG Export Plug-In  -->
<!DOCTYPE svg PUBLIC "-//W3C//DTD SVG 1.1//EN" "http://www.w3.org/Graphics/SVG/1.1/DTD/svg11.dtd" [
	<!ENTITY ns_flows "http://ns.adobe.com/Flows/1.0/">
	<!ENTITY ns_svg "http://www.w3.org/2000/svg">
	<!ENTITY ns_xlink "http://www.w3.org/1999/xlink">
]>
<svg  version="1.1" xmlns="&ns_svg;" xmlns:xlink="&ns_xlink;" xmlns:a="http://ns.adobe.com/AdobeSVGViewerExtensions/3.0/"
	 width="41" height="41" viewBox="-0.232 -0.148 41 41" enable-background="new -0.232 -0.148 41 41" xml:space="preserve">
<defs>
</defs>
<path fill="#899B3D" d="M29.658,16.429c0.121-0.487,0.199-0.986,0.199-1.513c0-2.549-1.693-4.687-3.977-5.267
	c-0.625-2.769-3.019-4.833-5.877-4.833c-2.865,0-5.252,2.063-5.884,4.833c-2.283,0.58-3.976,2.718-3.976,5.267
	c0,0.526,0.084,1.025,0.205,1.513C8.931,17.572,8,19.363,8,21.384c0,3.466,2.708,6.277,6.045,6.277c0.848,0,1.653-0.178,2.386-0.503
	c0.372,0.33,2.104,0.613,2.568,0.832v6.828h2V27.99c0.464-0.22,2.201-0.501,2.568-0.833c0.734,0.326,1.547,0.503,2.391,0.503
	c3.334,0,6.041-2.812,6.041-6.277C32,19.363,31.07,17.572,29.658,16.429z M36,0H4C1.8,0,0,1.8,0,4v32c0,2.2,1.8,4,4,4h32
	c2.2,0,4-1.8,4-4V4C40,1.8,38.2,0,36,0z M36,35c0,0.55-0.45,1-1,1H5c-0.55,0-1-0.45-1-1V5c0-0.55,0.45-1,1-1h30c0.55,0,1,0.45,1,1
	V35z"/>
</svg>
