<?xml version="1.0" encoding="utf-8"?>
<!-- Generator: Adobe Illustrator 12.0.0, SVG Export Plug-In  -->
<!DOCTYPE svg PUBLIC "-//W3C//DTD SVG 1.1//EN" "http://www.w3.org/Graphics/SVG/1.1/DTD/svg11.dtd" [
	<!ENTITY ns_flows "http://ns.adobe.com/Flows/1.0/">
	<!ENTITY ns_svg "http://www.w3.org/2000/svg">
	<!ENTITY ns_xlink "http://www.w3.org/1999/xlink">
]>
<svg  version="1.1" xmlns="&ns_svg;" xmlns:xlink="&ns_xlink;" xmlns:a="http://ns.adobe.com/AdobeSVGViewerExtensions/3.0/"
	 width="31" height="31" viewBox="-0.913 -0.917 31 31" enable-background="new -0.913 -0.917 31 31" xml:space="preserve">
<defs>
</defs>
<path fill="#3F3F3F" d="M25.084,17.655c-0.88-0.879-2.298-0.879-3.178,0s-0.879,2.308,0,3.188c0.88,0.879,2.298,0.879,3.178,0
	C25.965,19.963,25.965,18.534,25.084,17.655z"/>
<path fill="#3F3F3F" d="M26.156,21.903c-0.876,0.874-0.877,2.279-0.024,3.159c0.986-1.085,1.811-2.314,2.438-3.657
	C27.767,21.083,26.806,21.253,26.156,21.903z"/>
<path fill="#3F3F3F" d="M26.156,16.596c0.879,0.879,2.297,0.879,3.177,0c0.891-0.88,0.891-2.31,0-3.188
	c-0.88-0.88-2.298-0.88-3.177,0C25.275,14.286,25.276,15.716,26.156,16.596z"/>
<path fill="#3F3F3F" d="M21.908,12.348c0.879,0.879,2.296,0.879,3.177,0c0.881-0.88,0.879-2.311,0-3.188
	c-0.88-0.88-2.298-0.882-3.177,0C21.027,10.038,21.028,11.468,21.908,12.348z"/>
<path fill="#3F3F3F" d="M3.841,8.099C4.717,7.224,4.719,5.819,3.866,4.94C2.879,6.024,2.054,7.254,1.429,8.598
	C2.23,8.918,3.19,8.749,3.841,8.099z"/>
<path fill="#3F3F3F" d="M3.841,21.903c-0.649-0.65-1.611-0.82-2.412-0.498c0.625,1.342,1.45,2.572,2.437,3.657
	C4.719,24.175,4.717,22.777,3.841,21.903z"/>
<path fill="#3F3F3F" d="M16.586,12.348c0.883-0.88,0.881-2.311,0-3.188c-0.878-0.88-2.296-0.882-3.177,0
	c-0.881,0.879-0.88,2.309,0,3.188C14.291,13.227,15.708,13.227,16.586,12.348z"/>
<path fill="#3F3F3F" d="M8.089,26.151c-0.861-0.869-2.266-0.872-3.145-0.019c1.084,0.982,2.314,1.806,3.644,2.445
	C8.91,27.763,8.753,26.808,8.089,26.151z"/>
<path fill="#3F3F3F" d="M8.089,3.851c0.664-0.658,0.82-1.61,0.499-2.426c-1.331,0.639-2.56,1.46-3.644,2.442
	C5.824,4.72,7.228,4.72,8.089,3.851z"/>
<path fill="#3F3F3F" d="M21.907,3.851c0.862,0.867,2.268,0.872,3.147,0.017c-1.085-0.982-2.314-1.804-3.646-2.442
	C21.087,2.24,21.245,3.195,21.907,3.851z"/>
<path fill="#3F3F3F" d="M26.156,8.099c0.65,0.65,1.61,0.82,2.413,0.499c-0.627-1.344-1.451-2.573-2.438-3.657
	C25.277,5.819,25.28,7.226,26.156,8.099z"/>
<path fill="#3F3F3F" d="M9.16,13.407c-0.88,0.879-0.879,2.309,0,3.188c0.881,0.879,2.299,0.879,3.179,0c0.88-0.88,0.88-2.31,0-3.188
	C11.459,12.527,10.042,12.527,9.16,13.407z"/>
<path fill="#3F3F3F" d="M16.586,20.844c0.881-0.881,0.881-2.31,0-3.188c-0.878-0.879-2.296-0.879-3.177,0
	c-0.88,0.879-0.88,2.308,0,3.188C14.289,21.723,15.708,21.723,16.586,20.844z"/>
<path fill="#3F3F3F" d="M12.338,21.903c-0.879-0.879-2.296-0.879-3.179,0c-0.88,0.879-0.879,2.31,0.002,3.188
	c0.879,0.88,2.297,0.88,3.177,0C13.218,24.213,13.217,22.782,12.338,21.903z"/>
<path fill="#3F3F3F" d="M12.338,8.099c0.88-0.879,0.88-2.31,0-3.189c-0.879-0.878-2.296-0.881-3.179,0
	C8.28,5.79,8.281,7.22,9.162,8.099C10.041,8.978,11.459,8.979,12.338,8.099z"/>
<path fill="#3F3F3F" d="M21.908,26.151c-0.663,0.656-0.82,1.611-0.5,2.427c1.332-0.64,2.562-1.463,3.646-2.445
	C24.174,25.282,22.77,25.282,21.908,26.151z"/>
<path fill="#3F3F3F" d="M8.089,17.655c-0.879-0.879-2.297-0.879-3.178,0c-0.88,0.879-0.879,2.308,0,3.188
	c0.881,0.879,2.299,0.879,3.178,0C8.97,19.963,8.968,18.534,8.089,17.655z"/>
<path fill="#3F3F3F" d="M3.841,13.407c-0.879-0.88-2.298-0.88-3.178,0c-0.89,0.879-0.88,2.309,0,3.188
	c0.88,0.879,2.299,0.879,3.178,0C4.722,15.716,4.72,14.286,3.841,13.407z"/>
<path fill="#3F3F3F" d="M8.089,12.348c0.881-0.88,0.879-2.311,0-3.188c-0.879-0.88-2.297-0.882-3.178,0
	c-0.88,0.879-0.88,2.309,0,3.188C5.792,13.227,7.21,13.227,8.089,12.348z"/>
<path fill="#3F3F3F" d="M17.66,21.903c-0.881,0.879-0.881,2.31-0.001,3.188c0.88,0.88,2.297,0.88,3.178,0
	c0.891-0.879,0.879-2.31-0.001-3.188C19.957,21.024,18.539,21.024,17.66,21.903z"/>
<path fill="#3F3F3F" d="M20.835,16.596c0.892-0.88,0.88-2.31,0.001-3.188c-0.88-0.88-2.298-0.88-3.178,0
	c-0.88,0.879-0.88,2.309,0,3.188C18.539,17.475,19.956,17.475,20.835,16.596z"/>
<path fill="#3F3F3F" d="M17.66,8.099c0.879,0.879,2.296,0.88,3.177,0c0.891-0.879,0.879-2.31-0.001-3.189
	c-0.879-0.878-2.297-0.881-3.177,0S16.78,7.22,17.66,8.099z"/>
<path fill="#3F3F3F" d="M13.41,26.151c-0.881,0.879-0.878,2.312,0,3.188c0.881,0.881,2.298,0.881,3.177,0
	c0.883-0.879,0.881-2.31,0-3.188C15.708,25.272,14.291,25.272,13.41,26.151z"/>
<path fill="#3F3F3F" d="M16.586,3.851c0.883-0.88,0.881-2.311,0-3.19c-0.879-0.88-2.296-0.88-3.177,0s-0.88,2.312,0,3.19
	C14.291,4.729,15.708,4.73,16.586,3.851z"/>
</svg>
