<?xml version="1.0" encoding="utf-8"?>
<!-- Generator: Adobe Illustrator 12.0.0, SVG Export Plug-In  -->
<!DOCTYPE svg PUBLIC "-//W3C//DTD SVG 1.1//EN" "http://www.w3.org/Graphics/SVG/1.1/DTD/svg11.dtd" [
	<!ENTITY ns_flows "http://ns.adobe.com/Flows/1.0/">
	<!ENTITY ns_svg "http://www.w3.org/2000/svg">
	<!ENTITY ns_xlink "http://www.w3.org/1999/xlink">
]>
<svg  version="1.1" xmlns="&ns_svg;" xmlns:xlink="&ns_xlink;" xmlns:a="http://ns.adobe.com/AdobeSVGViewerExtensions/3.0/"
	 width="842" height="51" viewBox="0 -0.769 842 51" enable-background="new 0 -0.769 842 51" xml:space="preserve">
<defs>
</defs>
<path fill="#E6E5E5" d="M79.731,20.01c0.504,0.012,1.004,0.2,1.461,0.568c0.262,0.212,0.501,0.479,0.72,0.785
	c0-0.022-0.005-0.046-0.005-0.067c0-0.74,0.118-1.432,0.312-2.059c-0.068-0.187-0.149-0.407-0.213-0.582
	c-0.964-0.49-1.897-1.338-2.581-2.491c-0.286-0.476-0.519-0.986-0.695-1.501c0.239,0.768,0.391,1.55,0.391,2.29
	c0,0.19-0.015,0.375-0.033,0.559C79.14,17.72,79.52,19.193,79.731,20.01z M80.983,32.178c0-0.946-0.205-1.77-0.59-2.265
	l-0.452-0.582l-0.661,0.358c-0.469,0.255-0.942,0.84-1.297,1.604l-1.365-0.338c0.021-0.875-0.209-1.576-0.603-1.832l-0.933-0.603
	l-0.11,0.314l-0.167,0.462l-0.169,0.131c-0.665,0.51-1.275,1.394-1.676,2.424c-0.337,0.852-0.472,1.637-0.472,2.292
	c0,0.677,0.145,1.213,0.364,1.533c0,0,0.145,0.213,0.284,0.417c0.229-0.034,0.473-0.071,0.473-0.071
	c0.663-0.101,1.65-0.9,2.363-2.461l1.366,0.356c-0.006,0.12-0.009,0.238-0.009,0.352c0,1.302,0.394,2.177,0.815,2.481
	c0,0,0.28,0.204,0.518,0.377c0.082-0.07,0.68-0.583,0.68-0.583c0.685-0.586,1.248-1.702,1.505-2.978
	C80.938,33.091,80.983,32.621,80.983,32.178z M21.204,46.18l0.297-0.239c0,0,5.001-3.873,5.001-3.874
	c2.234-1.646,4.097-2.932,5.857-4.044c1.969-1.278,4.093-2.526,6.31-3.71l1.617-0.896c2.584-1.439,6.489-3.618,8.247-4.251
	c0,0,2.855-0.968,5.142-1.741c-2.08-0.166-4.248,0.09-4.287,0.094c-0.029,0.003-2.887,0.348-5.551,1.264
	c-2.265,0.757-4.554,1.713-7.414,3.096c-2.143,1.073-4.31,2.303-6.611,3.752c-2.21,1.452-4.204,2.876-5.922,4.23l-2.613,2.159
	l-1.046-0.993c0,0,1.527-2.238,1.529-2.241c0,0,3.9-5.516,3.906-5.521l2.003-2.722l0.998-1.301l1.045-1.174
	c1.294-1.371,2.798-2.847,4.734-4.647c3.543-3.271,6.885-6.036,10.212-8.456c1.894-1.379,3.686-2.555,5.48-3.597
	c2.056-1.193,3.96-2.074,5.819-2.693c2.243-0.753,4.571-1.243,6.919-1.455l0.159-0.041c0,0,1.965,1.019,1.966,1.019
	c1.164,0.726,2.148,1.619,2.924,2.659l0.796,1.066l-1.3,0.122c-0.771,0.072-1.911,1.071-2.597,2.845
	c-0.396,1.015-0.553,2.043-0.441,2.893l0.065,0.485l-0.409,0.25c-0.7,0.43-1.393,1.191-1.902,2.091
	c-1.06,1.858-1.064,3.736-0.361,4.174c0.191,0.118,0.442,0.138,0.747,0.058c0.856-0.223,1.859-1.155,2.552-2.366
	c0.59-1.044,0.891-2.165,0.829-3.078l-0.029-0.423l0.34-0.239c0.709-0.499,1.363-1.408,1.792-2.492l0.324-1.11l1.406,0.033
	l0.02,0.115l0.172,1.203l-0.186,0.249c-0.542,0.727-0.875,1.902-0.89,3.151c-0.002,0.051-0.003,0.101-0.003,0.15
	c0,0.972,0.192,1.881,0.544,2.576l0.37,0.73l-0.743,0.302c-0.845,0.344-1.708,1.365-2.252,2.668
	c-0.379,0.896-0.532,1.722-0.532,2.396c0,0.644,0.138,1.15,0.349,1.456c0,0,0.209,0.304,0.364,0.529
	c0.218-0.086,0.695-0.275,0.695-0.275c0.851-0.335,1.72-1.36,2.271-2.673c0.351-0.833,0.535-1.687,0.535-2.427
	c0-0.319-0.034-0.619-0.105-0.884l-0.168-0.638l0.595-0.245c0.732-0.3,1.506-1.769,1.534-3.706c0-0.034,0.001-0.071,0.001-0.106
	c0-0.997-0.195-1.927-0.552-2.629l-0.088-0.195c0,0,0.061-1.8,0.061-1.801c-0.023-1.399-0.151-2.802-0.389-4.284l-0.185-0.994
	l1.239-0.629c0,0,1.52,1.964,1.522,1.964c0,0.002,0.137,0.218,0.137,0.218l0.307,0.545l-0.3,0.391
	c-0.262,0.341-0.443,0.942-0.443,1.711c0,0.634,0.123,1.379,0.423,2.188c0.624,1.669,1.666,2.592,2.37,2.746l0.607,0.149
	l-0.074,1.162l-0.362,0.192c-0.664,0.353-1.483,1.557-1.716,3.381c-0.044,0.325-0.065,0.647-0.065,0.961
	c0,0.895,0.174,1.711,0.502,2.292l0.173,0.284l-0.192,0.547l0.991-0.172c0.342-0.059,0.734-0.376,1.077-0.87l0.735-0.961
	l0.859,1.871c0,0,0.044,0.093,0.067,0.141c-0.001-0.009-0.005-0.042-0.005-0.042l0.447,0.611l0.492,0.665l0.652-0.376
	c0.585-0.338,1.12-1.501,1.12-3.1c0-0.244-0.012-0.499-0.039-0.763c-0.149-1.387-0.688-2.642-1.375-3.197
	c-0.251-0.203-0.494-0.289-0.689-0.263l-0.072,0.028L78.71,21.8l-1.074-4.159l0.018-0.143c0.1-0.834-0.037-1.81-0.388-2.748
	c-0.413-1.11-1.091-2.043-1.813-2.497l-0.17-0.112l-1.16-2.197l1.901,0.84c0.631,0.279,1.242,0.417,1.766,0.398l0.262-0.008
	l0.368,0.298l1.185,1.041l0.179,0.155l0.029,0.295c0.077,0.793,0.373,1.653,0.833,2.424c0.605,1.019,1.411,1.785,2.21,2.105
	l0.291,0.098l0.59,1.6l-0.098,0.264c-0.197,0.531-0.298,1.16-0.298,1.832c0,0.348,0.027,0.708,0.082,1.073
	c0.277,1.854,1.124,2.989,1.793,3.261c0,0,0.262,0.104,0.511,0.207c0.192-0.193,0.385-0.388,0.385-0.388
	c0.43-0.433,0.808-1.415,0.808-2.712c0-0.333-0.025-0.687-0.081-1.059c-0.272-1.761-1.059-2.896-1.716-3.24l-0.249-0.11
	l-0.223-0.654c0,0-0.085-0.256-0.085-0.261c-0.002-0.004-0.23-0.476-0.23-0.476l0.047-0.246c0.034-0.173,0.049-0.358,0.049-0.553
	c0-0.848-0.305-1.87-0.851-2.793c-0.946-1.585-2.152-2.267-2.871-2.229l-0.299,0.018l-0.458-0.438l-0.789-0.728l-0.053-0.222
	c-0.214-0.906-1.021-1.903-2.105-2.598C75.536,6.19,74.168,6.123,73.52,6.46l-0.269,0.14l-0.285-0.1
	c-1.391-0.488-2.824-0.847-4.259-1.07c-4.305-0.649-8.952-0.254-13.442,1.142c-2.042,0.628-4.095,1.515-6.278,2.713
	c-1.867,1.02-3.753,2.194-5.769,3.587c-3.472,2.402-6.955,5.151-10.643,8.401c-1.968,1.743-3.553,3.228-4.985,4.672
	c0,0-1.232,1.324-1.234,1.326l-0.467,0.576l-1.176-0.838c0,0,0.847-1.494,0.845-1.49c3.22-5.604,6.084-10.033,9.016-13.94
	c2.029-2.685,3.669-4.639,5.313-6.331c2.071-2.195,2.908-2.895,4.111-3.721c0,0,1.09-0.749,2.123-1.457
	C45.806,0.034,45.494,0.002,45.245,0h-0.078c-0.074,0.002-0.144,0.004-0.202,0.013c-0.877,0.139-2.674,0.733-3.774,1.321
	c-1.108,0.581-3.412,1.996-4.677,3.035c-0.906,0.742-2.759,2.361-4.998,4.86c-3.52,3.945-6.742,8.496-9.848,13.912
	c-2.711,4.737-5.19,9.911-7.366,15.377c-1.023,2.61-1.893,5.015-2.656,7.351c-0.387,1.183-0.74,2.333-1.068,3.472h6.883
	c1.164-1.01,2.338-2.002,3.512-2.966L21.204,46.18z M67.255,7.187c0,0,1.233,0.115,1.253,0.118l0.837,0.133l0.464,0.04
	c0,0,0.846,3.481,0.849,3.497l0.149,0.955l-1.361,0.431c-0.272-0.628-0.622-1.253-1.038-1.858c-0.519-0.734-1.143-1.414-1.856-2.019
	l-1.734-1.474L67.255,7.187z M84.577,33.922c0.796,0.189,2.048-1.166,2.533-3.259V30.66c0.132-0.563,0.19-1.1,0.19-1.586
	c0-1.272-0.399-2.204-0.937-2.409c0,0-0.23-0.088-0.45-0.172c-0.264,0.205-0.529,0.409-0.529,0.409
	c-0.712,0.552-1.337,1.685-1.632,2.96c-0.126,0.542-0.188,1.086-0.188,1.596c0,0.785,0.147,1.486,0.431,1.962
	C84.164,33.699,84.361,33.869,84.577,33.922z M78.604,14.218c0.054,0.143,0.076,0.287,0.121,0.432
	c-0.136-0.402-0.206-0.804-0.266-1.203c-0.112-0.098-0.264-0.23-0.506-0.441C78.183,13.397,78.437,13.767,78.604,14.218z
	 M82.356,29.518c0.28-1.208,0.801-2.302,1.456-3.097c-0.241-0.219-0.455-0.5-0.66-0.8c0,0.027,0.004,0.056,0.004,0.083
	c0,1.683-0.505,3.107-1.333,3.934c0.158,0.32,0.307,0.64,0.396,1.031C82.257,30.285,82.265,29.912,82.356,29.518z M764.352,22.028
	L764.352,22.028c2.191-8.466,7.557-15.077,14.112-22.028h-9.584c-5.046,4.526-10.21,8.072-16.403,9.774
	c-5.142,1.424-9.583,2.651-14.593,7.821l-23.971,24.723c-0.261,0.269-0.392,0.585-0.392,0.993c0,0.459,0.172,1.042,0.511,1.799
	c0.142,0.207,1.142,1.638,3.421,4.23h13.285c-0.46-0.468-0.907-0.938-1.347-1.404l-0.984-1.033c-2.163-2.23-4.398-4.537-6.576-8.225
	l-0.293-0.497l17.355-17.902l0.472,0.812c1.656,2.838,3.938,5.181,5.95,7.248l1.066,1.1c1.986,2.058,4.039,4.185,6.908,6.017
	l0.771,0.491l-12.985,13.394h3.734l11.925-12.3C761.838,31.777,763.002,27.258,764.352,22.028z M745.366,30.483l-1.06-1.095
	c-1.888-1.936-3.98-4.129-5.66-6.76c-1.106,1.14-14.516,14.975-15.277,15.759c1.992,3.244,4.054,5.407,6.053,7.47l0.998,1.046
	c0.772,0.818,1.564,1.642,2.429,2.438h6.198c4.178-4.309,11.925-12.3,12.749-13.151C749.185,34.396,747.228,32.414,745.366,30.483z
	 M712.775,45.837l-0.024-0.055c-0.401-0.89-1.342-2.972,0.149-4.511l23.97-24.724c5.28-5.449,9.895-6.726,15.235-8.204
	c5.414-1.488,10.058-4.483,14.564-8.344H48.814l-4.023,2.761c-1.163,0.799-1.924,1.452-3.883,3.528
	c-1.606,1.653-3.21,3.566-5.2,6.198c-2.216,2.953-4.4,6.227-6.733,10.088c0.817-0.766,1.693-1.562,2.667-2.425
	c3.733-3.29,7.258-6.073,10.778-8.507c2.056-1.422,3.985-2.621,5.894-3.666c2.267-1.243,4.406-2.166,6.539-2.823
	c4.688-1.457,9.55-1.868,14.065-1.188c1.462,0.228,2.917,0.604,4.333,1.089c1.247-0.449,2.947-0.183,4.515,0.827
	c1.314,0.844,2.268,2.04,2.643,3.239c0.177,0.163,0.525,0.485,0.525,0.485s0.039,0.037,0.068,0.063
	c1.332,0.116,2.788,1.191,3.805,2.895c0.688,1.164,1.062,2.443,1.062,3.57c0,0.188-0.028,0.366-0.049,0.544
	c0.033,0.07,0.069,0.149,0.078,0.168c0,0,0.142,0.42,0.163,0.482c1.073,0.737,1.909,2.246,2.199,4.112
	c0.065,0.434,0.096,0.863,0.096,1.28c0,1.182-0.251,2.27-0.712,3.076c0.696,0.704,1.089,1.906,1.089,3.311
	c0,0.604-0.073,1.246-0.225,1.9c-0.662,2.851-2.528,4.765-4.253,4.356c-0.597-0.145-1.108-0.549-1.479-1.168
	c-0.196-0.327-0.336-0.717-0.443-1.133c-0.028,0.268-0.027,0.528-0.08,0.802c-0.262,1.3-0.827,2.362-1.506,3.184
	c0.493,0.665,0.756,1.628,0.756,2.731c0,0.753-0.122,1.57-0.373,2.399c-0.849,2.792-2.835,4.562-4.532,4.026
	c-1.189-0.393-1.866-1.803-1.866-3.576c0-0.75,0.123-1.568,0.378-2.399c0.348-1.152,0.955-2.1,1.645-2.844
	c-0.283-0.381-0.484-0.87-0.629-1.417c-0.453,0.534-0.94,0.962-1.452,1.219c0.147,0.46,0.245,0.961,0.245,1.519
	c0,0.898-0.189,1.891-0.569,2.869c-0.793,2.014-2.163,3.345-3.486,3.654c0.047,0.071,0.193,0.289,0.193,0.289
	s-0.17-0.072-0.205-0.084c0.059,0.316,0.114,0.637,0.114,0.992c0,0.902-0.19,1.902-0.572,2.887c-0.003,0.01-0.008,0.018-0.012,0.027
	H95.33l-3.994-4.124l-0.054-0.14c-2.307-5.904-0.975-12.633,3.393-17.145c4.583-4.724,10.572-4.987,14.945-5.178
	c2.618-0.116,4.879-0.214,5.781-1.136c0.223-0.371,0.831-2.694,1.233-4.232l1.086-4.009l11.941,12.32l0.886,0.888l-3.903,1.129
	c-1.489,0.415-3.739,1.043-4.036,1.217c-0.956,0.986-1.052,3.316-1.165,6.015c-0.174,4.192-0.414,9.82-4.124,14.394h598.209
	c-1.894-2.221-2.67-3.377-2.72-3.453L712.775,45.837z M121.592,27.886c0.344-0.354,1.305-0.66,4.676-1.601
	c0,0,0.768-0.222,1.511-0.436c-1.349-1.391-7.99-8.243-9.339-9.635c-0.208,0.766-0.423,1.558-0.423,1.558
	c-0.91,3.479-1.206,4.472-1.551,4.828c-1.35,1.393-3.749,1.499-6.786,1.632c-4.369,0.192-9.805,0.431-13.992,4.747
	c-2.67,2.758-4.089,6.43-4.089,10.17c0,1.767,0.327,3.547,0.979,5.256c0.136,0.141,2.633,2.719,4.78,4.935h18.021
	c0.008-0.008,0.015-0.014,0.023-0.021c4.186-4.325,4.419-9.932,4.607-14.436C120.14,31.752,120.242,29.279,121.592,27.886z
	 M788.833,19.151c0,0-0.266,0.272-0.53,0.544c5.417,6.797,11.278,12.843,17.885,18.44c0.263-0.272,0.526-0.545,0.526-0.545
	c4.885-5.038,6.021-9.356,7.339-14.356C816.406,14.278,822.44,7.47,829.63,0h-8.732c-5.607,5.38-11.18,9.682-18.094,11.624
	C797.904,12.985,793.671,14.16,788.833,19.151z M765.823,42.882c-0.245,0.252-0.367,0.549-0.367,0.934
	c0,0.432,0.16,0.98,0.476,1.692c0.137,0.2,1.042,1.5,3.077,3.833h11.493c-3.547-3.607-6.618-7.344-9.907-11.387
	C769.706,38.872,765.823,42.882,765.823,42.882z M20.433,22.388c3.158-5.506,6.438-10.138,10.028-14.162
	c2.305-2.574,4.222-4.248,5.16-5.016c1.337-1.098,3.758-2.587,4.915-3.193C40.547,0.012,40.561,0.005,40.572,0H0v49.341h9.083
	c0.366-1.291,0.764-2.6,1.205-3.944c0.772-2.364,1.65-4.797,2.686-7.438C15.177,32.425,17.687,27.187,20.433,22.388z M69.017,44.671
	c-0.028-0.012-0.186-0.077-0.186-0.077c-0.211-0.089-0.469-0.066-0.768,0.064c-0.82,0.36-1.679,1.437-2.187,2.743
	c-0.272,0.694-0.41,1.353-0.457,1.94h3.377c0.092-0.185,0.182-0.374,0.262-0.578c0.336-0.868,0.471-1.667,0.471-2.328
	c0-0.669-0.138-1.196-0.346-1.51C69.185,44.925,69.054,44.727,69.017,44.671z M793.852,33.896l-1.329-1.371
	c-2.607-2.683-5.518-5.73-8.104-9.059c-0.942,0.972-9.312,9.608-10.113,10.433c3.074,4.005,5.879,6.931,8.585,9.734l1.511,1.568
	c1.313,1.367,2.662,2.758,4.132,4.14h6.908c2.764-2.851,6.408-6.61,7.021-7.245C799.115,39.318,796.427,36.564,793.852,33.896z
	 M831.654,0c-7.489,7.739-13.851,14.617-16.216,23.622c-1.313,4.988-2.555,9.698-7.71,15.014l-1.008,1.045l-0.501,0.407
	l-0.504-0.423c-7.034-5.907-13.231-12.3-18.946-19.543l-0.409-0.52l1.462-1.5c5.105-5.27,9.723-6.55,14.607-7.906
	C808.58,8.468,813.689,4.73,818.773,0H780.47c-6.859,7.189-12.521,13.874-14.731,22.41v-0.001
	c-1.343,5.211-2.612,10.134-7.987,15.678L746.84,49.341h20.252c-1.653-1.958-2.343-2.988-2.387-3.058l-0.034-0.051l-0.024-0.055
	c-0.384-0.855-1.279-2.857,0.161-4.341l5.878-6.072l0.651,0.8c3.724,4.581,7.121,8.754,11.213,12.777h3.864
	c-1.054-1.039-2.05-2.076-3.033-3.099l-1.508-1.565c-2.856-2.958-5.809-6.017-9.1-10.373l-0.392-0.516l12.141-12.524l0.499,0.663
	c2.654,3.517,5.767,6.723,8.513,9.55l1.333,1.374c2.71,2.807,5.517,5.709,9.104,8.61l0.636,0.515l-7.138,7.366h44.419V0H831.654z
	 M66.948,30.997c-0.215,0.089-0.676,0.281-0.676,0.281c-0.85,0.354-1.72,1.451-2.218,2.799c-0.305,0.812-0.438,1.597-0.438,2.266
	c0,0.977,0.286,1.702,0.737,1.885c0.208,0.083,0.461,0.06,0.753-0.073c0.813-0.37,1.657-1.461,2.15-2.779
	c0.312-0.836,0.439-1.608,0.439-2.254c0-0.705-0.152-1.26-0.375-1.585C67.32,31.536,67.106,31.225,66.948,30.997z M77.803,28.703
	c0,0-0.055-0.039-0.105-0.074c-0.048,0.038-0.091,0.1-0.139,0.135c0.063,0.114,0.133,0.22,0.185,0.347
	c0.071-0.075,0.149-0.12,0.223-0.187C77.903,28.839,77.803,28.703,77.803,28.703z M73.016,41.022
	c0.332-0.857,0.466-1.648,0.466-2.305c0-0.682-0.145-1.22-0.36-1.54c0,0-0.145-0.213-0.282-0.417
	c-0.228,0.035-0.471,0.074-0.471,0.074c-0.761,0.117-1.878,1.132-2.544,2.848c-0.336,0.854-0.471,1.642-0.471,2.297
	c0,0.671,0.141,1.201,0.354,1.518c0,0,0.133,0.2,0.171,0.257c0.027,0.012,0.18,0.075,0.18,0.075
	C70.809,44.143,72.234,43.006,73.016,41.022z M67.501,43.296c0.181-0.079,0.355-0.08,0.534-0.12c-0.039-0.058-0.171-0.26-0.171-0.26
	s0.147,0.062,0.174,0.073c-0.061-0.32-0.118-0.645-0.118-1c0-0.897,0.191-1.888,0.575-2.859c0.639-1.65,1.688-2.889,2.811-3.448
	c-0.151-0.463-0.253-0.966-0.253-1.531c0-0.895,0.192-1.883,0.576-2.854c0.46-1.186,1.155-2.162,1.949-2.846
	c0.025-0.067,0.245-0.692,0.345-0.977c-0.344-0.757-0.556-1.658-0.556-2.655c0-0.381,0.025-0.771,0.079-1.165
	c0.194-1.526,0.777-2.875,1.564-3.75c-0.511-0.345-0.981-0.853-1.399-1.458c0.064,0.422,0.134,0.845,0.134,1.292
	c0,0.042,0,0.083,0,0.126c-0.031,2.134-0.808,3.895-1.947,4.71c0.035,0.247,0.091,0.481,0.091,0.746c0,0.944-0.223,1.99-0.654,3.011
	c-0.578,1.379-1.455,2.469-2.417,3.094c0.183,0.502,0.309,1.056,0.309,1.687c0,0.877-0.177,1.843-0.534,2.794
	c-0.642,1.72-1.73,3.065-2.91,3.602c-0.645,0.293-1.285,0.326-1.857,0.097c-1.066-0.433-1.647-1.703-1.647-3.282
	c0-0.861,0.173-1.815,0.534-2.778c0.536-1.451,1.401-2.597,2.379-3.257c-0.171-0.471-0.289-0.988-0.289-1.572
	c0-0.933,0.217-1.974,0.649-2.995c0.58-1.386,1.464-2.48,2.435-3.104c-0.282-0.78-0.472-1.646-0.472-2.579
	c0-0.06,0.001-0.119,0.002-0.177c0.001-0.124,0.044-0.228,0.051-0.349c-0.042,0.039-0.08,0.086-0.123,0.124
	c0,1.125-0.368,2.412-1.033,3.591c-0.906,1.585-2.191,2.725-3.438,3.051c-0.679,0.178-1.316,0.101-1.84-0.224
	c-0.784-0.489-1.179-1.451-1.179-2.616c0-1.088,0.346-2.354,1.043-3.577c0.545-0.964,1.267-1.734,2.035-2.302
	c-0.006-0.111-0.021-0.217-0.021-0.33c0-0.916,0.199-1.917,0.58-2.89c0.594-1.535,1.563-2.734,2.602-3.34
	c-0.54-0.568-1.133-1.097-1.834-1.532c0,0-1.183-0.613-1.44-0.746c-2.179,0.21-4.338,0.662-6.421,1.362
	c-1.769,0.588-3.587,1.431-5.558,2.573c-1.751,1.018-3.504,2.168-5.357,3.518c-3.282,2.388-6.581,5.119-10.081,8.348
	c-1.911,1.777-3.394,3.232-4.665,4.579c0,0-0.968,1.085-0.959,1.072l-0.979,1.276l-1.988,2.703c0,0-1.422,2.009-2.545,3.598
	c1.459-1.098,3.028-2.219,4.783-3.374c2.354-1.482,4.561-2.735,6.755-3.833c2.923-1.413,5.264-2.391,7.582-3.165
	c2.806-0.965,5.714-1.315,5.824-1.329c0.2-0.027,4.917-0.646,7.542,0.529l1.725,0.777l-9.474,3.209
	c-1.648,0.594-5.647,2.825-8.037,4.156c0,0-1.631,0.904-1.635,0.906c-2.186,1.167-4.275,2.394-6.218,3.655
	c-1.737,1.098-3.573,2.366-5.786,3.997l-4.948,3.832c0,0-0.297,0.239-0.283,0.228l-0.223,0.189c-0.72,0.592-1.434,1.207-2.15,1.815
	h44.251c0.049-0.783,0.229-1.629,0.568-2.492C65.208,45.146,66.313,43.819,67.501,43.296z M78.161,37.948
	c-0.715,0.556-1.329,1.548-1.684,2.727c-0.215,0.7-0.31,1.373-0.31,1.965c0,1.14,0.349,1.984,0.857,2.152
	c0.777,0.245,2.112-1.01,2.734-3.058c0.216-0.711,0.31-1.381,0.31-1.966c0-1.001-0.273-1.756-0.678-2.046
	c0,0-0.261-0.186-0.489-0.349C78.818,37.438,78.161,37.948,78.161,37.948z"/>
</svg>
