<?xml version="1.0" encoding="utf-8"?>
<!-- Generator: Adobe Illustrator 12.0.0, SVG Export Plug-In . SVG Version: 6.00 Build 51448)  -->
<!DOCTYPE svg PUBLIC "-//W3C//DTD SVG 1.1//EN" "http://www.w3.org/Graphics/SVG/1.1/DTD/svg11.dtd" [
	<!ENTITY ns_svg "http://www.w3.org/2000/svg">
	<!ENTITY ns_xlink "http://www.w3.org/1999/xlink">
]>
<svg  version="1.1" id="visit" xmlns="&ns_svg;" xmlns:xlink="&ns_xlink;" width="12" height="16" viewBox="0 0 12 16"
	 overflow="visible" enable-background="new 0 0 12 16" xml:space="preserve">
<path fill="#B2B2B2" d="M11.5,6.354L9.661,5.877L7.54,4.077C7.269,3.815,6.877,3.7,6.491,3.707L5.869,3.723
	C5.331,3.747,4.958,3.91,4.441,4.108L2.211,5.214C1.813,5.41,1.469,5.687,1.204,6.027L0.111,7.469
	c-0.188,0.252-0.132,0.6,0.131,0.784l0.015,0.011c0.238,0.165,0.566,0.145,0.777-0.052l1.668-1.548L4.29,6.213l0.116,3.17
	l-1.323,3.536l-2.284,1.661c-0.163,0.118-0.27,0.294-0.295,0.487c-0.026,0.193,0.032,0.389,0.158,0.541l0.03,0.035
	c0.249,0.299,0.7,0.365,1.034,0.155l2.649-1.679c0.143-0.089,0.266-0.2,0.367-0.328l1.33-2.748l3.468,4.637
	c0.235,0.318,0.688,0.412,1.043,0.217l0.024-0.015c0.375-0.207,0.504-0.661,0.287-1.017L7.86,9.882
	C7.759,9.717,7.754,9.563,7.744,9.336l0.048-2.809l0.895,0.571c0.326,0.172,0.682,0.285,1.053,0.335l1.479,0.199
	c0.353,0.047,0.684-0.169,0.759-0.497l0.007-0.025C12.061,6.777,11.848,6.445,11.5,6.354z M6.538,3.1
	c0.9-0.13,1.52-0.926,1.381-1.777C7.78,0.472,6.939-0.113,6.04,0.018c-0.901,0.13-1.52,0.926-1.383,1.776
	C4.795,2.646,5.637,3.23,6.538,3.1z"/>
</svg>
