<?xml version="1.0" encoding="utf-8"?>
<!-- Generator: Adobe Illustrator 12.0.0, SVG Export Plug-In . SVG Version: 6.00 Build 51448)  -->
<!DOCTYPE svg PUBLIC "-//W3C//DTD SVG 1.1//EN" "http://www.w3.org/Graphics/SVG/1.1/DTD/svg11.dtd" [
	<!ENTITY ns_svg "http://www.w3.org/2000/svg">
	<!ENTITY ns_xlink "http://www.w3.org/1999/xlink">
]>
<svg  version="1.1" id="レイヤー_1" xmlns="&ns_svg;" xmlns:xlink="&ns_xlink;" width="25.999" height="32"
	 viewBox="0 0 25.999 32" overflow="visible" enable-background="new 0 0 25.999 32" xml:space="preserve">
<path fill="#666666" d="M8.424,14.882c2.016,0.938,5.52,1.786,6.583,1.399c1.466-0.531,5.812-5.912,5.814-7.271l-0.123-0.229
	l-0.189-0.326c0,0-1.214-2.188-1.375-2.479c-0.228,0.28-5.021,6.174-5.021,6.174s-7.23-1.522-7.584-1.597
	c0.123,0.671,0.563,3.071,0.565,3.14c0,0,0.008,0.209,0.008,0.273c0,0.012,0,0.017-0.001,0.018
	C7.142,14.103,7.47,14.439,8.424,14.882z"/>
<path fill="#666666" d="M22.016,0C20.29,0.064,10.174,0.443,10.174,0.418c-0.001,0.001-9.146,7.082-9.557,7.4
	c0.509,0.106,12.848,2.684,13.002,2.716C13.708,10.421,21.691,0.407,22.016,0z"/>
<polygon fill="#666666" points="0,8.637 2.043,16.714 3.563,18.806 3.383,16.229 "/>
<path fill="#666666" d="M25.699,29.381l-2.244-1.82l0.16-0.204c0.739-0.962,1.307-2.044,1.668-3.217
	c0.383-1.178,0.572-2.499,0.572-3.934c0-1.602-0.254-3.079-0.733-4.396c-0.481-1.306-1.164-2.437-2.037-3.364
	c-0.452-0.487-1.004-0.912-1.597-1.309c-0.486,0.784-1.12,1.67-1.846,2.563c0.362,0.302,1.015,0.864,1.016,0.866
	c0.559,0.655,0.99,1.466,1.308,2.415c0.311,0.942,0.469,2.027,0.469,3.225c0,1.046-0.114,2.004-0.34,2.846l-0.458,1.293
	c-0.182,0.327-0.479,0.55-0.821,0.62c-0.345,0.065-0.697-0.028-0.982-0.265l-0.64-0.523c-0.165-0.136-0.38-0.199-0.592-0.178
	c-0.219,0.023-0.413,0.127-0.558,0.297l-0.962,1.174c-0.288,0.351-0.232,0.865,0.117,1.146l1.152,0.921l-0.505,0.147
	c-0.569,0.164-1.172,0.248-1.764,0.248c-0.924,0-1.782-0.184-2.563-0.538c-0.779-0.357-1.452-0.88-2.014-1.542
	c-0.556-0.664-0.993-1.48-1.303-2.434c-0.304-0.941-0.458-2.022-0.458-3.213c0-1.165,0.156-2.227,0.455-3.149
	c-1.227-0.36-2.334-0.789-3.163-1.22c-0.482,1.303-0.73,2.771-0.73,4.369c0,1.598,0.244,3.073,0.729,4.387
	c0.479,1.304,1.156,2.444,2.014,3.375c0.858,0.929,1.889,1.662,3.086,2.175c1.191,0.513,2.522,0.773,3.955,0.773
	c0.891,0,1.732-0.093,2.498-0.28l1.297-0.427c0.641-0.308,1.572-0.192,2.131,0.254l1.67,1.354c0.165,0.137,0.381,0.199,0.6,0.18
	c0.222-0.024,0.419-0.127,0.552-0.298l0.977-1.169C26.101,30.182,26.047,29.664,25.699,29.381z"/>
</svg>
