<?xml version="1.0" encoding="utf-8"?>
<!-- Generator: Adobe Illustrator 12.0.0, SVG Export Plug-In . SVG Version: 6.00 Build 51448)  -->
<!DOCTYPE svg PUBLIC "-//W3C//DTD SVG 1.1//EN" "http://www.w3.org/Graphics/SVG/1.1/DTD/svg11.dtd" [
	<!ENTITY ns_svg "http://www.w3.org/2000/svg">
	<!ENTITY ns_xlink "http://www.w3.org/1999/xlink">
]>
<svg  version="1.1" id="writing" xmlns="&ns_svg;" xmlns:xlink="&ns_xlink;" width="18" height="16" viewBox="0 0 18 16"
	 overflow="visible" enable-background="new 0 0 18 16" xml:space="preserve">
<path fill="#8C8C8C" d="M13.154,14.803H1.193V5.818H5.8V1.197h7.354v1.184l1.193-1.152V0H5.8L1.193,4.617L0,5.818V16h14.348V8.938
	l-1.193,1.25V14.803z M17.881,3.162l-1.804-1.812c-0.159-0.158-0.415-0.158-0.576,0L7.884,8.691
	C7.835,8.739,7.798,8.795,7.781,8.859l-0.919,3.038c-0.095,0.313,0.193,0.604,0.504,0.509l3.125-0.954l7.391-7.714
	C18.039,3.578,18.039,3.319,17.881,3.162z M8.575,11.291l-0.591-0.65l0.411-1.354l1.024,0.552l0.553,1.027L8.575,11.291z"/>
</svg>
