<?xml version="1.0" encoding="utf-8"?>
<!-- Generator: Adobe Illustrator 12.0.0, SVG Export Plug-In  -->
<!DOCTYPE svg PUBLIC "-//W3C//DTD SVG 1.1//EN" "http://www.w3.org/Graphics/SVG/1.1/DTD/svg11.dtd" [
	<!ENTITY ns_flows "http://ns.adobe.com/Flows/1.0/">
	<!ENTITY ns_svg "http://www.w3.org/2000/svg">
	<!ENTITY ns_xlink "http://www.w3.org/1999/xlink">
]>
<svg  version="1.1" xmlns="&ns_svg;" xmlns:xlink="&ns_xlink;" xmlns:a="http://ns.adobe.com/AdobeSVGViewerExtensions/3.0/"
	 width="31" height="31" viewBox="-0.805 -0.289 31 31" enable-background="new -0.805 -0.289 31 31" xml:space="preserve">
<defs>
</defs>
<path fill="#3F3F3F" d="M10.543,1.257c0,0-3.877,9.69-4.697,11.742C4.365,13,2,13,2,13c-1.104,0-2,0.896-2,2s0.896,2,2,2h5.2
	c0.817,0,1.554-0.498,1.856-1.257c0,0,1.354-3.382,2.701-6.754c1.471,7.349,3.881,19.403,3.881,19.403
	c0.174,0.867,0.897,1.518,1.779,1.599c0.881,0.081,1.711-0.427,2.039-1.249c0,0,3.877-9.69,4.697-11.742C25.635,17,28,17,28,17
	c1.104,0,2-0.896,2-2s-0.896-2-2-2h-5.2c-0.817,0-1.554,0.498-1.856,1.258c0,0-1.354,3.381-2.701,6.753
	c-1.471-7.349-3.881-19.402-3.881-19.402c-0.174-0.868-0.897-1.519-1.779-1.6C11.701-0.073,10.871,0.435,10.543,1.257z"/>
</svg>
