<?xml version="1.0" encoding="utf-8"?>
<!-- Generator: Adobe Illustrator 12.0.0, SVG Export Plug-In . SVG Version: 6.00 Build 51448)  -->
<!DOCTYPE svg PUBLIC "-//W3C//DTD SVG 1.1//EN" "http://www.w3.org/Graphics/SVG/1.1/DTD/svg11.dtd" [
	<!ENTITY ns_svg "http://www.w3.org/2000/svg">
	<!ENTITY ns_xlink "http://www.w3.org/1999/xlink">
]>
<svg  version="1.1" id="aboutproduct" xmlns="&ns_svg;" xmlns:xlink="&ns_xlink;" width="34" height="30" viewBox="0 0 34 30"
	 overflow="visible" enable-background="new 0 0 34 30" xml:space="preserve">
<path fill="#B2B2B2" d="M24.059,26.052l0.001,2.794c0,0.494,0.419,0.724,0.888,0.896c0,0,1.187,0.226,3.915,0.227
	c2.653-0.003,4.247-0.227,4.247-0.227c0.545-0.257,0.857-0.401,0.859-0.896V26.06C30.289,26.606,27.352,26.341,24.059,26.052z
	 M33.941,17.304c0,0,0.015,0.003,0.027,0.006v-0.53c0-2.585-0.8-4.029-1.76-5.706C30.418,7.951,30.42,4.367,30.42,0.067
	l-0.986-0.041l-0.002-0.024l-0.403,0.013L28.618,0l0.005,0.026l-0.982,0.041c0.002,4.298-0.01,7.884-1.794,11.004
	c-0.968,1.68-1.786,3.122-1.786,5.708l-0.001,0.524C27.363,17.643,30.639,17.642,33.941,17.304z M34,24.603l-0.001-5.856
	c-1.833,0.222-3.438,0.201-4.954,0.2c-1.52,0-3.307,0.02-5.045-0.197v5.83c1.982,0.246,3.539,0.246,5.055,0.249
	C30.563,24.825,32.166,24.89,34,24.603z M16.998,8.625c0.803,0,1.588,0.078,2.34,0.214l-0.85-6.449h0.037
	c0.111,0,0.205-0.067,0.205-0.149V0.185c0-0.084-0.094-0.153-0.205-0.153h-3.053c-0.117,0-0.203,0.069-0.203,0.153v2.057
	c0,0.082,0.086,0.149,0.203,0.149h0.037L14.66,8.84C15.408,8.703,16.191,8.625,16.998,8.625z M16.998,11.491
	c-1.525,0-2.908,0.439-3.945,1.157C12.443,14.147,12,15.902,12,17.776c0,0.065,0,0.263,0.001,0.557h9.993
	C21.996,18.039,22,17.842,22,17.776c0-1.874-0.449-3.629-1.055-5.128C19.91,11.931,18.52,11.491,16.998,11.491z M12.07,29.05
	c0,0.524,0.57,0.95,1.276,0.95h7.297c0.706,0,1.284-0.426,1.284-0.95c0,0,0.01-1.174,0.015-2.763H12.05
	C12.063,27.876,12.07,29.05,12.07,29.05z M6.42,0.096L5.426,0.06V0.031L5.014,0.045L4.605,0.031V0.06L3.611,0.096
	c0,4.304-0.006,7.888-1.813,11.009C0.83,12.783,0,14.224,0,16.813v12.064c0,0.495,0.418,0.724,0.895,0.898
	c0,0,1.197,0.225,3.955,0.225c2.674,0,4.279-0.225,4.279-0.225C9.68,29.517,10,29.372,10,28.877V16.813
	c0-2.588-0.808-4.03-1.781-5.708C6.414,7.984,6.42,4.399,6.42,0.096z M9.212,25.778c-1.548,0.406-2.904,0.314-4.184,0.314
	c-1.278,0-2.595-0.001-4.271-0.345V17.54c1.471,0.309,2.98,0.278,4.265,0.278s2.642,0.03,4.189-0.277V25.778z"/>
</svg>
