<?xml version="1.0" encoding="utf-8"?>
<!-- Generator: Adobe Illustrator 12.0.0, SVG Export Plug-In  -->
<!DOCTYPE svg PUBLIC "-//W3C//DTD SVG 1.1//EN" "http://www.w3.org/Graphics/SVG/1.1/DTD/svg11.dtd" [
	<!ENTITY ns_flows "http://ns.adobe.com/Flows/1.0/">
	<!ENTITY ns_svg "http://www.w3.org/2000/svg">
	<!ENTITY ns_xlink "http://www.w3.org/1999/xlink">
]>
<svg  version="1.1" xmlns="&ns_svg;" xmlns:xlink="&ns_xlink;" xmlns:a="http://ns.adobe.com/AdobeSVGViewerExtensions/3.0/"
	 width="25" height="21" viewBox="-0.25 -0.206 25 21" enable-background="new -0.25 -0.206 25 21" xml:space="preserve">
<defs>
</defs>
<path fill="#E4E4E4" d="M4.389,15.127C1.853,15.127,0,15.384,0,15.704c0,0.022,0.012,0.044,0.03,0.066
	c-0.001,0.377,0.024,2.372,0.761,3.176c0.49,0.533,1.158,0.829,1.79,0.995v0.529H2.555c0.031,0.092,0.864,0.196,1.889,0.196
	c1.043,0,1.889-0.091,1.889-0.204c0-0.009-0.013-0.019-0.013-0.026v-0.526c0.579-0.176,1.189-0.478,1.668-0.997
	c0.714-0.775,0.756-2.673,0.755-3.138c0.022-0.023,0.035-0.046,0.035-0.07C8.778,15.384,6.926,15.127,4.389,15.127z M24.477,14.702
	l-0.064-0.023l0.02-0.021c0,0-0.742-1.087-1.873-2.513c-1.005,1.361-2.105,2.558-3.127,3.546c-0.648,0.625-1.259,1.167-1.792,1.614
	c-0.809,0.678-1.516,1.209-2.041,1.582c1.474,1.091,2.596,1.81,2.596,1.81l0.021-0.02l0.021,0.063
	c0.233,0.224,1.815-0.947,3.538-2.615C23.496,16.457,24.708,14.925,24.477,14.702z M21.976,11.418
	c-1.098-1.336-2.451-2.84-3.82-4.007c-2.154-1.835-4.817-2.895-6.592-3.426c-0.65,0.814-1.33,1.551-1.988,2.189
	C8.9,6.83,8.248,7.388,7.676,7.839C7.501,7.978,7.332,8.108,7.166,8.233c0.551,1.719,1.646,4.3,3.542,6.388
	c1.207,1.327,2.761,2.637,4.144,3.701C16.245,17.344,19.487,14.868,21.976,11.418z M4.432,5.032
	c0.636,0.124,2.164,0.616,2.292,1.479C6.746,6.667,6.801,6.935,6.89,7.283c1.146-0.894,2.478-2.091,3.699-3.562
	c-0.366-0.088-0.645-0.142-0.807-0.164C8.89,3.433,8.379,1.953,8.251,1.336C8.125,0.72,7.52,0.011,7.52,0.011l-0.011,0.01
	L7.506,0.018C7.348-0.135,6.23,0.7,5.008,1.884C3.786,3.066,2.924,4.148,3.082,4.302l0.002,0.001l-0.021,0.02
	C3.063,4.323,3.795,4.908,4.432,5.032z"/>
</svg>
