<?xml version="1.0" encoding="utf-8"?>
<!-- Generator: Adobe Illustrator 12.0.0, SVG Export Plug-In . SVG Version: 6.00 Build 51448)  -->
<!DOCTYPE svg PUBLIC "-//W3C//DTD SVG 1.1//EN" "http://www.w3.org/Graphics/SVG/1.1/DTD/svg11.dtd" [
	<!ENTITY ns_svg "http://www.w3.org/2000/svg">
	<!ENTITY ns_xlink "http://www.w3.org/1999/xlink">
]>
<svg  version="1.1" id="レイヤー_1" xmlns="&ns_svg;" xmlns:xlink="&ns_xlink;" width="400" height="400" viewBox="0 0 400 400"
	 overflow="visible" enable-background="new 0 0 400 400" xml:space="preserve">
<path fill="#3F3F3F" d="M142.971,393.559c-8.588,8.588-22.642,8.588-31.23,0L6.441,288.259c-8.588-8.588-8.588-22.642,0-31.23
	L257.029,6.441c8.588-8.587,22.642-8.588,31.23,0l105.3,105.3c8.588,8.588,8.587,22.642-0.001,31.23L142.971,393.559z"/>
<path fill="#170B0D" d="M8.552,286.148c-7.447-7.447-7.447-19.563,0-27.009L259.14,8.552c7.446-7.446,19.563-7.447,27.009,0
	l105.3,105.299c7.446,7.446,7.447,19.564,0,27.01L140.861,391.448c-7.446,7.445-19.563,7.445-27.009,0L8.552,286.148z"/>
<circle fill="#8C8C8C" cx="77.323" cy="322.676" r="15.033"/>
<circle fill="#170B0D" cx="77.323" cy="322.675" r="13.153"/>
<circle fill="#8C8C8C" cx="332.753" cy="69.026" r="2.9"/>
<circle fill="#8C8C8C" cx="302.229" cy="55.492" r="3.48"/>
<path fill="#8C8C8C" d="M335.571,87.095c-0.482,0.483-1.447,0.31-2.145-0.387l-18.431-18.431c-0.696-0.696-0.869-1.662-0.387-2.145
	c0.483-0.483,1.448-0.309,2.145,0.387l18.432,18.43C335.882,85.647,336.055,86.612,335.571,87.095z"/>
<rect x="114.265" y="47.626" transform="matrix(0.7071 0.7071 -0.7071 0.7071 199.9694 -83.1527)" fill="#C3C35F" width="172.187" height="304.362"/>
<path fill="none" d="M291.097,75.54l-5.454-5.455c0.436,2.259,0.901,4.603,1.406,7.053C288.253,76.637,289.619,76.098,291.097,75.54
	z"/>
<polygon fill="none" points="166.445,192.053 167.014,191.517 165.21,189.521 158.513,195.357 159.229,196.123 165.32,190.786 "/>
<path fill="none" d="M144.921,208.659l-0.766-0.786l-8.433,7.351c1.099,0.936,1.962,1.786,2.545,2.492
	c0.071,0.087,0.214,0.246,0.419,0.469l0.55-0.518l-2.118-2.172L144.921,208.659z"/>
<path fill="none" d="M197.269,236.839l0.733,0.783c1.428-2.352,3.152-4.439,5.232-6.041l-3.182-3.519l-0.891,0.819l2.377,2.676
	C201.539,231.558,199.285,234.015,197.269,236.839z"/>
<path fill="none" d="M168.115,248.546l0.654-0.614l-1.822-1.867l-0.641,0.618C166.911,247.306,167.515,247.929,168.115,248.546z"/>
<path fill="none" d="M187.357,266.981l-8.115-8.316l-0.717,0.658c4.297,4.476,7.6,7.967,8.956,9.52
	c1.258-1.756,2.482-3.127,3.689-4.17c-0.009-0.209-0.019-0.428-0.026-0.62c-0.002-0.054-0.003-0.107-0.001-0.163
	c0.012-0.327,0.124-3.156,0.697-7.082l-1.038-1.064l-0.785,8.215L187.357,266.981z"/>
<path fill="none" d="M151.572,235.816c-5.205,4.978-9.285,8.88-10.875,10.399l12.371,12.365l10.267-10.664
	c-3.327-3.426-6.707-6.9-9.892-10.176C152.804,237.083,152.181,236.442,151.572,235.816z M153.272,257.163l-11.203-10.838
	l9.639-9.277l10.416,10.824L153.272,257.163z"/>
<path fill="none" d="M193.566,244.494c0.673-0.618,1.316-1.21,1.896-1.743c0.622-1.537,1.333-3.037,2.144-4.455
	c-0.229-0.244-0.493-0.528-0.777-0.832c-0.958,1.4-1.818,2.85-2.287,4.11C194.234,242.405,193.9,243.416,193.566,244.494z"/>
<path fill="none" d="M190.896,254.769l1.084,1.113c0.431-2.718,1.079-5.871,2.051-9.062l-0.879-0.933l-0.009,0.01
	c-1.13,3.818-2.154,7.898-2.154,7.898L190.896,254.769z"/>
<path fill="none" d="M180.378,290.974l-1.182-9.648c-1.228,0.265-2.394,0.329-3.498,0.309c-1.26-0.022-2.804-0.363-4.591-0.759
	c-0.116-0.024-0.243-0.052-0.361-0.079c0.377,3.1,1.139,7.617,1.913,11.9L180.378,290.974z"/>
<path fill="none" d="M168.635,249.081c1.193,1.232,2.369,2.445,3.517,3.633l0.676-0.623l-3.538-3.625L168.635,249.081z"/>
<path fill="none" d="M194.288,246.002c0.182-0.563,0.376-1.128,0.579-1.689l-1.164,1.069L194.288,246.002z"/>
<path fill="none" d="M181.412,205.212l7.746-7.408c-4.008-2.902-7.027-5.056-8.527-6.078c-8.064-5.492-14.114-10.63-18.642-15.323
	l-4.296,2.574L181.412,205.212z"/>
<path fill="none" d="M181.11,290.811l12.369-2.761c-1.011-6.669-1.602-12.589-1.943-17.174c-0.277,0.372-0.56,0.77-0.85,1.195
	c-3.975,5.826-7.567,8.186-10.758,9.074L181.11,290.811z"/>
<path fill="none" d="M170.692,276.195c0.481,0.103,4.284,0.942,5.096,0.958c1.907,0.034,5.324,0.09,9.949-5.888
	c-0.14-0.081-0.271-0.181-0.382-0.31c-2.217-2.576-11.267-11.96-20.98-21.969l-10.251,10.648L170.692,276.195z"/>
<path fill="none" d="M182.315,189.255c1.306,0.889,4.494,3.171,8.875,6.351l7.18-10.465l-26.694-19.951l-7.373,9.273
	C168.646,178.959,174.483,183.92,182.315,189.255z"/>
<path fill="none" d="M182.414,206.32l9.656,10.681l10.862-9.145c-4.651-3.416-8.944-6.552-12.544-9.162
	C189.09,199.937,186.197,202.702,182.414,206.32z"/>
<path fill="none" d="M204.543,193.271c-0.582,0.81-4.152,5.786-5.686,7.921c1.947,1.426,3.998,2.927,6.13,4.493l5.928-8.126
	C209.497,196.604,205.38,193.834,204.543,193.271z M199.93,200.987l4.783-6.766l5.047,3.637l-4.783,6.766L199.93,200.987z"/>
<path fill="none" d="M172.671,253.25c0.927,0.96,1.835,1.899,2.716,2.812l0.688-0.643l-2.726-2.793L172.671,253.25z"/>
<path fill="none" d="M206.699,263.636c0.097-4.781,0.969-12.423,6.798-21.052c-2.647-3.565-5.166-6.383-6.728-8.035
	c-0.191,0.131-0.383,0.257-0.574,0.397c-8.008,5.858-9.993,21.699-10.445,27.172c3.307-0.904,6.67,0.02,10.481,1.369
	C206.386,263.542,206.545,263.583,206.699,263.636z"/>
<path fill="none" d="M157.949,195.849l-5.999,5.229l0.733,0.779l5.982-5.241C158.338,196.266,158.094,196.004,157.949,195.849z"/>
<polygon fill="none" points="177.917,203.575 175.873,201.316 175.217,201.928 177.243,204.208 "/>
<polygon fill="none" points="175.373,200.763 173.193,198.352 172.568,198.946 174.722,201.369 "/>
<polygon fill="none" points="169.714,194.504 167.516,192.071 166.942,192.611 169.129,195.073 "/>
<path fill="none" d="M142.424,222.097c0.694,0.719,1.455,1.506,2.274,2.35l0.599-0.569l-2.29-2.347L142.424,222.097z"/>
<path fill="none" d="M145.216,224.982c0.63,0.649,1.289,1.329,1.973,2.034l0.614-0.571l-1.985-2.035L145.216,224.982z"/>
<polygon fill="none" points="151.386,201.57 144.719,207.381 145.484,208.165 152.121,202.351 "/>
<path fill="none" d="M139.197,218.729c0.637,0.675,1.563,1.641,2.71,2.832l0.579-0.564l-2.729-2.796L139.197,218.729z"/>
<polygon fill="none" points="172.693,197.798 170.215,195.057 169.624,195.631 172.073,198.388 "/>
<polygon fill="none" points="199.552,227.509 195.883,223.448 195.04,224.241 198.667,228.324 "/>
<polygon fill="none" points="195.381,222.896 193.354,220.652 192.543,221.431 194.544,223.684 "/>
<path fill="none" d="M175.905,256.6c0.722,0.749,1.424,1.479,2.103,2.186c0.106-0.097,0.356-0.327,0.713-0.654l-2.124-2.177
	L175.905,256.6z"/>
<polygon fill="none" points="192.853,220.099 189.618,216.52 188.839,217.261 192.048,220.873 "/>
<path fill="none" d="M147.708,227.552c0.731,0.752,1.485,1.529,2.26,2.326l0.617-0.582l-2.262-2.316L147.708,227.552z"/>
<path fill="none" d="M184.484,210.841l-3.151-3.486c-0.228,0.218-0.466,0.445-0.7,0.669l3.116,3.508L184.484,210.841z"/>
<polygon fill="none" points="189.117,215.966 187.228,213.875 186.471,214.597 188.343,216.703 "/>
<polygon fill="none" points="180.331,206.247 178.417,204.129 177.74,204.767 179.641,206.906 "/>
<polygon fill="none" points="186.727,213.321 184.985,211.396 184.246,212.09 185.975,214.037 "/>
<path fill="none" d="M290.089,182.93l-3.845,10.812c-0.011,0.033-0.025,0.064-0.04,0.094c0,0-5.085,9.81-9.913,19.127
	c1.62,0.646,17.846,7.116,22.261,8.878l7.507-19.56c0.441-1.152,1.73-1.733,2.884-1.298l8.214,3.084l13.981-13.982
	c-1.286,0.061-2.579,0.102-3.877,0.109C314.966,190.257,302.304,187.713,290.089,182.93z"/>
<path fill="none" d="M266.83,227.973c1.059-2.042,3.761-7.257,6.763-13.048l-6.479-3.5c-1.463,2.498-6.723,11.484-7.316,12.497
	C260.699,224.442,265.198,227.034,266.83,227.973z M272.583,215.073l-5.984,11.627l-5.214-3.167l6.287-10.991L272.583,215.073z"/>
<path fill="none" d="M220.355,230.631c5.677,6.868,11.205,17.187,12.488,20.173l15.165,0.973c0.374-3.066,0.784-6.452,1.132-9.299
	c-4.764-3.699-10.938-8.387-17.641-13.418c-2.883,1.129-6.094,1.302-9.438,1.477C221.496,230.565,220.926,230.596,220.355,230.631z"
	/>
<path fill="none" d="M224.146,265.947c-0.935-8.036-5.366-15.989-9.711-22.077c-5.495,8.36-6.195,15.738-6.25,20.233
	C213.377,265.589,219.009,265.923,224.146,265.947z"/>
<path fill="none" d="M234.969,227.039c-0.193,0.159-0.391,0.308-0.589,0.452c5.642,4.236,10.88,8.208,15.181,11.529
	c0.211-1.734,0.352-2.889,0.366-3.014c-0.141-0.477-3.94-13.35-5.234-17.732C241.559,221.462,238.194,224.378,234.969,227.039z
	 M244.028,221.09l4.725,15.683l-12.257-9.361C236.496,227.411,240.011,224.954,244.028,221.09z"/>
<path fill="none" d="M247.13,215.971c0,0,5.826,19.882,5.801,20.085c0,0-0.257,2.117-0.62,5.103
	c3.792,2.963,12.165,10.48,14.166,12.287l-0.202-24.067l-7.876-4.536c-0.172-0.099-0.298-0.263-0.348-0.455
	c-0.053-0.191-0.023-0.397,0.076-0.569l7.671-13.102l-11.049-5.968c-1.974,3.974-4.668,7.642-7.705,11.022
	C247.073,215.837,247.108,215.899,247.13,215.971z"/>
<path fill="none" d="M214.912,269.95l0.928,14.704l9.537-1.914c-0.314-4.349-0.576-9.273-0.636-12.309
	C221.607,270.431,218.273,270.331,214.912,269.95z"/>
<path fill="none" d="M168.284,141.415l4.819-4.638l7.698-6.792l8.836-8.503l6.624-8.228l2.641-5.939l1.328-11.161l5.049-8.256
	c0,0,16.009-4.907,24.142-13.659c5.762-0.604,13.48-4.481,13.48-4.481l38.863,14.021l2.625,10.445l0.955,15.14l1.469-0.027
	c-0.298-4.206-1.018-14.395-1.031-14.598c-0.043-0.227-1.911-10.144-2.3-12.203l-40.264-14.252
	c-1.34,0.486-14.953,5.416-15.771,5.713c-4.611,4.528-17.95,11.284-22.428,12.573c-2.654,0.762-7.104,9.321-7.065,14.837
	c0.047,6.92-6.482,16.478-11.213,20.716l-21.171,19.221c1.677,1.264,4.298,3.241,7.503,5.657c0.347-0.351,0.73-0.727,1.143-1.117
	L168.284,141.415z"/>
<path fill="none" d="M170.752,149.645c0.08-0.116,0.189-0.258,0.31-0.412l-7.906-5.961l-11.052,6.352
	c-0.28,2.34-0.144,7.579,4.391,14.974C160.929,161.688,165.513,157.181,170.752,149.645z"/>
<path fill="none" d="M343.097,152.684c0.341,4.781,0.813,13.251-6.563,30.972c0.396-0.046,0.79-0.1,1.185-0.151l25.038-25.038
	c0.234-2.277,0.417-4.418,0.551-6.425C363.308,152.042,353.448,152.355,343.097,152.684z"/>
<path fill="none" d="M102.985,190.461c0.355-0.333,0.706-0.654,1.057-0.976c-0.193-0.389-0.389-0.771-0.578-1.169l-3.864-8.258
	c-0.133-0.288-0.261-0.564-0.385-0.832l-12.582,12.581c1.732,3.551,3.88,7.613,6.532,11.825
	C95.947,198.739,99.069,194.14,102.985,190.461z"/>
<path fill="none" d="M106.163,187.03c0.063,0.133,0.128,0.261,0.192,0.393c14.134-12.24,24.596-14.659,33.902-16.805
	c2.214-0.51,4.329-1,6.397-1.604c-1.872-2.054-6.467-7.25-9.468-11.93c-11.433,6.043-25.554,13.148-32.402,16.572l-3.319,3.318
	c0.262,0.564,0.541,1.167,0.846,1.825L106.163,187.03z"/>
<path fill="none" d="M334.846,183.831c7.592-17.965,7.093-26.382,6.757-31.099c-10.915,0.347-21.877,0.695-21.982,0.698
	c-6.906,0.188-12.862,6.025-15.181,9.902c-1.429,2.392-5.188,3.796-9.157,4.675c0.022,0.124,0.024,0.252-0.021,0.378l-3.171,8.918
	c11.564,4.553,23.54,6.974,35.151,6.914C329.799,184.204,332.332,184.07,334.846,183.831z"/>
<path fill="none" d="M278.715,170.972c0.3,0.167,0.599,0.336,0.9,0.5c1.057-2,2.018-3.98,2.802-5.805
	c-0.762-0.071-1.197-0.137-1.197-0.137S280.387,167.73,278.715,170.972z"/>
<path fill="none" d="M322.947,119.503c0,0-4.309,26.23-4.555,30.637c-4.271,0.868-10.919,2.479-17.273,12.917
	c-4.892,2.129-10.092,2.709-13.95,2.777c-0.257,0.657-0.528,1.329-0.827,2.02l0.082-0.011c4.729-0.536,14.566-1.652,16.734-5.278
	c2.417-4.042,8.56-10.023,15.792-10.551c0.166-1.055,5.09-32.442,5.251-33.467c-0.924-0.463-20.563-10.31-20.874-10.465
	c-0.278,0.002-8.619,0.088-12.1,0.125l0.074,1.045l11.063-0.208L322.947,119.503z"/>
<path fill="none" d="M225.652,265.946c0.185-0.002,0.371-0.001,0.555-0.004l4.799-0.214c5.092-0.298,11.222-0.651,16.472,0.439
	c-0.32-3.094-0.531-5.243-0.537-5.306c-0.011-0.109-0.01-0.218,0.004-0.326c0,0,0.388-3.193,0.884-7.273l-26.854-1.723
	C223.29,256.022,225.107,260.942,225.652,265.946z"/>
<path fill="none" d="M120.383,208.991l-7.412,16.748c3.934,2.939,8.32,5.528,13.21,7.563c0.08,0.032,0.152,0.076,0.223,0.12
	c2.881-7.017,5.668-13.798,6.754-16.443c-2.413-1.957-5.954-4.327-10.242-6.522C122.055,210.015,121.214,209.517,120.383,208.991z"
	/>
<path fill="none" d="M192.851,165.662l-13.474-10.16l-6.771,8.517l13.808,10.319L192.851,165.662z M179.627,157.057l11.954,8.726
	l-4.951,7.234l-12.34-9.125L179.627,157.057z"/>
<path fill="none" d="M134.549,214.266l29.66-25.853l-7.702-8.52L130.31,211.26C131.919,212.295,133.34,213.313,134.549,214.266z"/>
<path fill="none" d="M124.282,207.796c1.702,0.871,3.292,1.77,4.752,2.663l11.363-13.604c-1.737-1.167-6.263-4.208-7.063-4.745
	c-0.65,0.82-8.434,10.635-11.38,14.349C122.717,206.94,123.492,207.392,124.282,207.796z"/>
<path fill="none" d="M206.262,286.958c-0.04-0.201,0.092-0.398,0.293-0.439l8.546-1.716l-0.943-14.946
	c-3.181-0.4-6.373-1.063-9.428-2.143c-3.894-1.379-6.489-2.004-8.959-0.791c0.36,6.408,1.302,17.313,3.738,29.673
	c4.275-1.271,19.485-5.988,26.379-7.918c-0.15-1.415-0.307-3.222-0.454-5.187l-18.731,3.761
	C206.499,287.292,206.302,287.16,206.262,286.958z"/>
<path fill="none" d="M252.204,199.975c2.732-4.599,6.152-6.943,9.605-8.891c-4.482,0.307-8.938-0.566-13.08-2.032
	c-10.029-3.549-18.221-10.562-20.528-12.658c-0.297,0.407-2.57,3.522-5.557,7.617C227.218,186.48,240.18,193.481,252.204,199.975z"
	/>
<polygon fill="none" points="199.217,183.906 205.296,175.045 193.447,166.11 187.012,174.785 "/>
<path fill="none" d="M204.168,208.767l-11.097,9.344l11.386,12.596c6.066-4.045,12.313-4.381,17.381-4.646
	c1.816-0.096,3.517-0.193,5.075-0.436C219.336,219.96,211.368,214.06,204.168,208.767z"/>
<path fill="none" d="M197.652,200.312l6.1-8.501c0.236-0.328,0.69-0.411,1.025-0.185l7.02,4.723l7.743-10.616l-0.139-0.074
	c-0.066-0.036-0.129-0.076-0.189-0.121l-12.723-9.594l-14.091,20.539C194.017,197.659,195.782,198.946,197.652,200.312z"/>
<path fill="none" d="M111.753,224.801l7.364-16.636c-3.533-2.461-6.768-5.699-9.683-9.694c-3.211,3.438-7.847,9.807-9.633,14.475
	C103.2,217.133,107.158,221.199,111.753,224.801z"/>
<path fill="none" d="M168.069,275.688l-14.987-14.98c-4.448,4.346-9.041,9.506-13.306,14.619l5.824,5.934
	c4.479-4.43,10.448-5.399,12.973-5.806C161.942,274.915,165.211,275.204,168.069,275.688z"/>
<path fill="none" d="M169.975,280.629c-3.166-0.683-6.916-1.354-10.7-0.747c-2.497,0.4-9.131,1.467-12.445,6.999
	c-3.026,5.05-2.881,12.767,0.412,22.943c2.293-0.651,14.698-3.596,26.663-6.521C173.036,298.89,170.699,286.777,169.975,280.629z"/>
<path fill="none" d="M152.025,259.653l-12.329-12.323c-1.324,1.999-6.662,9.71-12.786,13.675c-1.553,1.006-4.041,2.291-7.09,3.654
	l1.504,32.052C125.337,291.094,139.042,272.34,152.025,259.653z"/>
<path fill="none" d="M172.792,293.434c0.722,3.962,1.436,7.644,1.838,9.691c8.405-2.057,16.486-4.08,20.565-5.262
	c-0.623-3.132-1.151-6.169-1.602-9.073L172.792,293.434z"/>
<path fill="none" d="M98.525,216.105c-2.832,6.403-8.67,16.747-12.921,21.556c5.38,2.988,11.404,6.633,15.395,11.438l9.505-21.476
	C105.93,224.121,101.959,220.181,98.525,216.105z"/>
<path fill="none" d="M125.288,236.14c-0.087-0.019-0.173-0.043-0.258-0.078c-4.91-2.041-9.328-4.609-13.302-7.514l-9.421,21.287
	c3.298,0.77,14.847,3.467,15.836,3.697C118.361,253,121.74,244.773,125.288,236.14z"/>
<path fill="none" d="M102.092,251.319l1.474,17.779c5.284-1.568,10.488-3.527,14.715-5.375c-0.198-4.211-0.35-7.467-0.41-8.72
	L102.092,251.319z"/>
<path fill="none" d="M138.758,246.036c0.032-0.051,0.071-0.1,0.115-0.141l11.658-11.148c-8.618-8.861-13.888-14.297-14.573-15.129
	c-0.381-0.463-0.926-1.014-1.603-1.621l-15.01,36.537l0.402,8.536c2.717-1.239,4.931-2.399,6.353-3.319
	C132.743,255.45,138.698,246.13,138.758,246.036z"/>
<path fill="none" d="M76.211,232.234c1.307-1.498,2.615-3.126,3.943-4.919c2.785-3.762,5.267-8.699,7.895-13.927
	c1.132-2.251,2.276-4.522,3.47-6.761c-2.438-3.747-4.482-7.404-6.191-10.738l-12.164,9.388l-9.979,9.979
	c2.251,3.764,7.152,11.631,10.874,15.264C74.64,231.088,75.376,231.657,76.211,232.234z"/>
<path fill="none" d="M97.705,210.253c2.355-5.039,6.874-11.064,10.003-14.29c-0.232-0.358-0.458-0.731-0.686-1.1
	c-3.994,3.771-7.187,8.893-10.097,14.321C97.183,209.54,97.438,209.897,97.705,210.253z"/>
<path fill="none" d="M84.956,230.866c-1.19,1.608-2.37,3.097-3.547,4.486c0.569,0.315,1.149,0.633,1.747,0.961l-0.196-0.186
	c4.336-4.603,11.002-16.629,13.437-22.646c-0.35-0.447-0.68-0.897-1.018-1.347c-0.672,1.309-1.334,2.622-1.992,3.931
	C90.641,221.529,88.046,226.691,84.956,230.866z"/>
<path fill="none" d="M271.666,190.464c-1.981,1.429-3.938,2.49-5.832,3.517c-3.773,2.046-7.097,3.85-9.689,8.122
	c8.543,4.612,16.024,8.653,18.824,10.165c4.814-9.29,9.861-19.026,9.885-19.074l3.852-10.827c-2.703-1.099-5.383-2.308-8.029-3.622
	C277.451,184.12,273.983,188.795,271.666,190.464z"/>
<path fill="none" d="M109.263,192.815c3.332,5.515,7.161,9.8,11.446,12.811l11.884-14.986c0.243-0.306,0.68-0.374,1.003-0.156
	l7.765,5.217l14.135-16.925l-4.435-4.906c-3.158,1.114-6.29,1.838-9.472,2.573C132.335,178.576,122.778,180.786,109.263,192.815z"/>
<path fill="none" d="M72.667,243.922c0.606,0.511,1.208,1.017,1.804,1.515c5.34,4.467,10.385,8.684,16.116,16.988
	c1.908,2.766,3.526,5.701,4.832,8.724c2.182-0.438,4.431-0.991,6.683-1.626l-1.546-18.654c-0.041-0.035-0.085-0.065-0.118-0.11
	c-4.325-5.651-11.511-9.582-17.852-13.052c-0.748-0.41-1.47-0.807-2.175-1.198C77.864,239.392,75.313,241.813,72.667,243.922z"/>
<path fill="none" d="M262.182,187.868c-15.008,2.09-33.857-16.215-33.857-16.215l-7.125,9.639l-42.171-31.78
	c-0.425,0.388-0.814,0.756-1.167,1.101c16.96,12.788,42.943,32.379,43.063,32.47c0.01,0.005,0.146,0.08,0.395,0.212l6.171-8.461
	c0.127-0.175,0.324-0.285,0.539-0.305c0.215-0.019,0.428,0.056,0.583,0.205c0.199,0.192,19.497,18.494,36.984,14.262
	c1.16-0.654,2.323-1.351,3.453-2.165c1.796-1.295,4.77-5.4,7.631-10.16c-0.307-0.167-0.612-0.338-0.918-0.508
	C271.305,183.326,267.189,187.171,262.182,187.868z"/>
<path fill="none" d="M159.923,169.474c0.991,1.253,2.097,2.551,3.343,3.894c2.779-3.496,11.978-15.065,14.92-18.765l-2.361-1.78
	c-0.064,0.083-0.122,0.161-0.168,0.227C170.007,161.178,164.852,166.191,159.923,169.474z"/>
<path fill="none" d="M156.674,177.848c0.891-0.534,2.869-1.719,4.269-2.559c-1.35-1.456-2.551-2.866-3.622-4.229
	c-1.6,0.894-3.181,1.627-4.751,2.248L156.674,177.848z"/>
<path fill="none" d="M367.697,153.526l0.692-0.693l-0.572-0.572c-0.01,0-0.019,0.001-0.029,0.001
	C367.761,152.676,367.729,153.102,367.697,153.526z"/>
<path fill="none" d="M69.673,251.173c-1.074-0.898-2.198-1.844-3.368-2.848c-4.87,2.917-10.237,5.246-16.563,7.706
	c5.801,6.106,12.739,11.495,20.862,14.771c2.968,0.182,5.949,0.496,8.902,0.813l4.603,0.478c1.094,0.104,2.279,0.121,3.53,0.07
	c-0.928-1.898-1.998-3.741-3.203-5.487C79.281,259.206,75.041,255.66,69.673,251.173z"/>
<path fill="none" d="M148.998,150.638c-2.768,1.597-6.426,3.588-10.483,5.744c3.206,4.963,8.348,10.65,9.721,12.142
	c1.898-0.624,3.765-1.38,5.642-2.375C149.599,159.2,148.865,153.861,148.998,150.638z"/>
<path fill="none" d="M293.697,168.33c-2.593,0.487-5.157,0.778-7.107,0.999l-0.961,0.112c-0.617,1.34-1.303,2.716-2.025,4.093
	c2.345,1.158,4.713,2.227,7.103,3.205L293.697,168.33z"/>
<path fill="none" d="M154.205,324.761c-0.384,0.1-0.747,0.194-1.077,0.279c1.777,3.92,3.575,7.311,5.401,10.171
	c2.245-0.646,6.569-1.888,11.719-3.356c-0.178-0.393-0.352-0.789-0.525-1.185c-3.671,1.008-6.988,1.941-10.647,3.023
	C159.075,333.693,156.713,329.845,154.205,324.761z"/>
<polygon fill="none" points="236.23,284.992 244.022,277.2 235.884,278.675 "/>
<path fill="none" d="M68.447,270.694c-7.524-3.402-13.996-8.58-19.456-14.372c-1.508,0.583-3.078,1.176-4.7,1.785l13.241,13.241
	C61.08,270.688,64.744,270.558,68.447,270.694z"/>
<path fill="none" d="M235.407,269.987l0.436,7.934l9.106-1.648l3.256-3.254c-0.078-0.717-0.155-1.429-0.229-2.123
	C244.33,269.853,239.729,269.811,235.407,269.987z"/>
<path fill="none" d="M267.968,253.255l16.722-16.723l-16.915-6.48C267.796,232.624,267.878,242.569,267.968,253.255z"/>
<path fill="none" d="M231.261,270.204l-5.022,0.223c-0.248,0.001-0.499,0.002-0.748,0.002c0.093,4.521,0.646,13.402,1.127,18.048
	c1.115-0.307,1.951-0.518,2.381-0.597c1.039-0.188,3.201-0.744,5.762-1.417l0.762-0.762l-0.86-15.681
	C233.494,270.073,232.352,270.14,231.261,270.204z"/>
<path fill="none" d="M274.91,215.628c-3.021,5.83-5.724,11.045-6.726,12.979c2.54,0.974,10.999,4.215,17.663,6.768l10.996-10.996
	l-21.887-8.728C274.94,215.644,274.926,215.636,274.91,215.628z"/>
<path fill="none" d="M227.021,291.457c0.075,0.454,0.165,0.94,0.259,1.439c0.472-0.128,0.957-0.259,1.434-0.388l1.925-1.924
	c-0.44,0.101-0.818,0.183-1.112,0.235C229.097,290.897,228.218,291.125,227.021,291.457z"/>
<path fill="none" d="M162.279,242.536c1.169,1.203,2.342,2.41,3.507,3.609l0.64-0.615l-3.511-3.598L162.279,242.536z"/>
<path fill="none" d="M157.312,237.429c0.65,0.668,1.304,1.34,1.963,2.019l0.629-0.601l-1.962-2.011L157.312,237.429z"/>
<path fill="none" d="M159.795,239.981c0.652,0.67,1.307,1.344,1.964,2.02l0.634-0.604l-1.967-2.017L159.795,239.981z"/>
<path fill="none" d="M153.733,233.749c0.613,0.633,1.231,1.268,1.854,1.906c0.398,0.41,0.799,0.822,1.204,1.238l0.629-0.592
	l-3.068-3.145C154.147,233.354,153.936,233.556,153.733,233.749z"/>
<path fill="none" d="M218.51,230.764c-3.461,0.303-6.971,0.955-10.44,2.961c2.797,2.954,8.137,9.065,12.233,16.554l0.019-0.276
	l10.832,0.694C229.402,246.979,223.862,236.95,218.51,230.764z"/>
<path fill="none" d="M305.82,215.402l2.391-2.39l2.173-5.441l2.382,0.886l0.907-0.907c-2.049-0.769-3.569-1.34-4.229-1.588
	C308.862,207.478,307.332,211.464,305.82,215.402z"/>
<path fill="none" d="M206.189,206.567c7.691,5.654,16.271,12.004,24.313,18.018c0.576-0.276,1.124-0.594,1.618-1.002
	c7.004-5.775,14.667-12.771,18.688-20.963l-29.941-16.17C214.939,194.573,207.409,204.897,206.189,206.567z M230.662,223.76
	c-4.576-3.471-23.674-17.366-23.674-17.366l14.251-19.275l28.514,15.645C244.906,212.677,230.662,223.76,230.662,223.76z"/>
<path fill="none" d="M249.931,260.728c0.055,0.561,0.301,3.032,0.641,6.299c0.845,0.303,1.709,0.648,2.596,1.029l11.876-11.876
	c-3.699-3.311-10.573-9.518-13.155-11.552C251.032,251.674,249.953,260.534,249.931,260.728z"/>
<path fill="none" d="M169.5,346.008c1.481,0.657,2.996,1.03,4.596,1.118l18.457-18.457c-11.293,3.13-26.35,7.445-32.255,9.141
	C163.277,341.886,166.334,344.604,169.5,346.008z"/>
<path fill="none" d="M156.401,339.99c-0.576,0.527-1.274,1.168-2.048,1.878c5.312,5.971,10.152,9.114,14.41,10.591l1.45-1.45
	c-0.836-0.228-1.684-0.523-2.538-0.903C163.727,348.354,159.98,345,156.401,339.99z"/>
<path fill="none" d="M181.905,328.547c3.166-0.893,6.314-1.775,9.241-2.588c-0.126-0.331-0.255-0.676-0.383-1.03
	c-3.471,0.957-6.521,1.79-9.255,2.533C181.656,327.87,181.791,328.236,181.905,328.547z"/>
<path fill="none" d="M170.974,331.646c3.209-0.914,6.707-1.907,10.21-2.896c-0.116-0.313-0.252-0.688-0.398-1.092
	c-3.968,1.079-7.29,1.976-10.334,2.811C170.624,330.864,170.797,331.258,170.974,331.646z"/>
<path fill="none" d="M133.708,314.8c2.265-1.152,5.243-2.384,9.241-3.678c-3.674-11.425-3.669-20.354,0.037-26.54
	c0.489-0.816,1.03-1.547,1.599-2.22l-5.77-5.88c-9.699,11.742-17.467,22.895-17.501,22.947l-1.879,2.917
	C124.087,305.672,128.944,309.769,133.708,314.8z"/>
<path fill="none" d="M88.315,273.616c-1.553,0.094-3.017,0.091-4.352-0.037l-4.62-0.478c-6.891-0.741-13.932-1.487-20.524-0.466
	l11.081,11.082c12.859,3.106,21.817,5.271,21.903,5.292C91.793,284.03,90.557,278.663,88.315,273.616z"/>
<path fill="none" d="M99.21,291.384c4.966,1.902,11.695,5.057,19,10.106c0.935-1.451,1.64-2.546,1.718-2.667
	c-0.015-0.32-0.961-20.484-1.574-33.521c-6.369,2.738-14.748,5.665-22.368,7.231C98.45,278.745,99.599,285.263,99.21,291.384z"/>
<path fill="none" d="M152.423,339.588l2.292-2.104c-3.772-5.919-7.362-13.747-10.817-23.556c-3.462,1.111-6.082,2.162-8.108,3.142
	c3.578,4.014,7.077,8.572,10.369,13.755C148.307,334.206,150.396,337.095,152.423,339.588z"/>
<path fill="none" d="M174.649,307.254c-0.075-0.333-0.159-0.669-0.23-1.001c-11.829,2.886-24.009,5.771-26.218,6.39
	c1.525,4.319,3.063,8.216,4.617,11.706c0.322-0.083,0.675-0.174,1.053-0.271c-1.637-3.373-3.295-7.218-4.367-10.821
	C149.503,313.256,162.123,310.269,174.649,307.254z"/>
<path fill="none" d="M150.489,230.412c0.72,0.742,1.457,1.499,2.204,2.267l0.617-0.59l-2.203-2.258L150.489,230.412z"/>
<path fill="none" d="M185.18,303.594c-3.122,0.785-6.55,1.631-10.035,2.481c0.071,0.334,0.156,0.67,0.231,1.004
	c3.434-0.826,6.84-1.65,9.96-2.411C185.278,304.3,185.225,303.938,185.18,303.594z"/>
<path fill="none" d="M226.296,291.66c-2.589,0.731-6.321,1.844-10.201,3.016c0.09,0.361,0.195,0.793,0.311,1.274
	c3.214-0.928,6.603-1.883,10.152-2.854C226.463,292.597,226.374,292.113,226.296,291.66z"/>
<path fill="none" d="M191.485,324.729c0.13,0.354,0.258,0.699,0.385,1.029c1.76-0.487,3.422-0.943,4.955-1.361l1.59-1.589
	C195.929,323.501,193.625,324.14,191.485,324.729z"/>
<path fill="none" d="M195.803,300.796c-2.274,0.659-5.788,1.578-9.894,2.615c0.044,0.346,0.098,0.708,0.156,1.079
	c4.086-0.998,7.625-1.874,10.006-2.486C195.982,301.601,195.889,301.195,195.803,300.796z"/>
<path fill="none" d="M215.378,294.893c-2.191,0.664-4.407,1.337-6.477,1.968c0.086,0.396,0.177,0.803,0.27,1.217
	c2.072-0.621,4.252-1.264,6.518-1.919C215.571,295.682,215.468,295.252,215.378,294.893z"/>
<path fill="none" d="M208.184,297.08c-3.5,1.067-6.498,1.984-8.074,2.452c0.088,0.411,0.184,0.826,0.273,1.239
	c2.47-0.774,5.163-1.604,8.07-2.479C208.359,297.881,208.27,297.475,208.184,297.08z"/>
<path fill="none" d="M203.789,82.262c4.044-1.165,17.354-7.996,20.801-11.729c0.244-0.264,0.549-0.466,0.886-0.587l13.752-4.981
	c-4.928-2.899-9.566-6.929-13.818-11.933l-29.983,29.983c1.498,1.318,2.775,2.318,3.685,2.865
	C200.521,84.08,202.112,82.743,203.789,82.262z"/>
<path fill="none" d="M161.296,139.174c0.069-0.063,0.94-0.853,2.298-2.085l-10.907-11.334l-10.148,10.148
	c3.786,3.9,6.935,7.313,8.582,9.121C153.438,143.691,160.944,139.376,161.296,139.174z"/>
<path fill="none" d="M179.796,122.38c-1.904-2.044-6.311-6.771-11.45-12.285l-0.737,0.737l10.203,11.219l-11.882,11.127
	c0,0-5.379-5.59-10.135-10.532l-0.992,0.992c4.193,4.357,8.827,9.173,11.007,11.438C169.908,131.356,175.884,125.932,179.796,122.38
	z"/>
<path fill="none" d="M132.96,154.456l0.557,1.183c5.573-2.922,10.664-5.663,14.186-7.701c-0.59-0.646-1.357-1.481-2.279-2.472
	l-1.028,0.565c1.002,1.114,1.549,1.749,1.549,1.749L132.96,154.456z"/>
<path fill="none" d="M193.471,101.447c-0.027-3.999,1.895-10.077,4.765-14.359c-0.985-0.618-2.318-1.668-3.858-3.024l-12.604,12.605
	c4.189,4.317,7.933,8.221,10.17,10.564C192.893,105.099,193.482,103.068,193.471,101.447z"/>
<path fill="none" d="M183.753,118.788c2.342-2.096,4.867-5.377,6.759-8.723c-2.068-2.166-6.184-6.464-10.856-11.278l-9.193,9.193
	l11.549,12.39C183.092,119.388,183.753,118.788,183.753,118.788z"/>
<path fill="none" d="M129.573,321.379c-0.413,0.457-0.741,0.881-1.041,1.268c0,0-1.378,1.611-1.664,1.91l18.53,21.478l1.495-1.373
	c-2.307-2.816-4.657-6.066-7.043-9.823C136.603,329.726,133.126,325.271,129.573,321.379z"/>
<path fill="none" d="M148.829,346.938c-3.983,3.655-7.741,7.104-7.741,7.104c-0.007,0.006-0.156,0.174-0.406,0.456l13.021,13.021
	l9.282-9.281C158.516,356.08,153.777,352.514,148.829,346.938z"/>
<path fill="none" d="M115.345,308.692l-0.924,1.435l10.488,12.158c0.187-0.198,1.261-1.464,1.261-1.464
	c0.38-0.491,0.801-1.033,1.348-1.622C123.445,315.015,119.313,311.545,115.345,308.692z"/>
<path fill="none" d="M120.161,162.541l-0.568-1.211l-5.005,2.574l-0.016-0.033l-1.02,1.02l0.383,0.816
	C115.917,164.703,118.012,163.636,120.161,162.541z"/>
<path fill="none" d="M84.397,194.044l-2.965,2.965l3.208-2.476C84.557,194.368,84.478,194.208,84.397,194.044z"/>
<path fill="none" d="M112.427,166.015l-0.918,0.918c0.359-0.182,0.721-0.365,1.09-0.552L112.427,166.015z"/>
<polygon fill="none" points="333.508,117.951 325.371,109.814 325.95,117.436 "/>
<path fill="none" d="M320.517,151.676l42.884-1.131c0.05-0.887,0.09-1.742,0.123-2.58l-0.764-0.763
	c-0.048,1.499-0.092,2.483-0.092,2.483l-41.058,1.063l4.723-31.106l9.634,0.767l-0.851-0.851l-9.461-0.645L320.517,151.676z"/>
<path fill="none" d="M290.211,94.029c0.017,0.085,0.027,0.17,0.032,0.257l0.879,12.428l12.374-0.127
	c0.119-0.002,0.234,0.025,0.342,0.079l20.579,10.318l-0.669-8.792l-29.179-29.18c-2.589,0.944-4.858,1.842-6.691,2.633
	L290.211,94.029z"/>
<path fill="none" d="M120.828,162.2c3.973-2.031,8.105-4.161,12.025-6.213l-0.559-1.188l-12.036,6.189L120.828,162.2z"/>
<path fill="none" d="M144.899,144.904c-1.028-1.102-2.21-2.356-3.502-3.708l-0.963,0.549c1.391,1.469,2.556,2.734,3.448,3.717
	L144.899,144.904z"/>
<path fill="none" d="M139.904,141.187l0.959-0.547c-0.485-0.507-0.992-1.03-1.503-1.558l-0.753,0.752
	C139.055,140.298,139.492,140.753,139.904,141.187z"/>
<path fill="none" d="M61.631,244.124c-1.322-1.246-2.697-2.594-4.151-4.104c-3.254-3.382-5.963-7.035-8.238-10.822l-11.354,11.354
	c2.206,3.521,4.75,7.167,7.643,10.701C51.813,248.854,57.015,246.706,61.631,244.124z"/>
<path fill="none" d="M138.857,352.087c0.061-0.088,5.438-5.04,5.438-5.04c-2.638-3.059-11.044-12.804-18.469-21.408
	c-1.782,1.835-4.342,4.418-6.954,7.049l19.704,19.705C138.749,352.202,138.848,352.094,138.857,352.087z"/>
<path fill="none" d="M113.159,309.328c0.192-0.297,0.532-0.826,0.962-1.492c-12.991-9.016-23.928-11.54-24.67-11.703
	c-0.889-0.195-4.587-1.023-9.183-2.048l13.163,13.163C101.507,306.438,109.819,308.272,113.159,309.328z"/>
<path fill="none" d="M37.352,241.089l-5.04,5.039l7.339,7.34c1.793-0.67,3.511-1.313,5.149-1.936
	C41.992,248.078,39.512,244.526,37.352,241.089z"/>
<path fill="none" d="M62.869,234.835c1.861,1.934,3.578,3.585,5.212,5.078c2.456-1.871,4.798-4.011,7.126-6.556
	c-0.838-0.589-1.587-1.174-2.194-1.768c-3.776-3.685-8.557-11.296-10.921-15.241l-7.373,7.373
	C56.914,227.653,59.583,231.421,62.869,234.835z"/>
<path fill="none" d="M113.098,310.884c-3.746-1.291-11.117-2.711-18.253-2.224l21.916,21.917c2.7-2.72,5.343-5.388,7.109-7.208
	C118.01,316.577,113.203,311.004,113.098,310.884z"/>
<path fill="#FFBF00" d="M61.631,244.124c-4.617,2.582-9.818,4.73-16.1,7.129c1.33,1.625,2.734,3.224,4.21,4.778
	c6.326-2.46,11.693-4.789,16.563-7.706C64.834,247.06,63.28,245.679,61.631,244.124z"/>
<path fill="#FFBF00" d="M278.715,170.972c-0.747,1.447-1.66,3.1-2.742,4.859c-0.071,0.114-0.14,0.22-0.21,0.332
	c0.306,0.17,0.611,0.341,0.918,0.508c1.012-1.684,2.008-3.446,2.935-5.198C279.313,171.308,279.015,171.139,278.715,170.972z"/>
<path fill="#FFBF00" d="M68.082,239.913c1.597,1.459,3.112,2.767,4.586,4.009c2.645-2.108,5.196-4.53,7.743-7.414
	c-1.969-1.093-3.741-2.126-5.203-3.15C72.88,235.902,70.537,238.042,68.082,239.913z"/>
<path fill="#FFBF00" d="M102.985,190.461c-3.916,3.679-7.038,8.277-9.819,13.171c1.154,1.833,2.406,3.692,3.759,5.552
	c2.91-5.428,6.103-10.55,10.097-14.321c-1.041-1.685-2.035-3.477-2.98-5.378C103.69,189.808,103.34,190.128,102.985,190.461z"/>
<path fill="#FFBF00" d="M174.215,145.884c-0.413,0.391-0.796,0.767-1.143,1.117c1.482,1.118,3.09,2.33,4.789,3.611
	c0.353-0.345,0.742-0.713,1.167-1.101L174.215,145.884z"/>
<path fill="#FFBF00" d="M88.049,213.389c-2.628,5.228-5.11,10.165-7.895,13.927c-1.328,1.793-2.636,3.421-3.943,4.919
	c1.444,0.998,3.22,2.024,5.197,3.118c1.177-1.39,2.356-2.878,3.547-4.486c3.091-4.175,5.686-9.337,8.432-14.801
	c0.658-1.309,1.32-2.622,1.992-3.931c-1.381-1.839-2.674-3.683-3.86-5.507C90.325,208.866,89.181,211.138,88.049,213.389z"/>
<path fill="#FFBF00" d="M146.655,169.014c-2.069,0.605-4.184,1.094-6.397,1.604c-9.307,2.146-19.769,4.564-33.902,16.805
	c0.922,1.91,1.891,3.709,2.907,5.392c13.516-12.029,23.073-14.239,32.327-16.373c3.182-0.734,6.313-1.458,9.472-2.573l-3.576-3.956
	C147.429,169.854,147.127,169.533,146.655,169.014z"/>
<path fill="#FFBF00" d="M170.752,149.645c-5.239,7.536-9.823,12.043-14.257,14.953c0.94,1.535,2.072,3.163,3.428,4.876
	c4.929-3.283,10.084-8.296,15.733-16.423c0.046-0.066,0.104-0.144,0.168-0.227l-4.763-3.591
	C170.941,149.387,170.833,149.529,170.752,149.645z"/>
<path fill="#FFBF00" d="M148.236,168.524c0.213,0.231,0.338,0.365,0.349,0.376l3.985,4.408c1.57-0.62,3.151-1.354,4.751-2.248
	c-1.347-1.715-2.483-3.354-3.443-4.912C152.001,167.144,150.134,167.9,148.236,168.524z"/>
<path fill="#FFBF00" d="M335.773,185.45l1.945-1.946c-0.395,0.052-0.789,0.105-1.185,0.151
	C336.291,184.243,336.035,184.842,335.773,185.45z"/>
<path fill="#FFBF00" d="M334.846,183.831c-2.514,0.239-5.047,0.373-7.604,0.386c-11.611,0.06-23.587-2.361-35.151-6.914
	l-2.002,5.626c12.215,4.784,24.877,7.327,37.172,7.265c1.298-0.007,2.591-0.048,3.877-0.109l1.698-1.698
	C333.563,186.804,334.229,185.286,334.846,183.831z"/>
<path fill="#FFBF00" d="M44.801,251.532c-1.639,0.622-3.356,1.266-5.149,1.936l4.639,4.64c1.623-0.609,3.192-1.202,4.7-1.785
	C47.522,254.762,46.125,253.157,44.801,251.532z"/>
<path fill="#FFBF00" d="M283.604,173.534c-0.923,1.761-1.911,3.519-2.928,5.212c2.646,1.314,5.326,2.523,8.029,3.622l2.001-5.629
	C288.316,175.76,285.948,174.691,283.604,173.534z"/>
<path fill="#82C8BE" d="M290.671,113.516c-0.237,0.205-5.841,5.113-5.159,16.389c0.288,4.77,1.094,9.77,1.872,14.606
	c0.89,5.53,1.73,10.752,1.563,14.596c-0.074,1.701-0.741,4.061-1.778,6.729c3.858-0.068,9.059-0.648,13.95-2.777
	c6.354-10.438,13.003-12.05,17.273-12.917c0.246-4.407,4.555-30.637,4.555-30.637l-20.582-10.458l-11.063,0.208l0.169,2.384
	C291.52,112.349,291.214,113.053,290.671,113.516z M299.12,113.713l20.448,9.352c0,0-0.461,7.239-1.494,11.631
	c-1.034,4.393-9.982,2.811-9.982,2.811l-6.457,7.759l-1.67,4.696l-3.714,4.5l-4.589,1.019l-4.383-24.813l2.266-10.828
	L299.12,113.713z"/>
<path fill="#82C8BE" d="M177.02,143.399c-1.056,0.877-1.992,1.714-2.804,2.485l4.813,3.627c0.871-0.793,1.891-1.662,3.048-2.565
	L177.02,143.399z"/>
<g>
	<path fill="#82C8BE" d="M275.763,176.163c0.07-0.112,0.139-0.218,0.21-0.332c1.082-1.759,1.995-3.413,2.742-4.859
		c1.672-3.242,2.505-5.441,2.505-5.441s0.436,0.066,1.197,0.137c1.198-2.782,1.984-5.201,2.051-6.747
		c0.148-3.387-0.657-8.391-1.51-13.69c-0.797-4.944-1.619-10.056-1.921-15.047c-0.667-11.013,3.91-17.133,5.889-19.247
		c-0.02-0.274-0.06-0.841-0.112-1.6l-1.469,0.027l-0.955-15.14l-2.625-10.445l-38.863-14.021c0,0-7.719,3.876-13.48,4.481
		c-8.133,8.752-24.142,13.659-24.142,13.659l-5.049,8.256l-1.328,11.161l-2.641,5.939l-6.624,8.228l-8.836,8.503l-7.698,6.792
		l-4.819,4.638l5.931,4.47c0.813-0.771,1.748-1.607,2.804-2.485l-2.906-2.038l21.536-21.188l8.639,9.137l5.287-4.473l6.694,5.798
		l2.597,2.249l-2.275,3.424l0.661,0.516l5.543,4.323l-3.913,6.544l6.037,5.31l-6.457,7.76l5.201,7.655l-3.882,4.97l-37.706-26.441
		c-1.158,0.904-2.178,1.772-3.048,2.565l42.171,31.78l7.125-9.639c0,0,18.85,18.305,33.857,16.215
		C267.189,187.171,271.305,183.326,275.763,176.163z M258.284,178.03l-10.855-0.67l-8.216-6.61l-14.786-8.934l3.108-5.772
		l3.684-2.926l-6.81-6.111l1.313-7.773l0.119-0.708l-3.252-2.737l2.07-3.304l0.37-0.59l-14.252-11.917l-5.591,3.836l-4.024-3.539
		l3.881-4.971l-1.584-7.433l3.403-12.541l13.09-8.583l6.3,0.114l3.578-5.606c0,0,0,0,5.998-0.521
		c5.996-0.521,24.527,2.339,28.853,6.513c4.327,4.176,16.058,8.328,16.058,8.328l-3.633,16.16l1.527,17.987l-7.323,11.682
		l2.021,9.174l-4.382,6.378l-1.399,6.907l0.009,0.074l0.533,4.346l-0.938,2.637l-1.065,2.998l-4.86-1.191L258.284,178.03z"/>
</g>
<g>
	<path fill="#D2D26E" d="M266.087,173.918l1.065-2.998l0.938-2.637l-0.533-4.346l-0.009-0.074l1.399-6.907l4.382-6.378l-2.021-9.174
		l7.323-11.682l-1.527-17.987l3.633-16.16c0,0-11.73-4.152-16.058-8.328c-4.325-4.174-22.856-7.034-28.853-6.513
		c-5.998,0.521-5.998,0.521-5.998,0.521l-3.578,5.606l-6.3-0.114l-13.09,8.583l-3.403,12.541l1.584,7.433l-3.881,4.971l4.024,3.539
		l5.591-3.836l14.252,11.917l-0.37,0.59l-2.07,3.304l3.252,2.737l-0.119,0.708l-1.313,7.773l6.81,6.111l-3.684,2.926l-3.108,5.772
		l14.786,8.934l8.216,6.61l10.855,0.67l2.942-5.303L266.087,173.918z"/>
</g>
<g>
	<polygon fill="#D2D26E" points="223.664,168.417 218.463,160.762 224.92,153.002 218.883,147.693 222.796,141.148 217.253,136.825
		216.592,136.31 218.867,132.885 216.271,130.637 209.576,124.838 204.289,129.311 195.65,120.174 174.114,141.362 177.02,143.399
		182.077,146.946 219.782,173.387 	"/>
</g>
<path fill="#D2D26E" d="M291.662,155.48l4.589-1.019l3.714-4.5l1.67-4.696l6.457-7.759c0,0,8.948,1.582,9.982-2.811
	c1.033-4.392,1.494-11.631,1.494-11.631l-20.448-9.352l-9.575,6.126l-2.266,10.828L291.662,155.48z"/>
<polygon fill="#FAC8C8" points="176.814,241.389 169.29,248.466 172.828,252.091 180.43,245.099 "/>
<path fill="#FAC8C8" d="M184.143,248.911l-7.546,7.043l2.124,2.177c1.354-1.243,4.333-3.98,7.601-6.983L184.143,248.911z"/>
<path fill="#FAC8C8" d="M157.726,207.208l2.403,2.549l5.724-5.449c-0.869-0.929-1.69-1.808-2.451-2.622L157.726,207.208z"/>
<polygon fill="#FAC8C8" points="150.963,213.788 153.336,216.224 159.587,210.272 157.19,207.729 "/>
<path fill="#FAC8C8" d="M188.908,228.985c-0.646-0.693-1.313-1.406-1.994-2.135l-5.599,5.387l1.943,2.063L188.908,228.985z"/>
<polygon fill="#FAC8C8" points="186.845,239.196 183.226,235.354 177.358,240.876 180.979,244.593 "/>
<polygon fill="#FAC8C8" points="182.714,234.812 180.777,232.757 174.929,238.384 176.836,240.341 "/>
<polygon fill="#FAC8C8" points="147.844,210.588 150.443,213.254 156.679,207.187 154.225,204.582 "/>
<path fill="#FAC8C8" d="M174.987,225.523l1.932,2.05l5.647-5.375c-0.635-0.681-1.276-1.367-1.922-2.058L174.987,225.523z"/>
<path fill="#FAC8C8" d="M165.914,215.896l2.052,2.176l5.676-5.428c-0.675-0.721-1.342-1.436-2-2.139L165.914,215.896z"/>
<polygon fill="#FAC8C8" points="176.292,240.854 174.39,238.901 166.947,246.064 168.769,247.932 "/>
<polygon fill="#FAC8C8" points="168.456,231.74 170.422,233.759 176.379,228.089 174.446,226.04 "/>
<path fill="#FAC8C8" d="M172.627,223.02l1.849,1.961l5.659-5.386c-0.602-0.645-1.205-1.289-1.809-1.937L172.627,223.02z"/>
<polygon fill="#FAC8C8" points="167.914,232.255 160.426,239.381 162.393,241.397 169.881,234.272 "/>
<polygon fill="#FAC8C8" points="165.474,229.751 157.942,236.836 159.904,238.847 167.394,231.721 "/>
<path fill="#FAC8C8" d="M161.827,226.009c-2.583,2.47-5.104,4.881-7.475,7.148l3.068,3.145l7.532-7.086L161.827,226.009z"/>
<path fill="#D2D26E" d="M165.93,133.179l11.882-11.127l-10.203-11.219l-11.814,11.814C160.55,127.589,165.93,133.179,165.93,133.179
	z"/>
<polygon fill="#FAC8C8" points="117.85,160.591 114.571,163.87 114.587,163.903 119.593,161.33 118.96,159.982 "/>
<polygon fill="#FAC8C8" points="129.528,148.914 119.738,158.704 131.181,152.428 "/>
<path fill="#FAC8C8" d="M132.96,154.456l12.984-6.676c0,0-0.547-0.635-1.549-1.749l-12.239,6.713L132.96,154.456z"/>
<polygon fill="#FAC8C8" points="119.617,159.622 120.259,160.987 132.295,154.798 131.499,153.105 "/>
<path fill="#FAC8C8" d="M130.09,148.351l1.748,3.717l12.043-6.606c-0.892-0.983-2.057-2.248-3.448-3.717l-8.695,4.958
	L130.09,148.351z"/>
<path fill="#FAC8C8" d="M133.74,144.702l6.165-3.515c-0.412-0.433-0.849-0.888-1.297-1.353L133.74,144.702z"/>
<path fill="#FAE6C8" d="M154.205,324.761c2.509,5.084,4.871,8.933,4.871,8.933c3.659-1.082,6.976-2.016,10.647-3.023
	c-1.355-3.108-2.572-6.311-3.522-9.09C161.339,322.883,157.056,324.021,154.205,324.761z"/>
<path fill="#FAE6C8" d="M198.574,311.991c-0.952-3.37-1.778-6.714-2.503-9.987c-2.38,0.612-5.92,1.488-10.006,2.486
	c0.458,2.957,1.305,6.643,2.305,10.312C192.539,313.664,196.144,312.67,198.574,311.991z"/>
<path fill="#FAE6C8" d="M164.193,314.619c-0.036-0.203,0.1-0.396,0.304-0.433c0.204-0.035,0.396,0.101,0.432,0.304
	c0.21,1.216,0.841,3.462,1.754,6.187c3.438-0.922,7.133-1.919,10.796-2.911c-1.009-3.289-2.017-6.925-2.829-10.512
	c-12.526,3.015-25.146,6.002-25.146,6.002c1.072,3.604,2.73,7.448,4.367,10.821c2.832-0.734,7.162-1.885,12.09-3.206
	C165.042,318.121,164.406,315.85,164.193,314.619z"/>
<path fill="#FAE6C8" d="M209.171,298.077c0.695,3.08,1.575,6.601,2.436,9.953c0.739-0.229,1.514-0.471,2.301-0.715l3.582-3.582
	c-0.687-2.916-1.339-5.666-1.801-7.575C213.423,296.813,211.243,297.456,209.171,298.077z"/>
<path fill="#FAE6C8" d="M187.65,315c-1-3.671-1.849-7.359-2.314-10.332c-3.12,0.761-6.526,1.585-9.96,2.411
	c0.81,3.58,1.816,7.208,2.823,10.492C181.466,316.686,184.686,315.81,187.65,315z"/>
<path fill="#FAE6C8" d="M210.891,308.253c-0.86-3.35-1.738-6.873-2.438-9.961c-2.907,0.875-5.601,1.705-8.07,2.479
	c0.719,3.268,1.537,6.604,2.484,9.966C204.566,310.214,207.403,309.335,210.891,308.253z"/>
<path fill="#FAE6C8" d="M211.932,309.291l0.842-0.842c-0.329,0.103-0.661,0.205-0.98,0.305
	C211.84,308.936,211.886,309.111,211.932,309.291z"/>
<path fill="#FAE6C8" d="M227.448,293.774l1.265-1.266c-0.477,0.129-0.962,0.26-1.434,0.388
	C227.334,293.184,227.39,293.475,227.448,293.774z"/>
<path fill="#FAE6C8" d="M216.405,295.95c0.439,1.814,1.053,4.397,1.705,7.162l8.703-8.703c-0.091-0.451-0.177-0.89-0.256-1.313
	C223.008,294.067,219.619,295.022,216.405,295.95z"/>
<path fill="#FAE6C8" d="M203.076,311.454c0.49,1.707,1.012,3.418,1.565,5.127l6.676-6.676c-0.078-0.309-0.159-0.616-0.239-0.929
	C207.599,310.056,204.771,310.933,203.076,311.454z"/>
<path fill="#FAE6C8" d="M166.922,321.387c0.951,2.775,2.17,5.977,3.529,9.083c3.045-0.835,6.366-1.731,10.334-2.811
	c-0.762-2.102-1.905-5.372-3.087-9.18C174.044,319.469,170.355,320.465,166.922,321.387z"/>
<path fill="#FAE6C8" d="M188.569,315.522c0.921,3.311,1.951,6.564,2.916,9.207c2.141-0.59,4.444-1.229,6.93-1.921l2.691-2.69
	c-0.842-2.468-1.615-4.944-2.323-7.41C196.349,313.389,192.741,314.381,188.569,315.522z"/>
<path fill="#FAE6C8" d="M178.42,318.284c1.185,3.813,2.333,7.093,3.088,9.178c2.734-0.743,5.784-1.576,9.255-2.533
	c-0.966-2.649-1.993-5.9-2.914-9.21C184.892,316.527,181.679,317.4,178.42,318.284z"/>
<path fill="#F5F5F5" d="M206.988,206.394c0,0,19.098,13.896,23.674,17.366c0,0,14.244-11.083,19.091-20.997l-28.514-15.645
	L206.988,206.394z"/>
<path fill="#FAC8C8" d="M244.028,221.09c-4.018,3.864-7.532,6.321-7.532,6.321l12.257,9.361L244.028,221.09z"/>
<polygon fill="#FAE6C8" points="308.211,213.013 312.766,208.457 310.384,207.571 "/>
<path fill="#F5F5F5" d="M321.61,150.749l41.058-1.063c0,0,0.044-0.984,0.092-2.483l-26.793-26.793l-9.634-0.767L321.61,150.749z"/>
<path fill="#82C8BE" d="M62.869,234.835c-3.286-3.414-5.955-7.182-8.15-11.113l-5.476,5.477c2.275,3.787,4.983,7.44,8.238,10.822
	c1.454,1.51,2.829,2.857,4.151,4.104c2.271-1.271,4.4-2.65,6.45-4.211C66.447,238.42,64.73,236.769,62.869,234.835z"/>
<path fill="#82C8BE" d="M154.354,341.868c-1.629,1.495-3.601,3.306-5.524,5.07c4.948,5.575,9.687,9.142,14.156,11.3l5.779-5.779
	C164.506,350.982,159.665,347.839,154.354,341.868z"/>
<path fill="#82C8BE" d="M74.472,245.437c-0.597-0.498-1.198-1.004-1.804-1.515c-2.049,1.634-4.156,3.079-6.363,4.403
	c1.17,1.004,2.294,1.949,3.368,2.848c5.368,4.487,9.608,8.033,14.763,15.503c1.205,1.746,2.274,3.589,3.203,5.487
	c2.391-0.101,5.029-0.463,7.781-1.015c-1.305-3.022-2.924-5.958-4.832-8.724C84.857,254.12,79.812,249.903,74.472,245.437z"/>
<path fill="#82C8BE" d="M114.121,307.836c1.11-1.723,2.812-4.365,4.09-6.346c-7.305-5.05-14.034-8.204-19-10.106
	c0.388-6.121-0.761-12.639-3.225-18.85c-2.693,0.555-5.29,0.938-7.671,1.082c2.242,5.047,3.478,10.414,3.489,15.394
	c-0.086-0.021-9.044-2.186-21.903-5.292l10.367,10.367c4.595,1.024,8.293,1.853,9.183,2.048
	C90.193,296.296,101.13,298.82,114.121,307.836z"/>
<path fill="#82C8BE" d="M129.573,321.379c3.553,3.892,7.03,8.347,10.277,13.459c2.386,3.757,4.736,7.007,7.043,9.823l5.53-5.073
	c-2.027-2.493-4.116-5.382-6.265-8.764c-3.292-5.183-6.792-9.741-10.369-13.755C132.385,318.718,130.671,320.168,129.573,321.379z"
	/>
<path fill="#82C8BE" d="M127.518,319.199c1.18-1.27,2.955-2.753,6.19-4.399c-4.764-5.031-9.622-9.128-14.274-12.453l-4.089,6.346
	C119.313,311.545,123.445,315.015,127.518,319.199z"/>
<path fill="#82C8BE" d="M66.305,248.325c2.207-1.324,4.314-2.77,6.363-4.403c-1.474-1.242-2.989-2.55-4.586-4.009
	c-2.05,1.561-4.179,2.94-6.45,4.211C63.28,245.679,64.834,247.06,66.305,248.325z"/>
<polygon fill="#F5F5F5" points="142.069,246.325 153.272,257.163 162.124,247.872 151.708,237.048 "/>
<polygon fill="#FAC8C8" points="266.599,226.7 272.583,215.073 267.672,212.542 261.385,223.533 "/>
<polygon fill="#FAE6C8" points="191.582,165.783 179.627,157.057 174.291,163.892 186.631,173.017 "/>
<path fill="#B2B2B2" d="M334.846,183.831c-0.616,1.455-1.283,2.973-2.01,4.557l2.938-2.938c0.262-0.608,0.518-1.207,0.761-1.794
	C335.973,183.721,335.409,183.776,334.846,183.831z"/>
<path fill="#FAE6C8" d="M190.018,263.958l0.785-8.215l0.094-0.975l0.092-0.973c0,0,1.024-4.08,2.154-7.898
	c0.14-0.476,0.282-0.945,0.424-1.403c0.334-1.078,0.667-2.089,0.977-2.92c0.468-1.261,1.328-2.71,2.287-4.11
	c0.145-0.209,0.292-0.418,0.439-0.625c2.016-2.824,4.27-5.281,4.27-5.281l-2.377-2.676l-0.496-0.558l-3.627-4.083l-0.496-0.558
	l-2-2.253l-0.496-0.558l-3.209-3.612l-0.496-0.558l-1.872-2.106l-0.496-0.56l-1.729-1.947l-0.497-0.559l-3.116-3.508l-0.992-1.117
	l-1.901-2.14l-0.497-0.559l-2.026-2.28l-0.496-0.559l-2.153-2.423l-0.495-0.558l-2.449-2.756l-0.495-0.558l-2.187-2.462
	l-0.497-0.558l-1.125-1.267l-6.092,5.337l-0.563,0.494l-5.982,5.241l-0.563,0.493l-6.637,5.814l-0.563,0.494l-7.803,6.836
	l2.118,2.172l0.521,0.533l2.729,2.796l0.521,0.534l2.29,2.347l0.521,0.533l1.985,2.035l0.521,0.534l2.262,2.316l0.522,0.535
	l2.203,2.258l1.042,1.068c2.371-2.268,4.893-4.679,7.475-7.148l3.125,3.207l-7.532,7.086l0.521,0.534l7.532-7.085l1.92,1.97
	l-7.489,7.126l0.522,0.534l7.488-7.126l1.967,2.018l-7.488,7.125l0.522,0.535l3.511,3.598l0.521,0.534l7.443-7.163l1.902,1.953
	l-7.523,7.077l0.521,0.534l7.524-7.077l3.616,3.71l-7.603,6.992l0.522,0.535l2.726,2.793l0.522,0.535l7.546-7.043l2.179,2.236
	c-3.268,3.003-6.247,5.74-7.601,6.983l0.521,0.534l8.115,8.316L190.018,263.958z M150.443,213.254l-2.599-2.666l6.38-6.006
	l2.454,2.604L150.443,213.254z M153.336,216.224l-2.373-2.436l6.228-6.059l2.396,2.543L153.336,216.224z M160.129,209.757
	l-2.403-2.549l5.676-5.522c0.76,0.814,1.582,1.693,2.451,2.622L160.129,209.757z M167.965,218.071l-2.052-2.176l5.729-5.391
	c0.658,0.703,1.324,1.418,2,2.139L167.965,218.071z M174.477,224.98l-1.849-1.961l5.699-5.361c0.604,0.647,1.207,1.292,1.809,1.937
	L174.477,224.98z M170.422,233.759l-1.966-2.019l5.99-5.7l1.933,2.049L170.422,233.759z M176.919,227.573l-1.932-2.05l5.657-5.383
	c0.646,0.69,1.288,1.377,1.922,2.058L176.919,227.573z M176.836,240.341l-1.907-1.957l5.848-5.627l1.937,2.055L176.836,240.341z
	 M183.258,234.3l-1.943-2.063l5.599-5.387c0.682,0.729,1.348,1.441,1.994,2.135L183.258,234.3z M180.979,244.593l-3.621-3.717
	l5.868-5.521l3.62,3.842L180.979,244.593z"/>
<path fill="#B2B2B2" d="M215.688,296.158c0.462,1.909,1.114,4.659,1.801,7.575l0.621-0.621c-0.652-2.765-1.266-5.348-1.705-7.162
	C216.165,296.02,215.926,296.089,215.688,296.158z"/>
<path fill="#B2B2B2" d="M226.558,293.097c0.079,0.423,0.165,0.861,0.256,1.313l0.635-0.635c-0.059-0.3-0.114-0.591-0.169-0.878
	C227.036,292.963,226.8,293.029,226.558,293.097z"/>

<path fill="#B2B2B2" d="M362.757,158.467l4.94-4.941c0.031-0.424,0.063-0.85,0.091-1.264c0.011,0,0.02,0,0.029-0.001
	l-4.294-4.295c-0.033,0.837-0.073,1.693-0.123,2.58l-42.884,1.131l5.139-32.762l9.461,0.645l-1.608-1.608l-7.558-0.515
	l-0.579-7.622l-1.623-1.623l0.669,8.792l-20.579-10.318c-0.107-0.054-0.223-0.081-0.342-0.079l-12.374,0.127l-0.879-12.428
	c-0.005-0.087-0.016-0.172-0.032-0.257l-2.333-12.383c1.833-0.791,4.103-1.689,6.691-2.633l-3.473-3.472
	c-1.478,0.558-2.844,1.097-4.048,1.599c-0.505-2.451-0.971-4.794-1.406-7.053l-5.614-5.614c0.884,4.994,1.804,9.599,2.5,12.973
	c-8.404-2.96-39.16-13.785-39.406-13.774c-5.515-2.772-10.759-7.151-15.528-12.823l-2.185,2.185
	c4.252,5.004,8.891,9.034,13.818,11.933l-13.752,4.981c-0.337,0.122-0.642,0.324-0.886,0.587
	c-3.447,3.732-16.757,10.564-20.801,11.729c-1.677,0.481-3.268,1.818-4.678,3.619c-0.91-0.547-2.187-1.547-3.685-2.865
	l-1.048,1.048c1.54,1.356,2.873,2.406,3.858,3.024c-2.871,4.283-4.792,10.36-4.765,14.359c0.011,1.621-0.578,3.652-1.527,5.785
	c-2.238-2.343-5.981-6.247-10.17-10.564l-2.118,2.118c4.672,4.814,8.789,9.112,10.856,11.278
	c-1.892,3.346-4.417,6.627-6.759,8.723c0,0-0.661,0.601-1.742,1.582l-11.549-12.39l-2.117,2.116
	c5.139,5.514,9.546,10.241,11.45,12.285c-3.912,3.551-9.888,8.976-13.986,12.697c-2.18-2.265-6.814-7.082-11.007-11.438
	l-2.115,2.116l10.907,11.334c-1.357,1.232-2.229,2.022-2.298,2.085c-0.353,0.203-7.858,4.517-10.176,5.85
	c-1.646-1.807-4.796-5.22-8.582-9.121l-3.179,3.179c0.511,0.528,1.018,1.051,1.503,1.558l-0.959,0.547l-6.165,3.515l-2.001,2.001
	l8.695-4.958l0.963-0.549c1.292,1.352,2.474,2.606,3.502,3.708l-1.018,0.558l-12.043,6.606l-1.748-3.717l-0.562,0.563
	l1.653,3.515l-11.443,6.275l-1.888,1.888l1.111-0.609l1.201,2.558c-2.149,1.096-4.244,2.162-6.227,3.166l-0.383-0.816
	l-1.124,1.125l0.172,0.367c-0.369,0.187-0.731,0.37-1.09,0.552l-6.723,6.723c6.848-3.424,20.969-10.529,32.402-16.572
	c3,4.68,7.596,9.875,9.468,11.93c0.472,0.519,8.841,9.762,8.841,9.762l-14.135,16.925l-7.765-5.217
	c-0.323-0.217-0.76-0.149-1.003,0.156l-11.884,14.986c-4.285-3.011-8.114-7.296-11.446-12.811
	c-1.017-1.683-3.037-5.652-3.1-5.785c0,0-4.435-9.491-4.696-10.055l-2.252,2.252c0.124,0.268,4.249,9.09,4.249,9.09
	c0.189,0.397,2.518,4.862,3.558,6.547c0.228,0.369,0.454,0.742,0.686,1.1c-3.129,3.226-7.647,9.25-10.003,14.29
	c-0.267-0.355-3.385-4.787-4.539-6.62c-2.652-4.211-4.8-8.273-6.532-11.825l-2.236,2.236c0.081,0.163,0.16,0.324,0.242,0.49
	l-3.208,2.476l-8.268,8.268l12.164-9.388c1.709,3.334,3.753,6.991,6.191,10.738c1.187,1.824,4.528,6.406,4.878,6.854
	c-2.435,6.018-9.1,18.044-13.437,22.646l0.196,0.186c-0.598-0.328-1.178-0.646-1.747-0.961c-1.978-1.094-3.753-2.12-5.197-3.118
	c-0.835-0.577-1.572-1.146-2.153-1.714c-3.722-3.633-8.623-11.5-10.874-15.264l-1.092,1.092
	c2.364,3.945,7.145,11.557,10.921,15.241c0.607,0.594,1.356,1.179,2.194,1.768c1.462,1.024,3.234,2.058,5.203,3.15
	c0.705,0.392,1.427,0.788,2.175,1.198c6.34,3.47,13.526,7.4,17.852,13.052c0.033,0.045,0.077,0.075,0.118,0.11l1.546,18.654
	c-2.251,0.635-4.501,1.188-6.683,1.626c-2.751,0.552-5.39,0.914-7.781,1.015c-1.25,0.051-2.436,0.034-3.53-0.07l-4.603-0.478
	c-2.954-0.317-5.935-0.632-8.902-0.813c-8.123-3.275-15.061-8.664-20.862-14.771c-1.476-1.555-2.88-3.153-4.21-4.778
	c-2.892-3.534-5.437-7.18-7.643-10.701l-0.537,0.537c2.16,3.438,4.64,6.989,7.449,10.443c1.324,1.625,2.721,3.229,4.19,4.79
	c5.46,5.792,11.932,10.97,19.456,14.372c-3.703-0.137-7.368-0.006-10.916,0.654l1.288,1.287
	c6.592-1.021,13.633-0.275,20.524,0.466l4.62,0.478c1.334,0.128,2.798,0.131,4.352,0.037c2.381-0.145,4.978-0.527,7.671-1.082
	c7.62-1.566,16-4.493,22.368-7.231c0.613,13.036,1.559,33.2,1.574,33.521c-0.078,0.121-6.578,10.208-6.77,10.505
	c-3.339-1.056-11.651-2.89-19.728-2.08l1.414,1.412c7.136-0.487,14.507,0.933,18.253,2.224c0.105,0.12,4.913,5.693,10.772,12.485
	c-1.766,1.82-4.409,4.488-7.109,7.208l2.111,2.11c2.612-2.631,5.172-5.214,6.954-7.049c7.425,8.604,15.831,18.35,18.469,21.408
	c0,0-5.547,5.155-5.719,5.346l2.105,2.105c0.25-0.282,15.144-13.98,15.72-14.508c3.579,5.01,7.325,8.364,11.274,10.115
	c0.854,0.38,1.702,0.676,2.538,0.903l3.882-3.883c-1.6-0.088-3.114-0.461-4.596-1.118c-3.166-1.404-6.224-4.122-9.202-8.198
	c5.905-1.695,20.961-6.011,32.255-9.141l4.271-4.271c-1.532,0.418-3.194,0.874-4.955,1.361c-0.127-0.33-0.255-0.676-0.385-1.029
	c-0.965-2.643-1.995-5.896-2.916-9.207c4.172-1.142,7.78-2.134,10.213-2.814c0.708,2.466,1.481,4.942,2.323,7.41l3.536-3.537
	c-0.554-1.709-1.075-3.42-1.565-5.127c1.694-0.521,4.522-1.398,8.002-2.478c0.08,0.313,0.161,0.62,0.239,0.929l0.614-0.614
	c-0.046-0.18-0.092-0.355-0.139-0.537c0.319-0.1,0.651-0.202,0.98-0.305l1.134-1.134c-0.787,0.244-1.562,0.485-2.301,0.715
	c-0.86-3.353-1.74-6.873-2.436-9.953c-0.093-0.414-0.184-0.82-0.27-1.217c2.069-0.631,4.285-1.304,6.477-1.968
	c0.09,0.359,0.193,0.789,0.311,1.266c0.237-0.069,0.477-0.139,0.717-0.208c-0.115-0.481-0.221-0.913-0.311-1.274
	c3.88-1.172,7.612-2.284,10.201-3.016c0.078,0.453,0.167,0.937,0.262,1.437c0.242-0.067,0.479-0.134,0.722-0.2
	c-0.094-0.499-0.184-0.985-0.259-1.439c1.197-0.332,2.076-0.56,2.505-0.637c0.294-0.053,0.672-0.135,1.112-0.235l4.122-4.122
	c-2.561,0.673-4.723,1.229-5.762,1.417c-0.43,0.079-1.266,0.29-2.381,0.597c-0.481-4.646-1.034-13.527-1.127-18.048
	c0.249,0,0.5-0.001,0.748-0.002l5.022-0.223c1.091-0.064,2.233-0.131,3.4-0.184l0.86,15.681l0.709-0.709l-0.347-6.317
	l8.139-1.475l0.927-0.928l-9.106,1.648l-0.436-7.934c4.321-0.177,8.923-0.135,12.568,0.908c0.074,0.694,0.151,1.406,0.229,2.123
	l4.962-4.963c-0.887-0.381-1.751-0.727-2.596-1.029c-0.34-3.267-0.586-5.738-0.641-6.299c0.022-0.193,1.102-9.054,1.957-16.1
	c2.582,2.034,9.456,8.241,13.155,11.552l2.925-2.925c-0.09-10.686-0.172-20.631-0.193-23.203l16.915,6.48l1.158-1.158
	c-6.664-2.553-15.123-5.794-17.663-6.768c1.002-1.934,3.704-7.148,6.726-12.979c0.016,0.008,0.03,0.016,0.047,0.022l21.887,8.728
	l8.977-8.976c1.512-3.938,3.042-7.925,3.624-9.44c0.659,0.248,2.18,0.819,4.229,1.588l3.483-3.482l-8.214-3.084
	c-1.153-0.435-2.442,0.146-2.884,1.298l-7.507,19.56c-4.415-1.762-20.641-8.232-22.261-8.878
	c4.828-9.317,9.913-19.127,9.913-19.127c0.015-0.03,0.029-0.062,0.04-0.094l9.018-25.356c0.045-0.126,0.043-0.255,0.021-0.378
	c3.969-0.879,7.729-2.284,9.157-4.675c2.318-3.877,8.274-9.713,15.181-9.902c0.105-0.003,11.067-0.351,21.982-0.698
	c0.336,4.717,0.835,13.134-6.757,31.099c0.563-0.055,1.127-0.11,1.688-0.175c7.375-17.72,6.903-26.19,6.563-30.972
	c10.352-0.329,20.211-0.642,20.211-0.642C363.174,154.049,362.991,156.19,362.757,158.467z M197.954,101.407
	c-0.038-5.517,4.411-14.075,7.065-14.837c4.478-1.289,17.816-8.045,22.428-12.573c0.818-0.297,14.432-5.227,15.771-5.713
	l40.264,14.252c0.389,2.06,2.257,11.977,2.3,12.203c0.014,0.204,0.733,10.392,1.031,14.598c0.053,0.758,0.093,1.325,0.112,1.6
	c-1.979,2.113-6.556,8.234-5.889,19.247c0.302,4.991,1.124,10.103,1.921,15.047c0.853,5.299,1.658,10.303,1.51,13.69
	c-0.066,1.546-0.853,3.965-2.051,6.747c-0.784,1.825-1.745,3.805-2.802,5.805c-0.927,1.752-1.923,3.515-2.935,5.198
	c-2.861,4.76-5.835,8.864-7.631,10.16c-1.13,0.814-2.293,1.511-3.453,2.165c-17.487,4.232-36.785-14.07-36.984-14.262
	c-0.155-0.149-0.368-0.224-0.583-0.205c-0.215,0.02-0.412,0.129-0.539,0.305l-6.171,8.461c-0.248-0.133-0.385-0.208-0.395-0.212
	c-0.12-0.091-53.679-40.473-55.355-41.737l21.171-19.221C191.472,117.885,198.001,108.328,197.954,101.407z M220.303,250.278
	c-4.097-7.488-9.437-13.6-12.233-16.554c3.47-2.006,6.979-2.658,10.44-2.961c5.353,6.187,10.893,16.216,12.644,19.933
	l-10.832-0.694L220.303,250.278z M164.193,314.619c0.213,1.23,0.849,3.502,1.768,6.252c-4.929,1.321-12.821,3.395-13.144,3.478
	c-1.554-3.49-3.092-7.387-4.617-11.706c2.209-0.619,14.39-3.504,26.218-6.39c0.071,0.332,0.155,0.668,0.23,1.001
	c0.813,3.587,1.82,7.223,2.829,10.512c-3.663,0.992-7.358,1.989-10.796,2.911c-0.913-2.725-1.544-4.971-1.754-6.187
	c-0.035-0.203-0.228-0.339-0.432-0.304C164.293,314.223,164.158,314.416,164.193,314.619z M135.722,215.224l29.488-25.703
	l38.024,42.061c-2.08,1.602-3.738,3.499-5.232,6.041c-1.494,2.543-3.971,9.198-3.971,9.198c-0.972,3.19-1.62,6.344-2.051,9.062
	c0,0-0.826,7.681-0.837,8.008c-0.002,0.056-0.001,0.109,0.001,0.163c0.007,0.192,0.017,0.411,0.026,0.62
	c-1.207,1.043-2.431,2.414-3.689,4.17C186.125,267.29,136.779,216.124,135.722,215.224z M153.068,258.581l-12.371-12.365
	c1.589-1.52,5.67-5.422,10.875-10.399c0.608,0.626,1.231,1.267,1.871,1.925c3.186,3.275,6.565,6.75,9.892,10.176L153.068,258.581
	z M126.404,233.422c-0.071-0.044-0.144-0.088-0.223-0.12c-4.89-2.034-9.276-4.623-13.21-7.563l7.412-16.748
	c0.831,0.525,1.671,1.023,2.533,1.465c4.288,2.195,7.829,4.565,10.242,6.522C132.072,219.624,129.286,226.405,126.404,233.422z
	 M252.204,199.975c-12.024-6.494-24.986-13.495-29.56-15.964c2.986-4.095,5.26-7.21,5.557-7.617
	c2.308,2.097,10.499,9.109,20.528,12.658c4.143,1.466,8.598,2.339,13.08,2.032C258.356,193.032,254.937,195.375,252.204,199.975z
	 M219.401,185.659l0.139,0.074l-7.743,10.616l-7.02-4.723c-0.335-0.226-0.789-0.143-1.025,0.185l-6.1,8.501
	c-1.87-1.366-3.635-2.653-5.254-3.83l14.091-20.539l12.723,9.594C219.272,185.583,219.335,185.623,219.401,185.659z
	 M198.857,201.191c1.533-2.135,5.104-7.111,5.686-7.921c0.837,0.564,4.954,3.333,6.372,4.288l-5.928,8.126
	C202.855,204.118,200.805,202.617,198.857,201.191z M202.932,207.856l-10.862,9.145l-9.656-10.681
	c3.783-3.618,6.676-6.384,7.974-7.626C193.987,201.305,198.281,204.44,202.932,207.856z M191.19,195.605
	c-4.381-3.179-7.569-5.461-8.875-6.351c-7.833-5.335-13.669-10.295-18.013-14.792l7.373-9.273l26.694,19.951L191.19,195.605z
	 M199.217,183.906l-12.205-9.122l6.436-8.674l11.849,8.935L199.217,183.906z M186.415,174.338l-13.808-10.319l6.771-8.517
	l13.474,10.16L186.415,174.338z M161.989,176.403c4.527,4.693,10.578,9.831,18.642,15.323c1.5,1.022,4.52,3.176,8.527,6.078
	l-7.746,7.408l-23.719-26.235L161.989,176.403z M185.355,270.956c0.111,0.129,0.242,0.229,0.382,0.31
	c-4.625,5.978-8.042,5.922-9.949,5.888c-0.812-0.016-4.615-0.855-5.096-0.958l-16.568-16.56l10.251-10.648
	C174.089,258.996,183.139,268.38,185.355,270.956z M175.699,281.634c1.104,0.021,2.27-0.044,3.498-0.309l1.182,9.648
	l-7.719,1.723c-0.774-4.283-1.536-8.801-1.913-11.9c0.119,0.027,0.245,0.055,0.361,0.079
	C172.895,281.271,174.439,281.611,175.699,281.634z M153.082,260.708l14.987,14.98c-2.858-0.484-6.127-0.773-9.497-0.233
	c-2.525,0.406-8.493,1.376-12.973,5.806l-5.824-5.934C144.041,270.214,148.633,265.054,153.082,260.708z M159.275,279.882
	c3.785-0.607,7.535,0.064,10.7,0.747c0.724,6.148,3.061,18.261,3.93,22.675c-11.965,2.925-24.37,5.869-26.663,6.521
	c-3.292-10.177-3.438-17.894-0.412-22.943C150.144,281.349,156.778,280.282,159.275,279.882z M175.376,307.079
	c-0.076-0.334-0.16-0.67-0.231-1.004c3.484-0.851,6.913-1.696,10.035-2.481c0.045,0.344,0.099,0.706,0.157,1.074
	c0.465,2.973,1.314,6.661,2.314,10.332c-2.964,0.81-6.185,1.686-9.451,2.571C177.193,314.287,176.187,310.659,175.376,307.079z
	 M174.631,303.125c-0.403-2.048-1.117-5.729-1.838-9.691l20.802-4.644c0.451,2.904,0.979,5.941,1.602,9.073
	C191.117,299.045,183.036,301.068,174.631,303.125z M181.11,290.811l-1.183-9.665c3.191-0.889,6.783-3.248,10.758-9.074
	c0.29-0.426,0.573-0.823,0.85-1.195c0.341,4.585,0.933,10.505,1.943,17.174L181.11,290.811z M195.75,262.118
	c0.452-5.473,2.438-21.313,10.445-27.172c0.191-0.141,0.383-0.267,0.574-0.397c1.562,1.652,4.08,4.47,6.728,8.035
	c-5.829,8.629-6.701,16.271-6.798,21.052c-0.154-0.053-0.313-0.094-0.468-0.148C202.42,262.138,199.057,261.214,195.75,262.118z
	 M214.435,243.87c4.345,6.088,8.776,14.041,9.711,22.077c-5.137-0.024-10.769-0.358-15.961-1.844
	C208.239,259.608,208.939,252.23,214.435,243.87z M221.838,226.06c-5.067,0.266-11.314,0.602-17.381,4.646l-11.386-12.596
	l11.097-9.344c7.2,5.293,15.168,11.193,22.745,16.857C225.354,225.866,223.654,225.964,221.838,226.06z M206.189,206.567
	c1.22-1.67,8.75-11.994,14.677-20.118l29.941,16.17c-4.021,8.191-11.684,15.188-18.688,20.963
	c-0.494,0.408-1.042,0.726-1.618,1.002C222.461,218.571,213.881,212.222,206.189,206.567z M163.156,143.271l15.03,11.332
	c-2.942,3.7-12.141,15.269-14.92,18.765c-1.246-1.343-2.352-2.641-3.343-3.894c-1.356-1.714-2.488-3.342-3.428-4.876
	c-4.534-7.395-4.67-12.634-4.391-14.974L163.156,143.271z M120.828,162.2l-1.211-2.578l11.881-6.517l1.355,2.882
	C128.934,158.039,124.801,160.169,120.828,162.2z M133.517,155.639l-1.361-2.895l12.239-6.713l1.028-0.565
	c0.921,0.99,1.689,1.826,2.279,2.472C144.181,149.977,139.09,152.717,133.517,155.639z M156.674,177.848
	c0,0-8.225-9.093-8.438-9.324c-1.373-1.492-6.516-7.179-9.721-12.142c4.057-2.155,7.715-4.147,10.483-5.744
	c-0.132,3.223,0.601,8.562,4.88,15.51c0.959,1.559,2.096,3.197,3.443,4.912c1.071,1.363,2.272,2.773,3.622,4.229
	C159.543,176.129,157.565,177.314,156.674,177.848z M156.507,179.894l7.702,8.52l-29.66,25.853
	c-1.209-0.953-2.63-1.971-4.239-3.006L156.507,179.894z M133.334,192.109c0.8,0.537,5.326,3.578,7.063,4.745l-11.363,13.604
	c-1.46-0.894-3.05-1.792-4.752-2.663c-0.791-0.404-1.565-0.855-2.328-1.338C124.9,202.744,132.684,192.929,133.334,192.109z
	 M109.435,198.471c2.915,3.995,6.149,7.233,9.683,9.694l-7.364,16.636c-4.595-3.602-8.554-7.668-11.952-11.854
	C101.587,208.278,106.224,201.909,109.435,198.471z M85.604,237.661c4.251-4.809,10.089-15.152,12.921-21.556
	c3.434,4.075,7.405,8.016,11.979,11.519l-9.505,21.476C97.008,244.294,90.984,240.649,85.604,237.661z M111.728,228.548
	c3.974,2.904,8.392,5.473,13.302,7.514c0.085,0.035,0.171,0.06,0.258,0.078c-3.547,8.634-6.926,16.86-7.145,17.393
	c-0.989-0.23-12.538-2.928-15.836-3.697L111.728,228.548z M103.566,269.099l-1.474-17.779l15.779,3.685
	c0.06,1.253,0.211,4.509,0.41,8.72C114.054,265.571,108.85,267.53,103.566,269.099z M119.747,263.07l-0.402-8.536l15.01-36.537
	c0.677,0.607,1.222,1.158,1.603,1.621c0.686,0.832,5.955,6.268,14.573,15.129l-11.658,11.148
	c-0.044,0.041-0.083,0.09-0.115,0.141c-0.06,0.094-6.015,9.414-12.658,13.715C124.678,260.671,122.464,261.831,119.747,263.07z
	 M119.821,264.659c3.049-1.363,5.537-2.648,7.09-3.654c6.124-3.965,11.462-11.676,12.786-13.675l12.329,12.323
	c-12.983,12.687-26.688,31.44-30.7,37.058L119.821,264.659z M127.518,319.199c-0.547,0.589-2.422,2.888-2.609,3.086
	l-10.488-12.158l6.893-10.697c0.035-0.053,7.802-11.205,17.501-22.947l5.77,5.88c-0.569,0.673-1.11,1.403-1.599,2.22
	c-3.706,6.187-3.711,15.115-0.037,26.54c-3.998,1.294-6.976,2.525-9.241,3.678C130.473,316.446,128.698,317.93,127.518,319.199z
	 M145.398,346.034l-18.53-21.478c0.286-0.299,2.292-2.721,2.705-3.178c1.098-1.211,2.812-2.661,6.216-4.31
	c2.027-0.979,4.646-2.03,8.108-3.142c3.456,9.809,7.045,17.637,10.817,23.556L145.398,346.034z M158.528,335.211
	c-1.826-2.86-3.624-6.251-5.401-10.171c0.331-0.085,8.211-2.157,13.073-3.46c0.951,2.779,2.167,5.981,3.522,9.09
	c0.173,0.396,0.347,0.792,0.525,1.185C165.097,333.323,160.773,334.565,158.528,335.211z M170.974,331.646
	c-0.176-0.389-0.35-0.782-0.522-1.177c-1.359-3.106-2.578-6.308-3.529-9.083c3.433-0.922,7.123-1.918,10.777-2.907
	c1.182,3.808,2.325,7.078,3.087,9.18c0.146,0.403,0.282,0.779,0.398,1.092C177.68,329.739,174.183,330.732,170.974,331.646z
	 M190.763,324.929c0.128,0.354,0.257,0.699,0.383,1.03c-2.926,0.813-6.075,1.695-9.241,2.588
	c-0.115-0.311-0.25-0.677-0.397-1.085c-0.756-2.085-1.904-5.365-3.088-9.178c3.259-0.884,6.472-1.757,9.43-2.565
	C188.77,319.028,189.797,322.279,190.763,324.929z M188.37,314.802c-1-3.669-1.847-7.354-2.305-10.312
	c-0.058-0.371-0.112-0.733-0.156-1.079c4.105-1.037,7.619-1.956,9.894-2.615c0.086,0.399,0.18,0.805,0.269,1.208
	c0.725,3.273,1.551,6.617,2.503,9.987C196.144,312.67,192.539,313.664,188.37,314.802z M208.453,298.292
	c0.699,3.088,1.577,6.611,2.438,9.961c-3.487,1.082-6.324,1.961-8.023,2.484c-0.947-3.362-1.766-6.698-2.484-9.966
	c-0.09-0.413-0.186-0.828-0.273-1.239c1.576-0.468,4.574-1.385,8.074-2.452C208.27,297.475,208.359,297.881,208.453,298.292z
	 M225.887,288.678c-6.894,1.93-22.104,6.647-26.379,7.918c-2.436-12.36-3.377-23.265-3.738-29.673
	c2.471-1.213,5.066-0.588,8.959,0.791c3.055,1.08,6.247,1.742,9.428,2.143l0.943,14.946l-8.546,1.716
	c-0.201,0.041-0.333,0.238-0.293,0.439c0.04,0.202,0.237,0.334,0.439,0.294l18.731-3.761
	C225.58,285.456,225.736,287.263,225.887,288.678z M225.377,282.74l-9.537,1.914l-0.928-14.704
	c3.361,0.381,6.695,0.48,9.829,0.481C224.801,273.467,225.063,278.392,225.377,282.74z M246.944,260.536
	c-0.014,0.108-0.015,0.217-0.004,0.326c0.006,0.063,0.217,2.212,0.537,5.306c-5.25-1.091-11.38-0.737-16.472-0.439l-4.799,0.214
	c-0.184,0.003-0.37,0.002-0.555,0.004c-0.545-5.004-2.362-9.924-4.678-14.406l26.854,1.723
	C247.332,257.343,246.944,260.536,246.944,260.536z M248.009,251.776l-15.165-0.973c-1.283-2.986-6.812-13.305-12.488-20.173
	c0.57-0.035,1.141-0.065,1.707-0.095c3.344-0.175,6.555-0.348,9.438-1.477c6.702,5.031,12.877,9.719,17.641,13.418
	C248.793,245.324,248.383,248.71,248.009,251.776z M234.38,227.491c0.198-0.145,0.396-0.293,0.589-0.452
	c3.226-2.661,6.59-5.577,9.724-8.765c1.294,4.383,5.094,17.256,5.234,17.732c-0.015,0.125-0.155,1.279-0.366,3.014
	C245.26,235.699,240.021,231.728,234.38,227.491z M266.477,253.445c-2.001-1.807-10.374-9.324-14.166-12.287
	c0.363-2.985,0.62-5.103,0.62-5.103c0.025-0.203-5.801-20.085-5.801-20.085c-0.021-0.071-0.057-0.134-0.086-0.2
	c3.037-3.381,5.731-7.049,7.705-11.022l11.049,5.968l-7.671,13.102c-0.1,0.172-0.129,0.378-0.076,0.569
	c0.05,0.192,0.176,0.356,0.348,0.455l7.876,4.536L266.477,253.445z M266.83,227.973c-1.632-0.938-6.131-3.53-7.033-4.051
	c0.594-1.013,5.854-9.999,7.316-12.497l6.479,3.5C270.591,220.716,267.889,225.931,266.83,227.973z M284.854,193.195
	c-0.023,0.048-5.07,9.784-9.885,19.074c-2.8-1.512-10.281-5.553-18.824-10.165c2.593-4.272,5.916-6.076,9.689-8.122
	c1.894-1.027,3.851-2.088,5.832-3.517c2.317-1.669,5.785-6.345,9.01-11.718c1.017-1.693,2.005-3.452,2.928-5.212
	c0.723-1.377,1.408-2.753,2.025-4.093l0.961-0.112c1.95-0.22,4.515-0.512,7.107-0.999L284.854,193.195z M303.158,162.567
	c-2.168,3.625-12.006,4.742-16.734,5.278l-0.082,0.011c0.299-0.691,0.57-1.363,0.827-2.02c1.037-2.667,1.704-5.028,1.778-6.729
	c0.167-3.844-0.674-9.066-1.563-14.596c-0.778-4.837-1.584-9.837-1.872-14.606c-0.682-11.275,4.922-16.184,5.159-16.389
	c0.543-0.462,0.849-1.167,0.8-1.879l-0.169-2.384l-0.074-1.045c3.48-0.036,11.821-0.122,12.1-0.125
	c0.311,0.156,19.95,10.002,20.874,10.465c-0.161,1.025-5.085,32.413-5.251,33.467
	C311.718,152.544,305.575,158.525,303.158,162.567z"/>

<g class="brewery">
	<polygon fill="#C3C35F" points="216.73,111.887 197.733,126.232 200.899,128.625 202.487,127.426 202.487,141.887 230.977,141.887
		230.977,127.426 232.565,128.625 235.733,126.232 	"/>
	<path fill="#3F3F3F" d="M218.16,133.887l2.854,2.828l2.854-2.828l-2.854-2.828L218.16,133.887z M209.599,133.887l2.854,2.828
		l2.854-2.828l-2.854-2.828L209.599,133.887z M223.379,125.887h-4.729l2.365,2.344L223.379,125.887z M214.817,125.887h-4.729
		l2.364,2.344L214.817,125.887z M216.733,132.473l2.854-2.828l-2.854-2.828l-2.854,2.828L216.733,132.473z M216.73,111.887
		l-18.997,14.346l3.166,2.393l1.588-1.199v14.461h28.489v-14.461l1.589,1.199l3.168-2.393L216.73,111.887z M227.93,129.426
		l-2.634-2.609l-2.855,2.828l2.854,2.828l2.635-2.611v2.828l-1.208,1.197l1.208,1.197v2.83l-2.635-2.613l-2.854,2.828l0.432,0.428
		h-3.717l0.432-0.428l-2.854-2.828l-2.854,2.828l0.431,0.428h-3.716l0.431-0.426l-2.854-2.83l-2.634,2.613v-2.83l1.207-1.197
		l-1.207-1.195v-2.83l2.634,2.611l2.854-2.828l-2.854-2.828l-2.634,2.609v-4.303l11.193-8.453l11.199,8.455V129.426z"/>
	<animateTransform attributeType="xml" attributeName="transform" type="translate" additive="sum" values="0 0;0 0;0 -3;0 -5;0 -6;0 -5;0 -3;0 0;0 -3;0 -5;0 -6;0 -5;0 -3;0 0;0 -3;0 -5;0 -6;0 -5;0 -3;0 0;0 -3;0 -5;0 -6;0 -5;0 -3;0 0;0 -3;0 -5;0 -6;0 -5;0 -3;0 0;0 0" calcMode="linear" dur="10s" keyTimes="0;0.1;0.11;0.12;0.13;0.14;0.15;0.16;0.17;0.18;0.19;0.2;0.21;0.22;0.23;0.24;0.25;0.26;0.27;0.28;0.29;0.3;0.31;0.32;0.33;0.34;0.35;0.36;0.37;0.38;0.39;0.4;1" repeatCount="indefinite" />
</g>

<g transform="translate(171,165)" class="news">
	<g>
		<g transform="translate(-171,-165)">
			<path fill="#3F3F3F" d="M191.874,159.117c0.379-0.915,2.682-6.629,2.696-6.668c0.602-1.568,0.483-3.032-0.344-4.043
				c-0.793-0.963-2.101-1.355-3.591-1.058c0,0-6.486,1.229-7.468,1.419c-1.792-1.212-3.692-2.257-5.702-3.026
				c-12.354-4.743-25.709,0.008-29.77,10.587c-4.055,10.564,2.693,23.028,15.047,27.77c12.354,4.742,25.707-0.007,29.762-10.571
				C194.251,168.979,193.989,163.893,191.874,159.117z"/>
			<path fill="#FFFFFF" d="M163.817,181.301c-10.804-4.146-16.789-14.87-13.324-23.898c3.471-9.044,15.096-13.012,25.899-8.864
				c1.978,0.759,3.87,1.79,5.609,3.031l0.524,0.363l8.672-1.636c0.465-0.097,0.678-0.015,0.709,0.008
				c0.031,0.045,0.13,0.404-0.161,1.14l-3.101,7.686l0.284,0.606c2.026,4.215,2.306,8.736,0.778,12.718
				C186.243,181.482,174.635,185.453,163.817,181.301z"/>
			<path fill="#3F3F3F" d="M180.812,158.636l-9.915-1.35l-10.18-1.396l-0.123,0.77l-2.136,13.47l-0.025-0.004l-0.154,1.012
				l20.695,2.662l0.002-0.004l0.549,0.069l2.395-15.075L180.812,158.636z M176.156,162.383c-0.063-0.078-0.173-0.152-0.337-0.233
				c-0.422-0.189-0.707-0.396-0.877-0.608c-0.156-0.22-0.221-0.467-0.172-0.75c0.045-0.314,0.203-0.547,0.465-0.702
				c0.26-0.154,0.594-0.199,1.01-0.145c0.439,0.059,0.81,0.187,1.11,0.392l-0.255,0.635c-0.281-0.197-0.592-0.316-0.929-0.362
				c-0.169-0.022-0.298-0.009-0.397,0.046c-0.098,0.056-0.152,0.141-0.174,0.252c-0.027,0.184,0.089,0.333,0.344,0.452
				c0.457,0.196,0.771,0.409,0.934,0.627c0.166,0.214,0.227,0.469,0.176,0.763c-0.058,0.354-0.215,0.607-0.472,0.759
				c-0.258,0.156-0.62,0.202-1.073,0.14c-0.201-0.023-0.414-0.088-0.615-0.18c-0.211-0.1-0.377-0.208-0.51-0.327l0.297-0.635
				c0.29,0.278,0.611,0.438,0.969,0.488c0.168,0.022,0.298-0.002,0.393-0.054c0.097-0.061,0.158-0.157,0.175-0.286
				C176.237,162.547,176.214,162.454,176.156,162.383z M171.048,159.285l0.002,2.828l0.006-0.003l0.859-2.706l0.996,0.136l-0.029,2.82
				l0.012,0.005l0.886-2.71l0.81,0.115l-1.354,3.521l-0.956-0.14l-0.006-2.825h-0.015l-0.886,2.711l-0.95-0.138l-0.204-3.728
				L171.048,159.285z M167.471,158.797l2.261,0.306l-0.113,0.683l-1.433-0.194l-0.114,0.737l1.336,0.183l-0.105,0.641l-1.338-0.184
				l-0.139,0.887l1.434,0.191l-0.106,0.68l-2.255-0.306L167.471,158.797z M163.877,158.305l0.806,0.113l0.894,2.394l0.01,0.004
				l0.354-2.23l0.798,0.112l-0.572,3.622l-0.802-0.103l-0.898-2.399l-0.006-0.001l-0.356,2.225l-0.798-0.112L163.877,158.305z
				 M166.735,171.193l-6.1-0.785l0.181-1.147l6.091,0.829L166.735,171.193z M170.269,168.855l-9.004-1.121l0.086-0.581l9.004,1.117
				L170.269,168.855z M161.417,165.074l0.088-0.578l8.997,1.115l-0.083,0.584L161.417,165.074z M177.505,172.576l-7.014-0.903
				l1.068-6.749l7.006,0.955L177.505,172.576z"/>
		</g>
		<animateTransform attributeName="transform" type="scale" keyTimes="0;0.23;0.25;0.27;0.29;0.31;0.33;0.41;0.43;1" values="0,0;0,0;1.3,1.3;0.85,0.85;1.15,1.15;0.95,0.95;1,1;1,1;0,0;0,0" dur="10s" repeatCount="indefinite" />
	</g>
</g>

<g transform="translate(269,105)" class="menu">
	<g>
		<g transform="translate(-269,-105)">
			<path fill="#3F3F3F" d="M279.339,86.521c-11.828-5.928-25.584-2.51-30.653,7.605c-2.184,4.356-2.42,9.444-0.784,14.403
				c-0.466,0.873-3.316,6.334-3.335,6.371c-0.753,1.501-0.779,2.971-0.056,4.058c0.695,1.035,1.958,1.555,3.471,1.404
				c0,0,6.576-0.589,7.571-0.682c1.663,1.383,3.454,2.608,5.378,3.571c11.83,5.929,25.586,2.51,30.664-7.621
				C296.664,105.517,291.168,92.451,279.339,86.521z"/>
			<path fill="#FFFFFF" d="M262.272,120.574c-1.894-0.949-3.675-2.161-5.285-3.566l-0.485-0.412l-8.791,0.779
				c-0.473,0.048-0.676-0.054-0.706-0.078c-0.025-0.048-0.088-0.416,0.272-1.118l3.839-7.346l-0.224-0.632
				c-1.604-4.392-1.439-8.919,0.472-12.731c4.333-8.646,16.273-11.461,26.632-6.27c10.346,5.185,15.252,16.443,10.92,25.089
				C284.575,122.95,272.618,125.76,262.272,120.574z"/>
			<path fill="#3F3F3F" d="M280.158,111.578c0,0,0.004,0.004,0.016,0.015l0.158-0.318c0.771-1.538,0.694-2.651,0.593-3.956
				c-0.199-2.425,0.873-4.562,2.156-7.122l-0.606-0.339l0.007-0.014l-0.263-0.122l-0.255-0.139l-0.005,0.016l-0.63-0.281
				c-1.28,2.561-2.363,4.694-4.42,5.986c-1.113,0.698-2.059,1.299-2.829,2.837l-0.158,0.313
				C275.9,109.702,277.97,110.737,280.158,111.578z"/>
			<path fill="#3F3F3F" d="M267.929,92.623l-0.613-0.337l0.008-0.017l-0.265-0.124l-0.253-0.136l-0.008,0.017l-0.639-0.291
				c-1.286,2.564-2.361,4.697-4.431,5.986c-1.115,0.697-2.07,1.289-2.843,2.83l-3.603,7.189c-0.148,0.296,0.048,0.57,0.298,0.826
				c0,0,0.688,0.509,2.429,1.382c1.685,0.844,2.767,1.223,2.767,1.223c0.426,0.017,0.67,0.029,0.819-0.268l3.603-7.188
				c0.772-1.542,0.691-2.653,0.582-3.963C265.568,97.318,266.643,95.187,267.929,92.623z M262.023,108.812
				c-1.096-0.248-1.927-0.734-2.73-1.137c-0.813-0.406-1.644-0.823-2.597-1.558l2.452-4.893c0.833,0.653,1.8,1.115,2.608,1.52
				c0.808,0.405,1.658,0.854,2.728,1.156L262.023,108.812z"/>
			<path fill="#3F3F3F" d="M272.057,101.051c0.51,0.256,0.981,0.55,1.412,0.863l1.392-4.111l0.024,0.013
				c0.067,0.033,0.146,0.03,0.174-0.023l0.612-1.222c0.025-0.053-0.015-0.125-0.083-0.159l-1.927-0.966
				c-0.075-0.038-0.148-0.022-0.175,0.029l-0.613,1.224c-0.026,0.052,0.01,0.113,0.084,0.151l0.025,0.013l-2.461,3.574
				C271.028,100.593,271.55,100.797,272.057,101.051z"/>
			<path fill="#3F3F3F" d="M262.846,111.662c-0.158,0.314,0.08,0.75,0.526,0.974l4.604,2.307c0.444,0.223,0.938,0.153,1.095-0.16
				c0,0,0.354-0.697,0.827-1.642l-6.238-3.126C263.194,110.963,262.846,111.662,262.846,111.662z"/>
			<path fill="#3F3F3F" d="M276.578,111.009c-0.958-0.48-2.094-1.029-3.127-1.713l-1.742,3.476c1.175,0.775,2.157,1.268,3.115,1.748
				c0.95,0.477,1.943,1.017,3.191,1.428l1.747-3.489C278.535,112.01,277.531,111.487,276.578,111.009z"/>
			<path fill="#3F3F3F" d="M271.2,102.76c-0.963-0.482-1.969-0.659-2.83-0.562c-0.834,0.702-1.635,1.608-2.195,2.725
				c-0.02,0.041-0.077,0.156-0.165,0.332l6.301,3.158c0.088-0.176,0.146-0.291,0.167-0.332c0.559-1.116,0.806-2.3,0.867-3.389
				C272.91,103.944,272.159,103.24,271.2,102.76z"/>
			<path fill="#3F3F3F" d="M271.306,113.671l-0.832,1.662c-0.148,0.296,0.048,0.569,0.294,0.819c0,0,0.677,0.505,2.399,1.368
				c1.677,0.837,2.745,1.21,2.745,1.21c0.424,0.021,0.666,0.032,0.815-0.264l0.832-1.659
				C275.069,115.97,273.301,114.885,271.306,113.671z"/>
		</g>
		<animateTransform attributeName="transform" type="scale" keyTimes="0;0.11;0.13;0.15;0.17;0.19;0.21;0.41;0.43;1" values="0,0;0,0;1.3,1.3;0.85,0.85;1.15,1.15;0.95,0.95;1,1;1,1;0,0;0,0" dur="10s" repeatCount="indefinite" />
	</g>
</g>

<g transform="translate(251,173)" class="sugitama">
	<g>
		<g transform="translate(-251,-173)">
			<path fill="#3F3F3F" d="M253.649,155.434c-2.129-0.306-4.299-0.321-6.454-0.135c-0.764-0.644-5.83-4.878-5.83-4.878
				c-1.157-0.987-2.49-1.281-3.65-0.827c-1.215,0.48-2.031,1.701-2.271,3.365c-0.006,0.04-0.779,6.151-0.894,7.136
				c-4.175,3.139-6.881,7.452-7.573,12.275c-1.606,11.2,7.742,21.854,20.839,23.733c13.099,1.878,25.065-5.719,26.672-16.918
				C276.097,167.968,266.749,157.313,253.649,155.434z"/>
			<path fill="#FFFFFF" d="M248.241,193.137c-11.47-1.645-19.671-10.769-18.298-20.341c0.605-4.222,3.053-8.033,6.875-10.727
				l0.545-0.391l1.038-8.223c0.104-0.783,0.365-1.049,0.413-1.074c0.039-0.004,0.265,0.028,0.625,0.339l6.775,5.654l0.634-0.063
				c2.124-0.235,4.278-0.215,6.376,0.087c11.454,1.642,19.673,10.771,18.297,20.36C270.149,188.332,259.697,194.78,248.241,193.137z"
				/>
			<path fill="#3F3F3F" d="M243.061,170.695l0.552,1.714c0,0,6.186-2.131,7.718-2.663l-0.316,2.208c-3.588-0.364-6.87,2.232-7.4,5.934
				c-0.545,3.792,2.004,7.292,5.695,7.821c3.69,0.53,7.12-2.112,7.664-5.905c0.525-3.663-1.84-7.042-5.325-7.75l0.31-2.159
				c1.478,1.046,6.556,4.651,6.556,4.651l1.011-1.489l-7.623-5.414L243.061,170.695z"/>
			<path fill="#3F3F3F" d="M242.583,169.206l0.279,0.858c0,0,8.744-3.017,9.143-3.153c0.343,0.243,7.887,5.596,7.887,5.596l0.51-0.745
				l-8.253-5.85L242.583,169.206z"/>
		</g>
		<animateTransform attributeName="transform" type="scale" keyTimes="0;0.17;0.19;0.21;0.23;0.25;0.27;0.41;0.43;1" values="0,0;0,0;1.3,1.3;0.85,0.85;1.15,1.15;0.95,0.95;1,1;1,1;0,0;0,0" dur="10s" repeatCount="indefinite" />
	</g>
</g>

<g class="user2">
	<path fill="#3F3F3F" d="M207.5,249.75V252h30v-2.25C230,240.75,215,240.75,207.5,249.75z M222.5,240c4.969,0,9-4.027,9-9
		c0-4.969-4.031-9-9-9c-4.973,0-9,4.031-9,9C213.5,235.973,217.527,240,222.5,240z"/>
	<animateTransform attributeType="xml" attributeName="transform" type="translate" additive="sum" values="0 0;0 0;0 -3;0 -5;0 -6;0 -5;0 -3;0 0;0 -3;0 -5;0 -6;0 -5;0 -3;0 0;0 -3;0 -5;0 -6;0 -5;0 -3;0 0;0 0" calcMode="linear" dur="10s" keyTimes="0;0.5475;0.5575;0.5675;0.5775;0.5875;0.5975;0.6075;0.6175;0.6275;0.6375;0.6475;0.6575;0.6675;0.6775;0.6875;0.6975;0.7075;0.7175;0.7275;1" repeatCount="indefinite" />
</g>

<g transform="translate(249,207)" class="heart">
	<g>
		<g transform="translate(-249,-207)">
			<path fill="#3F3F3F" d="M248.499,192c-8.821,0-15.999,6.143-15.999,13.691c0,3.248,1.379,6.35,3.834,8.818
				c-0.012,0.652-0.084,4.762-0.084,4.789c0,1.123,0.43,2.008,1.184,2.436c0.719,0.41,1.626,0.338,2.486-0.197
				c0,0,3.74-2.314,4.31-2.668c1.404,0.33,2.836,0.52,4.27,0.52c8.823,0,16.001-6.145,16.001-13.697
				C264.5,198.143,257.322,192,248.499,192z"/>
			<path fill="#FFFFFF" d="M248.499,217.389c-1.415,0-2.833-0.182-4.214-0.541l-0.414-0.107l-5.005,3.098
				c-0.269,0.166-0.423,0.166-0.446,0.158c-0.029-0.018-0.178-0.215-0.169-0.742l0.097-5.531l-0.322-0.305
				c-2.273-2.139-3.525-4.883-3.525-7.727c0-6.447,6.279-11.691,13.999-11.691s14.001,5.244,14.001,11.691
				C262.5,212.143,256.219,217.389,248.499,217.389z"/>
			<path fill="#3F3F3F" d="M251.282,201c-1.194,0-2.226,0.756-2.782,1.863c-0.557-1.107-1.588-1.863-2.782-1.863
				c-1.776,0-3.218,1.652-3.218,3.691c0,0.066,0.085,0.92,0.208,1.273c0.055,0.164,0.306,0.727,0.364,0.822
				c0.605,1.145,1.616,2.387,2.604,3.455c1.377,1.498,2.704,2.654,2.824,2.758c0.12-0.104,1.447-1.26,2.824-2.758
				c0.987-1.068,1.998-2.311,2.604-3.455c0.059-0.096,0.31-0.658,0.364-0.822c0.123-0.354,0.208-1.207,0.208-1.273
				C254.5,202.652,253.059,201,251.282,201z"/>
		</g>
		<animateTransform attributeName="transform" type="scale" keyTimes="0;0.488;0.508;0.528;0.548;0.568;0.588;0.768;0.788;1" values="0,0;0,0;1.3,1.3;0.85,0.85;1.15,1.15;0.95,0.95;1,1;1,1;0,0;0,0" dur="10s" repeatCount="indefinite" />
	</g>
</g>

<g class="user1">
	<path fill="#3F3F3F" d="M132.5,263.749v2.25h30v-2.25C155,254.749,140,254.749,132.5,263.749z M147.5,253.999c4.969,0,9-4.027,9-9
		c0-4.969-4.031-9-9-9c-4.973,0-9,4.031-9,9C138.5,249.972,142.527,253.999,147.5,253.999z"/>
	<animateTransform attributeType="xml" attributeName="transform" type="translate" additive="sum" values="0 0;0 0;0 -3;0 -5;0 -6;0 -5;0 -3;0 0;0 -3;0 -5;0 -6;0 -5;0 -3;0 0;0 -3;0 -5;0 -6;0 -5;0 -3;0 0;0 0" calcMode="linear" dur="10s" keyTimes="0;0.5075;0.5175;0.5275;0.5375;0.5475;0.5575;0.5675;0.5775;0.5875;0.5975;0.6075;0.6175;0.6275;0.6375;0.6475;0.6575;0.6675;0.6775;0.6875;1" repeatCount="indefinite" />
</g>

<g transform="translate(122,221)" class="good">
	<g>
		<g transform="translate(-122,-221)">
			<path fill="#3F3F3F" d="M137.5,219.692c0-7.551-7.178-13.691-16-13.691s-16,6.141-16,13.691c0,7.553,7.178,13.697,16,13.697
				c1.434,0,2.865-0.191,4.27-0.52c0.57,0.352,4.311,2.668,4.311,2.668c0.859,0.533,1.767,0.605,2.486,0.197
				c0.754-0.428,1.183-1.314,1.183-2.438c0-0.025-0.071-4.135-0.083-4.787C136.12,226.04,137.5,222.938,137.5,219.692z"/>
			<path fill="#FFFFFF" d="M131.975,227.419l-0.322,0.303l0.096,5.533c0.01,0.525-0.14,0.725-0.17,0.74
				c-0.022,0.01-0.176,0.01-0.443-0.156l-5.006-3.1l-0.414,0.107c-1.381,0.359-2.799,0.543-4.215,0.543c-7.72,0-14-5.248-14-11.697
				c0-6.447,6.28-11.691,14-11.691s14,5.244,14,11.691C135.5,222.536,134.248,225.28,131.975,227.419z"/>
			<path fill="#3F3F3F" d="M125.154,213.001l-0.576,0.996l-4.516,7.82c-0.336-0.402-0.82-0.742-1.398-0.941
				c-1.395-0.484-2.83,0.004-3.205,1.094c-0.377,1.09,0.445,2.361,1.838,2.846c1.242,0.428,2.508,0.088,3.043-0.756l0.004,0.004
				l3.932-6.805c3.35,2.52,1.287,4.729,0.607,5.332c3.418-1.129,3.297-3.412,1.555-5.967
				C125.451,215.167,125.154,213.001,125.154,213.001z"/>
		</g>
	<animateTransform attributeName="transform" type="scale" keyTimes="0;0.4675;0.4875;0.5075;0.5275;0.5475;0.5675;0.7475;0.7675;1" values="0,0;0,0;1.3,1.3;0.85,0.85;1.15,1.15;0.95,0.95;1,1;1,1;0,0;0,0" dur="10s" repeatCount="indefinite" />
	</g>
</g>

</svg>
