<?xml version="1.0" encoding="utf-8"?>
<!-- Generator: Adobe Illustrator 12.0.0, SVG Export Plug-In . SVG Version: 6.00 Build 51448)  -->
<!DOCTYPE svg PUBLIC "-//W3C//DTD SVG 1.1//EN" "http://www.w3.org/Graphics/SVG/1.1/DTD/svg11.dtd" [
	<!ENTITY ns_svg "http://www.w3.org/2000/svg">
	<!ENTITY ns_xlink "http://www.w3.org/1999/xlink">
]>
<svg  version="1.1" id="レイヤー_1" xmlns="&ns_svg;" xmlns:xlink="&ns_xlink;" width="400" height="400" viewBox="0 0 400 400"
	 overflow="visible" enable-background="new 0 0 400 400" xml:space="preserve">
<rect x="5" y="5" fill="#FFFFFF" width="390" height="390"/>
<g>
	<path fill="#14788C" d="M223.598,389.681l-1.409,1.875l5.003,3.752l1.406-1.877L223.598,389.681z M213.673,378.129
		c5.054,3.785,12.243,2.733,16.058-2.328c3.816-5.068,2.83-12.254-2.223-16.04c-5.029-3.768-12.229-2.742-16.052,2.332
		C207.644,367.154,208.648,374.362,213.673,378.129z M226.121,361.599c4.029,3.02,4.838,8.781,1.785,12.837
		c-3.061,4.063-8.813,4.878-12.849,1.855c-4.031-3.027-4.827-8.76-1.764-12.822C216.346,359.417,222.093,358.573,226.121,361.599z
		 M211.093,345.105l-15.114,20.069c-0.77,1.015-0.578,2.481,0.445,3.247l6.382,4.789c0,0-1.967,6.27-0.954,7.03l13.379,10.033
		c1.006,0.753,6.494-2.874,6.494-2.874l8.534,6.396c1.028,0.771,2.487,0.548,3.252-0.467l15.114-20.072
		c0.779-1.033,0.565-2.465-0.46-3.235l-33.828-25.379C213.305,343.881,211.863,344.076,211.093,345.105z M231.021,380.268
		c0.792,0.592,0.95,1.724,0.342,2.532c-0.585,0.78-1.73,0.941-2.516,0.355c-0.79-0.593-0.945-1.732-0.353-2.513
		C229.099,379.837,230.233,379.674,231.021,380.268z M228.213,358.822c5.555,4.171,6.66,12.091,2.456,17.68
		c-4.201,5.572-12.129,6.716-17.696,2.552c-5.536-4.155-6.624-12.068-2.424-17.645C214.749,355.825,222.669,354.671,228.213,358.822
		z M213.765,367.417c0.882-0.413,1.929-0.341,2.738,0.264c1.203,0.896,1.432,2.573,0.519,3.78c-0.599,0.801-1.56,1.164-2.499,1.038
		c0.456,0.786,1.07,1.478,1.837,2.058c3.102,2.323,7.496,1.694,9.833-1.411c2.336-3.104,1.73-7.505-1.365-9.831
		c-3.081-2.306-7.472-1.651-9.804,1.45C214.401,365.584,213.991,366.489,213.765,367.417z"/>
	<path fill="#14788C" d="M55.242,206.766c-5.467,5.469-5.602,14.196-0.289,19.508c5.305,5.305,27.481,9.867,28.574,8.777
		c1.096-1.099-3.471-23.271-8.778-28.577C69.445,201.167,60.712,201.302,55.242,206.766z M68.523,220.049
		c-2.095,2.09-5.429,2.138-7.459,0.107c-2.034-2.026-1.98-5.368,0.112-7.456c2.088-2.097,5.426-2.142,7.461-0.114
		C70.668,214.615,70.618,217.953,68.523,220.049z"/>
	<path fill="#14788C" d="M246.441,68.455l-1.959-1.238l-17.587-11.116l-18.063-11.408l-0.828,1.303l-14.701,23.044l-0.046-0.03
		l-1.086,1.74l36.84,22.889l0.004-0.008l0.973,0.611L246.441,68.455z M227.215,90.109l-12.494-7.765l7.366-11.554l12.438,7.86
		L227.215,90.109z M232.751,70.09c-0.048-0.192-0.2-0.429-0.446-0.712c-0.638-0.722-1.023-1.352-1.161-1.895
		c-0.131-0.545-0.046-1.051,0.262-1.536c0.341-0.535,0.813-0.836,1.426-0.894c0.613-0.061,1.282,0.143,2.018,0.605
		c0.786,0.501,1.373,1.063,1.774,1.696l-0.972,0.955c-0.376-0.614-0.858-1.105-1.457-1.478c-0.303-0.191-0.56-0.277-0.79-0.26
		c-0.223,0.013-0.401,0.113-0.523,0.311c-0.2,0.319-0.107,0.695,0.285,1.138c0.705,0.766,1.126,1.422,1.261,1.966
		c0.142,0.535,0.053,1.065-0.273,1.566c-0.386,0.604-0.88,0.929-1.493,0.993c-0.615,0.059-1.32-0.171-2.126-0.675
		c-0.365-0.228-0.7-0.521-1.017-0.877c-0.32-0.354-0.549-0.705-0.706-1.048l1.065-0.908c0.332,0.762,0.807,1.345,1.431,1.74
		c0.302,0.188,0.563,0.267,0.79,0.237c0.227-0.018,0.413-0.143,0.561-0.366C232.772,70.466,232.805,70.282,232.751,70.09z
		 M225.589,59.928l-2.237,5.227l0.021,0.009l3.749-4.26l1.778,1.119l-2.287,5.19l0.015,0.008l3.813-4.223l1.438,0.909l-5.345,5.321
		l-1.69-1.07l2.218-5.239l-0.017-0.008l-3.803,4.237l-1.695-1.076l2.567-7.073L225.589,59.928z M216.54,76.936l-16.048-9.888
		l0.62-0.995l16.047,9.889L216.54,76.936z M219.253,55.926l4.001,2.525l-0.744,1.163l-2.545-1.607l-0.81,1.267l2.376,1.498
		l-0.701,1.096l-2.367-1.498l-0.968,1.513l2.542,1.601l-0.743,1.17l-3.993-2.529L219.253,55.926z M212.871,51.9l1.427,0.896
		l-0.207,5.202l0.015,0.012l2.423-3.803l1.424,0.899l-3.95,6.194l-1.425-0.898l0.207-5.203l-0.017-0.01l-2.424,3.806l-1.424-0.902
		L212.871,51.9z M219.556,71.162l-0.627,0.998l-16.045-9.891l0.624-0.991L219.556,71.162z M198.429,69.481l10.805,6.829l-1.2,1.884
		l-10.855-6.748L198.429,69.481z"/>
	<path fill="#14788C" d="M369.937,241.351c1.45,0.968,3.217,0.343,4.216-0.662c0.442-0.442,0.769-0.971,0.874-1.56
		c0.02-0.077,0.024-0.146,0.039-0.227c0.621,0.756,1.316,1.521,2.109,2.312l15.061-15.056c-0.834-0.831-1.642-1.56-2.429-2.221
		c0.14,0.018,0.297,0,0.435-0.025c0.596-0.104,1.127-0.436,1.561-0.873c1.004-1,1.628-2.767,0.665-4.22
		c-0.151-0.219-0.312-0.412-0.493-0.591c-1.569-1.554-3.808-1.187-5.467-0.288c-0.742,0.389-1.575,0.76-2.304,0.86
		c-0.75,0.108-1.345,0.006-1.869-0.514c-0.053-0.058-0.108-0.111-0.171-0.183c-0.589-0.784-0.382-1.219-0.068-1.572
		c0.155-0.163,0.373-0.271,0.548-0.296c0.183-0.021,0.31,0.016,0.417,0.118c0.068,0.072,0.144,0.182,0.195,0.378l1.172-0.358
		c-0.089-0.359-0.255-0.672-0.484-0.902c-0.806-0.768-1.99-0.459-2.685,0.222c-0.016,0.02-0.03,0.033-0.047,0.049
		c-0.724,0.725-0.931,2.076,0.003,3.167c0.075,0.094,0.154,0.177,0.233,0.257c0.16,0.16,0.33,0.29,0.509,0.396
		c-4.515-1.247-7.395,0.204-7.82,0.39c-0.675,0.308-1.417-0.828-1.494-1.494c-0.073-0.672-0.066-1.059-0.053-1.637
		c0.023-0.578-0.844-0.646-1.332-0.535c-0.475,0.107-2.093-0.327-2.466-0.695c-0.382-0.384-0.432-2.009-0.596-2.774
		c-0.174-0.767,0.298-0.299-0.93-1.321c-1.225-1.014-2.291-0.504-2.291-0.504l3.545-3.542l-3.369-5.863l2.069-2.065l-2.46-2.466
		l-16.588,16.594l2.46,2.457l2.071-2.071l5.855,3.366l3.445-3.443c0,0-0.513,1.071,0.503,2.295c1.029,1.219,0.564,0.749,1.326,0.921
		c0.769,0.169,2.402,0.217,2.777,0.59c0.372,0.376,0.8,2.001,0.688,2.482c-0.105,0.487-0.035,1.348,0.535,1.334
		c0.577-0.016,0.974-0.03,1.638,0.045c0.668,0.079,1.812,0.811,1.498,1.499c-0.187,0.407-1.565,3.144-0.488,7.44
		c-0.064-0.082-0.125-0.157-0.2-0.229c-0.081-0.078-0.158-0.161-0.258-0.231c-1.093-0.938-2.441-0.733-3.165-0.008
		c-0.014,0.019-0.031,0.032-0.043,0.052c-0.691,0.69-0.995,1.879-0.227,2.679c0.23,0.233,0.54,0.397,0.899,0.483l0.361-1.169
		c-0.197-0.054-0.308-0.128-0.377-0.197c-0.106-0.104-0.141-0.23-0.124-0.416c0.026-0.173,0.139-0.392,0.297-0.547
		c0.355-0.312,0.787-0.518,1.575,0.068c0.07,0.063,0.128,0.121,0.174,0.175c0.529,0.521,0.63,1.118,0.521,1.862
		c-0.099,0.73-0.464,1.567-0.861,2.305c-0.894,1.658-1.265,3.902,0.294,5.467C369.525,241.035,369.718,241.198,369.937,241.351z
		 M384.314,220.003c0.98-0.148,1.914-0.587,2.716-1.002c1.444-0.757,3.017-0.953,4.058,0.106c0.126,0.133,0.25,0.275,0.36,0.448
		c0.58,0.799,0.219,1.947-0.479,2.653c-0.288,0.291-0.615,0.471-0.867,0.515c-0.26,0.041-0.448-0.004-0.691-0.229
		c-0.035-0.037-0.062-0.077-0.094-0.113l-0.741,0.591c-1.869-1.402-3.614-2.336-5.194-2.935
		C383.701,220.062,384.012,220.048,384.314,220.003z M359.012,213.874l-3.073-3.073l5.972-5.979l3.078,3.074L359.012,213.874z
		 M370.12,235.908c0.41-0.792,0.852-1.727,1.001-2.712c0.022-0.175,0.037-0.358,0.047-0.533c0.604,1.5,1.514,3.142,2.833,4.913
		l-0.502,0.621c0.036,0.038,0.078,0.063,0.112,0.098c0.223,0.242,0.264,0.435,0.228,0.693c-0.043,0.25-0.224,0.576-0.514,0.866
		c-0.703,0.693-1.854,1.059-2.655,0.478c-0.165-0.114-0.318-0.231-0.44-0.354C369.161,238.925,369.359,237.359,370.12,235.908z"/>
	<path fill="#14788C" d="M345.998,121.287l-2.129-2.123l-0.001,0.001l-23.497-23.494c-3.292-3.292-8.621-3.291-11.906-0.003
		c-3.29,3.287-3.29,8.615,0,11.905l23.498,23.49l-0.006,0.013l2.126,2.121L345.998,121.287z M325.003,119.344l0.001-14.286
		l16.478,16.489l-7.146,7.143L325.003,119.344z"/>
	<path fill="#14788C" d="M308.567,337.343c-0.306,0.589-0.214,1.589,0.281,2.546c0.485,0.938,1.226,1.563,1.854,1.648
		c0.078,0.105,0.154,0.212,0.243,0.313c0.04,0.038,0.088,0.08,0.125,0.132c0.082,0.609,0.508,1.339,1.208,1.924
		c0.844,0.701,1.806,0.962,2.423,0.718c0.2,0.104,0.417,0.19,0.627,0.272c0.325,0.522,1.021,0.978,1.898,1.2
		c1.028,0.244,1.985,0.053,2.459-0.415c0.858,0.002,1.735-0.059,2.634-0.227c2.56-0.468,5.131-1.575,7.428-3.203
		c1.026-0.729,2.026-1.61,3.045-2.687c0.85-0.895,1.697-1.896,2.58-3.047c1.5-1.953,2.945-4.096,4.41-6.553
		c0.788-1.325,1.407-2.431,1.936-3.479c0.182-0.365,0.322-0.646,0.461-0.975c0,0-0.006,0.005-0.006,0.01
		c0.01-0.01,0.033-0.084,0.165-0.427c-0.063,0.321-0.136,0.654-0.195,0.964c-0.778,3.612-1.558,6.523-2.459,9.142
		c-0.622,1.793-1.176,3.134-1.779,4.353c-0.719,1.509-1.043,2.021-1.561,2.704c-0.531,0.677-1.579,2.035-1.579,2.035
		s1.307-0.142,1.83-0.409c0.534-0.277,1.452-0.949,1.969-1.495c0.524-0.541,1.571-1.762,2.099-2.573
		c0.524-0.814,1.231-2.044,1.921-3.619c1.252-2.802,2.217-5.88,2.972-9.42c0.654-3.076,1.078-6.343,1.301-9.722
		c0.094-1.604,0.145-3.074,0.144-4.468c0.001-1.567-0.064-3.041-0.182-4.456c0.012-0.076,0.172-1.671,0.172-1.671l-3.049-0.259
		l-0.122,1.746l0.005-0.01c-0.017,0.057-0.017,0.113-0.017,0.15l-0.079,0.799c0,0-0.053,0.456-0.057,0.462
		c-0.866,1.528-1.783,3.042-2.717,4.485l-0.096,0.136c-0.686,1.051-1.408,2.146-2.18,3.192c-0.922,1.281-1.708,2.309-2.513,3.261
		c-0.856,1.064-1.797,2.119-2.798,3.148c-0.931,0.969-3.448,3.771-4.496,4.581c-1.049,0.807-3.797,2.841-3.797,2.841
		c1.565,0.144,4.062-1.076,4.062-1.076s1.563-0.734,2.924-1.776c1.147-0.854,2.261-1.808,3.601-3.085
		c0.999-0.984,1.985-2.059,3.015-3.29c0.948-1.172,1.802-2.322,2.552-3.427c0.395-0.603,0.741-1.148,1.057-1.657
		c-0.157,0.53-0.432,1.488-0.432,1.488c-0.375,1.223-0.766,2.465-1.172,3.687l-0.604,1.83l-0.321,0.888
		c-0.093,0.233-0.208,0.483-0.356,0.791c-0.476,1.013-1.044,2.082-1.767,3.359c-1.369,2.42-2.709,4.521-4.111,6.44
		c-0.813,1.11-1.589,2.067-2.355,2.926c-0.916,1-1.793,1.81-2.692,2.476c-1.095,0.823-2.264,1.514-3.497,2.042
		c-0.362-0.023-0.726-0.073-1.096-0.16c-0.72-0.169-1.386-0.439-1.96-0.824c0.614-0.265,1.111-1.211,1.182-2.368
		c0.04-0.726-0.092-1.382-0.334-1.857c0.351-0.396,0.626-0.985,0.769-1.673c0.286-1.382-0.1-2.633-0.875-2.814
		c-0.769-0.165-1.627,0.813-1.917,2.19c-0.161,0.791-0.1,1.531,0.13,2.061c-0.342,0.445-0.583,1.126-0.628,1.908
		c-0.016,0.249-0.004,0.494,0.024,0.723c-0.097-0.169-0.187-0.327-0.265-0.497c0.184-0.563,0.188-1.338-0.066-2.133
		c-0.216-0.65-0.546-1.183-0.919-1.532c0.474-0.405,0.842-1.202,0.92-2.148c0.097-1.127-0.239-2.103-0.769-2.49
		c0.472-0.398,0.827-1.241,0.865-2.224c0.063-1.411-0.528-2.581-1.318-2.623c-0.794-0.031-1.474,1.087-1.535,2.496
		c-0.044,1.099,0.301,2.04,0.842,2.427c-0.487,0.392-0.854,1.192-0.937,2.15c-0.07,0.86,0.113,1.644,0.439,2.142
		c-0.535,0.442-0.672,1.568-0.305,2.731c0.208,0.652,0.543,1.181,0.912,1.535c0.085,0.309,0.161,0.607,0.271,0.919
		c0.264,0.75,0.594,1.502,1.025,2.285c0.092,0.179,0.184,0.339,0.274,0.504c-0.394-0.215-0.788-0.465-1.173-0.752
		c-0.041-0.034-0.081-0.073-0.12-0.104c0.225-0.637-0.059-1.646-0.779-2.51c-0.683-0.824-1.545-1.256-2.186-1.18
		c-0.001-0.026-0.003-0.045-0.017-0.067c0.462-0.478,0.657-1.452,0.454-2.515c-0.168-0.839-0.535-1.522-0.966-1.908
		c0-0.268,0.005-0.544,0.017-0.82c0.3-0.454,0.522-1.093,0.565-1.831c0.059-1.102-0.281-2.065-0.815-2.454
		c0.592-0.298,1.065-1.217,1.134-2.347c0.055-1.102-0.278-2.056-0.804-2.451c0,0.005,0.007,0.01,0.017,0.011
		c0.785,0.052,1.485-1.052,1.563-2.461c0.092-1.414-0.488-2.595-1.266-2.643c-0.793-0.042-1.497,1.056-1.584,2.463
		c-0.063,1.096,0.271,2.045,0.797,2.442c0,0-0.006-0.006-0.01-0.009c-0.787-0.047-1.49,1.052-1.568,2.465
		c-0.066,1.107,0.275,2.063,0.799,2.451c-0.542,0.276-0.974,1.085-1.095,2.099c-0.229-0.875-0.718-1.51-1.245-1.668
		c0.331-0.478,0.539-1.207,0.518-2.031c-0.034-1.411-0.695-2.539-1.484-2.517c-0.79,0.017-1.396,1.178-1.377,2.585
		c0.035,1.259,0.565,2.29,1.25,2.479c-0.314,0.508-0.47,1.305-0.358,2.169c0.122,1.016,0.572,1.838,1.101,2.183
		c-0.469,0.513-0.47,1.645,0.035,2.739c0.582,1.272,1.644,2.013,2.362,1.664c0.049-0.025,0.095-0.062,0.142-0.102
		c0.328,0.555,0.684,1.093,1.052,1.6c0.108,0.507,0.374,1.065,0.802,1.581c0.524,0.626,1.155,1.027,1.699,1.153
		c0.019,0.015,0.047,0.043,0.077,0.063c-0.469-0.031-0.894,0.015-1.241,0.141c-0.31-0.11-0.614-0.211-0.91-0.354
		c-0.213-0.446-0.547-0.904-1.019-1.293c-0.618-0.523-1.304-0.8-1.865-0.818c-0.003-0.004-0.003-0.004-0.003-0.004
		c-0.139-0.155-0.254-0.31-0.391-0.469c0.03-0.543-0.111-1.2-0.446-1.825c-0.507-0.983-1.291-1.606-1.939-1.642
		c0.337-0.5,0.513-1.296,0.434-2.177c-0.116-1.408-0.858-2.481-1.657-2.403c-0.78,0.079-1.313,1.271-1.188,2.681
		C307.145,336.292,307.822,337.319,308.567,337.343z"/>
	<path fill="#14788C" d="M122.877,96.793l-0.834-2.124c-0.756,0.268-1.501,0.632-2.201,1.003l1.15,1.981
		C121.638,97.298,122.271,96.992,122.877,96.793z M96.27,113.861l-2.186-0.735c-0.231,0.745-0.433,1.505-0.587,2.254l2.228,0.523
		C95.879,115.23,96.055,114.543,96.27,113.861z M95.39,118.003l-2.272-0.312c-0.092,0.791-0.128,1.594-0.114,2.369l2.275,0.049
		C95.275,119.416,95.314,118.712,95.39,118.003z M96.72,126.125l-2.011,0.986c0.388,0.74,0.849,1.438,1.381,2.098l1.759-1.365
		C97.425,127.303,97.038,126.727,96.72,126.125z M95.447,122.191l-2.264,0.264c0.127,0.813,0.311,1.602,0.556,2.379l2.178-0.612
		C95.703,123.575,95.547,122.895,95.447,122.191z M97.869,109.89l-2.047-1.035c-0.354,0.69-0.664,1.389-0.953,2.083l2.124,0.896
		C97.266,111.193,97.557,110.541,97.869,109.89z M100.996,101.255c-0.509,0.514-1.016,1.107-1.537,1.774l1.835,1.387
		c0.473-0.594,0.932-1.133,1.373-1.58L100.996,101.255z M100.037,106.173l-1.912-1.288c-0.429,0.647-0.84,1.289-1.218,1.945
		l1.985,1.174C99.254,107.383,99.632,106.771,100.037,106.173z M102.217,133.478c0.799,0.274,1.618,0.47,2.448,0.589l0.252-2.229
		c-0.688-0.086-1.362-0.239-2.015-0.474L102.217,133.478z M99.301,129.316l-1.447,1.694c0.229,0.186,0.471,0.363,0.702,0.548
		c0.451,0.321,0.894,0.623,1.365,0.891l1.097-1.94c-0.391-0.21-0.764-0.467-1.135-0.739
		C99.685,129.633,99.493,129.483,99.301,129.316z M121.593,123.985l1.726,1.528c0.51-0.553,0.997-1.136,1.486-1.729l-1.818-1.437
		C122.537,122.921,122.07,123.473,121.593,123.985z M114.992,129.448l1.216,1.932c0.651-0.384,1.311-0.802,1.959-1.265l-1.373-1.833
		C116.191,128.705,115.593,129.094,114.992,129.448z M118.498,126.975l1.501,1.734c0.587-0.484,1.151-1,1.716-1.538l-1.619-1.63
		C119.568,126.046,119.033,126.52,118.498,126.975z M105.898,100.529l-0.918-2.091c-0.723,0.286-1.446,0.695-2.185,1.231
		l1.402,1.817C104.803,101.05,105.361,100.738,105.898,100.529z M106.992,131.952l0.152,2.25c0.809-0.031,1.618-0.118,2.426-0.267
		l-0.49-2.215C108.372,131.851,107.675,131.937,106.992,131.952z M111.115,131.205l0.783,2.123c0.743-0.24,1.478-0.526,2.22-0.865
		l-1.021-2.04C112.442,130.73,111.775,130.983,111.115,131.205z M124.297,120.623l1.876,1.33c0.448-0.624,0.877-1.245,1.29-1.875
		l-1.935-1.252C125.139,119.421,124.725,120.034,124.297,120.623z M128.649,113.137l2.104,0.958c0.317-0.712,0.598-1.428,0.854-2.14
		l-2.154-0.813C129.22,111.799,128.947,112.465,128.649,113.137z M130.03,100.982l2.118-0.763c-0.33-0.797-0.745-1.544-1.273-2.25
		l-1.819,1.293C129.451,99.805,129.781,100.378,130.03,100.982z M130.715,104.962l2.282,0.112c0.008-0.83-0.047-1.646-0.184-2.44
		l-2.248,0.291C130.675,103.568,130.724,104.25,130.715,104.962z M130.098,109.104l2.209,0.644c0.209-0.771,0.37-1.543,0.487-2.296
		l-2.268-0.416C130.431,107.712,130.281,108.4,130.098,109.104z M126.667,116.984l1.982,1.169c0.394-0.658,0.764-1.324,1.113-1.99
		l-2.049-1.083C127.389,115.709,127.047,116.352,126.667,116.984z M119.115,98.754l-1.243-1.921
		c-0.684,0.411-1.308,0.787-1.881,1.092l1.117,1.992C117.775,99.571,118.436,99.172,119.115,98.754z M126.307,96.88
		c0.349,0.204,0.687,0.418,0.977,0.644c0.137,0.093,0.265,0.198,0.389,0.289l1.429-1.695c-0.159-0.134-0.315-0.257-0.482-0.377
		c-0.378-0.274-0.775-0.54-1.195-0.785l0.036,0.028l-0.036-0.028c-0.901-0.508-1.856-0.745-2.767-0.756l0.048,2.245
		C125.275,96.448,125.78,96.574,126.307,96.88z M109.765,100.216l0.281-2.22c-0.775-0.115-1.628-0.193-2.536-0.14l0.243,2.254
		C108.426,100.052,109.084,100.112,109.765,100.216z M114.611,100.777l-0.354-2.231c-0.548,0.072-1.193,0.006-1.934-0.124
		L112,100.626C112.827,100.775,113.693,100.889,114.611,100.777z M104.547,123.551c4.466,3.295,10.88,0.703,15.235-5.119
		c4.363-5.819,6.473-12.777,1.352-15.735c-2.492-1.444-5.397,1.911-7.324,2.227c-2.329,0.395-4.969-2.341-8.711,2.657
		C100.742,113.399,100.08,120.26,104.547,123.551z"/>
	<path fill="#14788C" d="M102.367,310.485c-2.217,4.54,0.046,8.478,0.485,10.236c-5.063,0.014-7.808-0.619-7.843-0.643
		c-0.469-0.09-0.917,0.25-0.997,0.733c-0.087,0.483,0.21,0.946,0.675,1.045c0.173,0.03,2.859,0.668,7.902,0.668
		c-0.411,1.151-1.036,2.802-1.146,4.731c-2.066,0.813-3.95,1.939-5.324,3.499c-1.665,1.886-2.369,4.219-2.048,6.743
		c0.441,3.464,3.971,4.734,6.549,5.662c0.958,0.345,2.046,0.74,2.432,1.068c0.345,0.292,0.632,0.853,0.98,1.493
		c1.153,2.183,2.896,5.48,10.188,5.478c11.459,0.003,19.773-5.467,19.778-12.997c-0.003-2.504-0.934-4.765-2.576-6.684
		c0.539-0.701,1.039-1.438,1.419-2.195c1.402-2.822,1.442-5.15,0.557-8.129c0.884-2.974,0.846-5.304-0.557-8.122
		c-0.645-1.313-1.641-2.567-2.62-3.582c-3.514-3.583-8.474-6.18-13.41-6.282C109.444,303.051,104.795,305.463,102.367,310.485z
		 M129.999,338.201c-0.003,5.128-6.786,8.998-15.778,9.001c-4.885,0-5.665-1.481-6.656-3.349c-0.463-0.876-0.986-1.873-1.913-2.663
		c-0.943-0.809-2.273-1.283-3.673-1.789c-1.696-0.616-3.808-1.374-3.937-2.403l-0.001-0.003c-0.176-1.395,0.174-2.566,1.079-3.595
		c0.692-0.788,1.747-1.472,3.027-2.061c0.075,0.188,0.125,0.374,0.222,0.562c2.427,5.033,7.071,7.445,14.442,7.291
		c4.22-0.101,8.451-2.025,11.79-4.799C129.492,335.541,129.995,336.819,129.999,338.201z M125.047,327.754
		c0.88,0.67,1.052,1.922,0.385,2.803c-3.154,4.15-9.337,5.699-14.071,3.507c-1.004-0.462-1.446-1.65-0.978-2.655
		c0.461-1.005,1.648-1.442,2.654-0.974c2.993,1.382,7.21,0.33,9.209-2.299C122.916,327.259,124.165,327.082,125.047,327.754z"/>
		<animateTransform attributeType="XML" attributeName="transform" type="rotate" values="0 222 220;45 222 220;45 222 220;90 222 220;90 222 220;135 222 220;135 222 220;180 222 220;180 222 220;225 222 220;225 222 220;270 222 220;270 222 220;315 222 220;315 222 220;360 222 220;360 222 220;0 222 220;0 222 220" calcMode="linear" dur="15s" keyTimes="0;0.06;0.12;0.18;0.24;0.3;0.36;0.42;0.48;0.54;0.6;0.66;0.72;0.78;0.84;0.9;0.96;0.96;1" repeatCount="indefinite" />
</g>
<path fill="#14788C" d="M0,0v400h400V0H0z M168.253,183.537c0.135,8.294-4.676,11.81-10.693,7.805l-23.218-15.422
	c-7.057,1.983-14.559,3.07-22.34,3.07C70.57,178.99,37,148.544,37,110.982C37,73.445,70.57,43,112.002,43
	c41.433,0,75.001,30.445,75.001,67.982c0,17.443-7.307,33.302-19.213,45.337L168.253,183.537z"/>
<path fill="#FFFFFF" d="M213.908,300.624l-12.51,12.5c-2.255,2.244-1.407,4.314-0.068,7.986c0,0,6.295,8.32,18.438,20.508
	c12.615,12.541,19.077,16.994,19.077,16.994c2.96,1.396,5.907,2.244,8.129,0.039l12.504-12.521
	C243.074,332.243,228.367,319.899,213.908,300.624z M355.617,208.104l0.096-0.137l-1.875-1.779l-1.814-1.932l-0.139,0.117
	l-4.688-4.375c-19.345,19.345-35.486,35.498-57.732,41.309c-12.007,3.125-22.168,5.938-33.77,17.537l-2.344,2.344
	c13.72,16.719,28.789,31.838,45.488,45.586l2.381-2.344c11.662-11.68,14.339-21.902,17.464-33.903
	c5.829-22.266,21.941-38.401,41.316-57.747L355.617,208.104z M246.656,267.586l-26.293,26.3c7.098,9.754,14.774,16.795,21.754,23.72
	c6.966,6.981,14.079,14.13,24.329,22.138l26.222-26.229c-8.984-7.014-17.116-15.304-24.112-22.285
	C261.599,284.276,254.152,276.97,246.656,267.586z"/>
</svg>
