<?xml version="1.0" encoding="utf-8"?>
<!-- Generator: Adobe Illustrator 12.0.0, SVG Export Plug-In . SVG Version: 6.00 Build 51448)  -->
<!DOCTYPE svg PUBLIC "-//W3C//DTD SVG 1.1//EN" "http://www.w3.org/Graphics/SVG/1.1/DTD/svg11.dtd" [
	<!ENTITY ns_svg "http://www.w3.org/2000/svg">
	<!ENTITY ns_xlink "http://www.w3.org/1999/xlink">
]>
<svg  version="1.1" id="レイヤー_1" xmlns="&ns_svg;" xmlns:xlink="&ns_xlink;" width="200" height="200" viewBox="0 0 200 200"
	 overflow="visible" enable-background="new 0 0 200 200" xml:space="preserve">
<path fill="#282828" d="M70.356,44.562l60.407,34.954l-4.259,7.395c1.575-0.293,3.183-0.501,4.817-0.614l7.521-13.056
	c2.401-4.183,0.949-9.607-3.278-12.069l-0.332-0.192c-4.07,0.92-11.067,2.502-11.067,2.502c-2.502,0.566-4.729,0.031-6.113-1.469
	c-0.905-0.981-1.37-2.292-1.37-3.769c0-0.789,0.133-1.625,0.402-2.485c0,0,0.651-2.079,1.399-4.465L83.75,31.207
	c-4.231-2.455-9.688-1.036-12.104,3.154L55.354,62.646c1.013,1.014,1.931,2.087,2.732,3.216L70.356,44.562z M105.445,51.106
	c0.328-0.569,1.073-0.765,1.64-0.429c0.593,0.336,0.813,1.072,0.486,1.639c-0.332,0.577-1.084,0.759-1.655,0.423
	C105.329,52.403,105.113,51.68,105.445,51.106z M98.63,52.672c0.151-0.246,0.551-0.267,0.944-0.049l9.655,5.591
	c0.33,0.206,0.521,0.56,0.382,0.807c-0.127,0.241-0.547,0.244-0.879,0.058l-9.653-5.593C98.687,53.269,98.493,52.895,98.63,52.672z
	 M91.936,48.787c0.391-0.671,1.231-0.898,1.895-0.511c0.665,0.379,0.908,1.236,0.514,1.906c-0.376,0.675-1.229,0.892-1.895,0.514
	C91.784,50.298,91.547,49.461,91.936,48.787z M69.732,185.484L9.316,150.537l28.192-48.945c-1.629,0.307-3.281,0.527-4.952,0.64
	L1.155,156.754c-2.417,4.171-0.911,9.629,3.316,12.089l51.802,29.967c4.237,2.44,9.654,1.008,12.072-3.193l26.168-45.425
	c-1.604-0.461-2.971-0.854-3.822-1.099L69.732,185.484z M40.367,177.672c-1.525,2.653-4.911,3.5-7.574,1.985
	c-2.625-1.527-3.559-4.915-2.038-7.55c1.508-2.624,4.896-3.512,7.522-1.986C40.944,171.674,41.875,175.025,40.367,177.672z
	 M37.935,170.699c-2.304-1.328-5.265-0.534-6.59,1.754c-1.326,2.298-0.519,5.255,1.786,6.593c2.351,1.363,5.282,0.573,6.608-1.725
	C41.061,175.016,40.286,172.057,37.935,170.699z M167.569,2.194c-22.276-6.485-44.294,1.893-49.194,18.723
	c-2.274,7.814-0.414,16.062,4.417,23.322l-3.8,12.119c-1.158,3.695,0.975,6.024,4.731,5.174l14.496-3.278
	c3.535,1.992,7.428,3.646,11.613,4.864c22.275,6.485,44.295-1.896,49.193-18.721C203.927,27.567,189.846,8.68,167.569,2.194z
	 M109.404,97.815c-7.4,7.399-10.416,17.853-9.438,29.024L88.17,138.141c-3.584,3.458-2.632,7.393,2.142,8.762l18.366,5.282
	c2.745,4.423,6.099,8.706,10.06,12.666c21.09,21.091,51.095,25.268,67.032,9.33c15.936-15.936,11.755-45.937-9.335-67.027
	C155.34,86.061,125.339,81.881,109.404,97.815z M29.993,100.326c3.123,0,6.117-0.361,8.936-1.022l9.29,5.148
	c2.407,1.331,4.333,0.159,4.284-2.609l-0.195-9.064c4.767-4.019,7.69-9.299,7.69-15.112C59.997,65.145,46.57,55,29.993,55
	C13.427,55,0,65.145,0,77.665C0,90.178,13.427,100.326,29.993,100.326z"/>
</svg>
