<?xml version="1.0" encoding="utf-8"?>
<!-- Generator: Adobe Illustrator 12.0.0, SVG Export Plug-In . SVG Version: 6.00 Build 51448)  -->
<!DOCTYPE svg PUBLIC "-//W3C//DTD SVG 1.1//EN" "http://www.w3.org/Graphics/SVG/1.1/DTD/svg11.dtd" [
	<!ENTITY ns_svg "http://www.w3.org/2000/svg">
	<!ENTITY ns_xlink "http://www.w3.org/1999/xlink">
]>
<svg  version="1.1" id="レイヤー_1" xmlns="&ns_svg;" xmlns:xlink="&ns_xlink;" width="200" height="200" viewBox="0 0 200 200"
	 overflow="visible" enable-background="new 0 0 200 200" xml:space="preserve">
<path fill="#282828" d="M199.8,0.203c0,0-0.257-0.513-1.288,0.094c-3.945,2.329-20.1,10.531-20.1,10.531s-1.074,1.081,0.293,1.764
	c0.995,0.499,2.726,1.363,3.584,1.788l-63.914,63.996l3.248,3.248l63.997-63.912c0.425,0.857,1.288,2.587,1.789,3.585
	c0.682,1.365,1.762,0.293,1.762,0.293s8.204-16.157,10.533-20.1C200.309,0.456,199.8,0.203,199.8,0.203z"/>
<path fill="#282828" d="M159.001,47.074c-1.87,1.869-3.765,3.765-5.661,5.661c0.052,0.051,0.098,0.107,0.154,0.153
	c1.245,1,2.419,2.093,3.488,3.249c6.526,7.049,9.688,16.555,8.9,26.767c-1.347,17.436-19.976,36.933-30.961,47.003
	C117.584,145.803,102.586,154,100.002,154c-2.584,0-17.584-8.197-34.925-24.094c-10.986-10.069-29.616-29.567-30.96-47.003
	c-0.786-10.214,2.375-19.722,8.902-26.771C48.982,49.693,57.224,46,65.632,46c18.262,0,27.878,9.705,30.563,18.015
	c0.536,1.657,2.066,2.77,3.807,2.77c1.742,0,3.271-1.114,3.806-2.771C106.491,55.704,116.104,46,134.368,46
	c3.844,0,7.635,0.769,11.286,2.267c1.983-1.983,3.975-3.975,5.944-5.944c-0.154-0.154-0.324-0.292-0.525-0.391
	C145.821,39.36,140.045,38,134.368,38C119.573,38,106.78,44.097,100,54.031C93.219,44.097,80.425,38,65.632,38
	c-10.629,0-21.011,4.628-28.483,12.697c-8.059,8.702-11.968,20.358-11.009,32.82c1.556,20.175,21.676,41.418,33.53,52.286
	C73.414,148.402,92.741,162,100.002,162c7.259,0,26.584-13.598,40.326-26.196c11.854-10.867,31.973-32.11,33.531-52.284
	c0.96-12.461-2.949-24.116-11.007-32.819C161.686,49.441,160.388,48.224,159.001,47.074z"/>
<path fill="#282828" d="M62.372,140.874c-1.206-1.04-2.359-2.06-3.448-3.048l-22.238,22.238l-12.589-2.385L0,178.559l14.363,3.828
	l-7.147,7.147l3.247,3.248l7.15-7.15L21.44,200l20.879-24.101l-2.384-12.59L62.372,140.874z"/>
</svg>
