<?xml version="1.0" encoding="utf-8"?>
<!-- Generator: Adobe Illustrator 12.0.0, SVG Export Plug-In . SVG Version: 6.00 Build 51448)  -->
<!DOCTYPE svg PUBLIC "-//W3C//DTD SVG 1.1//EN" "http://www.w3.org/Graphics/SVG/1.1/DTD/svg11.dtd" [
	<!ENTITY ns_svg "http://www.w3.org/2000/svg">
	<!ENTITY ns_xlink "http://www.w3.org/1999/xlink">
]>
<svg  version="1.1" id="レイヤー_1" xmlns="&ns_svg;" xmlns:xlink="&ns_xlink;" width="200" height="200" viewBox="0 0 200 200"
	 overflow="visible" enable-background="new 0 0 200 200" xml:space="preserve">
<path fill="#282828" d="M81.987,133.388L23.864,118.83l-0.072,0.296l58.121,14.555L81.987,133.388z M86.03,117.342l-58.121-14.558
	l-0.076,0.292l58.122,14.558L86.03,117.342z M80.642,138.728l-58.121-14.554l-0.077,0.3l58.121,14.558L80.642,138.728z
	 M84.682,122.688L26.56,108.131l-0.075,0.299l58.121,14.559L84.682,122.688z M19.748,135.171l58.122,14.558l0.076-0.303
	l-58.121-14.553L19.748,135.171z M17.057,145.862l58.12,14.558l0.075-0.296l-58.123-14.557L17.057,145.862z M21.097,129.817
	l58.122,14.554l0.076-0.293l-58.121-14.557L21.097,129.817z M18.4,140.522l58.124,14.554l0.075-0.304l-58.121-14.559L18.4,140.522z
	 M83.335,128.03l-58.121-14.554l-0.075,0.294l58.124,14.559L83.335,128.03z M95.464,79.896L37.34,65.341l-0.074,0.302L95.386,80.2
	L95.464,79.896z M197.044,76.97L33.921,36.118c-2.083-0.522-4.208,0.734-4.728,2.799L0.116,154.332
	c-0.52,2.066,0.757,4.176,2.84,4.698l163.122,40.852c2.088,0.521,4.21-0.733,4.732-2.799l29.073-115.417
	C200.403,79.602,199.132,77.493,197.044,76.97z M9.153,152.221L36.154,45.038l76.451,19.146l-0.924,3.664
	c-1.969-0.332-3.53-0.056-4.626,0.317c-0.202-0.139-0.43-0.253-0.684-0.316c-1.108-0.277-2.237,0.385-2.512,1.485
	c-0.282,1.105,0.402,2.218,1.505,2.496c1.116,0.277,2.235-0.383,2.513-1.491c0.038-0.134,0.057-0.269,0.063-0.403
	c0.785-0.232,1.883-0.371,3.254-0.166l-1.182,4.693c-1.967-0.331-3.528-0.057-4.618,0.317c-0.203-0.143-0.438-0.255-0.691-0.318
	c-1.107-0.278-2.234,0.387-2.513,1.485c-0.277,1.107,0.402,2.22,1.511,2.498c1.116,0.277,2.231-0.382,2.513-1.49
	c0.033-0.136,0.052-0.271,0.058-0.406c0.785-0.231,1.888-0.369,3.259-0.164l-1.182,4.692c-1.966-0.331-3.527-0.057-4.623,0.317
	c-0.202-0.143-0.432-0.255-0.687-0.318c-1.107-0.277-2.238,0.389-2.515,1.488c-0.278,1.108,0.405,2.219,1.509,2.497
	c1.115,0.278,2.234-0.381,2.512-1.49c0.033-0.135,0.057-0.272,0.063-0.405c0.784-0.231,1.882-0.369,3.253-0.164l-1.181,4.689
	c-1.968-0.331-3.529-0.057-4.622,0.319c-0.203-0.143-0.433-0.255-0.688-0.318c-1.104-0.277-2.235,0.391-2.514,1.489
	c-0.279,1.106,0.402,2.219,1.51,2.495c1.115,0.279,2.232-0.379,2.513-1.488c0.034-0.135,0.053-0.272,0.059-0.407
	c0.783-0.23,1.888-0.366,3.258-0.162l-1.181,4.687c-1.969-0.331-3.532-0.056-4.625,0.319c-0.203-0.142-0.431-0.255-0.687-0.319
	c-1.104-0.275-2.236,0.391-2.513,1.491c-0.28,1.105,0.401,2.218,1.509,2.494c1.115,0.279,2.234-0.382,2.512-1.488
	c0.035-0.134,0.054-0.271,0.061-0.404c0.783-0.23,1.885-0.368,3.255-0.163l-1.181,4.685c-1.97-0.328-3.531-0.055-4.624,0.322
	c-0.202-0.144-0.429-0.253-0.686-0.32c-1.105-0.275-2.236,0.389-2.513,1.49c-0.279,1.106,0.403,2.215,1.511,2.494
	c1.113,0.277,2.234-0.383,2.51-1.487c0.036-0.138,0.055-0.27,0.061-0.405c0.783-0.231,1.885-0.369,3.256-0.165l-1.182,4.688
	c-1.97-0.331-3.532-0.055-4.625,0.32c-0.202-0.142-0.432-0.251-0.685-0.319c-1.106-0.273-2.236,0.391-2.513,1.49
	c-0.278,1.102,0.402,2.213,1.51,2.493c1.113,0.278,2.231-0.38,2.51-1.487c0.036-0.137,0.055-0.27,0.061-0.406
	c0.785-0.231,1.884-0.37,3.256-0.166l-1.182,4.691c-1.968-0.331-3.529-0.056-4.622,0.32c-0.203-0.144-0.433-0.256-0.687-0.32
	c-1.108-0.276-2.236,0.393-2.513,1.488c-0.279,1.104,0.402,2.215,1.51,2.495c1.113,0.277,2.232-0.381,2.51-1.488
	c0.036-0.138,0.055-0.269,0.061-0.405c0.785-0.233,1.884-0.371,3.256-0.167l-1.182,4.693c-1.967-0.33-3.528-0.057-4.621,0.319
	c-0.203-0.144-0.433-0.259-0.687-0.321c-1.108-0.275-2.237,0.393-2.513,1.487c-0.279,1.105,0.401,2.217,1.507,2.498
	c1.116,0.276,2.234-0.383,2.513-1.491c0.036-0.136,0.054-0.268,0.06-0.402c0.783-0.231,1.886-0.371,3.256-0.166l-1.183,4.691
	c-1.966-0.331-3.526-0.056-4.619,0.317c-0.203-0.145-0.434-0.258-0.688-0.321c-1.108-0.274-2.238,0.396-2.512,1.49
	c-0.281,1.105,0.401,2.218,1.506,2.499c1.117,0.276,2.235-0.384,2.513-1.491c0.033-0.137,0.055-0.268,0.061-0.403
	c0.783-0.232,1.885-0.372,3.256-0.169l-1.182,4.692c-1.967-0.331-3.528-0.056-4.62,0.318c-0.203-0.144-0.434-0.259-0.688-0.322
	c-1.107-0.273-2.237,0.396-2.511,1.493c-0.281,1.103,0.401,2.217,1.506,2.496c1.117,0.277,2.235-0.38,2.514-1.491
	c0.033-0.137,0.054-0.273,0.06-0.404c0.783-0.23,1.886-0.37,3.256-0.166l-1.183,4.694c-1.967-0.331-3.527-0.058-4.619,0.315
	c-0.205-0.143-0.433-0.257-0.688-0.32c-1.109-0.276-2.238,0.396-2.514,1.491c-0.279,1.106,0.401,2.216,1.507,2.493
	c1.117,0.28,2.234-0.378,2.514-1.487c0.033-0.137,0.054-0.272,0.06-0.404c0.784-0.233,1.886-0.371,3.256-0.168l-1.182,4.694
	c-1.968-0.332-3.529-0.057-4.624,0.318c-0.203-0.145-0.43-0.26-0.687-0.321c-1.105-0.275-2.236,0.396-2.51,1.49
	c-0.279,1.103,0.401,2.218,1.507,2.494c1.117,0.281,2.235-0.384,2.514-1.487c0.033-0.137,0.052-0.273,0.058-0.407
	c0.786-0.23,1.888-0.371,3.258-0.167l-1.183,4.697c-1.968-0.332-3.528-0.056-4.623,0.315c-0.203-0.144-0.431-0.257-0.687-0.319
	c-1.105-0.275-2.237,0.395-2.51,1.49c-0.278,1.101,0.401,2.217,1.506,2.493c1.117,0.282,2.236-0.387,2.515-1.486
	c0.033-0.14,0.052-0.275,0.058-0.407c0.784-0.236,1.888-0.373,3.259-0.17l-1.184,4.699c-1.966-0.332-3.526-0.058-4.621,0.316
	c-0.203-0.143-0.431-0.259-0.688-0.321c-1.105-0.273-2.237,0.394-2.51,1.492c-0.279,1.099,0.401,2.218,1.506,2.493
	c1.114,0.28,2.236-0.387,2.514-1.487c0.034-0.138,0.053-0.276,0.059-0.408c0.783-0.238,1.888-0.373,3.258-0.169l-2.265,8.988
	L9.153,152.221z M163.846,190.963l-76.448-19.148l2.264-8.989c1.309,0.47,2.212,1.109,2.792,1.687
	c-0.06,0.119-0.106,0.25-0.142,0.388c-0.279,1.101,0.392,2.215,1.508,2.498c1.106,0.273,2.235-0.388,2.511-1.491
	c0.277-1.099-0.4-2.218-1.508-2.498c-0.256-0.063-0.51-0.07-0.756-0.042c-0.787-0.842-2.034-1.815-3.923-2.456l1.184-4.701
	c1.309,0.471,2.212,1.11,2.792,1.687c-0.06,0.119-0.106,0.251-0.142,0.388c-0.276,1.103,0.393,2.216,1.508,2.498
	c1.108,0.275,2.235-0.387,2.515-1.493c0.272-1.094-0.405-2.216-1.511-2.494c-0.256-0.063-0.509-0.071-0.755-0.043
	c-0.787-0.842-2.031-1.817-3.924-2.456l1.184-4.699c1.309,0.471,2.211,1.108,2.792,1.686c-0.06,0.119-0.106,0.249-0.142,0.388
	c-0.277,1.102,0.393,2.215,1.508,2.496c1.106,0.275,2.235-0.383,2.514-1.491c0.273-1.093-0.403-2.217-1.509-2.497
	c-0.253-0.063-0.509-0.069-0.756-0.041c-0.786-0.843-2.031-1.817-3.924-2.456l1.183-4.697c1.309,0.469,2.211,1.107,2.792,1.684
	c-0.06,0.119-0.106,0.249-0.142,0.386c-0.277,1.11,0.396,2.216,1.508,2.497c1.106,0.275,2.233-0.381,2.514-1.491
	c0.273-1.094-0.4-2.216-1.509-2.497c-0.255-0.063-0.511-0.07-0.758-0.04c-0.786-0.842-2.031-1.817-3.922-2.456l1.182-4.696
	c1.309,0.469,2.212,1.106,2.793,1.683c-0.06,0.119-0.105,0.249-0.139,0.386c-0.28,1.108,0.393,2.215,1.507,2.496
	c1.107,0.275,2.233-0.381,2.511-1.489c0.277-1.096-0.4-2.219-1.508-2.497c-0.255-0.063-0.51-0.071-0.755-0.042
	c-0.789-0.843-2.033-1.817-3.925-2.457l1.182-4.694c1.309,0.47,2.211,1.108,2.792,1.684c-0.059,0.123-0.105,0.248-0.138,0.384
	c-0.281,1.109,0.392,2.216,1.506,2.498c1.109,0.275,2.232-0.384,2.515-1.492c0.271-1.094-0.401-2.217-1.511-2.496
	c-0.255-0.063-0.51-0.07-0.757-0.041c-0.786-0.843-2.032-1.818-3.924-2.456l1.185-4.694c1.307,0.47,2.21,1.108,2.791,1.685
	c-0.059,0.122-0.105,0.246-0.139,0.383c-0.28,1.107,0.393,2.214,1.51,2.495c1.104,0.276,2.231-0.382,2.509-1.49
	c0.277-1.093-0.401-2.215-1.506-2.495c-0.26-0.062-0.513-0.07-0.758-0.041c-0.786-0.844-2.034-1.819-3.925-2.459l1.184-4.692
	c1.305,0.468,2.21,1.108,2.79,1.684c-0.056,0.124-0.103,0.247-0.14,0.384c-0.276,1.106,0.394,2.212,1.511,2.496
	c1.107,0.274,2.235-0.384,2.512-1.489c0.274-1.097-0.402-2.215-1.511-2.495c-0.254-0.063-0.506-0.07-0.755-0.042
	c-0.786-0.844-2.031-1.821-3.923-2.459l1.181-4.69c1.309,0.468,2.214,1.105,2.795,1.681c-0.062,0.124-0.107,0.248-0.141,0.386
	c-0.281,1.105,0.394,2.212,1.51,2.493c1.104,0.274,2.231-0.382,2.509-1.488c0.277-1.094-0.403-2.215-1.507-2.494
	c-0.259-0.064-0.511-0.072-0.755-0.044c-0.786-0.844-2.035-1.819-3.924-2.459l1.182-4.689c1.309,0.469,2.209,1.106,2.79,1.681
	c-0.057,0.125-0.103,0.251-0.141,0.386c-0.276,1.106,0.393,2.212,1.51,2.493c1.108,0.276,2.236-0.381,2.512-1.487
	c0.274-1.095-0.401-2.218-1.509-2.495c-0.254-0.063-0.507-0.071-0.756-0.044c-0.785-0.843-2.03-1.821-3.923-2.457l1.181-4.688
	c1.309,0.466,2.214,1.104,2.795,1.679c-0.062,0.121-0.107,0.25-0.141,0.385c-0.277,1.107,0.393,2.216,1.509,2.496
	c1.104,0.275,2.23-0.381,2.513-1.49c0.275-1.097-0.4-2.218-1.509-2.495c-0.254-0.065-0.513-0.074-0.757-0.045
	c-0.786-0.844-2.031-1.821-3.923-2.458l1.181-4.687c1.309,0.466,2.21,1.105,2.79,1.68c-0.056,0.12-0.102,0.25-0.135,0.384
	c-0.283,1.108,0.393,2.217,1.504,2.496c1.109,0.278,2.235-0.38,2.513-1.491c0.28-1.098-0.4-2.216-1.511-2.494
	c-0.253-0.065-0.506-0.074-0.755-0.045c-0.786-0.844-2.03-1.821-3.922-2.458l1.18-4.688c1.309,0.467,2.214,1.106,2.795,1.681
	c-0.061,0.122-0.106,0.249-0.141,0.383c-0.276,1.109,0.393,2.217,1.51,2.496c1.104,0.278,2.23-0.381,2.514-1.488
	c0.273-1.1-0.401-2.218-1.511-2.497c-0.255-0.064-0.514-0.073-0.759-0.044c-0.785-0.843-2.029-1.819-3.921-2.457l1.182-4.691
	c1.309,0.467,2.209,1.106,2.791,1.682c-0.056,0.123-0.104,0.248-0.136,0.382c-0.281,1.108,0.392,2.217,1.504,2.497
	c1.108,0.278,2.236-0.382,2.514-1.489c0.278-1.101-0.402-2.217-1.512-2.494c-0.254-0.065-0.508-0.074-0.753-0.042
	c-0.785-0.846-2.034-1.822-3.927-2.459l1.188-4.691c1.304,0.467,2.209,1.106,2.79,1.681c-0.057,0.123-0.107,0.25-0.141,0.384
	c-0.276,1.106,0.393,2.215,1.51,2.495c1.104,0.278,2.231-0.383,2.513-1.488c0.275-1.102-0.401-2.215-1.511-2.493
	c-0.254-0.064-0.512-0.073-0.757-0.042c-0.785-0.845-2.029-1.822-3.923-2.459l0.925-3.663l76.446,19.146L163.846,190.963z
	 M96.808,74.557L38.686,60l-0.074,0.293L96.736,74.85L96.808,74.557z M98.157,69.2L40.036,54.643l-0.076,0.3L98.082,69.5
	L98.157,69.2z M91.42,95.941L33.298,81.386l-0.076,0.301l58.121,14.556L91.42,95.941z M92.767,90.599L34.646,76.042L34.57,76.34
	l58.121,14.556L92.767,90.599z M88.726,106.643L30.602,92.086l-0.074,0.301l58.121,14.555L88.726,106.643z M90.071,101.293
	L31.95,86.738l-0.074,0.293L90,101.587L90.071,101.293z M87.38,111.984L29.259,97.429l-0.077,0.3l58.121,14.557L87.38,111.984z
	 M94.116,85.247L35.994,70.69l-0.074,0.294l58.12,14.555L94.116,85.247z M118.546,103.055l58.119,14.555l0.073-0.302l-58.118-14.551
	L118.546,103.055z M117.2,108.4l58.117,14.552l0.072-0.29l-58.119-14.556L117.2,108.4z M115.85,113.755l58.117,14.557l0.074-0.304
	l-58.112-14.553L115.85,113.755z M183.472,90.566l-58.112-14.553l-0.078,0.3l58.117,14.553L183.472,90.566z M178.085,111.967
	l-58.119-14.556l-0.073,0.296l58.114,14.555L178.085,111.967z M179.434,106.612l-58.118-14.554l-0.072,0.295l58.112,14.555
	L179.434,106.612z M182.122,95.923L124.01,81.369l-0.072,0.293l58.113,14.554L182.122,95.923z M114.504,119.099l58.117,14.551
	l0.073-0.297l-58.112-14.556L114.504,119.099z M180.781,101.264l-58.117-14.556l-0.075,0.305l58.113,14.556L180.781,101.264z
	 M102.377,167.233l58.118,14.553l0.071-0.293l-58.115-14.558L102.377,167.233z M105.072,156.539l58.117,14.557l0.073-0.302
	l-58.118-14.557L105.072,156.539z M107.768,145.842l58.112,14.558l0.08-0.305l-58.118-14.557L107.768,145.842z M106.422,151.182
	l58.112,14.558l0.077-0.292l-58.118-14.557L106.422,151.182z M103.723,161.888l58.119,14.557l0.074-0.309l-58.117-14.551
	L103.723,161.888z M110.464,135.142l58.114,14.556l0.078-0.3l-58.119-14.554L110.464,135.142z M111.806,129.796l58.119,14.555
	l0.072-0.295L111.884,129.5L111.806,129.796z M109.114,140.492l58.114,14.556l0.077-0.292l-58.118-14.557L109.114,140.492z
	 M113.154,124.446l58.119,14.556l0.071-0.297l-58.112-14.551L113.154,124.446z"/>
<path fill="#282828" d="M142.625,107.479c0,0,22.406-37.172,25.396-42.396c6.158-10.792,20.756-37.61,27.452-50.063
	c0.252,0.145,0.473,0.273,0.628,0.364c-0.933,3.099-4.073,12.786-10.576,26.278c-0.348,0.724-0.049,1.592,0.669,1.944
	c0.724,0.35,12.896-28.087,13.017-28.532c0.17-0.637-0.104-1.313-0.674-1.641l-1.688-0.977c1.281-2.396,2.051-3.859,2.089-3.976
	c0.387-1.233-0.673-1.816-0.673-1.816l-0.286-0.167l1.795-3.145c0.462-0.794,0.194-1.806-0.587-2.263l-1.497-0.871
	c-0.778-0.452-1.78-0.183-2.243,0.615l-1.778,3.138l-0.399-0.233c0,0-1.024-0.631-1.898,0.325c-0.083,0.091-0.958,1.508-2.382,3.845
	c-0.69-0.38-1.561-0.145-1.955,0.545c-0.381,0.668-0.175,1.507,0.452,1.93c-7.329,12.092-22.999,38.253-29.159,49.04
	c-2.979,5.224-23.646,43.424-23.646,43.424s-4.055,9.772-4.171,14.176l0.186,0.106c-0.014,0.036-1.023,2.594-0.585,2.85
	c0.448,0.26,2.156-1.932,2.156-1.932l0.195,0.105C136.173,115.853,142.625,107.479,142.625,107.479z"/>
</svg>
